G04 (created by PCBNEW (2013-07-07 BZR 4022)-stable) date 7/6/2014 3:39:49 PM*
%MOIN*%
G04 Gerber Fmt 3.4, Leading zero omitted, Abs format*
%FSLAX34Y34*%
G01*
G70*
G90*
G04 APERTURE LIST*
%ADD10C,0.00590551*%
%ADD11C,0.0629921*%
%ADD12C,0.1567*%
%ADD13C,0.0984*%
%ADD14C,0.0669*%
%ADD15O,0.045X0.065*%
%ADD16O,0.067X0.11*%
%ADD17C,0.065*%
%ADD18O,0.065X0.045*%
%ADD19O,0.11X0.067*%
%ADD20C,0.0393701*%
%ADD21C,0.01*%
G04 APERTURE END LIST*
G54D10*
G54D11*
X63600Y-58100D03*
X63600Y-55100D03*
X89400Y-58100D03*
X89400Y-55100D03*
G54D12*
X37632Y-57000D03*
G54D13*
X38632Y-55000D03*
X36132Y-56000D03*
G54D14*
X35632Y-57000D03*
X39632Y-57000D03*
G54D12*
X67625Y-57000D03*
G54D13*
X68625Y-55000D03*
X66125Y-56000D03*
G54D14*
X65625Y-57000D03*
X69625Y-57000D03*
G54D12*
X98541Y-57000D03*
G54D13*
X99541Y-55000D03*
X97041Y-56000D03*
G54D14*
X96541Y-57000D03*
X100541Y-57000D03*
G54D12*
X34812Y-49500D03*
G54D13*
X35812Y-47500D03*
X33312Y-48500D03*
G54D14*
X32812Y-49500D03*
X36812Y-49500D03*
G54D12*
X117312Y-34500D03*
G54D13*
X118312Y-32500D03*
X115812Y-33500D03*
G54D14*
X115312Y-34500D03*
X119312Y-34500D03*
G54D12*
X101370Y-42000D03*
G54D13*
X102370Y-40000D03*
X99870Y-41000D03*
G54D14*
X99370Y-42000D03*
X103370Y-42000D03*
G54D12*
X93870Y-42000D03*
G54D13*
X94870Y-40000D03*
X92370Y-41000D03*
G54D14*
X91870Y-42000D03*
X95870Y-42000D03*
G54D12*
X86370Y-42000D03*
G54D13*
X87370Y-40000D03*
X84870Y-41000D03*
G54D14*
X84370Y-42000D03*
X88370Y-42000D03*
G54D12*
X78870Y-42000D03*
G54D13*
X79870Y-40000D03*
X77370Y-41000D03*
G54D14*
X76870Y-42000D03*
X80870Y-42000D03*
G54D12*
X71370Y-42000D03*
G54D13*
X72370Y-40000D03*
X69870Y-41000D03*
G54D14*
X69370Y-42000D03*
X73370Y-42000D03*
G54D12*
X63870Y-42000D03*
G54D13*
X64870Y-40000D03*
X62370Y-41000D03*
G54D14*
X61870Y-42000D03*
X65870Y-42000D03*
G54D12*
X56370Y-42000D03*
G54D13*
X57370Y-40000D03*
X54870Y-41000D03*
G54D14*
X54370Y-42000D03*
X58370Y-42000D03*
G54D12*
X48870Y-42000D03*
G54D13*
X49870Y-40000D03*
X47370Y-41000D03*
G54D14*
X46870Y-42000D03*
X50870Y-42000D03*
G54D12*
X41370Y-42000D03*
G54D13*
X42370Y-40000D03*
X39870Y-41000D03*
G54D14*
X39370Y-42000D03*
X43370Y-42000D03*
G54D12*
X32935Y-42000D03*
G54D13*
X33935Y-40000D03*
X31435Y-41000D03*
G54D14*
X30935Y-42000D03*
X34935Y-42000D03*
G54D12*
X77000Y-34500D03*
G54D13*
X78000Y-32500D03*
X75500Y-33500D03*
G54D14*
X75000Y-34500D03*
X79000Y-34500D03*
G54D12*
X107000Y-34500D03*
G54D13*
X108000Y-32500D03*
X105500Y-33500D03*
G54D14*
X105000Y-34500D03*
X109000Y-34500D03*
G54D12*
X99500Y-34500D03*
G54D13*
X100500Y-32500D03*
X98000Y-33500D03*
G54D14*
X97500Y-34500D03*
X101500Y-34500D03*
G54D12*
X84500Y-34500D03*
G54D13*
X85500Y-32500D03*
X83000Y-33500D03*
G54D14*
X82500Y-34500D03*
X86500Y-34500D03*
G54D12*
X69500Y-34500D03*
G54D13*
X70500Y-32500D03*
X68000Y-33500D03*
G54D14*
X67500Y-34500D03*
X71500Y-34500D03*
G54D12*
X62000Y-34500D03*
G54D13*
X63000Y-32500D03*
X60500Y-33500D03*
G54D14*
X60000Y-34500D03*
X64000Y-34500D03*
G54D12*
X54500Y-34500D03*
G54D13*
X55500Y-32500D03*
X53000Y-33500D03*
G54D14*
X52500Y-34500D03*
X56500Y-34500D03*
G54D12*
X47000Y-34500D03*
G54D13*
X48000Y-32500D03*
X45500Y-33500D03*
G54D14*
X45000Y-34500D03*
X49000Y-34500D03*
G54D12*
X39500Y-34500D03*
G54D13*
X40500Y-32500D03*
X38000Y-33500D03*
G54D14*
X37500Y-34500D03*
X41500Y-34500D03*
G54D12*
X32000Y-34500D03*
G54D13*
X33000Y-32500D03*
X30500Y-33500D03*
G54D14*
X30000Y-34500D03*
X34000Y-34500D03*
G54D12*
X108870Y-42000D03*
G54D13*
X109870Y-40000D03*
X107370Y-41000D03*
G54D14*
X106870Y-42000D03*
X110870Y-42000D03*
G54D12*
X92000Y-34500D03*
G54D13*
X93000Y-32500D03*
X90500Y-33500D03*
G54D14*
X90000Y-34500D03*
X94000Y-34500D03*
G54D12*
X115411Y-57000D03*
G54D13*
X116411Y-55000D03*
X113911Y-56000D03*
G54D14*
X113411Y-57000D03*
X117411Y-57000D03*
G54D12*
X106976Y-57000D03*
G54D13*
X107976Y-55000D03*
X105476Y-56000D03*
G54D14*
X104976Y-57000D03*
X108976Y-57000D03*
G54D12*
X85419Y-57000D03*
G54D13*
X86419Y-55000D03*
X83919Y-56000D03*
G54D14*
X83419Y-57000D03*
X87419Y-57000D03*
G54D12*
X54502Y-57000D03*
G54D13*
X55502Y-55000D03*
X53002Y-56000D03*
G54D14*
X52502Y-57000D03*
X56502Y-57000D03*
G54D12*
X46067Y-57000D03*
G54D13*
X47067Y-55000D03*
X44567Y-56000D03*
G54D14*
X44067Y-57000D03*
X48067Y-57000D03*
G54D12*
X120125Y-49500D03*
G54D13*
X121125Y-47500D03*
X118625Y-48500D03*
G54D14*
X118125Y-49500D03*
X122125Y-49500D03*
G54D12*
X112625Y-49500D03*
G54D13*
X113625Y-47500D03*
X111125Y-48500D03*
G54D14*
X110625Y-49500D03*
X114625Y-49500D03*
G54D12*
X105125Y-49500D03*
G54D13*
X106125Y-47500D03*
X103625Y-48500D03*
G54D14*
X103125Y-49500D03*
X107125Y-49500D03*
G54D12*
X97625Y-49500D03*
G54D13*
X98625Y-47500D03*
X96125Y-48500D03*
G54D14*
X95625Y-49500D03*
X99625Y-49500D03*
G54D12*
X90125Y-49500D03*
G54D13*
X91125Y-47500D03*
X88625Y-48500D03*
G54D14*
X88125Y-49500D03*
X92125Y-49500D03*
G54D12*
X82625Y-49500D03*
G54D13*
X83625Y-47500D03*
X81125Y-48500D03*
G54D14*
X80625Y-49500D03*
X84625Y-49500D03*
G54D12*
X75125Y-49500D03*
G54D13*
X76125Y-47500D03*
X73625Y-48500D03*
G54D14*
X73125Y-49500D03*
X77125Y-49500D03*
G54D12*
X67625Y-49500D03*
G54D13*
X68625Y-47500D03*
X66125Y-48500D03*
G54D14*
X65625Y-49500D03*
X69625Y-49500D03*
G54D12*
X60125Y-49500D03*
G54D13*
X61125Y-47500D03*
X58625Y-48500D03*
G54D14*
X58125Y-49500D03*
X62125Y-49500D03*
G54D12*
X52625Y-49500D03*
G54D13*
X53625Y-47500D03*
X51125Y-48500D03*
G54D14*
X50625Y-49500D03*
X54625Y-49500D03*
G54D12*
X45125Y-49500D03*
G54D13*
X46125Y-47500D03*
X43625Y-48500D03*
G54D14*
X43125Y-49500D03*
X47125Y-49500D03*
G54D12*
X118245Y-42000D03*
G54D13*
X119245Y-40000D03*
X116745Y-41000D03*
G54D14*
X116245Y-42000D03*
X120245Y-42000D03*
G54D15*
X111370Y-33785D03*
X111685Y-33097D03*
X112000Y-33785D03*
X112315Y-33097D03*
X112630Y-33785D03*
G54D16*
X113436Y-31689D03*
X110564Y-31689D03*
G54D17*
X111050Y-34850D03*
X109750Y-32550D03*
X112000Y-34850D03*
X114250Y-32550D03*
X112950Y-34850D03*
G54D18*
X31285Y-38630D03*
X30597Y-38315D03*
X31285Y-38000D03*
X30597Y-37685D03*
X31285Y-37370D03*
G54D19*
X29189Y-36564D03*
X29189Y-39436D03*
G54D17*
X32350Y-38950D03*
X30050Y-40250D03*
X32350Y-38000D03*
X30050Y-35750D03*
X32350Y-37050D03*
G54D20*
X33100Y-59100D03*
X73400Y-56600D03*
X96600Y-59800D03*
X76400Y-58500D03*
X104000Y-59400D03*
X76900Y-58500D03*
X112500Y-59800D03*
X77000Y-60100D03*
X42300Y-53400D03*
X73400Y-57100D03*
X74700Y-53700D03*
X49500Y-52500D03*
X65800Y-58300D03*
X75100Y-58500D03*
X64800Y-59000D03*
X62100Y-59000D03*
X70200Y-59000D03*
X75600Y-60100D03*
X75900Y-58500D03*
X73100Y-52900D03*
X77600Y-58400D03*
X76600Y-57600D03*
X78000Y-56200D03*
X79400Y-51700D03*
X80600Y-47000D03*
X78400Y-45600D03*
X83000Y-42200D03*
X81400Y-41000D03*
X82200Y-58600D03*
X77700Y-55600D03*
X73600Y-33800D03*
X77400Y-47200D03*
X77700Y-57100D03*
X74100Y-44400D03*
X77000Y-47700D03*
X77300Y-57500D03*
X79500Y-57500D03*
X75500Y-58000D03*
X80200Y-58100D03*
X82600Y-38000D03*
X33200Y-38000D03*
X85000Y-38200D03*
X112000Y-38000D03*
X33600Y-38400D03*
X81200Y-38600D03*
X84600Y-37400D03*
X109800Y-37400D03*
X75600Y-51200D03*
X76200Y-48400D03*
X86100Y-58100D03*
X74900Y-51900D03*
X77100Y-51400D03*
X82400Y-52100D03*
X81700Y-53400D03*
X103300Y-58600D03*
X116400Y-38100D03*
X110900Y-36600D03*
X36700Y-39800D03*
X35900Y-37300D03*
X65900Y-37200D03*
X72600Y-59200D03*
X74500Y-59600D03*
G54D21*
X33100Y-54200D02*
X33100Y-59100D01*
X34300Y-53000D02*
X33100Y-54200D01*
X72500Y-53000D02*
X34300Y-53000D01*
X72600Y-53000D02*
X72500Y-53000D01*
X72600Y-55800D02*
X72600Y-53000D01*
X73400Y-56600D02*
X72600Y-55800D01*
X77700Y-59800D02*
X96600Y-59800D01*
X76400Y-58500D02*
X77700Y-59800D01*
X77800Y-59400D02*
X104000Y-59400D01*
X76900Y-58500D02*
X77800Y-59400D01*
X112000Y-60200D02*
X112500Y-59800D01*
X77100Y-60200D02*
X112000Y-60200D01*
X77000Y-60100D02*
X77100Y-60200D01*
X72100Y-53400D02*
X42300Y-53400D01*
X72200Y-53400D02*
X72100Y-53400D01*
X72200Y-55900D02*
X72200Y-53400D01*
X73400Y-57100D02*
X72200Y-55900D01*
X73400Y-52400D02*
X50999Y-52495D01*
X74700Y-53700D02*
X73400Y-52400D01*
X49495Y-52495D02*
X50999Y-52495D01*
X49500Y-52500D02*
X49495Y-52495D01*
X68200Y-58300D02*
X65800Y-58300D01*
X68500Y-58600D02*
X68200Y-58300D01*
X72700Y-58600D02*
X68500Y-58600D01*
X73700Y-59600D02*
X72700Y-58600D01*
X74000Y-59600D02*
X73700Y-59600D01*
X75100Y-58500D02*
X74000Y-59600D01*
X62600Y-59000D02*
X64800Y-59000D01*
X62100Y-59000D02*
X62600Y-59000D01*
X70200Y-59000D02*
X70200Y-60000D01*
X70200Y-60000D02*
X70400Y-60100D01*
X70400Y-60100D02*
X75600Y-60100D01*
X73100Y-55700D02*
X74600Y-55700D01*
X73100Y-55700D02*
X73100Y-52900D01*
X75900Y-57000D02*
X75900Y-58500D01*
X74600Y-55700D02*
X75900Y-57000D01*
X77400Y-58400D02*
X77600Y-58400D01*
X76600Y-57600D02*
X77400Y-58400D01*
X79500Y-54700D02*
X78000Y-56200D01*
X79500Y-51800D02*
X79500Y-54700D01*
X79400Y-51700D02*
X79500Y-51800D01*
X79600Y-46000D02*
X80600Y-47000D01*
X78800Y-46000D02*
X79600Y-46000D01*
X78400Y-45600D02*
X78800Y-46000D01*
X82600Y-42200D02*
X83000Y-42200D01*
X81400Y-41000D02*
X82600Y-42200D01*
X79900Y-58600D02*
X82200Y-58600D01*
X77500Y-56200D02*
X79900Y-58600D01*
X77500Y-55800D02*
X77500Y-56200D01*
X77700Y-55600D02*
X77500Y-55800D01*
X73900Y-33500D02*
X75500Y-33500D01*
X73600Y-33800D02*
X73900Y-33500D01*
X78800Y-48600D02*
X77400Y-47200D01*
X78800Y-52300D02*
X78800Y-48600D01*
X77200Y-53900D02*
X78800Y-52300D01*
X77200Y-56600D02*
X77200Y-53900D01*
X77700Y-57100D02*
X77200Y-56600D01*
X30500Y-33500D02*
X32400Y-31600D01*
X66100Y-31600D02*
X68000Y-33500D01*
X62600Y-31600D02*
X66100Y-31600D01*
X60900Y-33300D02*
X62600Y-31600D01*
X60500Y-33300D02*
X60900Y-33300D01*
X58800Y-31600D02*
X60500Y-33300D01*
X54800Y-31600D02*
X58800Y-31600D01*
X53000Y-33400D02*
X54800Y-31600D01*
X51200Y-31600D02*
X53000Y-33400D01*
X47200Y-31600D02*
X51200Y-31600D01*
X45500Y-33300D02*
X47200Y-31600D01*
X43800Y-31600D02*
X45500Y-33300D01*
X39800Y-31600D02*
X43800Y-31600D01*
X38000Y-33400D02*
X39800Y-31600D01*
X36200Y-31600D02*
X38000Y-33400D01*
X32400Y-31600D02*
X36200Y-31600D01*
X68000Y-33500D02*
X68100Y-33500D01*
X68100Y-33500D02*
X70000Y-31600D01*
X70000Y-31600D02*
X73600Y-31600D01*
X73600Y-31600D02*
X75500Y-33500D01*
X75500Y-33500D02*
X77400Y-31600D01*
X77400Y-31600D02*
X81200Y-31600D01*
X81200Y-31600D02*
X83000Y-33400D01*
X83000Y-33400D02*
X84800Y-31600D01*
X84800Y-31600D02*
X88600Y-31600D01*
X88600Y-31600D02*
X90500Y-33500D01*
X90500Y-33500D02*
X92400Y-31600D01*
X92400Y-31600D02*
X96200Y-31600D01*
X96200Y-31600D02*
X98000Y-33400D01*
X98000Y-33400D02*
X99800Y-31600D01*
X99800Y-31600D02*
X103600Y-31600D01*
X103600Y-31600D02*
X105500Y-33500D01*
X105500Y-33500D02*
X107400Y-31600D01*
X107400Y-31600D02*
X108800Y-31600D01*
X108800Y-31600D02*
X109000Y-31800D01*
X109000Y-31800D02*
X109000Y-33200D01*
X109000Y-33200D02*
X110000Y-34200D01*
X110000Y-34200D02*
X110000Y-35600D01*
X110000Y-35600D02*
X110200Y-35800D01*
X110200Y-35800D02*
X113600Y-35800D01*
X113600Y-35800D02*
X114200Y-35200D01*
X114200Y-35200D02*
X114200Y-34000D01*
X114200Y-34000D02*
X114700Y-33500D01*
X114700Y-33500D02*
X115812Y-33500D01*
X76800Y-52200D02*
X77200Y-52200D01*
X75409Y-43060D02*
X75370Y-43099D01*
X75600Y-41000D02*
X77370Y-41000D01*
X75409Y-41000D02*
X75600Y-41000D01*
X74100Y-44400D02*
X75370Y-43099D01*
X77100Y-47700D02*
X77000Y-47700D01*
X78000Y-48600D02*
X77100Y-47700D01*
X78000Y-49600D02*
X78000Y-48600D01*
X76800Y-57000D02*
X76800Y-52200D01*
X77300Y-57500D02*
X76800Y-57000D01*
X75409Y-41000D02*
X75409Y-43060D01*
X78000Y-51400D02*
X78000Y-49600D01*
X77200Y-52200D02*
X78000Y-51400D01*
X31435Y-41000D02*
X31600Y-41000D01*
X38070Y-39200D02*
X39870Y-41000D01*
X33400Y-39200D02*
X38070Y-39200D01*
X31600Y-41000D02*
X33400Y-39200D01*
X39870Y-41000D02*
X39870Y-40929D01*
X39870Y-40929D02*
X41800Y-39000D01*
X41800Y-39000D02*
X45370Y-39000D01*
X45370Y-39000D02*
X47370Y-41000D01*
X47370Y-41000D02*
X47400Y-41000D01*
X47400Y-41000D02*
X49400Y-39000D01*
X49400Y-39000D02*
X52870Y-39000D01*
X52870Y-39000D02*
X54870Y-41000D01*
X54870Y-41000D02*
X54870Y-40929D01*
X54870Y-40929D02*
X56800Y-39000D01*
X56800Y-39000D02*
X60370Y-39000D01*
X60370Y-39000D02*
X62370Y-41000D01*
X62370Y-41000D02*
X62400Y-41000D01*
X62400Y-41000D02*
X64200Y-39200D01*
X64200Y-39200D02*
X68070Y-39200D01*
X68070Y-39200D02*
X69870Y-41000D01*
X69870Y-41000D02*
X70000Y-41000D01*
X70000Y-41000D02*
X72000Y-39000D01*
X72000Y-39000D02*
X75370Y-39000D01*
X75370Y-39000D02*
X77370Y-41000D01*
X77370Y-41000D02*
X77400Y-41000D01*
X77400Y-41000D02*
X79400Y-39000D01*
X79400Y-39000D02*
X80600Y-39000D01*
X80600Y-39000D02*
X82600Y-41000D01*
X82600Y-41000D02*
X84870Y-41000D01*
X84870Y-41000D02*
X86800Y-39070D01*
X86800Y-39070D02*
X90529Y-39070D01*
X90529Y-39070D02*
X92370Y-40910D01*
X92370Y-40910D02*
X92489Y-40910D01*
X92489Y-40910D02*
X94400Y-39000D01*
X94400Y-39000D02*
X97870Y-39000D01*
X97870Y-39000D02*
X99870Y-41000D01*
X99870Y-41000D02*
X99870Y-40929D01*
X99870Y-40929D02*
X101800Y-39000D01*
X101800Y-39000D02*
X105370Y-39000D01*
X105370Y-39000D02*
X107370Y-41000D01*
X107370Y-41000D02*
X107400Y-41000D01*
X107400Y-41000D02*
X109400Y-39000D01*
X109400Y-39000D02*
X114745Y-39000D01*
X114745Y-39000D02*
X116745Y-41000D01*
X80100Y-48500D02*
X81125Y-48500D01*
X80000Y-48600D02*
X80100Y-48500D01*
X80000Y-57000D02*
X80000Y-48600D01*
X79500Y-57500D02*
X80000Y-57000D01*
X33312Y-48500D02*
X33312Y-48287D01*
X41725Y-46600D02*
X43625Y-48500D01*
X35000Y-46600D02*
X41725Y-46600D01*
X33312Y-48287D02*
X35000Y-46600D01*
X43625Y-48500D02*
X43700Y-48500D01*
X43700Y-48500D02*
X45600Y-46600D01*
X45600Y-46600D02*
X49225Y-46600D01*
X49225Y-46600D02*
X51125Y-48500D01*
X51125Y-48500D02*
X51125Y-48475D01*
X51125Y-48475D02*
X53000Y-46600D01*
X53000Y-46600D02*
X56725Y-46600D01*
X56725Y-46600D02*
X58625Y-48500D01*
X58625Y-48500D02*
X58700Y-48500D01*
X58700Y-48500D02*
X60600Y-46600D01*
X60600Y-46600D02*
X64400Y-46600D01*
X64400Y-46600D02*
X66125Y-48325D01*
X66125Y-48325D02*
X66125Y-48500D01*
X66125Y-48500D02*
X68200Y-46425D01*
X68200Y-46425D02*
X71425Y-46425D01*
X71425Y-46425D02*
X73500Y-48500D01*
X73500Y-48500D02*
X73700Y-48500D01*
X73700Y-48500D02*
X75600Y-46600D01*
X75600Y-46600D02*
X79225Y-46600D01*
X79225Y-46600D02*
X81125Y-48500D01*
X81125Y-48500D02*
X81125Y-48275D01*
X81125Y-48275D02*
X82600Y-46800D01*
X82600Y-46800D02*
X86925Y-46800D01*
X86925Y-46800D02*
X88625Y-48500D01*
X88625Y-48500D02*
X88700Y-48500D01*
X88700Y-48500D02*
X90600Y-46600D01*
X90600Y-46600D02*
X94225Y-46600D01*
X94225Y-46600D02*
X96125Y-48500D01*
X96125Y-48500D02*
X96125Y-48475D01*
X96125Y-48475D02*
X98000Y-46600D01*
X98000Y-46600D02*
X101725Y-46600D01*
X101725Y-46600D02*
X103625Y-48500D01*
X103625Y-48500D02*
X103700Y-48500D01*
X103700Y-48500D02*
X105600Y-46600D01*
X105600Y-46600D02*
X109225Y-46600D01*
X109225Y-46600D02*
X111125Y-48500D01*
X111125Y-48500D02*
X111300Y-48500D01*
X111300Y-48500D02*
X113200Y-46600D01*
X113200Y-46600D02*
X116725Y-46600D01*
X116725Y-46600D02*
X118625Y-48500D01*
X72800Y-57300D02*
X73350Y-57850D01*
X66125Y-55974D02*
X68100Y-54000D01*
X68100Y-54000D02*
X69400Y-54000D01*
X69400Y-54000D02*
X70600Y-55200D01*
X70600Y-55200D02*
X70600Y-57300D01*
X70600Y-57300D02*
X72800Y-57300D01*
X66125Y-56000D02*
X66125Y-55974D01*
X75500Y-58000D02*
X75350Y-57850D01*
X75350Y-57850D02*
X73350Y-57850D01*
X83919Y-56000D02*
X84000Y-56000D01*
X95141Y-54100D02*
X97041Y-56000D01*
X85900Y-54100D02*
X95141Y-54100D01*
X84000Y-56000D02*
X85900Y-54100D01*
X82500Y-58000D02*
X82500Y-56300D01*
X82500Y-56300D02*
X82800Y-56000D01*
X82800Y-56000D02*
X83919Y-56000D01*
X82400Y-58100D02*
X82500Y-58000D01*
X80200Y-58100D02*
X82400Y-58100D01*
X97041Y-56000D02*
X97041Y-55958D01*
X97041Y-55958D02*
X99000Y-54000D01*
X99000Y-54000D02*
X103476Y-54000D01*
X103476Y-54000D02*
X105476Y-56000D01*
X105476Y-56000D02*
X105476Y-55723D01*
X105476Y-55723D02*
X107000Y-54200D01*
X107000Y-54200D02*
X112111Y-54200D01*
X112111Y-54200D02*
X113911Y-56000D01*
X53002Y-56000D02*
X53200Y-56000D01*
X64325Y-54200D02*
X66125Y-56000D01*
X55000Y-54200D02*
X64325Y-54200D01*
X53200Y-56000D02*
X55000Y-54200D01*
X36132Y-56000D02*
X36132Y-55867D01*
X42567Y-54000D02*
X44567Y-56000D01*
X38000Y-54000D02*
X42567Y-54000D01*
X36132Y-55867D02*
X38000Y-54000D01*
X44567Y-56000D02*
X44567Y-55832D01*
X44567Y-55832D02*
X46400Y-54000D01*
X46400Y-54000D02*
X51002Y-54000D01*
X51002Y-54000D02*
X53002Y-56000D01*
X33200Y-38000D02*
X82600Y-38000D01*
X111800Y-38200D02*
X85000Y-38200D01*
X112000Y-38000D02*
X111800Y-38200D01*
X69800Y-38400D02*
X33600Y-38400D01*
X70000Y-38600D02*
X69800Y-38400D01*
X81200Y-38600D02*
X70000Y-38600D01*
X109400Y-37400D02*
X84600Y-37400D01*
X109800Y-37400D02*
X109400Y-37400D01*
X76000Y-51200D02*
X75600Y-51200D01*
X76200Y-51000D02*
X76000Y-51200D01*
X76200Y-48400D02*
X76200Y-51000D01*
X88700Y-58800D02*
X89400Y-58100D01*
X86800Y-58800D02*
X88700Y-58800D01*
X86100Y-58100D02*
X86800Y-58800D01*
X76600Y-51900D02*
X74900Y-51900D01*
X77100Y-51400D02*
X76600Y-51900D01*
X82400Y-52700D02*
X81700Y-53400D01*
X82400Y-52700D02*
X82400Y-52100D01*
X113900Y-38100D02*
X112500Y-36700D01*
X100400Y-58100D02*
X100900Y-58600D01*
X100900Y-58600D02*
X103300Y-58600D01*
X116400Y-38100D02*
X113900Y-38100D01*
X112500Y-36700D02*
X112400Y-36600D01*
X112400Y-36600D02*
X110900Y-36600D01*
X100400Y-58100D02*
X89400Y-58100D01*
X32250Y-38950D02*
X32350Y-38950D01*
X30200Y-41000D02*
X32250Y-38950D01*
X30200Y-42500D02*
X30200Y-41000D01*
X30900Y-43200D02*
X30200Y-42500D01*
X35400Y-43200D02*
X30900Y-43200D01*
X35600Y-43000D02*
X35400Y-43200D01*
X35600Y-40900D02*
X35600Y-43000D01*
X36700Y-39800D02*
X35600Y-40900D01*
X40600Y-37300D02*
X35900Y-37300D01*
X65800Y-37300D02*
X40600Y-37300D01*
X65900Y-37200D02*
X65800Y-37300D01*
X74299Y-59800D02*
X74500Y-59600D01*
X73200Y-59800D02*
X74299Y-59800D01*
X73200Y-59800D02*
X72600Y-59200D01*
G54D10*
G36*
X123430Y-60072D02*
X123408Y-60185D01*
X123358Y-60259D01*
X123286Y-60308D01*
X123173Y-60330D01*
X123000Y-60330D01*
X122709Y-60330D01*
X122709Y-49384D01*
X122620Y-49169D01*
X122456Y-49004D01*
X122241Y-48915D01*
X122009Y-48915D01*
X121867Y-48974D01*
X121867Y-47353D01*
X121754Y-47080D01*
X121545Y-46871D01*
X121273Y-46758D01*
X120978Y-46757D01*
X120829Y-46819D01*
X120829Y-41884D01*
X120740Y-41669D01*
X120576Y-41504D01*
X120361Y-41415D01*
X120129Y-41415D01*
X119987Y-41474D01*
X119987Y-39853D01*
X119897Y-39634D01*
X119897Y-34384D01*
X119808Y-34169D01*
X119644Y-34004D01*
X119429Y-33915D01*
X119196Y-33915D01*
X119054Y-33974D01*
X119054Y-32353D01*
X118941Y-32080D01*
X118733Y-31871D01*
X118460Y-31758D01*
X118165Y-31757D01*
X117892Y-31870D01*
X117683Y-32079D01*
X117570Y-32351D01*
X117570Y-32646D01*
X117683Y-32919D01*
X117891Y-33128D01*
X118164Y-33241D01*
X118459Y-33242D01*
X118732Y-33129D01*
X118941Y-32920D01*
X119054Y-32648D01*
X119054Y-32353D01*
X119054Y-33974D01*
X118981Y-34004D01*
X118817Y-34168D01*
X118728Y-34383D01*
X118727Y-34615D01*
X118816Y-34830D01*
X118980Y-34995D01*
X119195Y-35084D01*
X119428Y-35084D01*
X119643Y-34995D01*
X119807Y-34831D01*
X119896Y-34616D01*
X119897Y-34384D01*
X119897Y-39634D01*
X119874Y-39580D01*
X119665Y-39371D01*
X119393Y-39258D01*
X119098Y-39257D01*
X118825Y-39370D01*
X118616Y-39579D01*
X118503Y-39851D01*
X118502Y-40146D01*
X118615Y-40419D01*
X118824Y-40628D01*
X119096Y-40741D01*
X119392Y-40742D01*
X119664Y-40629D01*
X119873Y-40420D01*
X119986Y-40148D01*
X119987Y-39853D01*
X119987Y-41474D01*
X119914Y-41504D01*
X119749Y-41668D01*
X119660Y-41883D01*
X119660Y-42115D01*
X119749Y-42330D01*
X119913Y-42495D01*
X120128Y-42584D01*
X120360Y-42584D01*
X120575Y-42495D01*
X120740Y-42331D01*
X120829Y-42116D01*
X120829Y-41884D01*
X120829Y-46819D01*
X120705Y-46870D01*
X120496Y-47079D01*
X120383Y-47351D01*
X120382Y-47646D01*
X120495Y-47919D01*
X120704Y-48128D01*
X120976Y-48241D01*
X121271Y-48242D01*
X121544Y-48129D01*
X121753Y-47920D01*
X121866Y-47648D01*
X121867Y-47353D01*
X121867Y-48974D01*
X121794Y-49004D01*
X121629Y-49168D01*
X121540Y-49383D01*
X121540Y-49615D01*
X121629Y-49830D01*
X121793Y-49995D01*
X122008Y-50084D01*
X122240Y-50084D01*
X122455Y-49995D01*
X122620Y-49831D01*
X122709Y-49616D01*
X122709Y-49384D01*
X122709Y-60330D01*
X117996Y-60330D01*
X117996Y-56884D01*
X117907Y-56669D01*
X117743Y-56504D01*
X117528Y-56415D01*
X117296Y-56415D01*
X117154Y-56474D01*
X117154Y-54853D01*
X117041Y-54580D01*
X116832Y-54371D01*
X116560Y-54258D01*
X116264Y-54257D01*
X115992Y-54370D01*
X115783Y-54579D01*
X115670Y-54851D01*
X115669Y-55146D01*
X115782Y-55419D01*
X115991Y-55628D01*
X116263Y-55741D01*
X116558Y-55742D01*
X116831Y-55629D01*
X117040Y-55420D01*
X117153Y-55148D01*
X117154Y-54853D01*
X117154Y-56474D01*
X117081Y-56504D01*
X116916Y-56668D01*
X116827Y-56883D01*
X116827Y-57115D01*
X116916Y-57330D01*
X117080Y-57495D01*
X117295Y-57584D01*
X117527Y-57584D01*
X117742Y-57495D01*
X117907Y-57331D01*
X117996Y-57116D01*
X117996Y-56884D01*
X117996Y-60330D01*
X112316Y-60330D01*
X112421Y-60246D01*
X112588Y-60246D01*
X112752Y-60179D01*
X112878Y-60053D01*
X112946Y-59889D01*
X112946Y-59711D01*
X112879Y-59547D01*
X112753Y-59421D01*
X112589Y-59353D01*
X112411Y-59353D01*
X112247Y-59420D01*
X112121Y-59546D01*
X112053Y-59710D01*
X112053Y-59772D01*
X111894Y-59900D01*
X109561Y-59900D01*
X109561Y-56884D01*
X109472Y-56669D01*
X109308Y-56504D01*
X109093Y-56415D01*
X108861Y-56415D01*
X108646Y-56504D01*
X108481Y-56668D01*
X108392Y-56883D01*
X108392Y-57115D01*
X108481Y-57330D01*
X108645Y-57495D01*
X108860Y-57584D01*
X109092Y-57584D01*
X109307Y-57495D01*
X109472Y-57331D01*
X109561Y-57116D01*
X109561Y-56884D01*
X109561Y-59900D01*
X97042Y-59900D01*
X97046Y-59889D01*
X97046Y-59711D01*
X97042Y-59700D01*
X103668Y-59700D01*
X103746Y-59778D01*
X103910Y-59846D01*
X104088Y-59846D01*
X104252Y-59779D01*
X104378Y-59653D01*
X104446Y-59489D01*
X104446Y-59311D01*
X104379Y-59147D01*
X104253Y-59021D01*
X104089Y-58953D01*
X103911Y-58953D01*
X103747Y-59020D01*
X103668Y-59100D01*
X88700Y-59100D01*
X88700Y-59099D01*
X88814Y-59077D01*
X88814Y-59077D01*
X88912Y-59012D01*
X89267Y-58656D01*
X89287Y-58664D01*
X89511Y-58665D01*
X89719Y-58579D01*
X89878Y-58420D01*
X89887Y-58400D01*
X100275Y-58400D01*
X100687Y-58812D01*
X100687Y-58812D01*
X100785Y-58877D01*
X100900Y-58900D01*
X102968Y-58900D01*
X103046Y-58978D01*
X103210Y-59046D01*
X103388Y-59046D01*
X103552Y-58979D01*
X103678Y-58853D01*
X103746Y-58689D01*
X103746Y-58511D01*
X103679Y-58347D01*
X103553Y-58221D01*
X103389Y-58153D01*
X103211Y-58153D01*
X103047Y-58220D01*
X102968Y-58300D01*
X101126Y-58300D01*
X101126Y-56884D01*
X101037Y-56669D01*
X100873Y-56504D01*
X100658Y-56415D01*
X100426Y-56415D01*
X100211Y-56504D01*
X100046Y-56668D01*
X99957Y-56883D01*
X99957Y-57115D01*
X100046Y-57330D01*
X100210Y-57495D01*
X100425Y-57584D01*
X100657Y-57584D01*
X100872Y-57495D01*
X101037Y-57331D01*
X101126Y-57116D01*
X101126Y-56884D01*
X101126Y-58300D01*
X101024Y-58300D01*
X100612Y-57887D01*
X100514Y-57822D01*
X100400Y-57800D01*
X99203Y-57800D01*
X99417Y-57586D01*
X99575Y-57206D01*
X99575Y-56795D01*
X99418Y-56415D01*
X99128Y-56124D01*
X98748Y-55966D01*
X98337Y-55966D01*
X97957Y-56123D01*
X97678Y-56401D01*
X97783Y-56148D01*
X97783Y-55853D01*
X97721Y-55702D01*
X99124Y-54300D01*
X99292Y-54300D01*
X99122Y-54370D01*
X98913Y-54579D01*
X98799Y-54851D01*
X98799Y-55146D01*
X98912Y-55419D01*
X99120Y-55628D01*
X99393Y-55741D01*
X99688Y-55742D01*
X99961Y-55629D01*
X100170Y-55420D01*
X100283Y-55148D01*
X100283Y-54853D01*
X100171Y-54580D01*
X99962Y-54371D01*
X99790Y-54300D01*
X103352Y-54300D01*
X104784Y-55732D01*
X104734Y-55851D01*
X104734Y-56146D01*
X104847Y-56419D01*
X104848Y-56420D01*
X104646Y-56504D01*
X104481Y-56668D01*
X104392Y-56883D01*
X104392Y-57115D01*
X104481Y-57330D01*
X104645Y-57495D01*
X104860Y-57584D01*
X105092Y-57584D01*
X105307Y-57495D01*
X105472Y-57331D01*
X105561Y-57116D01*
X105561Y-56884D01*
X105502Y-56742D01*
X105623Y-56742D01*
X105896Y-56629D01*
X106093Y-56433D01*
X105943Y-56793D01*
X105943Y-57204D01*
X106100Y-57584D01*
X106390Y-57875D01*
X106770Y-58033D01*
X107181Y-58033D01*
X107561Y-57876D01*
X107852Y-57586D01*
X108010Y-57206D01*
X108010Y-56795D01*
X107853Y-56415D01*
X107563Y-56124D01*
X107183Y-55966D01*
X106772Y-55966D01*
X106392Y-56123D01*
X106113Y-56401D01*
X106218Y-56148D01*
X106218Y-55853D01*
X106106Y-55580D01*
X106075Y-55549D01*
X107124Y-54500D01*
X107427Y-54500D01*
X107348Y-54579D01*
X107234Y-54851D01*
X107234Y-55146D01*
X107347Y-55419D01*
X107556Y-55628D01*
X107828Y-55741D01*
X108123Y-55742D01*
X108396Y-55629D01*
X108605Y-55420D01*
X108718Y-55148D01*
X108718Y-54853D01*
X108606Y-54580D01*
X108526Y-54500D01*
X111987Y-54500D01*
X113219Y-55732D01*
X113170Y-55851D01*
X113169Y-56146D01*
X113282Y-56419D01*
X113283Y-56420D01*
X113081Y-56504D01*
X112916Y-56668D01*
X112827Y-56883D01*
X112827Y-57115D01*
X112916Y-57330D01*
X113080Y-57495D01*
X113295Y-57584D01*
X113527Y-57584D01*
X113742Y-57495D01*
X113907Y-57331D01*
X113996Y-57116D01*
X113996Y-56884D01*
X113937Y-56742D01*
X114058Y-56742D01*
X114331Y-56629D01*
X114528Y-56433D01*
X114378Y-56793D01*
X114378Y-57204D01*
X114535Y-57584D01*
X114825Y-57875D01*
X115205Y-58033D01*
X115616Y-58033D01*
X115996Y-57876D01*
X116287Y-57586D01*
X116445Y-57206D01*
X116445Y-56795D01*
X116288Y-56415D01*
X115998Y-56124D01*
X115618Y-55966D01*
X115209Y-55966D01*
X115209Y-49384D01*
X115120Y-49169D01*
X114956Y-49004D01*
X114741Y-48915D01*
X114509Y-48915D01*
X114294Y-49004D01*
X114129Y-49168D01*
X114040Y-49383D01*
X114040Y-49615D01*
X114129Y-49830D01*
X114293Y-49995D01*
X114508Y-50084D01*
X114740Y-50084D01*
X114955Y-49995D01*
X115120Y-49831D01*
X115209Y-49616D01*
X115209Y-49384D01*
X115209Y-55966D01*
X115207Y-55966D01*
X114827Y-56123D01*
X114548Y-56401D01*
X114653Y-56148D01*
X114654Y-55853D01*
X114541Y-55580D01*
X114332Y-55371D01*
X114060Y-55258D01*
X113764Y-55257D01*
X113644Y-55307D01*
X112324Y-53987D01*
X112226Y-53922D01*
X112111Y-53900D01*
X107709Y-53900D01*
X107709Y-49384D01*
X107620Y-49169D01*
X107456Y-49004D01*
X107241Y-48915D01*
X107009Y-48915D01*
X106794Y-49004D01*
X106629Y-49168D01*
X106540Y-49383D01*
X106540Y-49615D01*
X106629Y-49830D01*
X106793Y-49995D01*
X107008Y-50084D01*
X107240Y-50084D01*
X107455Y-49995D01*
X107620Y-49831D01*
X107709Y-49616D01*
X107709Y-49384D01*
X107709Y-53900D01*
X107000Y-53900D01*
X106885Y-53922D01*
X106787Y-53987D01*
X105517Y-55258D01*
X105329Y-55257D01*
X105208Y-55307D01*
X103689Y-53787D01*
X103591Y-53722D01*
X103476Y-53700D01*
X100209Y-53700D01*
X100209Y-49384D01*
X100120Y-49169D01*
X99956Y-49004D01*
X99741Y-48915D01*
X99509Y-48915D01*
X99294Y-49004D01*
X99129Y-49168D01*
X99040Y-49383D01*
X99040Y-49615D01*
X99129Y-49830D01*
X99293Y-49995D01*
X99508Y-50084D01*
X99740Y-50084D01*
X99955Y-49995D01*
X100120Y-49831D01*
X100209Y-49616D01*
X100209Y-49384D01*
X100209Y-53700D01*
X99000Y-53700D01*
X98885Y-53722D01*
X98787Y-53787D01*
X97280Y-55295D01*
X97190Y-55258D01*
X96894Y-55257D01*
X96773Y-55307D01*
X95353Y-53887D01*
X95256Y-53822D01*
X95141Y-53800D01*
X92709Y-53800D01*
X92709Y-49384D01*
X92620Y-49169D01*
X92456Y-49004D01*
X92241Y-48915D01*
X92009Y-48915D01*
X91794Y-49004D01*
X91629Y-49168D01*
X91540Y-49383D01*
X91540Y-49615D01*
X91629Y-49830D01*
X91793Y-49995D01*
X92008Y-50084D01*
X92240Y-50084D01*
X92455Y-49995D01*
X92620Y-49831D01*
X92709Y-49616D01*
X92709Y-49384D01*
X92709Y-53800D01*
X85900Y-53800D01*
X85785Y-53822D01*
X85687Y-53887D01*
X85209Y-54366D01*
X85209Y-49384D01*
X85120Y-49169D01*
X84956Y-49004D01*
X84741Y-48915D01*
X84509Y-48915D01*
X84294Y-49004D01*
X84129Y-49168D01*
X84040Y-49383D01*
X84040Y-49615D01*
X84129Y-49830D01*
X84293Y-49995D01*
X84508Y-50084D01*
X84740Y-50084D01*
X84955Y-49995D01*
X85120Y-49831D01*
X85209Y-49616D01*
X85209Y-49384D01*
X85209Y-54366D01*
X84244Y-55331D01*
X84067Y-55258D01*
X83772Y-55257D01*
X83499Y-55370D01*
X83290Y-55579D01*
X83240Y-55700D01*
X82846Y-55700D01*
X82846Y-52011D01*
X82779Y-51847D01*
X82653Y-51721D01*
X82489Y-51653D01*
X82311Y-51653D01*
X82147Y-51720D01*
X82021Y-51846D01*
X81953Y-52010D01*
X81953Y-52188D01*
X82020Y-52352D01*
X82100Y-52431D01*
X82100Y-52575D01*
X81722Y-52953D01*
X81611Y-52953D01*
X81447Y-53020D01*
X81321Y-53146D01*
X81253Y-53310D01*
X81253Y-53488D01*
X81320Y-53652D01*
X81446Y-53778D01*
X81610Y-53846D01*
X81788Y-53846D01*
X81952Y-53779D01*
X82078Y-53653D01*
X82146Y-53489D01*
X82146Y-53377D01*
X82612Y-52912D01*
X82612Y-52912D01*
X82677Y-52814D01*
X82699Y-52700D01*
X82700Y-52700D01*
X82700Y-52431D01*
X82778Y-52353D01*
X82846Y-52189D01*
X82846Y-52011D01*
X82846Y-55700D01*
X82800Y-55700D01*
X82685Y-55722D01*
X82587Y-55787D01*
X82287Y-56087D01*
X82222Y-56185D01*
X82200Y-56300D01*
X82200Y-57800D01*
X80531Y-57800D01*
X80453Y-57721D01*
X80289Y-57653D01*
X80111Y-57653D01*
X79947Y-57720D01*
X79821Y-57846D01*
X79753Y-58010D01*
X79753Y-58028D01*
X79647Y-57922D01*
X79752Y-57879D01*
X79878Y-57753D01*
X79946Y-57589D01*
X79946Y-57477D01*
X80212Y-57212D01*
X80212Y-57212D01*
X80277Y-57114D01*
X80299Y-57000D01*
X80300Y-57000D01*
X80300Y-49997D01*
X80508Y-50084D01*
X80740Y-50084D01*
X80955Y-49995D01*
X81120Y-49831D01*
X81209Y-49616D01*
X81209Y-49384D01*
X81150Y-49242D01*
X81271Y-49242D01*
X81544Y-49129D01*
X81741Y-48933D01*
X81591Y-49293D01*
X81591Y-49704D01*
X81748Y-50084D01*
X82038Y-50375D01*
X82418Y-50533D01*
X82829Y-50533D01*
X83209Y-50376D01*
X83500Y-50086D01*
X83658Y-49706D01*
X83658Y-49295D01*
X83501Y-48915D01*
X83211Y-48624D01*
X82831Y-48466D01*
X82420Y-48466D01*
X82040Y-48623D01*
X81761Y-48901D01*
X81866Y-48648D01*
X81867Y-48353D01*
X81754Y-48080D01*
X81749Y-48075D01*
X82724Y-47100D01*
X82987Y-47100D01*
X82883Y-47351D01*
X82882Y-47646D01*
X82995Y-47919D01*
X83204Y-48128D01*
X83476Y-48241D01*
X83771Y-48242D01*
X84044Y-48129D01*
X84253Y-47920D01*
X84366Y-47648D01*
X84367Y-47353D01*
X84262Y-47100D01*
X86800Y-47100D01*
X87932Y-48232D01*
X87883Y-48351D01*
X87882Y-48646D01*
X87995Y-48919D01*
X87996Y-48920D01*
X87794Y-49004D01*
X87629Y-49168D01*
X87540Y-49383D01*
X87540Y-49615D01*
X87629Y-49830D01*
X87793Y-49995D01*
X88008Y-50084D01*
X88240Y-50084D01*
X88455Y-49995D01*
X88620Y-49831D01*
X88709Y-49616D01*
X88709Y-49384D01*
X88650Y-49242D01*
X88771Y-49242D01*
X89044Y-49129D01*
X89241Y-48933D01*
X89091Y-49293D01*
X89091Y-49704D01*
X89248Y-50084D01*
X89538Y-50375D01*
X89918Y-50533D01*
X90329Y-50533D01*
X90709Y-50376D01*
X91000Y-50086D01*
X91158Y-49706D01*
X91158Y-49295D01*
X91001Y-48915D01*
X90711Y-48624D01*
X90331Y-48466D01*
X89920Y-48466D01*
X89540Y-48623D01*
X89261Y-48901D01*
X89366Y-48648D01*
X89367Y-48353D01*
X89339Y-48285D01*
X90461Y-47162D01*
X90383Y-47351D01*
X90382Y-47646D01*
X90495Y-47919D01*
X90704Y-48128D01*
X90976Y-48241D01*
X91271Y-48242D01*
X91544Y-48129D01*
X91753Y-47920D01*
X91866Y-47648D01*
X91867Y-47353D01*
X91754Y-47080D01*
X91574Y-46900D01*
X94100Y-46900D01*
X95432Y-48232D01*
X95383Y-48351D01*
X95382Y-48646D01*
X95495Y-48919D01*
X95496Y-48920D01*
X95294Y-49004D01*
X95129Y-49168D01*
X95040Y-49383D01*
X95040Y-49615D01*
X95129Y-49830D01*
X95293Y-49995D01*
X95508Y-50084D01*
X95740Y-50084D01*
X95955Y-49995D01*
X96120Y-49831D01*
X96209Y-49616D01*
X96209Y-49384D01*
X96150Y-49242D01*
X96271Y-49242D01*
X96544Y-49129D01*
X96741Y-48933D01*
X96591Y-49293D01*
X96591Y-49704D01*
X96748Y-50084D01*
X97038Y-50375D01*
X97418Y-50533D01*
X97829Y-50533D01*
X98209Y-50376D01*
X98500Y-50086D01*
X98658Y-49706D01*
X98658Y-49295D01*
X98501Y-48915D01*
X98211Y-48624D01*
X97831Y-48466D01*
X97420Y-48466D01*
X97040Y-48623D01*
X96761Y-48901D01*
X96866Y-48648D01*
X96867Y-48353D01*
X96809Y-48214D01*
X98124Y-46900D01*
X98175Y-46900D01*
X97996Y-47079D01*
X97883Y-47351D01*
X97882Y-47646D01*
X97995Y-47919D01*
X98204Y-48128D01*
X98476Y-48241D01*
X98771Y-48242D01*
X99044Y-48129D01*
X99253Y-47920D01*
X99366Y-47648D01*
X99367Y-47353D01*
X99254Y-47080D01*
X99074Y-46900D01*
X101600Y-46900D01*
X102932Y-48232D01*
X102883Y-48351D01*
X102882Y-48646D01*
X102995Y-48919D01*
X102996Y-48920D01*
X102794Y-49004D01*
X102629Y-49168D01*
X102540Y-49383D01*
X102540Y-49615D01*
X102629Y-49830D01*
X102793Y-49995D01*
X103008Y-50084D01*
X103240Y-50084D01*
X103455Y-49995D01*
X103620Y-49831D01*
X103709Y-49616D01*
X103709Y-49384D01*
X103650Y-49242D01*
X103771Y-49242D01*
X104044Y-49129D01*
X104241Y-48933D01*
X104091Y-49293D01*
X104091Y-49704D01*
X104248Y-50084D01*
X104538Y-50375D01*
X104918Y-50533D01*
X105329Y-50533D01*
X105709Y-50376D01*
X106000Y-50086D01*
X106158Y-49706D01*
X106158Y-49295D01*
X106001Y-48915D01*
X105711Y-48624D01*
X105331Y-48466D01*
X104920Y-48466D01*
X104540Y-48623D01*
X104261Y-48901D01*
X104366Y-48648D01*
X104367Y-48353D01*
X104339Y-48285D01*
X105461Y-47162D01*
X105383Y-47351D01*
X105382Y-47646D01*
X105495Y-47919D01*
X105704Y-48128D01*
X105976Y-48241D01*
X106271Y-48242D01*
X106544Y-48129D01*
X106753Y-47920D01*
X106866Y-47648D01*
X106867Y-47353D01*
X106754Y-47080D01*
X106574Y-46900D01*
X109100Y-46900D01*
X110432Y-48232D01*
X110383Y-48351D01*
X110382Y-48646D01*
X110495Y-48919D01*
X110496Y-48920D01*
X110294Y-49004D01*
X110129Y-49168D01*
X110040Y-49383D01*
X110040Y-49615D01*
X110129Y-49830D01*
X110293Y-49995D01*
X110508Y-50084D01*
X110740Y-50084D01*
X110955Y-49995D01*
X111120Y-49831D01*
X111209Y-49616D01*
X111209Y-49384D01*
X111150Y-49242D01*
X111271Y-49242D01*
X111544Y-49129D01*
X111741Y-48933D01*
X111591Y-49293D01*
X111591Y-49704D01*
X111748Y-50084D01*
X112038Y-50375D01*
X112418Y-50533D01*
X112829Y-50533D01*
X113209Y-50376D01*
X113500Y-50086D01*
X113658Y-49706D01*
X113658Y-49295D01*
X113501Y-48915D01*
X113211Y-48624D01*
X112831Y-48466D01*
X112420Y-48466D01*
X112040Y-48623D01*
X111761Y-48901D01*
X111866Y-48648D01*
X111867Y-48357D01*
X112890Y-47333D01*
X112883Y-47351D01*
X112882Y-47646D01*
X112995Y-47919D01*
X113204Y-48128D01*
X113476Y-48241D01*
X113771Y-48242D01*
X114044Y-48129D01*
X114253Y-47920D01*
X114366Y-47648D01*
X114367Y-47353D01*
X114254Y-47080D01*
X114074Y-46900D01*
X116600Y-46900D01*
X117932Y-48232D01*
X117883Y-48351D01*
X117882Y-48646D01*
X117995Y-48919D01*
X117996Y-48920D01*
X117794Y-49004D01*
X117629Y-49168D01*
X117540Y-49383D01*
X117540Y-49615D01*
X117629Y-49830D01*
X117793Y-49995D01*
X118008Y-50084D01*
X118240Y-50084D01*
X118455Y-49995D01*
X118620Y-49831D01*
X118709Y-49616D01*
X118709Y-49384D01*
X118650Y-49242D01*
X118771Y-49242D01*
X119044Y-49129D01*
X119241Y-48933D01*
X119091Y-49293D01*
X119091Y-49704D01*
X119248Y-50084D01*
X119538Y-50375D01*
X119918Y-50533D01*
X120329Y-50533D01*
X120709Y-50376D01*
X121000Y-50086D01*
X121158Y-49706D01*
X121158Y-49295D01*
X121001Y-48915D01*
X120711Y-48624D01*
X120331Y-48466D01*
X119920Y-48466D01*
X119540Y-48623D01*
X119261Y-48901D01*
X119366Y-48648D01*
X119367Y-48353D01*
X119254Y-48080D01*
X119045Y-47871D01*
X118773Y-47758D01*
X118478Y-47757D01*
X118357Y-47807D01*
X116937Y-46387D01*
X116839Y-46322D01*
X116725Y-46300D01*
X113200Y-46300D01*
X113085Y-46322D01*
X112987Y-46387D01*
X111516Y-47859D01*
X111454Y-47833D01*
X111454Y-41884D01*
X111365Y-41669D01*
X111201Y-41504D01*
X110986Y-41415D01*
X110754Y-41415D01*
X110539Y-41504D01*
X110374Y-41668D01*
X110285Y-41883D01*
X110285Y-42115D01*
X110374Y-42330D01*
X110538Y-42495D01*
X110753Y-42584D01*
X110985Y-42584D01*
X111200Y-42495D01*
X111365Y-42331D01*
X111454Y-42116D01*
X111454Y-41884D01*
X111454Y-47833D01*
X111273Y-47758D01*
X110978Y-47757D01*
X110857Y-47807D01*
X109437Y-46387D01*
X109339Y-46322D01*
X109225Y-46300D01*
X105600Y-46300D01*
X105485Y-46322D01*
X105387Y-46387D01*
X103954Y-47821D01*
X103954Y-41884D01*
X103865Y-41669D01*
X103701Y-41504D01*
X103486Y-41415D01*
X103254Y-41415D01*
X103039Y-41504D01*
X102874Y-41668D01*
X102785Y-41883D01*
X102785Y-42115D01*
X102874Y-42330D01*
X103038Y-42495D01*
X103253Y-42584D01*
X103485Y-42584D01*
X103700Y-42495D01*
X103865Y-42331D01*
X103954Y-42116D01*
X103954Y-41884D01*
X103954Y-47821D01*
X103945Y-47829D01*
X103773Y-47758D01*
X103478Y-47757D01*
X103357Y-47807D01*
X101937Y-46387D01*
X101839Y-46322D01*
X101725Y-46300D01*
X98000Y-46300D01*
X97885Y-46322D01*
X97787Y-46387D01*
X96454Y-47721D01*
X96454Y-41884D01*
X96365Y-41669D01*
X96201Y-41504D01*
X95986Y-41415D01*
X95754Y-41415D01*
X95539Y-41504D01*
X95374Y-41668D01*
X95285Y-41883D01*
X95285Y-42115D01*
X95374Y-42330D01*
X95538Y-42495D01*
X95753Y-42584D01*
X95985Y-42584D01*
X96200Y-42495D01*
X96365Y-42331D01*
X96454Y-42116D01*
X96454Y-41884D01*
X96454Y-47721D01*
X96375Y-47800D01*
X96273Y-47758D01*
X95978Y-47757D01*
X95857Y-47807D01*
X94437Y-46387D01*
X94339Y-46322D01*
X94225Y-46300D01*
X90600Y-46300D01*
X90485Y-46322D01*
X90387Y-46387D01*
X88954Y-47821D01*
X88954Y-41884D01*
X88865Y-41669D01*
X88701Y-41504D01*
X88486Y-41415D01*
X88254Y-41415D01*
X88039Y-41504D01*
X87874Y-41668D01*
X87785Y-41883D01*
X87785Y-42115D01*
X87874Y-42330D01*
X88038Y-42495D01*
X88253Y-42584D01*
X88485Y-42584D01*
X88700Y-42495D01*
X88865Y-42331D01*
X88954Y-42116D01*
X88954Y-41884D01*
X88954Y-47821D01*
X88945Y-47829D01*
X88773Y-47758D01*
X88478Y-47757D01*
X88357Y-47807D01*
X87137Y-46587D01*
X87039Y-46522D01*
X86925Y-46500D01*
X83446Y-46500D01*
X83446Y-42111D01*
X83379Y-41947D01*
X83253Y-41821D01*
X83089Y-41753D01*
X82911Y-41753D01*
X82747Y-41820D01*
X82696Y-41871D01*
X81846Y-41022D01*
X81846Y-40911D01*
X81779Y-40747D01*
X81653Y-40621D01*
X81489Y-40553D01*
X81311Y-40553D01*
X81147Y-40620D01*
X81021Y-40746D01*
X80953Y-40910D01*
X80953Y-41088D01*
X81020Y-41252D01*
X81146Y-41378D01*
X81310Y-41446D01*
X81422Y-41446D01*
X82387Y-42412D01*
X82387Y-42412D01*
X82485Y-42477D01*
X82599Y-42499D01*
X82600Y-42500D01*
X82668Y-42500D01*
X82746Y-42578D01*
X82910Y-42646D01*
X83088Y-42646D01*
X83252Y-42579D01*
X83378Y-42453D01*
X83446Y-42289D01*
X83446Y-42111D01*
X83446Y-46500D01*
X82600Y-46500D01*
X82485Y-46522D01*
X82387Y-46587D01*
X81454Y-47521D01*
X81454Y-41884D01*
X81365Y-41669D01*
X81201Y-41504D01*
X80986Y-41415D01*
X80754Y-41415D01*
X80539Y-41504D01*
X80374Y-41668D01*
X80285Y-41883D01*
X80285Y-42115D01*
X80374Y-42330D01*
X80538Y-42495D01*
X80753Y-42584D01*
X80985Y-42584D01*
X81200Y-42495D01*
X81365Y-42331D01*
X81454Y-42116D01*
X81454Y-41884D01*
X81454Y-47521D01*
X81217Y-47758D01*
X80978Y-47757D01*
X80857Y-47807D01*
X80485Y-47436D01*
X80510Y-47446D01*
X80688Y-47446D01*
X80852Y-47379D01*
X80978Y-47253D01*
X81046Y-47089D01*
X81046Y-46911D01*
X80979Y-46747D01*
X80853Y-46621D01*
X80689Y-46553D01*
X80577Y-46553D01*
X79812Y-45787D01*
X79714Y-45722D01*
X79600Y-45700D01*
X78924Y-45700D01*
X78846Y-45622D01*
X78846Y-45511D01*
X78779Y-45347D01*
X78653Y-45221D01*
X78489Y-45153D01*
X78311Y-45153D01*
X78147Y-45220D01*
X78021Y-45346D01*
X77953Y-45510D01*
X77953Y-45688D01*
X78020Y-45852D01*
X78146Y-45978D01*
X78310Y-46046D01*
X78422Y-46046D01*
X78587Y-46212D01*
X78587Y-46212D01*
X78685Y-46277D01*
X78799Y-46299D01*
X78800Y-46300D01*
X75600Y-46300D01*
X75485Y-46322D01*
X75387Y-46387D01*
X73945Y-47829D01*
X73773Y-47758D01*
X73478Y-47757D01*
X73268Y-47844D01*
X71637Y-46212D01*
X71539Y-46147D01*
X71425Y-46125D01*
X68200Y-46125D01*
X68085Y-46147D01*
X67987Y-46212D01*
X66454Y-47746D01*
X66454Y-41884D01*
X66365Y-41669D01*
X66201Y-41504D01*
X65986Y-41415D01*
X65754Y-41415D01*
X65539Y-41504D01*
X65374Y-41668D01*
X65285Y-41883D01*
X65285Y-42115D01*
X65374Y-42330D01*
X65538Y-42495D01*
X65753Y-42584D01*
X65985Y-42584D01*
X66200Y-42495D01*
X66365Y-42331D01*
X66454Y-42116D01*
X66454Y-41884D01*
X66454Y-47746D01*
X66392Y-47807D01*
X66273Y-47758D01*
X65982Y-47757D01*
X64612Y-46387D01*
X64514Y-46322D01*
X64400Y-46300D01*
X60600Y-46300D01*
X60485Y-46322D01*
X60387Y-46387D01*
X58954Y-47821D01*
X58954Y-41884D01*
X58865Y-41669D01*
X58701Y-41504D01*
X58486Y-41415D01*
X58254Y-41415D01*
X58039Y-41504D01*
X57874Y-41668D01*
X57785Y-41883D01*
X57785Y-42115D01*
X57874Y-42330D01*
X58038Y-42495D01*
X58253Y-42584D01*
X58485Y-42584D01*
X58700Y-42495D01*
X58865Y-42331D01*
X58954Y-42116D01*
X58954Y-41884D01*
X58954Y-47821D01*
X58945Y-47829D01*
X58773Y-47758D01*
X58478Y-47757D01*
X58357Y-47807D01*
X56937Y-46387D01*
X56839Y-46322D01*
X56725Y-46300D01*
X53000Y-46300D01*
X52885Y-46322D01*
X52787Y-46387D01*
X51454Y-47721D01*
X51454Y-41884D01*
X51365Y-41669D01*
X51201Y-41504D01*
X50986Y-41415D01*
X50754Y-41415D01*
X50539Y-41504D01*
X50374Y-41668D01*
X50285Y-41883D01*
X50285Y-42115D01*
X50374Y-42330D01*
X50538Y-42495D01*
X50753Y-42584D01*
X50985Y-42584D01*
X51200Y-42495D01*
X51365Y-42331D01*
X51454Y-42116D01*
X51454Y-41884D01*
X51454Y-47721D01*
X51375Y-47800D01*
X51273Y-47758D01*
X50978Y-47757D01*
X50857Y-47807D01*
X49437Y-46387D01*
X49339Y-46322D01*
X49225Y-46300D01*
X45600Y-46300D01*
X45485Y-46322D01*
X45387Y-46387D01*
X43954Y-47821D01*
X43954Y-41884D01*
X43865Y-41669D01*
X43701Y-41504D01*
X43486Y-41415D01*
X43254Y-41415D01*
X43039Y-41504D01*
X42874Y-41668D01*
X42785Y-41883D01*
X42785Y-42115D01*
X42874Y-42330D01*
X43038Y-42495D01*
X43253Y-42584D01*
X43485Y-42584D01*
X43700Y-42495D01*
X43865Y-42331D01*
X43954Y-42116D01*
X43954Y-41884D01*
X43954Y-47821D01*
X43945Y-47829D01*
X43773Y-47758D01*
X43478Y-47757D01*
X43357Y-47807D01*
X41937Y-46387D01*
X41839Y-46322D01*
X41725Y-46300D01*
X35000Y-46300D01*
X34885Y-46322D01*
X34787Y-46387D01*
X33417Y-47758D01*
X33165Y-47757D01*
X32892Y-47870D01*
X32683Y-48079D01*
X32570Y-48351D01*
X32570Y-48646D01*
X32683Y-48919D01*
X32683Y-48920D01*
X32481Y-49004D01*
X32317Y-49168D01*
X32228Y-49383D01*
X32227Y-49615D01*
X32316Y-49830D01*
X32480Y-49995D01*
X32695Y-50084D01*
X32928Y-50084D01*
X33143Y-49995D01*
X33307Y-49831D01*
X33396Y-49616D01*
X33397Y-49384D01*
X33338Y-49242D01*
X33459Y-49242D01*
X33732Y-49129D01*
X33928Y-48933D01*
X33779Y-49293D01*
X33778Y-49704D01*
X33935Y-50084D01*
X34226Y-50375D01*
X34606Y-50533D01*
X35017Y-50533D01*
X35397Y-50376D01*
X35688Y-50086D01*
X35845Y-49706D01*
X35846Y-49295D01*
X35689Y-48915D01*
X35398Y-48624D01*
X35018Y-48466D01*
X34607Y-48466D01*
X34227Y-48623D01*
X33949Y-48901D01*
X34054Y-48648D01*
X34054Y-48353D01*
X33942Y-48081D01*
X35124Y-46900D01*
X35363Y-46900D01*
X35183Y-47079D01*
X35070Y-47351D01*
X35070Y-47646D01*
X35183Y-47919D01*
X35391Y-48128D01*
X35664Y-48241D01*
X35959Y-48242D01*
X36232Y-48129D01*
X36441Y-47920D01*
X36554Y-47648D01*
X36554Y-47353D01*
X36441Y-47080D01*
X36261Y-46900D01*
X41600Y-46900D01*
X42932Y-48232D01*
X42883Y-48351D01*
X42882Y-48646D01*
X42995Y-48919D01*
X42996Y-48920D01*
X42794Y-49004D01*
X42629Y-49168D01*
X42540Y-49383D01*
X42540Y-49615D01*
X42629Y-49830D01*
X42793Y-49995D01*
X43008Y-50084D01*
X43240Y-50084D01*
X43455Y-49995D01*
X43620Y-49831D01*
X43709Y-49616D01*
X43709Y-49384D01*
X43650Y-49242D01*
X43771Y-49242D01*
X44044Y-49129D01*
X44241Y-48933D01*
X44091Y-49293D01*
X44091Y-49704D01*
X44248Y-50084D01*
X44538Y-50375D01*
X44918Y-50533D01*
X45329Y-50533D01*
X45709Y-50376D01*
X46000Y-50086D01*
X46158Y-49706D01*
X46158Y-49295D01*
X46001Y-48915D01*
X45711Y-48624D01*
X45331Y-48466D01*
X44920Y-48466D01*
X44540Y-48623D01*
X44261Y-48901D01*
X44366Y-48648D01*
X44367Y-48353D01*
X44339Y-48285D01*
X45461Y-47162D01*
X45383Y-47351D01*
X45382Y-47646D01*
X45495Y-47919D01*
X45704Y-48128D01*
X45976Y-48241D01*
X46271Y-48242D01*
X46544Y-48129D01*
X46753Y-47920D01*
X46866Y-47648D01*
X46867Y-47353D01*
X46754Y-47080D01*
X46574Y-46900D01*
X49100Y-46900D01*
X50432Y-48232D01*
X50383Y-48351D01*
X50382Y-48646D01*
X50495Y-48919D01*
X50496Y-48920D01*
X50294Y-49004D01*
X50129Y-49168D01*
X50040Y-49383D01*
X50040Y-49615D01*
X50129Y-49830D01*
X50293Y-49995D01*
X50508Y-50084D01*
X50740Y-50084D01*
X50955Y-49995D01*
X51120Y-49831D01*
X51209Y-49616D01*
X51209Y-49384D01*
X51150Y-49242D01*
X51271Y-49242D01*
X51544Y-49129D01*
X51741Y-48933D01*
X51591Y-49293D01*
X51591Y-49704D01*
X51748Y-50084D01*
X52038Y-50375D01*
X52418Y-50533D01*
X52829Y-50533D01*
X53209Y-50376D01*
X53500Y-50086D01*
X53658Y-49706D01*
X53658Y-49295D01*
X53501Y-48915D01*
X53211Y-48624D01*
X52831Y-48466D01*
X52420Y-48466D01*
X52040Y-48623D01*
X51761Y-48901D01*
X51866Y-48648D01*
X51867Y-48353D01*
X51809Y-48214D01*
X53124Y-46900D01*
X53175Y-46900D01*
X52996Y-47079D01*
X52883Y-47351D01*
X52882Y-47646D01*
X52995Y-47919D01*
X53204Y-48128D01*
X53476Y-48241D01*
X53771Y-48242D01*
X54044Y-48129D01*
X54253Y-47920D01*
X54366Y-47648D01*
X54367Y-47353D01*
X54254Y-47080D01*
X54074Y-46900D01*
X56600Y-46900D01*
X57932Y-48232D01*
X57883Y-48351D01*
X57882Y-48646D01*
X57995Y-48919D01*
X57996Y-48920D01*
X57794Y-49004D01*
X57629Y-49168D01*
X57540Y-49383D01*
X57540Y-49615D01*
X57629Y-49830D01*
X57793Y-49995D01*
X58008Y-50084D01*
X58240Y-50084D01*
X58455Y-49995D01*
X58620Y-49831D01*
X58709Y-49616D01*
X58709Y-49384D01*
X58650Y-49242D01*
X58771Y-49242D01*
X59044Y-49129D01*
X59241Y-48933D01*
X59091Y-49293D01*
X59091Y-49704D01*
X59248Y-50084D01*
X59538Y-50375D01*
X59918Y-50533D01*
X60329Y-50533D01*
X60709Y-50376D01*
X61000Y-50086D01*
X61158Y-49706D01*
X61158Y-49295D01*
X61001Y-48915D01*
X60711Y-48624D01*
X60331Y-48466D01*
X59920Y-48466D01*
X59540Y-48623D01*
X59261Y-48901D01*
X59366Y-48648D01*
X59367Y-48353D01*
X59339Y-48285D01*
X60461Y-47162D01*
X60383Y-47351D01*
X60382Y-47646D01*
X60495Y-47919D01*
X60704Y-48128D01*
X60976Y-48241D01*
X61271Y-48242D01*
X61544Y-48129D01*
X61753Y-47920D01*
X61866Y-47648D01*
X61867Y-47353D01*
X61754Y-47080D01*
X61574Y-46900D01*
X64275Y-46900D01*
X65484Y-48108D01*
X65383Y-48351D01*
X65382Y-48646D01*
X65495Y-48919D01*
X65496Y-48920D01*
X65294Y-49004D01*
X65129Y-49168D01*
X65040Y-49383D01*
X65040Y-49615D01*
X65129Y-49830D01*
X65293Y-49995D01*
X65508Y-50084D01*
X65740Y-50084D01*
X65955Y-49995D01*
X66120Y-49831D01*
X66209Y-49616D01*
X66209Y-49384D01*
X66150Y-49242D01*
X66271Y-49242D01*
X66544Y-49129D01*
X66741Y-48933D01*
X66591Y-49293D01*
X66591Y-49704D01*
X66748Y-50084D01*
X67038Y-50375D01*
X67418Y-50533D01*
X67829Y-50533D01*
X68209Y-50376D01*
X68500Y-50086D01*
X68658Y-49706D01*
X68658Y-49295D01*
X68501Y-48915D01*
X68211Y-48624D01*
X67831Y-48466D01*
X67420Y-48466D01*
X67040Y-48623D01*
X66761Y-48901D01*
X66866Y-48648D01*
X66867Y-48353D01*
X66817Y-48232D01*
X68324Y-46725D01*
X71300Y-46725D01*
X72896Y-48320D01*
X72883Y-48351D01*
X72882Y-48646D01*
X72995Y-48919D01*
X72996Y-48920D01*
X72794Y-49004D01*
X72629Y-49168D01*
X72540Y-49383D01*
X72540Y-49615D01*
X72629Y-49830D01*
X72793Y-49995D01*
X73008Y-50084D01*
X73240Y-50084D01*
X73455Y-49995D01*
X73620Y-49831D01*
X73709Y-49616D01*
X73709Y-49384D01*
X73650Y-49242D01*
X73771Y-49242D01*
X74044Y-49129D01*
X74241Y-48933D01*
X74091Y-49293D01*
X74091Y-49704D01*
X74248Y-50084D01*
X74538Y-50375D01*
X74918Y-50533D01*
X75329Y-50533D01*
X75709Y-50376D01*
X75900Y-50186D01*
X75900Y-50868D01*
X75853Y-50821D01*
X75689Y-50753D01*
X75511Y-50753D01*
X75347Y-50820D01*
X75221Y-50946D01*
X75153Y-51110D01*
X75153Y-51288D01*
X75220Y-51452D01*
X75346Y-51578D01*
X75398Y-51600D01*
X75231Y-51600D01*
X75153Y-51521D01*
X74989Y-51453D01*
X74811Y-51453D01*
X74647Y-51520D01*
X74521Y-51646D01*
X74453Y-51810D01*
X74453Y-51988D01*
X74520Y-52152D01*
X74646Y-52278D01*
X74810Y-52346D01*
X74988Y-52346D01*
X75152Y-52279D01*
X75231Y-52200D01*
X76500Y-52200D01*
X76500Y-57000D01*
X76522Y-57114D01*
X76548Y-57153D01*
X76511Y-57153D01*
X76347Y-57220D01*
X76221Y-57346D01*
X76200Y-57398D01*
X76200Y-57000D01*
X76177Y-56885D01*
X76112Y-56787D01*
X74812Y-55487D01*
X74714Y-55422D01*
X74600Y-55400D01*
X73400Y-55400D01*
X73400Y-53231D01*
X73478Y-53153D01*
X73546Y-52989D01*
X73546Y-52971D01*
X74253Y-53677D01*
X74253Y-53788D01*
X74320Y-53952D01*
X74446Y-54078D01*
X74610Y-54146D01*
X74788Y-54146D01*
X74952Y-54079D01*
X75078Y-53953D01*
X75146Y-53789D01*
X75146Y-53611D01*
X75079Y-53447D01*
X74953Y-53321D01*
X74789Y-53253D01*
X74677Y-53253D01*
X73612Y-52187D01*
X73514Y-52122D01*
X73400Y-52100D01*
X73311Y-52117D01*
X70209Y-52128D01*
X70209Y-49384D01*
X70120Y-49169D01*
X69956Y-49004D01*
X69741Y-48915D01*
X69509Y-48915D01*
X69367Y-48974D01*
X69367Y-47353D01*
X69254Y-47080D01*
X69045Y-46871D01*
X68773Y-46758D01*
X68478Y-46757D01*
X68205Y-46870D01*
X67996Y-47079D01*
X67883Y-47351D01*
X67882Y-47646D01*
X67995Y-47919D01*
X68204Y-48128D01*
X68476Y-48241D01*
X68771Y-48242D01*
X69044Y-48129D01*
X69253Y-47920D01*
X69366Y-47648D01*
X69367Y-47353D01*
X69367Y-48974D01*
X69294Y-49004D01*
X69129Y-49168D01*
X69040Y-49383D01*
X69040Y-49615D01*
X69129Y-49830D01*
X69293Y-49995D01*
X69508Y-50084D01*
X69740Y-50084D01*
X69955Y-49995D01*
X70120Y-49831D01*
X70209Y-49616D01*
X70209Y-49384D01*
X70209Y-52128D01*
X62709Y-52154D01*
X62709Y-49384D01*
X62620Y-49169D01*
X62456Y-49004D01*
X62241Y-48915D01*
X62009Y-48915D01*
X61794Y-49004D01*
X61629Y-49168D01*
X61540Y-49383D01*
X61540Y-49615D01*
X61629Y-49830D01*
X61793Y-49995D01*
X62008Y-50084D01*
X62240Y-50084D01*
X62455Y-49995D01*
X62620Y-49831D01*
X62709Y-49616D01*
X62709Y-49384D01*
X62709Y-52154D01*
X55209Y-52180D01*
X55209Y-49384D01*
X55120Y-49169D01*
X54956Y-49004D01*
X54741Y-48915D01*
X54509Y-48915D01*
X54294Y-49004D01*
X54129Y-49168D01*
X54040Y-49383D01*
X54040Y-49615D01*
X54129Y-49830D01*
X54293Y-49995D01*
X54508Y-50084D01*
X54740Y-50084D01*
X54955Y-49995D01*
X55120Y-49831D01*
X55209Y-49616D01*
X55209Y-49384D01*
X55209Y-52180D01*
X50999Y-52195D01*
X49827Y-52195D01*
X49753Y-52121D01*
X49589Y-52053D01*
X49411Y-52053D01*
X49247Y-52120D01*
X49121Y-52246D01*
X49053Y-52410D01*
X49053Y-52588D01*
X49099Y-52700D01*
X47709Y-52700D01*
X47709Y-49384D01*
X47620Y-49169D01*
X47456Y-49004D01*
X47241Y-48915D01*
X47009Y-48915D01*
X46794Y-49004D01*
X46629Y-49168D01*
X46540Y-49383D01*
X46540Y-49615D01*
X46629Y-49830D01*
X46793Y-49995D01*
X47008Y-50084D01*
X47240Y-50084D01*
X47455Y-49995D01*
X47620Y-49831D01*
X47709Y-49616D01*
X47709Y-49384D01*
X47709Y-52700D01*
X37397Y-52700D01*
X37397Y-49384D01*
X37308Y-49169D01*
X37144Y-49004D01*
X36929Y-48915D01*
X36696Y-48915D01*
X36481Y-49004D01*
X36317Y-49168D01*
X36228Y-49383D01*
X36227Y-49615D01*
X36316Y-49830D01*
X36480Y-49995D01*
X36695Y-50084D01*
X36928Y-50084D01*
X37143Y-49995D01*
X37307Y-49831D01*
X37396Y-49616D01*
X37397Y-49384D01*
X37397Y-52700D01*
X34300Y-52700D01*
X34185Y-52722D01*
X34087Y-52787D01*
X32887Y-53987D01*
X32822Y-54085D01*
X32800Y-54200D01*
X32800Y-58768D01*
X32721Y-58846D01*
X32653Y-59010D01*
X32653Y-59188D01*
X32720Y-59352D01*
X32846Y-59478D01*
X33010Y-59546D01*
X33188Y-59546D01*
X33352Y-59479D01*
X33478Y-59353D01*
X33546Y-59189D01*
X33546Y-59011D01*
X33479Y-58847D01*
X33400Y-58768D01*
X33400Y-54324D01*
X34424Y-53300D01*
X41857Y-53300D01*
X41853Y-53310D01*
X41853Y-53488D01*
X41920Y-53652D01*
X41968Y-53700D01*
X38000Y-53700D01*
X37885Y-53722D01*
X37787Y-53787D01*
X36306Y-55269D01*
X36280Y-55258D01*
X35985Y-55257D01*
X35712Y-55370D01*
X35503Y-55579D01*
X35390Y-55851D01*
X35390Y-56146D01*
X35502Y-56419D01*
X35503Y-56420D01*
X35301Y-56504D01*
X35136Y-56668D01*
X35047Y-56883D01*
X35047Y-57115D01*
X35136Y-57330D01*
X35300Y-57495D01*
X35515Y-57584D01*
X35747Y-57584D01*
X35962Y-57495D01*
X36127Y-57331D01*
X36216Y-57116D01*
X36216Y-56884D01*
X36157Y-56742D01*
X36279Y-56742D01*
X36551Y-56629D01*
X36748Y-56433D01*
X36598Y-56793D01*
X36598Y-57204D01*
X36755Y-57584D01*
X37045Y-57875D01*
X37425Y-58033D01*
X37836Y-58033D01*
X38216Y-57876D01*
X38507Y-57586D01*
X38665Y-57206D01*
X38665Y-56795D01*
X38508Y-56415D01*
X38218Y-56124D01*
X37838Y-55966D01*
X37427Y-55966D01*
X37047Y-56123D01*
X36768Y-56401D01*
X36874Y-56148D01*
X36874Y-55853D01*
X36785Y-55638D01*
X38124Y-54300D01*
X38383Y-54300D01*
X38212Y-54370D01*
X38003Y-54579D01*
X37890Y-54851D01*
X37890Y-55146D01*
X38002Y-55419D01*
X38211Y-55628D01*
X38483Y-55741D01*
X38779Y-55742D01*
X39051Y-55629D01*
X39260Y-55420D01*
X39374Y-55148D01*
X39374Y-54853D01*
X39261Y-54580D01*
X39052Y-54371D01*
X38881Y-54300D01*
X42443Y-54300D01*
X43875Y-55732D01*
X43825Y-55851D01*
X43825Y-56146D01*
X43938Y-56419D01*
X43939Y-56420D01*
X43737Y-56504D01*
X43572Y-56668D01*
X43483Y-56883D01*
X43483Y-57115D01*
X43571Y-57330D01*
X43736Y-57495D01*
X43950Y-57584D01*
X44183Y-57584D01*
X44398Y-57495D01*
X44562Y-57331D01*
X44652Y-57116D01*
X44652Y-56884D01*
X44593Y-56742D01*
X44714Y-56742D01*
X44987Y-56629D01*
X45183Y-56433D01*
X45034Y-56793D01*
X45033Y-57204D01*
X45191Y-57584D01*
X45481Y-57875D01*
X45861Y-58033D01*
X46272Y-58033D01*
X46652Y-57876D01*
X46943Y-57586D01*
X47100Y-57206D01*
X47101Y-56795D01*
X46944Y-56415D01*
X46653Y-56124D01*
X46274Y-55966D01*
X45862Y-55966D01*
X45483Y-56123D01*
X45204Y-56401D01*
X45309Y-56148D01*
X45309Y-55853D01*
X45210Y-55613D01*
X46524Y-54300D01*
X46818Y-54300D01*
X46647Y-54370D01*
X46438Y-54579D01*
X46325Y-54851D01*
X46325Y-55146D01*
X46438Y-55419D01*
X46646Y-55628D01*
X46919Y-55741D01*
X47214Y-55742D01*
X47487Y-55629D01*
X47696Y-55420D01*
X47809Y-55148D01*
X47809Y-54853D01*
X47697Y-54580D01*
X47488Y-54371D01*
X47316Y-54300D01*
X50878Y-54300D01*
X52310Y-55732D01*
X52260Y-55851D01*
X52260Y-56146D01*
X52373Y-56419D01*
X52374Y-56420D01*
X52172Y-56504D01*
X52007Y-56668D01*
X51918Y-56883D01*
X51918Y-57115D01*
X52006Y-57330D01*
X52171Y-57495D01*
X52385Y-57584D01*
X52618Y-57584D01*
X52833Y-57495D01*
X52997Y-57331D01*
X53087Y-57116D01*
X53087Y-56884D01*
X53028Y-56742D01*
X53149Y-56742D01*
X53422Y-56629D01*
X53619Y-56433D01*
X53469Y-56793D01*
X53469Y-57204D01*
X53626Y-57584D01*
X53916Y-57875D01*
X54296Y-58033D01*
X54707Y-58033D01*
X55087Y-57876D01*
X55378Y-57586D01*
X55536Y-57206D01*
X55536Y-56795D01*
X55379Y-56415D01*
X55088Y-56124D01*
X54709Y-55966D01*
X54298Y-55966D01*
X53918Y-56123D01*
X53639Y-56401D01*
X53744Y-56148D01*
X53744Y-55879D01*
X54760Y-54863D01*
X54760Y-55146D01*
X54873Y-55419D01*
X55081Y-55628D01*
X55354Y-55741D01*
X55649Y-55742D01*
X55922Y-55629D01*
X56131Y-55420D01*
X56244Y-55148D01*
X56244Y-54853D01*
X56132Y-54580D01*
X56052Y-54500D01*
X64200Y-54500D01*
X65433Y-55732D01*
X65383Y-55851D01*
X65383Y-56146D01*
X65495Y-56419D01*
X65496Y-56420D01*
X65294Y-56504D01*
X65130Y-56668D01*
X65040Y-56883D01*
X65040Y-57115D01*
X65129Y-57330D01*
X65293Y-57495D01*
X65508Y-57584D01*
X65741Y-57584D01*
X65955Y-57495D01*
X66120Y-57331D01*
X66209Y-57116D01*
X66209Y-56884D01*
X66151Y-56742D01*
X66272Y-56742D01*
X66545Y-56629D01*
X66741Y-56433D01*
X66591Y-56793D01*
X66591Y-57204D01*
X66748Y-57584D01*
X67039Y-57875D01*
X67338Y-58000D01*
X66131Y-58000D01*
X66053Y-57921D01*
X65889Y-57853D01*
X65711Y-57853D01*
X65547Y-57920D01*
X65421Y-58046D01*
X65353Y-58210D01*
X65353Y-58388D01*
X65420Y-58552D01*
X65546Y-58678D01*
X65710Y-58746D01*
X65888Y-58746D01*
X66052Y-58679D01*
X66131Y-58600D01*
X68075Y-58600D01*
X68287Y-58812D01*
X68287Y-58812D01*
X68385Y-58877D01*
X68499Y-58899D01*
X68500Y-58900D01*
X69757Y-58900D01*
X69753Y-58910D01*
X69753Y-59088D01*
X69820Y-59252D01*
X69900Y-59331D01*
X69900Y-60000D01*
X69909Y-60047D01*
X69915Y-60094D01*
X69920Y-60104D01*
X69922Y-60114D01*
X69949Y-60154D01*
X69973Y-60196D01*
X69981Y-60203D01*
X69987Y-60212D01*
X70027Y-60238D01*
X70065Y-60268D01*
X70189Y-60330D01*
X65246Y-60330D01*
X65246Y-58911D01*
X65179Y-58747D01*
X65053Y-58621D01*
X64889Y-58553D01*
X64711Y-58553D01*
X64547Y-58620D01*
X64468Y-58700D01*
X64169Y-58700D01*
X64169Y-55185D01*
X64158Y-54960D01*
X64093Y-54803D01*
X63996Y-54773D01*
X63926Y-54844D01*
X63926Y-54703D01*
X63896Y-54606D01*
X63685Y-54530D01*
X63460Y-54541D01*
X63303Y-54606D01*
X63273Y-54703D01*
X63600Y-55029D01*
X63926Y-54703D01*
X63926Y-54844D01*
X63670Y-55100D01*
X63996Y-55426D01*
X64093Y-55396D01*
X64169Y-55185D01*
X64169Y-58700D01*
X64165Y-58700D01*
X64165Y-57988D01*
X64079Y-57780D01*
X63926Y-57626D01*
X63926Y-55496D01*
X63600Y-55170D01*
X63529Y-55241D01*
X63529Y-55100D01*
X63203Y-54773D01*
X63106Y-54803D01*
X63030Y-55014D01*
X63041Y-55239D01*
X63106Y-55396D01*
X63203Y-55426D01*
X63529Y-55100D01*
X63529Y-55241D01*
X63273Y-55496D01*
X63303Y-55593D01*
X63514Y-55669D01*
X63739Y-55658D01*
X63896Y-55593D01*
X63926Y-55496D01*
X63926Y-57626D01*
X63920Y-57621D01*
X63712Y-57535D01*
X63488Y-57534D01*
X63280Y-57620D01*
X63121Y-57779D01*
X63035Y-57987D01*
X63034Y-58211D01*
X63120Y-58419D01*
X63279Y-58578D01*
X63487Y-58664D01*
X63711Y-58665D01*
X63919Y-58579D01*
X64078Y-58420D01*
X64164Y-58212D01*
X64165Y-57988D01*
X64165Y-58700D01*
X62600Y-58700D01*
X62431Y-58700D01*
X62353Y-58621D01*
X62189Y-58553D01*
X62011Y-58553D01*
X61847Y-58620D01*
X61721Y-58746D01*
X61653Y-58910D01*
X61653Y-59088D01*
X61720Y-59252D01*
X61846Y-59378D01*
X62010Y-59446D01*
X62188Y-59446D01*
X62352Y-59379D01*
X62431Y-59300D01*
X62600Y-59300D01*
X64468Y-59300D01*
X64546Y-59378D01*
X64710Y-59446D01*
X64888Y-59446D01*
X65052Y-59379D01*
X65178Y-59253D01*
X65246Y-59089D01*
X65246Y-58911D01*
X65246Y-60330D01*
X57087Y-60330D01*
X57087Y-56884D01*
X56998Y-56669D01*
X56834Y-56504D01*
X56619Y-56415D01*
X56386Y-56415D01*
X56172Y-56504D01*
X56007Y-56668D01*
X55918Y-56883D01*
X55918Y-57115D01*
X56006Y-57330D01*
X56171Y-57495D01*
X56385Y-57584D01*
X56618Y-57584D01*
X56833Y-57495D01*
X56997Y-57331D01*
X57087Y-57116D01*
X57087Y-56884D01*
X57087Y-60330D01*
X48652Y-60330D01*
X48652Y-56884D01*
X48563Y-56669D01*
X48399Y-56504D01*
X48184Y-56415D01*
X47951Y-56415D01*
X47737Y-56504D01*
X47572Y-56668D01*
X47483Y-56883D01*
X47483Y-57115D01*
X47571Y-57330D01*
X47736Y-57495D01*
X47950Y-57584D01*
X48183Y-57584D01*
X48398Y-57495D01*
X48562Y-57331D01*
X48652Y-57116D01*
X48652Y-56884D01*
X48652Y-60330D01*
X40216Y-60330D01*
X40216Y-56884D01*
X40127Y-56669D01*
X39963Y-56504D01*
X39748Y-56415D01*
X39516Y-56415D01*
X39301Y-56504D01*
X39136Y-56668D01*
X39047Y-56883D01*
X39047Y-57115D01*
X39136Y-57330D01*
X39300Y-57495D01*
X39515Y-57584D01*
X39747Y-57584D01*
X39962Y-57495D01*
X40127Y-57331D01*
X40216Y-57116D01*
X40216Y-56884D01*
X40216Y-60330D01*
X29027Y-60330D01*
X28914Y-60308D01*
X28840Y-60258D01*
X28791Y-60186D01*
X28769Y-60073D01*
X28769Y-60000D01*
X28769Y-39983D01*
X28958Y-40021D01*
X29419Y-40021D01*
X29531Y-39998D01*
X29475Y-40135D01*
X29474Y-40363D01*
X29562Y-40575D01*
X29723Y-40737D01*
X29935Y-40824D01*
X29963Y-40824D01*
X29922Y-40885D01*
X29900Y-41000D01*
X29900Y-42500D01*
X29922Y-42614D01*
X29987Y-42712D01*
X30687Y-43412D01*
X30687Y-43412D01*
X30785Y-43477D01*
X30899Y-43499D01*
X30900Y-43500D01*
X35400Y-43500D01*
X35400Y-43499D01*
X35514Y-43477D01*
X35514Y-43477D01*
X35612Y-43412D01*
X35812Y-43212D01*
X35812Y-43212D01*
X35877Y-43114D01*
X35899Y-43000D01*
X35900Y-43000D01*
X35900Y-41024D01*
X36677Y-40246D01*
X36788Y-40246D01*
X36952Y-40179D01*
X37078Y-40053D01*
X37146Y-39889D01*
X37146Y-39711D01*
X37079Y-39547D01*
X37031Y-39500D01*
X37945Y-39500D01*
X39177Y-40732D01*
X39128Y-40851D01*
X39127Y-41146D01*
X39240Y-41419D01*
X39241Y-41420D01*
X39039Y-41504D01*
X38874Y-41668D01*
X38785Y-41883D01*
X38785Y-42115D01*
X38874Y-42330D01*
X39038Y-42495D01*
X39253Y-42584D01*
X39485Y-42584D01*
X39700Y-42495D01*
X39865Y-42331D01*
X39954Y-42116D01*
X39954Y-41884D01*
X39895Y-41742D01*
X40017Y-41742D01*
X40289Y-41629D01*
X40486Y-41433D01*
X40336Y-41793D01*
X40336Y-42204D01*
X40493Y-42584D01*
X40783Y-42875D01*
X41163Y-43033D01*
X41574Y-43033D01*
X41954Y-42876D01*
X42245Y-42586D01*
X42403Y-42206D01*
X42403Y-41795D01*
X42246Y-41415D01*
X41956Y-41124D01*
X41576Y-40966D01*
X41165Y-40966D01*
X40785Y-41123D01*
X40506Y-41401D01*
X40611Y-41148D01*
X40612Y-40853D01*
X40541Y-40682D01*
X41924Y-39300D01*
X42121Y-39300D01*
X41950Y-39370D01*
X41741Y-39579D01*
X41628Y-39851D01*
X41627Y-40146D01*
X41740Y-40419D01*
X41949Y-40628D01*
X42221Y-40741D01*
X42517Y-40742D01*
X42789Y-40629D01*
X42998Y-40420D01*
X43111Y-40148D01*
X43112Y-39853D01*
X42999Y-39580D01*
X42790Y-39371D01*
X42619Y-39300D01*
X45245Y-39300D01*
X46677Y-40732D01*
X46628Y-40851D01*
X46627Y-41146D01*
X46740Y-41419D01*
X46741Y-41420D01*
X46539Y-41504D01*
X46374Y-41668D01*
X46285Y-41883D01*
X46285Y-42115D01*
X46374Y-42330D01*
X46538Y-42495D01*
X46753Y-42584D01*
X46985Y-42584D01*
X47200Y-42495D01*
X47365Y-42331D01*
X47454Y-42116D01*
X47454Y-41884D01*
X47395Y-41742D01*
X47517Y-41742D01*
X47789Y-41629D01*
X47986Y-41433D01*
X47836Y-41793D01*
X47836Y-42204D01*
X47993Y-42584D01*
X48283Y-42875D01*
X48663Y-43033D01*
X49074Y-43033D01*
X49454Y-42876D01*
X49745Y-42586D01*
X49903Y-42206D01*
X49903Y-41795D01*
X49746Y-41415D01*
X49456Y-41124D01*
X49076Y-40966D01*
X48665Y-40966D01*
X48285Y-41123D01*
X48006Y-41401D01*
X48111Y-41148D01*
X48112Y-40853D01*
X48070Y-40753D01*
X49238Y-39585D01*
X49128Y-39851D01*
X49127Y-40146D01*
X49240Y-40419D01*
X49449Y-40628D01*
X49721Y-40741D01*
X50017Y-40742D01*
X50289Y-40629D01*
X50498Y-40420D01*
X50611Y-40148D01*
X50612Y-39853D01*
X50499Y-39580D01*
X50290Y-39371D01*
X50119Y-39300D01*
X52745Y-39300D01*
X54177Y-40732D01*
X54128Y-40851D01*
X54127Y-41146D01*
X54240Y-41419D01*
X54241Y-41420D01*
X54039Y-41504D01*
X53874Y-41668D01*
X53785Y-41883D01*
X53785Y-42115D01*
X53874Y-42330D01*
X54038Y-42495D01*
X54253Y-42584D01*
X54485Y-42584D01*
X54700Y-42495D01*
X54865Y-42331D01*
X54954Y-42116D01*
X54954Y-41884D01*
X54895Y-41742D01*
X55017Y-41742D01*
X55289Y-41629D01*
X55486Y-41433D01*
X55336Y-41793D01*
X55336Y-42204D01*
X55493Y-42584D01*
X55783Y-42875D01*
X56163Y-43033D01*
X56574Y-43033D01*
X56954Y-42876D01*
X57245Y-42586D01*
X57403Y-42206D01*
X57403Y-41795D01*
X57246Y-41415D01*
X56956Y-41124D01*
X56576Y-40966D01*
X56165Y-40966D01*
X55785Y-41123D01*
X55506Y-41401D01*
X55611Y-41148D01*
X55612Y-40853D01*
X55541Y-40682D01*
X56924Y-39300D01*
X57121Y-39300D01*
X56950Y-39370D01*
X56741Y-39579D01*
X56628Y-39851D01*
X56627Y-40146D01*
X56740Y-40419D01*
X56949Y-40628D01*
X57221Y-40741D01*
X57517Y-40742D01*
X57789Y-40629D01*
X57998Y-40420D01*
X58111Y-40148D01*
X58112Y-39853D01*
X57999Y-39580D01*
X57790Y-39371D01*
X57619Y-39300D01*
X60245Y-39300D01*
X61677Y-40732D01*
X61628Y-40851D01*
X61627Y-41146D01*
X61740Y-41419D01*
X61741Y-41420D01*
X61539Y-41504D01*
X61374Y-41668D01*
X61285Y-41883D01*
X61285Y-42115D01*
X61374Y-42330D01*
X61538Y-42495D01*
X61753Y-42584D01*
X61985Y-42584D01*
X62200Y-42495D01*
X62365Y-42331D01*
X62454Y-42116D01*
X62454Y-41884D01*
X62395Y-41742D01*
X62517Y-41742D01*
X62789Y-41629D01*
X62986Y-41433D01*
X62836Y-41793D01*
X62836Y-42204D01*
X62993Y-42584D01*
X63283Y-42875D01*
X63663Y-43033D01*
X64074Y-43033D01*
X64454Y-42876D01*
X64745Y-42586D01*
X64903Y-42206D01*
X64903Y-41795D01*
X64746Y-41415D01*
X64456Y-41124D01*
X64076Y-40966D01*
X63665Y-40966D01*
X63285Y-41123D01*
X63006Y-41401D01*
X63111Y-41148D01*
X63112Y-40853D01*
X63070Y-40753D01*
X64238Y-39585D01*
X64128Y-39851D01*
X64127Y-40146D01*
X64240Y-40419D01*
X64449Y-40628D01*
X64721Y-40741D01*
X65017Y-40742D01*
X65289Y-40629D01*
X65498Y-40420D01*
X65611Y-40148D01*
X65612Y-39853D01*
X65499Y-39580D01*
X65419Y-39500D01*
X67945Y-39500D01*
X69177Y-40732D01*
X69128Y-40851D01*
X69127Y-41146D01*
X69240Y-41419D01*
X69241Y-41420D01*
X69039Y-41504D01*
X68874Y-41668D01*
X68785Y-41883D01*
X68785Y-42115D01*
X68874Y-42330D01*
X69038Y-42495D01*
X69253Y-42584D01*
X69485Y-42584D01*
X69700Y-42495D01*
X69865Y-42331D01*
X69954Y-42116D01*
X69954Y-41884D01*
X69895Y-41742D01*
X70017Y-41742D01*
X70289Y-41629D01*
X70486Y-41433D01*
X70336Y-41793D01*
X70336Y-42204D01*
X70493Y-42584D01*
X70783Y-42875D01*
X71163Y-43033D01*
X71574Y-43033D01*
X71954Y-42876D01*
X72245Y-42586D01*
X72403Y-42206D01*
X72403Y-41795D01*
X72246Y-41415D01*
X71956Y-41124D01*
X71576Y-40966D01*
X71165Y-40966D01*
X70785Y-41123D01*
X70506Y-41401D01*
X70611Y-41148D01*
X70612Y-40853D01*
X70600Y-40824D01*
X71667Y-39756D01*
X71628Y-39851D01*
X71627Y-40146D01*
X71740Y-40419D01*
X71949Y-40628D01*
X72221Y-40741D01*
X72517Y-40742D01*
X72789Y-40629D01*
X72998Y-40420D01*
X73111Y-40148D01*
X73112Y-39853D01*
X72999Y-39580D01*
X72790Y-39371D01*
X72619Y-39300D01*
X75245Y-39300D01*
X76645Y-40700D01*
X75600Y-40700D01*
X75599Y-40699D01*
X75408Y-40700D01*
X75351Y-40711D01*
X75294Y-40723D01*
X75294Y-40723D01*
X75293Y-40723D01*
X75245Y-40755D01*
X75197Y-40788D01*
X75196Y-40788D01*
X75196Y-40788D01*
X75164Y-40836D01*
X75132Y-40885D01*
X75131Y-40885D01*
X75131Y-40885D01*
X75120Y-40943D01*
X75109Y-41000D01*
X75109Y-42936D01*
X74116Y-43953D01*
X74011Y-43953D01*
X73954Y-43976D01*
X73954Y-41884D01*
X73865Y-41669D01*
X73701Y-41504D01*
X73486Y-41415D01*
X73254Y-41415D01*
X73039Y-41504D01*
X72874Y-41668D01*
X72785Y-41883D01*
X72785Y-42115D01*
X72874Y-42330D01*
X73038Y-42495D01*
X73253Y-42584D01*
X73485Y-42584D01*
X73700Y-42495D01*
X73865Y-42331D01*
X73954Y-42116D01*
X73954Y-41884D01*
X73954Y-43976D01*
X73847Y-44020D01*
X73721Y-44146D01*
X73653Y-44310D01*
X73653Y-44488D01*
X73720Y-44652D01*
X73846Y-44778D01*
X74010Y-44846D01*
X74188Y-44846D01*
X74352Y-44779D01*
X74478Y-44653D01*
X74546Y-44489D01*
X74546Y-44371D01*
X75578Y-43314D01*
X75582Y-43311D01*
X75621Y-43273D01*
X75621Y-43273D01*
X75686Y-43175D01*
X75709Y-43060D01*
X75709Y-43060D01*
X75709Y-41300D01*
X76691Y-41300D01*
X76740Y-41419D01*
X76741Y-41420D01*
X76539Y-41504D01*
X76374Y-41668D01*
X76285Y-41883D01*
X76285Y-42115D01*
X76374Y-42330D01*
X76538Y-42495D01*
X76753Y-42584D01*
X76985Y-42584D01*
X77200Y-42495D01*
X77365Y-42331D01*
X77454Y-42116D01*
X77454Y-41884D01*
X77395Y-41742D01*
X77517Y-41742D01*
X77789Y-41629D01*
X77986Y-41433D01*
X77836Y-41793D01*
X77836Y-42204D01*
X77993Y-42584D01*
X78283Y-42875D01*
X78663Y-43033D01*
X79074Y-43033D01*
X79454Y-42876D01*
X79745Y-42586D01*
X79903Y-42206D01*
X79903Y-41795D01*
X79746Y-41415D01*
X79456Y-41124D01*
X79076Y-40966D01*
X78665Y-40966D01*
X78285Y-41123D01*
X78006Y-41401D01*
X78111Y-41148D01*
X78112Y-40853D01*
X78070Y-40753D01*
X79238Y-39585D01*
X79128Y-39851D01*
X79127Y-40146D01*
X79240Y-40419D01*
X79449Y-40628D01*
X79721Y-40741D01*
X80017Y-40742D01*
X80289Y-40629D01*
X80498Y-40420D01*
X80611Y-40148D01*
X80612Y-39853D01*
X80499Y-39580D01*
X80290Y-39371D01*
X80119Y-39300D01*
X80475Y-39300D01*
X82387Y-41212D01*
X82387Y-41212D01*
X82485Y-41277D01*
X82599Y-41299D01*
X82600Y-41300D01*
X84191Y-41300D01*
X84240Y-41419D01*
X84241Y-41420D01*
X84039Y-41504D01*
X83874Y-41668D01*
X83785Y-41883D01*
X83785Y-42115D01*
X83874Y-42330D01*
X84038Y-42495D01*
X84253Y-42584D01*
X84485Y-42584D01*
X84700Y-42495D01*
X84865Y-42331D01*
X84954Y-42116D01*
X84954Y-41884D01*
X84895Y-41742D01*
X85017Y-41742D01*
X85289Y-41629D01*
X85486Y-41433D01*
X85336Y-41793D01*
X85336Y-42204D01*
X85493Y-42584D01*
X85783Y-42875D01*
X86163Y-43033D01*
X86574Y-43033D01*
X86954Y-42876D01*
X87245Y-42586D01*
X87403Y-42206D01*
X87403Y-41795D01*
X87246Y-41415D01*
X86956Y-41124D01*
X86576Y-40966D01*
X86165Y-40966D01*
X85785Y-41123D01*
X85506Y-41401D01*
X85611Y-41148D01*
X85612Y-40853D01*
X85562Y-40732D01*
X86924Y-39370D01*
X86951Y-39370D01*
X86950Y-39370D01*
X86741Y-39579D01*
X86628Y-39851D01*
X86627Y-40146D01*
X86740Y-40419D01*
X86949Y-40628D01*
X87221Y-40741D01*
X87517Y-40742D01*
X87789Y-40629D01*
X87998Y-40420D01*
X88111Y-40148D01*
X88112Y-39853D01*
X87999Y-39580D01*
X87790Y-39371D01*
X87787Y-39370D01*
X90405Y-39370D01*
X91704Y-40668D01*
X91628Y-40851D01*
X91627Y-41146D01*
X91740Y-41419D01*
X91741Y-41420D01*
X91539Y-41504D01*
X91374Y-41668D01*
X91285Y-41883D01*
X91285Y-42115D01*
X91374Y-42330D01*
X91538Y-42495D01*
X91753Y-42584D01*
X91985Y-42584D01*
X92200Y-42495D01*
X92365Y-42331D01*
X92454Y-42116D01*
X92454Y-41884D01*
X92395Y-41742D01*
X92517Y-41742D01*
X92789Y-41629D01*
X92986Y-41433D01*
X92836Y-41793D01*
X92836Y-42204D01*
X92993Y-42584D01*
X93283Y-42875D01*
X93663Y-43033D01*
X94074Y-43033D01*
X94454Y-42876D01*
X94745Y-42586D01*
X94903Y-42206D01*
X94903Y-41795D01*
X94746Y-41415D01*
X94456Y-41124D01*
X94076Y-40966D01*
X93665Y-40966D01*
X93285Y-41123D01*
X93006Y-41401D01*
X93111Y-41148D01*
X93112Y-40853D01*
X93070Y-40753D01*
X94238Y-39585D01*
X94128Y-39851D01*
X94127Y-40146D01*
X94240Y-40419D01*
X94449Y-40628D01*
X94721Y-40741D01*
X95017Y-40742D01*
X95289Y-40629D01*
X95498Y-40420D01*
X95611Y-40148D01*
X95612Y-39853D01*
X95499Y-39580D01*
X95290Y-39371D01*
X95119Y-39300D01*
X97745Y-39300D01*
X99177Y-40732D01*
X99128Y-40851D01*
X99127Y-41146D01*
X99240Y-41419D01*
X99241Y-41420D01*
X99039Y-41504D01*
X98874Y-41668D01*
X98785Y-41883D01*
X98785Y-42115D01*
X98874Y-42330D01*
X99038Y-42495D01*
X99253Y-42584D01*
X99485Y-42584D01*
X99700Y-42495D01*
X99865Y-42331D01*
X99954Y-42116D01*
X99954Y-41884D01*
X99895Y-41742D01*
X100017Y-41742D01*
X100289Y-41629D01*
X100486Y-41433D01*
X100336Y-41793D01*
X100336Y-42204D01*
X100493Y-42584D01*
X100783Y-42875D01*
X101163Y-43033D01*
X101574Y-43033D01*
X101954Y-42876D01*
X102245Y-42586D01*
X102403Y-42206D01*
X102403Y-41795D01*
X102246Y-41415D01*
X101956Y-41124D01*
X101576Y-40966D01*
X101165Y-40966D01*
X100785Y-41123D01*
X100506Y-41401D01*
X100611Y-41148D01*
X100612Y-40853D01*
X100541Y-40682D01*
X101924Y-39300D01*
X102121Y-39300D01*
X101950Y-39370D01*
X101741Y-39579D01*
X101628Y-39851D01*
X101627Y-40146D01*
X101740Y-40419D01*
X101949Y-40628D01*
X102221Y-40741D01*
X102517Y-40742D01*
X102789Y-40629D01*
X102998Y-40420D01*
X103111Y-40148D01*
X103112Y-39853D01*
X102999Y-39580D01*
X102790Y-39371D01*
X102619Y-39300D01*
X105245Y-39300D01*
X106677Y-40732D01*
X106628Y-40851D01*
X106627Y-41146D01*
X106740Y-41419D01*
X106741Y-41420D01*
X106539Y-41504D01*
X106374Y-41668D01*
X106285Y-41883D01*
X106285Y-42115D01*
X106374Y-42330D01*
X106538Y-42495D01*
X106753Y-42584D01*
X106985Y-42584D01*
X107200Y-42495D01*
X107365Y-42331D01*
X107454Y-42116D01*
X107454Y-41884D01*
X107395Y-41742D01*
X107517Y-41742D01*
X107789Y-41629D01*
X107986Y-41433D01*
X107836Y-41793D01*
X107836Y-42204D01*
X107993Y-42584D01*
X108283Y-42875D01*
X108663Y-43033D01*
X109074Y-43033D01*
X109454Y-42876D01*
X109745Y-42586D01*
X109903Y-42206D01*
X109903Y-41795D01*
X109746Y-41415D01*
X109456Y-41124D01*
X109076Y-40966D01*
X108665Y-40966D01*
X108285Y-41123D01*
X108006Y-41401D01*
X108111Y-41148D01*
X108112Y-40853D01*
X108070Y-40753D01*
X109238Y-39585D01*
X109128Y-39851D01*
X109127Y-40146D01*
X109240Y-40419D01*
X109449Y-40628D01*
X109721Y-40741D01*
X110017Y-40742D01*
X110289Y-40629D01*
X110498Y-40420D01*
X110611Y-40148D01*
X110612Y-39853D01*
X110499Y-39580D01*
X110290Y-39371D01*
X110119Y-39300D01*
X114620Y-39300D01*
X116052Y-40732D01*
X116003Y-40851D01*
X116002Y-41146D01*
X116115Y-41419D01*
X116116Y-41420D01*
X115914Y-41504D01*
X115749Y-41668D01*
X115660Y-41883D01*
X115660Y-42115D01*
X115749Y-42330D01*
X115913Y-42495D01*
X116128Y-42584D01*
X116360Y-42584D01*
X116575Y-42495D01*
X116740Y-42331D01*
X116829Y-42116D01*
X116829Y-41884D01*
X116770Y-41742D01*
X116892Y-41742D01*
X117164Y-41629D01*
X117361Y-41433D01*
X117211Y-41793D01*
X117211Y-42204D01*
X117368Y-42584D01*
X117658Y-42875D01*
X118038Y-43033D01*
X118449Y-43033D01*
X118829Y-42876D01*
X119120Y-42586D01*
X119278Y-42206D01*
X119278Y-41795D01*
X119121Y-41415D01*
X118831Y-41124D01*
X118451Y-40966D01*
X118040Y-40966D01*
X117660Y-41123D01*
X117381Y-41401D01*
X117486Y-41148D01*
X117487Y-40853D01*
X117374Y-40580D01*
X117165Y-40371D01*
X116893Y-40258D01*
X116846Y-40258D01*
X116846Y-38011D01*
X116779Y-37847D01*
X116653Y-37721D01*
X116489Y-37653D01*
X116311Y-37653D01*
X116147Y-37720D01*
X116068Y-37800D01*
X114024Y-37800D01*
X112712Y-36487D01*
X112712Y-36487D01*
X112712Y-36487D01*
X112612Y-36387D01*
X112514Y-36322D01*
X112400Y-36300D01*
X111231Y-36300D01*
X111153Y-36221D01*
X110989Y-36153D01*
X110811Y-36153D01*
X110647Y-36220D01*
X110521Y-36346D01*
X110453Y-36510D01*
X110453Y-36688D01*
X110520Y-36852D01*
X110646Y-36978D01*
X110810Y-37046D01*
X110988Y-37046D01*
X111152Y-36979D01*
X111231Y-36900D01*
X112275Y-36900D01*
X112287Y-36912D01*
X112287Y-36912D01*
X112287Y-36912D01*
X113687Y-38312D01*
X113687Y-38312D01*
X113785Y-38377D01*
X113900Y-38400D01*
X116068Y-38400D01*
X116146Y-38478D01*
X116310Y-38546D01*
X116488Y-38546D01*
X116652Y-38479D01*
X116778Y-38353D01*
X116846Y-38189D01*
X116846Y-38011D01*
X116846Y-40258D01*
X116598Y-40257D01*
X116477Y-40307D01*
X114957Y-38787D01*
X114859Y-38722D01*
X114745Y-38700D01*
X112446Y-38700D01*
X112446Y-37911D01*
X112379Y-37747D01*
X112253Y-37621D01*
X112089Y-37553D01*
X111911Y-37553D01*
X111747Y-37620D01*
X111621Y-37746D01*
X111557Y-37900D01*
X85331Y-37900D01*
X85253Y-37821D01*
X85089Y-37753D01*
X84911Y-37753D01*
X84855Y-37776D01*
X84931Y-37700D01*
X109400Y-37700D01*
X109468Y-37700D01*
X109546Y-37778D01*
X109710Y-37846D01*
X109888Y-37846D01*
X110052Y-37779D01*
X110178Y-37653D01*
X110246Y-37489D01*
X110246Y-37311D01*
X110179Y-37147D01*
X110053Y-37021D01*
X109889Y-36953D01*
X109711Y-36953D01*
X109584Y-37005D01*
X109584Y-34384D01*
X109495Y-34169D01*
X109331Y-34004D01*
X109116Y-33915D01*
X108884Y-33915D01*
X108669Y-34004D01*
X108504Y-34168D01*
X108415Y-34383D01*
X108415Y-34615D01*
X108504Y-34830D01*
X108668Y-34995D01*
X108883Y-35084D01*
X109115Y-35084D01*
X109330Y-34995D01*
X109495Y-34831D01*
X109584Y-34616D01*
X109584Y-34384D01*
X109584Y-37005D01*
X109547Y-37020D01*
X109468Y-37100D01*
X109400Y-37100D01*
X102084Y-37100D01*
X102084Y-34384D01*
X101995Y-34169D01*
X101831Y-34004D01*
X101616Y-33915D01*
X101384Y-33915D01*
X101169Y-34004D01*
X101004Y-34168D01*
X100915Y-34383D01*
X100915Y-34615D01*
X101004Y-34830D01*
X101168Y-34995D01*
X101383Y-35084D01*
X101615Y-35084D01*
X101830Y-34995D01*
X101995Y-34831D01*
X102084Y-34616D01*
X102084Y-34384D01*
X102084Y-37100D01*
X94584Y-37100D01*
X94584Y-34384D01*
X94495Y-34169D01*
X94331Y-34004D01*
X94116Y-33915D01*
X93884Y-33915D01*
X93669Y-34004D01*
X93504Y-34168D01*
X93415Y-34383D01*
X93415Y-34615D01*
X93504Y-34830D01*
X93668Y-34995D01*
X93883Y-35084D01*
X94115Y-35084D01*
X94330Y-34995D01*
X94495Y-34831D01*
X94584Y-34616D01*
X94584Y-34384D01*
X94584Y-37100D01*
X87084Y-37100D01*
X87084Y-34384D01*
X86995Y-34169D01*
X86831Y-34004D01*
X86616Y-33915D01*
X86384Y-33915D01*
X86169Y-34004D01*
X86004Y-34168D01*
X85915Y-34383D01*
X85915Y-34615D01*
X86004Y-34830D01*
X86168Y-34995D01*
X86383Y-35084D01*
X86615Y-35084D01*
X86830Y-34995D01*
X86995Y-34831D01*
X87084Y-34616D01*
X87084Y-34384D01*
X87084Y-37100D01*
X84931Y-37100D01*
X84853Y-37021D01*
X84689Y-36953D01*
X84511Y-36953D01*
X84347Y-37020D01*
X84221Y-37146D01*
X84153Y-37310D01*
X84153Y-37488D01*
X84220Y-37652D01*
X84346Y-37778D01*
X84510Y-37846D01*
X84688Y-37846D01*
X84744Y-37823D01*
X84621Y-37946D01*
X84553Y-38110D01*
X84553Y-38288D01*
X84620Y-38452D01*
X84746Y-38578D01*
X84910Y-38646D01*
X85088Y-38646D01*
X85252Y-38579D01*
X85331Y-38500D01*
X111800Y-38500D01*
X111800Y-38499D01*
X111914Y-38477D01*
X111914Y-38477D01*
X111960Y-38446D01*
X112088Y-38446D01*
X112252Y-38379D01*
X112378Y-38253D01*
X112446Y-38089D01*
X112446Y-37911D01*
X112446Y-38700D01*
X109400Y-38700D01*
X109285Y-38722D01*
X109187Y-38787D01*
X107659Y-40316D01*
X107518Y-40258D01*
X107223Y-40257D01*
X107102Y-40307D01*
X105582Y-38787D01*
X105484Y-38722D01*
X105370Y-38700D01*
X101800Y-38700D01*
X101685Y-38722D01*
X101587Y-38787D01*
X100088Y-40287D01*
X100018Y-40258D01*
X99723Y-40257D01*
X99602Y-40307D01*
X98082Y-38787D01*
X97984Y-38722D01*
X97870Y-38700D01*
X94400Y-38700D01*
X94285Y-38722D01*
X94187Y-38787D01*
X92659Y-40316D01*
X92518Y-40258D01*
X92223Y-40257D01*
X92165Y-40281D01*
X90742Y-38857D01*
X90644Y-38792D01*
X90529Y-38770D01*
X86800Y-38770D01*
X86685Y-38792D01*
X86587Y-38857D01*
X85137Y-40307D01*
X85018Y-40258D01*
X84723Y-40257D01*
X84450Y-40370D01*
X84241Y-40579D01*
X84191Y-40700D01*
X82724Y-40700D01*
X81042Y-39018D01*
X81110Y-39046D01*
X81288Y-39046D01*
X81452Y-38979D01*
X81578Y-38853D01*
X81646Y-38689D01*
X81646Y-38511D01*
X81579Y-38347D01*
X81531Y-38300D01*
X82268Y-38300D01*
X82346Y-38378D01*
X82510Y-38446D01*
X82688Y-38446D01*
X82852Y-38379D01*
X82978Y-38253D01*
X83046Y-38089D01*
X83046Y-37911D01*
X82979Y-37747D01*
X82853Y-37621D01*
X82689Y-37553D01*
X82511Y-37553D01*
X82347Y-37620D01*
X82268Y-37700D01*
X79584Y-37700D01*
X79584Y-34384D01*
X79495Y-34169D01*
X79331Y-34004D01*
X79116Y-33915D01*
X78884Y-33915D01*
X78669Y-34004D01*
X78504Y-34168D01*
X78415Y-34383D01*
X78415Y-34615D01*
X78504Y-34830D01*
X78668Y-34995D01*
X78883Y-35084D01*
X79115Y-35084D01*
X79330Y-34995D01*
X79495Y-34831D01*
X79584Y-34616D01*
X79584Y-34384D01*
X79584Y-37700D01*
X72084Y-37700D01*
X72084Y-34384D01*
X71995Y-34169D01*
X71831Y-34004D01*
X71616Y-33915D01*
X71384Y-33915D01*
X71169Y-34004D01*
X71004Y-34168D01*
X70915Y-34383D01*
X70915Y-34615D01*
X71004Y-34830D01*
X71168Y-34995D01*
X71383Y-35084D01*
X71615Y-35084D01*
X71830Y-34995D01*
X71995Y-34831D01*
X72084Y-34616D01*
X72084Y-34384D01*
X72084Y-37700D01*
X36102Y-37700D01*
X36152Y-37679D01*
X36231Y-37600D01*
X40600Y-37600D01*
X65698Y-37600D01*
X65810Y-37646D01*
X65988Y-37646D01*
X66152Y-37579D01*
X66278Y-37453D01*
X66346Y-37289D01*
X66346Y-37111D01*
X66279Y-36947D01*
X66153Y-36821D01*
X65989Y-36753D01*
X65811Y-36753D01*
X65647Y-36820D01*
X65521Y-36946D01*
X65499Y-37000D01*
X64584Y-37000D01*
X64584Y-34384D01*
X64495Y-34169D01*
X64331Y-34004D01*
X64116Y-33915D01*
X63884Y-33915D01*
X63669Y-34004D01*
X63504Y-34168D01*
X63415Y-34383D01*
X63415Y-34615D01*
X63504Y-34830D01*
X63668Y-34995D01*
X63883Y-35084D01*
X64115Y-35084D01*
X64330Y-34995D01*
X64495Y-34831D01*
X64584Y-34616D01*
X64584Y-34384D01*
X64584Y-37000D01*
X57084Y-37000D01*
X57084Y-34384D01*
X56995Y-34169D01*
X56831Y-34004D01*
X56616Y-33915D01*
X56384Y-33915D01*
X56169Y-34004D01*
X56004Y-34168D01*
X55915Y-34383D01*
X55915Y-34615D01*
X56004Y-34830D01*
X56168Y-34995D01*
X56383Y-35084D01*
X56615Y-35084D01*
X56830Y-34995D01*
X56995Y-34831D01*
X57084Y-34616D01*
X57084Y-34384D01*
X57084Y-37000D01*
X49584Y-37000D01*
X49584Y-34384D01*
X49495Y-34169D01*
X49331Y-34004D01*
X49116Y-33915D01*
X48884Y-33915D01*
X48669Y-34004D01*
X48504Y-34168D01*
X48415Y-34383D01*
X48415Y-34615D01*
X48504Y-34830D01*
X48668Y-34995D01*
X48883Y-35084D01*
X49115Y-35084D01*
X49330Y-34995D01*
X49495Y-34831D01*
X49584Y-34616D01*
X49584Y-34384D01*
X49584Y-37000D01*
X42084Y-37000D01*
X42084Y-34384D01*
X41995Y-34169D01*
X41831Y-34004D01*
X41616Y-33915D01*
X41384Y-33915D01*
X41169Y-34004D01*
X41004Y-34168D01*
X40915Y-34383D01*
X40915Y-34615D01*
X41004Y-34830D01*
X41168Y-34995D01*
X41383Y-35084D01*
X41615Y-35084D01*
X41830Y-34995D01*
X41995Y-34831D01*
X42084Y-34616D01*
X42084Y-34384D01*
X42084Y-37000D01*
X40600Y-37000D01*
X36231Y-37000D01*
X36153Y-36921D01*
X35989Y-36853D01*
X35811Y-36853D01*
X35647Y-36920D01*
X35521Y-37046D01*
X35453Y-37210D01*
X35453Y-37388D01*
X35520Y-37552D01*
X35646Y-37678D01*
X35698Y-37700D01*
X34584Y-37700D01*
X34584Y-34384D01*
X34495Y-34169D01*
X34331Y-34004D01*
X34116Y-33915D01*
X33884Y-33915D01*
X33669Y-34004D01*
X33504Y-34168D01*
X33415Y-34383D01*
X33415Y-34615D01*
X33504Y-34830D01*
X33668Y-34995D01*
X33883Y-35084D01*
X34115Y-35084D01*
X34330Y-34995D01*
X34495Y-34831D01*
X34584Y-34616D01*
X34584Y-34384D01*
X34584Y-37700D01*
X33531Y-37700D01*
X33453Y-37621D01*
X33289Y-37553D01*
X33111Y-37553D01*
X32947Y-37620D01*
X32929Y-37638D01*
X32929Y-37137D01*
X32919Y-36909D01*
X32851Y-36747D01*
X32754Y-36716D01*
X32683Y-36787D01*
X32683Y-36645D01*
X32652Y-36548D01*
X32437Y-36470D01*
X32209Y-36480D01*
X32047Y-36548D01*
X32016Y-36645D01*
X32350Y-36979D01*
X32683Y-36645D01*
X32683Y-36787D01*
X32420Y-37050D01*
X32754Y-37383D01*
X32851Y-37352D01*
X32929Y-37137D01*
X32929Y-37638D01*
X32853Y-37714D01*
X32837Y-37674D01*
X32676Y-37512D01*
X32666Y-37508D01*
X32683Y-37454D01*
X32350Y-37120D01*
X32279Y-37191D01*
X32279Y-37050D01*
X31945Y-36716D01*
X31848Y-36747D01*
X31770Y-36962D01*
X31777Y-37109D01*
X31756Y-37069D01*
X31612Y-36950D01*
X31435Y-36895D01*
X31335Y-36895D01*
X31335Y-37320D01*
X31794Y-37320D01*
X31819Y-37283D01*
X31848Y-37352D01*
X31945Y-37383D01*
X32279Y-37050D01*
X32279Y-37191D01*
X32016Y-37454D01*
X32033Y-37508D01*
X32024Y-37512D01*
X31862Y-37673D01*
X31815Y-37788D01*
X31743Y-37681D01*
X31756Y-37670D01*
X31842Y-37505D01*
X31843Y-37493D01*
X31794Y-37420D01*
X31335Y-37420D01*
X31335Y-37427D01*
X31235Y-37427D01*
X31235Y-37420D01*
X31227Y-37420D01*
X31227Y-37320D01*
X31235Y-37320D01*
X31235Y-36895D01*
X31135Y-36895D01*
X30957Y-36950D01*
X30813Y-37069D01*
X30736Y-37215D01*
X30708Y-37210D01*
X30485Y-37210D01*
X30303Y-37246D01*
X30149Y-37349D01*
X30046Y-37503D01*
X30010Y-37685D01*
X30046Y-37866D01*
X30135Y-38000D01*
X30046Y-38133D01*
X30010Y-38315D01*
X30046Y-38496D01*
X30149Y-38650D01*
X30303Y-38753D01*
X30485Y-38790D01*
X30708Y-38790D01*
X30729Y-38785D01*
X30734Y-38811D01*
X30837Y-38965D01*
X30991Y-39068D01*
X31173Y-39105D01*
X31396Y-39105D01*
X31578Y-39068D01*
X31732Y-38965D01*
X31775Y-38901D01*
X31774Y-39000D01*
X30625Y-40150D01*
X30625Y-40136D01*
X30537Y-39924D01*
X30376Y-39762D01*
X30164Y-39675D01*
X29950Y-39674D01*
X29960Y-39659D01*
X30004Y-39436D01*
X29960Y-39212D01*
X29833Y-39022D01*
X29643Y-38895D01*
X29419Y-38851D01*
X28958Y-38851D01*
X28769Y-38888D01*
X28769Y-37111D01*
X28958Y-37149D01*
X29419Y-37149D01*
X29643Y-37104D01*
X29833Y-36977D01*
X29960Y-36787D01*
X30004Y-36564D01*
X29960Y-36340D01*
X29949Y-36324D01*
X30163Y-36325D01*
X30375Y-36237D01*
X30537Y-36076D01*
X30624Y-35864D01*
X30625Y-35636D01*
X30537Y-35424D01*
X30376Y-35262D01*
X30164Y-35175D01*
X29936Y-35174D01*
X29724Y-35262D01*
X29562Y-35423D01*
X29475Y-35635D01*
X29474Y-35863D01*
X29531Y-36001D01*
X29419Y-35979D01*
X28958Y-35979D01*
X28769Y-36016D01*
X28769Y-31526D01*
X28791Y-31413D01*
X28840Y-31341D01*
X28914Y-31291D01*
X29027Y-31269D01*
X110016Y-31269D01*
X109979Y-31458D01*
X109979Y-31919D01*
X110001Y-32031D01*
X109864Y-31975D01*
X109636Y-31974D01*
X109424Y-32062D01*
X109300Y-32186D01*
X109300Y-31800D01*
X109277Y-31685D01*
X109212Y-31587D01*
X109212Y-31587D01*
X109012Y-31387D01*
X108914Y-31322D01*
X108800Y-31300D01*
X107400Y-31300D01*
X107285Y-31322D01*
X107187Y-31387D01*
X105767Y-32807D01*
X105648Y-32758D01*
X105353Y-32757D01*
X105232Y-32807D01*
X103812Y-31387D01*
X103714Y-31322D01*
X103600Y-31300D01*
X99800Y-31300D01*
X99685Y-31322D01*
X99587Y-31387D01*
X98197Y-32778D01*
X98148Y-32758D01*
X97853Y-32757D01*
X97802Y-32778D01*
X96412Y-31387D01*
X96314Y-31322D01*
X96200Y-31300D01*
X92400Y-31300D01*
X92285Y-31322D01*
X92187Y-31387D01*
X90767Y-32807D01*
X90648Y-32758D01*
X90353Y-32757D01*
X90232Y-32807D01*
X88812Y-31387D01*
X88714Y-31322D01*
X88600Y-31300D01*
X84800Y-31300D01*
X84685Y-31322D01*
X84587Y-31387D01*
X83197Y-32778D01*
X83148Y-32758D01*
X82853Y-32757D01*
X82802Y-32778D01*
X81412Y-31387D01*
X81314Y-31322D01*
X81200Y-31300D01*
X77400Y-31300D01*
X77285Y-31322D01*
X77187Y-31387D01*
X75767Y-32807D01*
X75648Y-32758D01*
X75353Y-32757D01*
X75232Y-32807D01*
X73812Y-31387D01*
X73714Y-31322D01*
X73600Y-31300D01*
X70000Y-31300D01*
X69885Y-31322D01*
X69787Y-31387D01*
X68338Y-32837D01*
X68148Y-32758D01*
X67853Y-32757D01*
X67732Y-32807D01*
X66312Y-31387D01*
X66214Y-31322D01*
X66100Y-31300D01*
X62600Y-31300D01*
X62485Y-31322D01*
X62387Y-31387D01*
X60909Y-32866D01*
X60648Y-32758D01*
X60382Y-32757D01*
X59012Y-31387D01*
X58914Y-31322D01*
X58800Y-31300D01*
X54800Y-31300D01*
X54685Y-31322D01*
X54587Y-31387D01*
X53197Y-32778D01*
X53148Y-32758D01*
X52853Y-32757D01*
X52802Y-32778D01*
X51412Y-31387D01*
X51314Y-31322D01*
X51200Y-31300D01*
X47200Y-31300D01*
X47085Y-31322D01*
X46987Y-31387D01*
X45617Y-32758D01*
X45382Y-32757D01*
X44012Y-31387D01*
X43914Y-31322D01*
X43800Y-31300D01*
X39800Y-31300D01*
X39685Y-31322D01*
X39587Y-31387D01*
X38197Y-32778D01*
X38148Y-32758D01*
X37853Y-32757D01*
X37802Y-32778D01*
X36412Y-31387D01*
X36314Y-31322D01*
X36200Y-31300D01*
X32400Y-31300D01*
X32285Y-31322D01*
X32187Y-31387D01*
X30767Y-32807D01*
X30648Y-32758D01*
X30353Y-32757D01*
X30080Y-32870D01*
X29871Y-33079D01*
X29758Y-33351D01*
X29757Y-33646D01*
X29870Y-33919D01*
X29871Y-33920D01*
X29669Y-34004D01*
X29504Y-34168D01*
X29415Y-34383D01*
X29415Y-34615D01*
X29504Y-34830D01*
X29668Y-34995D01*
X29883Y-35084D01*
X30115Y-35084D01*
X30330Y-34995D01*
X30495Y-34831D01*
X30584Y-34616D01*
X30584Y-34384D01*
X30525Y-34242D01*
X30646Y-34242D01*
X30919Y-34129D01*
X31116Y-33933D01*
X30966Y-34293D01*
X30966Y-34704D01*
X31123Y-35084D01*
X31413Y-35375D01*
X31793Y-35533D01*
X32204Y-35533D01*
X32584Y-35376D01*
X32875Y-35086D01*
X33033Y-34706D01*
X33033Y-34295D01*
X32876Y-33915D01*
X32586Y-33624D01*
X32206Y-33466D01*
X31795Y-33466D01*
X31415Y-33623D01*
X31136Y-33901D01*
X31241Y-33648D01*
X31242Y-33353D01*
X31192Y-33232D01*
X32524Y-31900D01*
X32550Y-31900D01*
X32371Y-32079D01*
X32258Y-32351D01*
X32257Y-32646D01*
X32370Y-32919D01*
X32579Y-33128D01*
X32851Y-33241D01*
X33146Y-33242D01*
X33419Y-33129D01*
X33628Y-32920D01*
X33741Y-32648D01*
X33742Y-32353D01*
X33629Y-32080D01*
X33449Y-31900D01*
X36075Y-31900D01*
X37337Y-33161D01*
X37258Y-33351D01*
X37257Y-33646D01*
X37370Y-33919D01*
X37371Y-33920D01*
X37169Y-34004D01*
X37004Y-34168D01*
X36915Y-34383D01*
X36915Y-34615D01*
X37004Y-34830D01*
X37168Y-34995D01*
X37383Y-35084D01*
X37615Y-35084D01*
X37830Y-34995D01*
X37995Y-34831D01*
X38084Y-34616D01*
X38084Y-34384D01*
X38025Y-34242D01*
X38146Y-34242D01*
X38419Y-34129D01*
X38616Y-33933D01*
X38466Y-34293D01*
X38466Y-34704D01*
X38623Y-35084D01*
X38913Y-35375D01*
X39293Y-35533D01*
X39704Y-35533D01*
X40084Y-35376D01*
X40375Y-35086D01*
X40533Y-34706D01*
X40533Y-34295D01*
X40376Y-33915D01*
X40086Y-33624D01*
X39706Y-33466D01*
X39295Y-33466D01*
X38915Y-33623D01*
X38636Y-33901D01*
X38741Y-33648D01*
X38742Y-33353D01*
X38662Y-33161D01*
X39924Y-31900D01*
X40050Y-31900D01*
X39871Y-32079D01*
X39758Y-32351D01*
X39757Y-32646D01*
X39870Y-32919D01*
X40079Y-33128D01*
X40351Y-33241D01*
X40646Y-33242D01*
X40919Y-33129D01*
X41128Y-32920D01*
X41241Y-32648D01*
X41242Y-32353D01*
X41129Y-32080D01*
X40949Y-31900D01*
X43675Y-31900D01*
X44866Y-33090D01*
X44758Y-33351D01*
X44757Y-33646D01*
X44870Y-33919D01*
X44871Y-33920D01*
X44669Y-34004D01*
X44504Y-34168D01*
X44415Y-34383D01*
X44415Y-34615D01*
X44504Y-34830D01*
X44668Y-34995D01*
X44883Y-35084D01*
X45115Y-35084D01*
X45330Y-34995D01*
X45495Y-34831D01*
X45584Y-34616D01*
X45584Y-34384D01*
X45525Y-34242D01*
X45646Y-34242D01*
X45919Y-34129D01*
X46116Y-33933D01*
X45966Y-34293D01*
X45966Y-34704D01*
X46123Y-35084D01*
X46413Y-35375D01*
X46793Y-35533D01*
X47204Y-35533D01*
X47584Y-35376D01*
X47875Y-35086D01*
X48033Y-34706D01*
X48033Y-34295D01*
X47876Y-33915D01*
X47586Y-33624D01*
X47206Y-33466D01*
X46795Y-33466D01*
X46415Y-33623D01*
X46136Y-33901D01*
X46241Y-33648D01*
X46242Y-33353D01*
X46133Y-33090D01*
X47324Y-31900D01*
X47550Y-31900D01*
X47371Y-32079D01*
X47258Y-32351D01*
X47257Y-32646D01*
X47370Y-32919D01*
X47579Y-33128D01*
X47851Y-33241D01*
X48146Y-33242D01*
X48419Y-33129D01*
X48628Y-32920D01*
X48741Y-32648D01*
X48742Y-32353D01*
X48629Y-32080D01*
X48449Y-31900D01*
X51075Y-31900D01*
X52337Y-33161D01*
X52258Y-33351D01*
X52257Y-33646D01*
X52370Y-33919D01*
X52371Y-33920D01*
X52169Y-34004D01*
X52004Y-34168D01*
X51915Y-34383D01*
X51915Y-34615D01*
X52004Y-34830D01*
X52168Y-34995D01*
X52383Y-35084D01*
X52615Y-35084D01*
X52830Y-34995D01*
X52995Y-34831D01*
X53084Y-34616D01*
X53084Y-34384D01*
X53025Y-34242D01*
X53146Y-34242D01*
X53419Y-34129D01*
X53616Y-33933D01*
X53466Y-34293D01*
X53466Y-34704D01*
X53623Y-35084D01*
X53913Y-35375D01*
X54293Y-35533D01*
X54704Y-35533D01*
X55084Y-35376D01*
X55375Y-35086D01*
X55533Y-34706D01*
X55533Y-34295D01*
X55376Y-33915D01*
X55086Y-33624D01*
X54706Y-33466D01*
X54295Y-33466D01*
X53915Y-33623D01*
X53636Y-33901D01*
X53741Y-33648D01*
X53742Y-33353D01*
X53662Y-33161D01*
X54924Y-31900D01*
X55050Y-31900D01*
X54871Y-32079D01*
X54758Y-32351D01*
X54757Y-32646D01*
X54870Y-32919D01*
X55079Y-33128D01*
X55351Y-33241D01*
X55646Y-33242D01*
X55919Y-33129D01*
X56128Y-32920D01*
X56241Y-32648D01*
X56242Y-32353D01*
X56129Y-32080D01*
X55949Y-31900D01*
X58675Y-31900D01*
X59866Y-33090D01*
X59758Y-33351D01*
X59757Y-33646D01*
X59870Y-33919D01*
X59871Y-33920D01*
X59669Y-34004D01*
X59504Y-34168D01*
X59415Y-34383D01*
X59415Y-34615D01*
X59504Y-34830D01*
X59668Y-34995D01*
X59883Y-35084D01*
X60115Y-35084D01*
X60330Y-34995D01*
X60495Y-34831D01*
X60584Y-34616D01*
X60584Y-34384D01*
X60525Y-34242D01*
X60646Y-34242D01*
X60919Y-34129D01*
X61116Y-33933D01*
X60966Y-34293D01*
X60966Y-34704D01*
X61123Y-35084D01*
X61413Y-35375D01*
X61793Y-35533D01*
X62204Y-35533D01*
X62584Y-35376D01*
X62875Y-35086D01*
X63033Y-34706D01*
X63033Y-34295D01*
X62876Y-33915D01*
X62586Y-33624D01*
X62206Y-33466D01*
X61795Y-33466D01*
X61415Y-33623D01*
X61136Y-33901D01*
X61241Y-33648D01*
X61242Y-33382D01*
X62258Y-32366D01*
X62257Y-32646D01*
X62370Y-32919D01*
X62579Y-33128D01*
X62851Y-33241D01*
X63146Y-33242D01*
X63419Y-33129D01*
X63628Y-32920D01*
X63741Y-32648D01*
X63742Y-32353D01*
X63629Y-32080D01*
X63449Y-31900D01*
X65975Y-31900D01*
X67307Y-33232D01*
X67258Y-33351D01*
X67257Y-33646D01*
X67370Y-33919D01*
X67371Y-33920D01*
X67169Y-34004D01*
X67004Y-34168D01*
X66915Y-34383D01*
X66915Y-34615D01*
X67004Y-34830D01*
X67168Y-34995D01*
X67383Y-35084D01*
X67615Y-35084D01*
X67830Y-34995D01*
X67995Y-34831D01*
X68084Y-34616D01*
X68084Y-34384D01*
X68025Y-34242D01*
X68146Y-34242D01*
X68419Y-34129D01*
X68616Y-33933D01*
X68466Y-34293D01*
X68466Y-34704D01*
X68623Y-35084D01*
X68913Y-35375D01*
X69293Y-35533D01*
X69704Y-35533D01*
X70084Y-35376D01*
X70375Y-35086D01*
X70533Y-34706D01*
X70533Y-34295D01*
X70376Y-33915D01*
X70086Y-33624D01*
X69706Y-33466D01*
X69295Y-33466D01*
X68915Y-33623D01*
X68636Y-33901D01*
X68741Y-33648D01*
X68742Y-33353D01*
X68721Y-33302D01*
X69818Y-32205D01*
X69758Y-32351D01*
X69757Y-32646D01*
X69870Y-32919D01*
X70079Y-33128D01*
X70351Y-33241D01*
X70646Y-33242D01*
X70919Y-33129D01*
X71128Y-32920D01*
X71241Y-32648D01*
X71242Y-32353D01*
X71129Y-32080D01*
X70949Y-31900D01*
X73475Y-31900D01*
X74775Y-33200D01*
X73900Y-33200D01*
X73785Y-33222D01*
X73687Y-33287D01*
X73622Y-33353D01*
X73511Y-33353D01*
X73347Y-33420D01*
X73221Y-33546D01*
X73153Y-33710D01*
X73153Y-33888D01*
X73220Y-34052D01*
X73346Y-34178D01*
X73510Y-34246D01*
X73688Y-34246D01*
X73852Y-34179D01*
X73978Y-34053D01*
X74046Y-33889D01*
X74046Y-33800D01*
X74821Y-33800D01*
X74870Y-33919D01*
X74871Y-33920D01*
X74669Y-34004D01*
X74504Y-34168D01*
X74415Y-34383D01*
X74415Y-34615D01*
X74504Y-34830D01*
X74668Y-34995D01*
X74883Y-35084D01*
X75115Y-35084D01*
X75330Y-34995D01*
X75495Y-34831D01*
X75584Y-34616D01*
X75584Y-34384D01*
X75525Y-34242D01*
X75646Y-34242D01*
X75919Y-34129D01*
X76116Y-33933D01*
X75966Y-34293D01*
X75966Y-34704D01*
X76123Y-35084D01*
X76413Y-35375D01*
X76793Y-35533D01*
X77204Y-35533D01*
X77584Y-35376D01*
X77875Y-35086D01*
X78033Y-34706D01*
X78033Y-34295D01*
X77876Y-33915D01*
X77586Y-33624D01*
X77206Y-33466D01*
X76795Y-33466D01*
X76415Y-33623D01*
X76136Y-33901D01*
X76241Y-33648D01*
X76242Y-33353D01*
X76192Y-33232D01*
X77524Y-31900D01*
X77550Y-31900D01*
X77371Y-32079D01*
X77258Y-32351D01*
X77257Y-32646D01*
X77370Y-32919D01*
X77579Y-33128D01*
X77851Y-33241D01*
X78146Y-33242D01*
X78419Y-33129D01*
X78628Y-32920D01*
X78741Y-32648D01*
X78742Y-32353D01*
X78629Y-32080D01*
X78449Y-31900D01*
X81075Y-31900D01*
X82337Y-33161D01*
X82258Y-33351D01*
X82257Y-33646D01*
X82370Y-33919D01*
X82371Y-33920D01*
X82169Y-34004D01*
X82004Y-34168D01*
X81915Y-34383D01*
X81915Y-34615D01*
X82004Y-34830D01*
X82168Y-34995D01*
X82383Y-35084D01*
X82615Y-35084D01*
X82830Y-34995D01*
X82995Y-34831D01*
X83084Y-34616D01*
X83084Y-34384D01*
X83025Y-34242D01*
X83146Y-34242D01*
X83419Y-34129D01*
X83616Y-33933D01*
X83466Y-34293D01*
X83466Y-34704D01*
X83623Y-35084D01*
X83913Y-35375D01*
X84293Y-35533D01*
X84704Y-35533D01*
X85084Y-35376D01*
X85375Y-35086D01*
X85533Y-34706D01*
X85533Y-34295D01*
X85376Y-33915D01*
X85086Y-33624D01*
X84706Y-33466D01*
X84295Y-33466D01*
X83915Y-33623D01*
X83636Y-33901D01*
X83741Y-33648D01*
X83742Y-33353D01*
X83662Y-33161D01*
X84924Y-31900D01*
X85050Y-31900D01*
X84871Y-32079D01*
X84758Y-32351D01*
X84757Y-32646D01*
X84870Y-32919D01*
X85079Y-33128D01*
X85351Y-33241D01*
X85646Y-33242D01*
X85919Y-33129D01*
X86128Y-32920D01*
X86241Y-32648D01*
X86242Y-32353D01*
X86129Y-32080D01*
X85949Y-31900D01*
X88475Y-31900D01*
X89807Y-33232D01*
X89758Y-33351D01*
X89757Y-33646D01*
X89870Y-33919D01*
X89871Y-33920D01*
X89669Y-34004D01*
X89504Y-34168D01*
X89415Y-34383D01*
X89415Y-34615D01*
X89504Y-34830D01*
X89668Y-34995D01*
X89883Y-35084D01*
X90115Y-35084D01*
X90330Y-34995D01*
X90495Y-34831D01*
X90584Y-34616D01*
X90584Y-34384D01*
X90525Y-34242D01*
X90646Y-34242D01*
X90919Y-34129D01*
X91116Y-33933D01*
X90966Y-34293D01*
X90966Y-34704D01*
X91123Y-35084D01*
X91413Y-35375D01*
X91793Y-35533D01*
X92204Y-35533D01*
X92584Y-35376D01*
X92875Y-35086D01*
X93033Y-34706D01*
X93033Y-34295D01*
X92876Y-33915D01*
X92586Y-33624D01*
X92206Y-33466D01*
X91795Y-33466D01*
X91415Y-33623D01*
X91136Y-33901D01*
X91241Y-33648D01*
X91242Y-33353D01*
X91192Y-33232D01*
X92524Y-31900D01*
X92550Y-31900D01*
X92371Y-32079D01*
X92258Y-32351D01*
X92257Y-32646D01*
X92370Y-32919D01*
X92579Y-33128D01*
X92851Y-33241D01*
X93146Y-33242D01*
X93419Y-33129D01*
X93628Y-32920D01*
X93741Y-32648D01*
X93742Y-32353D01*
X93629Y-32080D01*
X93449Y-31900D01*
X96075Y-31900D01*
X97337Y-33161D01*
X97258Y-33351D01*
X97257Y-33646D01*
X97370Y-33919D01*
X97371Y-33920D01*
X97169Y-34004D01*
X97004Y-34168D01*
X96915Y-34383D01*
X96915Y-34615D01*
X97004Y-34830D01*
X97168Y-34995D01*
X97383Y-35084D01*
X97615Y-35084D01*
X97830Y-34995D01*
X97995Y-34831D01*
X98084Y-34616D01*
X98084Y-34384D01*
X98025Y-34242D01*
X98146Y-34242D01*
X98419Y-34129D01*
X98616Y-33933D01*
X98466Y-34293D01*
X98466Y-34704D01*
X98623Y-35084D01*
X98913Y-35375D01*
X99293Y-35533D01*
X99704Y-35533D01*
X100084Y-35376D01*
X100375Y-35086D01*
X100533Y-34706D01*
X100533Y-34295D01*
X100376Y-33915D01*
X100086Y-33624D01*
X99706Y-33466D01*
X99295Y-33466D01*
X98915Y-33623D01*
X98636Y-33901D01*
X98741Y-33648D01*
X98742Y-33353D01*
X98662Y-33161D01*
X99924Y-31900D01*
X100050Y-31900D01*
X99871Y-32079D01*
X99758Y-32351D01*
X99757Y-32646D01*
X99870Y-32919D01*
X100079Y-33128D01*
X100351Y-33241D01*
X100646Y-33242D01*
X100919Y-33129D01*
X101128Y-32920D01*
X101241Y-32648D01*
X101242Y-32353D01*
X101129Y-32080D01*
X100949Y-31900D01*
X103475Y-31900D01*
X104807Y-33232D01*
X104758Y-33351D01*
X104757Y-33646D01*
X104870Y-33919D01*
X104871Y-33920D01*
X104669Y-34004D01*
X104504Y-34168D01*
X104415Y-34383D01*
X104415Y-34615D01*
X104504Y-34830D01*
X104668Y-34995D01*
X104883Y-35084D01*
X105115Y-35084D01*
X105330Y-34995D01*
X105495Y-34831D01*
X105584Y-34616D01*
X105584Y-34384D01*
X105525Y-34242D01*
X105646Y-34242D01*
X105919Y-34129D01*
X106116Y-33933D01*
X105966Y-34293D01*
X105966Y-34704D01*
X106123Y-35084D01*
X106413Y-35375D01*
X106793Y-35533D01*
X107204Y-35533D01*
X107584Y-35376D01*
X107875Y-35086D01*
X108033Y-34706D01*
X108033Y-34295D01*
X107876Y-33915D01*
X107586Y-33624D01*
X107206Y-33466D01*
X106795Y-33466D01*
X106415Y-33623D01*
X106136Y-33901D01*
X106241Y-33648D01*
X106242Y-33353D01*
X106192Y-33232D01*
X107524Y-31900D01*
X107550Y-31900D01*
X107371Y-32079D01*
X107258Y-32351D01*
X107257Y-32646D01*
X107370Y-32919D01*
X107579Y-33128D01*
X107851Y-33241D01*
X108146Y-33242D01*
X108419Y-33129D01*
X108628Y-32920D01*
X108700Y-32749D01*
X108700Y-33200D01*
X108722Y-33314D01*
X108787Y-33412D01*
X109700Y-34324D01*
X109700Y-35600D01*
X109722Y-35714D01*
X109787Y-35812D01*
X109987Y-36012D01*
X109987Y-36012D01*
X110085Y-36077D01*
X110200Y-36100D01*
X113600Y-36100D01*
X113600Y-36099D01*
X113714Y-36077D01*
X113714Y-36077D01*
X113812Y-36012D01*
X114412Y-35412D01*
X114412Y-35412D01*
X114477Y-35314D01*
X114499Y-35200D01*
X114500Y-35200D01*
X114500Y-34124D01*
X114824Y-33800D01*
X115133Y-33800D01*
X115183Y-33919D01*
X115183Y-33920D01*
X114981Y-34004D01*
X114817Y-34168D01*
X114728Y-34383D01*
X114727Y-34615D01*
X114816Y-34830D01*
X114980Y-34995D01*
X115195Y-35084D01*
X115428Y-35084D01*
X115643Y-34995D01*
X115807Y-34831D01*
X115896Y-34616D01*
X115897Y-34384D01*
X115838Y-34242D01*
X115959Y-34242D01*
X116232Y-34129D01*
X116428Y-33933D01*
X116279Y-34293D01*
X116278Y-34704D01*
X116435Y-35084D01*
X116726Y-35375D01*
X117106Y-35533D01*
X117517Y-35533D01*
X117897Y-35376D01*
X118188Y-35086D01*
X118345Y-34706D01*
X118346Y-34295D01*
X118189Y-33915D01*
X117898Y-33624D01*
X117518Y-33466D01*
X117107Y-33466D01*
X116727Y-33623D01*
X116449Y-33901D01*
X116554Y-33648D01*
X116554Y-33353D01*
X116441Y-33080D01*
X116233Y-32871D01*
X115960Y-32758D01*
X115665Y-32757D01*
X115392Y-32870D01*
X115183Y-33079D01*
X115133Y-33200D01*
X114700Y-33200D01*
X114585Y-33222D01*
X114487Y-33287D01*
X113987Y-33787D01*
X113922Y-33885D01*
X113900Y-34000D01*
X113900Y-35075D01*
X113529Y-35446D01*
X113529Y-34937D01*
X113519Y-34709D01*
X113451Y-34547D01*
X113354Y-34516D01*
X113283Y-34587D01*
X113283Y-34445D01*
X113252Y-34348D01*
X113037Y-34270D01*
X112890Y-34277D01*
X112930Y-34256D01*
X113049Y-34112D01*
X113105Y-33935D01*
X113105Y-33835D01*
X113105Y-33735D01*
X113105Y-33635D01*
X113049Y-33457D01*
X112930Y-33313D01*
X112784Y-33236D01*
X112790Y-33208D01*
X112790Y-32985D01*
X112753Y-32803D01*
X112650Y-32649D01*
X112496Y-32546D01*
X112315Y-32510D01*
X112133Y-32546D01*
X112000Y-32635D01*
X111866Y-32546D01*
X111685Y-32510D01*
X111503Y-32546D01*
X111349Y-32649D01*
X111246Y-32803D01*
X111210Y-32985D01*
X111210Y-33208D01*
X111214Y-33229D01*
X111188Y-33234D01*
X111034Y-33337D01*
X110931Y-33491D01*
X110895Y-33673D01*
X110895Y-33896D01*
X110931Y-34078D01*
X111034Y-34232D01*
X111098Y-34275D01*
X110936Y-34274D01*
X110724Y-34362D01*
X110562Y-34523D01*
X110475Y-34735D01*
X110474Y-34963D01*
X110562Y-35175D01*
X110723Y-35337D01*
X110935Y-35424D01*
X111163Y-35425D01*
X111375Y-35337D01*
X111525Y-35188D01*
X111673Y-35337D01*
X111885Y-35424D01*
X112113Y-35425D01*
X112325Y-35337D01*
X112487Y-35176D01*
X112491Y-35166D01*
X112545Y-35183D01*
X112879Y-34850D01*
X112545Y-34516D01*
X112491Y-34533D01*
X112487Y-34524D01*
X112326Y-34362D01*
X112211Y-34315D01*
X112318Y-34243D01*
X112329Y-34256D01*
X112494Y-34342D01*
X112506Y-34343D01*
X112580Y-34294D01*
X112580Y-33835D01*
X112572Y-33835D01*
X112572Y-33735D01*
X112580Y-33735D01*
X112580Y-33727D01*
X112680Y-33727D01*
X112680Y-33735D01*
X113105Y-33735D01*
X113105Y-33835D01*
X112680Y-33835D01*
X112680Y-34294D01*
X112716Y-34319D01*
X112647Y-34348D01*
X112616Y-34445D01*
X112950Y-34779D01*
X113283Y-34445D01*
X113283Y-34587D01*
X113020Y-34850D01*
X113354Y-35183D01*
X113451Y-35152D01*
X113529Y-34937D01*
X113529Y-35446D01*
X113475Y-35500D01*
X113283Y-35500D01*
X113283Y-35254D01*
X112950Y-34920D01*
X112616Y-35254D01*
X112647Y-35351D01*
X112862Y-35429D01*
X113090Y-35419D01*
X113252Y-35351D01*
X113283Y-35254D01*
X113283Y-35500D01*
X110324Y-35500D01*
X110300Y-35475D01*
X110300Y-34200D01*
X110277Y-34085D01*
X110212Y-33987D01*
X110212Y-33987D01*
X109300Y-33075D01*
X109300Y-32913D01*
X109423Y-33037D01*
X109635Y-33124D01*
X109863Y-33125D01*
X110075Y-33037D01*
X110237Y-32876D01*
X110324Y-32664D01*
X110325Y-32450D01*
X110340Y-32460D01*
X110564Y-32504D01*
X110787Y-32460D01*
X110977Y-32333D01*
X111104Y-32143D01*
X111149Y-31919D01*
X111149Y-31458D01*
X111111Y-31269D01*
X112888Y-31269D01*
X112851Y-31458D01*
X112851Y-31919D01*
X112895Y-32143D01*
X113022Y-32333D01*
X113212Y-32460D01*
X113436Y-32504D01*
X113659Y-32460D01*
X113675Y-32449D01*
X113674Y-32663D01*
X113762Y-32875D01*
X113923Y-33037D01*
X114135Y-33124D01*
X114363Y-33125D01*
X114575Y-33037D01*
X114737Y-32876D01*
X114824Y-32664D01*
X114825Y-32436D01*
X114737Y-32224D01*
X114576Y-32062D01*
X114364Y-31975D01*
X114136Y-31974D01*
X113998Y-32031D01*
X114021Y-31919D01*
X114021Y-31458D01*
X113983Y-31269D01*
X123000Y-31269D01*
X123173Y-31269D01*
X123286Y-31291D01*
X123358Y-31340D01*
X123408Y-31414D01*
X123430Y-31527D01*
X123430Y-60000D01*
X123430Y-60072D01*
X123430Y-60072D01*
G37*
G54D21*
X123430Y-60072D02*
X123408Y-60185D01*
X123358Y-60259D01*
X123286Y-60308D01*
X123173Y-60330D01*
X123000Y-60330D01*
X122709Y-60330D01*
X122709Y-49384D01*
X122620Y-49169D01*
X122456Y-49004D01*
X122241Y-48915D01*
X122009Y-48915D01*
X121867Y-48974D01*
X121867Y-47353D01*
X121754Y-47080D01*
X121545Y-46871D01*
X121273Y-46758D01*
X120978Y-46757D01*
X120829Y-46819D01*
X120829Y-41884D01*
X120740Y-41669D01*
X120576Y-41504D01*
X120361Y-41415D01*
X120129Y-41415D01*
X119987Y-41474D01*
X119987Y-39853D01*
X119897Y-39634D01*
X119897Y-34384D01*
X119808Y-34169D01*
X119644Y-34004D01*
X119429Y-33915D01*
X119196Y-33915D01*
X119054Y-33974D01*
X119054Y-32353D01*
X118941Y-32080D01*
X118733Y-31871D01*
X118460Y-31758D01*
X118165Y-31757D01*
X117892Y-31870D01*
X117683Y-32079D01*
X117570Y-32351D01*
X117570Y-32646D01*
X117683Y-32919D01*
X117891Y-33128D01*
X118164Y-33241D01*
X118459Y-33242D01*
X118732Y-33129D01*
X118941Y-32920D01*
X119054Y-32648D01*
X119054Y-32353D01*
X119054Y-33974D01*
X118981Y-34004D01*
X118817Y-34168D01*
X118728Y-34383D01*
X118727Y-34615D01*
X118816Y-34830D01*
X118980Y-34995D01*
X119195Y-35084D01*
X119428Y-35084D01*
X119643Y-34995D01*
X119807Y-34831D01*
X119896Y-34616D01*
X119897Y-34384D01*
X119897Y-39634D01*
X119874Y-39580D01*
X119665Y-39371D01*
X119393Y-39258D01*
X119098Y-39257D01*
X118825Y-39370D01*
X118616Y-39579D01*
X118503Y-39851D01*
X118502Y-40146D01*
X118615Y-40419D01*
X118824Y-40628D01*
X119096Y-40741D01*
X119392Y-40742D01*
X119664Y-40629D01*
X119873Y-40420D01*
X119986Y-40148D01*
X119987Y-39853D01*
X119987Y-41474D01*
X119914Y-41504D01*
X119749Y-41668D01*
X119660Y-41883D01*
X119660Y-42115D01*
X119749Y-42330D01*
X119913Y-42495D01*
X120128Y-42584D01*
X120360Y-42584D01*
X120575Y-42495D01*
X120740Y-42331D01*
X120829Y-42116D01*
X120829Y-41884D01*
X120829Y-46819D01*
X120705Y-46870D01*
X120496Y-47079D01*
X120383Y-47351D01*
X120382Y-47646D01*
X120495Y-47919D01*
X120704Y-48128D01*
X120976Y-48241D01*
X121271Y-48242D01*
X121544Y-48129D01*
X121753Y-47920D01*
X121866Y-47648D01*
X121867Y-47353D01*
X121867Y-48974D01*
X121794Y-49004D01*
X121629Y-49168D01*
X121540Y-49383D01*
X121540Y-49615D01*
X121629Y-49830D01*
X121793Y-49995D01*
X122008Y-50084D01*
X122240Y-50084D01*
X122455Y-49995D01*
X122620Y-49831D01*
X122709Y-49616D01*
X122709Y-49384D01*
X122709Y-60330D01*
X117996Y-60330D01*
X117996Y-56884D01*
X117907Y-56669D01*
X117743Y-56504D01*
X117528Y-56415D01*
X117296Y-56415D01*
X117154Y-56474D01*
X117154Y-54853D01*
X117041Y-54580D01*
X116832Y-54371D01*
X116560Y-54258D01*
X116264Y-54257D01*
X115992Y-54370D01*
X115783Y-54579D01*
X115670Y-54851D01*
X115669Y-55146D01*
X115782Y-55419D01*
X115991Y-55628D01*
X116263Y-55741D01*
X116558Y-55742D01*
X116831Y-55629D01*
X117040Y-55420D01*
X117153Y-55148D01*
X117154Y-54853D01*
X117154Y-56474D01*
X117081Y-56504D01*
X116916Y-56668D01*
X116827Y-56883D01*
X116827Y-57115D01*
X116916Y-57330D01*
X117080Y-57495D01*
X117295Y-57584D01*
X117527Y-57584D01*
X117742Y-57495D01*
X117907Y-57331D01*
X117996Y-57116D01*
X117996Y-56884D01*
X117996Y-60330D01*
X112316Y-60330D01*
X112421Y-60246D01*
X112588Y-60246D01*
X112752Y-60179D01*
X112878Y-60053D01*
X112946Y-59889D01*
X112946Y-59711D01*
X112879Y-59547D01*
X112753Y-59421D01*
X112589Y-59353D01*
X112411Y-59353D01*
X112247Y-59420D01*
X112121Y-59546D01*
X112053Y-59710D01*
X112053Y-59772D01*
X111894Y-59900D01*
X109561Y-59900D01*
X109561Y-56884D01*
X109472Y-56669D01*
X109308Y-56504D01*
X109093Y-56415D01*
X108861Y-56415D01*
X108646Y-56504D01*
X108481Y-56668D01*
X108392Y-56883D01*
X108392Y-57115D01*
X108481Y-57330D01*
X108645Y-57495D01*
X108860Y-57584D01*
X109092Y-57584D01*
X109307Y-57495D01*
X109472Y-57331D01*
X109561Y-57116D01*
X109561Y-56884D01*
X109561Y-59900D01*
X97042Y-59900D01*
X97046Y-59889D01*
X97046Y-59711D01*
X97042Y-59700D01*
X103668Y-59700D01*
X103746Y-59778D01*
X103910Y-59846D01*
X104088Y-59846D01*
X104252Y-59779D01*
X104378Y-59653D01*
X104446Y-59489D01*
X104446Y-59311D01*
X104379Y-59147D01*
X104253Y-59021D01*
X104089Y-58953D01*
X103911Y-58953D01*
X103747Y-59020D01*
X103668Y-59100D01*
X88700Y-59100D01*
X88700Y-59099D01*
X88814Y-59077D01*
X88814Y-59077D01*
X88912Y-59012D01*
X89267Y-58656D01*
X89287Y-58664D01*
X89511Y-58665D01*
X89719Y-58579D01*
X89878Y-58420D01*
X89887Y-58400D01*
X100275Y-58400D01*
X100687Y-58812D01*
X100687Y-58812D01*
X100785Y-58877D01*
X100900Y-58900D01*
X102968Y-58900D01*
X103046Y-58978D01*
X103210Y-59046D01*
X103388Y-59046D01*
X103552Y-58979D01*
X103678Y-58853D01*
X103746Y-58689D01*
X103746Y-58511D01*
X103679Y-58347D01*
X103553Y-58221D01*
X103389Y-58153D01*
X103211Y-58153D01*
X103047Y-58220D01*
X102968Y-58300D01*
X101126Y-58300D01*
X101126Y-56884D01*
X101037Y-56669D01*
X100873Y-56504D01*
X100658Y-56415D01*
X100426Y-56415D01*
X100211Y-56504D01*
X100046Y-56668D01*
X99957Y-56883D01*
X99957Y-57115D01*
X100046Y-57330D01*
X100210Y-57495D01*
X100425Y-57584D01*
X100657Y-57584D01*
X100872Y-57495D01*
X101037Y-57331D01*
X101126Y-57116D01*
X101126Y-56884D01*
X101126Y-58300D01*
X101024Y-58300D01*
X100612Y-57887D01*
X100514Y-57822D01*
X100400Y-57800D01*
X99203Y-57800D01*
X99417Y-57586D01*
X99575Y-57206D01*
X99575Y-56795D01*
X99418Y-56415D01*
X99128Y-56124D01*
X98748Y-55966D01*
X98337Y-55966D01*
X97957Y-56123D01*
X97678Y-56401D01*
X97783Y-56148D01*
X97783Y-55853D01*
X97721Y-55702D01*
X99124Y-54300D01*
X99292Y-54300D01*
X99122Y-54370D01*
X98913Y-54579D01*
X98799Y-54851D01*
X98799Y-55146D01*
X98912Y-55419D01*
X99120Y-55628D01*
X99393Y-55741D01*
X99688Y-55742D01*
X99961Y-55629D01*
X100170Y-55420D01*
X100283Y-55148D01*
X100283Y-54853D01*
X100171Y-54580D01*
X99962Y-54371D01*
X99790Y-54300D01*
X103352Y-54300D01*
X104784Y-55732D01*
X104734Y-55851D01*
X104734Y-56146D01*
X104847Y-56419D01*
X104848Y-56420D01*
X104646Y-56504D01*
X104481Y-56668D01*
X104392Y-56883D01*
X104392Y-57115D01*
X104481Y-57330D01*
X104645Y-57495D01*
X104860Y-57584D01*
X105092Y-57584D01*
X105307Y-57495D01*
X105472Y-57331D01*
X105561Y-57116D01*
X105561Y-56884D01*
X105502Y-56742D01*
X105623Y-56742D01*
X105896Y-56629D01*
X106093Y-56433D01*
X105943Y-56793D01*
X105943Y-57204D01*
X106100Y-57584D01*
X106390Y-57875D01*
X106770Y-58033D01*
X107181Y-58033D01*
X107561Y-57876D01*
X107852Y-57586D01*
X108010Y-57206D01*
X108010Y-56795D01*
X107853Y-56415D01*
X107563Y-56124D01*
X107183Y-55966D01*
X106772Y-55966D01*
X106392Y-56123D01*
X106113Y-56401D01*
X106218Y-56148D01*
X106218Y-55853D01*
X106106Y-55580D01*
X106075Y-55549D01*
X107124Y-54500D01*
X107427Y-54500D01*
X107348Y-54579D01*
X107234Y-54851D01*
X107234Y-55146D01*
X107347Y-55419D01*
X107556Y-55628D01*
X107828Y-55741D01*
X108123Y-55742D01*
X108396Y-55629D01*
X108605Y-55420D01*
X108718Y-55148D01*
X108718Y-54853D01*
X108606Y-54580D01*
X108526Y-54500D01*
X111987Y-54500D01*
X113219Y-55732D01*
X113170Y-55851D01*
X113169Y-56146D01*
X113282Y-56419D01*
X113283Y-56420D01*
X113081Y-56504D01*
X112916Y-56668D01*
X112827Y-56883D01*
X112827Y-57115D01*
X112916Y-57330D01*
X113080Y-57495D01*
X113295Y-57584D01*
X113527Y-57584D01*
X113742Y-57495D01*
X113907Y-57331D01*
X113996Y-57116D01*
X113996Y-56884D01*
X113937Y-56742D01*
X114058Y-56742D01*
X114331Y-56629D01*
X114528Y-56433D01*
X114378Y-56793D01*
X114378Y-57204D01*
X114535Y-57584D01*
X114825Y-57875D01*
X115205Y-58033D01*
X115616Y-58033D01*
X115996Y-57876D01*
X116287Y-57586D01*
X116445Y-57206D01*
X116445Y-56795D01*
X116288Y-56415D01*
X115998Y-56124D01*
X115618Y-55966D01*
X115209Y-55966D01*
X115209Y-49384D01*
X115120Y-49169D01*
X114956Y-49004D01*
X114741Y-48915D01*
X114509Y-48915D01*
X114294Y-49004D01*
X114129Y-49168D01*
X114040Y-49383D01*
X114040Y-49615D01*
X114129Y-49830D01*
X114293Y-49995D01*
X114508Y-50084D01*
X114740Y-50084D01*
X114955Y-49995D01*
X115120Y-49831D01*
X115209Y-49616D01*
X115209Y-49384D01*
X115209Y-55966D01*
X115207Y-55966D01*
X114827Y-56123D01*
X114548Y-56401D01*
X114653Y-56148D01*
X114654Y-55853D01*
X114541Y-55580D01*
X114332Y-55371D01*
X114060Y-55258D01*
X113764Y-55257D01*
X113644Y-55307D01*
X112324Y-53987D01*
X112226Y-53922D01*
X112111Y-53900D01*
X107709Y-53900D01*
X107709Y-49384D01*
X107620Y-49169D01*
X107456Y-49004D01*
X107241Y-48915D01*
X107009Y-48915D01*
X106794Y-49004D01*
X106629Y-49168D01*
X106540Y-49383D01*
X106540Y-49615D01*
X106629Y-49830D01*
X106793Y-49995D01*
X107008Y-50084D01*
X107240Y-50084D01*
X107455Y-49995D01*
X107620Y-49831D01*
X107709Y-49616D01*
X107709Y-49384D01*
X107709Y-53900D01*
X107000Y-53900D01*
X106885Y-53922D01*
X106787Y-53987D01*
X105517Y-55258D01*
X105329Y-55257D01*
X105208Y-55307D01*
X103689Y-53787D01*
X103591Y-53722D01*
X103476Y-53700D01*
X100209Y-53700D01*
X100209Y-49384D01*
X100120Y-49169D01*
X99956Y-49004D01*
X99741Y-48915D01*
X99509Y-48915D01*
X99294Y-49004D01*
X99129Y-49168D01*
X99040Y-49383D01*
X99040Y-49615D01*
X99129Y-49830D01*
X99293Y-49995D01*
X99508Y-50084D01*
X99740Y-50084D01*
X99955Y-49995D01*
X100120Y-49831D01*
X100209Y-49616D01*
X100209Y-49384D01*
X100209Y-53700D01*
X99000Y-53700D01*
X98885Y-53722D01*
X98787Y-53787D01*
X97280Y-55295D01*
X97190Y-55258D01*
X96894Y-55257D01*
X96773Y-55307D01*
X95353Y-53887D01*
X95256Y-53822D01*
X95141Y-53800D01*
X92709Y-53800D01*
X92709Y-49384D01*
X92620Y-49169D01*
X92456Y-49004D01*
X92241Y-48915D01*
X92009Y-48915D01*
X91794Y-49004D01*
X91629Y-49168D01*
X91540Y-49383D01*
X91540Y-49615D01*
X91629Y-49830D01*
X91793Y-49995D01*
X92008Y-50084D01*
X92240Y-50084D01*
X92455Y-49995D01*
X92620Y-49831D01*
X92709Y-49616D01*
X92709Y-49384D01*
X92709Y-53800D01*
X85900Y-53800D01*
X85785Y-53822D01*
X85687Y-53887D01*
X85209Y-54366D01*
X85209Y-49384D01*
X85120Y-49169D01*
X84956Y-49004D01*
X84741Y-48915D01*
X84509Y-48915D01*
X84294Y-49004D01*
X84129Y-49168D01*
X84040Y-49383D01*
X84040Y-49615D01*
X84129Y-49830D01*
X84293Y-49995D01*
X84508Y-50084D01*
X84740Y-50084D01*
X84955Y-49995D01*
X85120Y-49831D01*
X85209Y-49616D01*
X85209Y-49384D01*
X85209Y-54366D01*
X84244Y-55331D01*
X84067Y-55258D01*
X83772Y-55257D01*
X83499Y-55370D01*
X83290Y-55579D01*
X83240Y-55700D01*
X82846Y-55700D01*
X82846Y-52011D01*
X82779Y-51847D01*
X82653Y-51721D01*
X82489Y-51653D01*
X82311Y-51653D01*
X82147Y-51720D01*
X82021Y-51846D01*
X81953Y-52010D01*
X81953Y-52188D01*
X82020Y-52352D01*
X82100Y-52431D01*
X82100Y-52575D01*
X81722Y-52953D01*
X81611Y-52953D01*
X81447Y-53020D01*
X81321Y-53146D01*
X81253Y-53310D01*
X81253Y-53488D01*
X81320Y-53652D01*
X81446Y-53778D01*
X81610Y-53846D01*
X81788Y-53846D01*
X81952Y-53779D01*
X82078Y-53653D01*
X82146Y-53489D01*
X82146Y-53377D01*
X82612Y-52912D01*
X82612Y-52912D01*
X82677Y-52814D01*
X82699Y-52700D01*
X82700Y-52700D01*
X82700Y-52431D01*
X82778Y-52353D01*
X82846Y-52189D01*
X82846Y-52011D01*
X82846Y-55700D01*
X82800Y-55700D01*
X82685Y-55722D01*
X82587Y-55787D01*
X82287Y-56087D01*
X82222Y-56185D01*
X82200Y-56300D01*
X82200Y-57800D01*
X80531Y-57800D01*
X80453Y-57721D01*
X80289Y-57653D01*
X80111Y-57653D01*
X79947Y-57720D01*
X79821Y-57846D01*
X79753Y-58010D01*
X79753Y-58028D01*
X79647Y-57922D01*
X79752Y-57879D01*
X79878Y-57753D01*
X79946Y-57589D01*
X79946Y-57477D01*
X80212Y-57212D01*
X80212Y-57212D01*
X80277Y-57114D01*
X80299Y-57000D01*
X80300Y-57000D01*
X80300Y-49997D01*
X80508Y-50084D01*
X80740Y-50084D01*
X80955Y-49995D01*
X81120Y-49831D01*
X81209Y-49616D01*
X81209Y-49384D01*
X81150Y-49242D01*
X81271Y-49242D01*
X81544Y-49129D01*
X81741Y-48933D01*
X81591Y-49293D01*
X81591Y-49704D01*
X81748Y-50084D01*
X82038Y-50375D01*
X82418Y-50533D01*
X82829Y-50533D01*
X83209Y-50376D01*
X83500Y-50086D01*
X83658Y-49706D01*
X83658Y-49295D01*
X83501Y-48915D01*
X83211Y-48624D01*
X82831Y-48466D01*
X82420Y-48466D01*
X82040Y-48623D01*
X81761Y-48901D01*
X81866Y-48648D01*
X81867Y-48353D01*
X81754Y-48080D01*
X81749Y-48075D01*
X82724Y-47100D01*
X82987Y-47100D01*
X82883Y-47351D01*
X82882Y-47646D01*
X82995Y-47919D01*
X83204Y-48128D01*
X83476Y-48241D01*
X83771Y-48242D01*
X84044Y-48129D01*
X84253Y-47920D01*
X84366Y-47648D01*
X84367Y-47353D01*
X84262Y-47100D01*
X86800Y-47100D01*
X87932Y-48232D01*
X87883Y-48351D01*
X87882Y-48646D01*
X87995Y-48919D01*
X87996Y-48920D01*
X87794Y-49004D01*
X87629Y-49168D01*
X87540Y-49383D01*
X87540Y-49615D01*
X87629Y-49830D01*
X87793Y-49995D01*
X88008Y-50084D01*
X88240Y-50084D01*
X88455Y-49995D01*
X88620Y-49831D01*
X88709Y-49616D01*
X88709Y-49384D01*
X88650Y-49242D01*
X88771Y-49242D01*
X89044Y-49129D01*
X89241Y-48933D01*
X89091Y-49293D01*
X89091Y-49704D01*
X89248Y-50084D01*
X89538Y-50375D01*
X89918Y-50533D01*
X90329Y-50533D01*
X90709Y-50376D01*
X91000Y-50086D01*
X91158Y-49706D01*
X91158Y-49295D01*
X91001Y-48915D01*
X90711Y-48624D01*
X90331Y-48466D01*
X89920Y-48466D01*
X89540Y-48623D01*
X89261Y-48901D01*
X89366Y-48648D01*
X89367Y-48353D01*
X89339Y-48285D01*
X90461Y-47162D01*
X90383Y-47351D01*
X90382Y-47646D01*
X90495Y-47919D01*
X90704Y-48128D01*
X90976Y-48241D01*
X91271Y-48242D01*
X91544Y-48129D01*
X91753Y-47920D01*
X91866Y-47648D01*
X91867Y-47353D01*
X91754Y-47080D01*
X91574Y-46900D01*
X94100Y-46900D01*
X95432Y-48232D01*
X95383Y-48351D01*
X95382Y-48646D01*
X95495Y-48919D01*
X95496Y-48920D01*
X95294Y-49004D01*
X95129Y-49168D01*
X95040Y-49383D01*
X95040Y-49615D01*
X95129Y-49830D01*
X95293Y-49995D01*
X95508Y-50084D01*
X95740Y-50084D01*
X95955Y-49995D01*
X96120Y-49831D01*
X96209Y-49616D01*
X96209Y-49384D01*
X96150Y-49242D01*
X96271Y-49242D01*
X96544Y-49129D01*
X96741Y-48933D01*
X96591Y-49293D01*
X96591Y-49704D01*
X96748Y-50084D01*
X97038Y-50375D01*
X97418Y-50533D01*
X97829Y-50533D01*
X98209Y-50376D01*
X98500Y-50086D01*
X98658Y-49706D01*
X98658Y-49295D01*
X98501Y-48915D01*
X98211Y-48624D01*
X97831Y-48466D01*
X97420Y-48466D01*
X97040Y-48623D01*
X96761Y-48901D01*
X96866Y-48648D01*
X96867Y-48353D01*
X96809Y-48214D01*
X98124Y-46900D01*
X98175Y-46900D01*
X97996Y-47079D01*
X97883Y-47351D01*
X97882Y-47646D01*
X97995Y-47919D01*
X98204Y-48128D01*
X98476Y-48241D01*
X98771Y-48242D01*
X99044Y-48129D01*
X99253Y-47920D01*
X99366Y-47648D01*
X99367Y-47353D01*
X99254Y-47080D01*
X99074Y-46900D01*
X101600Y-46900D01*
X102932Y-48232D01*
X102883Y-48351D01*
X102882Y-48646D01*
X102995Y-48919D01*
X102996Y-48920D01*
X102794Y-49004D01*
X102629Y-49168D01*
X102540Y-49383D01*
X102540Y-49615D01*
X102629Y-49830D01*
X102793Y-49995D01*
X103008Y-50084D01*
X103240Y-50084D01*
X103455Y-49995D01*
X103620Y-49831D01*
X103709Y-49616D01*
X103709Y-49384D01*
X103650Y-49242D01*
X103771Y-49242D01*
X104044Y-49129D01*
X104241Y-48933D01*
X104091Y-49293D01*
X104091Y-49704D01*
X104248Y-50084D01*
X104538Y-50375D01*
X104918Y-50533D01*
X105329Y-50533D01*
X105709Y-50376D01*
X106000Y-50086D01*
X106158Y-49706D01*
X106158Y-49295D01*
X106001Y-48915D01*
X105711Y-48624D01*
X105331Y-48466D01*
X104920Y-48466D01*
X104540Y-48623D01*
X104261Y-48901D01*
X104366Y-48648D01*
X104367Y-48353D01*
X104339Y-48285D01*
X105461Y-47162D01*
X105383Y-47351D01*
X105382Y-47646D01*
X105495Y-47919D01*
X105704Y-48128D01*
X105976Y-48241D01*
X106271Y-48242D01*
X106544Y-48129D01*
X106753Y-47920D01*
X106866Y-47648D01*
X106867Y-47353D01*
X106754Y-47080D01*
X106574Y-46900D01*
X109100Y-46900D01*
X110432Y-48232D01*
X110383Y-48351D01*
X110382Y-48646D01*
X110495Y-48919D01*
X110496Y-48920D01*
X110294Y-49004D01*
X110129Y-49168D01*
X110040Y-49383D01*
X110040Y-49615D01*
X110129Y-49830D01*
X110293Y-49995D01*
X110508Y-50084D01*
X110740Y-50084D01*
X110955Y-49995D01*
X111120Y-49831D01*
X111209Y-49616D01*
X111209Y-49384D01*
X111150Y-49242D01*
X111271Y-49242D01*
X111544Y-49129D01*
X111741Y-48933D01*
X111591Y-49293D01*
X111591Y-49704D01*
X111748Y-50084D01*
X112038Y-50375D01*
X112418Y-50533D01*
X112829Y-50533D01*
X113209Y-50376D01*
X113500Y-50086D01*
X113658Y-49706D01*
X113658Y-49295D01*
X113501Y-48915D01*
X113211Y-48624D01*
X112831Y-48466D01*
X112420Y-48466D01*
X112040Y-48623D01*
X111761Y-48901D01*
X111866Y-48648D01*
X111867Y-48357D01*
X112890Y-47333D01*
X112883Y-47351D01*
X112882Y-47646D01*
X112995Y-47919D01*
X113204Y-48128D01*
X113476Y-48241D01*
X113771Y-48242D01*
X114044Y-48129D01*
X114253Y-47920D01*
X114366Y-47648D01*
X114367Y-47353D01*
X114254Y-47080D01*
X114074Y-46900D01*
X116600Y-46900D01*
X117932Y-48232D01*
X117883Y-48351D01*
X117882Y-48646D01*
X117995Y-48919D01*
X117996Y-48920D01*
X117794Y-49004D01*
X117629Y-49168D01*
X117540Y-49383D01*
X117540Y-49615D01*
X117629Y-49830D01*
X117793Y-49995D01*
X118008Y-50084D01*
X118240Y-50084D01*
X118455Y-49995D01*
X118620Y-49831D01*
X118709Y-49616D01*
X118709Y-49384D01*
X118650Y-49242D01*
X118771Y-49242D01*
X119044Y-49129D01*
X119241Y-48933D01*
X119091Y-49293D01*
X119091Y-49704D01*
X119248Y-50084D01*
X119538Y-50375D01*
X119918Y-50533D01*
X120329Y-50533D01*
X120709Y-50376D01*
X121000Y-50086D01*
X121158Y-49706D01*
X121158Y-49295D01*
X121001Y-48915D01*
X120711Y-48624D01*
X120331Y-48466D01*
X119920Y-48466D01*
X119540Y-48623D01*
X119261Y-48901D01*
X119366Y-48648D01*
X119367Y-48353D01*
X119254Y-48080D01*
X119045Y-47871D01*
X118773Y-47758D01*
X118478Y-47757D01*
X118357Y-47807D01*
X116937Y-46387D01*
X116839Y-46322D01*
X116725Y-46300D01*
X113200Y-46300D01*
X113085Y-46322D01*
X112987Y-46387D01*
X111516Y-47859D01*
X111454Y-47833D01*
X111454Y-41884D01*
X111365Y-41669D01*
X111201Y-41504D01*
X110986Y-41415D01*
X110754Y-41415D01*
X110539Y-41504D01*
X110374Y-41668D01*
X110285Y-41883D01*
X110285Y-42115D01*
X110374Y-42330D01*
X110538Y-42495D01*
X110753Y-42584D01*
X110985Y-42584D01*
X111200Y-42495D01*
X111365Y-42331D01*
X111454Y-42116D01*
X111454Y-41884D01*
X111454Y-47833D01*
X111273Y-47758D01*
X110978Y-47757D01*
X110857Y-47807D01*
X109437Y-46387D01*
X109339Y-46322D01*
X109225Y-46300D01*
X105600Y-46300D01*
X105485Y-46322D01*
X105387Y-46387D01*
X103954Y-47821D01*
X103954Y-41884D01*
X103865Y-41669D01*
X103701Y-41504D01*
X103486Y-41415D01*
X103254Y-41415D01*
X103039Y-41504D01*
X102874Y-41668D01*
X102785Y-41883D01*
X102785Y-42115D01*
X102874Y-42330D01*
X103038Y-42495D01*
X103253Y-42584D01*
X103485Y-42584D01*
X103700Y-42495D01*
X103865Y-42331D01*
X103954Y-42116D01*
X103954Y-41884D01*
X103954Y-47821D01*
X103945Y-47829D01*
X103773Y-47758D01*
X103478Y-47757D01*
X103357Y-47807D01*
X101937Y-46387D01*
X101839Y-46322D01*
X101725Y-46300D01*
X98000Y-46300D01*
X97885Y-46322D01*
X97787Y-46387D01*
X96454Y-47721D01*
X96454Y-41884D01*
X96365Y-41669D01*
X96201Y-41504D01*
X95986Y-41415D01*
X95754Y-41415D01*
X95539Y-41504D01*
X95374Y-41668D01*
X95285Y-41883D01*
X95285Y-42115D01*
X95374Y-42330D01*
X95538Y-42495D01*
X95753Y-42584D01*
X95985Y-42584D01*
X96200Y-42495D01*
X96365Y-42331D01*
X96454Y-42116D01*
X96454Y-41884D01*
X96454Y-47721D01*
X96375Y-47800D01*
X96273Y-47758D01*
X95978Y-47757D01*
X95857Y-47807D01*
X94437Y-46387D01*
X94339Y-46322D01*
X94225Y-46300D01*
X90600Y-46300D01*
X90485Y-46322D01*
X90387Y-46387D01*
X88954Y-47821D01*
X88954Y-41884D01*
X88865Y-41669D01*
X88701Y-41504D01*
X88486Y-41415D01*
X88254Y-41415D01*
X88039Y-41504D01*
X87874Y-41668D01*
X87785Y-41883D01*
X87785Y-42115D01*
X87874Y-42330D01*
X88038Y-42495D01*
X88253Y-42584D01*
X88485Y-42584D01*
X88700Y-42495D01*
X88865Y-42331D01*
X88954Y-42116D01*
X88954Y-41884D01*
X88954Y-47821D01*
X88945Y-47829D01*
X88773Y-47758D01*
X88478Y-47757D01*
X88357Y-47807D01*
X87137Y-46587D01*
X87039Y-46522D01*
X86925Y-46500D01*
X83446Y-46500D01*
X83446Y-42111D01*
X83379Y-41947D01*
X83253Y-41821D01*
X83089Y-41753D01*
X82911Y-41753D01*
X82747Y-41820D01*
X82696Y-41871D01*
X81846Y-41022D01*
X81846Y-40911D01*
X81779Y-40747D01*
X81653Y-40621D01*
X81489Y-40553D01*
X81311Y-40553D01*
X81147Y-40620D01*
X81021Y-40746D01*
X80953Y-40910D01*
X80953Y-41088D01*
X81020Y-41252D01*
X81146Y-41378D01*
X81310Y-41446D01*
X81422Y-41446D01*
X82387Y-42412D01*
X82387Y-42412D01*
X82485Y-42477D01*
X82599Y-42499D01*
X82600Y-42500D01*
X82668Y-42500D01*
X82746Y-42578D01*
X82910Y-42646D01*
X83088Y-42646D01*
X83252Y-42579D01*
X83378Y-42453D01*
X83446Y-42289D01*
X83446Y-42111D01*
X83446Y-46500D01*
X82600Y-46500D01*
X82485Y-46522D01*
X82387Y-46587D01*
X81454Y-47521D01*
X81454Y-41884D01*
X81365Y-41669D01*
X81201Y-41504D01*
X80986Y-41415D01*
X80754Y-41415D01*
X80539Y-41504D01*
X80374Y-41668D01*
X80285Y-41883D01*
X80285Y-42115D01*
X80374Y-42330D01*
X80538Y-42495D01*
X80753Y-42584D01*
X80985Y-42584D01*
X81200Y-42495D01*
X81365Y-42331D01*
X81454Y-42116D01*
X81454Y-41884D01*
X81454Y-47521D01*
X81217Y-47758D01*
X80978Y-47757D01*
X80857Y-47807D01*
X80485Y-47436D01*
X80510Y-47446D01*
X80688Y-47446D01*
X80852Y-47379D01*
X80978Y-47253D01*
X81046Y-47089D01*
X81046Y-46911D01*
X80979Y-46747D01*
X80853Y-46621D01*
X80689Y-46553D01*
X80577Y-46553D01*
X79812Y-45787D01*
X79714Y-45722D01*
X79600Y-45700D01*
X78924Y-45700D01*
X78846Y-45622D01*
X78846Y-45511D01*
X78779Y-45347D01*
X78653Y-45221D01*
X78489Y-45153D01*
X78311Y-45153D01*
X78147Y-45220D01*
X78021Y-45346D01*
X77953Y-45510D01*
X77953Y-45688D01*
X78020Y-45852D01*
X78146Y-45978D01*
X78310Y-46046D01*
X78422Y-46046D01*
X78587Y-46212D01*
X78587Y-46212D01*
X78685Y-46277D01*
X78799Y-46299D01*
X78800Y-46300D01*
X75600Y-46300D01*
X75485Y-46322D01*
X75387Y-46387D01*
X73945Y-47829D01*
X73773Y-47758D01*
X73478Y-47757D01*
X73268Y-47844D01*
X71637Y-46212D01*
X71539Y-46147D01*
X71425Y-46125D01*
X68200Y-46125D01*
X68085Y-46147D01*
X67987Y-46212D01*
X66454Y-47746D01*
X66454Y-41884D01*
X66365Y-41669D01*
X66201Y-41504D01*
X65986Y-41415D01*
X65754Y-41415D01*
X65539Y-41504D01*
X65374Y-41668D01*
X65285Y-41883D01*
X65285Y-42115D01*
X65374Y-42330D01*
X65538Y-42495D01*
X65753Y-42584D01*
X65985Y-42584D01*
X66200Y-42495D01*
X66365Y-42331D01*
X66454Y-42116D01*
X66454Y-41884D01*
X66454Y-47746D01*
X66392Y-47807D01*
X66273Y-47758D01*
X65982Y-47757D01*
X64612Y-46387D01*
X64514Y-46322D01*
X64400Y-46300D01*
X60600Y-46300D01*
X60485Y-46322D01*
X60387Y-46387D01*
X58954Y-47821D01*
X58954Y-41884D01*
X58865Y-41669D01*
X58701Y-41504D01*
X58486Y-41415D01*
X58254Y-41415D01*
X58039Y-41504D01*
X57874Y-41668D01*
X57785Y-41883D01*
X57785Y-42115D01*
X57874Y-42330D01*
X58038Y-42495D01*
X58253Y-42584D01*
X58485Y-42584D01*
X58700Y-42495D01*
X58865Y-42331D01*
X58954Y-42116D01*
X58954Y-41884D01*
X58954Y-47821D01*
X58945Y-47829D01*
X58773Y-47758D01*
X58478Y-47757D01*
X58357Y-47807D01*
X56937Y-46387D01*
X56839Y-46322D01*
X56725Y-46300D01*
X53000Y-46300D01*
X52885Y-46322D01*
X52787Y-46387D01*
X51454Y-47721D01*
X51454Y-41884D01*
X51365Y-41669D01*
X51201Y-41504D01*
X50986Y-41415D01*
X50754Y-41415D01*
X50539Y-41504D01*
X50374Y-41668D01*
X50285Y-41883D01*
X50285Y-42115D01*
X50374Y-42330D01*
X50538Y-42495D01*
X50753Y-42584D01*
X50985Y-42584D01*
X51200Y-42495D01*
X51365Y-42331D01*
X51454Y-42116D01*
X51454Y-41884D01*
X51454Y-47721D01*
X51375Y-47800D01*
X51273Y-47758D01*
X50978Y-47757D01*
X50857Y-47807D01*
X49437Y-46387D01*
X49339Y-46322D01*
X49225Y-46300D01*
X45600Y-46300D01*
X45485Y-46322D01*
X45387Y-46387D01*
X43954Y-47821D01*
X43954Y-41884D01*
X43865Y-41669D01*
X43701Y-41504D01*
X43486Y-41415D01*
X43254Y-41415D01*
X43039Y-41504D01*
X42874Y-41668D01*
X42785Y-41883D01*
X42785Y-42115D01*
X42874Y-42330D01*
X43038Y-42495D01*
X43253Y-42584D01*
X43485Y-42584D01*
X43700Y-42495D01*
X43865Y-42331D01*
X43954Y-42116D01*
X43954Y-41884D01*
X43954Y-47821D01*
X43945Y-47829D01*
X43773Y-47758D01*
X43478Y-47757D01*
X43357Y-47807D01*
X41937Y-46387D01*
X41839Y-46322D01*
X41725Y-46300D01*
X35000Y-46300D01*
X34885Y-46322D01*
X34787Y-46387D01*
X33417Y-47758D01*
X33165Y-47757D01*
X32892Y-47870D01*
X32683Y-48079D01*
X32570Y-48351D01*
X32570Y-48646D01*
X32683Y-48919D01*
X32683Y-48920D01*
X32481Y-49004D01*
X32317Y-49168D01*
X32228Y-49383D01*
X32227Y-49615D01*
X32316Y-49830D01*
X32480Y-49995D01*
X32695Y-50084D01*
X32928Y-50084D01*
X33143Y-49995D01*
X33307Y-49831D01*
X33396Y-49616D01*
X33397Y-49384D01*
X33338Y-49242D01*
X33459Y-49242D01*
X33732Y-49129D01*
X33928Y-48933D01*
X33779Y-49293D01*
X33778Y-49704D01*
X33935Y-50084D01*
X34226Y-50375D01*
X34606Y-50533D01*
X35017Y-50533D01*
X35397Y-50376D01*
X35688Y-50086D01*
X35845Y-49706D01*
X35846Y-49295D01*
X35689Y-48915D01*
X35398Y-48624D01*
X35018Y-48466D01*
X34607Y-48466D01*
X34227Y-48623D01*
X33949Y-48901D01*
X34054Y-48648D01*
X34054Y-48353D01*
X33942Y-48081D01*
X35124Y-46900D01*
X35363Y-46900D01*
X35183Y-47079D01*
X35070Y-47351D01*
X35070Y-47646D01*
X35183Y-47919D01*
X35391Y-48128D01*
X35664Y-48241D01*
X35959Y-48242D01*
X36232Y-48129D01*
X36441Y-47920D01*
X36554Y-47648D01*
X36554Y-47353D01*
X36441Y-47080D01*
X36261Y-46900D01*
X41600Y-46900D01*
X42932Y-48232D01*
X42883Y-48351D01*
X42882Y-48646D01*
X42995Y-48919D01*
X42996Y-48920D01*
X42794Y-49004D01*
X42629Y-49168D01*
X42540Y-49383D01*
X42540Y-49615D01*
X42629Y-49830D01*
X42793Y-49995D01*
X43008Y-50084D01*
X43240Y-50084D01*
X43455Y-49995D01*
X43620Y-49831D01*
X43709Y-49616D01*
X43709Y-49384D01*
X43650Y-49242D01*
X43771Y-49242D01*
X44044Y-49129D01*
X44241Y-48933D01*
X44091Y-49293D01*
X44091Y-49704D01*
X44248Y-50084D01*
X44538Y-50375D01*
X44918Y-50533D01*
X45329Y-50533D01*
X45709Y-50376D01*
X46000Y-50086D01*
X46158Y-49706D01*
X46158Y-49295D01*
X46001Y-48915D01*
X45711Y-48624D01*
X45331Y-48466D01*
X44920Y-48466D01*
X44540Y-48623D01*
X44261Y-48901D01*
X44366Y-48648D01*
X44367Y-48353D01*
X44339Y-48285D01*
X45461Y-47162D01*
X45383Y-47351D01*
X45382Y-47646D01*
X45495Y-47919D01*
X45704Y-48128D01*
X45976Y-48241D01*
X46271Y-48242D01*
X46544Y-48129D01*
X46753Y-47920D01*
X46866Y-47648D01*
X46867Y-47353D01*
X46754Y-47080D01*
X46574Y-46900D01*
X49100Y-46900D01*
X50432Y-48232D01*
X50383Y-48351D01*
X50382Y-48646D01*
X50495Y-48919D01*
X50496Y-48920D01*
X50294Y-49004D01*
X50129Y-49168D01*
X50040Y-49383D01*
X50040Y-49615D01*
X50129Y-49830D01*
X50293Y-49995D01*
X50508Y-50084D01*
X50740Y-50084D01*
X50955Y-49995D01*
X51120Y-49831D01*
X51209Y-49616D01*
X51209Y-49384D01*
X51150Y-49242D01*
X51271Y-49242D01*
X51544Y-49129D01*
X51741Y-48933D01*
X51591Y-49293D01*
X51591Y-49704D01*
X51748Y-50084D01*
X52038Y-50375D01*
X52418Y-50533D01*
X52829Y-50533D01*
X53209Y-50376D01*
X53500Y-50086D01*
X53658Y-49706D01*
X53658Y-49295D01*
X53501Y-48915D01*
X53211Y-48624D01*
X52831Y-48466D01*
X52420Y-48466D01*
X52040Y-48623D01*
X51761Y-48901D01*
X51866Y-48648D01*
X51867Y-48353D01*
X51809Y-48214D01*
X53124Y-46900D01*
X53175Y-46900D01*
X52996Y-47079D01*
X52883Y-47351D01*
X52882Y-47646D01*
X52995Y-47919D01*
X53204Y-48128D01*
X53476Y-48241D01*
X53771Y-48242D01*
X54044Y-48129D01*
X54253Y-47920D01*
X54366Y-47648D01*
X54367Y-47353D01*
X54254Y-47080D01*
X54074Y-46900D01*
X56600Y-46900D01*
X57932Y-48232D01*
X57883Y-48351D01*
X57882Y-48646D01*
X57995Y-48919D01*
X57996Y-48920D01*
X57794Y-49004D01*
X57629Y-49168D01*
X57540Y-49383D01*
X57540Y-49615D01*
X57629Y-49830D01*
X57793Y-49995D01*
X58008Y-50084D01*
X58240Y-50084D01*
X58455Y-49995D01*
X58620Y-49831D01*
X58709Y-49616D01*
X58709Y-49384D01*
X58650Y-49242D01*
X58771Y-49242D01*
X59044Y-49129D01*
X59241Y-48933D01*
X59091Y-49293D01*
X59091Y-49704D01*
X59248Y-50084D01*
X59538Y-50375D01*
X59918Y-50533D01*
X60329Y-50533D01*
X60709Y-50376D01*
X61000Y-50086D01*
X61158Y-49706D01*
X61158Y-49295D01*
X61001Y-48915D01*
X60711Y-48624D01*
X60331Y-48466D01*
X59920Y-48466D01*
X59540Y-48623D01*
X59261Y-48901D01*
X59366Y-48648D01*
X59367Y-48353D01*
X59339Y-48285D01*
X60461Y-47162D01*
X60383Y-47351D01*
X60382Y-47646D01*
X60495Y-47919D01*
X60704Y-48128D01*
X60976Y-48241D01*
X61271Y-48242D01*
X61544Y-48129D01*
X61753Y-47920D01*
X61866Y-47648D01*
X61867Y-47353D01*
X61754Y-47080D01*
X61574Y-46900D01*
X64275Y-46900D01*
X65484Y-48108D01*
X65383Y-48351D01*
X65382Y-48646D01*
X65495Y-48919D01*
X65496Y-48920D01*
X65294Y-49004D01*
X65129Y-49168D01*
X65040Y-49383D01*
X65040Y-49615D01*
X65129Y-49830D01*
X65293Y-49995D01*
X65508Y-50084D01*
X65740Y-50084D01*
X65955Y-49995D01*
X66120Y-49831D01*
X66209Y-49616D01*
X66209Y-49384D01*
X66150Y-49242D01*
X66271Y-49242D01*
X66544Y-49129D01*
X66741Y-48933D01*
X66591Y-49293D01*
X66591Y-49704D01*
X66748Y-50084D01*
X67038Y-50375D01*
X67418Y-50533D01*
X67829Y-50533D01*
X68209Y-50376D01*
X68500Y-50086D01*
X68658Y-49706D01*
X68658Y-49295D01*
X68501Y-48915D01*
X68211Y-48624D01*
X67831Y-48466D01*
X67420Y-48466D01*
X67040Y-48623D01*
X66761Y-48901D01*
X66866Y-48648D01*
X66867Y-48353D01*
X66817Y-48232D01*
X68324Y-46725D01*
X71300Y-46725D01*
X72896Y-48320D01*
X72883Y-48351D01*
X72882Y-48646D01*
X72995Y-48919D01*
X72996Y-48920D01*
X72794Y-49004D01*
X72629Y-49168D01*
X72540Y-49383D01*
X72540Y-49615D01*
X72629Y-49830D01*
X72793Y-49995D01*
X73008Y-50084D01*
X73240Y-50084D01*
X73455Y-49995D01*
X73620Y-49831D01*
X73709Y-49616D01*
X73709Y-49384D01*
X73650Y-49242D01*
X73771Y-49242D01*
X74044Y-49129D01*
X74241Y-48933D01*
X74091Y-49293D01*
X74091Y-49704D01*
X74248Y-50084D01*
X74538Y-50375D01*
X74918Y-50533D01*
X75329Y-50533D01*
X75709Y-50376D01*
X75900Y-50186D01*
X75900Y-50868D01*
X75853Y-50821D01*
X75689Y-50753D01*
X75511Y-50753D01*
X75347Y-50820D01*
X75221Y-50946D01*
X75153Y-51110D01*
X75153Y-51288D01*
X75220Y-51452D01*
X75346Y-51578D01*
X75398Y-51600D01*
X75231Y-51600D01*
X75153Y-51521D01*
X74989Y-51453D01*
X74811Y-51453D01*
X74647Y-51520D01*
X74521Y-51646D01*
X74453Y-51810D01*
X74453Y-51988D01*
X74520Y-52152D01*
X74646Y-52278D01*
X74810Y-52346D01*
X74988Y-52346D01*
X75152Y-52279D01*
X75231Y-52200D01*
X76500Y-52200D01*
X76500Y-57000D01*
X76522Y-57114D01*
X76548Y-57153D01*
X76511Y-57153D01*
X76347Y-57220D01*
X76221Y-57346D01*
X76200Y-57398D01*
X76200Y-57000D01*
X76177Y-56885D01*
X76112Y-56787D01*
X74812Y-55487D01*
X74714Y-55422D01*
X74600Y-55400D01*
X73400Y-55400D01*
X73400Y-53231D01*
X73478Y-53153D01*
X73546Y-52989D01*
X73546Y-52971D01*
X74253Y-53677D01*
X74253Y-53788D01*
X74320Y-53952D01*
X74446Y-54078D01*
X74610Y-54146D01*
X74788Y-54146D01*
X74952Y-54079D01*
X75078Y-53953D01*
X75146Y-53789D01*
X75146Y-53611D01*
X75079Y-53447D01*
X74953Y-53321D01*
X74789Y-53253D01*
X74677Y-53253D01*
X73612Y-52187D01*
X73514Y-52122D01*
X73400Y-52100D01*
X73311Y-52117D01*
X70209Y-52128D01*
X70209Y-49384D01*
X70120Y-49169D01*
X69956Y-49004D01*
X69741Y-48915D01*
X69509Y-48915D01*
X69367Y-48974D01*
X69367Y-47353D01*
X69254Y-47080D01*
X69045Y-46871D01*
X68773Y-46758D01*
X68478Y-46757D01*
X68205Y-46870D01*
X67996Y-47079D01*
X67883Y-47351D01*
X67882Y-47646D01*
X67995Y-47919D01*
X68204Y-48128D01*
X68476Y-48241D01*
X68771Y-48242D01*
X69044Y-48129D01*
X69253Y-47920D01*
X69366Y-47648D01*
X69367Y-47353D01*
X69367Y-48974D01*
X69294Y-49004D01*
X69129Y-49168D01*
X69040Y-49383D01*
X69040Y-49615D01*
X69129Y-49830D01*
X69293Y-49995D01*
X69508Y-50084D01*
X69740Y-50084D01*
X69955Y-49995D01*
X70120Y-49831D01*
X70209Y-49616D01*
X70209Y-49384D01*
X70209Y-52128D01*
X62709Y-52154D01*
X62709Y-49384D01*
X62620Y-49169D01*
X62456Y-49004D01*
X62241Y-48915D01*
X62009Y-48915D01*
X61794Y-49004D01*
X61629Y-49168D01*
X61540Y-49383D01*
X61540Y-49615D01*
X61629Y-49830D01*
X61793Y-49995D01*
X62008Y-50084D01*
X62240Y-50084D01*
X62455Y-49995D01*
X62620Y-49831D01*
X62709Y-49616D01*
X62709Y-49384D01*
X62709Y-52154D01*
X55209Y-52180D01*
X55209Y-49384D01*
X55120Y-49169D01*
X54956Y-49004D01*
X54741Y-48915D01*
X54509Y-48915D01*
X54294Y-49004D01*
X54129Y-49168D01*
X54040Y-49383D01*
X54040Y-49615D01*
X54129Y-49830D01*
X54293Y-49995D01*
X54508Y-50084D01*
X54740Y-50084D01*
X54955Y-49995D01*
X55120Y-49831D01*
X55209Y-49616D01*
X55209Y-49384D01*
X55209Y-52180D01*
X50999Y-52195D01*
X49827Y-52195D01*
X49753Y-52121D01*
X49589Y-52053D01*
X49411Y-52053D01*
X49247Y-52120D01*
X49121Y-52246D01*
X49053Y-52410D01*
X49053Y-52588D01*
X49099Y-52700D01*
X47709Y-52700D01*
X47709Y-49384D01*
X47620Y-49169D01*
X47456Y-49004D01*
X47241Y-48915D01*
X47009Y-48915D01*
X46794Y-49004D01*
X46629Y-49168D01*
X46540Y-49383D01*
X46540Y-49615D01*
X46629Y-49830D01*
X46793Y-49995D01*
X47008Y-50084D01*
X47240Y-50084D01*
X47455Y-49995D01*
X47620Y-49831D01*
X47709Y-49616D01*
X47709Y-49384D01*
X47709Y-52700D01*
X37397Y-52700D01*
X37397Y-49384D01*
X37308Y-49169D01*
X37144Y-49004D01*
X36929Y-48915D01*
X36696Y-48915D01*
X36481Y-49004D01*
X36317Y-49168D01*
X36228Y-49383D01*
X36227Y-49615D01*
X36316Y-49830D01*
X36480Y-49995D01*
X36695Y-50084D01*
X36928Y-50084D01*
X37143Y-49995D01*
X37307Y-49831D01*
X37396Y-49616D01*
X37397Y-49384D01*
X37397Y-52700D01*
X34300Y-52700D01*
X34185Y-52722D01*
X34087Y-52787D01*
X32887Y-53987D01*
X32822Y-54085D01*
X32800Y-54200D01*
X32800Y-58768D01*
X32721Y-58846D01*
X32653Y-59010D01*
X32653Y-59188D01*
X32720Y-59352D01*
X32846Y-59478D01*
X33010Y-59546D01*
X33188Y-59546D01*
X33352Y-59479D01*
X33478Y-59353D01*
X33546Y-59189D01*
X33546Y-59011D01*
X33479Y-58847D01*
X33400Y-58768D01*
X33400Y-54324D01*
X34424Y-53300D01*
X41857Y-53300D01*
X41853Y-53310D01*
X41853Y-53488D01*
X41920Y-53652D01*
X41968Y-53700D01*
X38000Y-53700D01*
X37885Y-53722D01*
X37787Y-53787D01*
X36306Y-55269D01*
X36280Y-55258D01*
X35985Y-55257D01*
X35712Y-55370D01*
X35503Y-55579D01*
X35390Y-55851D01*
X35390Y-56146D01*
X35502Y-56419D01*
X35503Y-56420D01*
X35301Y-56504D01*
X35136Y-56668D01*
X35047Y-56883D01*
X35047Y-57115D01*
X35136Y-57330D01*
X35300Y-57495D01*
X35515Y-57584D01*
X35747Y-57584D01*
X35962Y-57495D01*
X36127Y-57331D01*
X36216Y-57116D01*
X36216Y-56884D01*
X36157Y-56742D01*
X36279Y-56742D01*
X36551Y-56629D01*
X36748Y-56433D01*
X36598Y-56793D01*
X36598Y-57204D01*
X36755Y-57584D01*
X37045Y-57875D01*
X37425Y-58033D01*
X37836Y-58033D01*
X38216Y-57876D01*
X38507Y-57586D01*
X38665Y-57206D01*
X38665Y-56795D01*
X38508Y-56415D01*
X38218Y-56124D01*
X37838Y-55966D01*
X37427Y-55966D01*
X37047Y-56123D01*
X36768Y-56401D01*
X36874Y-56148D01*
X36874Y-55853D01*
X36785Y-55638D01*
X38124Y-54300D01*
X38383Y-54300D01*
X38212Y-54370D01*
X38003Y-54579D01*
X37890Y-54851D01*
X37890Y-55146D01*
X38002Y-55419D01*
X38211Y-55628D01*
X38483Y-55741D01*
X38779Y-55742D01*
X39051Y-55629D01*
X39260Y-55420D01*
X39374Y-55148D01*
X39374Y-54853D01*
X39261Y-54580D01*
X39052Y-54371D01*
X38881Y-54300D01*
X42443Y-54300D01*
X43875Y-55732D01*
X43825Y-55851D01*
X43825Y-56146D01*
X43938Y-56419D01*
X43939Y-56420D01*
X43737Y-56504D01*
X43572Y-56668D01*
X43483Y-56883D01*
X43483Y-57115D01*
X43571Y-57330D01*
X43736Y-57495D01*
X43950Y-57584D01*
X44183Y-57584D01*
X44398Y-57495D01*
X44562Y-57331D01*
X44652Y-57116D01*
X44652Y-56884D01*
X44593Y-56742D01*
X44714Y-56742D01*
X44987Y-56629D01*
X45183Y-56433D01*
X45034Y-56793D01*
X45033Y-57204D01*
X45191Y-57584D01*
X45481Y-57875D01*
X45861Y-58033D01*
X46272Y-58033D01*
X46652Y-57876D01*
X46943Y-57586D01*
X47100Y-57206D01*
X47101Y-56795D01*
X46944Y-56415D01*
X46653Y-56124D01*
X46274Y-55966D01*
X45862Y-55966D01*
X45483Y-56123D01*
X45204Y-56401D01*
X45309Y-56148D01*
X45309Y-55853D01*
X45210Y-55613D01*
X46524Y-54300D01*
X46818Y-54300D01*
X46647Y-54370D01*
X46438Y-54579D01*
X46325Y-54851D01*
X46325Y-55146D01*
X46438Y-55419D01*
X46646Y-55628D01*
X46919Y-55741D01*
X47214Y-55742D01*
X47487Y-55629D01*
X47696Y-55420D01*
X47809Y-55148D01*
X47809Y-54853D01*
X47697Y-54580D01*
X47488Y-54371D01*
X47316Y-54300D01*
X50878Y-54300D01*
X52310Y-55732D01*
X52260Y-55851D01*
X52260Y-56146D01*
X52373Y-56419D01*
X52374Y-56420D01*
X52172Y-56504D01*
X52007Y-56668D01*
X51918Y-56883D01*
X51918Y-57115D01*
X52006Y-57330D01*
X52171Y-57495D01*
X52385Y-57584D01*
X52618Y-57584D01*
X52833Y-57495D01*
X52997Y-57331D01*
X53087Y-57116D01*
X53087Y-56884D01*
X53028Y-56742D01*
X53149Y-56742D01*
X53422Y-56629D01*
X53619Y-56433D01*
X53469Y-56793D01*
X53469Y-57204D01*
X53626Y-57584D01*
X53916Y-57875D01*
X54296Y-58033D01*
X54707Y-58033D01*
X55087Y-57876D01*
X55378Y-57586D01*
X55536Y-57206D01*
X55536Y-56795D01*
X55379Y-56415D01*
X55088Y-56124D01*
X54709Y-55966D01*
X54298Y-55966D01*
X53918Y-56123D01*
X53639Y-56401D01*
X53744Y-56148D01*
X53744Y-55879D01*
X54760Y-54863D01*
X54760Y-55146D01*
X54873Y-55419D01*
X55081Y-55628D01*
X55354Y-55741D01*
X55649Y-55742D01*
X55922Y-55629D01*
X56131Y-55420D01*
X56244Y-55148D01*
X56244Y-54853D01*
X56132Y-54580D01*
X56052Y-54500D01*
X64200Y-54500D01*
X65433Y-55732D01*
X65383Y-55851D01*
X65383Y-56146D01*
X65495Y-56419D01*
X65496Y-56420D01*
X65294Y-56504D01*
X65130Y-56668D01*
X65040Y-56883D01*
X65040Y-57115D01*
X65129Y-57330D01*
X65293Y-57495D01*
X65508Y-57584D01*
X65741Y-57584D01*
X65955Y-57495D01*
X66120Y-57331D01*
X66209Y-57116D01*
X66209Y-56884D01*
X66151Y-56742D01*
X66272Y-56742D01*
X66545Y-56629D01*
X66741Y-56433D01*
X66591Y-56793D01*
X66591Y-57204D01*
X66748Y-57584D01*
X67039Y-57875D01*
X67338Y-58000D01*
X66131Y-58000D01*
X66053Y-57921D01*
X65889Y-57853D01*
X65711Y-57853D01*
X65547Y-57920D01*
X65421Y-58046D01*
X65353Y-58210D01*
X65353Y-58388D01*
X65420Y-58552D01*
X65546Y-58678D01*
X65710Y-58746D01*
X65888Y-58746D01*
X66052Y-58679D01*
X66131Y-58600D01*
X68075Y-58600D01*
X68287Y-58812D01*
X68287Y-58812D01*
X68385Y-58877D01*
X68499Y-58899D01*
X68500Y-58900D01*
X69757Y-58900D01*
X69753Y-58910D01*
X69753Y-59088D01*
X69820Y-59252D01*
X69900Y-59331D01*
X69900Y-60000D01*
X69909Y-60047D01*
X69915Y-60094D01*
X69920Y-60104D01*
X69922Y-60114D01*
X69949Y-60154D01*
X69973Y-60196D01*
X69981Y-60203D01*
X69987Y-60212D01*
X70027Y-60238D01*
X70065Y-60268D01*
X70189Y-60330D01*
X65246Y-60330D01*
X65246Y-58911D01*
X65179Y-58747D01*
X65053Y-58621D01*
X64889Y-58553D01*
X64711Y-58553D01*
X64547Y-58620D01*
X64468Y-58700D01*
X64169Y-58700D01*
X64169Y-55185D01*
X64158Y-54960D01*
X64093Y-54803D01*
X63996Y-54773D01*
X63926Y-54844D01*
X63926Y-54703D01*
X63896Y-54606D01*
X63685Y-54530D01*
X63460Y-54541D01*
X63303Y-54606D01*
X63273Y-54703D01*
X63600Y-55029D01*
X63926Y-54703D01*
X63926Y-54844D01*
X63670Y-55100D01*
X63996Y-55426D01*
X64093Y-55396D01*
X64169Y-55185D01*
X64169Y-58700D01*
X64165Y-58700D01*
X64165Y-57988D01*
X64079Y-57780D01*
X63926Y-57626D01*
X63926Y-55496D01*
X63600Y-55170D01*
X63529Y-55241D01*
X63529Y-55100D01*
X63203Y-54773D01*
X63106Y-54803D01*
X63030Y-55014D01*
X63041Y-55239D01*
X63106Y-55396D01*
X63203Y-55426D01*
X63529Y-55100D01*
X63529Y-55241D01*
X63273Y-55496D01*
X63303Y-55593D01*
X63514Y-55669D01*
X63739Y-55658D01*
X63896Y-55593D01*
X63926Y-55496D01*
X63926Y-57626D01*
X63920Y-57621D01*
X63712Y-57535D01*
X63488Y-57534D01*
X63280Y-57620D01*
X63121Y-57779D01*
X63035Y-57987D01*
X63034Y-58211D01*
X63120Y-58419D01*
X63279Y-58578D01*
X63487Y-58664D01*
X63711Y-58665D01*
X63919Y-58579D01*
X64078Y-58420D01*
X64164Y-58212D01*
X64165Y-57988D01*
X64165Y-58700D01*
X62600Y-58700D01*
X62431Y-58700D01*
X62353Y-58621D01*
X62189Y-58553D01*
X62011Y-58553D01*
X61847Y-58620D01*
X61721Y-58746D01*
X61653Y-58910D01*
X61653Y-59088D01*
X61720Y-59252D01*
X61846Y-59378D01*
X62010Y-59446D01*
X62188Y-59446D01*
X62352Y-59379D01*
X62431Y-59300D01*
X62600Y-59300D01*
X64468Y-59300D01*
X64546Y-59378D01*
X64710Y-59446D01*
X64888Y-59446D01*
X65052Y-59379D01*
X65178Y-59253D01*
X65246Y-59089D01*
X65246Y-58911D01*
X65246Y-60330D01*
X57087Y-60330D01*
X57087Y-56884D01*
X56998Y-56669D01*
X56834Y-56504D01*
X56619Y-56415D01*
X56386Y-56415D01*
X56172Y-56504D01*
X56007Y-56668D01*
X55918Y-56883D01*
X55918Y-57115D01*
X56006Y-57330D01*
X56171Y-57495D01*
X56385Y-57584D01*
X56618Y-57584D01*
X56833Y-57495D01*
X56997Y-57331D01*
X57087Y-57116D01*
X57087Y-56884D01*
X57087Y-60330D01*
X48652Y-60330D01*
X48652Y-56884D01*
X48563Y-56669D01*
X48399Y-56504D01*
X48184Y-56415D01*
X47951Y-56415D01*
X47737Y-56504D01*
X47572Y-56668D01*
X47483Y-56883D01*
X47483Y-57115D01*
X47571Y-57330D01*
X47736Y-57495D01*
X47950Y-57584D01*
X48183Y-57584D01*
X48398Y-57495D01*
X48562Y-57331D01*
X48652Y-57116D01*
X48652Y-56884D01*
X48652Y-60330D01*
X40216Y-60330D01*
X40216Y-56884D01*
X40127Y-56669D01*
X39963Y-56504D01*
X39748Y-56415D01*
X39516Y-56415D01*
X39301Y-56504D01*
X39136Y-56668D01*
X39047Y-56883D01*
X39047Y-57115D01*
X39136Y-57330D01*
X39300Y-57495D01*
X39515Y-57584D01*
X39747Y-57584D01*
X39962Y-57495D01*
X40127Y-57331D01*
X40216Y-57116D01*
X40216Y-56884D01*
X40216Y-60330D01*
X29027Y-60330D01*
X28914Y-60308D01*
X28840Y-60258D01*
X28791Y-60186D01*
X28769Y-60073D01*
X28769Y-60000D01*
X28769Y-39983D01*
X28958Y-40021D01*
X29419Y-40021D01*
X29531Y-39998D01*
X29475Y-40135D01*
X29474Y-40363D01*
X29562Y-40575D01*
X29723Y-40737D01*
X29935Y-40824D01*
X29963Y-40824D01*
X29922Y-40885D01*
X29900Y-41000D01*
X29900Y-42500D01*
X29922Y-42614D01*
X29987Y-42712D01*
X30687Y-43412D01*
X30687Y-43412D01*
X30785Y-43477D01*
X30899Y-43499D01*
X30900Y-43500D01*
X35400Y-43500D01*
X35400Y-43499D01*
X35514Y-43477D01*
X35514Y-43477D01*
X35612Y-43412D01*
X35812Y-43212D01*
X35812Y-43212D01*
X35877Y-43114D01*
X35899Y-43000D01*
X35900Y-43000D01*
X35900Y-41024D01*
X36677Y-40246D01*
X36788Y-40246D01*
X36952Y-40179D01*
X37078Y-40053D01*
X37146Y-39889D01*
X37146Y-39711D01*
X37079Y-39547D01*
X37031Y-39500D01*
X37945Y-39500D01*
X39177Y-40732D01*
X39128Y-40851D01*
X39127Y-41146D01*
X39240Y-41419D01*
X39241Y-41420D01*
X39039Y-41504D01*
X38874Y-41668D01*
X38785Y-41883D01*
X38785Y-42115D01*
X38874Y-42330D01*
X39038Y-42495D01*
X39253Y-42584D01*
X39485Y-42584D01*
X39700Y-42495D01*
X39865Y-42331D01*
X39954Y-42116D01*
X39954Y-41884D01*
X39895Y-41742D01*
X40017Y-41742D01*
X40289Y-41629D01*
X40486Y-41433D01*
X40336Y-41793D01*
X40336Y-42204D01*
X40493Y-42584D01*
X40783Y-42875D01*
X41163Y-43033D01*
X41574Y-43033D01*
X41954Y-42876D01*
X42245Y-42586D01*
X42403Y-42206D01*
X42403Y-41795D01*
X42246Y-41415D01*
X41956Y-41124D01*
X41576Y-40966D01*
X41165Y-40966D01*
X40785Y-41123D01*
X40506Y-41401D01*
X40611Y-41148D01*
X40612Y-40853D01*
X40541Y-40682D01*
X41924Y-39300D01*
X42121Y-39300D01*
X41950Y-39370D01*
X41741Y-39579D01*
X41628Y-39851D01*
X41627Y-40146D01*
X41740Y-40419D01*
X41949Y-40628D01*
X42221Y-40741D01*
X42517Y-40742D01*
X42789Y-40629D01*
X42998Y-40420D01*
X43111Y-40148D01*
X43112Y-39853D01*
X42999Y-39580D01*
X42790Y-39371D01*
X42619Y-39300D01*
X45245Y-39300D01*
X46677Y-40732D01*
X46628Y-40851D01*
X46627Y-41146D01*
X46740Y-41419D01*
X46741Y-41420D01*
X46539Y-41504D01*
X46374Y-41668D01*
X46285Y-41883D01*
X46285Y-42115D01*
X46374Y-42330D01*
X46538Y-42495D01*
X46753Y-42584D01*
X46985Y-42584D01*
X47200Y-42495D01*
X47365Y-42331D01*
X47454Y-42116D01*
X47454Y-41884D01*
X47395Y-41742D01*
X47517Y-41742D01*
X47789Y-41629D01*
X47986Y-41433D01*
X47836Y-41793D01*
X47836Y-42204D01*
X47993Y-42584D01*
X48283Y-42875D01*
X48663Y-43033D01*
X49074Y-43033D01*
X49454Y-42876D01*
X49745Y-42586D01*
X49903Y-42206D01*
X49903Y-41795D01*
X49746Y-41415D01*
X49456Y-41124D01*
X49076Y-40966D01*
X48665Y-40966D01*
X48285Y-41123D01*
X48006Y-41401D01*
X48111Y-41148D01*
X48112Y-40853D01*
X48070Y-40753D01*
X49238Y-39585D01*
X49128Y-39851D01*
X49127Y-40146D01*
X49240Y-40419D01*
X49449Y-40628D01*
X49721Y-40741D01*
X50017Y-40742D01*
X50289Y-40629D01*
X50498Y-40420D01*
X50611Y-40148D01*
X50612Y-39853D01*
X50499Y-39580D01*
X50290Y-39371D01*
X50119Y-39300D01*
X52745Y-39300D01*
X54177Y-40732D01*
X54128Y-40851D01*
X54127Y-41146D01*
X54240Y-41419D01*
X54241Y-41420D01*
X54039Y-41504D01*
X53874Y-41668D01*
X53785Y-41883D01*
X53785Y-42115D01*
X53874Y-42330D01*
X54038Y-42495D01*
X54253Y-42584D01*
X54485Y-42584D01*
X54700Y-42495D01*
X54865Y-42331D01*
X54954Y-42116D01*
X54954Y-41884D01*
X54895Y-41742D01*
X55017Y-41742D01*
X55289Y-41629D01*
X55486Y-41433D01*
X55336Y-41793D01*
X55336Y-42204D01*
X55493Y-42584D01*
X55783Y-42875D01*
X56163Y-43033D01*
X56574Y-43033D01*
X56954Y-42876D01*
X57245Y-42586D01*
X57403Y-42206D01*
X57403Y-41795D01*
X57246Y-41415D01*
X56956Y-41124D01*
X56576Y-40966D01*
X56165Y-40966D01*
X55785Y-41123D01*
X55506Y-41401D01*
X55611Y-41148D01*
X55612Y-40853D01*
X55541Y-40682D01*
X56924Y-39300D01*
X57121Y-39300D01*
X56950Y-39370D01*
X56741Y-39579D01*
X56628Y-39851D01*
X56627Y-40146D01*
X56740Y-40419D01*
X56949Y-40628D01*
X57221Y-40741D01*
X57517Y-40742D01*
X57789Y-40629D01*
X57998Y-40420D01*
X58111Y-40148D01*
X58112Y-39853D01*
X57999Y-39580D01*
X57790Y-39371D01*
X57619Y-39300D01*
X60245Y-39300D01*
X61677Y-40732D01*
X61628Y-40851D01*
X61627Y-41146D01*
X61740Y-41419D01*
X61741Y-41420D01*
X61539Y-41504D01*
X61374Y-41668D01*
X61285Y-41883D01*
X61285Y-42115D01*
X61374Y-42330D01*
X61538Y-42495D01*
X61753Y-42584D01*
X61985Y-42584D01*
X62200Y-42495D01*
X62365Y-42331D01*
X62454Y-42116D01*
X62454Y-41884D01*
X62395Y-41742D01*
X62517Y-41742D01*
X62789Y-41629D01*
X62986Y-41433D01*
X62836Y-41793D01*
X62836Y-42204D01*
X62993Y-42584D01*
X63283Y-42875D01*
X63663Y-43033D01*
X64074Y-43033D01*
X64454Y-42876D01*
X64745Y-42586D01*
X64903Y-42206D01*
X64903Y-41795D01*
X64746Y-41415D01*
X64456Y-41124D01*
X64076Y-40966D01*
X63665Y-40966D01*
X63285Y-41123D01*
X63006Y-41401D01*
X63111Y-41148D01*
X63112Y-40853D01*
X63070Y-40753D01*
X64238Y-39585D01*
X64128Y-39851D01*
X64127Y-40146D01*
X64240Y-40419D01*
X64449Y-40628D01*
X64721Y-40741D01*
X65017Y-40742D01*
X65289Y-40629D01*
X65498Y-40420D01*
X65611Y-40148D01*
X65612Y-39853D01*
X65499Y-39580D01*
X65419Y-39500D01*
X67945Y-39500D01*
X69177Y-40732D01*
X69128Y-40851D01*
X69127Y-41146D01*
X69240Y-41419D01*
X69241Y-41420D01*
X69039Y-41504D01*
X68874Y-41668D01*
X68785Y-41883D01*
X68785Y-42115D01*
X68874Y-42330D01*
X69038Y-42495D01*
X69253Y-42584D01*
X69485Y-42584D01*
X69700Y-42495D01*
X69865Y-42331D01*
X69954Y-42116D01*
X69954Y-41884D01*
X69895Y-41742D01*
X70017Y-41742D01*
X70289Y-41629D01*
X70486Y-41433D01*
X70336Y-41793D01*
X70336Y-42204D01*
X70493Y-42584D01*
X70783Y-42875D01*
X71163Y-43033D01*
X71574Y-43033D01*
X71954Y-42876D01*
X72245Y-42586D01*
X72403Y-42206D01*
X72403Y-41795D01*
X72246Y-41415D01*
X71956Y-41124D01*
X71576Y-40966D01*
X71165Y-40966D01*
X70785Y-41123D01*
X70506Y-41401D01*
X70611Y-41148D01*
X70612Y-40853D01*
X70600Y-40824D01*
X71667Y-39756D01*
X71628Y-39851D01*
X71627Y-40146D01*
X71740Y-40419D01*
X71949Y-40628D01*
X72221Y-40741D01*
X72517Y-40742D01*
X72789Y-40629D01*
X72998Y-40420D01*
X73111Y-40148D01*
X73112Y-39853D01*
X72999Y-39580D01*
X72790Y-39371D01*
X72619Y-39300D01*
X75245Y-39300D01*
X76645Y-40700D01*
X75600Y-40700D01*
X75599Y-40699D01*
X75408Y-40700D01*
X75351Y-40711D01*
X75294Y-40723D01*
X75294Y-40723D01*
X75293Y-40723D01*
X75245Y-40755D01*
X75197Y-40788D01*
X75196Y-40788D01*
X75196Y-40788D01*
X75164Y-40836D01*
X75132Y-40885D01*
X75131Y-40885D01*
X75131Y-40885D01*
X75120Y-40943D01*
X75109Y-41000D01*
X75109Y-42936D01*
X74116Y-43953D01*
X74011Y-43953D01*
X73954Y-43976D01*
X73954Y-41884D01*
X73865Y-41669D01*
X73701Y-41504D01*
X73486Y-41415D01*
X73254Y-41415D01*
X73039Y-41504D01*
X72874Y-41668D01*
X72785Y-41883D01*
X72785Y-42115D01*
X72874Y-42330D01*
X73038Y-42495D01*
X73253Y-42584D01*
X73485Y-42584D01*
X73700Y-42495D01*
X73865Y-42331D01*
X73954Y-42116D01*
X73954Y-41884D01*
X73954Y-43976D01*
X73847Y-44020D01*
X73721Y-44146D01*
X73653Y-44310D01*
X73653Y-44488D01*
X73720Y-44652D01*
X73846Y-44778D01*
X74010Y-44846D01*
X74188Y-44846D01*
X74352Y-44779D01*
X74478Y-44653D01*
X74546Y-44489D01*
X74546Y-44371D01*
X75578Y-43314D01*
X75582Y-43311D01*
X75621Y-43273D01*
X75621Y-43273D01*
X75686Y-43175D01*
X75709Y-43060D01*
X75709Y-43060D01*
X75709Y-41300D01*
X76691Y-41300D01*
X76740Y-41419D01*
X76741Y-41420D01*
X76539Y-41504D01*
X76374Y-41668D01*
X76285Y-41883D01*
X76285Y-42115D01*
X76374Y-42330D01*
X76538Y-42495D01*
X76753Y-42584D01*
X76985Y-42584D01*
X77200Y-42495D01*
X77365Y-42331D01*
X77454Y-42116D01*
X77454Y-41884D01*
X77395Y-41742D01*
X77517Y-41742D01*
X77789Y-41629D01*
X77986Y-41433D01*
X77836Y-41793D01*
X77836Y-42204D01*
X77993Y-42584D01*
X78283Y-42875D01*
X78663Y-43033D01*
X79074Y-43033D01*
X79454Y-42876D01*
X79745Y-42586D01*
X79903Y-42206D01*
X79903Y-41795D01*
X79746Y-41415D01*
X79456Y-41124D01*
X79076Y-40966D01*
X78665Y-40966D01*
X78285Y-41123D01*
X78006Y-41401D01*
X78111Y-41148D01*
X78112Y-40853D01*
X78070Y-40753D01*
X79238Y-39585D01*
X79128Y-39851D01*
X79127Y-40146D01*
X79240Y-40419D01*
X79449Y-40628D01*
X79721Y-40741D01*
X80017Y-40742D01*
X80289Y-40629D01*
X80498Y-40420D01*
X80611Y-40148D01*
X80612Y-39853D01*
X80499Y-39580D01*
X80290Y-39371D01*
X80119Y-39300D01*
X80475Y-39300D01*
X82387Y-41212D01*
X82387Y-41212D01*
X82485Y-41277D01*
X82599Y-41299D01*
X82600Y-41300D01*
X84191Y-41300D01*
X84240Y-41419D01*
X84241Y-41420D01*
X84039Y-41504D01*
X83874Y-41668D01*
X83785Y-41883D01*
X83785Y-42115D01*
X83874Y-42330D01*
X84038Y-42495D01*
X84253Y-42584D01*
X84485Y-42584D01*
X84700Y-42495D01*
X84865Y-42331D01*
X84954Y-42116D01*
X84954Y-41884D01*
X84895Y-41742D01*
X85017Y-41742D01*
X85289Y-41629D01*
X85486Y-41433D01*
X85336Y-41793D01*
X85336Y-42204D01*
X85493Y-42584D01*
X85783Y-42875D01*
X86163Y-43033D01*
X86574Y-43033D01*
X86954Y-42876D01*
X87245Y-42586D01*
X87403Y-42206D01*
X87403Y-41795D01*
X87246Y-41415D01*
X86956Y-41124D01*
X86576Y-40966D01*
X86165Y-40966D01*
X85785Y-41123D01*
X85506Y-41401D01*
X85611Y-41148D01*
X85612Y-40853D01*
X85562Y-40732D01*
X86924Y-39370D01*
X86951Y-39370D01*
X86950Y-39370D01*
X86741Y-39579D01*
X86628Y-39851D01*
X86627Y-40146D01*
X86740Y-40419D01*
X86949Y-40628D01*
X87221Y-40741D01*
X87517Y-40742D01*
X87789Y-40629D01*
X87998Y-40420D01*
X88111Y-40148D01*
X88112Y-39853D01*
X87999Y-39580D01*
X87790Y-39371D01*
X87787Y-39370D01*
X90405Y-39370D01*
X91704Y-40668D01*
X91628Y-40851D01*
X91627Y-41146D01*
X91740Y-41419D01*
X91741Y-41420D01*
X91539Y-41504D01*
X91374Y-41668D01*
X91285Y-41883D01*
X91285Y-42115D01*
X91374Y-42330D01*
X91538Y-42495D01*
X91753Y-42584D01*
X91985Y-42584D01*
X92200Y-42495D01*
X92365Y-42331D01*
X92454Y-42116D01*
X92454Y-41884D01*
X92395Y-41742D01*
X92517Y-41742D01*
X92789Y-41629D01*
X92986Y-41433D01*
X92836Y-41793D01*
X92836Y-42204D01*
X92993Y-42584D01*
X93283Y-42875D01*
X93663Y-43033D01*
X94074Y-43033D01*
X94454Y-42876D01*
X94745Y-42586D01*
X94903Y-42206D01*
X94903Y-41795D01*
X94746Y-41415D01*
X94456Y-41124D01*
X94076Y-40966D01*
X93665Y-40966D01*
X93285Y-41123D01*
X93006Y-41401D01*
X93111Y-41148D01*
X93112Y-40853D01*
X93070Y-40753D01*
X94238Y-39585D01*
X94128Y-39851D01*
X94127Y-40146D01*
X94240Y-40419D01*
X94449Y-40628D01*
X94721Y-40741D01*
X95017Y-40742D01*
X95289Y-40629D01*
X95498Y-40420D01*
X95611Y-40148D01*
X95612Y-39853D01*
X95499Y-39580D01*
X95290Y-39371D01*
X95119Y-39300D01*
X97745Y-39300D01*
X99177Y-40732D01*
X99128Y-40851D01*
X99127Y-41146D01*
X99240Y-41419D01*
X99241Y-41420D01*
X99039Y-41504D01*
X98874Y-41668D01*
X98785Y-41883D01*
X98785Y-42115D01*
X98874Y-42330D01*
X99038Y-42495D01*
X99253Y-42584D01*
X99485Y-42584D01*
X99700Y-42495D01*
X99865Y-42331D01*
X99954Y-42116D01*
X99954Y-41884D01*
X99895Y-41742D01*
X100017Y-41742D01*
X100289Y-41629D01*
X100486Y-41433D01*
X100336Y-41793D01*
X100336Y-42204D01*
X100493Y-42584D01*
X100783Y-42875D01*
X101163Y-43033D01*
X101574Y-43033D01*
X101954Y-42876D01*
X102245Y-42586D01*
X102403Y-42206D01*
X102403Y-41795D01*
X102246Y-41415D01*
X101956Y-41124D01*
X101576Y-40966D01*
X101165Y-40966D01*
X100785Y-41123D01*
X100506Y-41401D01*
X100611Y-41148D01*
X100612Y-40853D01*
X100541Y-40682D01*
X101924Y-39300D01*
X102121Y-39300D01*
X101950Y-39370D01*
X101741Y-39579D01*
X101628Y-39851D01*
X101627Y-40146D01*
X101740Y-40419D01*
X101949Y-40628D01*
X102221Y-40741D01*
X102517Y-40742D01*
X102789Y-40629D01*
X102998Y-40420D01*
X103111Y-40148D01*
X103112Y-39853D01*
X102999Y-39580D01*
X102790Y-39371D01*
X102619Y-39300D01*
X105245Y-39300D01*
X106677Y-40732D01*
X106628Y-40851D01*
X106627Y-41146D01*
X106740Y-41419D01*
X106741Y-41420D01*
X106539Y-41504D01*
X106374Y-41668D01*
X106285Y-41883D01*
X106285Y-42115D01*
X106374Y-42330D01*
X106538Y-42495D01*
X106753Y-42584D01*
X106985Y-42584D01*
X107200Y-42495D01*
X107365Y-42331D01*
X107454Y-42116D01*
X107454Y-41884D01*
X107395Y-41742D01*
X107517Y-41742D01*
X107789Y-41629D01*
X107986Y-41433D01*
X107836Y-41793D01*
X107836Y-42204D01*
X107993Y-42584D01*
X108283Y-42875D01*
X108663Y-43033D01*
X109074Y-43033D01*
X109454Y-42876D01*
X109745Y-42586D01*
X109903Y-42206D01*
X109903Y-41795D01*
X109746Y-41415D01*
X109456Y-41124D01*
X109076Y-40966D01*
X108665Y-40966D01*
X108285Y-41123D01*
X108006Y-41401D01*
X108111Y-41148D01*
X108112Y-40853D01*
X108070Y-40753D01*
X109238Y-39585D01*
X109128Y-39851D01*
X109127Y-40146D01*
X109240Y-40419D01*
X109449Y-40628D01*
X109721Y-40741D01*
X110017Y-40742D01*
X110289Y-40629D01*
X110498Y-40420D01*
X110611Y-40148D01*
X110612Y-39853D01*
X110499Y-39580D01*
X110290Y-39371D01*
X110119Y-39300D01*
X114620Y-39300D01*
X116052Y-40732D01*
X116003Y-40851D01*
X116002Y-41146D01*
X116115Y-41419D01*
X116116Y-41420D01*
X115914Y-41504D01*
X115749Y-41668D01*
X115660Y-41883D01*
X115660Y-42115D01*
X115749Y-42330D01*
X115913Y-42495D01*
X116128Y-42584D01*
X116360Y-42584D01*
X116575Y-42495D01*
X116740Y-42331D01*
X116829Y-42116D01*
X116829Y-41884D01*
X116770Y-41742D01*
X116892Y-41742D01*
X117164Y-41629D01*
X117361Y-41433D01*
X117211Y-41793D01*
X117211Y-42204D01*
X117368Y-42584D01*
X117658Y-42875D01*
X118038Y-43033D01*
X118449Y-43033D01*
X118829Y-42876D01*
X119120Y-42586D01*
X119278Y-42206D01*
X119278Y-41795D01*
X119121Y-41415D01*
X118831Y-41124D01*
X118451Y-40966D01*
X118040Y-40966D01*
X117660Y-41123D01*
X117381Y-41401D01*
X117486Y-41148D01*
X117487Y-40853D01*
X117374Y-40580D01*
X117165Y-40371D01*
X116893Y-40258D01*
X116846Y-40258D01*
X116846Y-38011D01*
X116779Y-37847D01*
X116653Y-37721D01*
X116489Y-37653D01*
X116311Y-37653D01*
X116147Y-37720D01*
X116068Y-37800D01*
X114024Y-37800D01*
X112712Y-36487D01*
X112712Y-36487D01*
X112712Y-36487D01*
X112612Y-36387D01*
X112514Y-36322D01*
X112400Y-36300D01*
X111231Y-36300D01*
X111153Y-36221D01*
X110989Y-36153D01*
X110811Y-36153D01*
X110647Y-36220D01*
X110521Y-36346D01*
X110453Y-36510D01*
X110453Y-36688D01*
X110520Y-36852D01*
X110646Y-36978D01*
X110810Y-37046D01*
X110988Y-37046D01*
X111152Y-36979D01*
X111231Y-36900D01*
X112275Y-36900D01*
X112287Y-36912D01*
X112287Y-36912D01*
X112287Y-36912D01*
X113687Y-38312D01*
X113687Y-38312D01*
X113785Y-38377D01*
X113900Y-38400D01*
X116068Y-38400D01*
X116146Y-38478D01*
X116310Y-38546D01*
X116488Y-38546D01*
X116652Y-38479D01*
X116778Y-38353D01*
X116846Y-38189D01*
X116846Y-38011D01*
X116846Y-40258D01*
X116598Y-40257D01*
X116477Y-40307D01*
X114957Y-38787D01*
X114859Y-38722D01*
X114745Y-38700D01*
X112446Y-38700D01*
X112446Y-37911D01*
X112379Y-37747D01*
X112253Y-37621D01*
X112089Y-37553D01*
X111911Y-37553D01*
X111747Y-37620D01*
X111621Y-37746D01*
X111557Y-37900D01*
X85331Y-37900D01*
X85253Y-37821D01*
X85089Y-37753D01*
X84911Y-37753D01*
X84855Y-37776D01*
X84931Y-37700D01*
X109400Y-37700D01*
X109468Y-37700D01*
X109546Y-37778D01*
X109710Y-37846D01*
X109888Y-37846D01*
X110052Y-37779D01*
X110178Y-37653D01*
X110246Y-37489D01*
X110246Y-37311D01*
X110179Y-37147D01*
X110053Y-37021D01*
X109889Y-36953D01*
X109711Y-36953D01*
X109584Y-37005D01*
X109584Y-34384D01*
X109495Y-34169D01*
X109331Y-34004D01*
X109116Y-33915D01*
X108884Y-33915D01*
X108669Y-34004D01*
X108504Y-34168D01*
X108415Y-34383D01*
X108415Y-34615D01*
X108504Y-34830D01*
X108668Y-34995D01*
X108883Y-35084D01*
X109115Y-35084D01*
X109330Y-34995D01*
X109495Y-34831D01*
X109584Y-34616D01*
X109584Y-34384D01*
X109584Y-37005D01*
X109547Y-37020D01*
X109468Y-37100D01*
X109400Y-37100D01*
X102084Y-37100D01*
X102084Y-34384D01*
X101995Y-34169D01*
X101831Y-34004D01*
X101616Y-33915D01*
X101384Y-33915D01*
X101169Y-34004D01*
X101004Y-34168D01*
X100915Y-34383D01*
X100915Y-34615D01*
X101004Y-34830D01*
X101168Y-34995D01*
X101383Y-35084D01*
X101615Y-35084D01*
X101830Y-34995D01*
X101995Y-34831D01*
X102084Y-34616D01*
X102084Y-34384D01*
X102084Y-37100D01*
X94584Y-37100D01*
X94584Y-34384D01*
X94495Y-34169D01*
X94331Y-34004D01*
X94116Y-33915D01*
X93884Y-33915D01*
X93669Y-34004D01*
X93504Y-34168D01*
X93415Y-34383D01*
X93415Y-34615D01*
X93504Y-34830D01*
X93668Y-34995D01*
X93883Y-35084D01*
X94115Y-35084D01*
X94330Y-34995D01*
X94495Y-34831D01*
X94584Y-34616D01*
X94584Y-34384D01*
X94584Y-37100D01*
X87084Y-37100D01*
X87084Y-34384D01*
X86995Y-34169D01*
X86831Y-34004D01*
X86616Y-33915D01*
X86384Y-33915D01*
X86169Y-34004D01*
X86004Y-34168D01*
X85915Y-34383D01*
X85915Y-34615D01*
X86004Y-34830D01*
X86168Y-34995D01*
X86383Y-35084D01*
X86615Y-35084D01*
X86830Y-34995D01*
X86995Y-34831D01*
X87084Y-34616D01*
X87084Y-34384D01*
X87084Y-37100D01*
X84931Y-37100D01*
X84853Y-37021D01*
X84689Y-36953D01*
X84511Y-36953D01*
X84347Y-37020D01*
X84221Y-37146D01*
X84153Y-37310D01*
X84153Y-37488D01*
X84220Y-37652D01*
X84346Y-37778D01*
X84510Y-37846D01*
X84688Y-37846D01*
X84744Y-37823D01*
X84621Y-37946D01*
X84553Y-38110D01*
X84553Y-38288D01*
X84620Y-38452D01*
X84746Y-38578D01*
X84910Y-38646D01*
X85088Y-38646D01*
X85252Y-38579D01*
X85331Y-38500D01*
X111800Y-38500D01*
X111800Y-38499D01*
X111914Y-38477D01*
X111914Y-38477D01*
X111960Y-38446D01*
X112088Y-38446D01*
X112252Y-38379D01*
X112378Y-38253D01*
X112446Y-38089D01*
X112446Y-37911D01*
X112446Y-38700D01*
X109400Y-38700D01*
X109285Y-38722D01*
X109187Y-38787D01*
X107659Y-40316D01*
X107518Y-40258D01*
X107223Y-40257D01*
X107102Y-40307D01*
X105582Y-38787D01*
X105484Y-38722D01*
X105370Y-38700D01*
X101800Y-38700D01*
X101685Y-38722D01*
X101587Y-38787D01*
X100088Y-40287D01*
X100018Y-40258D01*
X99723Y-40257D01*
X99602Y-40307D01*
X98082Y-38787D01*
X97984Y-38722D01*
X97870Y-38700D01*
X94400Y-38700D01*
X94285Y-38722D01*
X94187Y-38787D01*
X92659Y-40316D01*
X92518Y-40258D01*
X92223Y-40257D01*
X92165Y-40281D01*
X90742Y-38857D01*
X90644Y-38792D01*
X90529Y-38770D01*
X86800Y-38770D01*
X86685Y-38792D01*
X86587Y-38857D01*
X85137Y-40307D01*
X85018Y-40258D01*
X84723Y-40257D01*
X84450Y-40370D01*
X84241Y-40579D01*
X84191Y-40700D01*
X82724Y-40700D01*
X81042Y-39018D01*
X81110Y-39046D01*
X81288Y-39046D01*
X81452Y-38979D01*
X81578Y-38853D01*
X81646Y-38689D01*
X81646Y-38511D01*
X81579Y-38347D01*
X81531Y-38300D01*
X82268Y-38300D01*
X82346Y-38378D01*
X82510Y-38446D01*
X82688Y-38446D01*
X82852Y-38379D01*
X82978Y-38253D01*
X83046Y-38089D01*
X83046Y-37911D01*
X82979Y-37747D01*
X82853Y-37621D01*
X82689Y-37553D01*
X82511Y-37553D01*
X82347Y-37620D01*
X82268Y-37700D01*
X79584Y-37700D01*
X79584Y-34384D01*
X79495Y-34169D01*
X79331Y-34004D01*
X79116Y-33915D01*
X78884Y-33915D01*
X78669Y-34004D01*
X78504Y-34168D01*
X78415Y-34383D01*
X78415Y-34615D01*
X78504Y-34830D01*
X78668Y-34995D01*
X78883Y-35084D01*
X79115Y-35084D01*
X79330Y-34995D01*
X79495Y-34831D01*
X79584Y-34616D01*
X79584Y-34384D01*
X79584Y-37700D01*
X72084Y-37700D01*
X72084Y-34384D01*
X71995Y-34169D01*
X71831Y-34004D01*
X71616Y-33915D01*
X71384Y-33915D01*
X71169Y-34004D01*
X71004Y-34168D01*
X70915Y-34383D01*
X70915Y-34615D01*
X71004Y-34830D01*
X71168Y-34995D01*
X71383Y-35084D01*
X71615Y-35084D01*
X71830Y-34995D01*
X71995Y-34831D01*
X72084Y-34616D01*
X72084Y-34384D01*
X72084Y-37700D01*
X36102Y-37700D01*
X36152Y-37679D01*
X36231Y-37600D01*
X40600Y-37600D01*
X65698Y-37600D01*
X65810Y-37646D01*
X65988Y-37646D01*
X66152Y-37579D01*
X66278Y-37453D01*
X66346Y-37289D01*
X66346Y-37111D01*
X66279Y-36947D01*
X66153Y-36821D01*
X65989Y-36753D01*
X65811Y-36753D01*
X65647Y-36820D01*
X65521Y-36946D01*
X65499Y-37000D01*
X64584Y-37000D01*
X64584Y-34384D01*
X64495Y-34169D01*
X64331Y-34004D01*
X64116Y-33915D01*
X63884Y-33915D01*
X63669Y-34004D01*
X63504Y-34168D01*
X63415Y-34383D01*
X63415Y-34615D01*
X63504Y-34830D01*
X63668Y-34995D01*
X63883Y-35084D01*
X64115Y-35084D01*
X64330Y-34995D01*
X64495Y-34831D01*
X64584Y-34616D01*
X64584Y-34384D01*
X64584Y-37000D01*
X57084Y-37000D01*
X57084Y-34384D01*
X56995Y-34169D01*
X56831Y-34004D01*
X56616Y-33915D01*
X56384Y-33915D01*
X56169Y-34004D01*
X56004Y-34168D01*
X55915Y-34383D01*
X55915Y-34615D01*
X56004Y-34830D01*
X56168Y-34995D01*
X56383Y-35084D01*
X56615Y-35084D01*
X56830Y-34995D01*
X56995Y-34831D01*
X57084Y-34616D01*
X57084Y-34384D01*
X57084Y-37000D01*
X49584Y-37000D01*
X49584Y-34384D01*
X49495Y-34169D01*
X49331Y-34004D01*
X49116Y-33915D01*
X48884Y-33915D01*
X48669Y-34004D01*
X48504Y-34168D01*
X48415Y-34383D01*
X48415Y-34615D01*
X48504Y-34830D01*
X48668Y-34995D01*
X48883Y-35084D01*
X49115Y-35084D01*
X49330Y-34995D01*
X49495Y-34831D01*
X49584Y-34616D01*
X49584Y-34384D01*
X49584Y-37000D01*
X42084Y-37000D01*
X42084Y-34384D01*
X41995Y-34169D01*
X41831Y-34004D01*
X41616Y-33915D01*
X41384Y-33915D01*
X41169Y-34004D01*
X41004Y-34168D01*
X40915Y-34383D01*
X40915Y-34615D01*
X41004Y-34830D01*
X41168Y-34995D01*
X41383Y-35084D01*
X41615Y-35084D01*
X41830Y-34995D01*
X41995Y-34831D01*
X42084Y-34616D01*
X42084Y-34384D01*
X42084Y-37000D01*
X40600Y-37000D01*
X36231Y-37000D01*
X36153Y-36921D01*
X35989Y-36853D01*
X35811Y-36853D01*
X35647Y-36920D01*
X35521Y-37046D01*
X35453Y-37210D01*
X35453Y-37388D01*
X35520Y-37552D01*
X35646Y-37678D01*
X35698Y-37700D01*
X34584Y-37700D01*
X34584Y-34384D01*
X34495Y-34169D01*
X34331Y-34004D01*
X34116Y-33915D01*
X33884Y-33915D01*
X33669Y-34004D01*
X33504Y-34168D01*
X33415Y-34383D01*
X33415Y-34615D01*
X33504Y-34830D01*
X33668Y-34995D01*
X33883Y-35084D01*
X34115Y-35084D01*
X34330Y-34995D01*
X34495Y-34831D01*
X34584Y-34616D01*
X34584Y-34384D01*
X34584Y-37700D01*
X33531Y-37700D01*
X33453Y-37621D01*
X33289Y-37553D01*
X33111Y-37553D01*
X32947Y-37620D01*
X32929Y-37638D01*
X32929Y-37137D01*
X32919Y-36909D01*
X32851Y-36747D01*
X32754Y-36716D01*
X32683Y-36787D01*
X32683Y-36645D01*
X32652Y-36548D01*
X32437Y-36470D01*
X32209Y-36480D01*
X32047Y-36548D01*
X32016Y-36645D01*
X32350Y-36979D01*
X32683Y-36645D01*
X32683Y-36787D01*
X32420Y-37050D01*
X32754Y-37383D01*
X32851Y-37352D01*
X32929Y-37137D01*
X32929Y-37638D01*
X32853Y-37714D01*
X32837Y-37674D01*
X32676Y-37512D01*
X32666Y-37508D01*
X32683Y-37454D01*
X32350Y-37120D01*
X32279Y-37191D01*
X32279Y-37050D01*
X31945Y-36716D01*
X31848Y-36747D01*
X31770Y-36962D01*
X31777Y-37109D01*
X31756Y-37069D01*
X31612Y-36950D01*
X31435Y-36895D01*
X31335Y-36895D01*
X31335Y-37320D01*
X31794Y-37320D01*
X31819Y-37283D01*
X31848Y-37352D01*
X31945Y-37383D01*
X32279Y-37050D01*
X32279Y-37191D01*
X32016Y-37454D01*
X32033Y-37508D01*
X32024Y-37512D01*
X31862Y-37673D01*
X31815Y-37788D01*
X31743Y-37681D01*
X31756Y-37670D01*
X31842Y-37505D01*
X31843Y-37493D01*
X31794Y-37420D01*
X31335Y-37420D01*
X31335Y-37427D01*
X31235Y-37427D01*
X31235Y-37420D01*
X31227Y-37420D01*
X31227Y-37320D01*
X31235Y-37320D01*
X31235Y-36895D01*
X31135Y-36895D01*
X30957Y-36950D01*
X30813Y-37069D01*
X30736Y-37215D01*
X30708Y-37210D01*
X30485Y-37210D01*
X30303Y-37246D01*
X30149Y-37349D01*
X30046Y-37503D01*
X30010Y-37685D01*
X30046Y-37866D01*
X30135Y-38000D01*
X30046Y-38133D01*
X30010Y-38315D01*
X30046Y-38496D01*
X30149Y-38650D01*
X30303Y-38753D01*
X30485Y-38790D01*
X30708Y-38790D01*
X30729Y-38785D01*
X30734Y-38811D01*
X30837Y-38965D01*
X30991Y-39068D01*
X31173Y-39105D01*
X31396Y-39105D01*
X31578Y-39068D01*
X31732Y-38965D01*
X31775Y-38901D01*
X31774Y-39000D01*
X30625Y-40150D01*
X30625Y-40136D01*
X30537Y-39924D01*
X30376Y-39762D01*
X30164Y-39675D01*
X29950Y-39674D01*
X29960Y-39659D01*
X30004Y-39436D01*
X29960Y-39212D01*
X29833Y-39022D01*
X29643Y-38895D01*
X29419Y-38851D01*
X28958Y-38851D01*
X28769Y-38888D01*
X28769Y-37111D01*
X28958Y-37149D01*
X29419Y-37149D01*
X29643Y-37104D01*
X29833Y-36977D01*
X29960Y-36787D01*
X30004Y-36564D01*
X29960Y-36340D01*
X29949Y-36324D01*
X30163Y-36325D01*
X30375Y-36237D01*
X30537Y-36076D01*
X30624Y-35864D01*
X30625Y-35636D01*
X30537Y-35424D01*
X30376Y-35262D01*
X30164Y-35175D01*
X29936Y-35174D01*
X29724Y-35262D01*
X29562Y-35423D01*
X29475Y-35635D01*
X29474Y-35863D01*
X29531Y-36001D01*
X29419Y-35979D01*
X28958Y-35979D01*
X28769Y-36016D01*
X28769Y-31526D01*
X28791Y-31413D01*
X28840Y-31341D01*
X28914Y-31291D01*
X29027Y-31269D01*
X110016Y-31269D01*
X109979Y-31458D01*
X109979Y-31919D01*
X110001Y-32031D01*
X109864Y-31975D01*
X109636Y-31974D01*
X109424Y-32062D01*
X109300Y-32186D01*
X109300Y-31800D01*
X109277Y-31685D01*
X109212Y-31587D01*
X109212Y-31587D01*
X109012Y-31387D01*
X108914Y-31322D01*
X108800Y-31300D01*
X107400Y-31300D01*
X107285Y-31322D01*
X107187Y-31387D01*
X105767Y-32807D01*
X105648Y-32758D01*
X105353Y-32757D01*
X105232Y-32807D01*
X103812Y-31387D01*
X103714Y-31322D01*
X103600Y-31300D01*
X99800Y-31300D01*
X99685Y-31322D01*
X99587Y-31387D01*
X98197Y-32778D01*
X98148Y-32758D01*
X97853Y-32757D01*
X97802Y-32778D01*
X96412Y-31387D01*
X96314Y-31322D01*
X96200Y-31300D01*
X92400Y-31300D01*
X92285Y-31322D01*
X92187Y-31387D01*
X90767Y-32807D01*
X90648Y-32758D01*
X90353Y-32757D01*
X90232Y-32807D01*
X88812Y-31387D01*
X88714Y-31322D01*
X88600Y-31300D01*
X84800Y-31300D01*
X84685Y-31322D01*
X84587Y-31387D01*
X83197Y-32778D01*
X83148Y-32758D01*
X82853Y-32757D01*
X82802Y-32778D01*
X81412Y-31387D01*
X81314Y-31322D01*
X81200Y-31300D01*
X77400Y-31300D01*
X77285Y-31322D01*
X77187Y-31387D01*
X75767Y-32807D01*
X75648Y-32758D01*
X75353Y-32757D01*
X75232Y-32807D01*
X73812Y-31387D01*
X73714Y-31322D01*
X73600Y-31300D01*
X70000Y-31300D01*
X69885Y-31322D01*
X69787Y-31387D01*
X68338Y-32837D01*
X68148Y-32758D01*
X67853Y-32757D01*
X67732Y-32807D01*
X66312Y-31387D01*
X66214Y-31322D01*
X66100Y-31300D01*
X62600Y-31300D01*
X62485Y-31322D01*
X62387Y-31387D01*
X60909Y-32866D01*
X60648Y-32758D01*
X60382Y-32757D01*
X59012Y-31387D01*
X58914Y-31322D01*
X58800Y-31300D01*
X54800Y-31300D01*
X54685Y-31322D01*
X54587Y-31387D01*
X53197Y-32778D01*
X53148Y-32758D01*
X52853Y-32757D01*
X52802Y-32778D01*
X51412Y-31387D01*
X51314Y-31322D01*
X51200Y-31300D01*
X47200Y-31300D01*
X47085Y-31322D01*
X46987Y-31387D01*
X45617Y-32758D01*
X45382Y-32757D01*
X44012Y-31387D01*
X43914Y-31322D01*
X43800Y-31300D01*
X39800Y-31300D01*
X39685Y-31322D01*
X39587Y-31387D01*
X38197Y-32778D01*
X38148Y-32758D01*
X37853Y-32757D01*
X37802Y-32778D01*
X36412Y-31387D01*
X36314Y-31322D01*
X36200Y-31300D01*
X32400Y-31300D01*
X32285Y-31322D01*
X32187Y-31387D01*
X30767Y-32807D01*
X30648Y-32758D01*
X30353Y-32757D01*
X30080Y-32870D01*
X29871Y-33079D01*
X29758Y-33351D01*
X29757Y-33646D01*
X29870Y-33919D01*
X29871Y-33920D01*
X29669Y-34004D01*
X29504Y-34168D01*
X29415Y-34383D01*
X29415Y-34615D01*
X29504Y-34830D01*
X29668Y-34995D01*
X29883Y-35084D01*
X30115Y-35084D01*
X30330Y-34995D01*
X30495Y-34831D01*
X30584Y-34616D01*
X30584Y-34384D01*
X30525Y-34242D01*
X30646Y-34242D01*
X30919Y-34129D01*
X31116Y-33933D01*
X30966Y-34293D01*
X30966Y-34704D01*
X31123Y-35084D01*
X31413Y-35375D01*
X31793Y-35533D01*
X32204Y-35533D01*
X32584Y-35376D01*
X32875Y-35086D01*
X33033Y-34706D01*
X33033Y-34295D01*
X32876Y-33915D01*
X32586Y-33624D01*
X32206Y-33466D01*
X31795Y-33466D01*
X31415Y-33623D01*
X31136Y-33901D01*
X31241Y-33648D01*
X31242Y-33353D01*
X31192Y-33232D01*
X32524Y-31900D01*
X32550Y-31900D01*
X32371Y-32079D01*
X32258Y-32351D01*
X32257Y-32646D01*
X32370Y-32919D01*
X32579Y-33128D01*
X32851Y-33241D01*
X33146Y-33242D01*
X33419Y-33129D01*
X33628Y-32920D01*
X33741Y-32648D01*
X33742Y-32353D01*
X33629Y-32080D01*
X33449Y-31900D01*
X36075Y-31900D01*
X37337Y-33161D01*
X37258Y-33351D01*
X37257Y-33646D01*
X37370Y-33919D01*
X37371Y-33920D01*
X37169Y-34004D01*
X37004Y-34168D01*
X36915Y-34383D01*
X36915Y-34615D01*
X37004Y-34830D01*
X37168Y-34995D01*
X37383Y-35084D01*
X37615Y-35084D01*
X37830Y-34995D01*
X37995Y-34831D01*
X38084Y-34616D01*
X38084Y-34384D01*
X38025Y-34242D01*
X38146Y-34242D01*
X38419Y-34129D01*
X38616Y-33933D01*
X38466Y-34293D01*
X38466Y-34704D01*
X38623Y-35084D01*
X38913Y-35375D01*
X39293Y-35533D01*
X39704Y-35533D01*
X40084Y-35376D01*
X40375Y-35086D01*
X40533Y-34706D01*
X40533Y-34295D01*
X40376Y-33915D01*
X40086Y-33624D01*
X39706Y-33466D01*
X39295Y-33466D01*
X38915Y-33623D01*
X38636Y-33901D01*
X38741Y-33648D01*
X38742Y-33353D01*
X38662Y-33161D01*
X39924Y-31900D01*
X40050Y-31900D01*
X39871Y-32079D01*
X39758Y-32351D01*
X39757Y-32646D01*
X39870Y-32919D01*
X40079Y-33128D01*
X40351Y-33241D01*
X40646Y-33242D01*
X40919Y-33129D01*
X41128Y-32920D01*
X41241Y-32648D01*
X41242Y-32353D01*
X41129Y-32080D01*
X40949Y-31900D01*
X43675Y-31900D01*
X44866Y-33090D01*
X44758Y-33351D01*
X44757Y-33646D01*
X44870Y-33919D01*
X44871Y-33920D01*
X44669Y-34004D01*
X44504Y-34168D01*
X44415Y-34383D01*
X44415Y-34615D01*
X44504Y-34830D01*
X44668Y-34995D01*
X44883Y-35084D01*
X45115Y-35084D01*
X45330Y-34995D01*
X45495Y-34831D01*
X45584Y-34616D01*
X45584Y-34384D01*
X45525Y-34242D01*
X45646Y-34242D01*
X45919Y-34129D01*
X46116Y-33933D01*
X45966Y-34293D01*
X45966Y-34704D01*
X46123Y-35084D01*
X46413Y-35375D01*
X46793Y-35533D01*
X47204Y-35533D01*
X47584Y-35376D01*
X47875Y-35086D01*
X48033Y-34706D01*
X48033Y-34295D01*
X47876Y-33915D01*
X47586Y-33624D01*
X47206Y-33466D01*
X46795Y-33466D01*
X46415Y-33623D01*
X46136Y-33901D01*
X46241Y-33648D01*
X46242Y-33353D01*
X46133Y-33090D01*
X47324Y-31900D01*
X47550Y-31900D01*
X47371Y-32079D01*
X47258Y-32351D01*
X47257Y-32646D01*
X47370Y-32919D01*
X47579Y-33128D01*
X47851Y-33241D01*
X48146Y-33242D01*
X48419Y-33129D01*
X48628Y-32920D01*
X48741Y-32648D01*
X48742Y-32353D01*
X48629Y-32080D01*
X48449Y-31900D01*
X51075Y-31900D01*
X52337Y-33161D01*
X52258Y-33351D01*
X52257Y-33646D01*
X52370Y-33919D01*
X52371Y-33920D01*
X52169Y-34004D01*
X52004Y-34168D01*
X51915Y-34383D01*
X51915Y-34615D01*
X52004Y-34830D01*
X52168Y-34995D01*
X52383Y-35084D01*
X52615Y-35084D01*
X52830Y-34995D01*
X52995Y-34831D01*
X53084Y-34616D01*
X53084Y-34384D01*
X53025Y-34242D01*
X53146Y-34242D01*
X53419Y-34129D01*
X53616Y-33933D01*
X53466Y-34293D01*
X53466Y-34704D01*
X53623Y-35084D01*
X53913Y-35375D01*
X54293Y-35533D01*
X54704Y-35533D01*
X55084Y-35376D01*
X55375Y-35086D01*
X55533Y-34706D01*
X55533Y-34295D01*
X55376Y-33915D01*
X55086Y-33624D01*
X54706Y-33466D01*
X54295Y-33466D01*
X53915Y-33623D01*
X53636Y-33901D01*
X53741Y-33648D01*
X53742Y-33353D01*
X53662Y-33161D01*
X54924Y-31900D01*
X55050Y-31900D01*
X54871Y-32079D01*
X54758Y-32351D01*
X54757Y-32646D01*
X54870Y-32919D01*
X55079Y-33128D01*
X55351Y-33241D01*
X55646Y-33242D01*
X55919Y-33129D01*
X56128Y-32920D01*
X56241Y-32648D01*
X56242Y-32353D01*
X56129Y-32080D01*
X55949Y-31900D01*
X58675Y-31900D01*
X59866Y-33090D01*
X59758Y-33351D01*
X59757Y-33646D01*
X59870Y-33919D01*
X59871Y-33920D01*
X59669Y-34004D01*
X59504Y-34168D01*
X59415Y-34383D01*
X59415Y-34615D01*
X59504Y-34830D01*
X59668Y-34995D01*
X59883Y-35084D01*
X60115Y-35084D01*
X60330Y-34995D01*
X60495Y-34831D01*
X60584Y-34616D01*
X60584Y-34384D01*
X60525Y-34242D01*
X60646Y-34242D01*
X60919Y-34129D01*
X61116Y-33933D01*
X60966Y-34293D01*
X60966Y-34704D01*
X61123Y-35084D01*
X61413Y-35375D01*
X61793Y-35533D01*
X62204Y-35533D01*
X62584Y-35376D01*
X62875Y-35086D01*
X63033Y-34706D01*
X63033Y-34295D01*
X62876Y-33915D01*
X62586Y-33624D01*
X62206Y-33466D01*
X61795Y-33466D01*
X61415Y-33623D01*
X61136Y-33901D01*
X61241Y-33648D01*
X61242Y-33382D01*
X62258Y-32366D01*
X62257Y-32646D01*
X62370Y-32919D01*
X62579Y-33128D01*
X62851Y-33241D01*
X63146Y-33242D01*
X63419Y-33129D01*
X63628Y-32920D01*
X63741Y-32648D01*
X63742Y-32353D01*
X63629Y-32080D01*
X63449Y-31900D01*
X65975Y-31900D01*
X67307Y-33232D01*
X67258Y-33351D01*
X67257Y-33646D01*
X67370Y-33919D01*
X67371Y-33920D01*
X67169Y-34004D01*
X67004Y-34168D01*
X66915Y-34383D01*
X66915Y-34615D01*
X67004Y-34830D01*
X67168Y-34995D01*
X67383Y-35084D01*
X67615Y-35084D01*
X67830Y-34995D01*
X67995Y-34831D01*
X68084Y-34616D01*
X68084Y-34384D01*
X68025Y-34242D01*
X68146Y-34242D01*
X68419Y-34129D01*
X68616Y-33933D01*
X68466Y-34293D01*
X68466Y-34704D01*
X68623Y-35084D01*
X68913Y-35375D01*
X69293Y-35533D01*
X69704Y-35533D01*
X70084Y-35376D01*
X70375Y-35086D01*
X70533Y-34706D01*
X70533Y-34295D01*
X70376Y-33915D01*
X70086Y-33624D01*
X69706Y-33466D01*
X69295Y-33466D01*
X68915Y-33623D01*
X68636Y-33901D01*
X68741Y-33648D01*
X68742Y-33353D01*
X68721Y-33302D01*
X69818Y-32205D01*
X69758Y-32351D01*
X69757Y-32646D01*
X69870Y-32919D01*
X70079Y-33128D01*
X70351Y-33241D01*
X70646Y-33242D01*
X70919Y-33129D01*
X71128Y-32920D01*
X71241Y-32648D01*
X71242Y-32353D01*
X71129Y-32080D01*
X70949Y-31900D01*
X73475Y-31900D01*
X74775Y-33200D01*
X73900Y-33200D01*
X73785Y-33222D01*
X73687Y-33287D01*
X73622Y-33353D01*
X73511Y-33353D01*
X73347Y-33420D01*
X73221Y-33546D01*
X73153Y-33710D01*
X73153Y-33888D01*
X73220Y-34052D01*
X73346Y-34178D01*
X73510Y-34246D01*
X73688Y-34246D01*
X73852Y-34179D01*
X73978Y-34053D01*
X74046Y-33889D01*
X74046Y-33800D01*
X74821Y-33800D01*
X74870Y-33919D01*
X74871Y-33920D01*
X74669Y-34004D01*
X74504Y-34168D01*
X74415Y-34383D01*
X74415Y-34615D01*
X74504Y-34830D01*
X74668Y-34995D01*
X74883Y-35084D01*
X75115Y-35084D01*
X75330Y-34995D01*
X75495Y-34831D01*
X75584Y-34616D01*
X75584Y-34384D01*
X75525Y-34242D01*
X75646Y-34242D01*
X75919Y-34129D01*
X76116Y-33933D01*
X75966Y-34293D01*
X75966Y-34704D01*
X76123Y-35084D01*
X76413Y-35375D01*
X76793Y-35533D01*
X77204Y-35533D01*
X77584Y-35376D01*
X77875Y-35086D01*
X78033Y-34706D01*
X78033Y-34295D01*
X77876Y-33915D01*
X77586Y-33624D01*
X77206Y-33466D01*
X76795Y-33466D01*
X76415Y-33623D01*
X76136Y-33901D01*
X76241Y-33648D01*
X76242Y-33353D01*
X76192Y-33232D01*
X77524Y-31900D01*
X77550Y-31900D01*
X77371Y-32079D01*
X77258Y-32351D01*
X77257Y-32646D01*
X77370Y-32919D01*
X77579Y-33128D01*
X77851Y-33241D01*
X78146Y-33242D01*
X78419Y-33129D01*
X78628Y-32920D01*
X78741Y-32648D01*
X78742Y-32353D01*
X78629Y-32080D01*
X78449Y-31900D01*
X81075Y-31900D01*
X82337Y-33161D01*
X82258Y-33351D01*
X82257Y-33646D01*
X82370Y-33919D01*
X82371Y-33920D01*
X82169Y-34004D01*
X82004Y-34168D01*
X81915Y-34383D01*
X81915Y-34615D01*
X82004Y-34830D01*
X82168Y-34995D01*
X82383Y-35084D01*
X82615Y-35084D01*
X82830Y-34995D01*
X82995Y-34831D01*
X83084Y-34616D01*
X83084Y-34384D01*
X83025Y-34242D01*
X83146Y-34242D01*
X83419Y-34129D01*
X83616Y-33933D01*
X83466Y-34293D01*
X83466Y-34704D01*
X83623Y-35084D01*
X83913Y-35375D01*
X84293Y-35533D01*
X84704Y-35533D01*
X85084Y-35376D01*
X85375Y-35086D01*
X85533Y-34706D01*
X85533Y-34295D01*
X85376Y-33915D01*
X85086Y-33624D01*
X84706Y-33466D01*
X84295Y-33466D01*
X83915Y-33623D01*
X83636Y-33901D01*
X83741Y-33648D01*
X83742Y-33353D01*
X83662Y-33161D01*
X84924Y-31900D01*
X85050Y-31900D01*
X84871Y-32079D01*
X84758Y-32351D01*
X84757Y-32646D01*
X84870Y-32919D01*
X85079Y-33128D01*
X85351Y-33241D01*
X85646Y-33242D01*
X85919Y-33129D01*
X86128Y-32920D01*
X86241Y-32648D01*
X86242Y-32353D01*
X86129Y-32080D01*
X85949Y-31900D01*
X88475Y-31900D01*
X89807Y-33232D01*
X89758Y-33351D01*
X89757Y-33646D01*
X89870Y-33919D01*
X89871Y-33920D01*
X89669Y-34004D01*
X89504Y-34168D01*
X89415Y-34383D01*
X89415Y-34615D01*
X89504Y-34830D01*
X89668Y-34995D01*
X89883Y-35084D01*
X90115Y-35084D01*
X90330Y-34995D01*
X90495Y-34831D01*
X90584Y-34616D01*
X90584Y-34384D01*
X90525Y-34242D01*
X90646Y-34242D01*
X90919Y-34129D01*
X91116Y-33933D01*
X90966Y-34293D01*
X90966Y-34704D01*
X91123Y-35084D01*
X91413Y-35375D01*
X91793Y-35533D01*
X92204Y-35533D01*
X92584Y-35376D01*
X92875Y-35086D01*
X93033Y-34706D01*
X93033Y-34295D01*
X92876Y-33915D01*
X92586Y-33624D01*
X92206Y-33466D01*
X91795Y-33466D01*
X91415Y-33623D01*
X91136Y-33901D01*
X91241Y-33648D01*
X91242Y-33353D01*
X91192Y-33232D01*
X92524Y-31900D01*
X92550Y-31900D01*
X92371Y-32079D01*
X92258Y-32351D01*
X92257Y-32646D01*
X92370Y-32919D01*
X92579Y-33128D01*
X92851Y-33241D01*
X93146Y-33242D01*
X93419Y-33129D01*
X93628Y-32920D01*
X93741Y-32648D01*
X93742Y-32353D01*
X93629Y-32080D01*
X93449Y-31900D01*
X96075Y-31900D01*
X97337Y-33161D01*
X97258Y-33351D01*
X97257Y-33646D01*
X97370Y-33919D01*
X97371Y-33920D01*
X97169Y-34004D01*
X97004Y-34168D01*
X96915Y-34383D01*
X96915Y-34615D01*
X97004Y-34830D01*
X97168Y-34995D01*
X97383Y-35084D01*
X97615Y-35084D01*
X97830Y-34995D01*
X97995Y-34831D01*
X98084Y-34616D01*
X98084Y-34384D01*
X98025Y-34242D01*
X98146Y-34242D01*
X98419Y-34129D01*
X98616Y-33933D01*
X98466Y-34293D01*
X98466Y-34704D01*
X98623Y-35084D01*
X98913Y-35375D01*
X99293Y-35533D01*
X99704Y-35533D01*
X100084Y-35376D01*
X100375Y-35086D01*
X100533Y-34706D01*
X100533Y-34295D01*
X100376Y-33915D01*
X100086Y-33624D01*
X99706Y-33466D01*
X99295Y-33466D01*
X98915Y-33623D01*
X98636Y-33901D01*
X98741Y-33648D01*
X98742Y-33353D01*
X98662Y-33161D01*
X99924Y-31900D01*
X100050Y-31900D01*
X99871Y-32079D01*
X99758Y-32351D01*
X99757Y-32646D01*
X99870Y-32919D01*
X100079Y-33128D01*
X100351Y-33241D01*
X100646Y-33242D01*
X100919Y-33129D01*
X101128Y-32920D01*
X101241Y-32648D01*
X101242Y-32353D01*
X101129Y-32080D01*
X100949Y-31900D01*
X103475Y-31900D01*
X104807Y-33232D01*
X104758Y-33351D01*
X104757Y-33646D01*
X104870Y-33919D01*
X104871Y-33920D01*
X104669Y-34004D01*
X104504Y-34168D01*
X104415Y-34383D01*
X104415Y-34615D01*
X104504Y-34830D01*
X104668Y-34995D01*
X104883Y-35084D01*
X105115Y-35084D01*
X105330Y-34995D01*
X105495Y-34831D01*
X105584Y-34616D01*
X105584Y-34384D01*
X105525Y-34242D01*
X105646Y-34242D01*
X105919Y-34129D01*
X106116Y-33933D01*
X105966Y-34293D01*
X105966Y-34704D01*
X106123Y-35084D01*
X106413Y-35375D01*
X106793Y-35533D01*
X107204Y-35533D01*
X107584Y-35376D01*
X107875Y-35086D01*
X108033Y-34706D01*
X108033Y-34295D01*
X107876Y-33915D01*
X107586Y-33624D01*
X107206Y-33466D01*
X106795Y-33466D01*
X106415Y-33623D01*
X106136Y-33901D01*
X106241Y-33648D01*
X106242Y-33353D01*
X106192Y-33232D01*
X107524Y-31900D01*
X107550Y-31900D01*
X107371Y-32079D01*
X107258Y-32351D01*
X107257Y-32646D01*
X107370Y-32919D01*
X107579Y-33128D01*
X107851Y-33241D01*
X108146Y-33242D01*
X108419Y-33129D01*
X108628Y-32920D01*
X108700Y-32749D01*
X108700Y-33200D01*
X108722Y-33314D01*
X108787Y-33412D01*
X109700Y-34324D01*
X109700Y-35600D01*
X109722Y-35714D01*
X109787Y-35812D01*
X109987Y-36012D01*
X109987Y-36012D01*
X110085Y-36077D01*
X110200Y-36100D01*
X113600Y-36100D01*
X113600Y-36099D01*
X113714Y-36077D01*
X113714Y-36077D01*
X113812Y-36012D01*
X114412Y-35412D01*
X114412Y-35412D01*
X114477Y-35314D01*
X114499Y-35200D01*
X114500Y-35200D01*
X114500Y-34124D01*
X114824Y-33800D01*
X115133Y-33800D01*
X115183Y-33919D01*
X115183Y-33920D01*
X114981Y-34004D01*
X114817Y-34168D01*
X114728Y-34383D01*
X114727Y-34615D01*
X114816Y-34830D01*
X114980Y-34995D01*
X115195Y-35084D01*
X115428Y-35084D01*
X115643Y-34995D01*
X115807Y-34831D01*
X115896Y-34616D01*
X115897Y-34384D01*
X115838Y-34242D01*
X115959Y-34242D01*
X116232Y-34129D01*
X116428Y-33933D01*
X116279Y-34293D01*
X116278Y-34704D01*
X116435Y-35084D01*
X116726Y-35375D01*
X117106Y-35533D01*
X117517Y-35533D01*
X117897Y-35376D01*
X118188Y-35086D01*
X118345Y-34706D01*
X118346Y-34295D01*
X118189Y-33915D01*
X117898Y-33624D01*
X117518Y-33466D01*
X117107Y-33466D01*
X116727Y-33623D01*
X116449Y-33901D01*
X116554Y-33648D01*
X116554Y-33353D01*
X116441Y-33080D01*
X116233Y-32871D01*
X115960Y-32758D01*
X115665Y-32757D01*
X115392Y-32870D01*
X115183Y-33079D01*
X115133Y-33200D01*
X114700Y-33200D01*
X114585Y-33222D01*
X114487Y-33287D01*
X113987Y-33787D01*
X113922Y-33885D01*
X113900Y-34000D01*
X113900Y-35075D01*
X113529Y-35446D01*
X113529Y-34937D01*
X113519Y-34709D01*
X113451Y-34547D01*
X113354Y-34516D01*
X113283Y-34587D01*
X113283Y-34445D01*
X113252Y-34348D01*
X113037Y-34270D01*
X112890Y-34277D01*
X112930Y-34256D01*
X113049Y-34112D01*
X113105Y-33935D01*
X113105Y-33835D01*
X113105Y-33735D01*
X113105Y-33635D01*
X113049Y-33457D01*
X112930Y-33313D01*
X112784Y-33236D01*
X112790Y-33208D01*
X112790Y-32985D01*
X112753Y-32803D01*
X112650Y-32649D01*
X112496Y-32546D01*
X112315Y-32510D01*
X112133Y-32546D01*
X112000Y-32635D01*
X111866Y-32546D01*
X111685Y-32510D01*
X111503Y-32546D01*
X111349Y-32649D01*
X111246Y-32803D01*
X111210Y-32985D01*
X111210Y-33208D01*
X111214Y-33229D01*
X111188Y-33234D01*
X111034Y-33337D01*
X110931Y-33491D01*
X110895Y-33673D01*
X110895Y-33896D01*
X110931Y-34078D01*
X111034Y-34232D01*
X111098Y-34275D01*
X110936Y-34274D01*
X110724Y-34362D01*
X110562Y-34523D01*
X110475Y-34735D01*
X110474Y-34963D01*
X110562Y-35175D01*
X110723Y-35337D01*
X110935Y-35424D01*
X111163Y-35425D01*
X111375Y-35337D01*
X111525Y-35188D01*
X111673Y-35337D01*
X111885Y-35424D01*
X112113Y-35425D01*
X112325Y-35337D01*
X112487Y-35176D01*
X112491Y-35166D01*
X112545Y-35183D01*
X112879Y-34850D01*
X112545Y-34516D01*
X112491Y-34533D01*
X112487Y-34524D01*
X112326Y-34362D01*
X112211Y-34315D01*
X112318Y-34243D01*
X112329Y-34256D01*
X112494Y-34342D01*
X112506Y-34343D01*
X112580Y-34294D01*
X112580Y-33835D01*
X112572Y-33835D01*
X112572Y-33735D01*
X112580Y-33735D01*
X112580Y-33727D01*
X112680Y-33727D01*
X112680Y-33735D01*
X113105Y-33735D01*
X113105Y-33835D01*
X112680Y-33835D01*
X112680Y-34294D01*
X112716Y-34319D01*
X112647Y-34348D01*
X112616Y-34445D01*
X112950Y-34779D01*
X113283Y-34445D01*
X113283Y-34587D01*
X113020Y-34850D01*
X113354Y-35183D01*
X113451Y-35152D01*
X113529Y-34937D01*
X113529Y-35446D01*
X113475Y-35500D01*
X113283Y-35500D01*
X113283Y-35254D01*
X112950Y-34920D01*
X112616Y-35254D01*
X112647Y-35351D01*
X112862Y-35429D01*
X113090Y-35419D01*
X113252Y-35351D01*
X113283Y-35254D01*
X113283Y-35500D01*
X110324Y-35500D01*
X110300Y-35475D01*
X110300Y-34200D01*
X110277Y-34085D01*
X110212Y-33987D01*
X110212Y-33987D01*
X109300Y-33075D01*
X109300Y-32913D01*
X109423Y-33037D01*
X109635Y-33124D01*
X109863Y-33125D01*
X110075Y-33037D01*
X110237Y-32876D01*
X110324Y-32664D01*
X110325Y-32450D01*
X110340Y-32460D01*
X110564Y-32504D01*
X110787Y-32460D01*
X110977Y-32333D01*
X111104Y-32143D01*
X111149Y-31919D01*
X111149Y-31458D01*
X111111Y-31269D01*
X112888Y-31269D01*
X112851Y-31458D01*
X112851Y-31919D01*
X112895Y-32143D01*
X113022Y-32333D01*
X113212Y-32460D01*
X113436Y-32504D01*
X113659Y-32460D01*
X113675Y-32449D01*
X113674Y-32663D01*
X113762Y-32875D01*
X113923Y-33037D01*
X114135Y-33124D01*
X114363Y-33125D01*
X114575Y-33037D01*
X114737Y-32876D01*
X114824Y-32664D01*
X114825Y-32436D01*
X114737Y-32224D01*
X114576Y-32062D01*
X114364Y-31975D01*
X114136Y-31974D01*
X113998Y-32031D01*
X114021Y-31919D01*
X114021Y-31458D01*
X113983Y-31269D01*
X123000Y-31269D01*
X123173Y-31269D01*
X123286Y-31291D01*
X123358Y-31340D01*
X123408Y-31414D01*
X123430Y-31527D01*
X123430Y-60000D01*
X123430Y-60072D01*
M02*
