M48
INCH,TZ
T1C0.025
T2C0.030
T3C0.032
T4C0.039
T5C0.059
T6C0.067
T7C0.157
%
G90
G05
T1
X33100Y-59100
X33200Y-38000
X33600Y-38400
X35900Y-37300
X36700Y-39800
X42300Y-53400
X49500Y-52500
X62100Y-59000
X64800Y-59000
X65800Y-58300
X65900Y-37200
X70200Y-59000
X72600Y-59200
X73100Y-52900
X73400Y-56600
X73400Y-57100
X73600Y-33800
X74100Y-44400
X74500Y-59600
X74700Y-53700
X74900Y-51900
X75100Y-58500
X75500Y-58000
X75600Y-51200
X75600Y-60100
X75900Y-58500
X76200Y-48400
X76400Y-58500
X76600Y-57600
X76900Y-58500
X77000Y-47700
X77000Y-60100
X77100Y-51400
X77300Y-57500
X77400Y-47200
X77600Y-58400
X77700Y-55600
X77700Y-57100
X78000Y-56200
X78400Y-45600
X79400Y-51700
X79500Y-57500
X80200Y-58100
X80600Y-47000
X81200Y-38600
X81400Y-41000
X81700Y-53400
X82200Y-58600
X82400Y-52100
X82600Y-38000
X83000Y-42200
X84600Y-37400
X85000Y-38200
X86100Y-58100
X96600Y-59800
X103300Y-58600
X104000Y-59400
X109800Y-37400
X110900Y-36600
X112000Y-38000
X112500Y-59800
X116400Y-38100
T2
X30705Y-37685
X30705Y-38315
X31177Y-37370
X31177Y-38000
X31177Y-38630
X111370Y-33677
X111685Y-33205
X112000Y-33677
X112315Y-33205
X112630Y-33677
T3
X63600Y-55100
X63600Y-58100
X89400Y-55100
X89400Y-58100
T4
X30050Y-35750
X30050Y-40250
X32350Y-37050
X32350Y-38000
X32350Y-38950
X109750Y-32550
X111050Y-34850
X112000Y-34850
X112950Y-34850
X114250Y-32550
T5
X30500Y-33500
X31435Y-41000
X33000Y-32500
X33313Y-48500
X33935Y-40000
X35813Y-47500
X36132Y-56000
X38000Y-33500
X38632Y-55000
X39870Y-41000
X40500Y-32500
X42370Y-40000
X43625Y-48500
X44568Y-56000
X45500Y-33500
X46125Y-47500
X47068Y-55000
X47370Y-41000
X48000Y-32500
X49870Y-40000
X51125Y-48500
X53000Y-33500
X53003Y-56000
X53625Y-47500
X54870Y-41000
X55500Y-32500
X55503Y-55000
X57370Y-40000
X58625Y-48500
X60500Y-33500
X61125Y-47500
X62370Y-41000
X63000Y-32500
X64870Y-40000
X66125Y-48500
X66125Y-56000
X68000Y-33500
X68625Y-47500
X68625Y-55000
X69870Y-41000
X70500Y-32500
X72370Y-40000
X73625Y-48500
X75500Y-33500
X76125Y-47500
X77370Y-41000
X78000Y-32500
X79870Y-40000
X81125Y-48500
X83000Y-33500
X83625Y-47500
X83919Y-56000
X84870Y-41000
X85500Y-32500
X86419Y-55000
X87370Y-40000
X88625Y-48500
X90500Y-33500
X91125Y-47500
X92370Y-41000
X93000Y-32500
X94870Y-40000
X96125Y-48500
X97042Y-56000
X98000Y-33500
X98625Y-47500
X99542Y-55000
X99870Y-41000
X100500Y-32500
X102370Y-40000
X103625Y-48500
X105477Y-56000
X105500Y-33500
X106125Y-47500
X107370Y-41000
X107977Y-55000
X108000Y-32500
X109870Y-40000
X111125Y-48500
X113625Y-47500
X113912Y-56000
X115812Y-33500
X116412Y-55000
X116745Y-41000
X118312Y-32500
X118625Y-48500
X119245Y-40000
X121125Y-47500
T6
X30000Y-34500
X30935Y-42000
X32813Y-49500
X34000Y-34500
X34935Y-42000
X35632Y-57000
X36813Y-49500
X37500Y-34500
X39370Y-42000
X39632Y-57000
X41500Y-34500
X43125Y-49500
X43370Y-42000
X44068Y-57000
X45000Y-34500
X46870Y-42000
X47125Y-49500
X48068Y-57000
X49000Y-34500
X50625Y-49500
X50870Y-42000
X52500Y-34500
X52503Y-57000
X54370Y-42000
X54625Y-49500
X56500Y-34500
X56503Y-57000
X58125Y-49500
X58370Y-42000
X60000Y-34500
X61870Y-42000
X62125Y-49500
X64000Y-34500
X65625Y-49500
X65625Y-57000
X65870Y-42000
X67500Y-34500
X69370Y-42000
X69625Y-49500
X69625Y-57000
X71500Y-34500
X73125Y-49500
X73370Y-42000
X75000Y-34500
X76870Y-42000
X77125Y-49500
X79000Y-34500
X80625Y-49500
X80870Y-42000
X82500Y-34500
X83419Y-57000
X84370Y-42000
X84625Y-49500
X86500Y-34500
X87419Y-57000
X88125Y-49500
X88370Y-42000
X90000Y-34500
X91870Y-42000
X92125Y-49500
X94000Y-34500
X95625Y-49500
X95870Y-42000
X96542Y-57000
X97500Y-34500
X99370Y-42000
X99625Y-49500
X100542Y-57000
X101500Y-34500
X103125Y-49500
X103370Y-42000
X104977Y-57000
X105000Y-34500
X106870Y-42000
X107125Y-49500
X108977Y-57000
X109000Y-34500
X110625Y-49500
X110870Y-42000
X113412Y-57000
X114625Y-49500
X115313Y-34500
X116245Y-42000
X117412Y-57000
X118125Y-49500
X119313Y-34500
X120245Y-42000
X122125Y-49500
T7
X32000Y-34500
X32935Y-42000
X34813Y-49500
X37632Y-57000
X39500Y-34500
X41370Y-42000
X45125Y-49500
X46068Y-57000
X47000Y-34500
X48870Y-42000
X52625Y-49500
X54500Y-34500
X54503Y-57000
X56370Y-42000
X60125Y-49500
X62000Y-34500
X63870Y-42000
X67625Y-49500
X67625Y-57000
X69500Y-34500
X71370Y-42000
X75125Y-49500
X77000Y-34500
X78870Y-42000
X82625Y-49500
X84500Y-34500
X85419Y-57000
X86370Y-42000
X90125Y-49500
X92000Y-34500
X93870Y-42000
X97625Y-49500
X98542Y-57000
X99500Y-34500
X101370Y-42000
X105125Y-49500
X106977Y-57000
X107000Y-34500
X108870Y-42000
X112625Y-49500
X115412Y-57000
X117313Y-34500
X118245Y-42000
X120125Y-49500
T2
X28964Y-36564G85X29414Y-36564
G05
X28964Y-39436G85X29414Y-39436
G05
X110564Y-31464G85X110564Y-31914
G05
X113436Y-31464G85X113436Y-31914
G05
T0
M30
