G04 (created by PCBNEW (2013-07-07 BZR 4022)-stable) date 7/6/2014 3:39:49 PM*
%MOIN*%
G04 Gerber Fmt 3.4, Leading zero omitted, Abs format*
%FSLAX34Y34*%
G01*
G70*
G90*
G04 APERTURE LIST*
%ADD10C,0.00590551*%
%ADD11C,0.0709921*%
%ADD12C,0.1647*%
%ADD13C,0.1064*%
%ADD14C,0.0749*%
%ADD15O,0.053X0.073*%
%ADD16O,0.075X0.118*%
%ADD17C,0.073*%
%ADD18O,0.073X0.053*%
%ADD19O,0.118X0.075*%
G04 APERTURE END LIST*
G54D10*
G54D11*
X63600Y-58100D03*
X63600Y-55100D03*
X89400Y-58100D03*
X89400Y-55100D03*
G54D12*
X37632Y-57000D03*
G54D13*
X38632Y-55000D03*
X36132Y-56000D03*
G54D14*
X35632Y-57000D03*
X39632Y-57000D03*
G54D12*
X67625Y-57000D03*
G54D13*
X68625Y-55000D03*
X66125Y-56000D03*
G54D14*
X65625Y-57000D03*
X69625Y-57000D03*
G54D12*
X98541Y-57000D03*
G54D13*
X99541Y-55000D03*
X97041Y-56000D03*
G54D14*
X96541Y-57000D03*
X100541Y-57000D03*
G54D12*
X34812Y-49500D03*
G54D13*
X35812Y-47500D03*
X33312Y-48500D03*
G54D14*
X32812Y-49500D03*
X36812Y-49500D03*
G54D12*
X117312Y-34500D03*
G54D13*
X118312Y-32500D03*
X115812Y-33500D03*
G54D14*
X115312Y-34500D03*
X119312Y-34500D03*
G54D12*
X101370Y-42000D03*
G54D13*
X102370Y-40000D03*
X99870Y-41000D03*
G54D14*
X99370Y-42000D03*
X103370Y-42000D03*
G54D12*
X93870Y-42000D03*
G54D13*
X94870Y-40000D03*
X92370Y-41000D03*
G54D14*
X91870Y-42000D03*
X95870Y-42000D03*
G54D12*
X86370Y-42000D03*
G54D13*
X87370Y-40000D03*
X84870Y-41000D03*
G54D14*
X84370Y-42000D03*
X88370Y-42000D03*
G54D12*
X78870Y-42000D03*
G54D13*
X79870Y-40000D03*
X77370Y-41000D03*
G54D14*
X76870Y-42000D03*
X80870Y-42000D03*
G54D12*
X71370Y-42000D03*
G54D13*
X72370Y-40000D03*
X69870Y-41000D03*
G54D14*
X69370Y-42000D03*
X73370Y-42000D03*
G54D12*
X63870Y-42000D03*
G54D13*
X64870Y-40000D03*
X62370Y-41000D03*
G54D14*
X61870Y-42000D03*
X65870Y-42000D03*
G54D12*
X56370Y-42000D03*
G54D13*
X57370Y-40000D03*
X54870Y-41000D03*
G54D14*
X54370Y-42000D03*
X58370Y-42000D03*
G54D12*
X48870Y-42000D03*
G54D13*
X49870Y-40000D03*
X47370Y-41000D03*
G54D14*
X46870Y-42000D03*
X50870Y-42000D03*
G54D12*
X41370Y-42000D03*
G54D13*
X42370Y-40000D03*
X39870Y-41000D03*
G54D14*
X39370Y-42000D03*
X43370Y-42000D03*
G54D12*
X32935Y-42000D03*
G54D13*
X33935Y-40000D03*
X31435Y-41000D03*
G54D14*
X30935Y-42000D03*
X34935Y-42000D03*
G54D12*
X77000Y-34500D03*
G54D13*
X78000Y-32500D03*
X75500Y-33500D03*
G54D14*
X75000Y-34500D03*
X79000Y-34500D03*
G54D12*
X107000Y-34500D03*
G54D13*
X108000Y-32500D03*
X105500Y-33500D03*
G54D14*
X105000Y-34500D03*
X109000Y-34500D03*
G54D12*
X99500Y-34500D03*
G54D13*
X100500Y-32500D03*
X98000Y-33500D03*
G54D14*
X97500Y-34500D03*
X101500Y-34500D03*
G54D12*
X84500Y-34500D03*
G54D13*
X85500Y-32500D03*
X83000Y-33500D03*
G54D14*
X82500Y-34500D03*
X86500Y-34500D03*
G54D12*
X69500Y-34500D03*
G54D13*
X70500Y-32500D03*
X68000Y-33500D03*
G54D14*
X67500Y-34500D03*
X71500Y-34500D03*
G54D12*
X62000Y-34500D03*
G54D13*
X63000Y-32500D03*
X60500Y-33500D03*
G54D14*
X60000Y-34500D03*
X64000Y-34500D03*
G54D12*
X54500Y-34500D03*
G54D13*
X55500Y-32500D03*
X53000Y-33500D03*
G54D14*
X52500Y-34500D03*
X56500Y-34500D03*
G54D12*
X47000Y-34500D03*
G54D13*
X48000Y-32500D03*
X45500Y-33500D03*
G54D14*
X45000Y-34500D03*
X49000Y-34500D03*
G54D12*
X39500Y-34500D03*
G54D13*
X40500Y-32500D03*
X38000Y-33500D03*
G54D14*
X37500Y-34500D03*
X41500Y-34500D03*
G54D12*
X32000Y-34500D03*
G54D13*
X33000Y-32500D03*
X30500Y-33500D03*
G54D14*
X30000Y-34500D03*
X34000Y-34500D03*
G54D12*
X108870Y-42000D03*
G54D13*
X109870Y-40000D03*
X107370Y-41000D03*
G54D14*
X106870Y-42000D03*
X110870Y-42000D03*
G54D12*
X92000Y-34500D03*
G54D13*
X93000Y-32500D03*
X90500Y-33500D03*
G54D14*
X90000Y-34500D03*
X94000Y-34500D03*
G54D12*
X115411Y-57000D03*
G54D13*
X116411Y-55000D03*
X113911Y-56000D03*
G54D14*
X113411Y-57000D03*
X117411Y-57000D03*
G54D12*
X106976Y-57000D03*
G54D13*
X107976Y-55000D03*
X105476Y-56000D03*
G54D14*
X104976Y-57000D03*
X108976Y-57000D03*
G54D12*
X85419Y-57000D03*
G54D13*
X86419Y-55000D03*
X83919Y-56000D03*
G54D14*
X83419Y-57000D03*
X87419Y-57000D03*
G54D12*
X54502Y-57000D03*
G54D13*
X55502Y-55000D03*
X53002Y-56000D03*
G54D14*
X52502Y-57000D03*
X56502Y-57000D03*
G54D12*
X46067Y-57000D03*
G54D13*
X47067Y-55000D03*
X44567Y-56000D03*
G54D14*
X44067Y-57000D03*
X48067Y-57000D03*
G54D12*
X120125Y-49500D03*
G54D13*
X121125Y-47500D03*
X118625Y-48500D03*
G54D14*
X118125Y-49500D03*
X122125Y-49500D03*
G54D12*
X112625Y-49500D03*
G54D13*
X113625Y-47500D03*
X111125Y-48500D03*
G54D14*
X110625Y-49500D03*
X114625Y-49500D03*
G54D12*
X105125Y-49500D03*
G54D13*
X106125Y-47500D03*
X103625Y-48500D03*
G54D14*
X103125Y-49500D03*
X107125Y-49500D03*
G54D12*
X97625Y-49500D03*
G54D13*
X98625Y-47500D03*
X96125Y-48500D03*
G54D14*
X95625Y-49500D03*
X99625Y-49500D03*
G54D12*
X90125Y-49500D03*
G54D13*
X91125Y-47500D03*
X88625Y-48500D03*
G54D14*
X88125Y-49500D03*
X92125Y-49500D03*
G54D12*
X82625Y-49500D03*
G54D13*
X83625Y-47500D03*
X81125Y-48500D03*
G54D14*
X80625Y-49500D03*
X84625Y-49500D03*
G54D12*
X75125Y-49500D03*
G54D13*
X76125Y-47500D03*
X73625Y-48500D03*
G54D14*
X73125Y-49500D03*
X77125Y-49500D03*
G54D12*
X67625Y-49500D03*
G54D13*
X68625Y-47500D03*
X66125Y-48500D03*
G54D14*
X65625Y-49500D03*
X69625Y-49500D03*
G54D12*
X60125Y-49500D03*
G54D13*
X61125Y-47500D03*
X58625Y-48500D03*
G54D14*
X58125Y-49500D03*
X62125Y-49500D03*
G54D12*
X52625Y-49500D03*
G54D13*
X53625Y-47500D03*
X51125Y-48500D03*
G54D14*
X50625Y-49500D03*
X54625Y-49500D03*
G54D12*
X45125Y-49500D03*
G54D13*
X46125Y-47500D03*
X43625Y-48500D03*
G54D14*
X43125Y-49500D03*
X47125Y-49500D03*
G54D12*
X118245Y-42000D03*
G54D13*
X119245Y-40000D03*
X116745Y-41000D03*
G54D14*
X116245Y-42000D03*
X120245Y-42000D03*
G54D15*
X111370Y-33785D03*
X111685Y-33097D03*
X112000Y-33785D03*
X112315Y-33097D03*
X112630Y-33785D03*
G54D16*
X113436Y-31689D03*
X110564Y-31689D03*
G54D17*
X111050Y-34850D03*
X109750Y-32550D03*
X112000Y-34850D03*
X114250Y-32550D03*
X112950Y-34850D03*
G54D18*
X31285Y-38630D03*
X30597Y-38315D03*
X31285Y-38000D03*
X30597Y-37685D03*
X31285Y-37370D03*
G54D19*
X29189Y-36564D03*
X29189Y-39436D03*
G54D17*
X32350Y-38950D03*
X30050Y-40250D03*
X32350Y-38000D03*
X30050Y-35750D03*
X32350Y-37050D03*
M02*
