G04 (created by PCBNEW (2013-07-07 BZR 4022)-stable) date 7/27/2014 4:03:04 PM*
%MOIN*%
G04 Gerber Fmt 3.4, Leading zero omitted, Abs format*
%FSLAX34Y34*%
G01*
G70*
G90*
G04 APERTURE LIST*
%ADD10C,0.00590551*%
%ADD11C,0.0001*%
%ADD12C,0.015*%
%ADD13C,0.012*%
%ADD14C,0.008*%
%ADD15C,0.011811*%
%ADD16C,0.00787402*%
%ADD17C,0.0079*%
%ADD18C,0.00625197*%
G04 APERTURE END LIST*
G54D10*
G54D11*
G36*
X118127Y-46305D02*
X118123Y-46355D01*
X118112Y-46401D01*
X118094Y-46441D01*
X118071Y-46474D01*
X118042Y-46499D01*
X118035Y-46502D01*
X118035Y-46255D01*
X118031Y-46240D01*
X118019Y-46207D01*
X118001Y-46183D01*
X117977Y-46168D01*
X117949Y-46162D01*
X117918Y-46165D01*
X117892Y-46176D01*
X117872Y-46197D01*
X117858Y-46227D01*
X117856Y-46236D01*
X117852Y-46255D01*
X117943Y-46255D01*
X118035Y-46255D01*
X118035Y-46502D01*
X118007Y-46515D01*
X118006Y-46516D01*
X117991Y-46518D01*
X117968Y-46520D01*
X117941Y-46521D01*
X117912Y-46521D01*
X117886Y-46520D01*
X117865Y-46518D01*
X117856Y-46517D01*
X117839Y-46510D01*
X117820Y-46499D01*
X117801Y-46487D01*
X117784Y-46474D01*
X117772Y-46463D01*
X117767Y-46455D01*
X117771Y-46450D01*
X117781Y-46439D01*
X117796Y-46425D01*
X117801Y-46422D01*
X117834Y-46393D01*
X117847Y-46404D01*
X117867Y-46418D01*
X117893Y-46430D01*
X117919Y-46437D01*
X117931Y-46438D01*
X117955Y-46435D01*
X117981Y-46425D01*
X118002Y-46412D01*
X118008Y-46406D01*
X118017Y-46392D01*
X118026Y-46372D01*
X118032Y-46352D01*
X118034Y-46343D01*
X118033Y-46340D01*
X118030Y-46337D01*
X118024Y-46336D01*
X118013Y-46334D01*
X117995Y-46334D01*
X117971Y-46333D01*
X117938Y-46333D01*
X117895Y-46333D01*
X117756Y-46333D01*
X117756Y-46292D01*
X117759Y-46238D01*
X117769Y-46192D01*
X117787Y-46154D01*
X117812Y-46123D01*
X117845Y-46097D01*
X117858Y-46090D01*
X117872Y-46083D01*
X117886Y-46078D01*
X117901Y-46076D01*
X117922Y-46075D01*
X117942Y-46075D01*
X117969Y-46075D01*
X117988Y-46076D01*
X118002Y-46079D01*
X118016Y-46084D01*
X118026Y-46090D01*
X118061Y-46114D01*
X118088Y-46146D01*
X118108Y-46186D01*
X118121Y-46235D01*
X118124Y-46252D01*
X118127Y-46305D01*
X118127Y-46305D01*
X118127Y-46305D01*
G37*
G36*
X118428Y-46522D02*
X118381Y-46522D01*
X118334Y-46522D01*
X118333Y-46373D01*
X118332Y-46329D01*
X118332Y-46294D01*
X118331Y-46267D01*
X118330Y-46247D01*
X118328Y-46233D01*
X118327Y-46223D01*
X118324Y-46215D01*
X118321Y-46208D01*
X118318Y-46204D01*
X118300Y-46184D01*
X118275Y-46171D01*
X118248Y-46166D01*
X118221Y-46171D01*
X118208Y-46177D01*
X118190Y-46188D01*
X118156Y-46148D01*
X118121Y-46109D01*
X118136Y-46096D01*
X118164Y-46081D01*
X118200Y-46073D01*
X118225Y-46072D01*
X118263Y-46076D01*
X118297Y-46091D01*
X118315Y-46103D01*
X118334Y-46117D01*
X118334Y-46097D01*
X118334Y-46077D01*
X118381Y-46077D01*
X118428Y-46077D01*
X118428Y-46300D01*
X118428Y-46522D01*
X118428Y-46522D01*
X118428Y-46522D01*
G37*
G36*
X118877Y-46405D02*
X118869Y-46439D01*
X118851Y-46470D01*
X118826Y-46496D01*
X118803Y-46511D01*
X118791Y-46516D01*
X118788Y-46517D01*
X118788Y-46390D01*
X118785Y-46370D01*
X118771Y-46352D01*
X118766Y-46348D01*
X118758Y-46343D01*
X118747Y-46339D01*
X118733Y-46337D01*
X118712Y-46335D01*
X118682Y-46334D01*
X118680Y-46334D01*
X118610Y-46332D01*
X118613Y-46368D01*
X118616Y-46394D01*
X118622Y-46411D01*
X118632Y-46422D01*
X118648Y-46431D01*
X118665Y-46436D01*
X118688Y-46437D01*
X118714Y-46437D01*
X118739Y-46433D01*
X118758Y-46428D01*
X118764Y-46425D01*
X118781Y-46409D01*
X118788Y-46390D01*
X118788Y-46517D01*
X118779Y-46519D01*
X118765Y-46521D01*
X118745Y-46522D01*
X118717Y-46521D01*
X118712Y-46521D01*
X118684Y-46520D01*
X118664Y-46519D01*
X118651Y-46517D01*
X118642Y-46514D01*
X118635Y-46509D01*
X118629Y-46503D01*
X118612Y-46486D01*
X118612Y-46504D01*
X118612Y-46522D01*
X118564Y-46522D01*
X118516Y-46522D01*
X118518Y-46345D01*
X118519Y-46296D01*
X118519Y-46257D01*
X118520Y-46226D01*
X118521Y-46203D01*
X118522Y-46185D01*
X118523Y-46172D01*
X118525Y-46163D01*
X118528Y-46155D01*
X118531Y-46149D01*
X118532Y-46147D01*
X118548Y-46122D01*
X118568Y-46104D01*
X118595Y-46088D01*
X118598Y-46087D01*
X118611Y-46082D01*
X118624Y-46078D01*
X118639Y-46076D01*
X118660Y-46075D01*
X118688Y-46075D01*
X118698Y-46075D01*
X118728Y-46075D01*
X118750Y-46075D01*
X118766Y-46077D01*
X118778Y-46080D01*
X118791Y-46085D01*
X118802Y-46090D01*
X118822Y-46102D01*
X118839Y-46115D01*
X118851Y-46128D01*
X118856Y-46138D01*
X118856Y-46138D01*
X118852Y-46143D01*
X118841Y-46152D01*
X118825Y-46164D01*
X118820Y-46169D01*
X118783Y-46196D01*
X118772Y-46183D01*
X118758Y-46172D01*
X118740Y-46165D01*
X118716Y-46161D01*
X118697Y-46161D01*
X118664Y-46163D01*
X118639Y-46170D01*
X118623Y-46183D01*
X118614Y-46202D01*
X118612Y-46229D01*
X118612Y-46230D01*
X118612Y-46254D01*
X118696Y-46256D01*
X118729Y-46257D01*
X118754Y-46258D01*
X118771Y-46260D01*
X118785Y-46263D01*
X118796Y-46267D01*
X118807Y-46272D01*
X118809Y-46273D01*
X118831Y-46286D01*
X118847Y-46300D01*
X118859Y-46318D01*
X118867Y-46333D01*
X118877Y-46368D01*
X118877Y-46405D01*
X118877Y-46405D01*
X118877Y-46405D01*
G37*
G36*
X119509Y-46080D02*
X119439Y-46300D01*
X119370Y-46519D01*
X119327Y-46521D01*
X119285Y-46522D01*
X119277Y-46496D01*
X119273Y-46483D01*
X119267Y-46461D01*
X119258Y-46432D01*
X119248Y-46399D01*
X119238Y-46363D01*
X119233Y-46348D01*
X119223Y-46314D01*
X119214Y-46283D01*
X119206Y-46258D01*
X119199Y-46239D01*
X119196Y-46229D01*
X119195Y-46227D01*
X119193Y-46233D01*
X119188Y-46247D01*
X119180Y-46270D01*
X119171Y-46301D01*
X119160Y-46337D01*
X119147Y-46378D01*
X119134Y-46423D01*
X119120Y-46471D01*
X119114Y-46493D01*
X119105Y-46522D01*
X119064Y-46522D01*
X119042Y-46521D01*
X119028Y-46520D01*
X119021Y-46516D01*
X119019Y-46512D01*
X119016Y-46505D01*
X119011Y-46488D01*
X119002Y-46463D01*
X118992Y-46431D01*
X118980Y-46394D01*
X118966Y-46351D01*
X118952Y-46306D01*
X118947Y-46291D01*
X118879Y-46080D01*
X118927Y-46079D01*
X118949Y-46078D01*
X118967Y-46079D01*
X118977Y-46081D01*
X118979Y-46081D01*
X118981Y-46088D01*
X118986Y-46103D01*
X118993Y-46127D01*
X119001Y-46156D01*
X119011Y-46191D01*
X119020Y-46225D01*
X119030Y-46262D01*
X119040Y-46296D01*
X119048Y-46325D01*
X119055Y-46348D01*
X119059Y-46362D01*
X119061Y-46368D01*
X119064Y-46363D01*
X119069Y-46350D01*
X119077Y-46329D01*
X119086Y-46301D01*
X119098Y-46267D01*
X119110Y-46230D01*
X119112Y-46224D01*
X119159Y-46077D01*
X119195Y-46077D01*
X119231Y-46077D01*
X119278Y-46225D01*
X119290Y-46263D01*
X119302Y-46297D01*
X119312Y-46325D01*
X119320Y-46348D01*
X119326Y-46362D01*
X119329Y-46368D01*
X119329Y-46368D01*
X119331Y-46361D01*
X119336Y-46346D01*
X119343Y-46322D01*
X119351Y-46293D01*
X119361Y-46258D01*
X119370Y-46225D01*
X119380Y-46187D01*
X119389Y-46153D01*
X119398Y-46124D01*
X119404Y-46101D01*
X119408Y-46086D01*
X119410Y-46081D01*
X119417Y-46080D01*
X119433Y-46078D01*
X119454Y-46078D01*
X119462Y-46079D01*
X119509Y-46080D01*
X119509Y-46080D01*
X119509Y-46080D01*
G37*
G36*
X119907Y-46297D02*
X119907Y-46343D01*
X119905Y-46380D01*
X119902Y-46409D01*
X119897Y-46432D01*
X119890Y-46450D01*
X119880Y-46466D01*
X119868Y-46479D01*
X119847Y-46498D01*
X119827Y-46511D01*
X119813Y-46516D01*
X119813Y-46297D01*
X119811Y-46253D01*
X119805Y-46220D01*
X119794Y-46195D01*
X119778Y-46178D01*
X119757Y-46169D01*
X119730Y-46166D01*
X119701Y-46170D01*
X119678Y-46182D01*
X119661Y-46204D01*
X119660Y-46207D01*
X119654Y-46218D01*
X119651Y-46231D01*
X119648Y-46246D01*
X119647Y-46267D01*
X119647Y-46297D01*
X119647Y-46327D01*
X119648Y-46348D01*
X119650Y-46363D01*
X119654Y-46376D01*
X119659Y-46389D01*
X119660Y-46389D01*
X119675Y-46412D01*
X119695Y-46426D01*
X119720Y-46432D01*
X119737Y-46431D01*
X119758Y-46428D01*
X119774Y-46421D01*
X119783Y-46414D01*
X119795Y-46399D01*
X119804Y-46382D01*
X119810Y-46360D01*
X119812Y-46331D01*
X119813Y-46297D01*
X119813Y-46516D01*
X119805Y-46518D01*
X119778Y-46521D01*
X119749Y-46521D01*
X119724Y-46520D01*
X119706Y-46518D01*
X119693Y-46515D01*
X119682Y-46509D01*
X119669Y-46501D01*
X119644Y-46483D01*
X119644Y-46503D01*
X119644Y-46522D01*
X119597Y-46522D01*
X119550Y-46522D01*
X119550Y-46211D01*
X119550Y-45900D01*
X119597Y-45900D01*
X119644Y-45900D01*
X119644Y-46008D01*
X119644Y-46116D01*
X119666Y-46100D01*
X119699Y-46082D01*
X119736Y-46073D01*
X119774Y-46073D01*
X119810Y-46080D01*
X119843Y-46096D01*
X119870Y-46119D01*
X119878Y-46129D01*
X119887Y-46144D01*
X119895Y-46159D01*
X119900Y-46176D01*
X119904Y-46198D01*
X119906Y-46225D01*
X119907Y-46260D01*
X119907Y-46297D01*
X119907Y-46297D01*
X119907Y-46297D01*
G37*
G36*
X120205Y-46522D02*
X120161Y-46522D01*
X120117Y-46522D01*
X120115Y-46376D01*
X120115Y-46331D01*
X120114Y-46297D01*
X120113Y-46270D01*
X120112Y-46250D01*
X120111Y-46235D01*
X120109Y-46225D01*
X120106Y-46216D01*
X120102Y-46209D01*
X120102Y-46208D01*
X120085Y-46187D01*
X120062Y-46172D01*
X120035Y-46166D01*
X120008Y-46170D01*
X119989Y-46178D01*
X119977Y-46185D01*
X119970Y-46188D01*
X119970Y-46187D01*
X119966Y-46183D01*
X119957Y-46172D01*
X119943Y-46156D01*
X119937Y-46149D01*
X119923Y-46132D01*
X119912Y-46117D01*
X119906Y-46108D01*
X119905Y-46106D01*
X119910Y-46101D01*
X119922Y-46093D01*
X119934Y-46086D01*
X119970Y-46074D01*
X120009Y-46071D01*
X120047Y-46078D01*
X120083Y-46093D01*
X120097Y-46102D01*
X120116Y-46117D01*
X120116Y-46097D01*
X120116Y-46077D01*
X120161Y-46077D01*
X120205Y-46077D01*
X120205Y-46300D01*
X120205Y-46522D01*
X120205Y-46522D01*
X120205Y-46522D01*
G37*
G36*
X120658Y-46388D02*
X120655Y-46425D01*
X120645Y-46455D01*
X120627Y-46480D01*
X120613Y-46493D01*
X120594Y-46506D01*
X120572Y-46515D01*
X120570Y-46515D01*
X120570Y-46390D01*
X120567Y-46370D01*
X120553Y-46352D01*
X120548Y-46348D01*
X120540Y-46343D01*
X120530Y-46339D01*
X120515Y-46337D01*
X120494Y-46335D01*
X120465Y-46334D01*
X120463Y-46334D01*
X120393Y-46332D01*
X120395Y-46368D01*
X120400Y-46399D01*
X120411Y-46421D01*
X120429Y-46433D01*
X120435Y-46435D01*
X120453Y-46437D01*
X120477Y-46437D01*
X120502Y-46435D01*
X120524Y-46432D01*
X120541Y-46428D01*
X120547Y-46425D01*
X120564Y-46409D01*
X120570Y-46390D01*
X120570Y-46515D01*
X120546Y-46520D01*
X120512Y-46521D01*
X120487Y-46521D01*
X120459Y-46520D01*
X120440Y-46518D01*
X120427Y-46515D01*
X120417Y-46510D01*
X120411Y-46506D01*
X120394Y-46494D01*
X120394Y-46508D01*
X120394Y-46515D01*
X120391Y-46519D01*
X120384Y-46521D01*
X120370Y-46522D01*
X120347Y-46522D01*
X120347Y-46522D01*
X120300Y-46522D01*
X120300Y-46358D01*
X120300Y-46306D01*
X120300Y-46261D01*
X120302Y-46223D01*
X120303Y-46195D01*
X120305Y-46175D01*
X120306Y-46169D01*
X120318Y-46140D01*
X120340Y-46114D01*
X120368Y-46093D01*
X120379Y-46088D01*
X120397Y-46082D01*
X120418Y-46077D01*
X120445Y-46074D01*
X120467Y-46073D01*
X120510Y-46073D01*
X120544Y-46076D01*
X120573Y-46085D01*
X120597Y-46098D01*
X120616Y-46113D01*
X120628Y-46126D01*
X120637Y-46136D01*
X120638Y-46140D01*
X120633Y-46144D01*
X120621Y-46153D01*
X120605Y-46165D01*
X120601Y-46169D01*
X120565Y-46195D01*
X120549Y-46180D01*
X120538Y-46171D01*
X120525Y-46165D01*
X120507Y-46162D01*
X120497Y-46162D01*
X120459Y-46161D01*
X120431Y-46166D01*
X120412Y-46176D01*
X120400Y-46192D01*
X120394Y-46214D01*
X120394Y-46224D01*
X120394Y-46254D01*
X120476Y-46256D01*
X120509Y-46257D01*
X120532Y-46258D01*
X120550Y-46260D01*
X120563Y-46262D01*
X120575Y-46267D01*
X120587Y-46272D01*
X120592Y-46275D01*
X120614Y-46289D01*
X120631Y-46304D01*
X120641Y-46319D01*
X120650Y-46335D01*
X120655Y-46349D01*
X120657Y-46365D01*
X120658Y-46388D01*
X120658Y-46388D01*
X120658Y-46388D01*
G37*
G36*
X121077Y-46522D02*
X121031Y-46522D01*
X120984Y-46522D01*
X120982Y-46376D01*
X120981Y-46332D01*
X120981Y-46297D01*
X120980Y-46270D01*
X120979Y-46251D01*
X120977Y-46236D01*
X120975Y-46226D01*
X120973Y-46218D01*
X120969Y-46212D01*
X120969Y-46211D01*
X120950Y-46187D01*
X120926Y-46173D01*
X120900Y-46166D01*
X120874Y-46169D01*
X120850Y-46180D01*
X120831Y-46199D01*
X120823Y-46211D01*
X120819Y-46219D01*
X120816Y-46227D01*
X120814Y-46236D01*
X120813Y-46249D01*
X120812Y-46266D01*
X120811Y-46289D01*
X120811Y-46320D01*
X120811Y-46359D01*
X120811Y-46379D01*
X120811Y-46522D01*
X120764Y-46522D01*
X120716Y-46522D01*
X120716Y-46362D01*
X120716Y-46309D01*
X120717Y-46266D01*
X120718Y-46232D01*
X120720Y-46205D01*
X120723Y-46183D01*
X120727Y-46166D01*
X120732Y-46152D01*
X120739Y-46140D01*
X120748Y-46128D01*
X120750Y-46126D01*
X120778Y-46100D01*
X120812Y-46082D01*
X120850Y-46073D01*
X120888Y-46073D01*
X120926Y-46082D01*
X120955Y-46097D01*
X120983Y-46116D01*
X120983Y-45949D01*
X120983Y-45784D01*
X120978Y-45787D01*
X120978Y-45602D01*
X120976Y-45559D01*
X120970Y-45525D01*
X120960Y-45501D01*
X120944Y-45484D01*
X120923Y-45474D01*
X120895Y-45471D01*
X120893Y-45471D01*
X120866Y-45475D01*
X120844Y-45488D01*
X120825Y-45511D01*
X120825Y-45512D01*
X120820Y-45522D01*
X120817Y-45532D01*
X120815Y-45547D01*
X120814Y-45568D01*
X120814Y-45597D01*
X120814Y-45603D01*
X120814Y-45638D01*
X120816Y-45665D01*
X120820Y-45684D01*
X120826Y-45699D01*
X120835Y-45711D01*
X120843Y-45719D01*
X120865Y-45732D01*
X120891Y-45737D01*
X120918Y-45734D01*
X120942Y-45724D01*
X120944Y-45723D01*
X120958Y-45709D01*
X120968Y-45690D01*
X120975Y-45664D01*
X120978Y-45630D01*
X120978Y-45602D01*
X120978Y-45787D01*
X120960Y-45801D01*
X120923Y-45821D01*
X120885Y-45831D01*
X120847Y-45830D01*
X120810Y-45820D01*
X120777Y-45801D01*
X120757Y-45783D01*
X120745Y-45769D01*
X120736Y-45755D01*
X120729Y-45741D01*
X120724Y-45723D01*
X120721Y-45701D01*
X120720Y-45673D01*
X120719Y-45636D01*
X120719Y-45606D01*
X120719Y-45562D01*
X120720Y-45527D01*
X120723Y-45499D01*
X120726Y-45478D01*
X120732Y-45461D01*
X120739Y-45446D01*
X120750Y-45432D01*
X120759Y-45422D01*
X120787Y-45398D01*
X120818Y-45383D01*
X120855Y-45377D01*
X120872Y-45376D01*
X120910Y-45381D01*
X120942Y-45393D01*
X120966Y-45409D01*
X120983Y-45424D01*
X120983Y-45401D01*
X120983Y-45378D01*
X121030Y-45378D01*
X121077Y-45378D01*
X121077Y-45950D01*
X121077Y-46522D01*
X121077Y-46522D01*
X121077Y-46522D01*
G37*
G36*
X117648Y-45588D02*
X117647Y-45639D01*
X117638Y-45691D01*
X117633Y-45711D01*
X117618Y-45743D01*
X117596Y-45773D01*
X117569Y-45798D01*
X117556Y-45806D01*
X117556Y-45560D01*
X117555Y-45554D01*
X117551Y-45541D01*
X117548Y-45530D01*
X117535Y-45502D01*
X117516Y-45482D01*
X117493Y-45469D01*
X117468Y-45465D01*
X117443Y-45468D01*
X117419Y-45478D01*
X117399Y-45496D01*
X117383Y-45520D01*
X117376Y-45544D01*
X117373Y-45562D01*
X117464Y-45562D01*
X117495Y-45561D01*
X117521Y-45561D01*
X117541Y-45561D01*
X117553Y-45560D01*
X117556Y-45560D01*
X117556Y-45806D01*
X117539Y-45816D01*
X117531Y-45819D01*
X117494Y-45827D01*
X117454Y-45831D01*
X117417Y-45829D01*
X117400Y-45826D01*
X117357Y-45812D01*
X117319Y-45789D01*
X117313Y-45785D01*
X117298Y-45772D01*
X117293Y-45761D01*
X117297Y-45750D01*
X117311Y-45735D01*
X117312Y-45734D01*
X117331Y-45718D01*
X117344Y-45708D01*
X117353Y-45704D01*
X117362Y-45706D01*
X117371Y-45711D01*
X117378Y-45717D01*
X117410Y-45734D01*
X117442Y-45741D01*
X117473Y-45740D01*
X117501Y-45730D01*
X117525Y-45712D01*
X117543Y-45687D01*
X117552Y-45657D01*
X117556Y-45639D01*
X117423Y-45639D01*
X117289Y-45639D01*
X117289Y-45566D01*
X117290Y-45536D01*
X117290Y-45514D01*
X117292Y-45499D01*
X117294Y-45487D01*
X117299Y-45476D01*
X117305Y-45464D01*
X117306Y-45464D01*
X117332Y-45428D01*
X117365Y-45402D01*
X117404Y-45385D01*
X117448Y-45377D01*
X117464Y-45376D01*
X117506Y-45380D01*
X117541Y-45390D01*
X117572Y-45410D01*
X117588Y-45424D01*
X117612Y-45455D01*
X117631Y-45494D01*
X117643Y-45539D01*
X117648Y-45588D01*
X117648Y-45588D01*
X117648Y-45588D01*
G37*
G36*
X118028Y-45603D02*
X118024Y-45659D01*
X118012Y-45707D01*
X117992Y-45748D01*
X117965Y-45781D01*
X117930Y-45806D01*
X117889Y-45823D01*
X117844Y-45830D01*
X117821Y-45831D01*
X117798Y-45830D01*
X117786Y-45828D01*
X117765Y-45822D01*
X117742Y-45812D01*
X117718Y-45799D01*
X117697Y-45785D01*
X117680Y-45772D01*
X117669Y-45760D01*
X117667Y-45754D01*
X117671Y-45748D01*
X117681Y-45736D01*
X117696Y-45722D01*
X117701Y-45717D01*
X117718Y-45703D01*
X117729Y-45695D01*
X117736Y-45693D01*
X117740Y-45696D01*
X117740Y-45697D01*
X117748Y-45705D01*
X117761Y-45715D01*
X117771Y-45721D01*
X117793Y-45731D01*
X117814Y-45736D01*
X117828Y-45736D01*
X117863Y-45731D01*
X117891Y-45717D01*
X117912Y-45695D01*
X117926Y-45664D01*
X117933Y-45625D01*
X117934Y-45608D01*
X117931Y-45564D01*
X117921Y-45530D01*
X117905Y-45503D01*
X117882Y-45485D01*
X117858Y-45475D01*
X117824Y-45470D01*
X117794Y-45474D01*
X117765Y-45490D01*
X117749Y-45503D01*
X117733Y-45517D01*
X117700Y-45488D01*
X117685Y-45474D01*
X117673Y-45461D01*
X117667Y-45453D01*
X117667Y-45452D01*
X117672Y-45444D01*
X117684Y-45432D01*
X117701Y-45419D01*
X117722Y-45405D01*
X117743Y-45393D01*
X117748Y-45391D01*
X117769Y-45383D01*
X117788Y-45378D01*
X117810Y-45376D01*
X117825Y-45376D01*
X117869Y-45379D01*
X117907Y-45389D01*
X117940Y-45407D01*
X117953Y-45416D01*
X117983Y-45446D01*
X118006Y-45484D01*
X118021Y-45530D01*
X118028Y-45583D01*
X118028Y-45603D01*
X118028Y-45603D01*
X118028Y-45603D01*
G37*
G36*
X118768Y-45378D02*
X118766Y-45549D01*
X118766Y-45600D01*
X118765Y-45642D01*
X118764Y-45675D01*
X118762Y-45700D01*
X118760Y-45721D01*
X118756Y-45736D01*
X118751Y-45749D01*
X118745Y-45760D01*
X118737Y-45770D01*
X118727Y-45782D01*
X118726Y-45783D01*
X118709Y-45798D01*
X118689Y-45812D01*
X118681Y-45817D01*
X118659Y-45824D01*
X118634Y-45829D01*
X118608Y-45832D01*
X118588Y-45831D01*
X118587Y-45830D01*
X118558Y-45822D01*
X118538Y-45813D01*
X118521Y-45800D01*
X118519Y-45799D01*
X118500Y-45783D01*
X118500Y-45805D01*
X118500Y-45828D01*
X118453Y-45828D01*
X118406Y-45828D01*
X118406Y-45603D01*
X118406Y-45378D01*
X118453Y-45378D01*
X118500Y-45378D01*
X118502Y-45527D01*
X118502Y-45575D01*
X118503Y-45614D01*
X118505Y-45645D01*
X118507Y-45668D01*
X118510Y-45685D01*
X118515Y-45698D01*
X118521Y-45707D01*
X118529Y-45715D01*
X118539Y-45722D01*
X118541Y-45723D01*
X118567Y-45735D01*
X118590Y-45737D01*
X118615Y-45730D01*
X118621Y-45727D01*
X118635Y-45720D01*
X118645Y-45713D01*
X118654Y-45705D01*
X118660Y-45694D01*
X118664Y-45678D01*
X118667Y-45658D01*
X118669Y-45631D01*
X118671Y-45596D01*
X118671Y-45552D01*
X118672Y-45527D01*
X118673Y-45378D01*
X118721Y-45378D01*
X118768Y-45378D01*
X118768Y-45378D01*
X118768Y-45378D01*
G37*
G36*
X119203Y-45603D02*
X119202Y-45647D01*
X119199Y-45682D01*
X119194Y-45710D01*
X119186Y-45733D01*
X119174Y-45753D01*
X119161Y-45769D01*
X119130Y-45798D01*
X119109Y-45810D01*
X119109Y-45611D01*
X119109Y-45603D01*
X119108Y-45569D01*
X119106Y-45544D01*
X119102Y-45525D01*
X119094Y-45510D01*
X119084Y-45497D01*
X119077Y-45491D01*
X119054Y-45477D01*
X119027Y-45471D01*
X119000Y-45474D01*
X118975Y-45484D01*
X118954Y-45501D01*
X118939Y-45525D01*
X118939Y-45527D01*
X118935Y-45544D01*
X118933Y-45569D01*
X118932Y-45598D01*
X118932Y-45628D01*
X118934Y-45654D01*
X118937Y-45674D01*
X118938Y-45679D01*
X118952Y-45704D01*
X118974Y-45723D01*
X118999Y-45734D01*
X119028Y-45736D01*
X119056Y-45730D01*
X119068Y-45724D01*
X119080Y-45714D01*
X119092Y-45698D01*
X119096Y-45693D01*
X119101Y-45682D01*
X119105Y-45671D01*
X119107Y-45657D01*
X119108Y-45638D01*
X119109Y-45611D01*
X119109Y-45810D01*
X119095Y-45818D01*
X119059Y-45828D01*
X119036Y-45832D01*
X119018Y-45833D01*
X119000Y-45832D01*
X118979Y-45828D01*
X118938Y-45814D01*
X118902Y-45792D01*
X118873Y-45762D01*
X118855Y-45730D01*
X118845Y-45698D01*
X118838Y-45659D01*
X118836Y-45615D01*
X118837Y-45571D01*
X118842Y-45529D01*
X118850Y-45492D01*
X118859Y-45469D01*
X118882Y-45434D01*
X118912Y-45407D01*
X118950Y-45388D01*
X118993Y-45378D01*
X119020Y-45376D01*
X119061Y-45379D01*
X119096Y-45389D01*
X119128Y-45407D01*
X119151Y-45428D01*
X119169Y-45448D01*
X119183Y-45467D01*
X119192Y-45488D01*
X119198Y-45513D01*
X119202Y-45544D01*
X119203Y-45583D01*
X119203Y-45603D01*
X119203Y-45603D01*
X119203Y-45603D01*
G37*
G36*
X119635Y-45750D02*
X119619Y-45763D01*
X119570Y-45796D01*
X119518Y-45818D01*
X119464Y-45830D01*
X119410Y-45831D01*
X119384Y-45828D01*
X119345Y-45817D01*
X119310Y-45800D01*
X119283Y-45778D01*
X119263Y-45752D01*
X119256Y-45734D01*
X119250Y-45697D01*
X119253Y-45660D01*
X119264Y-45627D01*
X119280Y-45602D01*
X119296Y-45586D01*
X119316Y-45575D01*
X119340Y-45566D01*
X119371Y-45560D01*
X119406Y-45556D01*
X119433Y-45554D01*
X119457Y-45551D01*
X119475Y-45547D01*
X119484Y-45545D01*
X119500Y-45533D01*
X119506Y-45516D01*
X119504Y-45498D01*
X119493Y-45481D01*
X119487Y-45477D01*
X119476Y-45470D01*
X119462Y-45467D01*
X119441Y-45466D01*
X119432Y-45466D01*
X119409Y-45467D01*
X119392Y-45470D01*
X119373Y-45477D01*
X119355Y-45486D01*
X119316Y-45505D01*
X119299Y-45486D01*
X119286Y-45471D01*
X119274Y-45456D01*
X119271Y-45452D01*
X119259Y-45438D01*
X119278Y-45422D01*
X119305Y-45405D01*
X119339Y-45391D01*
X119377Y-45381D01*
X119415Y-45375D01*
X119452Y-45375D01*
X119458Y-45376D01*
X119504Y-45385D01*
X119542Y-45401D01*
X119570Y-45423D01*
X119589Y-45452D01*
X119599Y-45487D01*
X119601Y-45511D01*
X119598Y-45546D01*
X119588Y-45574D01*
X119570Y-45598D01*
X119560Y-45608D01*
X119546Y-45619D01*
X119530Y-45627D01*
X119511Y-45634D01*
X119487Y-45639D01*
X119455Y-45643D01*
X119436Y-45645D01*
X119401Y-45649D01*
X119378Y-45654D01*
X119361Y-45661D01*
X119351Y-45671D01*
X119347Y-45684D01*
X119346Y-45688D01*
X119349Y-45707D01*
X119361Y-45722D01*
X119380Y-45733D01*
X119404Y-45740D01*
X119433Y-45742D01*
X119465Y-45739D01*
X119497Y-45730D01*
X119506Y-45726D01*
X119522Y-45718D01*
X119540Y-45706D01*
X119547Y-45701D01*
X119568Y-45683D01*
X119602Y-45717D01*
X119635Y-45750D01*
X119635Y-45750D01*
X119635Y-45750D01*
G37*
G36*
X120661Y-45591D02*
X120659Y-45628D01*
X120656Y-45664D01*
X120651Y-45696D01*
X120645Y-45718D01*
X120624Y-45757D01*
X120596Y-45788D01*
X120560Y-45811D01*
X120517Y-45826D01*
X120508Y-45828D01*
X120483Y-45832D01*
X120463Y-45833D01*
X120442Y-45831D01*
X120420Y-45828D01*
X120379Y-45816D01*
X120340Y-45794D01*
X120321Y-45779D01*
X120298Y-45758D01*
X120332Y-45729D01*
X120348Y-45716D01*
X120361Y-45706D01*
X120368Y-45701D01*
X120369Y-45700D01*
X120375Y-45704D01*
X120386Y-45712D01*
X120389Y-45714D01*
X120412Y-45728D01*
X120439Y-45738D01*
X120467Y-45742D01*
X120484Y-45741D01*
X120514Y-45732D01*
X120539Y-45714D01*
X120556Y-45690D01*
X120565Y-45662D01*
X120568Y-45639D01*
X120566Y-45639D01*
X120566Y-45549D01*
X120563Y-45531D01*
X120554Y-45510D01*
X120542Y-45492D01*
X120531Y-45481D01*
X120503Y-45468D01*
X120473Y-45465D01*
X120445Y-45472D01*
X120420Y-45489D01*
X120419Y-45489D01*
X120405Y-45507D01*
X120394Y-45529D01*
X120389Y-45550D01*
X120389Y-45555D01*
X120393Y-45558D01*
X120406Y-45560D01*
X120428Y-45561D01*
X120460Y-45562D01*
X120477Y-45562D01*
X120511Y-45562D01*
X120534Y-45561D01*
X120550Y-45561D01*
X120560Y-45559D01*
X120564Y-45557D01*
X120566Y-45553D01*
X120566Y-45549D01*
X120566Y-45639D01*
X120430Y-45639D01*
X120293Y-45639D01*
X120295Y-45574D01*
X120298Y-45533D01*
X120303Y-45501D01*
X120312Y-45475D01*
X120326Y-45452D01*
X120345Y-45430D01*
X120353Y-45423D01*
X120387Y-45398D01*
X120425Y-45383D01*
X120467Y-45376D01*
X120477Y-45376D01*
X120523Y-45381D01*
X120563Y-45395D01*
X120596Y-45419D01*
X120624Y-45451D01*
X120644Y-45491D01*
X120655Y-45529D01*
X120659Y-45557D01*
X120661Y-45591D01*
X120661Y-45591D01*
X120661Y-45591D01*
G37*
G36*
X121513Y-45625D02*
X121509Y-45667D01*
X121502Y-45706D01*
X121492Y-45736D01*
X121491Y-45737D01*
X121469Y-45771D01*
X121439Y-45798D01*
X121420Y-45808D01*
X121420Y-45613D01*
X121419Y-45581D01*
X121415Y-45550D01*
X121409Y-45524D01*
X121401Y-45507D01*
X121401Y-45506D01*
X121379Y-45486D01*
X121351Y-45474D01*
X121327Y-45471D01*
X121297Y-45475D01*
X121274Y-45487D01*
X121257Y-45508D01*
X121246Y-45537D01*
X121240Y-45576D01*
X121240Y-45586D01*
X121239Y-45615D01*
X121241Y-45642D01*
X121244Y-45664D01*
X121244Y-45665D01*
X121255Y-45695D01*
X121274Y-45717D01*
X121298Y-45732D01*
X121325Y-45737D01*
X121354Y-45733D01*
X121374Y-45724D01*
X121392Y-45710D01*
X121405Y-45692D01*
X121413Y-45666D01*
X121417Y-45645D01*
X121420Y-45613D01*
X121420Y-45808D01*
X121403Y-45817D01*
X121363Y-45829D01*
X121320Y-45832D01*
X121280Y-45826D01*
X121243Y-45813D01*
X121212Y-45792D01*
X121189Y-45769D01*
X121174Y-45750D01*
X121163Y-45731D01*
X121155Y-45709D01*
X121150Y-45683D01*
X121148Y-45650D01*
X121147Y-45609D01*
X121147Y-45603D01*
X121148Y-45561D01*
X121150Y-45527D01*
X121154Y-45500D01*
X121162Y-45478D01*
X121173Y-45458D01*
X121187Y-45440D01*
X121189Y-45437D01*
X121220Y-45408D01*
X121254Y-45389D01*
X121294Y-45378D01*
X121295Y-45378D01*
X121340Y-45375D01*
X121383Y-45382D01*
X121422Y-45397D01*
X121455Y-45421D01*
X121482Y-45452D01*
X121491Y-45469D01*
X121502Y-45500D01*
X121509Y-45538D01*
X121513Y-45581D01*
X121513Y-45625D01*
X121513Y-45625D01*
X121513Y-45625D01*
G37*
G36*
X118317Y-45828D02*
X118270Y-45828D01*
X118223Y-45828D01*
X118222Y-45676D01*
X118221Y-45631D01*
X118220Y-45595D01*
X118220Y-45568D01*
X118219Y-45548D01*
X118217Y-45533D01*
X118216Y-45523D01*
X118213Y-45516D01*
X118210Y-45511D01*
X118208Y-45508D01*
X118195Y-45493D01*
X118182Y-45482D01*
X118163Y-45473D01*
X118139Y-45470D01*
X118115Y-45474D01*
X118099Y-45480D01*
X118087Y-45487D01*
X118079Y-45489D01*
X118079Y-45488D01*
X118074Y-45484D01*
X118063Y-45472D01*
X118049Y-45456D01*
X118042Y-45449D01*
X118026Y-45430D01*
X118018Y-45417D01*
X118017Y-45408D01*
X118024Y-45401D01*
X118039Y-45393D01*
X118050Y-45388D01*
X118083Y-45378D01*
X118118Y-45376D01*
X118153Y-45382D01*
X118186Y-45394D01*
X118210Y-45411D01*
X118223Y-45423D01*
X118223Y-45401D01*
X118223Y-45378D01*
X118270Y-45378D01*
X118317Y-45378D01*
X118317Y-45603D01*
X118317Y-45828D01*
X118317Y-45828D01*
X118317Y-45828D01*
G37*
G36*
X120222Y-45828D02*
X120175Y-45828D01*
X120127Y-45828D01*
X120127Y-45679D01*
X120127Y-45634D01*
X120127Y-45599D01*
X120127Y-45573D01*
X120126Y-45553D01*
X120125Y-45539D01*
X120123Y-45529D01*
X120121Y-45522D01*
X120118Y-45516D01*
X120115Y-45511D01*
X120096Y-45489D01*
X120075Y-45476D01*
X120050Y-45471D01*
X120044Y-45471D01*
X120018Y-45474D01*
X119996Y-45485D01*
X119977Y-45506D01*
X119975Y-45508D01*
X119972Y-45513D01*
X119969Y-45519D01*
X119967Y-45528D01*
X119965Y-45540D01*
X119964Y-45557D01*
X119963Y-45580D01*
X119963Y-45611D01*
X119962Y-45651D01*
X119962Y-45676D01*
X119960Y-45828D01*
X119913Y-45828D01*
X119866Y-45828D01*
X119867Y-45655D01*
X119868Y-45603D01*
X119869Y-45561D01*
X119870Y-45527D01*
X119871Y-45501D01*
X119874Y-45480D01*
X119878Y-45464D01*
X119883Y-45452D01*
X119889Y-45441D01*
X119898Y-45431D01*
X119908Y-45420D01*
X119910Y-45418D01*
X119940Y-45396D01*
X119974Y-45382D01*
X120012Y-45376D01*
X120049Y-45378D01*
X120085Y-45389D01*
X120116Y-45409D01*
X120118Y-45410D01*
X120124Y-45415D01*
X120127Y-45412D01*
X120127Y-45401D01*
X120127Y-45399D01*
X120127Y-45378D01*
X120175Y-45378D01*
X120222Y-45378D01*
X120222Y-45603D01*
X120222Y-45828D01*
X120222Y-45828D01*
X120222Y-45828D01*
G37*
G54D12*
X35013Y-40716D02*
X38556Y-40716D01*
X38556Y-40716D02*
X38556Y-37684D01*
X38556Y-37684D02*
X35013Y-37684D01*
X35013Y-37684D02*
X35013Y-40716D01*
X117484Y-30213D02*
X117484Y-33756D01*
X117484Y-33756D02*
X120516Y-33756D01*
X120516Y-33756D02*
X120516Y-30213D01*
X120516Y-30213D02*
X117484Y-30213D01*
G54D13*
X78030Y-58770D02*
X81970Y-58770D01*
X81970Y-58770D02*
X81970Y-54830D01*
X78220Y-54830D02*
X81970Y-54830D01*
X78030Y-55020D02*
X78030Y-58770D01*
X78220Y-54830D02*
X78030Y-55020D01*
G54D14*
X78750Y-55300D02*
G75*
G03X78750Y-55300I-250J0D01*
G74*
G01*
G54D15*
X79257Y-52200D02*
X79700Y-52200D01*
X79700Y-52200D02*
X79700Y-51400D01*
X79700Y-51400D02*
X79257Y-51400D01*
X78331Y-52200D02*
X77900Y-52200D01*
X77900Y-52200D02*
X77900Y-51400D01*
X77900Y-51400D02*
X78331Y-51400D01*
G54D16*
X79150Y-51950D02*
X79150Y-51650D01*
X78975Y-51950D02*
X78975Y-51650D01*
X78975Y-51650D02*
X79125Y-51800D01*
X79125Y-51800D02*
X78975Y-51950D01*
G54D15*
X71757Y-52200D02*
X72200Y-52200D01*
X72200Y-52200D02*
X72200Y-51400D01*
X72200Y-51400D02*
X71757Y-51400D01*
X70831Y-52200D02*
X70400Y-52200D01*
X70400Y-52200D02*
X70400Y-51400D01*
X70400Y-51400D02*
X70831Y-51400D01*
G54D16*
X71650Y-51950D02*
X71650Y-51650D01*
X71475Y-51950D02*
X71475Y-51650D01*
X71475Y-51650D02*
X71625Y-51800D01*
X71625Y-51800D02*
X71475Y-51950D01*
G54D15*
X40257Y-37200D02*
X40700Y-37200D01*
X40700Y-37200D02*
X40700Y-36400D01*
X40700Y-36400D02*
X40257Y-36400D01*
X39331Y-37200D02*
X38900Y-37200D01*
X38900Y-37200D02*
X38900Y-36400D01*
X38900Y-36400D02*
X39331Y-36400D01*
G54D16*
X40150Y-36950D02*
X40150Y-36650D01*
X39975Y-36950D02*
X39975Y-36650D01*
X39975Y-36650D02*
X40125Y-36800D01*
X40125Y-36800D02*
X39975Y-36950D01*
G54D15*
X86757Y-52200D02*
X87200Y-52200D01*
X87200Y-52200D02*
X87200Y-51400D01*
X87200Y-51400D02*
X86757Y-51400D01*
X85831Y-52200D02*
X85400Y-52200D01*
X85400Y-52200D02*
X85400Y-51400D01*
X85400Y-51400D02*
X85831Y-51400D01*
G54D16*
X86650Y-51950D02*
X86650Y-51650D01*
X86475Y-51950D02*
X86475Y-51650D01*
X86475Y-51650D02*
X86625Y-51800D01*
X86625Y-51800D02*
X86475Y-51950D01*
G54D15*
X67957Y-37200D02*
X68400Y-37200D01*
X68400Y-37200D02*
X68400Y-36400D01*
X68400Y-36400D02*
X67957Y-36400D01*
X67031Y-37200D02*
X66600Y-37200D01*
X66600Y-37200D02*
X66600Y-36400D01*
X66600Y-36400D02*
X67031Y-36400D01*
G54D16*
X67850Y-36950D02*
X67850Y-36650D01*
X67675Y-36950D02*
X67675Y-36650D01*
X67675Y-36650D02*
X67825Y-36800D01*
X67825Y-36800D02*
X67675Y-36950D01*
G54D15*
X70757Y-59700D02*
X71200Y-59700D01*
X71200Y-59700D02*
X71200Y-58900D01*
X71200Y-58900D02*
X70757Y-58900D01*
X69831Y-59700D02*
X69400Y-59700D01*
X69400Y-59700D02*
X69400Y-58900D01*
X69400Y-58900D02*
X69831Y-58900D01*
G54D16*
X70650Y-59450D02*
X70650Y-59150D01*
X70475Y-59450D02*
X70475Y-59150D01*
X70475Y-59150D02*
X70625Y-59300D01*
X70625Y-59300D02*
X70475Y-59450D01*
G54D15*
X64257Y-52200D02*
X64700Y-52200D01*
X64700Y-52200D02*
X64700Y-51400D01*
X64700Y-51400D02*
X64257Y-51400D01*
X63331Y-52200D02*
X62900Y-52200D01*
X62900Y-52200D02*
X62900Y-51400D01*
X62900Y-51400D02*
X63331Y-51400D01*
G54D16*
X64150Y-51950D02*
X64150Y-51650D01*
X63975Y-51950D02*
X63975Y-51650D01*
X63975Y-51650D02*
X64125Y-51800D01*
X64125Y-51800D02*
X63975Y-51950D01*
G54D15*
X62357Y-44700D02*
X62800Y-44700D01*
X62800Y-44700D02*
X62800Y-43900D01*
X62800Y-43900D02*
X62357Y-43900D01*
X61431Y-44700D02*
X61000Y-44700D01*
X61000Y-44700D02*
X61000Y-43900D01*
X61000Y-43900D02*
X61431Y-43900D01*
G54D16*
X62250Y-44450D02*
X62250Y-44150D01*
X62075Y-44450D02*
X62075Y-44150D01*
X62075Y-44150D02*
X62225Y-44300D01*
X62225Y-44300D02*
X62075Y-44450D01*
G54D15*
X60457Y-37200D02*
X60900Y-37200D01*
X60900Y-37200D02*
X60900Y-36400D01*
X60900Y-36400D02*
X60457Y-36400D01*
X59531Y-37200D02*
X59100Y-37200D01*
X59100Y-37200D02*
X59100Y-36400D01*
X59100Y-36400D02*
X59531Y-36400D01*
G54D16*
X60350Y-36950D02*
X60350Y-36650D01*
X60175Y-36950D02*
X60175Y-36650D01*
X60175Y-36650D02*
X60325Y-36800D01*
X60325Y-36800D02*
X60175Y-36950D01*
G54D15*
X84857Y-44700D02*
X85300Y-44700D01*
X85300Y-44700D02*
X85300Y-43900D01*
X85300Y-43900D02*
X84857Y-43900D01*
X83931Y-44700D02*
X83500Y-44700D01*
X83500Y-44700D02*
X83500Y-43900D01*
X83500Y-43900D02*
X83931Y-43900D01*
G54D16*
X84750Y-44450D02*
X84750Y-44150D01*
X84575Y-44450D02*
X84575Y-44150D01*
X84575Y-44150D02*
X84725Y-44300D01*
X84725Y-44300D02*
X84575Y-44450D01*
G54D15*
X82957Y-37200D02*
X83400Y-37200D01*
X83400Y-37200D02*
X83400Y-36400D01*
X83400Y-36400D02*
X82957Y-36400D01*
X82031Y-37200D02*
X81600Y-37200D01*
X81600Y-37200D02*
X81600Y-36400D01*
X81600Y-36400D02*
X82031Y-36400D01*
G54D16*
X82850Y-36950D02*
X82850Y-36650D01*
X82675Y-36950D02*
X82675Y-36650D01*
X82675Y-36650D02*
X82825Y-36800D01*
X82825Y-36800D02*
X82675Y-36950D01*
G54D15*
X90457Y-37200D02*
X90900Y-37200D01*
X90900Y-37200D02*
X90900Y-36400D01*
X90900Y-36400D02*
X90457Y-36400D01*
X89531Y-37200D02*
X89100Y-37200D01*
X89100Y-37200D02*
X89100Y-36400D01*
X89100Y-36400D02*
X89531Y-36400D01*
G54D16*
X90350Y-36950D02*
X90350Y-36650D01*
X90175Y-36950D02*
X90175Y-36650D01*
X90175Y-36650D02*
X90325Y-36800D01*
X90325Y-36800D02*
X90175Y-36950D01*
G54D15*
X77357Y-44700D02*
X77800Y-44700D01*
X77800Y-44700D02*
X77800Y-43900D01*
X77800Y-43900D02*
X77357Y-43900D01*
X76431Y-44700D02*
X76000Y-44700D01*
X76000Y-44700D02*
X76000Y-43900D01*
X76000Y-43900D02*
X76431Y-43900D01*
G54D16*
X77250Y-44450D02*
X77250Y-44150D01*
X77075Y-44450D02*
X77075Y-44150D01*
X77075Y-44150D02*
X77225Y-44300D01*
X77225Y-44300D02*
X77075Y-44450D01*
G54D15*
X57657Y-59700D02*
X58100Y-59700D01*
X58100Y-59700D02*
X58100Y-58900D01*
X58100Y-58900D02*
X57657Y-58900D01*
X56731Y-59700D02*
X56300Y-59700D01*
X56300Y-59700D02*
X56300Y-58900D01*
X56300Y-58900D02*
X56731Y-58900D01*
G54D16*
X57550Y-59450D02*
X57550Y-59150D01*
X57375Y-59450D02*
X57375Y-59150D01*
X57375Y-59150D02*
X57525Y-59300D01*
X57525Y-59300D02*
X57375Y-59450D01*
G54D15*
X48257Y-59700D02*
X48700Y-59700D01*
X48700Y-59700D02*
X48700Y-58900D01*
X48700Y-58900D02*
X48257Y-58900D01*
X47331Y-59700D02*
X46900Y-59700D01*
X46900Y-59700D02*
X46900Y-58900D01*
X46900Y-58900D02*
X47331Y-58900D01*
G54D16*
X48150Y-59450D02*
X48150Y-59150D01*
X47975Y-59450D02*
X47975Y-59150D01*
X47975Y-59150D02*
X48125Y-59300D01*
X48125Y-59300D02*
X47975Y-59450D01*
G54D15*
X56757Y-52200D02*
X57200Y-52200D01*
X57200Y-52200D02*
X57200Y-51400D01*
X57200Y-51400D02*
X56757Y-51400D01*
X55831Y-52200D02*
X55400Y-52200D01*
X55400Y-52200D02*
X55400Y-51400D01*
X55400Y-51400D02*
X55831Y-51400D01*
G54D16*
X56650Y-51950D02*
X56650Y-51650D01*
X56475Y-51950D02*
X56475Y-51650D01*
X56475Y-51650D02*
X56625Y-51800D01*
X56625Y-51800D02*
X56475Y-51950D01*
G54D15*
X54857Y-44700D02*
X55300Y-44700D01*
X55300Y-44700D02*
X55300Y-43900D01*
X55300Y-43900D02*
X54857Y-43900D01*
X53931Y-44700D02*
X53500Y-44700D01*
X53500Y-44700D02*
X53500Y-43900D01*
X53500Y-43900D02*
X53931Y-43900D01*
G54D16*
X54750Y-44450D02*
X54750Y-44150D01*
X54575Y-44450D02*
X54575Y-44150D01*
X54575Y-44150D02*
X54725Y-44300D01*
X54725Y-44300D02*
X54575Y-44450D01*
G54D15*
X49257Y-52200D02*
X49700Y-52200D01*
X49700Y-52200D02*
X49700Y-51400D01*
X49700Y-51400D02*
X49257Y-51400D01*
X48331Y-52200D02*
X47900Y-52200D01*
X47900Y-52200D02*
X47900Y-51400D01*
X47900Y-51400D02*
X48331Y-51400D01*
G54D16*
X49150Y-51950D02*
X49150Y-51650D01*
X48975Y-51950D02*
X48975Y-51650D01*
X48975Y-51650D02*
X49125Y-51800D01*
X49125Y-51800D02*
X48975Y-51950D01*
G54D15*
X47357Y-44700D02*
X47800Y-44700D01*
X47800Y-44700D02*
X47800Y-43900D01*
X47800Y-43900D02*
X47357Y-43900D01*
X46431Y-44700D02*
X46000Y-44700D01*
X46000Y-44700D02*
X46000Y-43900D01*
X46000Y-43900D02*
X46431Y-43900D01*
G54D16*
X47250Y-44450D02*
X47250Y-44150D01*
X47075Y-44450D02*
X47075Y-44150D01*
X47075Y-44150D02*
X47225Y-44300D01*
X47225Y-44300D02*
X47075Y-44450D01*
G54D15*
X38957Y-44700D02*
X39400Y-44700D01*
X39400Y-44700D02*
X39400Y-43900D01*
X39400Y-43900D02*
X38957Y-43900D01*
X38031Y-44700D02*
X37600Y-44700D01*
X37600Y-44700D02*
X37600Y-43900D01*
X37600Y-43900D02*
X38031Y-43900D01*
G54D16*
X38850Y-44450D02*
X38850Y-44150D01*
X38675Y-44450D02*
X38675Y-44150D01*
X38675Y-44150D02*
X38825Y-44300D01*
X38825Y-44300D02*
X38675Y-44450D01*
G54D15*
X52957Y-37200D02*
X53400Y-37200D01*
X53400Y-37200D02*
X53400Y-36400D01*
X53400Y-36400D02*
X52957Y-36400D01*
X52031Y-37200D02*
X51600Y-37200D01*
X51600Y-37200D02*
X51600Y-36400D01*
X51600Y-36400D02*
X52031Y-36400D01*
G54D16*
X52850Y-36950D02*
X52850Y-36650D01*
X52675Y-36950D02*
X52675Y-36650D01*
X52675Y-36650D02*
X52825Y-36800D01*
X52825Y-36800D02*
X52675Y-36950D01*
G54D15*
X45557Y-37100D02*
X46000Y-37100D01*
X46000Y-37100D02*
X46000Y-36300D01*
X46000Y-36300D02*
X45557Y-36300D01*
X44631Y-37100D02*
X44200Y-37100D01*
X44200Y-37100D02*
X44200Y-36300D01*
X44200Y-36300D02*
X44631Y-36300D01*
G54D16*
X45450Y-36850D02*
X45450Y-36550D01*
X45275Y-36850D02*
X45275Y-36550D01*
X45275Y-36550D02*
X45425Y-36700D01*
X45425Y-36700D02*
X45275Y-36850D01*
G54D15*
X114857Y-44700D02*
X115300Y-44700D01*
X115300Y-44700D02*
X115300Y-43900D01*
X115300Y-43900D02*
X114857Y-43900D01*
X113931Y-44700D02*
X113500Y-44700D01*
X113500Y-44700D02*
X113500Y-43900D01*
X113500Y-43900D02*
X113931Y-43900D01*
G54D16*
X114750Y-44450D02*
X114750Y-44150D01*
X114575Y-44450D02*
X114575Y-44150D01*
X114575Y-44150D02*
X114725Y-44300D01*
X114725Y-44300D02*
X114575Y-44450D01*
G54D15*
X39857Y-52200D02*
X40300Y-52200D01*
X40300Y-52200D02*
X40300Y-51400D01*
X40300Y-51400D02*
X39857Y-51400D01*
X38931Y-52200D02*
X38500Y-52200D01*
X38500Y-52200D02*
X38500Y-51400D01*
X38500Y-51400D02*
X38931Y-51400D01*
G54D16*
X39750Y-51950D02*
X39750Y-51650D01*
X39575Y-51950D02*
X39575Y-51650D01*
X39575Y-51650D02*
X39725Y-51800D01*
X39725Y-51800D02*
X39575Y-51950D01*
G54D15*
X101757Y-52200D02*
X102200Y-52200D01*
X102200Y-52200D02*
X102200Y-51400D01*
X102200Y-51400D02*
X101757Y-51400D01*
X100831Y-52200D02*
X100400Y-52200D01*
X100400Y-52200D02*
X100400Y-51400D01*
X100400Y-51400D02*
X100831Y-51400D01*
G54D16*
X101650Y-51950D02*
X101650Y-51650D01*
X101475Y-51950D02*
X101475Y-51650D01*
X101475Y-51650D02*
X101625Y-51800D01*
X101625Y-51800D02*
X101475Y-51950D01*
G54D15*
X94257Y-52200D02*
X94700Y-52200D01*
X94700Y-52200D02*
X94700Y-51400D01*
X94700Y-51400D02*
X94257Y-51400D01*
X93331Y-52200D02*
X92900Y-52200D01*
X92900Y-52200D02*
X92900Y-51400D01*
X92900Y-51400D02*
X93331Y-51400D01*
G54D16*
X94150Y-51950D02*
X94150Y-51650D01*
X93975Y-51950D02*
X93975Y-51650D01*
X93975Y-51650D02*
X94125Y-51800D01*
X94125Y-51800D02*
X93975Y-51950D01*
G54D15*
X75457Y-37200D02*
X75900Y-37200D01*
X75900Y-37200D02*
X75900Y-36400D01*
X75900Y-36400D02*
X75457Y-36400D01*
X74531Y-37200D02*
X74100Y-37200D01*
X74100Y-37200D02*
X74100Y-36400D01*
X74100Y-36400D02*
X74531Y-36400D01*
G54D16*
X75350Y-36950D02*
X75350Y-36650D01*
X75175Y-36950D02*
X75175Y-36650D01*
X75175Y-36650D02*
X75325Y-36800D01*
X75325Y-36800D02*
X75175Y-36950D01*
G54D15*
X122357Y-37200D02*
X122800Y-37200D01*
X122800Y-37200D02*
X122800Y-36400D01*
X122800Y-36400D02*
X122357Y-36400D01*
X121431Y-37200D02*
X121000Y-37200D01*
X121000Y-37200D02*
X121000Y-36400D01*
X121000Y-36400D02*
X121431Y-36400D01*
G54D16*
X122250Y-36950D02*
X122250Y-36650D01*
X122075Y-36950D02*
X122075Y-36650D01*
X122075Y-36650D02*
X122225Y-36800D01*
X122225Y-36800D02*
X122075Y-36950D01*
G54D15*
X123257Y-44700D02*
X123700Y-44700D01*
X123700Y-44700D02*
X123700Y-43900D01*
X123700Y-43900D02*
X123257Y-43900D01*
X122331Y-44700D02*
X121900Y-44700D01*
X121900Y-44700D02*
X121900Y-43900D01*
X121900Y-43900D02*
X122331Y-43900D01*
G54D16*
X123150Y-44450D02*
X123150Y-44150D01*
X122975Y-44450D02*
X122975Y-44150D01*
X122975Y-44150D02*
X123125Y-44300D01*
X123125Y-44300D02*
X122975Y-44450D01*
G54D15*
X116757Y-59700D02*
X117200Y-59700D01*
X117200Y-59700D02*
X117200Y-58900D01*
X117200Y-58900D02*
X116757Y-58900D01*
X115831Y-59700D02*
X115400Y-59700D01*
X115400Y-59700D02*
X115400Y-58900D01*
X115400Y-58900D02*
X115831Y-58900D01*
G54D16*
X116650Y-59450D02*
X116650Y-59150D01*
X116475Y-59450D02*
X116475Y-59150D01*
X116475Y-59150D02*
X116625Y-59300D01*
X116625Y-59300D02*
X116475Y-59450D01*
G54D15*
X124257Y-52200D02*
X124700Y-52200D01*
X124700Y-52200D02*
X124700Y-51400D01*
X124700Y-51400D02*
X124257Y-51400D01*
X123331Y-52200D02*
X122900Y-52200D01*
X122900Y-52200D02*
X122900Y-51400D01*
X122900Y-51400D02*
X123331Y-51400D01*
G54D16*
X124150Y-51950D02*
X124150Y-51650D01*
X123975Y-51950D02*
X123975Y-51650D01*
X123975Y-51650D02*
X124125Y-51800D01*
X124125Y-51800D02*
X123975Y-51950D01*
G54D15*
X112957Y-37200D02*
X113400Y-37200D01*
X113400Y-37200D02*
X113400Y-36400D01*
X113400Y-36400D02*
X112957Y-36400D01*
X112031Y-37200D02*
X111600Y-37200D01*
X111600Y-37200D02*
X111600Y-36400D01*
X111600Y-36400D02*
X112031Y-36400D01*
G54D16*
X112850Y-36950D02*
X112850Y-36650D01*
X112675Y-36950D02*
X112675Y-36650D01*
X112675Y-36650D02*
X112825Y-36800D01*
X112825Y-36800D02*
X112675Y-36950D01*
G54D15*
X116757Y-52200D02*
X117200Y-52200D01*
X117200Y-52200D02*
X117200Y-51400D01*
X117200Y-51400D02*
X116757Y-51400D01*
X115831Y-52200D02*
X115400Y-52200D01*
X115400Y-52200D02*
X115400Y-51400D01*
X115400Y-51400D02*
X115831Y-51400D01*
G54D16*
X116650Y-51950D02*
X116650Y-51650D01*
X116475Y-51950D02*
X116475Y-51650D01*
X116475Y-51650D02*
X116625Y-51800D01*
X116625Y-51800D02*
X116475Y-51950D01*
G54D15*
X92357Y-44700D02*
X92800Y-44700D01*
X92800Y-44700D02*
X92800Y-43900D01*
X92800Y-43900D02*
X92357Y-43900D01*
X91431Y-44700D02*
X91000Y-44700D01*
X91000Y-44700D02*
X91000Y-43900D01*
X91000Y-43900D02*
X91431Y-43900D01*
G54D16*
X92250Y-44450D02*
X92250Y-44150D01*
X92075Y-44450D02*
X92075Y-44150D01*
X92075Y-44150D02*
X92225Y-44300D01*
X92225Y-44300D02*
X92075Y-44450D01*
G54D15*
X109257Y-59700D02*
X109700Y-59700D01*
X109700Y-59700D02*
X109700Y-58900D01*
X109700Y-58900D02*
X109257Y-58900D01*
X108331Y-59700D02*
X107900Y-59700D01*
X107900Y-59700D02*
X107900Y-58900D01*
X107900Y-58900D02*
X108331Y-58900D01*
G54D16*
X109150Y-59450D02*
X109150Y-59150D01*
X108975Y-59450D02*
X108975Y-59150D01*
X108975Y-59150D02*
X109125Y-59300D01*
X109125Y-59300D02*
X108975Y-59450D01*
G54D15*
X109257Y-52200D02*
X109700Y-52200D01*
X109700Y-52200D02*
X109700Y-51400D01*
X109700Y-51400D02*
X109257Y-51400D01*
X108331Y-52200D02*
X107900Y-52200D01*
X107900Y-52200D02*
X107900Y-51400D01*
X107900Y-51400D02*
X108331Y-51400D01*
G54D16*
X109150Y-51950D02*
X109150Y-51650D01*
X108975Y-51950D02*
X108975Y-51650D01*
X108975Y-51650D02*
X109125Y-51800D01*
X109125Y-51800D02*
X108975Y-51950D01*
G54D15*
X105457Y-37200D02*
X105900Y-37200D01*
X105900Y-37200D02*
X105900Y-36400D01*
X105900Y-36400D02*
X105457Y-36400D01*
X104531Y-37200D02*
X104100Y-37200D01*
X104100Y-37200D02*
X104100Y-36400D01*
X104100Y-36400D02*
X104531Y-36400D01*
G54D16*
X105350Y-36950D02*
X105350Y-36650D01*
X105175Y-36950D02*
X105175Y-36650D01*
X105175Y-36650D02*
X105325Y-36800D01*
X105325Y-36800D02*
X105175Y-36950D01*
G54D15*
X107357Y-44700D02*
X107800Y-44700D01*
X107800Y-44700D02*
X107800Y-43900D01*
X107800Y-43900D02*
X107357Y-43900D01*
X106431Y-44700D02*
X106000Y-44700D01*
X106000Y-44700D02*
X106000Y-43900D01*
X106000Y-43900D02*
X106431Y-43900D01*
G54D16*
X107250Y-44450D02*
X107250Y-44150D01*
X107075Y-44450D02*
X107075Y-44150D01*
X107075Y-44150D02*
X107225Y-44300D01*
X107225Y-44300D02*
X107075Y-44450D01*
G54D15*
X69857Y-44700D02*
X70300Y-44700D01*
X70300Y-44700D02*
X70300Y-43900D01*
X70300Y-43900D02*
X69857Y-43900D01*
X68931Y-44700D02*
X68500Y-44700D01*
X68500Y-44700D02*
X68500Y-43900D01*
X68500Y-43900D02*
X68931Y-43900D01*
G54D16*
X69750Y-44450D02*
X69750Y-44150D01*
X69575Y-44450D02*
X69575Y-44150D01*
X69575Y-44150D02*
X69725Y-44300D01*
X69725Y-44300D02*
X69575Y-44450D01*
G54D15*
X99857Y-44700D02*
X100300Y-44700D01*
X100300Y-44700D02*
X100300Y-43900D01*
X100300Y-43900D02*
X99857Y-43900D01*
X98931Y-44700D02*
X98500Y-44700D01*
X98500Y-44700D02*
X98500Y-43900D01*
X98500Y-43900D02*
X98931Y-43900D01*
G54D16*
X99750Y-44450D02*
X99750Y-44150D01*
X99575Y-44450D02*
X99575Y-44150D01*
X99575Y-44150D02*
X99725Y-44300D01*
X99725Y-44300D02*
X99575Y-44450D01*
G54D15*
X97957Y-37200D02*
X98400Y-37200D01*
X98400Y-37200D02*
X98400Y-36400D01*
X98400Y-36400D02*
X97957Y-36400D01*
X97031Y-37200D02*
X96600Y-37200D01*
X96600Y-37200D02*
X96600Y-36400D01*
X96600Y-36400D02*
X97031Y-36400D01*
G54D16*
X97850Y-36950D02*
X97850Y-36650D01*
X97675Y-36950D02*
X97675Y-36650D01*
X97675Y-36650D02*
X97825Y-36800D01*
X97825Y-36800D02*
X97675Y-36950D01*
G54D15*
X100757Y-59700D02*
X101200Y-59700D01*
X101200Y-59700D02*
X101200Y-58900D01*
X101200Y-58900D02*
X100757Y-58900D01*
X99831Y-59700D02*
X99400Y-59700D01*
X99400Y-59700D02*
X99400Y-58900D01*
X99400Y-58900D02*
X99831Y-58900D01*
G54D16*
X100650Y-59450D02*
X100650Y-59150D01*
X100475Y-59450D02*
X100475Y-59150D01*
X100475Y-59150D02*
X100625Y-59300D01*
X100625Y-59300D02*
X100475Y-59450D01*
G54D15*
X87557Y-59700D02*
X88000Y-59700D01*
X88000Y-59700D02*
X88000Y-58900D01*
X88000Y-58900D02*
X87557Y-58900D01*
X86631Y-59700D02*
X86200Y-59700D01*
X86200Y-59700D02*
X86200Y-58900D01*
X86200Y-58900D02*
X86631Y-58900D01*
G54D16*
X87450Y-59450D02*
X87450Y-59150D01*
X87275Y-59450D02*
X87275Y-59150D01*
X87275Y-59150D02*
X87425Y-59300D01*
X87425Y-59300D02*
X87275Y-59450D01*
G54D15*
X38957Y-59700D02*
X39400Y-59700D01*
X39400Y-59700D02*
X39400Y-58900D01*
X39400Y-58900D02*
X38957Y-58900D01*
X38031Y-59700D02*
X37600Y-59700D01*
X37600Y-59700D02*
X37600Y-58900D01*
X37600Y-58900D02*
X38031Y-58900D01*
G54D16*
X38850Y-59450D02*
X38850Y-59150D01*
X38675Y-59450D02*
X38675Y-59150D01*
X38675Y-59150D02*
X38825Y-59300D01*
X38825Y-59300D02*
X38675Y-59450D01*
G54D15*
X82792Y-52600D02*
X82350Y-52600D01*
X82350Y-52600D02*
X82350Y-53400D01*
X82350Y-53400D02*
X82792Y-53400D01*
X83218Y-52600D02*
X83650Y-52600D01*
X83650Y-52600D02*
X83650Y-53400D01*
X83650Y-53400D02*
X83218Y-53400D01*
X75392Y-58400D02*
X74950Y-58400D01*
X74950Y-58400D02*
X74950Y-59200D01*
X74950Y-59200D02*
X75392Y-59200D01*
X75818Y-58400D02*
X76250Y-58400D01*
X76250Y-58400D02*
X76250Y-59200D01*
X76250Y-59200D02*
X75818Y-59200D01*
X79592Y-52600D02*
X79150Y-52600D01*
X79150Y-52600D02*
X79150Y-53400D01*
X79150Y-53400D02*
X79592Y-53400D01*
X80018Y-52600D02*
X80450Y-52600D01*
X80450Y-52600D02*
X80450Y-53400D01*
X80450Y-53400D02*
X80018Y-53400D01*
X84000Y-39392D02*
X84000Y-38950D01*
X84000Y-38950D02*
X83200Y-38950D01*
X83200Y-38950D02*
X83200Y-39392D01*
X84000Y-39818D02*
X84000Y-40250D01*
X84000Y-40250D02*
X83200Y-40250D01*
X83200Y-40250D02*
X83200Y-39818D01*
X81600Y-39392D02*
X81600Y-38950D01*
X81600Y-38950D02*
X80800Y-38950D01*
X80800Y-38950D02*
X80800Y-39392D01*
X81600Y-39818D02*
X81600Y-40250D01*
X81600Y-40250D02*
X80800Y-40250D01*
X80800Y-40250D02*
X80800Y-39818D01*
X84792Y-54000D02*
X84350Y-54000D01*
X84350Y-54000D02*
X84350Y-54800D01*
X84350Y-54800D02*
X84792Y-54800D01*
X85218Y-54000D02*
X85650Y-54000D01*
X85650Y-54000D02*
X85650Y-54800D01*
X85650Y-54800D02*
X85218Y-54800D01*
X66800Y-57492D02*
X66800Y-57050D01*
X66800Y-57050D02*
X66000Y-57050D01*
X66000Y-57050D02*
X66000Y-57492D01*
X66800Y-57918D02*
X66800Y-58350D01*
X66800Y-58350D02*
X66000Y-58350D01*
X66000Y-58350D02*
X66000Y-57918D01*
X67900Y-55092D02*
X67900Y-54650D01*
X67900Y-54650D02*
X67100Y-54650D01*
X67100Y-54650D02*
X67100Y-55092D01*
X67900Y-55518D02*
X67900Y-55950D01*
X67900Y-55950D02*
X67100Y-55950D01*
X67100Y-55950D02*
X67100Y-55518D01*
X65600Y-55092D02*
X65600Y-54650D01*
X65600Y-54650D02*
X64800Y-54650D01*
X64800Y-54650D02*
X64800Y-55092D01*
X65600Y-55518D02*
X65600Y-55950D01*
X65600Y-55950D02*
X64800Y-55950D01*
X64800Y-55950D02*
X64800Y-55518D01*
X85207Y-59200D02*
X85650Y-59200D01*
X85650Y-59200D02*
X85650Y-58400D01*
X85650Y-58400D02*
X85207Y-58400D01*
X84781Y-59200D02*
X84350Y-59200D01*
X84350Y-59200D02*
X84350Y-58400D01*
X84350Y-58400D02*
X84781Y-58400D01*
X64500Y-57492D02*
X64500Y-57050D01*
X64500Y-57050D02*
X63700Y-57050D01*
X63700Y-57050D02*
X63700Y-57492D01*
X64500Y-57918D02*
X64500Y-58350D01*
X64500Y-58350D02*
X63700Y-58350D01*
X63700Y-58350D02*
X63700Y-57918D01*
X63400Y-55092D02*
X63400Y-54650D01*
X63400Y-54650D02*
X62600Y-54650D01*
X62600Y-54650D02*
X62600Y-55092D01*
X63400Y-55518D02*
X63400Y-55950D01*
X63400Y-55950D02*
X62600Y-55950D01*
X62600Y-55950D02*
X62600Y-55518D01*
G54D17*
X96191Y-56200D02*
G75*
G03X96191Y-56200I-591J0D01*
G74*
G01*
X94380Y-57125D02*
X94183Y-57125D01*
X94183Y-57125D02*
X94183Y-56850D01*
X94183Y-56850D02*
X94380Y-56850D01*
X94183Y-55275D02*
X94380Y-55275D01*
X94183Y-55550D02*
X94183Y-55275D01*
X94380Y-55550D02*
X94183Y-55550D01*
X96820Y-55550D02*
X97017Y-55550D01*
X97017Y-55550D02*
X97017Y-55275D01*
X97017Y-55275D02*
X96820Y-55275D01*
X96820Y-57125D02*
X97017Y-57125D01*
X97017Y-57125D02*
X97017Y-56850D01*
X97017Y-56850D02*
X96820Y-56850D01*
G54D12*
X94498Y-54980D02*
X96702Y-54980D01*
X94498Y-57420D02*
X96702Y-57420D01*
X94380Y-57381D02*
X96820Y-57381D01*
X96820Y-57381D02*
X96820Y-55019D01*
X96820Y-55019D02*
X94380Y-55019D01*
X94380Y-55019D02*
X94380Y-57381D01*
G54D15*
X84200Y-55750D02*
X84200Y-57050D01*
X84200Y-57050D02*
X85800Y-57050D01*
X85800Y-57050D02*
X85800Y-55750D01*
X85800Y-55750D02*
X84200Y-55750D01*
X124257Y-59700D02*
X124700Y-59700D01*
X124700Y-59700D02*
X124700Y-58900D01*
X124700Y-58900D02*
X124257Y-58900D01*
X123331Y-59700D02*
X122900Y-59700D01*
X122900Y-59700D02*
X122900Y-58900D01*
X122900Y-58900D02*
X123331Y-58900D01*
G54D16*
X124150Y-59450D02*
X124150Y-59150D01*
X123975Y-59450D02*
X123975Y-59150D01*
X123975Y-59150D02*
X124125Y-59300D01*
X124125Y-59300D02*
X123975Y-59450D01*
G54D13*
X36383Y-38316D02*
X36950Y-38316D01*
X37016Y-38350D01*
X37050Y-38383D01*
X37083Y-38450D01*
X37083Y-38583D01*
X37050Y-38650D01*
X37016Y-38683D01*
X36950Y-38716D01*
X36383Y-38716D01*
X37050Y-39016D02*
X37083Y-39116D01*
X37083Y-39283D01*
X37050Y-39350D01*
X37016Y-39383D01*
X36950Y-39416D01*
X36883Y-39416D01*
X36816Y-39383D01*
X36783Y-39350D01*
X36750Y-39283D01*
X36716Y-39150D01*
X36683Y-39083D01*
X36650Y-39050D01*
X36583Y-39016D01*
X36516Y-39016D01*
X36450Y-39050D01*
X36416Y-39083D01*
X36383Y-39150D01*
X36383Y-39316D01*
X36416Y-39416D01*
X36716Y-39950D02*
X36750Y-40050D01*
X36783Y-40083D01*
X36850Y-40116D01*
X36950Y-40116D01*
X37016Y-40083D01*
X37050Y-40050D01*
X37083Y-39983D01*
X37083Y-39716D01*
X36383Y-39716D01*
X36383Y-39950D01*
X36416Y-40016D01*
X36450Y-40050D01*
X36516Y-40083D01*
X36583Y-40083D01*
X36650Y-40050D01*
X36683Y-40016D01*
X36716Y-39950D01*
X36716Y-39716D01*
X119883Y-31583D02*
X119883Y-32150D01*
X119850Y-32216D01*
X119816Y-32250D01*
X119750Y-32283D01*
X119616Y-32283D01*
X119550Y-32250D01*
X119516Y-32216D01*
X119483Y-32150D01*
X119483Y-31583D01*
X119183Y-32250D02*
X119083Y-32283D01*
X118916Y-32283D01*
X118850Y-32250D01*
X118816Y-32216D01*
X118783Y-32150D01*
X118783Y-32083D01*
X118816Y-32016D01*
X118850Y-31983D01*
X118916Y-31950D01*
X119050Y-31916D01*
X119116Y-31883D01*
X119150Y-31850D01*
X119183Y-31783D01*
X119183Y-31716D01*
X119150Y-31650D01*
X119116Y-31616D01*
X119050Y-31583D01*
X118883Y-31583D01*
X118783Y-31616D01*
X118250Y-31916D02*
X118150Y-31950D01*
X118116Y-31983D01*
X118083Y-32050D01*
X118083Y-32150D01*
X118116Y-32216D01*
X118150Y-32250D01*
X118216Y-32283D01*
X118483Y-32283D01*
X118483Y-31583D01*
X118250Y-31583D01*
X118183Y-31616D01*
X118150Y-31650D01*
X118116Y-31716D01*
X118116Y-31783D01*
X118150Y-31850D01*
X118183Y-31883D01*
X118250Y-31916D01*
X118483Y-31916D01*
G54D14*
X83442Y-54809D02*
X82842Y-54809D01*
X83385Y-55228D02*
X83414Y-55209D01*
X83442Y-55152D01*
X83442Y-55114D01*
X83414Y-55057D01*
X83357Y-55019D01*
X83300Y-55000D01*
X83185Y-54980D01*
X83100Y-54980D01*
X82985Y-55000D01*
X82928Y-55019D01*
X82871Y-55057D01*
X82842Y-55114D01*
X82842Y-55152D01*
X82871Y-55209D01*
X82900Y-55228D01*
X83442Y-55609D02*
X83442Y-55380D01*
X83442Y-55495D02*
X82842Y-55495D01*
X82928Y-55457D01*
X82985Y-55419D01*
X83014Y-55380D01*
X81809Y-60071D02*
X81619Y-60071D01*
X81847Y-60242D02*
X81714Y-59642D01*
X81580Y-60242D01*
X81504Y-59642D02*
X81276Y-59642D01*
X81390Y-60242D02*
X81390Y-59642D01*
X81142Y-60242D02*
X81142Y-59642D01*
X81009Y-60071D01*
X80876Y-59642D01*
X80876Y-60242D01*
X80685Y-59928D02*
X80552Y-59928D01*
X80495Y-60242D02*
X80685Y-60242D01*
X80685Y-59642D01*
X80495Y-59642D01*
X80114Y-59671D02*
X80152Y-59642D01*
X80209Y-59642D01*
X80266Y-59671D01*
X80304Y-59728D01*
X80323Y-59785D01*
X80342Y-59900D01*
X80342Y-59985D01*
X80323Y-60100D01*
X80304Y-60157D01*
X80266Y-60214D01*
X80209Y-60242D01*
X80171Y-60242D01*
X80114Y-60214D01*
X80095Y-60185D01*
X80095Y-59985D01*
X80171Y-59985D01*
X79942Y-60071D02*
X79752Y-60071D01*
X79980Y-60242D02*
X79847Y-59642D01*
X79714Y-60242D01*
X79619Y-59642D02*
X79371Y-59642D01*
X79504Y-59871D01*
X79447Y-59871D01*
X79409Y-59900D01*
X79390Y-59928D01*
X79371Y-59985D01*
X79371Y-60128D01*
X79390Y-60185D01*
X79409Y-60214D01*
X79447Y-60242D01*
X79561Y-60242D01*
X79600Y-60214D01*
X79619Y-60185D01*
X79219Y-59700D02*
X79200Y-59671D01*
X79161Y-59642D01*
X79066Y-59642D01*
X79028Y-59671D01*
X79009Y-59700D01*
X78990Y-59757D01*
X78990Y-59814D01*
X79009Y-59900D01*
X79238Y-60242D01*
X78990Y-60242D01*
X78819Y-59642D02*
X78819Y-60128D01*
X78800Y-60185D01*
X78780Y-60214D01*
X78742Y-60242D01*
X78666Y-60242D01*
X78628Y-60214D01*
X78609Y-60185D01*
X78590Y-60128D01*
X78590Y-59642D01*
X78228Y-59842D02*
X78228Y-60242D01*
X78323Y-59614D02*
X78419Y-60042D01*
X78171Y-60042D01*
G54D18*
X79246Y-51198D02*
X79246Y-50830D01*
X79159Y-50830D01*
X79106Y-50848D01*
X79071Y-50883D01*
X79054Y-50918D01*
X79036Y-50988D01*
X79036Y-51041D01*
X79054Y-51111D01*
X79071Y-51146D01*
X79106Y-51181D01*
X79159Y-51198D01*
X79246Y-51198D01*
X78896Y-50865D02*
X78878Y-50848D01*
X78843Y-50830D01*
X78756Y-50830D01*
X78721Y-50848D01*
X78703Y-50865D01*
X78686Y-50901D01*
X78686Y-50936D01*
X78703Y-50988D01*
X78913Y-51198D01*
X78686Y-51198D01*
X78545Y-50865D02*
X78528Y-50848D01*
X78493Y-50830D01*
X78405Y-50830D01*
X78370Y-50848D01*
X78353Y-50865D01*
X78335Y-50901D01*
X78335Y-50936D01*
X78353Y-50988D01*
X78563Y-51198D01*
X78335Y-51198D01*
X71746Y-51198D02*
X71746Y-50830D01*
X71659Y-50830D01*
X71606Y-50848D01*
X71571Y-50883D01*
X71554Y-50918D01*
X71536Y-50988D01*
X71536Y-51041D01*
X71554Y-51111D01*
X71571Y-51146D01*
X71606Y-51181D01*
X71659Y-51198D01*
X71746Y-51198D01*
X71186Y-51198D02*
X71396Y-51198D01*
X71291Y-51198D02*
X71291Y-50830D01*
X71326Y-50883D01*
X71361Y-50918D01*
X71396Y-50936D01*
X71010Y-51198D02*
X70940Y-51198D01*
X70905Y-51181D01*
X70888Y-51163D01*
X70853Y-51111D01*
X70835Y-51041D01*
X70835Y-50901D01*
X70853Y-50865D01*
X70870Y-50848D01*
X70905Y-50830D01*
X70975Y-50830D01*
X71010Y-50848D01*
X71028Y-50865D01*
X71045Y-50901D01*
X71045Y-50988D01*
X71028Y-51023D01*
X71010Y-51041D01*
X70975Y-51058D01*
X70905Y-51058D01*
X70870Y-51041D01*
X70853Y-51023D01*
X70835Y-50988D01*
X40071Y-36198D02*
X40071Y-35830D01*
X39984Y-35830D01*
X39931Y-35848D01*
X39896Y-35883D01*
X39878Y-35918D01*
X39861Y-35988D01*
X39861Y-36041D01*
X39878Y-36111D01*
X39896Y-36146D01*
X39931Y-36181D01*
X39984Y-36198D01*
X40071Y-36198D01*
X39510Y-36198D02*
X39721Y-36198D01*
X39615Y-36198D02*
X39615Y-35830D01*
X39651Y-35883D01*
X39686Y-35918D01*
X39721Y-35936D01*
X86746Y-51198D02*
X86746Y-50830D01*
X86659Y-50830D01*
X86606Y-50848D01*
X86571Y-50883D01*
X86554Y-50918D01*
X86536Y-50988D01*
X86536Y-51041D01*
X86554Y-51111D01*
X86571Y-51146D01*
X86606Y-51181D01*
X86659Y-51198D01*
X86746Y-51198D01*
X86396Y-50865D02*
X86378Y-50848D01*
X86343Y-50830D01*
X86256Y-50830D01*
X86221Y-50848D01*
X86203Y-50865D01*
X86186Y-50901D01*
X86186Y-50936D01*
X86203Y-50988D01*
X86413Y-51198D01*
X86186Y-51198D01*
X85853Y-50830D02*
X86028Y-50830D01*
X86045Y-51006D01*
X86028Y-50988D01*
X85993Y-50971D01*
X85905Y-50971D01*
X85870Y-50988D01*
X85853Y-51006D01*
X85835Y-51041D01*
X85835Y-51128D01*
X85853Y-51163D01*
X85870Y-51181D01*
X85905Y-51198D01*
X85993Y-51198D01*
X86028Y-51181D01*
X86045Y-51163D01*
X67946Y-36198D02*
X67946Y-35830D01*
X67859Y-35830D01*
X67806Y-35848D01*
X67771Y-35883D01*
X67754Y-35918D01*
X67736Y-35988D01*
X67736Y-36041D01*
X67754Y-36111D01*
X67771Y-36146D01*
X67806Y-36181D01*
X67859Y-36198D01*
X67946Y-36198D01*
X67386Y-36198D02*
X67596Y-36198D01*
X67491Y-36198D02*
X67491Y-35830D01*
X67526Y-35883D01*
X67561Y-35918D01*
X67596Y-35936D01*
X67263Y-35830D02*
X67017Y-35830D01*
X67175Y-36198D01*
X70746Y-58698D02*
X70746Y-58330D01*
X70659Y-58330D01*
X70606Y-58348D01*
X70571Y-58383D01*
X70554Y-58418D01*
X70536Y-58488D01*
X70536Y-58541D01*
X70554Y-58611D01*
X70571Y-58646D01*
X70606Y-58681D01*
X70659Y-58698D01*
X70746Y-58698D01*
X70186Y-58698D02*
X70396Y-58698D01*
X70291Y-58698D02*
X70291Y-58330D01*
X70326Y-58383D01*
X70361Y-58418D01*
X70396Y-58436D01*
X69870Y-58330D02*
X69940Y-58330D01*
X69975Y-58348D01*
X69993Y-58365D01*
X70028Y-58418D01*
X70045Y-58488D01*
X70045Y-58628D01*
X70028Y-58663D01*
X70010Y-58681D01*
X69975Y-58698D01*
X69905Y-58698D01*
X69870Y-58681D01*
X69853Y-58663D01*
X69835Y-58628D01*
X69835Y-58541D01*
X69853Y-58506D01*
X69870Y-58488D01*
X69905Y-58471D01*
X69975Y-58471D01*
X70010Y-58488D01*
X70028Y-58506D01*
X70045Y-58541D01*
X64246Y-51198D02*
X64246Y-50830D01*
X64159Y-50830D01*
X64106Y-50848D01*
X64071Y-50883D01*
X64054Y-50918D01*
X64036Y-50988D01*
X64036Y-51041D01*
X64054Y-51111D01*
X64071Y-51146D01*
X64106Y-51181D01*
X64159Y-51198D01*
X64246Y-51198D01*
X63686Y-51198D02*
X63896Y-51198D01*
X63791Y-51198D02*
X63791Y-50830D01*
X63826Y-50883D01*
X63861Y-50918D01*
X63896Y-50936D01*
X63353Y-50830D02*
X63528Y-50830D01*
X63545Y-51006D01*
X63528Y-50988D01*
X63493Y-50971D01*
X63405Y-50971D01*
X63370Y-50988D01*
X63353Y-51006D01*
X63335Y-51041D01*
X63335Y-51128D01*
X63353Y-51163D01*
X63370Y-51181D01*
X63405Y-51198D01*
X63493Y-51198D01*
X63528Y-51181D01*
X63545Y-51163D01*
X62346Y-43698D02*
X62346Y-43330D01*
X62259Y-43330D01*
X62206Y-43348D01*
X62171Y-43383D01*
X62154Y-43418D01*
X62136Y-43488D01*
X62136Y-43541D01*
X62154Y-43611D01*
X62171Y-43646D01*
X62206Y-43681D01*
X62259Y-43698D01*
X62346Y-43698D01*
X61786Y-43698D02*
X61996Y-43698D01*
X61891Y-43698D02*
X61891Y-43330D01*
X61926Y-43383D01*
X61961Y-43418D01*
X61996Y-43436D01*
X61470Y-43453D02*
X61470Y-43698D01*
X61558Y-43313D02*
X61645Y-43576D01*
X61417Y-43576D01*
X60446Y-36198D02*
X60446Y-35830D01*
X60359Y-35830D01*
X60306Y-35848D01*
X60271Y-35883D01*
X60254Y-35918D01*
X60236Y-35988D01*
X60236Y-36041D01*
X60254Y-36111D01*
X60271Y-36146D01*
X60306Y-36181D01*
X60359Y-36198D01*
X60446Y-36198D01*
X59886Y-36198D02*
X60096Y-36198D01*
X59991Y-36198D02*
X59991Y-35830D01*
X60026Y-35883D01*
X60061Y-35918D01*
X60096Y-35936D01*
X59763Y-35830D02*
X59535Y-35830D01*
X59658Y-35971D01*
X59605Y-35971D01*
X59570Y-35988D01*
X59553Y-36006D01*
X59535Y-36041D01*
X59535Y-36128D01*
X59553Y-36163D01*
X59570Y-36181D01*
X59605Y-36198D01*
X59710Y-36198D01*
X59745Y-36181D01*
X59763Y-36163D01*
X84846Y-43698D02*
X84846Y-43330D01*
X84759Y-43330D01*
X84706Y-43348D01*
X84671Y-43383D01*
X84654Y-43418D01*
X84636Y-43488D01*
X84636Y-43541D01*
X84654Y-43611D01*
X84671Y-43646D01*
X84706Y-43681D01*
X84759Y-43698D01*
X84846Y-43698D01*
X84496Y-43365D02*
X84478Y-43348D01*
X84443Y-43330D01*
X84356Y-43330D01*
X84321Y-43348D01*
X84303Y-43365D01*
X84286Y-43401D01*
X84286Y-43436D01*
X84303Y-43488D01*
X84513Y-43698D01*
X84286Y-43698D01*
X83970Y-43453D02*
X83970Y-43698D01*
X84058Y-43313D02*
X84145Y-43576D01*
X83917Y-43576D01*
X82946Y-36198D02*
X82946Y-35830D01*
X82859Y-35830D01*
X82806Y-35848D01*
X82771Y-35883D01*
X82754Y-35918D01*
X82736Y-35988D01*
X82736Y-36041D01*
X82754Y-36111D01*
X82771Y-36146D01*
X82806Y-36181D01*
X82859Y-36198D01*
X82946Y-36198D01*
X82596Y-35865D02*
X82578Y-35848D01*
X82543Y-35830D01*
X82456Y-35830D01*
X82421Y-35848D01*
X82403Y-35865D01*
X82386Y-35901D01*
X82386Y-35936D01*
X82403Y-35988D01*
X82613Y-36198D01*
X82386Y-36198D01*
X82263Y-35830D02*
X82035Y-35830D01*
X82158Y-35971D01*
X82105Y-35971D01*
X82070Y-35988D01*
X82053Y-36006D01*
X82035Y-36041D01*
X82035Y-36128D01*
X82053Y-36163D01*
X82070Y-36181D01*
X82105Y-36198D01*
X82210Y-36198D01*
X82245Y-36181D01*
X82263Y-36163D01*
X90446Y-36198D02*
X90446Y-35830D01*
X90359Y-35830D01*
X90306Y-35848D01*
X90271Y-35883D01*
X90254Y-35918D01*
X90236Y-35988D01*
X90236Y-36041D01*
X90254Y-36111D01*
X90271Y-36146D01*
X90306Y-36181D01*
X90359Y-36198D01*
X90446Y-36198D01*
X90096Y-35865D02*
X90078Y-35848D01*
X90043Y-35830D01*
X89956Y-35830D01*
X89921Y-35848D01*
X89903Y-35865D01*
X89886Y-35901D01*
X89886Y-35936D01*
X89903Y-35988D01*
X90113Y-36198D01*
X89886Y-36198D01*
X89570Y-35830D02*
X89640Y-35830D01*
X89675Y-35848D01*
X89693Y-35865D01*
X89728Y-35918D01*
X89745Y-35988D01*
X89745Y-36128D01*
X89728Y-36163D01*
X89710Y-36181D01*
X89675Y-36198D01*
X89605Y-36198D01*
X89570Y-36181D01*
X89553Y-36163D01*
X89535Y-36128D01*
X89535Y-36041D01*
X89553Y-36006D01*
X89570Y-35988D01*
X89605Y-35971D01*
X89675Y-35971D01*
X89710Y-35988D01*
X89728Y-36006D01*
X89745Y-36041D01*
X77346Y-43698D02*
X77346Y-43330D01*
X77259Y-43330D01*
X77206Y-43348D01*
X77171Y-43383D01*
X77154Y-43418D01*
X77136Y-43488D01*
X77136Y-43541D01*
X77154Y-43611D01*
X77171Y-43646D01*
X77206Y-43681D01*
X77259Y-43698D01*
X77346Y-43698D01*
X76996Y-43365D02*
X76978Y-43348D01*
X76943Y-43330D01*
X76856Y-43330D01*
X76821Y-43348D01*
X76803Y-43365D01*
X76786Y-43401D01*
X76786Y-43436D01*
X76803Y-43488D01*
X77013Y-43698D01*
X76786Y-43698D01*
X76435Y-43698D02*
X76645Y-43698D01*
X76540Y-43698D02*
X76540Y-43330D01*
X76575Y-43383D01*
X76610Y-43418D01*
X76645Y-43436D01*
X57646Y-58698D02*
X57646Y-58330D01*
X57559Y-58330D01*
X57506Y-58348D01*
X57471Y-58383D01*
X57454Y-58418D01*
X57436Y-58488D01*
X57436Y-58541D01*
X57454Y-58611D01*
X57471Y-58646D01*
X57506Y-58681D01*
X57559Y-58698D01*
X57646Y-58698D01*
X57086Y-58698D02*
X57296Y-58698D01*
X57191Y-58698D02*
X57191Y-58330D01*
X57226Y-58383D01*
X57261Y-58418D01*
X57296Y-58436D01*
X56945Y-58365D02*
X56928Y-58348D01*
X56893Y-58330D01*
X56805Y-58330D01*
X56770Y-58348D01*
X56753Y-58365D01*
X56735Y-58401D01*
X56735Y-58436D01*
X56753Y-58488D01*
X56963Y-58698D01*
X56735Y-58698D01*
X48071Y-58698D02*
X48071Y-58330D01*
X47984Y-58330D01*
X47931Y-58348D01*
X47896Y-58383D01*
X47878Y-58418D01*
X47861Y-58488D01*
X47861Y-58541D01*
X47878Y-58611D01*
X47896Y-58646D01*
X47931Y-58681D01*
X47984Y-58698D01*
X48071Y-58698D01*
X47651Y-58488D02*
X47686Y-58471D01*
X47703Y-58453D01*
X47721Y-58418D01*
X47721Y-58401D01*
X47703Y-58365D01*
X47686Y-58348D01*
X47651Y-58330D01*
X47580Y-58330D01*
X47545Y-58348D01*
X47528Y-58365D01*
X47510Y-58401D01*
X47510Y-58418D01*
X47528Y-58453D01*
X47545Y-58471D01*
X47580Y-58488D01*
X47651Y-58488D01*
X47686Y-58506D01*
X47703Y-58523D01*
X47721Y-58558D01*
X47721Y-58628D01*
X47703Y-58663D01*
X47686Y-58681D01*
X47651Y-58698D01*
X47580Y-58698D01*
X47545Y-58681D01*
X47528Y-58663D01*
X47510Y-58628D01*
X47510Y-58558D01*
X47528Y-58523D01*
X47545Y-58506D01*
X47580Y-58488D01*
X56746Y-51198D02*
X56746Y-50830D01*
X56659Y-50830D01*
X56606Y-50848D01*
X56571Y-50883D01*
X56554Y-50918D01*
X56536Y-50988D01*
X56536Y-51041D01*
X56554Y-51111D01*
X56571Y-51146D01*
X56606Y-51181D01*
X56659Y-51198D01*
X56746Y-51198D01*
X56186Y-51198D02*
X56396Y-51198D01*
X56291Y-51198D02*
X56291Y-50830D01*
X56326Y-50883D01*
X56361Y-50918D01*
X56396Y-50936D01*
X55835Y-51198D02*
X56045Y-51198D01*
X55940Y-51198D02*
X55940Y-50830D01*
X55975Y-50883D01*
X56010Y-50918D01*
X56045Y-50936D01*
X54846Y-43698D02*
X54846Y-43330D01*
X54759Y-43330D01*
X54706Y-43348D01*
X54671Y-43383D01*
X54654Y-43418D01*
X54636Y-43488D01*
X54636Y-43541D01*
X54654Y-43611D01*
X54671Y-43646D01*
X54706Y-43681D01*
X54759Y-43698D01*
X54846Y-43698D01*
X54286Y-43698D02*
X54496Y-43698D01*
X54391Y-43698D02*
X54391Y-43330D01*
X54426Y-43383D01*
X54461Y-43418D01*
X54496Y-43436D01*
X54058Y-43330D02*
X54023Y-43330D01*
X53988Y-43348D01*
X53970Y-43365D01*
X53953Y-43401D01*
X53935Y-43471D01*
X53935Y-43558D01*
X53953Y-43628D01*
X53970Y-43663D01*
X53988Y-43681D01*
X54023Y-43698D01*
X54058Y-43698D01*
X54093Y-43681D01*
X54110Y-43663D01*
X54128Y-43628D01*
X54145Y-43558D01*
X54145Y-43471D01*
X54128Y-43401D01*
X54110Y-43365D01*
X54093Y-43348D01*
X54058Y-43330D01*
X49071Y-51198D02*
X49071Y-50830D01*
X48984Y-50830D01*
X48931Y-50848D01*
X48896Y-50883D01*
X48878Y-50918D01*
X48861Y-50988D01*
X48861Y-51041D01*
X48878Y-51111D01*
X48896Y-51146D01*
X48931Y-51181D01*
X48984Y-51198D01*
X49071Y-51198D01*
X48738Y-50830D02*
X48493Y-50830D01*
X48651Y-51198D01*
X47171Y-43698D02*
X47171Y-43330D01*
X47084Y-43330D01*
X47031Y-43348D01*
X46996Y-43383D01*
X46978Y-43418D01*
X46961Y-43488D01*
X46961Y-43541D01*
X46978Y-43611D01*
X46996Y-43646D01*
X47031Y-43681D01*
X47084Y-43698D01*
X47171Y-43698D01*
X46645Y-43330D02*
X46715Y-43330D01*
X46751Y-43348D01*
X46768Y-43365D01*
X46803Y-43418D01*
X46821Y-43488D01*
X46821Y-43628D01*
X46803Y-43663D01*
X46786Y-43681D01*
X46751Y-43698D01*
X46680Y-43698D01*
X46645Y-43681D01*
X46628Y-43663D01*
X46610Y-43628D01*
X46610Y-43541D01*
X46628Y-43506D01*
X46645Y-43488D01*
X46680Y-43471D01*
X46751Y-43471D01*
X46786Y-43488D01*
X46803Y-43506D01*
X46821Y-43541D01*
X38771Y-43698D02*
X38771Y-43330D01*
X38684Y-43330D01*
X38631Y-43348D01*
X38596Y-43383D01*
X38578Y-43418D01*
X38561Y-43488D01*
X38561Y-43541D01*
X38578Y-43611D01*
X38596Y-43646D01*
X38631Y-43681D01*
X38684Y-43698D01*
X38771Y-43698D01*
X38421Y-43365D02*
X38403Y-43348D01*
X38368Y-43330D01*
X38280Y-43330D01*
X38245Y-43348D01*
X38228Y-43365D01*
X38210Y-43401D01*
X38210Y-43436D01*
X38228Y-43488D01*
X38438Y-43698D01*
X38210Y-43698D01*
X52771Y-36198D02*
X52771Y-35830D01*
X52684Y-35830D01*
X52631Y-35848D01*
X52596Y-35883D01*
X52578Y-35918D01*
X52561Y-35988D01*
X52561Y-36041D01*
X52578Y-36111D01*
X52596Y-36146D01*
X52631Y-36181D01*
X52684Y-36198D01*
X52771Y-36198D01*
X52386Y-36198D02*
X52315Y-36198D01*
X52280Y-36181D01*
X52263Y-36163D01*
X52228Y-36111D01*
X52210Y-36041D01*
X52210Y-35901D01*
X52228Y-35865D01*
X52245Y-35848D01*
X52280Y-35830D01*
X52351Y-35830D01*
X52386Y-35848D01*
X52403Y-35865D01*
X52421Y-35901D01*
X52421Y-35988D01*
X52403Y-36023D01*
X52386Y-36041D01*
X52351Y-36058D01*
X52280Y-36058D01*
X52245Y-36041D01*
X52228Y-36023D01*
X52210Y-35988D01*
X45371Y-36098D02*
X45371Y-35730D01*
X45284Y-35730D01*
X45231Y-35748D01*
X45196Y-35783D01*
X45178Y-35818D01*
X45161Y-35888D01*
X45161Y-35941D01*
X45178Y-36011D01*
X45196Y-36046D01*
X45231Y-36081D01*
X45284Y-36098D01*
X45371Y-36098D01*
X44828Y-35730D02*
X45003Y-35730D01*
X45021Y-35906D01*
X45003Y-35888D01*
X44968Y-35871D01*
X44880Y-35871D01*
X44845Y-35888D01*
X44828Y-35906D01*
X44810Y-35941D01*
X44810Y-36028D01*
X44828Y-36063D01*
X44845Y-36081D01*
X44880Y-36098D01*
X44968Y-36098D01*
X45003Y-36081D01*
X45021Y-36063D01*
X114846Y-43698D02*
X114846Y-43330D01*
X114759Y-43330D01*
X114706Y-43348D01*
X114671Y-43383D01*
X114654Y-43418D01*
X114636Y-43488D01*
X114636Y-43541D01*
X114654Y-43611D01*
X114671Y-43646D01*
X114706Y-43681D01*
X114759Y-43698D01*
X114846Y-43698D01*
X114513Y-43330D02*
X114286Y-43330D01*
X114408Y-43471D01*
X114356Y-43471D01*
X114321Y-43488D01*
X114303Y-43506D01*
X114286Y-43541D01*
X114286Y-43628D01*
X114303Y-43663D01*
X114321Y-43681D01*
X114356Y-43698D01*
X114461Y-43698D01*
X114496Y-43681D01*
X114513Y-43663D01*
X114110Y-43698D02*
X114040Y-43698D01*
X114005Y-43681D01*
X113988Y-43663D01*
X113953Y-43611D01*
X113935Y-43541D01*
X113935Y-43401D01*
X113953Y-43365D01*
X113970Y-43348D01*
X114005Y-43330D01*
X114075Y-43330D01*
X114110Y-43348D01*
X114128Y-43365D01*
X114145Y-43401D01*
X114145Y-43488D01*
X114128Y-43523D01*
X114110Y-43541D01*
X114075Y-43558D01*
X114005Y-43558D01*
X113970Y-43541D01*
X113953Y-43523D01*
X113935Y-43488D01*
X39671Y-51198D02*
X39671Y-50830D01*
X39584Y-50830D01*
X39531Y-50848D01*
X39496Y-50883D01*
X39478Y-50918D01*
X39461Y-50988D01*
X39461Y-51041D01*
X39478Y-51111D01*
X39496Y-51146D01*
X39531Y-51181D01*
X39584Y-51198D01*
X39671Y-51198D01*
X39338Y-50830D02*
X39110Y-50830D01*
X39233Y-50971D01*
X39180Y-50971D01*
X39145Y-50988D01*
X39128Y-51006D01*
X39110Y-51041D01*
X39110Y-51128D01*
X39128Y-51163D01*
X39145Y-51181D01*
X39180Y-51198D01*
X39286Y-51198D01*
X39321Y-51181D01*
X39338Y-51163D01*
X101746Y-51198D02*
X101746Y-50830D01*
X101659Y-50830D01*
X101606Y-50848D01*
X101571Y-50883D01*
X101554Y-50918D01*
X101536Y-50988D01*
X101536Y-51041D01*
X101554Y-51111D01*
X101571Y-51146D01*
X101606Y-51181D01*
X101659Y-51198D01*
X101746Y-51198D01*
X101413Y-50830D02*
X101186Y-50830D01*
X101308Y-50971D01*
X101256Y-50971D01*
X101221Y-50988D01*
X101203Y-51006D01*
X101186Y-51041D01*
X101186Y-51128D01*
X101203Y-51163D01*
X101221Y-51181D01*
X101256Y-51198D01*
X101361Y-51198D01*
X101396Y-51181D01*
X101413Y-51163D01*
X101045Y-50865D02*
X101028Y-50848D01*
X100993Y-50830D01*
X100905Y-50830D01*
X100870Y-50848D01*
X100853Y-50865D01*
X100835Y-50901D01*
X100835Y-50936D01*
X100853Y-50988D01*
X101063Y-51198D01*
X100835Y-51198D01*
X94246Y-51198D02*
X94246Y-50830D01*
X94159Y-50830D01*
X94106Y-50848D01*
X94071Y-50883D01*
X94054Y-50918D01*
X94036Y-50988D01*
X94036Y-51041D01*
X94054Y-51111D01*
X94071Y-51146D01*
X94106Y-51181D01*
X94159Y-51198D01*
X94246Y-51198D01*
X93896Y-50865D02*
X93878Y-50848D01*
X93843Y-50830D01*
X93756Y-50830D01*
X93721Y-50848D01*
X93703Y-50865D01*
X93686Y-50901D01*
X93686Y-50936D01*
X93703Y-50988D01*
X93913Y-51198D01*
X93686Y-51198D01*
X93475Y-50988D02*
X93510Y-50971D01*
X93528Y-50953D01*
X93545Y-50918D01*
X93545Y-50901D01*
X93528Y-50865D01*
X93510Y-50848D01*
X93475Y-50830D01*
X93405Y-50830D01*
X93370Y-50848D01*
X93353Y-50865D01*
X93335Y-50901D01*
X93335Y-50918D01*
X93353Y-50953D01*
X93370Y-50971D01*
X93405Y-50988D01*
X93475Y-50988D01*
X93510Y-51006D01*
X93528Y-51023D01*
X93545Y-51058D01*
X93545Y-51128D01*
X93528Y-51163D01*
X93510Y-51181D01*
X93475Y-51198D01*
X93405Y-51198D01*
X93370Y-51181D01*
X93353Y-51163D01*
X93335Y-51128D01*
X93335Y-51058D01*
X93353Y-51023D01*
X93370Y-51006D01*
X93405Y-50988D01*
X75446Y-36198D02*
X75446Y-35830D01*
X75359Y-35830D01*
X75306Y-35848D01*
X75271Y-35883D01*
X75254Y-35918D01*
X75236Y-35988D01*
X75236Y-36041D01*
X75254Y-36111D01*
X75271Y-36146D01*
X75306Y-36181D01*
X75359Y-36198D01*
X75446Y-36198D01*
X75096Y-35865D02*
X75078Y-35848D01*
X75043Y-35830D01*
X74956Y-35830D01*
X74921Y-35848D01*
X74903Y-35865D01*
X74886Y-35901D01*
X74886Y-35936D01*
X74903Y-35988D01*
X75113Y-36198D01*
X74886Y-36198D01*
X74658Y-35830D02*
X74623Y-35830D01*
X74588Y-35848D01*
X74570Y-35865D01*
X74553Y-35901D01*
X74535Y-35971D01*
X74535Y-36058D01*
X74553Y-36128D01*
X74570Y-36163D01*
X74588Y-36181D01*
X74623Y-36198D01*
X74658Y-36198D01*
X74693Y-36181D01*
X74710Y-36163D01*
X74728Y-36128D01*
X74745Y-36058D01*
X74745Y-35971D01*
X74728Y-35901D01*
X74710Y-35865D01*
X74693Y-35848D01*
X74658Y-35830D01*
X122346Y-36198D02*
X122346Y-35830D01*
X122259Y-35830D01*
X122206Y-35848D01*
X122171Y-35883D01*
X122154Y-35918D01*
X122136Y-35988D01*
X122136Y-36041D01*
X122154Y-36111D01*
X122171Y-36146D01*
X122206Y-36181D01*
X122259Y-36198D01*
X122346Y-36198D01*
X121821Y-35953D02*
X121821Y-36198D01*
X121908Y-35813D02*
X121996Y-36076D01*
X121768Y-36076D01*
X121645Y-35865D02*
X121628Y-35848D01*
X121593Y-35830D01*
X121505Y-35830D01*
X121470Y-35848D01*
X121453Y-35865D01*
X121435Y-35901D01*
X121435Y-35936D01*
X121453Y-35988D01*
X121663Y-36198D01*
X121435Y-36198D01*
X123246Y-43698D02*
X123246Y-43330D01*
X123159Y-43330D01*
X123106Y-43348D01*
X123071Y-43383D01*
X123054Y-43418D01*
X123036Y-43488D01*
X123036Y-43541D01*
X123054Y-43611D01*
X123071Y-43646D01*
X123106Y-43681D01*
X123159Y-43698D01*
X123246Y-43698D01*
X122721Y-43453D02*
X122721Y-43698D01*
X122808Y-43313D02*
X122896Y-43576D01*
X122668Y-43576D01*
X122563Y-43330D02*
X122335Y-43330D01*
X122458Y-43471D01*
X122405Y-43471D01*
X122370Y-43488D01*
X122353Y-43506D01*
X122335Y-43541D01*
X122335Y-43628D01*
X122353Y-43663D01*
X122370Y-43681D01*
X122405Y-43698D01*
X122510Y-43698D01*
X122545Y-43681D01*
X122563Y-43663D01*
X116746Y-58698D02*
X116746Y-58330D01*
X116659Y-58330D01*
X116606Y-58348D01*
X116571Y-58383D01*
X116554Y-58418D01*
X116536Y-58488D01*
X116536Y-58541D01*
X116554Y-58611D01*
X116571Y-58646D01*
X116606Y-58681D01*
X116659Y-58698D01*
X116746Y-58698D01*
X116221Y-58453D02*
X116221Y-58698D01*
X116308Y-58313D02*
X116396Y-58576D01*
X116168Y-58576D01*
X115835Y-58698D02*
X116045Y-58698D01*
X115940Y-58698D02*
X115940Y-58330D01*
X115975Y-58383D01*
X116010Y-58418D01*
X116045Y-58436D01*
X124246Y-51198D02*
X124246Y-50830D01*
X124159Y-50830D01*
X124106Y-50848D01*
X124071Y-50883D01*
X124054Y-50918D01*
X124036Y-50988D01*
X124036Y-51041D01*
X124054Y-51111D01*
X124071Y-51146D01*
X124106Y-51181D01*
X124159Y-51198D01*
X124246Y-51198D01*
X123721Y-50953D02*
X123721Y-51198D01*
X123808Y-50813D02*
X123896Y-51076D01*
X123668Y-51076D01*
X123370Y-50953D02*
X123370Y-51198D01*
X123458Y-50813D02*
X123545Y-51076D01*
X123317Y-51076D01*
X112946Y-36198D02*
X112946Y-35830D01*
X112859Y-35830D01*
X112806Y-35848D01*
X112771Y-35883D01*
X112754Y-35918D01*
X112736Y-35988D01*
X112736Y-36041D01*
X112754Y-36111D01*
X112771Y-36146D01*
X112806Y-36181D01*
X112859Y-36198D01*
X112946Y-36198D01*
X112613Y-35830D02*
X112386Y-35830D01*
X112508Y-35971D01*
X112456Y-35971D01*
X112421Y-35988D01*
X112403Y-36006D01*
X112386Y-36041D01*
X112386Y-36128D01*
X112403Y-36163D01*
X112421Y-36181D01*
X112456Y-36198D01*
X112561Y-36198D01*
X112596Y-36181D01*
X112613Y-36163D01*
X112175Y-35988D02*
X112210Y-35971D01*
X112228Y-35953D01*
X112245Y-35918D01*
X112245Y-35901D01*
X112228Y-35865D01*
X112210Y-35848D01*
X112175Y-35830D01*
X112105Y-35830D01*
X112070Y-35848D01*
X112053Y-35865D01*
X112035Y-35901D01*
X112035Y-35918D01*
X112053Y-35953D01*
X112070Y-35971D01*
X112105Y-35988D01*
X112175Y-35988D01*
X112210Y-36006D01*
X112228Y-36023D01*
X112245Y-36058D01*
X112245Y-36128D01*
X112228Y-36163D01*
X112210Y-36181D01*
X112175Y-36198D01*
X112105Y-36198D01*
X112070Y-36181D01*
X112053Y-36163D01*
X112035Y-36128D01*
X112035Y-36058D01*
X112053Y-36023D01*
X112070Y-36006D01*
X112105Y-35988D01*
X116746Y-51198D02*
X116746Y-50830D01*
X116659Y-50830D01*
X116606Y-50848D01*
X116571Y-50883D01*
X116554Y-50918D01*
X116536Y-50988D01*
X116536Y-51041D01*
X116554Y-51111D01*
X116571Y-51146D01*
X116606Y-51181D01*
X116659Y-51198D01*
X116746Y-51198D01*
X116221Y-50953D02*
X116221Y-51198D01*
X116308Y-50813D02*
X116396Y-51076D01*
X116168Y-51076D01*
X115958Y-50830D02*
X115923Y-50830D01*
X115888Y-50848D01*
X115870Y-50865D01*
X115853Y-50901D01*
X115835Y-50971D01*
X115835Y-51058D01*
X115853Y-51128D01*
X115870Y-51163D01*
X115888Y-51181D01*
X115923Y-51198D01*
X115958Y-51198D01*
X115993Y-51181D01*
X116010Y-51163D01*
X116028Y-51128D01*
X116045Y-51058D01*
X116045Y-50971D01*
X116028Y-50901D01*
X116010Y-50865D01*
X115993Y-50848D01*
X115958Y-50830D01*
X92346Y-43698D02*
X92346Y-43330D01*
X92259Y-43330D01*
X92206Y-43348D01*
X92171Y-43383D01*
X92154Y-43418D01*
X92136Y-43488D01*
X92136Y-43541D01*
X92154Y-43611D01*
X92171Y-43646D01*
X92206Y-43681D01*
X92259Y-43698D01*
X92346Y-43698D01*
X91996Y-43365D02*
X91978Y-43348D01*
X91943Y-43330D01*
X91856Y-43330D01*
X91821Y-43348D01*
X91803Y-43365D01*
X91786Y-43401D01*
X91786Y-43436D01*
X91803Y-43488D01*
X92013Y-43698D01*
X91786Y-43698D01*
X91663Y-43330D02*
X91417Y-43330D01*
X91575Y-43698D01*
X109246Y-58698D02*
X109246Y-58330D01*
X109159Y-58330D01*
X109106Y-58348D01*
X109071Y-58383D01*
X109054Y-58418D01*
X109036Y-58488D01*
X109036Y-58541D01*
X109054Y-58611D01*
X109071Y-58646D01*
X109106Y-58681D01*
X109159Y-58698D01*
X109246Y-58698D01*
X108913Y-58330D02*
X108686Y-58330D01*
X108808Y-58471D01*
X108756Y-58471D01*
X108721Y-58488D01*
X108703Y-58506D01*
X108686Y-58541D01*
X108686Y-58628D01*
X108703Y-58663D01*
X108721Y-58681D01*
X108756Y-58698D01*
X108861Y-58698D01*
X108896Y-58681D01*
X108913Y-58663D01*
X108563Y-58330D02*
X108317Y-58330D01*
X108475Y-58698D01*
X109246Y-51198D02*
X109246Y-50830D01*
X109159Y-50830D01*
X109106Y-50848D01*
X109071Y-50883D01*
X109054Y-50918D01*
X109036Y-50988D01*
X109036Y-51041D01*
X109054Y-51111D01*
X109071Y-51146D01*
X109106Y-51181D01*
X109159Y-51198D01*
X109246Y-51198D01*
X108913Y-50830D02*
X108686Y-50830D01*
X108808Y-50971D01*
X108756Y-50971D01*
X108721Y-50988D01*
X108703Y-51006D01*
X108686Y-51041D01*
X108686Y-51128D01*
X108703Y-51163D01*
X108721Y-51181D01*
X108756Y-51198D01*
X108861Y-51198D01*
X108896Y-51181D01*
X108913Y-51163D01*
X108370Y-50830D02*
X108440Y-50830D01*
X108475Y-50848D01*
X108493Y-50865D01*
X108528Y-50918D01*
X108545Y-50988D01*
X108545Y-51128D01*
X108528Y-51163D01*
X108510Y-51181D01*
X108475Y-51198D01*
X108405Y-51198D01*
X108370Y-51181D01*
X108353Y-51163D01*
X108335Y-51128D01*
X108335Y-51041D01*
X108353Y-51006D01*
X108370Y-50988D01*
X108405Y-50971D01*
X108475Y-50971D01*
X108510Y-50988D01*
X108528Y-51006D01*
X108545Y-51041D01*
X105446Y-36198D02*
X105446Y-35830D01*
X105359Y-35830D01*
X105306Y-35848D01*
X105271Y-35883D01*
X105254Y-35918D01*
X105236Y-35988D01*
X105236Y-36041D01*
X105254Y-36111D01*
X105271Y-36146D01*
X105306Y-36181D01*
X105359Y-36198D01*
X105446Y-36198D01*
X105113Y-35830D02*
X104886Y-35830D01*
X105008Y-35971D01*
X104956Y-35971D01*
X104921Y-35988D01*
X104903Y-36006D01*
X104886Y-36041D01*
X104886Y-36128D01*
X104903Y-36163D01*
X104921Y-36181D01*
X104956Y-36198D01*
X105061Y-36198D01*
X105096Y-36181D01*
X105113Y-36163D01*
X104570Y-35953D02*
X104570Y-36198D01*
X104658Y-35813D02*
X104745Y-36076D01*
X104517Y-36076D01*
X107346Y-43698D02*
X107346Y-43330D01*
X107259Y-43330D01*
X107206Y-43348D01*
X107171Y-43383D01*
X107154Y-43418D01*
X107136Y-43488D01*
X107136Y-43541D01*
X107154Y-43611D01*
X107171Y-43646D01*
X107206Y-43681D01*
X107259Y-43698D01*
X107346Y-43698D01*
X107013Y-43330D02*
X106786Y-43330D01*
X106908Y-43471D01*
X106856Y-43471D01*
X106821Y-43488D01*
X106803Y-43506D01*
X106786Y-43541D01*
X106786Y-43628D01*
X106803Y-43663D01*
X106821Y-43681D01*
X106856Y-43698D01*
X106961Y-43698D01*
X106996Y-43681D01*
X107013Y-43663D01*
X106453Y-43330D02*
X106628Y-43330D01*
X106645Y-43506D01*
X106628Y-43488D01*
X106593Y-43471D01*
X106505Y-43471D01*
X106470Y-43488D01*
X106453Y-43506D01*
X106435Y-43541D01*
X106435Y-43628D01*
X106453Y-43663D01*
X106470Y-43681D01*
X106505Y-43698D01*
X106593Y-43698D01*
X106628Y-43681D01*
X106645Y-43663D01*
X69846Y-43698D02*
X69846Y-43330D01*
X69759Y-43330D01*
X69706Y-43348D01*
X69671Y-43383D01*
X69654Y-43418D01*
X69636Y-43488D01*
X69636Y-43541D01*
X69654Y-43611D01*
X69671Y-43646D01*
X69706Y-43681D01*
X69759Y-43698D01*
X69846Y-43698D01*
X69286Y-43698D02*
X69496Y-43698D01*
X69391Y-43698D02*
X69391Y-43330D01*
X69426Y-43383D01*
X69461Y-43418D01*
X69496Y-43436D01*
X69075Y-43488D02*
X69110Y-43471D01*
X69128Y-43453D01*
X69145Y-43418D01*
X69145Y-43401D01*
X69128Y-43365D01*
X69110Y-43348D01*
X69075Y-43330D01*
X69005Y-43330D01*
X68970Y-43348D01*
X68953Y-43365D01*
X68935Y-43401D01*
X68935Y-43418D01*
X68953Y-43453D01*
X68970Y-43471D01*
X69005Y-43488D01*
X69075Y-43488D01*
X69110Y-43506D01*
X69128Y-43523D01*
X69145Y-43558D01*
X69145Y-43628D01*
X69128Y-43663D01*
X69110Y-43681D01*
X69075Y-43698D01*
X69005Y-43698D01*
X68970Y-43681D01*
X68953Y-43663D01*
X68935Y-43628D01*
X68935Y-43558D01*
X68953Y-43523D01*
X68970Y-43506D01*
X69005Y-43488D01*
X99846Y-43698D02*
X99846Y-43330D01*
X99759Y-43330D01*
X99706Y-43348D01*
X99671Y-43383D01*
X99654Y-43418D01*
X99636Y-43488D01*
X99636Y-43541D01*
X99654Y-43611D01*
X99671Y-43646D01*
X99706Y-43681D01*
X99759Y-43698D01*
X99846Y-43698D01*
X99513Y-43330D02*
X99286Y-43330D01*
X99408Y-43471D01*
X99356Y-43471D01*
X99321Y-43488D01*
X99303Y-43506D01*
X99286Y-43541D01*
X99286Y-43628D01*
X99303Y-43663D01*
X99321Y-43681D01*
X99356Y-43698D01*
X99461Y-43698D01*
X99496Y-43681D01*
X99513Y-43663D01*
X98935Y-43698D02*
X99145Y-43698D01*
X99040Y-43698D02*
X99040Y-43330D01*
X99075Y-43383D01*
X99110Y-43418D01*
X99145Y-43436D01*
X97946Y-36198D02*
X97946Y-35830D01*
X97859Y-35830D01*
X97806Y-35848D01*
X97771Y-35883D01*
X97754Y-35918D01*
X97736Y-35988D01*
X97736Y-36041D01*
X97754Y-36111D01*
X97771Y-36146D01*
X97806Y-36181D01*
X97859Y-36198D01*
X97946Y-36198D01*
X97613Y-35830D02*
X97386Y-35830D01*
X97508Y-35971D01*
X97456Y-35971D01*
X97421Y-35988D01*
X97403Y-36006D01*
X97386Y-36041D01*
X97386Y-36128D01*
X97403Y-36163D01*
X97421Y-36181D01*
X97456Y-36198D01*
X97561Y-36198D01*
X97596Y-36181D01*
X97613Y-36163D01*
X97158Y-35830D02*
X97123Y-35830D01*
X97088Y-35848D01*
X97070Y-35865D01*
X97053Y-35901D01*
X97035Y-35971D01*
X97035Y-36058D01*
X97053Y-36128D01*
X97070Y-36163D01*
X97088Y-36181D01*
X97123Y-36198D01*
X97158Y-36198D01*
X97193Y-36181D01*
X97210Y-36163D01*
X97228Y-36128D01*
X97245Y-36058D01*
X97245Y-35971D01*
X97228Y-35901D01*
X97210Y-35865D01*
X97193Y-35848D01*
X97158Y-35830D01*
X100746Y-58698D02*
X100746Y-58330D01*
X100659Y-58330D01*
X100606Y-58348D01*
X100571Y-58383D01*
X100554Y-58418D01*
X100536Y-58488D01*
X100536Y-58541D01*
X100554Y-58611D01*
X100571Y-58646D01*
X100606Y-58681D01*
X100659Y-58698D01*
X100746Y-58698D01*
X100413Y-58330D02*
X100186Y-58330D01*
X100308Y-58471D01*
X100256Y-58471D01*
X100221Y-58488D01*
X100203Y-58506D01*
X100186Y-58541D01*
X100186Y-58628D01*
X100203Y-58663D01*
X100221Y-58681D01*
X100256Y-58698D01*
X100361Y-58698D01*
X100396Y-58681D01*
X100413Y-58663D01*
X100063Y-58330D02*
X99835Y-58330D01*
X99958Y-58471D01*
X99905Y-58471D01*
X99870Y-58488D01*
X99853Y-58506D01*
X99835Y-58541D01*
X99835Y-58628D01*
X99853Y-58663D01*
X99870Y-58681D01*
X99905Y-58698D01*
X100010Y-58698D01*
X100045Y-58681D01*
X100063Y-58663D01*
X87546Y-58698D02*
X87546Y-58330D01*
X87459Y-58330D01*
X87406Y-58348D01*
X87371Y-58383D01*
X87354Y-58418D01*
X87336Y-58488D01*
X87336Y-58541D01*
X87354Y-58611D01*
X87371Y-58646D01*
X87406Y-58681D01*
X87459Y-58698D01*
X87546Y-58698D01*
X87196Y-58365D02*
X87178Y-58348D01*
X87143Y-58330D01*
X87056Y-58330D01*
X87021Y-58348D01*
X87003Y-58365D01*
X86986Y-58401D01*
X86986Y-58436D01*
X87003Y-58488D01*
X87213Y-58698D01*
X86986Y-58698D01*
X86810Y-58698D02*
X86740Y-58698D01*
X86705Y-58681D01*
X86688Y-58663D01*
X86653Y-58611D01*
X86635Y-58541D01*
X86635Y-58401D01*
X86653Y-58365D01*
X86670Y-58348D01*
X86705Y-58330D01*
X86775Y-58330D01*
X86810Y-58348D01*
X86828Y-58365D01*
X86845Y-58401D01*
X86845Y-58488D01*
X86828Y-58523D01*
X86810Y-58541D01*
X86775Y-58558D01*
X86705Y-58558D01*
X86670Y-58541D01*
X86653Y-58523D01*
X86635Y-58488D01*
X38771Y-58698D02*
X38771Y-58330D01*
X38684Y-58330D01*
X38631Y-58348D01*
X38596Y-58383D01*
X38578Y-58418D01*
X38561Y-58488D01*
X38561Y-58541D01*
X38578Y-58611D01*
X38596Y-58646D01*
X38631Y-58681D01*
X38684Y-58698D01*
X38771Y-58698D01*
X38245Y-58453D02*
X38245Y-58698D01*
X38333Y-58313D02*
X38421Y-58576D01*
X38193Y-58576D01*
X83111Y-53898D02*
X83234Y-53723D01*
X83321Y-53898D02*
X83321Y-53530D01*
X83181Y-53530D01*
X83146Y-53548D01*
X83128Y-53565D01*
X83111Y-53601D01*
X83111Y-53653D01*
X83128Y-53688D01*
X83146Y-53706D01*
X83181Y-53723D01*
X83321Y-53723D01*
X82988Y-53530D02*
X82760Y-53530D01*
X82883Y-53671D01*
X82830Y-53671D01*
X82795Y-53688D01*
X82778Y-53706D01*
X82760Y-53741D01*
X82760Y-53828D01*
X82778Y-53863D01*
X82795Y-53881D01*
X82830Y-53898D01*
X82936Y-53898D01*
X82971Y-53881D01*
X82988Y-53863D01*
X75711Y-59698D02*
X75834Y-59523D01*
X75921Y-59698D02*
X75921Y-59330D01*
X75781Y-59330D01*
X75746Y-59348D01*
X75728Y-59365D01*
X75711Y-59401D01*
X75711Y-59453D01*
X75728Y-59488D01*
X75746Y-59506D01*
X75781Y-59523D01*
X75921Y-59523D01*
X75395Y-59453D02*
X75395Y-59698D01*
X75483Y-59313D02*
X75571Y-59576D01*
X75343Y-59576D01*
X79911Y-53863D02*
X79928Y-53881D01*
X79981Y-53898D01*
X80016Y-53898D01*
X80069Y-53881D01*
X80104Y-53846D01*
X80121Y-53811D01*
X80139Y-53741D01*
X80139Y-53688D01*
X80121Y-53618D01*
X80104Y-53583D01*
X80069Y-53548D01*
X80016Y-53530D01*
X79981Y-53530D01*
X79928Y-53548D01*
X79911Y-53565D01*
X79788Y-53530D02*
X79543Y-53530D01*
X79701Y-53898D01*
X82998Y-39588D02*
X82823Y-39465D01*
X82998Y-39378D02*
X82630Y-39378D01*
X82630Y-39518D01*
X82648Y-39553D01*
X82665Y-39571D01*
X82701Y-39588D01*
X82753Y-39588D01*
X82788Y-39571D01*
X82806Y-39553D01*
X82823Y-39518D01*
X82823Y-39378D01*
X82665Y-39728D02*
X82648Y-39746D01*
X82630Y-39781D01*
X82630Y-39869D01*
X82648Y-39904D01*
X82665Y-39921D01*
X82701Y-39939D01*
X82736Y-39939D01*
X82788Y-39921D01*
X82998Y-39711D01*
X82998Y-39939D01*
X80598Y-39588D02*
X80423Y-39465D01*
X80598Y-39378D02*
X80230Y-39378D01*
X80230Y-39518D01*
X80248Y-39553D01*
X80265Y-39571D01*
X80301Y-39588D01*
X80353Y-39588D01*
X80388Y-39571D01*
X80406Y-39553D01*
X80423Y-39518D01*
X80423Y-39378D01*
X80598Y-39939D02*
X80598Y-39728D01*
X80598Y-39834D02*
X80230Y-39834D01*
X80283Y-39798D01*
X80318Y-39763D01*
X80336Y-39728D01*
X85061Y-53813D02*
X85078Y-53831D01*
X85131Y-53848D01*
X85166Y-53848D01*
X85219Y-53831D01*
X85254Y-53796D01*
X85271Y-53761D01*
X85289Y-53691D01*
X85289Y-53638D01*
X85271Y-53568D01*
X85254Y-53533D01*
X85219Y-53498D01*
X85166Y-53480D01*
X85131Y-53480D01*
X85078Y-53498D01*
X85061Y-53515D01*
X84745Y-53480D02*
X84815Y-53480D01*
X84851Y-53498D01*
X84868Y-53515D01*
X84903Y-53568D01*
X84921Y-53638D01*
X84921Y-53778D01*
X84903Y-53813D01*
X84886Y-53831D01*
X84851Y-53848D01*
X84780Y-53848D01*
X84745Y-53831D01*
X84728Y-53813D01*
X84710Y-53778D01*
X84710Y-53691D01*
X84728Y-53656D01*
X84745Y-53638D01*
X84780Y-53621D01*
X84851Y-53621D01*
X84886Y-53638D01*
X84903Y-53656D01*
X84921Y-53691D01*
X65763Y-57688D02*
X65781Y-57671D01*
X65798Y-57618D01*
X65798Y-57583D01*
X65781Y-57530D01*
X65746Y-57495D01*
X65711Y-57478D01*
X65641Y-57460D01*
X65588Y-57460D01*
X65518Y-57478D01*
X65483Y-57495D01*
X65448Y-57530D01*
X65430Y-57583D01*
X65430Y-57618D01*
X65448Y-57671D01*
X65465Y-57688D01*
X65430Y-58021D02*
X65430Y-57846D01*
X65606Y-57828D01*
X65588Y-57846D01*
X65571Y-57881D01*
X65571Y-57969D01*
X65588Y-58004D01*
X65606Y-58021D01*
X65641Y-58039D01*
X65728Y-58039D01*
X65763Y-58021D01*
X65781Y-58004D01*
X65798Y-57969D01*
X65798Y-57881D01*
X65781Y-57846D01*
X65763Y-57828D01*
X66863Y-55288D02*
X66881Y-55271D01*
X66898Y-55218D01*
X66898Y-55183D01*
X66881Y-55130D01*
X66846Y-55095D01*
X66811Y-55078D01*
X66741Y-55060D01*
X66688Y-55060D01*
X66618Y-55078D01*
X66583Y-55095D01*
X66548Y-55130D01*
X66530Y-55183D01*
X66530Y-55218D01*
X66548Y-55271D01*
X66565Y-55288D01*
X66530Y-55411D02*
X66530Y-55639D01*
X66671Y-55516D01*
X66671Y-55569D01*
X66688Y-55604D01*
X66706Y-55621D01*
X66741Y-55639D01*
X66828Y-55639D01*
X66863Y-55621D01*
X66881Y-55604D01*
X66898Y-55569D01*
X66898Y-55463D01*
X66881Y-55428D01*
X66863Y-55411D01*
X64563Y-55288D02*
X64581Y-55271D01*
X64598Y-55218D01*
X64598Y-55183D01*
X64581Y-55130D01*
X64546Y-55095D01*
X64511Y-55078D01*
X64441Y-55060D01*
X64388Y-55060D01*
X64318Y-55078D01*
X64283Y-55095D01*
X64248Y-55130D01*
X64230Y-55183D01*
X64230Y-55218D01*
X64248Y-55271D01*
X64265Y-55288D01*
X64265Y-55428D02*
X64248Y-55446D01*
X64230Y-55481D01*
X64230Y-55569D01*
X64248Y-55604D01*
X64265Y-55621D01*
X64301Y-55639D01*
X64336Y-55639D01*
X64388Y-55621D01*
X64598Y-55411D01*
X64598Y-55639D01*
X85011Y-58163D02*
X85028Y-58181D01*
X85081Y-58198D01*
X85116Y-58198D01*
X85169Y-58181D01*
X85204Y-58146D01*
X85221Y-58111D01*
X85239Y-58041D01*
X85239Y-57988D01*
X85221Y-57918D01*
X85204Y-57883D01*
X85169Y-57848D01*
X85116Y-57830D01*
X85081Y-57830D01*
X85028Y-57848D01*
X85011Y-57865D01*
X84801Y-57988D02*
X84836Y-57971D01*
X84853Y-57953D01*
X84871Y-57918D01*
X84871Y-57901D01*
X84853Y-57865D01*
X84836Y-57848D01*
X84801Y-57830D01*
X84730Y-57830D01*
X84695Y-57848D01*
X84678Y-57865D01*
X84660Y-57901D01*
X84660Y-57918D01*
X84678Y-57953D01*
X84695Y-57971D01*
X84730Y-57988D01*
X84801Y-57988D01*
X84836Y-58006D01*
X84853Y-58023D01*
X84871Y-58058D01*
X84871Y-58128D01*
X84853Y-58163D01*
X84836Y-58181D01*
X84801Y-58198D01*
X84730Y-58198D01*
X84695Y-58181D01*
X84678Y-58163D01*
X84660Y-58128D01*
X84660Y-58058D01*
X84678Y-58023D01*
X84695Y-58006D01*
X84730Y-57988D01*
X63463Y-57688D02*
X63481Y-57671D01*
X63498Y-57618D01*
X63498Y-57583D01*
X63481Y-57530D01*
X63446Y-57495D01*
X63411Y-57478D01*
X63341Y-57460D01*
X63288Y-57460D01*
X63218Y-57478D01*
X63183Y-57495D01*
X63148Y-57530D01*
X63130Y-57583D01*
X63130Y-57618D01*
X63148Y-57671D01*
X63165Y-57688D01*
X63253Y-58004D02*
X63498Y-58004D01*
X63113Y-57916D02*
X63376Y-57828D01*
X63376Y-58056D01*
X62363Y-55288D02*
X62381Y-55271D01*
X62398Y-55218D01*
X62398Y-55183D01*
X62381Y-55130D01*
X62346Y-55095D01*
X62311Y-55078D01*
X62241Y-55060D01*
X62188Y-55060D01*
X62118Y-55078D01*
X62083Y-55095D01*
X62048Y-55130D01*
X62030Y-55183D01*
X62030Y-55218D01*
X62048Y-55271D01*
X62065Y-55288D01*
X62398Y-55639D02*
X62398Y-55428D01*
X62398Y-55534D02*
X62030Y-55534D01*
X62083Y-55498D01*
X62118Y-55463D01*
X62136Y-55428D01*
G54D13*
X96381Y-54552D02*
X96581Y-54267D01*
X96724Y-54552D02*
X96724Y-53952D01*
X96496Y-53952D01*
X96439Y-53981D01*
X96410Y-54010D01*
X96381Y-54067D01*
X96381Y-54152D01*
X96410Y-54210D01*
X96439Y-54238D01*
X96496Y-54267D01*
X96724Y-54267D01*
X95896Y-54524D02*
X95953Y-54552D01*
X96067Y-54552D01*
X96124Y-54524D01*
X96153Y-54467D01*
X96153Y-54238D01*
X96124Y-54181D01*
X96067Y-54152D01*
X95953Y-54152D01*
X95896Y-54181D01*
X95867Y-54238D01*
X95867Y-54295D01*
X96153Y-54352D01*
X95638Y-54524D02*
X95581Y-54552D01*
X95467Y-54552D01*
X95410Y-54524D01*
X95381Y-54467D01*
X95381Y-54438D01*
X95410Y-54381D01*
X95467Y-54352D01*
X95553Y-54352D01*
X95610Y-54324D01*
X95638Y-54267D01*
X95638Y-54238D01*
X95610Y-54181D01*
X95553Y-54152D01*
X95467Y-54152D01*
X95410Y-54181D01*
X94896Y-54524D02*
X94953Y-54552D01*
X95067Y-54552D01*
X95124Y-54524D01*
X95153Y-54467D01*
X95153Y-54238D01*
X95124Y-54181D01*
X95067Y-54152D01*
X94953Y-54152D01*
X94896Y-54181D01*
X94867Y-54238D01*
X94867Y-54295D01*
X95153Y-54352D01*
X94696Y-54152D02*
X94467Y-54152D01*
X94610Y-53952D02*
X94610Y-54467D01*
X94581Y-54524D01*
X94524Y-54552D01*
X94467Y-54552D01*
G54D10*
X85286Y-55189D02*
X85050Y-55543D01*
X85050Y-55189D02*
X85286Y-55543D01*
X84730Y-55543D02*
X84932Y-55543D01*
X84831Y-55543D02*
X84831Y-55189D01*
X84865Y-55239D01*
X84898Y-55273D01*
X84932Y-55290D01*
G54D18*
X124246Y-58698D02*
X124246Y-58330D01*
X124159Y-58330D01*
X124106Y-58348D01*
X124071Y-58383D01*
X124054Y-58418D01*
X124036Y-58488D01*
X124036Y-58541D01*
X124054Y-58611D01*
X124071Y-58646D01*
X124106Y-58681D01*
X124159Y-58698D01*
X124246Y-58698D01*
X123721Y-58453D02*
X123721Y-58698D01*
X123808Y-58313D02*
X123896Y-58576D01*
X123668Y-58576D01*
X123353Y-58330D02*
X123528Y-58330D01*
X123545Y-58506D01*
X123528Y-58488D01*
X123493Y-58471D01*
X123405Y-58471D01*
X123370Y-58488D01*
X123353Y-58506D01*
X123335Y-58541D01*
X123335Y-58628D01*
X123353Y-58663D01*
X123370Y-58681D01*
X123405Y-58698D01*
X123493Y-58698D01*
X123528Y-58681D01*
X123545Y-58663D01*
M02*
