M48
;DRILL file {Pcbnew (2013-07-07 BZR 4022)-stable} date 11/7/2014 7:46:33 PM
;FORMAT={-:-/ absolute / inch / decimal}
FMAT,2
INCH,TZ
T1C0.025
T2C0.030
T3C0.059
T4C0.067
T5C0.157
%
G90
G05
M72
T1
X3.78Y-4.12
X3.93Y-5.33
X4.09Y-3.83
X4.89Y-5.29
X5.62Y-5.37
X6.3Y-5.61
X6.47Y-5.81
X6.52Y-5.61
X6.58Y-5.81
X6.75Y-5.61
X7.46Y-5.45
X7.56Y-5.29
X7.62Y-5.33
X7.68Y-5.33
X7.7Y-5.86
X7.72Y-5.5
X7.77Y-5.46
X7.81Y-5.37
X7.88Y-5.83
X7.92Y-5.54
X7.92Y-5.79
X7.94Y-5.37
X8.Y-5.66
X8.01Y-5.72
X8.04Y-5.37
X8.05Y-3.83
X8.05Y-5.53
X8.05Y-5.76
X8.06Y-5.21
X8.06Y-5.83
X8.1Y-5.6
X8.11Y-5.36
X8.14Y-3.83
X8.15Y-5.69
X8.17Y-5.36
X8.18Y-5.17
X8.21Y-5.46
X8.25Y-3.78
X8.27Y-3.97
X8.27Y-4.59
X8.28Y-5.07
X8.29Y-3.87
X8.29Y-4.71
X8.32Y-5.72
X8.33Y-4.31
X8.33Y-4.52
X8.34Y-5.13
X8.36Y-5.2
X8.36Y-5.47
X8.36Y-5.75
X8.37Y-5.01
X8.4Y-5.79
X8.41Y-5.36
X8.42Y-4.61
X8.44Y-3.92
X8.48Y-5.14
X8.59Y-5.51
X8.59Y-5.77
X8.63Y-5.09
X8.64Y-5.56
X9.22Y-5.3
X9.37Y-5.35
X9.97Y-5.18
X10.72Y-5.94
X11.46Y-5.96
X11.78Y-3.51
X11.82Y-3.82
X11.85Y-3.86
X12.22Y-5.98
T2
X3.8005Y-3.8885
X3.8005Y-3.9515
X3.8477Y-3.857
X3.8477Y-3.92
X3.8477Y-3.983
X11.837Y-3.3677
X11.8685Y-3.3205
X11.9Y-3.3677
X11.9315Y-3.3205
X11.963Y-3.3677
T3
X3.78Y-3.35
X3.8737Y-4.1
X3.8737Y-5.6
X3.9675Y-4.85
X4.03Y-3.25
X4.1238Y-4.
X4.1238Y-5.5
X4.2175Y-4.75
X4.53Y-3.35
X4.7175Y-4.1
X4.78Y-3.25
X4.8113Y-5.6
X4.905Y-4.85
X4.9675Y-4.
X5.0613Y-5.5
X5.155Y-4.75
X5.28Y-3.35
X5.4675Y-4.1
X5.53Y-3.25
X5.655Y-4.85
X5.7175Y-4.
X5.7488Y-5.6
X5.905Y-4.75
X5.9988Y-5.5
X6.03Y-3.35
X6.2175Y-4.1
X6.28Y-3.25
X6.405Y-4.85
X6.4675Y-4.
X6.655Y-4.75
X6.78Y-3.35
X6.9675Y-4.1
X7.03Y-3.25
X7.0613Y-5.6
X7.155Y-4.85
X7.2175Y-4.
X7.3113Y-5.5
X7.405Y-4.75
X7.53Y-3.35
X7.7175Y-4.1
X7.78Y-3.25
X7.905Y-4.85
X7.9675Y-4.
X8.155Y-4.75
X8.28Y-3.35
X8.4675Y-4.1
X8.53Y-3.25
X8.655Y-4.85
X8.7175Y-4.
X8.7487Y-5.6
X8.905Y-4.75
X8.9987Y-5.5
X9.03Y-3.35
X9.2175Y-4.1
X9.28Y-3.25
X9.405Y-4.85
X9.4675Y-4.
X9.655Y-4.75
X9.78Y-3.35
X9.9675Y-4.1
X10.03Y-3.25
X10.0612Y-5.6
X10.155Y-4.85
X10.2175Y-4.
X10.3112Y-5.5
X10.405Y-4.75
X10.53Y-3.35
X10.7175Y-4.1
X10.78Y-3.25
X10.905Y-4.85
X10.905Y-5.6
X10.9675Y-4.
X11.155Y-4.75
X11.155Y-5.5
X11.28Y-3.35
X11.4675Y-4.1
X11.53Y-3.25
X11.655Y-4.85
X11.655Y-5.6
X11.7175Y-4.
X11.905Y-4.75
X11.905Y-5.5
X12.2175Y-3.35
X12.3112Y-4.1
X12.405Y-4.85
X12.405Y-5.6
X12.4675Y-3.25
X12.5612Y-4.
X12.655Y-4.75
X12.655Y-5.5
T4
X3.73Y-3.45
X3.8237Y-4.2
X3.8237Y-5.7
X3.9175Y-4.95
X4.13Y-3.45
X4.2237Y-4.2
X4.2237Y-5.7
X4.3175Y-4.95
X4.48Y-3.45
X4.6675Y-4.2
X4.7612Y-5.7
X4.855Y-4.95
X4.88Y-3.45
X5.0675Y-4.2
X5.1612Y-5.7
X5.23Y-3.45
X5.255Y-4.95
X5.4175Y-4.2
X5.605Y-4.95
X5.63Y-3.45
X5.6987Y-5.7
X5.8175Y-4.2
X5.98Y-3.45
X6.005Y-4.95
X6.0987Y-5.7
X6.1675Y-4.2
X6.355Y-4.95
X6.38Y-3.45
X6.5675Y-4.2
X6.73Y-3.45
X6.755Y-4.95
X6.9175Y-4.2
X7.0112Y-5.7
X7.105Y-4.95
X7.13Y-3.45
X7.3175Y-4.2
X7.4112Y-5.7
X7.48Y-3.45
X7.505Y-4.95
X7.6675Y-4.2
X7.855Y-4.95
X7.88Y-3.45
X8.0675Y-4.2
X8.23Y-3.45
X8.255Y-4.95
X8.4175Y-4.2
X8.605Y-4.95
X8.63Y-3.45
X8.6988Y-5.7
X8.8175Y-4.2
X8.98Y-3.45
X9.005Y-4.95
X9.0987Y-5.7
X9.1675Y-4.2
X9.355Y-4.95
X9.38Y-3.45
X9.5675Y-4.2
X9.73Y-3.45
X9.755Y-4.95
X9.9175Y-4.2
X10.0113Y-5.7
X10.105Y-4.95
X10.13Y-3.45
X10.3175Y-4.2
X10.4112Y-5.7
X10.48Y-3.45
X10.505Y-4.95
X10.6675Y-4.2
X10.855Y-4.95
X10.855Y-5.7
X10.88Y-3.45
X11.0675Y-4.2
X11.23Y-3.45
X11.255Y-4.95
X11.255Y-5.7
X11.4175Y-4.2
X11.605Y-4.95
X11.605Y-5.7
X11.63Y-3.45
X11.8175Y-4.2
X12.005Y-4.95
X12.005Y-5.7
X12.1675Y-3.45
X12.2613Y-4.2
X12.355Y-4.95
X12.355Y-5.7
X12.5675Y-3.45
X12.6612Y-4.2
X12.755Y-4.95
X12.755Y-5.7
T5
X3.93Y-3.45
X4.0237Y-4.2
X4.0237Y-5.7
X4.1175Y-4.95
X4.68Y-3.45
X4.8675Y-4.2
X4.9612Y-5.7
X5.055Y-4.95
X5.43Y-3.45
X5.6175Y-4.2
X5.805Y-4.95
X5.8987Y-5.7
X6.18Y-3.45
X6.3675Y-4.2
X6.555Y-4.95
X6.93Y-3.45
X7.1175Y-4.2
X7.2112Y-5.7
X7.305Y-4.95
X7.68Y-3.45
X7.8675Y-4.2
X8.055Y-4.95
X8.43Y-3.45
X8.6175Y-4.2
X8.805Y-4.95
X8.8987Y-5.7
X9.18Y-3.45
X9.3675Y-4.2
X9.555Y-4.95
X9.93Y-3.45
X10.1175Y-4.2
X10.2112Y-5.7
X10.305Y-4.95
X10.68Y-3.45
X10.8675Y-4.2
X11.055Y-4.95
X11.055Y-5.7
X11.43Y-3.45
X11.6175Y-4.2
X11.805Y-4.95
X11.805Y-5.7
X12.3675Y-3.45
X12.4612Y-4.2
X12.555Y-4.95
X12.555Y-5.7
T2
X3.6264Y-3.7764G85X3.6714Y-3.7764
G05
X3.6264Y-4.0636G85X3.6714Y-4.0636
G05
X11.7564Y-3.1464G85X11.7564Y-3.1914
G05
X12.0436Y-3.1464G85X12.0436Y-3.1914
G05
T0
M30
