M48
INCH,TZ
T1C0.025
T2C0.030
T3C0.059
T4C0.067
T5C0.157
%
G90
G05
T1
X37800Y-41200
X39300Y-53300
X40900Y-38300
X48900Y-52900
X56200Y-53700
X63000Y-56100
X64700Y-58100
X65200Y-56100
X65800Y-58100
X67500Y-56100
X74600Y-54500
X75600Y-52900
X76200Y-53300
X76800Y-53300
X77000Y-58600
X77200Y-55000
X77700Y-54600
X78100Y-53700
X78800Y-58300
X79200Y-55400
X79200Y-57900
X79400Y-53700
X80000Y-56600
X80100Y-57200
X80400Y-53700
X80500Y-38300
X80500Y-55300
X80500Y-57600
X80600Y-52100
X80600Y-58300
X81000Y-56000
X81100Y-53600
X81400Y-38300
X81500Y-56900
X81700Y-53600
X81800Y-51700
X82100Y-54600
X82500Y-37800
X82700Y-39700
X82700Y-45900
X82800Y-50700
X82900Y-38700
X82900Y-47100
X83200Y-57200
X83300Y-43100
X83300Y-45200
X83400Y-51300
X83600Y-52000
X83600Y-54700
X83600Y-57500
X83700Y-50100
X84000Y-57900
X84100Y-53600
X84200Y-46100
X84400Y-39200
X84800Y-51400
X85900Y-55100
X85900Y-57700
X86300Y-50900
X86400Y-55600
X92200Y-53000
X93700Y-53500
X99700Y-51800
X107200Y-59400
X114600Y-59600
X117800Y-35100
X118200Y-38200
X118500Y-38600
X122200Y-59800
T2
X38005Y-38885
X38005Y-39515
X38477Y-38570
X38477Y-39200
X38477Y-39830
X118370Y-33677
X118685Y-33205
X119000Y-33677
X119315Y-33205
X119630Y-33677
T3
X37800Y-33500
X38738Y-41000
X38738Y-56000
X39675Y-48500
X40300Y-32500
X41238Y-40000
X41238Y-55000
X42175Y-47500
X45300Y-33500
X47175Y-41000
X47800Y-32500
X48113Y-56000
X49050Y-48500
X49675Y-40000
X50613Y-55000
X51550Y-47500
X52800Y-33500
X54675Y-41000
X55300Y-32500
X56550Y-48500
X57175Y-40000
X57488Y-56000
X59050Y-47500
X59988Y-55000
X60300Y-33500
X62175Y-41000
X62800Y-32500
X64050Y-48500
X64675Y-40000
X66550Y-47500
X67800Y-33500
X69675Y-41000
X70300Y-32500
X70613Y-56000
X71550Y-48500
X72175Y-40000
X73113Y-55000
X74050Y-47500
X75300Y-33500
X77175Y-41000
X77800Y-32500
X79050Y-48500
X79675Y-40000
X81550Y-47500
X82800Y-33500
X84675Y-41000
X85300Y-32500
X86550Y-48500
X87175Y-40000
X87488Y-56000
X89050Y-47500
X89988Y-55000
X90300Y-33500
X92175Y-41000
X92800Y-32500
X94050Y-48500
X94675Y-40000
X96550Y-47500
X97800Y-33500
X99675Y-41000
X100300Y-32500
X100613Y-56000
X101550Y-48500
X102175Y-40000
X103113Y-55000
X104050Y-47500
X105300Y-33500
X107175Y-41000
X107800Y-32500
X109050Y-48500
X109050Y-56000
X109675Y-40000
X111550Y-47500
X111550Y-55000
X112800Y-33500
X114675Y-41000
X115300Y-32500
X116550Y-48500
X116550Y-56000
X117175Y-40000
X119050Y-47500
X119050Y-55000
X122175Y-33500
X123113Y-41000
X124050Y-48500
X124050Y-56000
X124675Y-32500
X125613Y-40000
X126550Y-47500
X126550Y-55000
T4
X37300Y-34500
X38238Y-42000
X38238Y-57000
X39175Y-49500
X41300Y-34500
X42238Y-42000
X42238Y-57000
X43175Y-49500
X44800Y-34500
X46675Y-42000
X47613Y-57000
X48550Y-49500
X48800Y-34500
X50675Y-42000
X51613Y-57000
X52300Y-34500
X52550Y-49500
X54175Y-42000
X56050Y-49500
X56300Y-34500
X56988Y-57000
X58175Y-42000
X59800Y-34500
X60050Y-49500
X60988Y-57000
X61675Y-42000
X63550Y-49500
X63800Y-34500
X65675Y-42000
X67300Y-34500
X67550Y-49500
X69175Y-42000
X70113Y-57000
X71050Y-49500
X71300Y-34500
X73175Y-42000
X74113Y-57000
X74800Y-34500
X75050Y-49500
X76675Y-42000
X78550Y-49500
X78800Y-34500
X80675Y-42000
X82300Y-34500
X82550Y-49500
X84175Y-42000
X86050Y-49500
X86300Y-34500
X86988Y-57000
X88175Y-42000
X89800Y-34500
X90050Y-49500
X90987Y-57000
X91675Y-42000
X93550Y-49500
X93800Y-34500
X95675Y-42000
X97300Y-34500
X97550Y-49500
X99175Y-42000
X100113Y-57000
X101050Y-49500
X101300Y-34500
X103175Y-42000
X104112Y-57000
X104800Y-34500
X105050Y-49500
X106675Y-42000
X108550Y-49500
X108550Y-57000
X108800Y-34500
X110675Y-42000
X112300Y-34500
X112550Y-49500
X112550Y-57000
X114175Y-42000
X116050Y-49500
X116050Y-57000
X116300Y-34500
X118175Y-42000
X120050Y-49500
X120050Y-57000
X121675Y-34500
X122613Y-42000
X123550Y-49500
X123550Y-57000
X125675Y-34500
X126612Y-42000
X127550Y-49500
X127550Y-57000
T5
X39300Y-34500
X40238Y-42000
X40238Y-57000
X41175Y-49500
X46800Y-34500
X48675Y-42000
X49613Y-57000
X50550Y-49500
X54300Y-34500
X56175Y-42000
X58050Y-49500
X58988Y-57000
X61800Y-34500
X63675Y-42000
X65550Y-49500
X69300Y-34500
X71175Y-42000
X72113Y-57000
X73050Y-49500
X76800Y-34500
X78675Y-42000
X80550Y-49500
X84300Y-34500
X86175Y-42000
X88050Y-49500
X88988Y-57000
X91800Y-34500
X93675Y-42000
X95550Y-49500
X99300Y-34500
X101175Y-42000
X102113Y-57000
X103050Y-49500
X106800Y-34500
X108675Y-42000
X110550Y-49500
X110550Y-57000
X114300Y-34500
X116175Y-42000
X118050Y-49500
X118050Y-57000
X123675Y-34500
X124613Y-42000
X125550Y-49500
X125550Y-57000
T2
X36264Y-37764G85X36714Y-37764
G05
X36264Y-40636G85X36714Y-40636
G05
X117564Y-31464G85X117564Y-31914
G05
X120436Y-31464G85X120436Y-31914
G05
T0
M30
