G04 (created by PCBNEW (2013-07-07 BZR 4022)-stable) date 7/27/2014 4:03:04 PM*
%MOIN*%
G04 Gerber Fmt 3.4, Leading zero omitted, Abs format*
%FSLAX34Y34*%
G01*
G70*
G90*
G04 APERTURE LIST*
%ADD10C,0.00590551*%
%ADD11C,0.0001*%
%ADD12O,0.073X0.053*%
%ADD13O,0.118X0.075*%
%ADD14O,0.053X0.073*%
%ADD15O,0.075X0.118*%
%ADD16O,0.0828X0.024*%
%ADD17O,0.024X0.0828*%
%ADD18R,0.043X0.063*%
%ADD19R,0.063X0.043*%
%ADD20R,0.0986X0.0631*%
%ADD21R,0.0631X0.0533*%
%ADD22C,0.1647*%
%ADD23C,0.1064*%
%ADD24C,0.0749*%
G04 APERTURE END LIST*
G54D10*
G54D11*
G36*
X121105Y-43994D02*
X121105Y-44048D01*
X121105Y-44092D01*
X121104Y-44127D01*
X121104Y-44155D01*
X121103Y-44176D01*
X121102Y-44191D01*
X121101Y-44202D01*
X121099Y-44208D01*
X121097Y-44210D01*
X121090Y-44213D01*
X121073Y-44217D01*
X121048Y-44223D01*
X121016Y-44229D01*
X120978Y-44237D01*
X120935Y-44245D01*
X120890Y-44254D01*
X120840Y-44263D01*
X120795Y-44272D01*
X120756Y-44280D01*
X120724Y-44287D01*
X120700Y-44292D01*
X120686Y-44296D01*
X120682Y-44298D01*
X120678Y-44305D01*
X120670Y-44320D01*
X120660Y-44343D01*
X120648Y-44370D01*
X120635Y-44400D01*
X120622Y-44433D01*
X120609Y-44465D01*
X120597Y-44495D01*
X120587Y-44522D01*
X120579Y-44544D01*
X120574Y-44559D01*
X120573Y-44565D01*
X120576Y-44570D01*
X120585Y-44584D01*
X120599Y-44605D01*
X120617Y-44631D01*
X120638Y-44662D01*
X120661Y-44696D01*
X120676Y-44717D01*
X120777Y-44865D01*
X120777Y-44931D01*
X120777Y-44997D01*
X120623Y-45151D01*
X120469Y-45305D01*
X120404Y-45305D01*
X120340Y-45305D01*
X120194Y-45205D01*
X120049Y-45105D01*
X120002Y-45130D01*
X119956Y-45156D01*
X119888Y-45154D01*
X119820Y-45152D01*
X119671Y-44794D01*
X119522Y-44436D01*
X119522Y-44379D01*
X119522Y-44354D01*
X119523Y-44333D01*
X119524Y-44319D01*
X119525Y-44314D01*
X119531Y-44307D01*
X119544Y-44296D01*
X119562Y-44282D01*
X119579Y-44270D01*
X119625Y-44236D01*
X119663Y-44204D01*
X119694Y-44172D01*
X119720Y-44138D01*
X119743Y-44099D01*
X119758Y-44070D01*
X119781Y-44018D01*
X119794Y-43971D01*
X119797Y-43928D01*
X119795Y-43901D01*
X119777Y-43836D01*
X119749Y-43775D01*
X119713Y-43718D01*
X119667Y-43666D01*
X119614Y-43621D01*
X119555Y-43584D01*
X119547Y-43580D01*
X119505Y-43561D01*
X119464Y-43548D01*
X119425Y-43540D01*
X119402Y-43538D01*
X119360Y-43543D01*
X119313Y-43556D01*
X119264Y-43577D01*
X119216Y-43605D01*
X119171Y-43638D01*
X119130Y-43675D01*
X119104Y-43703D01*
X119080Y-43738D01*
X119056Y-43780D01*
X119036Y-43825D01*
X119020Y-43868D01*
X119016Y-43882D01*
X119011Y-43911D01*
X119009Y-43938D01*
X119011Y-43964D01*
X119019Y-43994D01*
X119031Y-44031D01*
X119034Y-44039D01*
X119063Y-44100D01*
X119101Y-44156D01*
X119149Y-44208D01*
X119206Y-44255D01*
X119245Y-44282D01*
X119261Y-44293D01*
X119274Y-44302D01*
X119280Y-44307D01*
X119281Y-44315D01*
X119283Y-44332D01*
X119283Y-44354D01*
X119284Y-44375D01*
X119284Y-44436D01*
X119139Y-44784D01*
X119115Y-44844D01*
X119092Y-44900D01*
X119070Y-44953D01*
X119050Y-45001D01*
X119032Y-45043D01*
X119017Y-45079D01*
X119005Y-45109D01*
X118996Y-45130D01*
X118990Y-45142D01*
X118989Y-45144D01*
X118986Y-45149D01*
X118980Y-45152D01*
X118970Y-45154D01*
X118954Y-45155D01*
X118930Y-45155D01*
X118918Y-45155D01*
X118852Y-45155D01*
X118805Y-45130D01*
X118758Y-45105D01*
X118667Y-45168D01*
X118634Y-45190D01*
X118600Y-45214D01*
X118567Y-45236D01*
X118539Y-45255D01*
X118521Y-45268D01*
X118466Y-45305D01*
X118401Y-45305D01*
X118337Y-45305D01*
X118182Y-45151D01*
X118028Y-44997D01*
X118028Y-44932D01*
X118028Y-44904D01*
X118029Y-44885D01*
X118031Y-44871D01*
X118034Y-44861D01*
X118040Y-44851D01*
X118047Y-44841D01*
X118055Y-44829D01*
X118068Y-44809D01*
X118086Y-44783D01*
X118106Y-44753D01*
X118129Y-44720D01*
X118149Y-44690D01*
X118172Y-44657D01*
X118192Y-44627D01*
X118209Y-44601D01*
X118222Y-44580D01*
X118231Y-44566D01*
X118234Y-44560D01*
X118232Y-44553D01*
X118226Y-44537D01*
X118218Y-44514D01*
X118206Y-44485D01*
X118193Y-44452D01*
X118183Y-44426D01*
X118166Y-44383D01*
X118152Y-44350D01*
X118141Y-44325D01*
X118132Y-44308D01*
X118126Y-44298D01*
X118121Y-44294D01*
X118112Y-44292D01*
X118095Y-44288D01*
X118069Y-44283D01*
X118036Y-44276D01*
X117997Y-44269D01*
X117954Y-44260D01*
X117912Y-44253D01*
X117867Y-44244D01*
X117824Y-44236D01*
X117787Y-44228D01*
X117755Y-44222D01*
X117730Y-44216D01*
X117714Y-44212D01*
X117708Y-44210D01*
X117706Y-44207D01*
X117705Y-44200D01*
X117704Y-44188D01*
X117703Y-44171D01*
X117702Y-44148D01*
X117701Y-44117D01*
X117701Y-44079D01*
X117701Y-44032D01*
X117700Y-43974D01*
X117700Y-43930D01*
X117700Y-43656D01*
X117713Y-43649D01*
X117721Y-43646D01*
X117739Y-43641D01*
X117765Y-43636D01*
X117798Y-43629D01*
X117837Y-43621D01*
X117881Y-43613D01*
X117927Y-43604D01*
X117928Y-43604D01*
X117974Y-43595D01*
X118017Y-43587D01*
X118056Y-43579D01*
X118088Y-43572D01*
X118113Y-43567D01*
X118130Y-43562D01*
X118138Y-43560D01*
X118138Y-43560D01*
X118142Y-43553D01*
X118149Y-43538D01*
X118159Y-43516D01*
X118172Y-43489D01*
X118185Y-43459D01*
X118198Y-43428D01*
X118212Y-43398D01*
X118224Y-43370D01*
X118234Y-43345D01*
X118241Y-43327D01*
X118245Y-43316D01*
X118245Y-43315D01*
X118242Y-43309D01*
X118233Y-43295D01*
X118220Y-43274D01*
X118202Y-43247D01*
X118181Y-43216D01*
X118157Y-43181D01*
X118137Y-43151D01*
X118028Y-42993D01*
X118028Y-42929D01*
X118028Y-42865D01*
X118182Y-42710D01*
X118336Y-42556D01*
X118402Y-42556D01*
X118468Y-42556D01*
X118608Y-42652D01*
X118644Y-42676D01*
X118678Y-42700D01*
X118709Y-42721D01*
X118735Y-42739D01*
X118755Y-42753D01*
X118768Y-42762D01*
X118770Y-42763D01*
X118793Y-42779D01*
X118898Y-42736D01*
X118939Y-42720D01*
X118970Y-42707D01*
X118994Y-42697D01*
X119011Y-42689D01*
X119022Y-42683D01*
X119029Y-42678D01*
X119034Y-42674D01*
X119036Y-42669D01*
X119036Y-42668D01*
X119038Y-42660D01*
X119042Y-42642D01*
X119047Y-42617D01*
X119053Y-42584D01*
X119061Y-42545D01*
X119069Y-42502D01*
X119077Y-42455D01*
X119078Y-42450D01*
X119087Y-42404D01*
X119096Y-42360D01*
X119103Y-42321D01*
X119110Y-42288D01*
X119116Y-42262D01*
X119120Y-42244D01*
X119123Y-42236D01*
X119123Y-42236D01*
X119126Y-42234D01*
X119133Y-42233D01*
X119143Y-42231D01*
X119159Y-42230D01*
X119181Y-42230D01*
X119210Y-42229D01*
X119246Y-42229D01*
X119291Y-42228D01*
X119346Y-42228D01*
X119402Y-42228D01*
X119456Y-42228D01*
X119507Y-42229D01*
X119553Y-42229D01*
X119594Y-42230D01*
X119629Y-42230D01*
X119655Y-42231D01*
X119673Y-42232D01*
X119682Y-42233D01*
X119682Y-42233D01*
X119685Y-42240D01*
X119689Y-42256D01*
X119695Y-42283D01*
X119703Y-42317D01*
X119711Y-42360D01*
X119721Y-42410D01*
X119728Y-42448D01*
X119737Y-42495D01*
X119745Y-42540D01*
X119753Y-42580D01*
X119759Y-42614D01*
X119765Y-42641D01*
X119769Y-42660D01*
X119771Y-42670D01*
X119771Y-42670D01*
X119776Y-42676D01*
X119788Y-42683D01*
X119806Y-42692D01*
X119833Y-42704D01*
X119868Y-42720D01*
X119894Y-42730D01*
X119932Y-42746D01*
X119961Y-42757D01*
X119982Y-42766D01*
X119998Y-42771D01*
X120008Y-42773D01*
X120016Y-42774D01*
X120021Y-42772D01*
X120026Y-42770D01*
X120027Y-42769D01*
X120035Y-42764D01*
X120051Y-42753D01*
X120073Y-42737D01*
X120102Y-42718D01*
X120134Y-42696D01*
X120170Y-42672D01*
X120190Y-42658D01*
X120338Y-42556D01*
X120404Y-42556D01*
X120469Y-42556D01*
X120623Y-42710D01*
X120777Y-42864D01*
X120777Y-42930D01*
X120777Y-42996D01*
X120668Y-43154D01*
X120559Y-43312D01*
X120611Y-43435D01*
X120627Y-43470D01*
X120641Y-43502D01*
X120654Y-43528D01*
X120664Y-43548D01*
X120671Y-43560D01*
X120673Y-43562D01*
X120681Y-43564D01*
X120698Y-43568D01*
X120723Y-43574D01*
X120756Y-43580D01*
X120795Y-43588D01*
X120838Y-43596D01*
X120884Y-43605D01*
X120889Y-43606D01*
X120943Y-43616D01*
X120990Y-43625D01*
X121029Y-43633D01*
X121061Y-43640D01*
X121084Y-43646D01*
X121097Y-43650D01*
X121100Y-43652D01*
X121101Y-43658D01*
X121102Y-43675D01*
X121103Y-43701D01*
X121104Y-43735D01*
X121104Y-43775D01*
X121105Y-43820D01*
X121105Y-43870D01*
X121105Y-43924D01*
X121105Y-43931D01*
X121105Y-43994D01*
X121105Y-43994D01*
X121105Y-43994D01*
G37*
G54D12*
X38585Y-39830D03*
X37897Y-39515D03*
X38585Y-39200D03*
X37897Y-38885D03*
X38585Y-38570D03*
G54D13*
X36489Y-37764D03*
X36489Y-40636D03*
G54D14*
X118370Y-33785D03*
X118685Y-33097D03*
X119000Y-33785D03*
X119315Y-33097D03*
X119630Y-33785D03*
G54D15*
X120436Y-31689D03*
X117564Y-31689D03*
G54D16*
X77750Y-56800D03*
X77750Y-56485D03*
X77750Y-56170D03*
X77750Y-55855D03*
X77750Y-55540D03*
X77750Y-55225D03*
X77750Y-57115D03*
X77750Y-57430D03*
X77750Y-57745D03*
X77750Y-58060D03*
X77750Y-58375D03*
X82250Y-56800D03*
X82250Y-56485D03*
X82250Y-56170D03*
X82250Y-55855D03*
X82250Y-55540D03*
X82250Y-55225D03*
X82250Y-57115D03*
X82250Y-57430D03*
X82250Y-57745D03*
X82250Y-58060D03*
X82250Y-58375D03*
G54D17*
X80000Y-54550D03*
X80000Y-59050D03*
X80315Y-54550D03*
X80315Y-59050D03*
X80630Y-59050D03*
X80630Y-54550D03*
X80945Y-54550D03*
X80945Y-59050D03*
X81260Y-59050D03*
X81260Y-54550D03*
X81575Y-54550D03*
X81575Y-59050D03*
X79685Y-59050D03*
X79685Y-54550D03*
X79370Y-54550D03*
X79370Y-59050D03*
X79055Y-59050D03*
X79055Y-54550D03*
X78740Y-54550D03*
X78740Y-59050D03*
X78425Y-59050D03*
X78425Y-54550D03*
G54D18*
X78145Y-51800D03*
X79455Y-51800D03*
X70645Y-51800D03*
X71955Y-51800D03*
X39145Y-36800D03*
X40455Y-36800D03*
X85645Y-51800D03*
X86955Y-51800D03*
X66845Y-36800D03*
X68155Y-36800D03*
X69645Y-59300D03*
X70955Y-59300D03*
X63145Y-51800D03*
X64455Y-51800D03*
X61245Y-44300D03*
X62555Y-44300D03*
X59345Y-36800D03*
X60655Y-36800D03*
X83745Y-44300D03*
X85055Y-44300D03*
X81845Y-36800D03*
X83155Y-36800D03*
X89345Y-36800D03*
X90655Y-36800D03*
X76245Y-44300D03*
X77555Y-44300D03*
X56545Y-59300D03*
X57855Y-59300D03*
X47145Y-59300D03*
X48455Y-59300D03*
X55645Y-51800D03*
X56955Y-51800D03*
X53745Y-44300D03*
X55055Y-44300D03*
X48145Y-51800D03*
X49455Y-51800D03*
X46245Y-44300D03*
X47555Y-44300D03*
X37845Y-44300D03*
X39155Y-44300D03*
X51845Y-36800D03*
X53155Y-36800D03*
X44445Y-36700D03*
X45755Y-36700D03*
X113745Y-44300D03*
X115055Y-44300D03*
X38745Y-51800D03*
X40055Y-51800D03*
X100645Y-51800D03*
X101955Y-51800D03*
X93145Y-51800D03*
X94455Y-51800D03*
X74345Y-36800D03*
X75655Y-36800D03*
X121245Y-36800D03*
X122555Y-36800D03*
X122145Y-44300D03*
X123455Y-44300D03*
X115645Y-59300D03*
X116955Y-59300D03*
X123145Y-51800D03*
X124455Y-51800D03*
X111845Y-36800D03*
X113155Y-36800D03*
X115645Y-51800D03*
X116955Y-51800D03*
X91245Y-44300D03*
X92555Y-44300D03*
X108145Y-59300D03*
X109455Y-59300D03*
X108145Y-51800D03*
X109455Y-51800D03*
X104345Y-36800D03*
X105655Y-36800D03*
X106245Y-44300D03*
X107555Y-44300D03*
X68745Y-44300D03*
X70055Y-44300D03*
X98745Y-44300D03*
X100055Y-44300D03*
X96845Y-36800D03*
X98155Y-36800D03*
X99645Y-59300D03*
X100955Y-59300D03*
X86445Y-59300D03*
X87755Y-59300D03*
X37845Y-59300D03*
X39155Y-59300D03*
X83375Y-53000D03*
X82625Y-53000D03*
X75975Y-58800D03*
X75225Y-58800D03*
X80175Y-53000D03*
X79425Y-53000D03*
G54D19*
X83600Y-39975D03*
X83600Y-39225D03*
X81200Y-39975D03*
X81200Y-39225D03*
G54D18*
X85375Y-54400D03*
X84625Y-54400D03*
G54D19*
X66400Y-58075D03*
X66400Y-57325D03*
X67500Y-55675D03*
X67500Y-54925D03*
X65200Y-55675D03*
X65200Y-54925D03*
G54D18*
X84625Y-58800D03*
X85375Y-58800D03*
G54D19*
X64100Y-58075D03*
X64100Y-57325D03*
X63000Y-55675D03*
X63000Y-54925D03*
G54D20*
X94360Y-56988D03*
X96840Y-55413D03*
X96840Y-56987D03*
X94360Y-55413D03*
G54D21*
X85433Y-56085D03*
X84567Y-56085D03*
X85433Y-56715D03*
X84567Y-56715D03*
G54D18*
X123145Y-59300D03*
X124455Y-59300D03*
G54D22*
X125550Y-57000D03*
G54D23*
X126550Y-55000D03*
X124050Y-56000D03*
G54D24*
X123550Y-57000D03*
X127550Y-57000D03*
G54D22*
X71175Y-42000D03*
G54D23*
X72175Y-40000D03*
X69675Y-41000D03*
G54D24*
X69175Y-42000D03*
X73175Y-42000D03*
G54D22*
X80550Y-49500D03*
G54D23*
X81550Y-47500D03*
X79050Y-48500D03*
G54D24*
X78550Y-49500D03*
X82550Y-49500D03*
G54D22*
X91800Y-34500D03*
G54D23*
X92800Y-32500D03*
X90300Y-33500D03*
G54D24*
X89800Y-34500D03*
X93800Y-34500D03*
G54D22*
X72112Y-57000D03*
G54D23*
X73112Y-55000D03*
X70612Y-56000D03*
G54D24*
X70112Y-57000D03*
X74112Y-57000D03*
G54D22*
X99300Y-34500D03*
G54D23*
X100300Y-32500D03*
X97800Y-33500D03*
G54D24*
X97300Y-34500D03*
X101300Y-34500D03*
G54D22*
X106800Y-34500D03*
G54D23*
X107800Y-32500D03*
X105300Y-33500D03*
G54D24*
X104800Y-34500D03*
X108800Y-34500D03*
G54D22*
X110550Y-57000D03*
G54D23*
X111550Y-55000D03*
X109050Y-56000D03*
G54D24*
X108550Y-57000D03*
X112550Y-57000D03*
G54D22*
X118050Y-49500D03*
G54D23*
X119050Y-47500D03*
X116550Y-48500D03*
G54D24*
X116050Y-49500D03*
X120050Y-49500D03*
G54D22*
X50550Y-49500D03*
G54D23*
X51550Y-47500D03*
X49050Y-48500D03*
G54D24*
X48550Y-49500D03*
X52550Y-49500D03*
G54D22*
X58050Y-49500D03*
G54D23*
X59050Y-47500D03*
X56550Y-48500D03*
G54D24*
X56050Y-49500D03*
X60050Y-49500D03*
G54D22*
X65550Y-49500D03*
G54D23*
X66550Y-47500D03*
X64050Y-48500D03*
G54D24*
X63550Y-49500D03*
X67550Y-49500D03*
G54D22*
X73050Y-49500D03*
G54D23*
X74050Y-47500D03*
X71550Y-48500D03*
G54D24*
X71050Y-49500D03*
X75050Y-49500D03*
G54D22*
X63675Y-42000D03*
G54D23*
X64675Y-40000D03*
X62175Y-41000D03*
G54D24*
X61675Y-42000D03*
X65675Y-42000D03*
G54D22*
X93675Y-42000D03*
G54D23*
X94675Y-40000D03*
X92175Y-41000D03*
G54D24*
X91675Y-42000D03*
X95675Y-42000D03*
G54D22*
X101175Y-42000D03*
G54D23*
X102175Y-40000D03*
X99675Y-41000D03*
G54D24*
X99175Y-42000D03*
X103175Y-42000D03*
G54D22*
X108675Y-42000D03*
G54D23*
X109675Y-40000D03*
X107175Y-41000D03*
G54D24*
X106675Y-42000D03*
X110675Y-42000D03*
G54D22*
X88050Y-49500D03*
G54D23*
X89050Y-47500D03*
X86550Y-48500D03*
G54D24*
X86050Y-49500D03*
X90050Y-49500D03*
G54D22*
X102112Y-57000D03*
G54D23*
X103112Y-55000D03*
X100612Y-56000D03*
G54D24*
X100112Y-57000D03*
X104112Y-57000D03*
G54D22*
X103050Y-49500D03*
G54D23*
X104050Y-47500D03*
X101550Y-48500D03*
G54D24*
X101050Y-49500D03*
X105050Y-49500D03*
G54D22*
X95550Y-49500D03*
G54D23*
X96550Y-47500D03*
X94050Y-48500D03*
G54D24*
X93550Y-49500D03*
X97550Y-49500D03*
G54D22*
X86175Y-42000D03*
G54D23*
X87175Y-40000D03*
X84675Y-41000D03*
G54D24*
X84175Y-42000D03*
X88175Y-42000D03*
G54D22*
X76800Y-34500D03*
G54D23*
X77800Y-32500D03*
X75300Y-33500D03*
G54D24*
X74800Y-34500D03*
X78800Y-34500D03*
G54D22*
X58987Y-57000D03*
G54D23*
X59987Y-55000D03*
X57487Y-56000D03*
G54D24*
X56987Y-57000D03*
X60987Y-57000D03*
G54D22*
X49612Y-57000D03*
G54D23*
X50612Y-55000D03*
X48112Y-56000D03*
G54D24*
X47612Y-57000D03*
X51612Y-57000D03*
G54D22*
X118050Y-57000D03*
G54D23*
X119050Y-55000D03*
X116550Y-56000D03*
G54D24*
X116050Y-57000D03*
X120050Y-57000D03*
G54D22*
X84300Y-34500D03*
G54D23*
X85300Y-32500D03*
X82800Y-33500D03*
G54D24*
X82300Y-34500D03*
X86300Y-34500D03*
G54D22*
X40237Y-57000D03*
G54D23*
X41237Y-55000D03*
X38737Y-56000D03*
G54D24*
X38237Y-57000D03*
X42237Y-57000D03*
G54D22*
X41175Y-49500D03*
G54D23*
X42175Y-47500D03*
X39675Y-48500D03*
G54D24*
X39175Y-49500D03*
X43175Y-49500D03*
G54D22*
X39300Y-34500D03*
G54D23*
X40300Y-32500D03*
X37800Y-33500D03*
G54D24*
X37300Y-34500D03*
X41300Y-34500D03*
G54D22*
X46800Y-34500D03*
G54D23*
X47800Y-32500D03*
X45300Y-33500D03*
G54D24*
X44800Y-34500D03*
X48800Y-34500D03*
G54D22*
X54300Y-34500D03*
G54D23*
X55300Y-32500D03*
X52800Y-33500D03*
G54D24*
X52300Y-34500D03*
X56300Y-34500D03*
G54D22*
X61800Y-34500D03*
G54D23*
X62800Y-32500D03*
X60300Y-33500D03*
G54D24*
X59800Y-34500D03*
X63800Y-34500D03*
G54D22*
X69300Y-34500D03*
G54D23*
X70300Y-32500D03*
X67800Y-33500D03*
G54D24*
X67300Y-34500D03*
X71300Y-34500D03*
G54D22*
X78675Y-42000D03*
G54D23*
X79675Y-40000D03*
X77175Y-41000D03*
G54D24*
X76675Y-42000D03*
X80675Y-42000D03*
G54D22*
X114300Y-34500D03*
G54D23*
X115300Y-32500D03*
X112800Y-33500D03*
G54D24*
X112300Y-34500D03*
X116300Y-34500D03*
G54D22*
X48675Y-42000D03*
G54D23*
X49675Y-40000D03*
X47175Y-41000D03*
G54D24*
X46675Y-42000D03*
X50675Y-42000D03*
G54D22*
X40237Y-42000D03*
G54D23*
X41237Y-40000D03*
X38737Y-41000D03*
G54D24*
X38237Y-42000D03*
X42237Y-42000D03*
G54D22*
X123675Y-34500D03*
G54D23*
X124675Y-32500D03*
X122175Y-33500D03*
G54D24*
X121675Y-34500D03*
X125675Y-34500D03*
G54D22*
X116175Y-42000D03*
G54D23*
X117175Y-40000D03*
X114675Y-41000D03*
G54D24*
X114175Y-42000D03*
X118175Y-42000D03*
G54D22*
X110550Y-49500D03*
G54D23*
X111550Y-47500D03*
X109050Y-48500D03*
G54D24*
X108550Y-49500D03*
X112550Y-49500D03*
G54D22*
X56175Y-42000D03*
G54D23*
X57175Y-40000D03*
X54675Y-41000D03*
G54D24*
X54175Y-42000D03*
X58175Y-42000D03*
G54D22*
X88987Y-57000D03*
G54D23*
X89987Y-55000D03*
X87487Y-56000D03*
G54D24*
X86987Y-57000D03*
X90987Y-57000D03*
G54D22*
X124612Y-42000D03*
G54D23*
X125612Y-40000D03*
X123112Y-41000D03*
G54D24*
X122612Y-42000D03*
X126612Y-42000D03*
G54D22*
X125550Y-49500D03*
G54D23*
X126550Y-47500D03*
X124050Y-48500D03*
G54D24*
X123550Y-49500D03*
X127550Y-49500D03*
M02*
