<?xml version="1.0" standalone="no"?>
 <!DOCTYPE svg PUBLIC "-//W3C//DTD SVG 1.1//EN" 
 "http://www.w3.org/Graphics/SVG/1.1/DTD/svg11.dtd"> 
<svg xmlns="http://www.w3.org/2000/svg" version="1.1" 
    width="41.9989cm" height="29.7002cm" viewBox="0 0 165350 116930 ">
<title>SVG Picture created as keyboard-B_Paste.svg date 2014/07/27 15:56:12 </title>
  <desc>Picture generated by PCBNEW </desc>
<g style="fill:#000000; fill-opacity:1;stroke:#000000; stroke-opacity:1;
stroke-linecap:round; stroke-linejoin:round; "
 transform="translate(0 0) scale(1 1)">
</g>
<g style="fill:#000000; fill-opacity:0.0; 
stroke:#000000; stroke-width:39.3701; stroke-opacity:1; 
stroke-linecap:round; stroke-linejoin:round;">
<path d="M4000 4000
L161350 4000
L161350 112930
L4000 112930
L4000 4000
" />
<path d="M4700 4700
L160650 4700
L160650 112230
L4700 112230
L4700 4700
" />
<path d="M26470 4000
L26470 4700
" />
<path d="M15382 4552
L15097 4552
" />
<path d="M15240 4552
L15240 4052
L15192 4123
L15144 4171
L15097 4195
" />
<path d="M26470 112930
L26470 112230
" />
<path d="M15382 112782
L15097 112782
" />
<path d="M15240 112782
L15240 112282
L15192 112353
L15144 112401
L15097 112425
" />
<path d="M48940 4000
L48940 4700
" />
<path d="M37567 4100
L37590 4076
L37638 4052
L37757 4052
L37805 4076
L37829 4100
L37852 4147
L37852 4195
L37829 4266
L37543 4552
L37852 4552
" />
<path d="M48940 112930
L48940 112230
" />
<path d="M37567 112330
L37590 112306
L37638 112282
L37757 112282
L37805 112306
L37829 112330
L37852 112377
L37852 112425
L37829 112496
L37543 112782
L37852 112782
" />
<path d="M71410 4000
L71410 4700
" />
<path d="M60013 4052
L60322 4052
L60156 4242
L60227 4242
L60275 4266
L60299 4290
L60322 4338
L60322 4457
L60299 4504
L60275 4528
L60227 4552
L60084 4552
L60037 4528
L60013 4504
" />
<path d="M71410 112930
L71410 112230
" />
<path d="M60013 112282
L60322 112282
L60156 112472
L60227 112472
L60275 112496
L60299 112520
L60322 112568
L60322 112687
L60299 112734
L60275 112758
L60227 112782
L60084 112782
L60037 112758
L60013 112734
" />
<path d="M93880 4000
L93880 4700
" />
<path d="M82745 4219
L82745 4552
" />
<path d="M82626 4028
L82507 4385
L82816 4385
" />
<path d="M93880 112930
L93880 112230
" />
<path d="M82745 112449
L82745 112782
" />
<path d="M82626 112258
L82507 112615
L82816 112615
" />
<path d="M116350 4000
L116350 4700
" />
<path d="M105239 4052
L105000 4052
L104977 4290
L105000 4266
L105048 4242
L105167 4242
L105215 4266
L105239 4290
L105262 4338
L105262 4457
L105239 4504
L105215 4528
L105167 4552
L105048 4552
L105000 4528
L104977 4504
" />
<path d="M116350 112930
L116350 112230
" />
<path d="M105239 112282
L105000 112282
L104977 112520
L105000 112496
L105048 112472
L105167 112472
L105215 112496
L105239 112520
L105262 112568
L105262 112687
L105239 112734
L105215 112758
L105167 112782
L105048 112782
L105000 112758
L104977 112734
" />
<path d="M138820 4000
L138820 4700
" />
<path d="M127685 4052
L127590 4052
L127542 4076
L127518 4100
L127470 4171
L127447 4266
L127447 4457
L127470 4504
L127494 4528
L127542 4552
L127637 4552
L127685 4528
L127709 4504
L127732 4457
L127732 4338
L127709 4290
L127685 4266
L127637 4242
L127542 4242
L127494 4266
L127470 4290
L127447 4338
" />
<path d="M138820 112930
L138820 112230
" />
<path d="M127685 112282
L127590 112282
L127542 112306
L127518 112330
L127470 112401
L127447 112496
L127447 112687
L127470 112734
L127494 112758
L127542 112782
L127637 112782
L127685 112758
L127709 112734
L127732 112687
L127732 112568
L127709 112520
L127685 112496
L127637 112472
L127542 112472
L127494 112496
L127470 112520
L127447 112568
" />
<path d="M149893 4052
L150226 4052
L150012 4552
" />
<path d="M149893 112282
L150226 112282
L150012 112782
" />
<path d="M4000 25780
L4700 25780
" />
<path d="M4230 14949
L4469 14949
" />
<path d="M4183 15092
L4350 14592
L4516 15092
" />
<path d="M161350 25780
L160650 25780
" />
<path d="M160880 14949
L161119 14949
" />
<path d="M160833 15092
L161000 14592
L161166 15092
" />
<path d="M4000 47560
L4700 47560
" />
<path d="M4385 36610
L4457 36634
L4480 36658
L4504 36705
L4504 36777
L4480 36824
L4457 36848
L4409 36872
L4219 36872
L4219 36372
L4385 36372
L4433 36396
L4457 36420
L4480 36467
L4480 36515
L4457 36562
L4433 36586
L4385 36610
L4219 36610
" />
<path d="M161350 47560
L160650 47560
" />
<path d="M161035 36610
L161107 36634
L161130 36658
L161154 36705
L161154 36777
L161130 36824
L161107 36848
L161059 36872
L160869 36872
L160869 36372
L161035 36372
L161083 36396
L161107 36420
L161130 36467
L161130 36515
L161107 36562
L161083 36586
L161035 36610
L160869 36610
" />
<path d="M4000 69340
L4700 69340
" />
<path d="M4504 58604
L4480 58628
L4409 58652
L4361 58652
L4290 58628
L4242 58580
L4219 58533
L4195 58438
L4195 58366
L4219 58271
L4242 58223
L4290 58176
L4361 58152
L4409 58152
L4480 58176
L4504 58200
" />
<path d="M161350 69340
L160650 69340
" />
<path d="M161154 58604
L161130 58628
L161059 58652
L161011 58652
L160940 58628
L160892 58580
L160869 58533
L160845 58438
L160845 58366
L160869 58271
L160892 58223
L160940 58176
L161011 58152
L161059 58152
L161130 58176
L161154 58200
" />
<path d="M4000 91120
L4700 91120
" />
<path d="M4219 80432
L4219 79932
L4338 79932
L4409 79956
L4457 80003
L4480 80051
L4504 80146
L4504 80218
L4480 80313
L4457 80360
L4409 80408
L4338 80432
L4219 80432
" />
<path d="M161350 91120
L160650 91120
" />
<path d="M160869 80432
L160869 79932
L160988 79932
L161059 79956
L161107 80003
L161130 80051
L161154 80146
L161154 80218
L161130 80313
L161107 80360
L161059 80408
L160988 80432
L160869 80432
" />
<path d="M4242 101950
L4409 101950
" />
<path d="M4480 102212
L4242 102212
L4242 101712
L4480 101712
" />
<path d="M160892 101950
L161059 101950
" />
<path d="M161130 102212
L160892 102212
L160892 101712
L161130 101712
" />
<path d="M127800 110672
L127875 110072
L128017 110072
L128100 110101
L128150 110158
L128171 110215
L128185 110330
L128175 110415
L128132 110530
L128096 110587
L128032 110644
L127942 110672
L127800 110672
" />
<path d="M128657 110672
L128696 110358
L128675 110301
L128621 110272
L128507 110272
L128446 110301
" />
<path d="M128660 110644
L128600 110672
L128457 110672
L128403 110644
L128382 110587
L128389 110530
L128425 110472
L128485 110444
L128628 110444
L128689 110415
" />
<path d="M128907 110272
L129135 110272
" />
<path d="M129017 110072
L128953 110587
L128975 110644
L129028 110672
L129085 110672
" />
<path d="M129517 110644
L129457 110672
L129342 110672
L129289 110644
L129267 110587
L129296 110358
L129332 110301
L129392 110272
L129507 110272
L129560 110301
L129582 110358
L129575 110415
L129282 110472
" />
<path d="M129807 110615
L129832 110644
L129800 110672
L129775 110644
L129807 110615
L129800 110672
" />
<path d="M129846 110301
L129871 110330
L129839 110358
L129814 110330
L129846 110301
L129839 110358
" />
<path d="M119392 111872
L119392 111272
" />
<path d="M119735 111872
L119478 111530
" />
<path d="M119735 111272
L119392 111615
" />
<path d="M119992 111872
L119992 111472
" />
<path d="M119992 111272
L119964 111301
L119992 111330
L120021 111301
L119992 111272
L119992 111330
" />
<path d="M120621 111815
L120592 111844
L120507 111872
L120450 111872
L120364 111844
L120307 111787
L120278 111730
L120250 111615
L120250 111530
L120278 111415
L120307 111358
L120364 111301
L120450 111272
L120507 111272
L120592 111301
L120621 111330
" />
<path d="M121135 111872
L121135 111558
L121107 111501
L121050 111472
L120935 111472
L120878 111501
" />
<path d="M121135 111844
L121078 111872
L120935 111872
L120878 111844
L120850 111787
L120850 111730
L120878 111672
L120935 111644
L121078 111644
L121135 111615
" />
<path d="M121678 111872
L121678 111272
" />
<path d="M121678 111844
L121621 111872
L121507 111872
L121450 111844
L121421 111815
L121392 111758
L121392 111587
L121421 111530
L121450 111501
L121507 111472
L121621 111472
L121678 111501
" />
<path d="M122421 111558
L122621 111558
" />
<path d="M122707 111872
L122421 111872
L122421 111272
L122707 111272
" />
<path d="M122964 111815
L122992 111844
L122964 111872
L122935 111844
L122964 111815
L122964 111872
" />
<path d="M123249 111872
L123249 111272
L123392 111272
L123478 111301
L123535 111358
L123564 111415
L123592 111530
L123592 111615
L123564 111730
L123535 111787
L123478 111844
L123392 111872
L123249 111872
" />
<path d="M123849 111815
L123878 111844
L123849 111872
L123821 111844
L123849 111815
L123849 111872
" />
<path d="M124107 111701
L124392 111701
" />
<path d="M124049 111872
L124249 111272
L124449 111872
" />
<path d="M124649 111815
L124678 111844
L124649 111872
L124621 111844
L124649 111815
L124649 111872
" />
<path d="M152942 110672
L152778 110387
" />
<path d="M152600 110672
L152675 110072
L152903 110072
L152957 110101
L152982 110130
L153003 110187
L152992 110272
L152957 110330
L152925 110358
L152864 110387
L152635 110387
" />
<path d="M153432 110644
L153371 110672
L153257 110672
L153203 110644
L153182 110587
L153210 110358
L153246 110301
L153307 110272
L153421 110272
L153475 110301
L153496 110358
L153489 110415
L153196 110472
" />
<path d="M153707 110272
L153800 110672
L153992 110272
" />
<path d="M154178 110615
L154203 110644
L154171 110672
L154146 110644
L154178 110615
L154171 110672
" />
<path d="M154217 110301
L154242 110330
L154210 110358
L154185 110330
L154217 110301
L154210 110358
" />
<path d="M119364 110644
L119450 110672
L119592 110672
L119650 110644
L119678 110615
L119707 110558
L119707 110501
L119678 110444
L119650 110415
L119592 110387
L119478 110358
L119421 110330
L119392 110301
L119364 110244
L119364 110187
L119392 110130
L119421 110101
L119478 110072
L119621 110072
L119707 110101
" />
<path d="M119964 110672
L119964 110272
" />
<path d="M119964 110072
L119935 110101
L119964 110130
L119992 110101
L119964 110072
L119964 110130
" />
<path d="M120192 110272
L120507 110272
L120192 110672
L120507 110672
" />
<path d="M120964 110644
L120907 110672
L120792 110672
L120735 110644
L120707 110587
L120707 110358
L120735 110301
L120792 110272
L120907 110272
L120964 110301
L120992 110358
L120992 110415
L120707 110472
" />
<path d="M121250 110615
L121278 110644
L121250 110672
L121221 110644
L121250 110615
L121250 110672
" />
<path d="M121250 110301
L121278 110330
L121250 110358
L121221 110330
L121250 110301
L121250 110358
" />
<path d="M121964 110501
L122250 110501
" />
<path d="M121907 110672
L122107 110072
L122307 110672
" />
<path d="M122450 110072
L122821 110072
L122621 110301
L122707 110301
L122764 110330
L122792 110358
L122821 110415
L122821 110558
L122792 110615
L122764 110644
L122707 110672
L122535 110672
L122478 110644
L122450 110615
" />
<path d="M152592 111872
L152592 111272
" />
<path d="M153135 111872
L153135 111272
" />
<path d="M153135 111844
L153078 111872
L152964 111872
L152907 111844
L152878 111815
L152850 111758
L152850 111587
L152878 111530
L152907 111501
L152964 111472
L153078 111472
L153135 111501
" />
<path d="M153421 111815
L153450 111844
L153421 111872
L153392 111844
L153421 111815
L153421 111872
" />
<path d="M153421 111501
L153450 111530
L153421 111558
L153392 111530
L153421 111501
L153421 111558
" />
<path d="M154478 111872
L154135 111872
" />
<path d="M154307 111872
L154307 111272
L154249 111358
L154192 111415
L154135 111444
" />
<path d="M155164 111244
L154650 112015
" />
<path d="M155678 111872
L155335 111872
" />
<path d="M155507 111872
L155507 111272
L155449 111358
L155392 111415
L155335 111444
" />
<path d="M119389 108872
L119732 108872
" />
<path d="M119485 109472
L119560 108872
" />
<path d="M119857 109472
L119907 109072
" />
<path d="M119932 108872
L119900 108901
L119925 108930
L119957 108901
L119932 108872
L119925 108930
" />
<path d="M120107 109072
L120335 109072
" />
<path d="M120217 108872
L120153 109387
L120175 109444
L120228 109472
L120285 109472
" />
<path d="M120571 109472
L120517 109444
L120496 109387
L120560 108872
" />
<path d="M121032 109444
L120971 109472
L120857 109472
L120803 109444
L120782 109387
L120810 109158
L120846 109101
L120907 109072
L121021 109072
L121075 109101
L121096 109158
L121089 109215
L120796 109272
" />
<path d="M121321 109415
L121346 109444
L121314 109472
L121289 109444
L121321 109415
L121314 109472
" />
<path d="M121360 109101
L121385 109130
L121353 109158
L121328 109130
L121360 109101
L121353 109158
" />
<path d="M119592 106758
L119392 106758
" />
<path d="M119392 107072
L119392 106472
L119678 106472
" />
<path d="M119907 107072
L119907 106672
" />
<path d="M119907 106472
L119878 106501
L119907 106530
L119935 106501
L119907 106472
L119907 106530
" />
<path d="M120278 107072
L120221 107044
L120192 106987
L120192 106472
" />
<path d="M120735 107044
L120678 107072
L120564 107072
L120507 107044
L120478 106987
L120478 106758
L120507 106701
L120564 106672
L120678 106672
L120735 106701
L120764 106758
L120764 106815
L120478 106872
" />
<path d="M121021 107015
L121050 107044
L121021 107072
L120992 107044
L121021 107015
L121021 107072
" />
<path d="M121021 106701
L121050 106730
L121021 106758
L120992 106730
L121021 106701
L121021 106758
" />
<path d="M121764 107072
L121764 106472
" />
<path d="M121821 106844
L121992 107072
" />
<path d="M121992 106672
L121764 106901
" />
<path d="M122478 107044
L122421 107072
L122307 107072
L122250 107044
L122221 106987
L122221 106758
L122250 106701
L122307 106672
L122421 106672
L122478 106701
L122507 106758
L122507 106815
L122221 106872
" />
<path d="M122707 106672
L122850 107072
" />
<path d="M122992 106672
L122850 107072
L122792 107215
L122764 107244
L122707 107272
" />
<path d="M123221 107072
L123221 106472
" />
<path d="M123221 106701
L123278 106672
L123392 106672
L123450 106701
L123478 106730
L123507 106787
L123507 106958
L123478 107015
L123450 107044
L123392 107072
L123278 107072
L123221 107044
" />
<path d="M123850 107072
L123792 107044
L123764 107015
L123735 106958
L123735 106787
L123764 106730
L123792 106701
L123850 106672
L123935 106672
L123992 106701
L124021 106730
L124050 106787
L124050 106958
L124021 107015
L123992 107044
L123935 107072
L123850 107072
" />
<path d="M124564 107072
L124564 106758
L124535 106701
L124478 106672
L124364 106672
L124307 106701
" />
<path d="M124564 107044
L124507 107072
L124364 107072
L124307 107044
L124278 106987
L124278 106930
L124307 106872
L124364 106844
L124507 106844
L124564 106815
" />
<path d="M124850 107072
L124850 106672
" />
<path d="M124850 106787
L124878 106730
L124907 106701
L124964 106672
L125021 106672
" />
<path d="M125478 107072
L125478 106472
" />
<path d="M125478 107044
L125421 107072
L125307 107072
L125250 107044
L125221 107015
L125192 106958
L125192 106787
L125221 106730
L125250 106701
L125307 106672
L125421 106672
L125478 106701
" />
<path d="M125764 107015
L125792 107044
L125764 107072
L125735 107044
L125764 107015
L125764 107072
" />
<path d="M126050 107072
L126050 106472
" />
<path d="M126107 106844
L126278 107072
" />
<path d="M126278 106672
L126050 106901
" />
<path d="M126535 107072
L126535 106672
" />
<path d="M126535 106472
L126507 106501
L126535 106530
L126564 106501
L126535 106472
L126535 106530
" />
<path d="M127078 107044
L127021 107072
L126907 107072
L126850 107044
L126821 107015
L126792 106958
L126792 106787
L126821 106730
L126850 106701
L126907 106672
L127021 106672
L127078 106701
" />
<path d="M127592 107072
L127592 106758
L127564 106701
L127507 106672
L127392 106672
L127335 106701
" />
<path d="M127592 107044
L127535 107072
L127392 107072
L127335 107044
L127307 106987
L127307 106930
L127335 106872
L127392 106844
L127535 106844
L127592 106815
" />
<path d="M128135 107072
L128135 106472
" />
<path d="M128135 107044
L128078 107072
L127964 107072
L127907 107044
L127878 107015
L127850 106958
L127850 106787
L127878 106730
L127907 106701
L127964 106672
L128078 106672
L128135 106701
" />
<path d="M128278 107130
L128735 107130
" />
<path d="M128878 106672
L128878 107272
" />
<path d="M128878 106701
L128935 106672
L129050 106672
L129107 106701
L129135 106730
L129164 106787
L129164 106958
L129135 107015
L129107 107044
L129050 107072
L128935 107072
L128878 107044
" />
<path d="M129678 107044
L129621 107072
L129507 107072
L129450 107044
L129421 107015
L129392 106958
L129392 106787
L129421 106730
L129450 106701
L129507 106672
L129621 106672
L129678 106701
" />
<path d="M129935 107072
L129935 106472
" />
<path d="M129935 106701
L129992 106672
L130107 106672
L130164 106701
L130192 106730
L130221 106787
L130221 106958
L130192 107015
L130164 107044
L130107 107072
L129992 107072
L129935 107044
" />
<path d="M119364 108244
L119450 108272
L119592 108272
L119650 108244
L119678 108215
L119707 108158
L119707 108101
L119678 108044
L119650 108015
L119592 107987
L119478 107958
L119421 107930
L119392 107901
L119364 107844
L119364 107787
L119392 107730
L119421 107701
L119478 107672
L119621 107672
L119707 107701
" />
<path d="M119964 108272
L119964 107672
" />
<path d="M120221 108272
L120221 107958
L120192 107901
L120135 107872
L120050 107872
L119992 107901
L119964 107930
" />
<path d="M120735 108244
L120678 108272
L120564 108272
L120507 108244
L120478 108187
L120478 107958
L120507 107901
L120564 107872
L120678 107872
L120735 107901
L120764 107958
L120764 108015
L120478 108072
" />
<path d="M121250 108244
L121192 108272
L121078 108272
L121021 108244
L120992 108187
L120992 107958
L121021 107901
L121078 107872
L121192 107872
L121250 107901
L121278 107958
L121278 108015
L120992 108072
" />
<path d="M121450 107872
L121678 107872
" />
<path d="M121535 107672
L121535 108187
L121564 108244
L121621 108272
L121678 108272
" />
<path d="M121878 108215
L121907 108244
L121878 108272
L121850 108244
L121878 108215
L121878 108272
" />
<path d="M121878 107901
L121907 107930
L121878 107958
L121850 107930
L121878 107901
L121878 107958
" />
<path d="M118650 106230
L118650 112230
" />
<path d="M118650 106230
L160650 106230
" />
<path d="M118650 106230
L160650 106230
" />
<path d="M118650 108630
L160650 108630
" />
<path d="M151850 109830
L151850 112230
" />
<path d="M118650 111030
L160650 111030
" />
<path d="M118650 109830
L160650 109830
" />
<path d="M125250 109830
L125250 111030
" />
</g>
<g style="fill:#FFFF00; fill-opacity:0.0; 
stroke:#FFFF00; stroke-width:39.0157; stroke-opacity:1; 
stroke-linecap:round; stroke-linejoin:round;">
<path d="M129000 31400
L129000 31800
" />
<path d="M128200 31000
L128600 31000
" />
<path d="M129000 31400 A400 400 0.0 0 0 128600 31000 " />
<path d="M35800 59600
L35800 60000
" />
<path d="M36600 60400
L36200 60400
" />
<path d="M35800 60000 A400 400 0.0 0 0 36200 60400 " />
<path d="M35800 31800
L35800 31400
" />
<path d="M36600 31000
L36200 31000
" />
<path d="M36200 31000 A400 400 0.0 0 0 35800 31400 " />
<path d="M129000 59800
L129000 60000
" />
<path d="M128400 60400
L128600 60400
" />
<path d="M128600 60400 A400 400 0.0 0 0 129000 60000 " />
<path d="M128400 60400
L128000 60400
" />
<path d="M35800 31800
L35800 59600
" />
<path d="M128200 31000
L36600 31000
" />
<path d="M129000 59800
L129000 31800
" />
<path d="M36600 60400
L128000 60400
" />
</g>
<g style="fill:#009F00; fill-opacity:0.0; 
stroke:#009F00; stroke-width:160; stroke-opacity:1; 
stroke-linecap:round; stroke-linejoin:round;">
<path d="M78044 56800
L77456 56800
" />
<path d="M78044 56485
L77456 56485
" />
<path d="M78044 56170
L77456 56170
" />
<path d="M78044 55855
L77456 55855
" />
<path d="M78044 55540
L77456 55540
" />
<path d="M78044 55225
L77456 55225
" />
<path d="M78044 57115
L77456 57115
" />
<path d="M78044 57430
L77456 57430
" />
<path d="M78044 57745
L77456 57745
" />
<path d="M78044 58060
L77456 58060
" />
<path d="M78044 58375
L77456 58375
" />
<path d="M82544 56800
L81956 56800
" />
<path d="M82544 56485
L81956 56485
" />
<path d="M82544 56170
L81956 56170
" />
<path d="M82544 55855
L81956 55855
" />
<path d="M82544 55540
L81956 55540
" />
<path d="M82544 55225
L81956 55225
" />
<path d="M82544 57115
L81956 57115
" />
<path d="M82544 57430
L81956 57430
" />
<path d="M82544 57745
L81956 57745
" />
<path d="M82544 58060
L81956 58060
" />
<path d="M82544 58375
L81956 58375
" />
<path d="M80000 54256
L80000 54844
" />
<path d="M80000 58756
L80000 59344
" />
<path d="M80315 54256
L80315 54844
" />
<path d="M80315 58756
L80315 59344
" />
<path d="M80630 58756
L80630 59344
" />
<path d="M80630 54256
L80630 54844
" />
<path d="M80945 54256
L80945 54844
" />
<path d="M80945 58756
L80945 59344
" />
<path d="M81260 58756
L81260 59344
" />
<path d="M81260 54256
L81260 54844
" />
<path d="M81575 54256
L81575 54844
" />
<path d="M81575 58756
L81575 59344
" />
<path d="M79685 58756
L79685 59344
" />
<path d="M79685 54256
L79685 54844
" />
<path d="M79370 54256
L79370 54844
" />
<path d="M79370 58756
L79370 59344
" />
<path d="M79055 58756
L79055 59344
" />
<path d="M79055 54256
L79055 54844
" />
<path d="M78740 54256
L78740 54844
" />
<path d="M78740 58756
L78740 59344
" />
<path d="M78425 58756
L78425 59344
" />
<path d="M78425 54256
L78425 54844
" />
</g>
<g style="fill:#009F00; fill-opacity:0.0; 
stroke:#009F00; stroke-width:39.3701; stroke-opacity:1; 
stroke-linecap:round; stroke-linejoin:round;">
</g>
<g style="fill:#009F00; fill-opacity:1.0; 
stroke:#009F00; stroke-width:39.3701; stroke-opacity:1; 
stroke-linecap:round; stroke-linejoin:round;">
<polyline style="fill-rule:evenodd;"
points="77989,52055
77989,51544
78300,51544
78300,52055
77989,52055
" /> 
<polyline style="fill-rule:evenodd;"
points="79299,52055
79299,51544
79610,51544
79610,52055
79299,52055
" /> 
<polyline style="fill-rule:evenodd;"
points="70489,52055
70489,51544
70800,51544
70800,52055
70489,52055
" /> 
<polyline style="fill-rule:evenodd;"
points="71799,52055
71799,51544
72110,51544
72110,52055
71799,52055
" /> 
<polyline style="fill-rule:evenodd;"
points="38989,37055
38989,36544
39300,36544
39300,37055
38989,37055
" /> 
<polyline style="fill-rule:evenodd;"
points="40299,37055
40299,36544
40610,36544
40610,37055
40299,37055
" /> 
<polyline style="fill-rule:evenodd;"
points="85489,52055
85489,51544
85800,51544
85800,52055
85489,52055
" /> 
<polyline style="fill-rule:evenodd;"
points="86799,52055
86799,51544
87110,51544
87110,52055
86799,52055
" /> 
<polyline style="fill-rule:evenodd;"
points="66689,37055
66689,36544
67000,36544
67000,37055
66689,37055
" /> 
<polyline style="fill-rule:evenodd;"
points="67999,37055
67999,36544
68310,36544
68310,37055
67999,37055
" /> 
<polyline style="fill-rule:evenodd;"
points="69489,59555
69489,59044
69800,59044
69800,59555
69489,59555
" /> 
<polyline style="fill-rule:evenodd;"
points="70799,59555
70799,59044
71110,59044
71110,59555
70799,59555
" /> 
<polyline style="fill-rule:evenodd;"
points="62989,52055
62989,51544
63300,51544
63300,52055
62989,52055
" /> 
<polyline style="fill-rule:evenodd;"
points="64299,52055
64299,51544
64610,51544
64610,52055
64299,52055
" /> 
<polyline style="fill-rule:evenodd;"
points="61089,44555
61089,44044
61400,44044
61400,44555
61089,44555
" /> 
<polyline style="fill-rule:evenodd;"
points="62399,44555
62399,44044
62710,44044
62710,44555
62399,44555
" /> 
<polyline style="fill-rule:evenodd;"
points="59189,37055
59189,36544
59500,36544
59500,37055
59189,37055
" /> 
<polyline style="fill-rule:evenodd;"
points="60499,37055
60499,36544
60810,36544
60810,37055
60499,37055
" /> 
<polyline style="fill-rule:evenodd;"
points="83589,44555
83589,44044
83900,44044
83900,44555
83589,44555
" /> 
<polyline style="fill-rule:evenodd;"
points="84899,44555
84899,44044
85210,44044
85210,44555
84899,44555
" /> 
<polyline style="fill-rule:evenodd;"
points="81689,37055
81689,36544
82000,36544
82000,37055
81689,37055
" /> 
<polyline style="fill-rule:evenodd;"
points="82999,37055
82999,36544
83310,36544
83310,37055
82999,37055
" /> 
<polyline style="fill-rule:evenodd;"
points="89189,37055
89189,36544
89500,36544
89500,37055
89189,37055
" /> 
<polyline style="fill-rule:evenodd;"
points="90499,37055
90499,36544
90810,36544
90810,37055
90499,37055
" /> 
<polyline style="fill-rule:evenodd;"
points="76089,44555
76089,44044
76400,44044
76400,44555
76089,44555
" /> 
<polyline style="fill-rule:evenodd;"
points="77399,44555
77399,44044
77710,44044
77710,44555
77399,44555
" /> 
<polyline style="fill-rule:evenodd;"
points="56389,59555
56389,59044
56700,59044
56700,59555
56389,59555
" /> 
<polyline style="fill-rule:evenodd;"
points="57699,59555
57699,59044
58010,59044
58010,59555
57699,59555
" /> 
<polyline style="fill-rule:evenodd;"
points="46989,59555
46989,59044
47300,59044
47300,59555
46989,59555
" /> 
<polyline style="fill-rule:evenodd;"
points="48299,59555
48299,59044
48610,59044
48610,59555
48299,59555
" /> 
<polyline style="fill-rule:evenodd;"
points="55489,52055
55489,51544
55800,51544
55800,52055
55489,52055
" /> 
<polyline style="fill-rule:evenodd;"
points="56799,52055
56799,51544
57110,51544
57110,52055
56799,52055
" /> 
<polyline style="fill-rule:evenodd;"
points="53589,44555
53589,44044
53900,44044
53900,44555
53589,44555
" /> 
<polyline style="fill-rule:evenodd;"
points="54899,44555
54899,44044
55210,44044
55210,44555
54899,44555
" /> 
<polyline style="fill-rule:evenodd;"
points="47989,52055
47989,51544
48300,51544
48300,52055
47989,52055
" /> 
<polyline style="fill-rule:evenodd;"
points="49299,52055
49299,51544
49610,51544
49610,52055
49299,52055
" /> 
<polyline style="fill-rule:evenodd;"
points="46089,44555
46089,44044
46400,44044
46400,44555
46089,44555
" /> 
<polyline style="fill-rule:evenodd;"
points="47399,44555
47399,44044
47710,44044
47710,44555
47399,44555
" /> 
<polyline style="fill-rule:evenodd;"
points="37689,44555
37689,44044
38000,44044
38000,44555
37689,44555
" /> 
<polyline style="fill-rule:evenodd;"
points="38999,44555
38999,44044
39310,44044
39310,44555
38999,44555
" /> 
<polyline style="fill-rule:evenodd;"
points="51689,37055
51689,36544
52000,36544
52000,37055
51689,37055
" /> 
<polyline style="fill-rule:evenodd;"
points="52999,37055
52999,36544
53310,36544
53310,37055
52999,37055
" /> 
<polyline style="fill-rule:evenodd;"
points="44289,36955
44289,36444
44600,36444
44600,36955
44289,36955
" /> 
<polyline style="fill-rule:evenodd;"
points="45599,36955
45599,36444
45910,36444
45910,36955
45599,36955
" /> 
<polyline style="fill-rule:evenodd;"
points="113589,44555
113589,44044
113900,44044
113900,44555
113589,44555
" /> 
<polyline style="fill-rule:evenodd;"
points="114899,44555
114899,44044
115210,44044
115210,44555
114899,44555
" /> 
<polyline style="fill-rule:evenodd;"
points="38589,52055
38589,51544
38900,51544
38900,52055
38589,52055
" /> 
<polyline style="fill-rule:evenodd;"
points="39899,52055
39899,51544
40210,51544
40210,52055
39899,52055
" /> 
<polyline style="fill-rule:evenodd;"
points="100489,52055
100489,51544
100800,51544
100800,52055
100489,52055
" /> 
<polyline style="fill-rule:evenodd;"
points="101799,52055
101799,51544
102110,51544
102110,52055
101799,52055
" /> 
<polyline style="fill-rule:evenodd;"
points="92989,52055
92989,51544
93300,51544
93300,52055
92989,52055
" /> 
<polyline style="fill-rule:evenodd;"
points="94299,52055
94299,51544
94610,51544
94610,52055
94299,52055
" /> 
<polyline style="fill-rule:evenodd;"
points="74189,37055
74189,36544
74500,36544
74500,37055
74189,37055
" /> 
<polyline style="fill-rule:evenodd;"
points="75499,37055
75499,36544
75810,36544
75810,37055
75499,37055
" /> 
<polyline style="fill-rule:evenodd;"
points="121089,37055
121089,36544
121400,36544
121400,37055
121089,37055
" /> 
<polyline style="fill-rule:evenodd;"
points="122399,37055
122399,36544
122710,36544
122710,37055
122399,37055
" /> 
<polyline style="fill-rule:evenodd;"
points="121989,44555
121989,44044
122300,44044
122300,44555
121989,44555
" /> 
<polyline style="fill-rule:evenodd;"
points="123299,44555
123299,44044
123610,44044
123610,44555
123299,44555
" /> 
<polyline style="fill-rule:evenodd;"
points="115489,59555
115489,59044
115800,59044
115800,59555
115489,59555
" /> 
<polyline style="fill-rule:evenodd;"
points="116799,59555
116799,59044
117110,59044
117110,59555
116799,59555
" /> 
<polyline style="fill-rule:evenodd;"
points="122989,52055
122989,51544
123300,51544
123300,52055
122989,52055
" /> 
<polyline style="fill-rule:evenodd;"
points="124299,52055
124299,51544
124610,51544
124610,52055
124299,52055
" /> 
<polyline style="fill-rule:evenodd;"
points="111689,37055
111689,36544
112000,36544
112000,37055
111689,37055
" /> 
<polyline style="fill-rule:evenodd;"
points="112999,37055
112999,36544
113310,36544
113310,37055
112999,37055
" /> 
<polyline style="fill-rule:evenodd;"
points="115489,52055
115489,51544
115800,51544
115800,52055
115489,52055
" /> 
<polyline style="fill-rule:evenodd;"
points="116799,52055
116799,51544
117110,51544
117110,52055
116799,52055
" /> 
<polyline style="fill-rule:evenodd;"
points="91089,44555
91089,44044
91400,44044
91400,44555
91089,44555
" /> 
<polyline style="fill-rule:evenodd;"
points="92399,44555
92399,44044
92710,44044
92710,44555
92399,44555
" /> 
<polyline style="fill-rule:evenodd;"
points="107989,59555
107989,59044
108300,59044
108300,59555
107989,59555
" /> 
<polyline style="fill-rule:evenodd;"
points="109299,59555
109299,59044
109610,59044
109610,59555
109299,59555
" /> 
<polyline style="fill-rule:evenodd;"
points="107989,52055
107989,51544
108300,51544
108300,52055
107989,52055
" /> 
<polyline style="fill-rule:evenodd;"
points="109299,52055
109299,51544
109610,51544
109610,52055
109299,52055
" /> 
<polyline style="fill-rule:evenodd;"
points="104189,37055
104189,36544
104500,36544
104500,37055
104189,37055
" /> 
<polyline style="fill-rule:evenodd;"
points="105499,37055
105499,36544
105810,36544
105810,37055
105499,37055
" /> 
<polyline style="fill-rule:evenodd;"
points="106089,44555
106089,44044
106400,44044
106400,44555
106089,44555
" /> 
<polyline style="fill-rule:evenodd;"
points="107399,44555
107399,44044
107710,44044
107710,44555
107399,44555
" /> 
<polyline style="fill-rule:evenodd;"
points="68589,44555
68589,44044
68900,44044
68900,44555
68589,44555
" /> 
<polyline style="fill-rule:evenodd;"
points="69899,44555
69899,44044
70210,44044
70210,44555
69899,44555
" /> 
<polyline style="fill-rule:evenodd;"
points="98589,44555
98589,44044
98900,44044
98900,44555
98589,44555
" /> 
<polyline style="fill-rule:evenodd;"
points="99899,44555
99899,44044
100210,44044
100210,44555
99899,44555
" /> 
<polyline style="fill-rule:evenodd;"
points="96689,37055
96689,36544
97000,36544
97000,37055
96689,37055
" /> 
<polyline style="fill-rule:evenodd;"
points="97999,37055
97999,36544
98310,36544
98310,37055
97999,37055
" /> 
<polyline style="fill-rule:evenodd;"
points="99489,59555
99489,59044
99800,59044
99800,59555
99489,59555
" /> 
<polyline style="fill-rule:evenodd;"
points="100799,59555
100799,59044
101110,59044
101110,59555
100799,59555
" /> 
<polyline style="fill-rule:evenodd;"
points="86289,59555
86289,59044
86600,59044
86600,59555
86289,59555
" /> 
<polyline style="fill-rule:evenodd;"
points="87599,59555
87599,59044
87910,59044
87910,59555
87599,59555
" /> 
<polyline style="fill-rule:evenodd;"
points="37689,59555
37689,59044
38000,59044
38000,59555
37689,59555
" /> 
<polyline style="fill-rule:evenodd;"
points="38999,59555
38999,59044
39310,59044
39310,59555
38999,59555
" /> 
<polyline style="fill-rule:evenodd;"
points="83530,52744
83530,53255
83219,53255
83219,52744
83530,52744
" /> 
<polyline style="fill-rule:evenodd;"
points="82780,52744
82780,53255
82469,53255
82469,52744
82780,52744
" /> 
<polyline style="fill-rule:evenodd;"
points="76130,58544
76130,59055
75819,59055
75819,58544
76130,58544
" /> 
<polyline style="fill-rule:evenodd;"
points="75380,58544
75380,59055
75069,59055
75069,58544
75380,58544
" /> 
<polyline style="fill-rule:evenodd;"
points="80330,52744
80330,53255
80019,53255
80019,52744
80330,52744
" /> 
<polyline style="fill-rule:evenodd;"
points="79580,52744
79580,53255
79269,53255
79269,52744
79580,52744
" /> 
<polyline style="fill-rule:evenodd;"
points="83855,40130
83344,40130
83344,39819
83855,39819
83855,40130
" /> 
<polyline style="fill-rule:evenodd;"
points="83855,39380
83344,39380
83344,39069
83855,39069
83855,39380
" /> 
<polyline style="fill-rule:evenodd;"
points="81455,40130
80944,40130
80944,39819
81455,39819
81455,40130
" /> 
<polyline style="fill-rule:evenodd;"
points="81455,39380
80944,39380
80944,39069
81455,39069
81455,39380
" /> 
<polyline style="fill-rule:evenodd;"
points="85530,54144
85530,54655
85219,54655
85219,54144
85530,54144
" /> 
<polyline style="fill-rule:evenodd;"
points="84780,54144
84780,54655
84469,54655
84469,54144
84780,54144
" /> 
<polyline style="fill-rule:evenodd;"
points="66655,58230
66144,58230
66144,57919
66655,57919
66655,58230
" /> 
<polyline style="fill-rule:evenodd;"
points="66655,57480
66144,57480
66144,57169
66655,57169
66655,57480
" /> 
<polyline style="fill-rule:evenodd;"
points="67755,55830
67244,55830
67244,55519
67755,55519
67755,55830
" /> 
<polyline style="fill-rule:evenodd;"
points="67755,55080
67244,55080
67244,54769
67755,54769
67755,55080
" /> 
<polyline style="fill-rule:evenodd;"
points="65455,55830
64944,55830
64944,55519
65455,55519
65455,55830
" /> 
<polyline style="fill-rule:evenodd;"
points="65455,55080
64944,55080
64944,54769
65455,54769
65455,55080
" /> 
<polyline style="fill-rule:evenodd;"
points="84469,59055
84469,58544
84780,58544
84780,59055
84469,59055
" /> 
<polyline style="fill-rule:evenodd;"
points="85219,59055
85219,58544
85530,58544
85530,59055
85219,59055
" /> 
<polyline style="fill-rule:evenodd;"
points="64355,58230
63844,58230
63844,57919
64355,57919
64355,58230
" /> 
<polyline style="fill-rule:evenodd;"
points="64355,57480
63844,57480
63844,57169
64355,57169
64355,57480
" /> 
<polyline style="fill-rule:evenodd;"
points="63255,55830
62744,55830
62744,55519
63255,55519
63255,55830
" /> 
<polyline style="fill-rule:evenodd;"
points="63255,55080
62744,55080
62744,54769
63255,54769
63255,55080
" /> 
<polyline style="fill-rule:evenodd;"
points="93926,57243
93926,56732
94793,56732
94793,57243
93926,57243
" /> 
<polyline style="fill-rule:evenodd;"
points="96406,55668
96406,55157
97273,55157
97273,55668
96406,55668
" /> 
<polyline style="fill-rule:evenodd;"
points="96406,57242
96406,56731
97273,56731
97273,57242
96406,57242
" /> 
<polyline style="fill-rule:evenodd;"
points="93926,55668
93926,55157
94793,55157
94793,55668
93926,55668
" /> 
<polyline style="fill-rule:evenodd;"
points="85688,55878
85688,56291
85177,56291
85177,55878
85688,55878
" /> 
<polyline style="fill-rule:evenodd;"
points="84822,55878
84822,56291
84311,56291
84311,55878
84822,55878
" /> 
<polyline style="fill-rule:evenodd;"
points="85688,56508
85688,56921
85177,56921
85177,56508
85688,56508
" /> 
<polyline style="fill-rule:evenodd;"
points="84822,56508
84822,56921
84311,56921
84311,56508
84822,56508
" /> 
<polyline style="fill-rule:evenodd;"
points="122989,59555
122989,59044
123300,59044
123300,59555
122989,59555
" /> 
<polyline style="fill-rule:evenodd;"
points="124299,59555
124299,59044
124610,59044
124610,59555
124299,59555
" /> 
</g> 
</svg>
