<?xml version="1.0" standalone="no"?>
 <!DOCTYPE svg PUBLIC "-//W3C//DTD SVG 1.1//EN" 
 "http://www.w3.org/Graphics/SVG/1.1/DTD/svg11.dtd"> 
<svg xmlns="http://www.w3.org/2000/svg" version="1.1" 
    width="41.9989cm" height="29.7002cm" viewBox="0 0 165350 116930 ">
<title>SVG Picture created as keyboard-F_SilkS.svg date 2014/07/27 15:56:12 </title>
  <desc>Picture generated by PCBNEW </desc>
<g style="fill:#000000; fill-opacity:1;stroke:#000000; stroke-opacity:1;
stroke-linecap:round; stroke-linejoin:round; "
 transform="translate(0 0) scale(1 1)">
</g>
<g style="fill:#000000; fill-opacity:0.0; 
stroke:#000000; stroke-width:39.3701; stroke-opacity:1; 
stroke-linecap:round; stroke-linejoin:round;">
<path d="M4000 4000
L161350 4000
L161350 112930
L4000 112930
L4000 4000
" />
<path d="M4700 4700
L160650 4700
L160650 112230
L4700 112230
L4700 4700
" />
<path d="M26470 4000
L26470 4700
" />
<path d="M15382 4552
L15097 4552
" />
<path d="M15240 4552
L15240 4052
L15192 4123
L15144 4171
L15097 4195
" />
<path d="M26470 112930
L26470 112230
" />
<path d="M15382 112782
L15097 112782
" />
<path d="M15240 112782
L15240 112282
L15192 112353
L15144 112401
L15097 112425
" />
<path d="M48940 4000
L48940 4700
" />
<path d="M37567 4100
L37590 4076
L37638 4052
L37757 4052
L37805 4076
L37829 4100
L37852 4147
L37852 4195
L37829 4266
L37543 4552
L37852 4552
" />
<path d="M48940 112930
L48940 112230
" />
<path d="M37567 112330
L37590 112306
L37638 112282
L37757 112282
L37805 112306
L37829 112330
L37852 112377
L37852 112425
L37829 112496
L37543 112782
L37852 112782
" />
<path d="M71410 4000
L71410 4700
" />
<path d="M60013 4052
L60322 4052
L60156 4242
L60227 4242
L60275 4266
L60299 4290
L60322 4338
L60322 4457
L60299 4504
L60275 4528
L60227 4552
L60084 4552
L60037 4528
L60013 4504
" />
<path d="M71410 112930
L71410 112230
" />
<path d="M60013 112282
L60322 112282
L60156 112472
L60227 112472
L60275 112496
L60299 112520
L60322 112568
L60322 112687
L60299 112734
L60275 112758
L60227 112782
L60084 112782
L60037 112758
L60013 112734
" />
<path d="M93880 4000
L93880 4700
" />
<path d="M82745 4219
L82745 4552
" />
<path d="M82626 4028
L82507 4385
L82816 4385
" />
<path d="M93880 112930
L93880 112230
" />
<path d="M82745 112449
L82745 112782
" />
<path d="M82626 112258
L82507 112615
L82816 112615
" />
<path d="M116350 4000
L116350 4700
" />
<path d="M105239 4052
L105000 4052
L104977 4290
L105000 4266
L105048 4242
L105167 4242
L105215 4266
L105239 4290
L105262 4338
L105262 4457
L105239 4504
L105215 4528
L105167 4552
L105048 4552
L105000 4528
L104977 4504
" />
<path d="M116350 112930
L116350 112230
" />
<path d="M105239 112282
L105000 112282
L104977 112520
L105000 112496
L105048 112472
L105167 112472
L105215 112496
L105239 112520
L105262 112568
L105262 112687
L105239 112734
L105215 112758
L105167 112782
L105048 112782
L105000 112758
L104977 112734
" />
<path d="M138820 4000
L138820 4700
" />
<path d="M127685 4052
L127590 4052
L127542 4076
L127518 4100
L127470 4171
L127447 4266
L127447 4457
L127470 4504
L127494 4528
L127542 4552
L127637 4552
L127685 4528
L127709 4504
L127732 4457
L127732 4338
L127709 4290
L127685 4266
L127637 4242
L127542 4242
L127494 4266
L127470 4290
L127447 4338
" />
<path d="M138820 112930
L138820 112230
" />
<path d="M127685 112282
L127590 112282
L127542 112306
L127518 112330
L127470 112401
L127447 112496
L127447 112687
L127470 112734
L127494 112758
L127542 112782
L127637 112782
L127685 112758
L127709 112734
L127732 112687
L127732 112568
L127709 112520
L127685 112496
L127637 112472
L127542 112472
L127494 112496
L127470 112520
L127447 112568
" />
<path d="M149893 4052
L150226 4052
L150012 4552
" />
<path d="M149893 112282
L150226 112282
L150012 112782
" />
<path d="M4000 25780
L4700 25780
" />
<path d="M4230 14949
L4469 14949
" />
<path d="M4183 15092
L4350 14592
L4516 15092
" />
<path d="M161350 25780
L160650 25780
" />
<path d="M160880 14949
L161119 14949
" />
<path d="M160833 15092
L161000 14592
L161166 15092
" />
<path d="M4000 47560
L4700 47560
" />
<path d="M4385 36610
L4457 36634
L4480 36658
L4504 36705
L4504 36777
L4480 36824
L4457 36848
L4409 36872
L4219 36872
L4219 36372
L4385 36372
L4433 36396
L4457 36420
L4480 36467
L4480 36515
L4457 36562
L4433 36586
L4385 36610
L4219 36610
" />
<path d="M161350 47560
L160650 47560
" />
<path d="M161035 36610
L161107 36634
L161130 36658
L161154 36705
L161154 36777
L161130 36824
L161107 36848
L161059 36872
L160869 36872
L160869 36372
L161035 36372
L161083 36396
L161107 36420
L161130 36467
L161130 36515
L161107 36562
L161083 36586
L161035 36610
L160869 36610
" />
<path d="M4000 69340
L4700 69340
" />
<path d="M4504 58604
L4480 58628
L4409 58652
L4361 58652
L4290 58628
L4242 58580
L4219 58533
L4195 58438
L4195 58366
L4219 58271
L4242 58223
L4290 58176
L4361 58152
L4409 58152
L4480 58176
L4504 58200
" />
<path d="M161350 69340
L160650 69340
" />
<path d="M161154 58604
L161130 58628
L161059 58652
L161011 58652
L160940 58628
L160892 58580
L160869 58533
L160845 58438
L160845 58366
L160869 58271
L160892 58223
L160940 58176
L161011 58152
L161059 58152
L161130 58176
L161154 58200
" />
<path d="M4000 91120
L4700 91120
" />
<path d="M4219 80432
L4219 79932
L4338 79932
L4409 79956
L4457 80003
L4480 80051
L4504 80146
L4504 80218
L4480 80313
L4457 80360
L4409 80408
L4338 80432
L4219 80432
" />
<path d="M161350 91120
L160650 91120
" />
<path d="M160869 80432
L160869 79932
L160988 79932
L161059 79956
L161107 80003
L161130 80051
L161154 80146
L161154 80218
L161130 80313
L161107 80360
L161059 80408
L160988 80432
L160869 80432
" />
<path d="M4242 101950
L4409 101950
" />
<path d="M4480 102212
L4242 102212
L4242 101712
L4480 101712
" />
<path d="M160892 101950
L161059 101950
" />
<path d="M161130 102212
L160892 102212
L160892 101712
L161130 101712
" />
<path d="M127800 110672
L127875 110072
L128017 110072
L128100 110101
L128150 110158
L128171 110215
L128185 110330
L128175 110415
L128132 110530
L128096 110587
L128032 110644
L127942 110672
L127800 110672
" />
<path d="M128657 110672
L128696 110358
L128675 110301
L128621 110272
L128507 110272
L128446 110301
" />
<path d="M128660 110644
L128600 110672
L128457 110672
L128403 110644
L128382 110587
L128389 110530
L128425 110472
L128485 110444
L128628 110444
L128689 110415
" />
<path d="M128907 110272
L129135 110272
" />
<path d="M129017 110072
L128953 110587
L128975 110644
L129028 110672
L129085 110672
" />
<path d="M129517 110644
L129457 110672
L129342 110672
L129289 110644
L129267 110587
L129296 110358
L129332 110301
L129392 110272
L129507 110272
L129560 110301
L129582 110358
L129575 110415
L129282 110472
" />
<path d="M129807 110615
L129832 110644
L129800 110672
L129775 110644
L129807 110615
L129800 110672
" />
<path d="M129846 110301
L129871 110330
L129839 110358
L129814 110330
L129846 110301
L129839 110358
" />
<path d="M119392 111872
L119392 111272
" />
<path d="M119735 111872
L119478 111530
" />
<path d="M119735 111272
L119392 111615
" />
<path d="M119992 111872
L119992 111472
" />
<path d="M119992 111272
L119964 111301
L119992 111330
L120021 111301
L119992 111272
L119992 111330
" />
<path d="M120621 111815
L120592 111844
L120507 111872
L120450 111872
L120364 111844
L120307 111787
L120278 111730
L120250 111615
L120250 111530
L120278 111415
L120307 111358
L120364 111301
L120450 111272
L120507 111272
L120592 111301
L120621 111330
" />
<path d="M121135 111872
L121135 111558
L121107 111501
L121050 111472
L120935 111472
L120878 111501
" />
<path d="M121135 111844
L121078 111872
L120935 111872
L120878 111844
L120850 111787
L120850 111730
L120878 111672
L120935 111644
L121078 111644
L121135 111615
" />
<path d="M121678 111872
L121678 111272
" />
<path d="M121678 111844
L121621 111872
L121507 111872
L121450 111844
L121421 111815
L121392 111758
L121392 111587
L121421 111530
L121450 111501
L121507 111472
L121621 111472
L121678 111501
" />
<path d="M122421 111558
L122621 111558
" />
<path d="M122707 111872
L122421 111872
L122421 111272
L122707 111272
" />
<path d="M122964 111815
L122992 111844
L122964 111872
L122935 111844
L122964 111815
L122964 111872
" />
<path d="M123249 111872
L123249 111272
L123392 111272
L123478 111301
L123535 111358
L123564 111415
L123592 111530
L123592 111615
L123564 111730
L123535 111787
L123478 111844
L123392 111872
L123249 111872
" />
<path d="M123849 111815
L123878 111844
L123849 111872
L123821 111844
L123849 111815
L123849 111872
" />
<path d="M124107 111701
L124392 111701
" />
<path d="M124049 111872
L124249 111272
L124449 111872
" />
<path d="M124649 111815
L124678 111844
L124649 111872
L124621 111844
L124649 111815
L124649 111872
" />
<path d="M152942 110672
L152778 110387
" />
<path d="M152600 110672
L152675 110072
L152903 110072
L152957 110101
L152982 110130
L153003 110187
L152992 110272
L152957 110330
L152925 110358
L152864 110387
L152635 110387
" />
<path d="M153432 110644
L153371 110672
L153257 110672
L153203 110644
L153182 110587
L153210 110358
L153246 110301
L153307 110272
L153421 110272
L153475 110301
L153496 110358
L153489 110415
L153196 110472
" />
<path d="M153707 110272
L153800 110672
L153992 110272
" />
<path d="M154178 110615
L154203 110644
L154171 110672
L154146 110644
L154178 110615
L154171 110672
" />
<path d="M154217 110301
L154242 110330
L154210 110358
L154185 110330
L154217 110301
L154210 110358
" />
<path d="M119364 110644
L119450 110672
L119592 110672
L119650 110644
L119678 110615
L119707 110558
L119707 110501
L119678 110444
L119650 110415
L119592 110387
L119478 110358
L119421 110330
L119392 110301
L119364 110244
L119364 110187
L119392 110130
L119421 110101
L119478 110072
L119621 110072
L119707 110101
" />
<path d="M119964 110672
L119964 110272
" />
<path d="M119964 110072
L119935 110101
L119964 110130
L119992 110101
L119964 110072
L119964 110130
" />
<path d="M120192 110272
L120507 110272
L120192 110672
L120507 110672
" />
<path d="M120964 110644
L120907 110672
L120792 110672
L120735 110644
L120707 110587
L120707 110358
L120735 110301
L120792 110272
L120907 110272
L120964 110301
L120992 110358
L120992 110415
L120707 110472
" />
<path d="M121250 110615
L121278 110644
L121250 110672
L121221 110644
L121250 110615
L121250 110672
" />
<path d="M121250 110301
L121278 110330
L121250 110358
L121221 110330
L121250 110301
L121250 110358
" />
<path d="M121964 110501
L122250 110501
" />
<path d="M121907 110672
L122107 110072
L122307 110672
" />
<path d="M122450 110072
L122821 110072
L122621 110301
L122707 110301
L122764 110330
L122792 110358
L122821 110415
L122821 110558
L122792 110615
L122764 110644
L122707 110672
L122535 110672
L122478 110644
L122450 110615
" />
<path d="M152592 111872
L152592 111272
" />
<path d="M153135 111872
L153135 111272
" />
<path d="M153135 111844
L153078 111872
L152964 111872
L152907 111844
L152878 111815
L152850 111758
L152850 111587
L152878 111530
L152907 111501
L152964 111472
L153078 111472
L153135 111501
" />
<path d="M153421 111815
L153450 111844
L153421 111872
L153392 111844
L153421 111815
L153421 111872
" />
<path d="M153421 111501
L153450 111530
L153421 111558
L153392 111530
L153421 111501
L153421 111558
" />
<path d="M154478 111872
L154135 111872
" />
<path d="M154307 111872
L154307 111272
L154249 111358
L154192 111415
L154135 111444
" />
<path d="M155164 111244
L154650 112015
" />
<path d="M155678 111872
L155335 111872
" />
<path d="M155507 111872
L155507 111272
L155449 111358
L155392 111415
L155335 111444
" />
<path d="M119389 108872
L119732 108872
" />
<path d="M119485 109472
L119560 108872
" />
<path d="M119857 109472
L119907 109072
" />
<path d="M119932 108872
L119900 108901
L119925 108930
L119957 108901
L119932 108872
L119925 108930
" />
<path d="M120107 109072
L120335 109072
" />
<path d="M120217 108872
L120153 109387
L120175 109444
L120228 109472
L120285 109472
" />
<path d="M120571 109472
L120517 109444
L120496 109387
L120560 108872
" />
<path d="M121032 109444
L120971 109472
L120857 109472
L120803 109444
L120782 109387
L120810 109158
L120846 109101
L120907 109072
L121021 109072
L121075 109101
L121096 109158
L121089 109215
L120796 109272
" />
<path d="M121321 109415
L121346 109444
L121314 109472
L121289 109444
L121321 109415
L121314 109472
" />
<path d="M121360 109101
L121385 109130
L121353 109158
L121328 109130
L121360 109101
L121353 109158
" />
<path d="M119592 106758
L119392 106758
" />
<path d="M119392 107072
L119392 106472
L119678 106472
" />
<path d="M119907 107072
L119907 106672
" />
<path d="M119907 106472
L119878 106501
L119907 106530
L119935 106501
L119907 106472
L119907 106530
" />
<path d="M120278 107072
L120221 107044
L120192 106987
L120192 106472
" />
<path d="M120735 107044
L120678 107072
L120564 107072
L120507 107044
L120478 106987
L120478 106758
L120507 106701
L120564 106672
L120678 106672
L120735 106701
L120764 106758
L120764 106815
L120478 106872
" />
<path d="M121021 107015
L121050 107044
L121021 107072
L120992 107044
L121021 107015
L121021 107072
" />
<path d="M121021 106701
L121050 106730
L121021 106758
L120992 106730
L121021 106701
L121021 106758
" />
<path d="M121764 107072
L121764 106472
" />
<path d="M121821 106844
L121992 107072
" />
<path d="M121992 106672
L121764 106901
" />
<path d="M122478 107044
L122421 107072
L122307 107072
L122250 107044
L122221 106987
L122221 106758
L122250 106701
L122307 106672
L122421 106672
L122478 106701
L122507 106758
L122507 106815
L122221 106872
" />
<path d="M122707 106672
L122850 107072
" />
<path d="M122992 106672
L122850 107072
L122792 107215
L122764 107244
L122707 107272
" />
<path d="M123221 107072
L123221 106472
" />
<path d="M123221 106701
L123278 106672
L123392 106672
L123450 106701
L123478 106730
L123507 106787
L123507 106958
L123478 107015
L123450 107044
L123392 107072
L123278 107072
L123221 107044
" />
<path d="M123850 107072
L123792 107044
L123764 107015
L123735 106958
L123735 106787
L123764 106730
L123792 106701
L123850 106672
L123935 106672
L123992 106701
L124021 106730
L124050 106787
L124050 106958
L124021 107015
L123992 107044
L123935 107072
L123850 107072
" />
<path d="M124564 107072
L124564 106758
L124535 106701
L124478 106672
L124364 106672
L124307 106701
" />
<path d="M124564 107044
L124507 107072
L124364 107072
L124307 107044
L124278 106987
L124278 106930
L124307 106872
L124364 106844
L124507 106844
L124564 106815
" />
<path d="M124850 107072
L124850 106672
" />
<path d="M124850 106787
L124878 106730
L124907 106701
L124964 106672
L125021 106672
" />
<path d="M125478 107072
L125478 106472
" />
<path d="M125478 107044
L125421 107072
L125307 107072
L125250 107044
L125221 107015
L125192 106958
L125192 106787
L125221 106730
L125250 106701
L125307 106672
L125421 106672
L125478 106701
" />
<path d="M125764 107015
L125792 107044
L125764 107072
L125735 107044
L125764 107015
L125764 107072
" />
<path d="M126050 107072
L126050 106472
" />
<path d="M126107 106844
L126278 107072
" />
<path d="M126278 106672
L126050 106901
" />
<path d="M126535 107072
L126535 106672
" />
<path d="M126535 106472
L126507 106501
L126535 106530
L126564 106501
L126535 106472
L126535 106530
" />
<path d="M127078 107044
L127021 107072
L126907 107072
L126850 107044
L126821 107015
L126792 106958
L126792 106787
L126821 106730
L126850 106701
L126907 106672
L127021 106672
L127078 106701
" />
<path d="M127592 107072
L127592 106758
L127564 106701
L127507 106672
L127392 106672
L127335 106701
" />
<path d="M127592 107044
L127535 107072
L127392 107072
L127335 107044
L127307 106987
L127307 106930
L127335 106872
L127392 106844
L127535 106844
L127592 106815
" />
<path d="M128135 107072
L128135 106472
" />
<path d="M128135 107044
L128078 107072
L127964 107072
L127907 107044
L127878 107015
L127850 106958
L127850 106787
L127878 106730
L127907 106701
L127964 106672
L128078 106672
L128135 106701
" />
<path d="M128278 107130
L128735 107130
" />
<path d="M128878 106672
L128878 107272
" />
<path d="M128878 106701
L128935 106672
L129050 106672
L129107 106701
L129135 106730
L129164 106787
L129164 106958
L129135 107015
L129107 107044
L129050 107072
L128935 107072
L128878 107044
" />
<path d="M129678 107044
L129621 107072
L129507 107072
L129450 107044
L129421 107015
L129392 106958
L129392 106787
L129421 106730
L129450 106701
L129507 106672
L129621 106672
L129678 106701
" />
<path d="M129935 107072
L129935 106472
" />
<path d="M129935 106701
L129992 106672
L130107 106672
L130164 106701
L130192 106730
L130221 106787
L130221 106958
L130192 107015
L130164 107044
L130107 107072
L129992 107072
L129935 107044
" />
<path d="M119364 108244
L119450 108272
L119592 108272
L119650 108244
L119678 108215
L119707 108158
L119707 108101
L119678 108044
L119650 108015
L119592 107987
L119478 107958
L119421 107930
L119392 107901
L119364 107844
L119364 107787
L119392 107730
L119421 107701
L119478 107672
L119621 107672
L119707 107701
" />
<path d="M119964 108272
L119964 107672
" />
<path d="M120221 108272
L120221 107958
L120192 107901
L120135 107872
L120050 107872
L119992 107901
L119964 107930
" />
<path d="M120735 108244
L120678 108272
L120564 108272
L120507 108244
L120478 108187
L120478 107958
L120507 107901
L120564 107872
L120678 107872
L120735 107901
L120764 107958
L120764 108015
L120478 108072
" />
<path d="M121250 108244
L121192 108272
L121078 108272
L121021 108244
L120992 108187
L120992 107958
L121021 107901
L121078 107872
L121192 107872
L121250 107901
L121278 107958
L121278 108015
L120992 108072
" />
<path d="M121450 107872
L121678 107872
" />
<path d="M121535 107672
L121535 108187
L121564 108244
L121621 108272
L121678 108272
" />
<path d="M121878 108215
L121907 108244
L121878 108272
L121850 108244
L121878 108215
L121878 108272
" />
<path d="M121878 107901
L121907 107930
L121878 107958
L121850 107930
L121878 107901
L121878 107958
" />
<path d="M118650 106230
L118650 112230
" />
<path d="M118650 106230
L160650 106230
" />
<path d="M118650 106230
L160650 106230
" />
<path d="M118650 108630
L160650 108630
" />
<path d="M151850 109830
L151850 112230
" />
<path d="M118650 111030
L160650 111030
" />
<path d="M118650 109830
L160650 109830
" />
<path d="M125250 109830
L125250 111030
" />
</g>
<g style="fill:#009F9F; fill-opacity:0.0; 
stroke:#009F9F; stroke-width:75; stroke-opacity:1; 
stroke-linecap:round; stroke-linejoin:round;">
<path d="M83885 57561
L83885 57295
" />
<path d="M83885 57371
L83900 57333
L83914 57314
L83942 57295
L83971 57295
" />
<path d="M84185 57542
L84157 57561
L84100 57561
L84071 57542
L84057 57504
L84057 57352
L84071 57314
L84100 57295
L84157 57295
L84185 57314
L84200 57352
L84200 57390
L84057 57428
" />
<path d="M84300 57295
L84371 57561
L84442 57295
" />
<path d="M84657 57352
L84700 57371
L84714 57390
L84728 57428
L84728 57485
L84714 57523
L84700 57542
L84671 57561
L84557 57561
L84557 57161
L84657 57161
L84685 57180
L84700 57200
L84714 57238
L84714 57276
L84700 57314
L84685 57333
L84657 57352
L84557 57352
" />
</g>
<g style="fill:#009F9F; fill-opacity:0.0; 
stroke:#009F9F; stroke-width:120; stroke-opacity:1; 
stroke-linecap:round; stroke-linejoin:round;">
<path d="M113628 45895
L113914 45895
" />
<path d="M113571 46123
L113771 45323
L113971 46123
" />
<path d="M114428 46123
L114428 45323
" />
<path d="M114428 46085
L114371 46123
L114257 46123
L114200 46085
L114171 46047
L114142 45971
L114142 45742
L114171 45666
L114200 45628
L114257 45590
L114371 45590
L114428 45628
" />
<path d="M114971 46123
L114971 45704
L114942 45628
L114885 45590
L114771 45590
L114714 45628
" />
<path d="M114971 46085
L114914 46123
L114771 46123
L114714 46085
L114685 46009
L114685 45933
L114714 45857
L114771 45819
L114914 45819
L114971 45780
" />
<path d="M115257 46123
L115257 45590
" />
<path d="M115257 45666
L115285 45628
L115342 45590
L115428 45590
L115485 45628
L115514 45704
L115514 46123
" />
<path d="M115514 45704
L115542 45628
L115600 45590
L115685 45590
L115742 45628
L115771 45704
L115771 46123
" />
<path d="M116485 46085
L116571 46123
L116714 46123
L116771 46085
L116800 46047
L116828 45971
L116828 45895
L116800 45819
L116771 45780
L116714 45742
L116600 45704
L116542 45666
L116514 45628
L116485 45552
L116485 45476
L116514 45400
L116542 45361
L116600 45323
L116742 45323
L116828 45361
" />
<path d="M117342 46085
L117285 46123
L117171 46123
L117114 46085
L117085 46047
L117057 45971
L117057 45742
L117085 45666
L117114 45628
L117171 45590
L117285 45590
L117342 45628
" />
<path d="M117600 46123
L117600 45323
" />
<path d="M117857 46123
L117857 45704
L117828 45628
L117771 45590
L117685 45590
L117628 45628
L117600 45666
" />
<path d="M118085 45590
L118200 46123
L118314 45742
L118428 46123
L118542 45590
" />
<path d="M119028 46123
L119028 45704
L119000 45628
L118942 45590
L118828 45590
L118771 45628
" />
<path d="M119028 46085
L118971 46123
L118828 46123
L118771 46085
L118742 46009
L118742 45933
L118771 45857
L118828 45819
L118971 45819
L119028 45780
" />
<path d="M119314 46123
L119314 45590
" />
<path d="M119314 45742
L119342 45666
L119371 45628
L119428 45590
L119485 45590
" />
<path d="M119600 45590
L119828 45590
" />
<path d="M119685 45323
L119685 46009
L119714 46085
L119771 46123
L119828 46123
" />
<path d="M119971 45590
L120285 45590
L119971 46123
L120285 46123
" />
<path d="M121457 46123
L121428 46123
L121371 46085
L121285 45971
L121142 45742
L121085 45628
L121057 45514
L121057 45438
L121085 45361
L121142 45323
L121171 45323
L121228 45361
L121257 45438
L121257 45476
L121228 45552
L121200 45590
L121028 45742
L121000 45780
L120971 45857
L120971 45971
L121000 46047
L121028 46085
L121085 46123
L121171 46123
L121228 46085
L121257 46047
L121342 45895
L121371 45780
L121371 45704
" />
<path d="M122171 46123
L122171 45323
L122371 45895
L122571 45323
L122571 46123
" />
<path d="M122857 46123
L122857 45590
" />
<path d="M122857 45323
L122828 45361
L122857 45400
L122885 45361
L122857 45323
L122857 45400
" />
<path d="M123400 46085
L123342 46123
L123228 46123
L123171 46085
L123142 46047
L123114 45971
L123114 45742
L123142 45666
L123171 45628
L123228 45590
L123342 45590
L123400 45628
" />
<path d="M123657 46123
L123657 45323
" />
<path d="M123914 46123
L123914 45704
L123885 45628
L123828 45590
L123742 45590
L123685 45628
L123657 45666
" />
<path d="M124457 46123
L124457 45704
L124428 45628
L124371 45590
L124257 45590
L124200 45628
" />
<path d="M124457 46085
L124400 46123
L124257 46123
L124200 46085
L124171 46009
L124171 45933
L124200 45857
L124257 45819
L124400 45819
L124457 45780
" />
<path d="M124971 46085
L124914 46123
L124800 46123
L124742 46085
L124714 46009
L124714 45704
L124742 45628
L124800 45590
L124914 45590
L124971 45628
L125000 45704
L125000 45780
L124714 45857
" />
<path d="M125342 46123
L125285 46085
L125257 46009
L125257 45323
" />
<path d="M126342 45361
L126285 45323
L126200 45323
L126114 45361
L126057 45438
L126028 45514
L126000 45666
L126000 45780
L126028 45933
L126057 46009
L126114 46085
L126200 46123
L126257 46123
L126342 46085
L126371 46047
L126371 45780
L126257 45780
" />
<path d="M126714 46123
L126657 46085
L126628 46047
L126600 45971
L126600 45742
L126628 45666
L126657 45628
L126714 45590
L126800 45590
L126857 45628
L126885 45666
L126914 45742
L126914 45971
L126885 46047
L126857 46085
L126800 46123
L126714 46123
" />
<path d="M127171 46123
L127171 45323
" />
<path d="M127171 45628
L127228 45590
L127342 45590
L127400 45628
L127428 45666
L127457 45742
L127457 45971
L127428 46047
L127400 46085
L127342 46123
L127228 46123
L127171 46085
" />
<path d="M127942 46085
L127885 46123
L127771 46123
L127714 46085
L127685 46009
L127685 45704
L127714 45628
L127771 45590
L127885 45590
L127942 45628
L127971 45704
L127971 45780
L127685 45857
" />
<path d="M128314 46123
L128257 46085
L128228 46009
L128228 45323
" />
<path d="M128542 46123
L128542 45590
" />
<path d="M128542 45323
L128514 45361
L128542 45400
L128571 45361
L128542 45323
L128542 45400
" />
</g>
<g style="fill:#FFFF00; fill-opacity:0.0; 
stroke:#FFFF00; stroke-width:39.0157; stroke-opacity:1; 
stroke-linecap:round; stroke-linejoin:round;">
<path d="M129000 31400
L129000 31800
" />
<path d="M128200 31000
L128600 31000
" />
<path d="M129000 31400 A400 400 0.0 0 0 128600 31000 " />
<path d="M35800 59600
L35800 60000
" />
<path d="M36600 60400
L36200 60400
" />
<path d="M35800 60000 A400 400 0.0 0 0 36200 60400 " />
<path d="M35800 31800
L35800 31400
" />
<path d="M36600 31000
L36200 31000
" />
<path d="M36200 31000 A400 400 0.0 0 0 35800 31400 " />
<path d="M129000 59800
L129000 60000
" />
<path d="M128400 60400
L128600 60400
" />
<path d="M128600 60400 A400 400 0.0 0 0 129000 60000 " />
<path d="M128400 60400
L128000 60400
" />
<path d="M35800 31800
L35800 59600
" />
<path d="M128200 31000
L36600 31000
" />
<path d="M129000 59800
L129000 31800
" />
<path d="M36600 60400
L128000 60400
" />
</g>
<g style="fill:#009F9F; fill-opacity:0.0; 
stroke:#009F9F; stroke-width:120; stroke-opacity:1; 
stroke-linecap:round; stroke-linejoin:round;">
<path d="M63128 59104
L62928 59104
" />
<path d="M62928 59523
L62928 58723
L63214 58723
" />
<path d="M63528 59523
L63471 59485
L63442 59447
L63414 59371
L63414 59142
L63442 59066
L63471 59028
L63528 58990
L63614 58990
L63671 59028
L63700 59066
L63728 59142
L63728 59371
L63700 59447
L63671 59485
L63614 59523
L63528 59523
" />
<path d="M63985 59523
L63985 58990
" />
<path d="M63985 59142
L64014 59066
L64042 59028
L64100 58990
L64157 58990
" />
<path d="M64785 59485
L64871 59523
L65014 59523
L65071 59485
L65100 59447
L65128 59371
L65128 59295
L65100 59219
L65071 59180
L65014 59142
L64900 59104
L64842 59066
L64814 59028
L64785 58952
L64785 58876
L64814 58800
L64842 58761
L64900 58723
L65042 58723
L65128 58761
" />
<path d="M65642 59485
L65585 59523
L65471 59523
L65414 59485
L65385 59447
L65357 59371
L65357 59142
L65385 59066
L65414 59028
L65471 58990
L65585 58990
L65642 59028
" />
<path d="M65900 59523
L65900 58990
" />
<path d="M65900 58723
L65871 58761
L65900 58800
L65928 58761
L65900 58723
L65900 58800
" />
<path d="M66414 59485
L66357 59523
L66242 59523
L66185 59485
L66157 59409
L66157 59104
L66185 59028
L66242 58990
L66357 58990
L66414 59028
L66442 59104
L66442 59180
L66157 59257
" />
<path d="M66700 58990
L66700 59523
" />
<path d="M66700 59066
L66728 59028
L66785 58990
L66871 58990
L66928 59028
L66957 59104
L66957 59523
" />
<path d="M67500 59485
L67442 59523
L67328 59523
L67271 59485
L67242 59447
L67214 59371
L67214 59142
L67242 59066
L67271 59028
L67328 58990
L67442 58990
L67500 59028
" />
<path d="M67985 59485
L67928 59523
L67814 59523
L67757 59485
L67728 59409
L67728 59104
L67757 59028
L67814 58990
L67928 58990
L67985 59028
L68014 59104
L68014 59180
L67728 59257
" />
<path d="M68271 59447
L68300 59485
L68271 59523
L68242 59485
L68271 59447
L68271 59523
" />
<path d="M68271 59219
L68242 58761
L68271 58723
L68300 58761
L68271 59219
L68271 58723
" />
<path d="M93114 59623
L93114 58823
L93257 58823
L93342 58861
L93400 58938
L93428 59014
L93457 59166
L93457 59280
L93428 59433
L93400 59509
L93342 59585
L93257 59623
L93114 59623
" />
<path d="M93800 59623
L93742 59585
L93714 59547
L93685 59471
L93685 59242
L93714 59166
L93742 59128
L93800 59090
L93885 59090
L93942 59128
L93971 59166
L94000 59242
L94000 59471
L93971 59547
L93942 59585
L93885 59623
L93800 59623
" />
<path d="M94257 59090
L94257 59623
" />
<path d="M94257 59166
L94285 59128
L94342 59090
L94428 59090
L94485 59128
L94514 59204
L94514 59623
" />
<path d="M94828 58823
L94771 58976
" />
<path d="M95000 59090
L95228 59090
" />
<path d="M95085 58823
L95085 59509
L95114 59585
L95171 59623
L95228 59623
" />
<path d="M95885 59623
L95885 58823
L96114 58823
L96171 58861
L96200 58900
L96228 58976
L96228 59090
L96200 59166
L96171 59204
L96114 59242
L95885 59242
" />
<path d="M96742 59623
L96742 59204
L96714 59128
L96657 59090
L96542 59090
L96485 59128
" />
<path d="M96742 59585
L96685 59623
L96542 59623
L96485 59585
L96457 59509
L96457 59433
L96485 59357
L96542 59319
L96685 59319
L96742 59280
" />
<path d="M97028 59090
L97028 59623
" />
<path d="M97028 59166
L97057 59128
L97114 59090
L97200 59090
L97257 59128
L97285 59204
L97285 59623
" />
<path d="M97571 59623
L97571 59090
" />
<path d="M97571 58823
L97542 58861
L97571 58900
L97600 58861
L97571 58823
L97571 58900
" />
<path d="M98114 59585
L98057 59623
L97942 59623
L97885 59585
L97857 59547
L97828 59471
L97828 59242
L97857 59166
L97885 59128
L97942 59090
L98057 59090
L98114 59128
" />
</g>
<g style="fill:#009F9F; fill-opacity:0.0; 
stroke:#009F9F; stroke-width:78.7402; stroke-opacity:1; 
stroke-linecap:round; stroke-linejoin:round;">
<path d="M76034 58270
L76222 58270
" />
<path d="M75997 58439
L76128 57848
L76259 58439
" />
<path d="M76859 58045
L76859 58439
" />
<path d="M76766 57820
L76672 58242
L76916 58242
" />
<path d="M77047 57904
L77066 57876
L77103 57848
L77197 57848
L77234 57876
L77253 57904
L77272 57960
L77272 58017
L77253 58101
L77028 58439
L77272 58439
" />
<path d="M77422 58439
L77722 57848
" />
<path d="M77478 57848
L77516 57876
L77534 57932
L77516 57989
L77478 58017
L77441 57989
L77422 57932
L77441 57876
L77478 57848
" />
<path d="M77703 58410
L77722 58354
L77703 58298
L77665 58270
L77628 58298
L77609 58354
L77628 58410
L77665 58439
L77703 58410
" />
<path d="M78190 58045
L78190 58635
" />
<path d="M78190 58073
L78228 58045
L78303 58045
L78340 58073
L78359 58101
L78378 58157
L78378 58326
L78359 58382
L78340 58410
L78303 58439
L78228 58439
L78190 58410
" />
<path d="M78547 58439
L78547 58045
" />
<path d="M78547 58157
L78565 58101
L78584 58073
L78622 58045
L78659 58045
" />
<path d="M78847 58439
L78809 58410
L78790 58382
L78772 58326
L78772 58157
L78790 58101
L78809 58073
L78847 58045
L78903 58045
L78940 58073
L78959 58101
L78978 58157
L78978 58326
L78959 58382
L78940 58410
L78903 58439
L78847 58439
" />
<path d="M79315 58045
L79315 58523
L79297 58579
L79278 58607
L79240 58635
L79184 58635
L79147 58607
" />
<path d="M79315 58410
L79278 58439
L79203 58439
L79165 58410
L79147 58382
L79128 58326
L79128 58157
L79147 58101
L79165 58073
L79203 58045
L79278 58045
L79315 58073
" />
<path d="M79503 58439
L79503 58045
" />
<path d="M79503 58157
L79522 58101
L79540 58073
L79578 58045
L79615 58045
" />
<path d="M79915 58439
L79915 58129
L79896 58073
L79859 58045
L79784 58045
L79746 58073
" />
<path d="M79915 58410
L79878 58439
L79784 58439
L79746 58410
L79728 58354
L79728 58298
L79746 58242
L79784 58214
L79878 58214
L79915 58185
" />
<path d="M80103 58439
L80103 58045
" />
<path d="M80103 58101
L80121 58073
L80159 58045
L80215 58045
L80253 58073
L80271 58129
L80271 58439
" />
<path d="M80271 58129
L80290 58073
L80328 58045
L80384 58045
L80421 58073
L80440 58129
L80440 58439
" />
<path d="M80628 58439
L80628 58045
" />
<path d="M80628 58101
L80646 58073
L80684 58045
L80740 58045
L80778 58073
L80796 58129
L80796 58439
" />
<path d="M80796 58129
L80815 58073
L80853 58045
L80909 58045
L80946 58073
L80965 58129
L80965 58439
" />
<path d="M81321 58439
L81321 58129
L81303 58073
L81265 58045
L81190 58045
L81153 58073
" />
<path d="M81321 58410
L81284 58439
L81190 58439
L81153 58410
L81134 58354
L81134 58298
L81153 58242
L81190 58214
L81284 58214
L81321 58185
" />
<path d="M81509 58439
L81509 57848
" />
<path d="M81509 58073
L81546 58045
L81621 58045
L81659 58073
L81677 58101
L81696 58157
L81696 58326
L81677 58382
L81659 58410
L81621 58439
L81546 58439
L81509 58410
" />
<path d="M81921 58439
L81884 58410
L81865 58354
L81865 57848
" />
<path d="M82221 58410
L82184 58439
L82109 58439
L82071 58410
L82052 58354
L82052 58129
L82071 58073
L82109 58045
L82184 58045
L82221 58073
L82240 58129
L82240 58185
L82052 58242
" />
<path d="M82709 58439
L82709 57848
" />
<path d="M82746 58214
L82859 58439
" />
<path d="M82859 58045
L82709 58270
" />
<path d="M83177 58410
L83140 58439
L83065 58439
L83027 58410
L83009 58354
L83009 58129
L83027 58073
L83065 58045
L83140 58045
L83177 58073
L83196 58129
L83196 58185
L83009 58242
" />
<path d="M83327 58045
L83421 58439
" />
<path d="M83515 58045
L83421 58439
L83384 58579
L83365 58607
L83327 58635
" />
<path d="M83665 58439
L83665 57848
" />
<path d="M83665 58073
L83702 58045
L83777 58045
L83815 58073
L83833 58101
L83852 58157
L83852 58326
L83833 58382
L83815 58410
L83777 58439
L83702 58439
L83665 58410
" />
<path d="M84077 58439
L84040 58410
L84021 58382
L84002 58326
L84002 58157
L84021 58101
L84040 58073
L84077 58045
L84133 58045
L84171 58073
L84190 58101
L84208 58157
L84208 58326
L84190 58382
L84171 58410
L84133 58439
L84077 58439
" />
<path d="M84546 58439
L84546 58129
L84527 58073
L84490 58045
L84415 58045
L84377 58073
" />
<path d="M84546 58410
L84508 58439
L84415 58439
L84377 58410
L84358 58354
L84358 58298
L84377 58242
L84415 58214
L84508 58214
L84546 58185
" />
<path d="M84733 58439
L84733 58045
" />
<path d="M84733 58157
L84752 58101
L84771 58073
L84808 58045
L84846 58045
" />
<path d="M85146 58439
L85146 57848
" />
<path d="M85146 58410
L85108 58439
L85033 58439
L84996 58410
L84977 58382
L84958 58326
L84958 58157
L84977 58101
L84996 58073
L85033 58045
L85108 58045
L85146 58073
" />
<path d="M77769 59344
L77769 58753
" />
<path d="M77769 59316
L77731 59344
L77656 59344
L77619 59316
L77600 59288
L77581 59232
L77581 59063
L77600 59007
L77619 58978
L77656 58950
L77731 58950
L77769 58978
" />
<path d="M78106 59316
L78069 59344
L77994 59344
L77956 59316
L77937 59260
L77937 59035
L77956 58978
L77994 58950
L78069 58950
L78106 58978
L78125 59035
L78125 59091
L77937 59147
" />
<path d="M78275 59316
L78312 59344
L78387 59344
L78425 59316
L78444 59260
L78444 59232
L78425 59175
L78387 59147
L78331 59147
L78294 59119
L78275 59063
L78275 59035
L78294 58978
L78331 58950
L78387 58950
L78425 58978
" />
<path d="M78612 59344
L78612 58950
" />
<path d="M78612 58753
L78594 58782
L78612 58810
L78631 58782
L78612 58753
L78612 58810
" />
<path d="M78968 58950
L78968 59428
L78950 59485
L78931 59513
L78893 59541
L78837 59541
L78800 59513
" />
<path d="M78968 59316
L78931 59344
L78856 59344
L78818 59316
L78800 59288
L78781 59232
L78781 59063
L78800 59007
L78818 58978
L78856 58950
L78931 58950
L78968 58978
" />
<path d="M79156 58950
L79156 59344
" />
<path d="M79156 59007
L79175 58978
L79212 58950
L79268 58950
L79306 58978
L79325 59035
L79325 59344
" />
<path d="M79662 59316
L79625 59344
L79550 59344
L79512 59316
L79493 59260
L79493 59035
L79512 58978
L79550 58950
L79625 58950
L79662 58978
L79681 59035
L79681 59091
L79493 59147
" />
<path d="M80018 59344
L80018 58753
" />
<path d="M80018 59316
L79981 59344
L79906 59344
L79868 59316
L79850 59288
L79831 59232
L79831 59063
L79850 59007
L79868 58978
L79906 58950
L79981 58950
L80018 58978
" />
<path d="M80450 58950
L80599 58950
" />
<path d="M80506 59344
L80506 58838
L80525 58782
L80562 58753
L80599 58753
" />
<path d="M80787 59344
L80749 59316
L80731 59288
L80712 59232
L80712 59063
L80731 59007
L80749 58978
L80787 58950
L80843 58950
L80881 58978
L80899 59007
L80918 59063
L80918 59232
L80899 59288
L80881 59316
L80843 59344
L80787 59344
" />
<path d="M81087 59344
L81087 58950
" />
<path d="M81087 59063
L81106 59007
L81124 58978
L81162 58950
L81199 58950
" />
<path d="M81631 59344
L81631 58753
L81724 58753
L81781 58782
L81818 58838
L81837 58894
L81856 59007
L81856 59091
L81837 59203
L81818 59260
L81781 59316
L81724 59344
L81631 59344
" />
<path d="M81987 58950
L82081 59344
L82174 58950
" />
<path d="M82381 59344
L82343 59316
L82324 59288
L82306 59232
L82306 59063
L82324 59007
L82343 58978
L82381 58950
L82437 58950
L82474 58978
L82493 59007
L82512 59063
L82512 59232
L82493 59288
L82474 59316
L82437 59344
L82381 59344
" />
<path d="M82680 59344
L82680 58950
" />
<path d="M82680 59063
L82699 59007
L82718 58978
L82755 58950
L82793 58950
" />
<path d="M83093 59344
L83093 59035
L83074 58978
L83037 58950
L82962 58950
L82924 58978
" />
<path d="M83093 59316
L83055 59344
L82962 59344
L82924 59316
L82905 59260
L82905 59203
L82924 59147
L82962 59119
L83055 59119
L83093 59091
" />
<path d="M83280 59344
L83280 58753
" />
<path d="M83318 59119
L83430 59344
" />
<path d="M83430 58950
L83280 59175
" />
<path d="M83599 59288
L83618 59316
L83599 59344
L83580 59316
L83599 59288
L83599 59344
" />
</g>
<g style="fill:#009F9F; fill-opacity:0.0; 
stroke:#009F9F; stroke-width:393.701; stroke-opacity:1; 
stroke-linecap:round; stroke-linejoin:round;">
<path d="M77712 56976
L77712 55532
" />
<path d="M77712 55739
L77787 55635
L77937 55532
L78162 55532
L78312 55635
L78387 55842
L78387 56976
" />
<path d="M78387 55842
L78462 55635
L78612 55532
L78837 55532
L78987 55635
L79062 55842
L79062 56976
" />
<path d="M80487 56976
L80487 55842
L80412 55635
L80262 55532
L79962 55532
L79812 55635
" />
<path d="M80487 56873
L80337 56976
L79962 56976
L79812 56873
L79737 56667
L79737 56460
L79812 56254
L79962 56151
L80337 56151
L80487 56048
" />
<path d="M81912 55532
L81912 56976
" />
<path d="M81537 54707
L81162 56254
L82137 56254
" />
<path d="M82662 55017
L82737 54914
L82887 54811
L83262 54811
L83412 54914
L83487 55017
L83562 55223
L83562 55429
L83487 55739
L82587 56976
L83562 56976
" />
</g>
<g style="fill:#009F9F; fill-opacity:0.0; 
stroke:#009F9F; stroke-width:78.7402; stroke-opacity:1; 
stroke-linecap:round; stroke-linejoin:round;">
<path d="M115993 53539
L115993 52948
" />
<path d="M116181 53145
L116181 53539
" />
<path d="M116181 53201
L116199 53173
L116237 53145
L116293 53145
L116331 53173
L116349 53229
L116349 53539
" />
<path d="M116518 53510
L116556 53539
L116631 53539
L116668 53510
L116687 53454
L116687 53426
L116668 53370
L116631 53342
L116574 53342
L116537 53314
L116518 53257
L116518 53229
L116537 53173
L116574 53145
L116631 53145
L116668 53173
" />
<path d="M116856 53145
L116856 53735
" />
<path d="M116856 53173
L116893 53145
L116968 53145
L117006 53173
L117024 53201
L117043 53257
L117043 53426
L117024 53482
L117006 53510
L116968 53539
L116893 53539
L116856 53510
" />
<path d="M117212 53539
L117212 53145
" />
<path d="M117212 52948
L117193 52976
L117212 53004
L117231 52976
L117212 52948
L117212 53004
" />
<path d="M117399 53539
L117399 53145
" />
<path d="M117399 53257
L117418 53201
L117437 53173
L117474 53145
L117512 53145
" />
<path d="M117793 53510
L117756 53539
L117681 53539
L117643 53510
L117624 53454
L117624 53229
L117643 53173
L117681 53145
L117756 53145
L117793 53173
L117812 53229
L117812 53285
L117624 53342
" />
<path d="M118149 53539
L118149 52948
" />
<path d="M118149 53510
L118112 53539
L118037 53539
L117999 53510
L117980 53482
L117962 53426
L117962 53257
L117980 53201
L117999 53173
L118037 53145
L118112 53145
L118149 53173
" />
<path d="M118637 53539
L118637 52948
" />
<path d="M118637 53173
L118674 53145
L118749 53145
L118787 53173
L118805 53201
L118824 53257
L118824 53426
L118805 53482
L118787 53510
L118749 53539
L118674 53539
L118637 53510
" />
<path d="M118955 53145
L119049 53539
" />
<path d="M119143 53145
L119049 53539
L119012 53679
L118993 53707
L118955 53735
" />
<path d="M119537 53145
L119687 53145
" />
<path d="M119593 52948
L119593 53454
L119612 53510
L119649 53539
L119687 53539
" />
<path d="M119818 53539
L119818 52948
" />
<path d="M119986 53539
L119986 53229
L119968 53173
L119930 53145
L119874 53145
L119837 53173
L119818 53201
" />
<path d="M120324 53510
L120286 53539
L120211 53539
L120174 53510
L120155 53454
L120155 53229
L120174 53173
L120211 53145
L120286 53145
L120324 53173
L120343 53229
L120343 53285
L120155 53342
" />
<path d="M121018 52976
L120980 52948
L120924 52948
L120868 52976
L120830 53032
L120811 53089
L120793 53201
L120793 53285
L120811 53398
L120830 53454
L120868 53510
L120924 53539
L120961 53539
L121018 53510
L121036 53482
L121036 53285
L120961 53285
" />
<path d="M121205 53539
L121205 52948
" />
<path d="M121205 53229
L121430 53229
" />
<path d="M121430 53539
L121430 52948
" />
<path d="M121786 52948
L121711 52948
L121674 52976
L121655 53004
L121618 53089
L121599 53201
L121599 53426
L121618 53482
L121636 53510
L121674 53539
L121749 53539
L121786 53510
L121805 53482
L121824 53426
L121824 53285
L121805 53229
L121786 53201
L121749 53173
L121674 53173
L121636 53201
L121618 53229
L121599 53285
" />
<path d="M122067 52948
L122105 52948
L122142 52976
L122161 53004
L122180 53060
L122199 53173
L122199 53314
L122180 53426
L122161 53482
L122142 53510
L122105 53539
L122067 53539
L122030 53510
L122011 53482
L121992 53426
L121974 53314
L121974 53173
L121992 53060
L122011 53004
L122030 52976
L122067 52948
" />
<path d="M122386 53510
L122386 53539
L122367 53595
L122349 53623
" />
<path d="M122855 53229
L122986 53229
" />
<path d="M123042 53539
L122855 53539
L122855 52948
L123042 52948
" />
<path d="M123211 53539
L123211 53145
" />
<path d="M123211 53257
L123230 53201
L123249 53173
L123286 53145
L123324 53145
" />
<path d="M123624 53145
L123624 53623
L123605 53679
L123586 53707
L123549 53735
L123492 53735
L123455 53707
" />
<path d="M123624 53510
L123586 53539
L123511 53539
L123474 53510
L123455 53482
L123436 53426
L123436 53257
L123455 53201
L123474 53173
L123511 53145
L123586 53145
L123624 53173
" />
<path d="M123867 53539
L123830 53510
L123811 53482
L123792 53426
L123792 53257
L123811 53201
L123830 53173
L123867 53145
L123923 53145
L123961 53173
L123980 53201
L123998 53257
L123998 53426
L123980 53482
L123961 53510
L123923 53539
L123867 53539
" />
<path d="M124167 53539
L124167 52948
L124261 52948
L124317 52976
L124355 53032
L124373 53089
L124392 53201
L124392 53285
L124373 53398
L124355 53454
L124317 53510
L124261 53539
L124167 53539
" />
<path d="M124617 53539
L124580 53510
L124561 53482
L124542 53426
L124542 53257
L124561 53201
L124580 53173
L124617 53145
L124673 53145
L124711 53173
L124730 53201
L124748 53257
L124748 53426
L124730 53482
L124711 53510
L124673 53539
L124617 53539
" />
<path d="M124880 53539
L125086 53145
" />
<path d="M124880 53145
L125086 53539
" />
<path d="M125255 53510
L125255 53539
L125236 53595
L125217 53623
" />
<path d="M125892 53539
L125892 53229
L125873 53173
L125836 53145
L125761 53145
L125723 53173
" />
<path d="M125892 53510
L125855 53539
L125761 53539
L125723 53510
L125705 53454
L125705 53398
L125723 53342
L125761 53314
L125855 53314
L125892 53285
" />
<path d="M126079 53145
L126079 53539
" />
<path d="M126079 53201
L126098 53173
L126136 53145
L126192 53145
L126229 53173
L126248 53229
L126248 53539
" />
<path d="M126604 53539
L126604 52948
" />
<path d="M126604 53510
L126567 53539
L126492 53539
L126454 53510
L126436 53482
L126417 53426
L126417 53257
L126436 53201
L126454 53173
L126492 53145
L126567 53145
L126604 53173
" />
<path d="M127204 52948
L127204 53370
L127186 53454
L127148 53510
L127092 53539
L127054 53539
" />
<path d="M127392 53539
L127392 52948
L127486 52948
L127542 52976
L127579 53032
L127598 53089
L127617 53201
L127617 53285
L127598 53398
L127579 53454
L127542 53510
L127486 53539
L127392 53539
" />
<path d="M127954 53145
L127954 53539
" />
<path d="M127861 52920
L127767 53342
L128010 53342
" />
<path d="M128235 52948
L128273 52948
L128310 52976
L128329 53004
L128348 53060
L128367 53173
L128367 53314
L128348 53426
L128329 53482
L128310 53510
L128273 53539
L128235 53539
L128198 53510
L128179 53482
L128160 53426
L128142 53314
L128142 53173
L128160 53060
L128179 53004
L128198 52976
L128235 52948
" />
<path d="M128535 53482
L128554 53510
L128535 53539
L128517 53510
L128535 53482
L128535 53539
" />
</g>
<g style="fill:#009F9F; fill-opacity:0.0; 
stroke:#009F9F; stroke-width:120; stroke-opacity:1; 
stroke-linecap:round; stroke-linejoin:round;">
<path d="M122907 59414
L122992 59442
L123135 59442
L123192 59414
L123221 59385
L123250 59328
L123250 59271
L123221 59214
L123192 59185
L123135 59157
L123021 59128
L122964 59100
L122935 59071
L122907 59014
L122907 58957
L122935 58900
L122964 58871
L123021 58842
L123164 58842
L123250 58871
" />
<path d="M123764 59042
L123764 59442
" />
<path d="M123621 58814
L123478 59242
L123850 59242
" />
<path d="M124364 58842
L124078 58842
L124050 59128
L124078 59100
L124135 59071
L124278 59071
L124335 59100
L124364 59128
L124392 59185
L124392 59328
L124364 59385
L124335 59414
L124278 59442
L124135 59442
L124078 59414
L124050 59385
" />
<path d="M68532 44414
L68617 44442
L68760 44442
L68817 44414
L68846 44385
L68875 44328
L68875 44271
L68846 44214
L68817 44185
L68760 44157
L68646 44128
L68589 44100
L68560 44071
L68532 44014
L68532 43957
L68560 43900
L68589 43871
L68646 43842
L68789 43842
L68875 43871
" />
<path d="M69446 44442
L69103 44442
" />
<path d="M69275 44442
L69275 43842
L69217 43928
L69160 43985
L69103 44014
" />
<path d="M69789 44100
L69732 44071
L69703 44042
L69675 43985
L69675 43957
L69703 43900
L69732 43871
L69789 43842
L69903 43842
L69960 43871
L69989 43900
L70017 43957
L70017 43985
L69989 44042
L69960 44071
L69903 44100
L69789 44100
L69732 44128
L69703 44157
L69675 44214
L69675 44328
L69703 44385
L69732 44414
L69789 44442
L69903 44442
L69960 44414
L69989 44385
L70017 44328
L70017 44214
L69989 44157
L69960 44128
L69903 44100
" />
<path d="M77907 51914
L77992 51942
L78135 51942
L78192 51914
L78221 51885
L78250 51828
L78250 51771
L78221 51714
L78192 51685
L78135 51657
L78021 51628
L77964 51600
L77935 51571
L77907 51514
L77907 51457
L77935 51400
L77964 51371
L78021 51342
L78164 51342
L78250 51371
" />
<path d="M78478 51400
L78507 51371
L78564 51342
L78707 51342
L78764 51371
L78792 51400
L78821 51457
L78821 51514
L78792 51600
L78450 51942
L78821 51942
" />
<path d="M79050 51400
L79078 51371
L79135 51342
L79278 51342
L79335 51371
L79364 51400
L79392 51457
L79392 51514
L79364 51600
L79021 51942
L79392 51942
" />
<path d="M89157 36914
L89242 36942
L89385 36942
L89442 36914
L89471 36885
L89500 36828
L89500 36771
L89471 36714
L89442 36685
L89385 36657
L89271 36628
L89214 36600
L89185 36571
L89157 36514
L89157 36457
L89185 36400
L89214 36371
L89271 36342
L89414 36342
L89500 36371
" />
<path d="M89728 36400
L89757 36371
L89814 36342
L89957 36342
L90014 36371
L90042 36400
L90071 36457
L90071 36514
L90042 36600
L89700 36942
L90071 36942
" />
<path d="M90585 36342
L90471 36342
L90414 36371
L90385 36400
L90328 36485
L90300 36600
L90300 36828
L90328 36885
L90357 36914
L90414 36942
L90528 36942
L90585 36914
L90614 36885
L90642 36828
L90642 36685
L90614 36628
L90585 36600
L90528 36571
L90414 36571
L90357 36600
L90328 36628
L90300 36685
" />
<path d="M69469 59414
L69555 59442
L69698 59442
L69755 59414
L69783 59385
L69812 59328
L69812 59271
L69783 59214
L69755 59185
L69698 59157
L69583 59128
L69526 59100
L69498 59071
L69469 59014
L69469 58957
L69498 58900
L69526 58871
L69583 58842
L69726 58842
L69812 58871
" />
<path d="M70383 59442
L70041 59442
" />
<path d="M70212 59442
L70212 58842
L70155 58928
L70098 58985
L70041 59014
" />
<path d="M70898 58842
L70783 58842
L70726 58871
L70698 58900
L70641 58985
L70612 59100
L70612 59328
L70641 59385
L70669 59414
L70726 59442
L70841 59442
L70898 59414
L70926 59385
L70955 59328
L70955 59185
L70926 59128
L70898 59100
L70841 59071
L70726 59071
L70669 59100
L70641 59128
L70612 59185
" />
<path d="M96657 36914
L96742 36942
L96885 36942
L96942 36914
L96971 36885
L97000 36828
L97000 36771
L96971 36714
L96942 36685
L96885 36657
L96771 36628
L96714 36600
L96685 36571
L96657 36514
L96657 36457
L96685 36400
L96714 36371
L96771 36342
L96914 36342
L97000 36371
" />
<path d="M97200 36342
L97571 36342
L97371 36571
L97457 36571
L97514 36600
L97542 36628
L97571 36685
L97571 36828
L97542 36885
L97514 36914
L97457 36942
L97285 36942
L97228 36914
L97200 36885
" />
<path d="M97942 36342
L98000 36342
L98057 36371
L98085 36400
L98114 36457
L98142 36571
L98142 36714
L98114 36828
L98085 36885
L98057 36914
L98000 36942
L97942 36942
L97885 36914
L97857 36885
L97828 36828
L97800 36714
L97800 36571
L97828 36457
L97857 36400
L97885 36371
L97942 36342
" />
<path d="M104157 36914
L104242 36942
L104385 36942
L104442 36914
L104471 36885
L104500 36828
L104500 36771
L104471 36714
L104442 36685
L104385 36657
L104271 36628
L104214 36600
L104185 36571
L104157 36514
L104157 36457
L104185 36400
L104214 36371
L104271 36342
L104414 36342
L104500 36371
" />
<path d="M104700 36342
L105071 36342
L104871 36571
L104957 36571
L105014 36600
L105042 36628
L105071 36685
L105071 36828
L105042 36885
L105014 36914
L104957 36942
L104785 36942
L104728 36914
L104700 36885
" />
<path d="M105585 36542
L105585 36942
" />
<path d="M105442 36314
L105300 36742
L105671 36742
" />
<path d="M107907 59414
L107992 59442
L108135 59442
L108192 59414
L108221 59385
L108250 59328
L108250 59271
L108221 59214
L108192 59185
L108135 59157
L108021 59128
L107964 59100
L107935 59071
L107907 59014
L107907 58957
L107935 58900
L107964 58871
L108021 58842
L108164 58842
L108250 58871
" />
<path d="M108450 58842
L108821 58842
L108621 59071
L108707 59071
L108764 59100
L108792 59128
L108821 59185
L108821 59328
L108792 59385
L108764 59414
L108707 59442
L108535 59442
L108478 59414
L108450 59385
" />
<path d="M109021 58842
L109421 58842
L109164 59442
" />
<path d="M115407 51914
L115492 51942
L115635 51942
L115692 51914
L115721 51885
L115750 51828
L115750 51771
L115721 51714
L115692 51685
L115635 51657
L115521 51628
L115464 51600
L115435 51571
L115407 51514
L115407 51457
L115435 51400
L115464 51371
L115521 51342
L115664 51342
L115750 51371
" />
<path d="M116264 51542
L116264 51942
" />
<path d="M116121 51314
L115978 51742
L116350 51742
" />
<path d="M116692 51342
L116750 51342
L116807 51371
L116835 51400
L116864 51457
L116892 51571
L116892 51714
L116864 51828
L116835 51885
L116807 51914
L116750 51942
L116692 51942
L116635 51914
L116607 51885
L116578 51828
L116550 51714
L116550 51571
L116578 51457
L116607 51400
L116635 51371
L116692 51342
" />
<path d="M48192 51914
L48278 51942
L48421 51942
L48478 51914
L48507 51885
L48535 51828
L48535 51771
L48507 51714
L48478 51685
L48421 51657
L48307 51628
L48250 51600
L48221 51571
L48192 51514
L48192 51457
L48221 51400
L48250 51371
L48307 51342
L48450 51342
L48535 51371
" />
<path d="M48735 51342
L49135 51342
L48878 51942
" />
<path d="M55407 51914
L55492 51942
L55635 51942
L55692 51914
L55721 51885
L55750 51828
L55750 51771
L55721 51714
L55692 51685
L55635 51657
L55521 51628
L55464 51600
L55435 51571
L55407 51514
L55407 51457
L55435 51400
L55464 51371
L55521 51342
L55664 51342
L55750 51371
" />
<path d="M56321 51942
L55978 51942
" />
<path d="M56150 51942
L56150 51342
L56092 51428
L56035 51485
L55978 51514
" />
<path d="M56892 51942
L56550 51942
" />
<path d="M56721 51942
L56721 51342
L56664 51428
L56607 51485
L56550 51514
" />
<path d="M62907 51914
L62992 51942
L63135 51942
L63192 51914
L63221 51885
L63250 51828
L63250 51771
L63221 51714
L63192 51685
L63135 51657
L63021 51628
L62964 51600
L62935 51571
L62907 51514
L62907 51457
L62935 51400
L62964 51371
L63021 51342
L63164 51342
L63250 51371
" />
<path d="M63821 51942
L63478 51942
" />
<path d="M63650 51942
L63650 51342
L63592 51428
L63535 51485
L63478 51514
" />
<path d="M64364 51342
L64078 51342
L64050 51628
L64078 51600
L64135 51571
L64278 51571
L64335 51600
L64364 51628
L64392 51685
L64392 51828
L64364 51885
L64335 51914
L64278 51942
L64135 51942
L64078 51914
L64050 51885
" />
<path d="M70407 51914
L70492 51942
L70635 51942
L70692 51914
L70721 51885
L70750 51828
L70750 51771
L70721 51714
L70692 51685
L70635 51657
L70521 51628
L70464 51600
L70435 51571
L70407 51514
L70407 51457
L70435 51400
L70464 51371
L70521 51342
L70664 51342
L70750 51371
" />
<path d="M71321 51942
L70978 51942
" />
<path d="M71150 51942
L71150 51342
L71092 51428
L71035 51485
L70978 51514
" />
<path d="M71607 51942
L71721 51942
L71778 51914
L71807 51885
L71864 51800
L71892 51685
L71892 51457
L71864 51400
L71835 51371
L71778 51342
L71664 51342
L71607 51371
L71578 51400
L71550 51457
L71550 51600
L71578 51657
L71607 51685
L71664 51714
L71778 51714
L71835 51685
L71864 51657
L71892 51600
" />
<path d="M61032 44414
L61117 44442
L61260 44442
L61317 44414
L61346 44385
L61375 44328
L61375 44271
L61346 44214
L61317 44185
L61260 44157
L61146 44128
L61089 44100
L61060 44071
L61032 44014
L61032 43957
L61060 43900
L61089 43871
L61146 43842
L61289 43842
L61375 43871
" />
<path d="M61946 44442
L61603 44442
" />
<path d="M61775 44442
L61775 43842
L61717 43928
L61660 43985
L61603 44014
" />
<path d="M62460 44042
L62460 44442
" />
<path d="M62317 43814
L62175 44242
L62546 44242
" />
<path d="M91032 44414
L91117 44442
L91260 44442
L91317 44414
L91346 44385
L91375 44328
L91375 44271
L91346 44214
L91317 44185
L91260 44157
L91146 44128
L91089 44100
L91060 44071
L91032 44014
L91032 43957
L91060 43900
L91089 43871
L91146 43842
L91289 43842
L91375 43871
" />
<path d="M91603 43900
L91632 43871
L91689 43842
L91832 43842
L91889 43871
L91917 43900
L91946 43957
L91946 44014
L91917 44100
L91575 44442
L91946 44442
" />
<path d="M92146 43842
L92546 43842
L92289 44442
" />
<path d="M98532 44414
L98617 44442
L98760 44442
L98817 44414
L98846 44385
L98875 44328
L98875 44271
L98846 44214
L98817 44185
L98760 44157
L98646 44128
L98589 44100
L98560 44071
L98532 44014
L98532 43957
L98560 43900
L98589 43871
L98646 43842
L98789 43842
L98875 43871
" />
<path d="M99075 43842
L99446 43842
L99246 44071
L99332 44071
L99389 44100
L99417 44128
L99446 44185
L99446 44328
L99417 44385
L99389 44414
L99332 44442
L99160 44442
L99103 44414
L99075 44385
" />
<path d="M100017 44442
L99675 44442
" />
<path d="M99846 44442
L99846 43842
L99789 43928
L99732 43985
L99675 44014
" />
<path d="M106032 44414
L106117 44442
L106260 44442
L106317 44414
L106346 44385
L106375 44328
L106375 44271
L106346 44214
L106317 44185
L106260 44157
L106146 44128
L106089 44100
L106060 44071
L106032 44014
L106032 43957
L106060 43900
L106089 43871
L106146 43842
L106289 43842
L106375 43871
" />
<path d="M106575 43842
L106946 43842
L106746 44071
L106832 44071
L106889 44100
L106917 44128
L106946 44185
L106946 44328
L106917 44385
L106889 44414
L106832 44442
L106660 44442
L106603 44414
L106575 44385
" />
<path d="M107489 43842
L107203 43842
L107175 44128
L107203 44100
L107260 44071
L107403 44071
L107460 44100
L107489 44128
L107517 44185
L107517 44328
L107489 44385
L107460 44414
L107403 44442
L107260 44442
L107203 44414
L107175 44385
" />
<path d="M85407 51914
L85492 51942
L85635 51942
L85692 51914
L85721 51885
L85750 51828
L85750 51771
L85721 51714
L85692 51685
L85635 51657
L85521 51628
L85464 51600
L85435 51571
L85407 51514
L85407 51457
L85435 51400
L85464 51371
L85521 51342
L85664 51342
L85750 51371
" />
<path d="M85978 51400
L86007 51371
L86064 51342
L86207 51342
L86264 51371
L86292 51400
L86321 51457
L86321 51514
L86292 51600
L85950 51942
L86321 51942
" />
<path d="M86864 51342
L86578 51342
L86550 51628
L86578 51600
L86635 51571
L86778 51571
L86835 51600
L86864 51628
L86892 51685
L86892 51828
L86864 51885
L86835 51914
L86778 51942
L86635 51942
L86578 51914
L86550 51885
" />
<path d="M99469 59414
L99555 59442
L99698 59442
L99755 59414
L99783 59385
L99812 59328
L99812 59271
L99783 59214
L99755 59185
L99698 59157
L99583 59128
L99526 59100
L99498 59071
L99469 59014
L99469 58957
L99498 58900
L99526 58871
L99583 58842
L99726 58842
L99812 58871
" />
<path d="M100012 58842
L100383 58842
L100183 59071
L100269 59071
L100326 59100
L100355 59128
L100383 59185
L100383 59328
L100355 59385
L100326 59414
L100269 59442
L100098 59442
L100041 59414
L100012 59385
" />
<path d="M100583 58842
L100955 58842
L100755 59071
L100841 59071
L100898 59100
L100926 59128
L100955 59185
L100955 59328
L100926 59385
L100898 59414
L100841 59442
L100669 59442
L100612 59414
L100583 59385
" />
<path d="M100407 51914
L100492 51942
L100635 51942
L100692 51914
L100721 51885
L100750 51828
L100750 51771
L100721 51714
L100692 51685
L100635 51657
L100521 51628
L100464 51600
L100435 51571
L100407 51514
L100407 51457
L100435 51400
L100464 51371
L100521 51342
L100664 51342
L100750 51371
" />
<path d="M100950 51342
L101321 51342
L101121 51571
L101207 51571
L101264 51600
L101292 51628
L101321 51685
L101321 51828
L101292 51885
L101264 51914
L101207 51942
L101035 51942
L100978 51914
L100950 51885
" />
<path d="M101550 51400
L101578 51371
L101635 51342
L101778 51342
L101835 51371
L101864 51400
L101892 51457
L101892 51514
L101864 51600
L101521 51942
L101892 51942
" />
<path d="M92907 51914
L92992 51942
L93135 51942
L93192 51914
L93221 51885
L93250 51828
L93250 51771
L93221 51714
L93192 51685
L93135 51657
L93021 51628
L92964 51600
L92935 51571
L92907 51514
L92907 51457
L92935 51400
L92964 51371
L93021 51342
L93164 51342
L93250 51371
" />
<path d="M93478 51400
L93507 51371
L93564 51342
L93707 51342
L93764 51371
L93792 51400
L93821 51457
L93821 51514
L93792 51600
L93450 51942
L93821 51942
" />
<path d="M94164 51600
L94107 51571
L94078 51542
L94050 51485
L94050 51457
L94078 51400
L94107 51371
L94164 51342
L94278 51342
L94335 51371
L94364 51400
L94392 51457
L94392 51485
L94364 51542
L94335 51571
L94278 51600
L94164 51600
L94107 51628
L94078 51657
L94050 51714
L94050 51828
L94078 51885
L94107 51914
L94164 51942
L94278 51942
L94335 51914
L94364 51885
L94392 51828
L94392 51714
L94364 51657
L94335 51628
L94278 51600
" />
<path d="M83532 44414
L83617 44442
L83760 44442
L83817 44414
L83846 44385
L83875 44328
L83875 44271
L83846 44214
L83817 44185
L83760 44157
L83646 44128
L83589 44100
L83560 44071
L83532 44014
L83532 43957
L83560 43900
L83589 43871
L83646 43842
L83789 43842
L83875 43871
" />
<path d="M84103 43900
L84132 43871
L84189 43842
L84332 43842
L84389 43871
L84417 43900
L84446 43957
L84446 44014
L84417 44100
L84075 44442
L84446 44442
" />
<path d="M84960 44042
L84960 44442
" />
<path d="M84817 43814
L84675 44242
L85046 44242
" />
<path d="M74157 36914
L74242 36942
L74385 36942
L74442 36914
L74471 36885
L74500 36828
L74500 36771
L74471 36714
L74442 36685
L74385 36657
L74271 36628
L74214 36600
L74185 36571
L74157 36514
L74157 36457
L74185 36400
L74214 36371
L74271 36342
L74414 36342
L74500 36371
" />
<path d="M74728 36400
L74757 36371
L74814 36342
L74957 36342
L75014 36371
L75042 36400
L75071 36457
L75071 36514
L75042 36600
L74700 36942
L75071 36942
" />
<path d="M75442 36342
L75500 36342
L75557 36371
L75585 36400
L75614 36457
L75642 36571
L75642 36714
L75614 36828
L75585 36885
L75557 36914
L75500 36942
L75442 36942
L75385 36914
L75357 36885
L75328 36828
L75300 36714
L75300 36571
L75328 36457
L75357 36400
L75385 36371
L75442 36342
" />
<path d="M56344 59414
L56430 59442
L56573 59442
L56630 59414
L56658 59385
L56687 59328
L56687 59271
L56658 59214
L56630 59185
L56573 59157
L56458 59128
L56401 59100
L56373 59071
L56344 59014
L56344 58957
L56373 58900
L56401 58871
L56458 58842
L56601 58842
L56687 58871
" />
<path d="M57258 59442
L56916 59442
" />
<path d="M57087 59442
L57087 58842
L57030 58928
L56973 58985
L56916 59014
" />
<path d="M57487 58900
L57516 58871
L57573 58842
L57716 58842
L57773 58871
L57801 58900
L57830 58957
L57830 59014
L57801 59100
L57458 59442
L57830 59442
" />
<path d="M47255 59414
L47341 59442
L47483 59442
L47541 59414
L47569 59385
L47598 59328
L47598 59271
L47569 59214
L47541 59185
L47483 59157
L47369 59128
L47312 59100
L47283 59071
L47255 59014
L47255 58957
L47283 58900
L47312 58871
L47369 58842
L47512 58842
L47598 58871
" />
<path d="M47941 59100
L47883 59071
L47855 59042
L47826 58985
L47826 58957
L47855 58900
L47883 58871
L47941 58842
L48055 58842
L48112 58871
L48141 58900
L48169 58957
L48169 58985
L48141 59042
L48112 59071
L48055 59100
L47941 59100
L47883 59128
L47855 59157
L47826 59214
L47826 59328
L47855 59385
L47883 59414
L47941 59442
L48055 59442
L48112 59414
L48141 59385
L48169 59328
L48169 59214
L48141 59157
L48112 59128
L48055 59100
" />
<path d="M115407 59414
L115492 59442
L115635 59442
L115692 59414
L115721 59385
L115750 59328
L115750 59271
L115721 59214
L115692 59185
L115635 59157
L115521 59128
L115464 59100
L115435 59071
L115407 59014
L115407 58957
L115435 58900
L115464 58871
L115521 58842
L115664 58842
L115750 58871
" />
<path d="M116264 59042
L116264 59442
" />
<path d="M116121 58814
L115978 59242
L116350 59242
" />
<path d="M116892 59442
L116550 59442
" />
<path d="M116721 59442
L116721 58842
L116664 58928
L116607 58985
L116550 59014
" />
<path d="M81657 36914
L81742 36942
L81885 36942
L81942 36914
L81971 36885
L82000 36828
L82000 36771
L81971 36714
L81942 36685
L81885 36657
L81771 36628
L81714 36600
L81685 36571
L81657 36514
L81657 36457
L81685 36400
L81714 36371
L81771 36342
L81914 36342
L82000 36371
" />
<path d="M82228 36400
L82257 36371
L82314 36342
L82457 36342
L82514 36371
L82542 36400
L82571 36457
L82571 36514
L82542 36600
L82200 36942
L82571 36942
" />
<path d="M82771 36342
L83142 36342
L82942 36571
L83028 36571
L83085 36600
L83114 36628
L83142 36685
L83142 36828
L83114 36885
L83085 36914
L83028 36942
L82857 36942
L82800 36914
L82771 36885
" />
<path d="M37880 59414
L37966 59442
L38108 59442
L38166 59414
L38194 59385
L38223 59328
L38223 59271
L38194 59214
L38166 59185
L38108 59157
L37994 59128
L37937 59100
L37908 59071
L37880 59014
L37880 58957
L37908 58900
L37937 58871
L37994 58842
L38137 58842
L38223 58871
" />
<path d="M38737 59042
L38737 59442
" />
<path d="M38594 58814
L38451 59242
L38823 59242
" />
<path d="M38817 51914
L38903 51942
L39046 51942
L39103 51914
L39132 51885
L39160 51828
L39160 51771
L39132 51714
L39103 51685
L39046 51657
L38932 51628
L38875 51600
L38846 51571
L38817 51514
L38817 51457
L38846 51400
L38875 51371
L38932 51342
L39075 51342
L39160 51371
" />
<path d="M39360 51342
L39732 51342
L39532 51571
L39617 51571
L39675 51600
L39703 51628
L39732 51685
L39732 51828
L39703 51885
L39675 51914
L39617 51942
L39446 51942
L39389 51914
L39360 51885
" />
<path d="M36942 36914
L37028 36942
L37171 36942
L37228 36914
L37257 36885
L37285 36828
L37285 36771
L37257 36714
L37228 36685
L37171 36657
L37057 36628
L37000 36600
L36971 36571
L36942 36514
L36942 36457
L36971 36400
L37000 36371
L37057 36342
L37200 36342
L37285 36371
" />
<path d="M37857 36942
L37514 36942
" />
<path d="M37685 36942
L37685 36342
L37628 36428
L37571 36485
L37514 36514
" />
<path d="M44442 36914
L44528 36942
L44671 36942
L44728 36914
L44757 36885
L44785 36828
L44785 36771
L44757 36714
L44728 36685
L44671 36657
L44557 36628
L44500 36600
L44471 36571
L44442 36514
L44442 36457
L44471 36400
L44500 36371
L44557 36342
L44700 36342
L44785 36371
" />
<path d="M45328 36342
L45042 36342
L45014 36628
L45042 36600
L45100 36571
L45242 36571
L45300 36600
L45328 36628
L45357 36685
L45357 36828
L45328 36885
L45300 36914
L45242 36942
L45100 36942
L45042 36914
L45014 36885
" />
<path d="M51942 36914
L52028 36942
L52171 36942
L52228 36914
L52257 36885
L52285 36828
L52285 36771
L52257 36714
L52228 36685
L52171 36657
L52057 36628
L52000 36600
L51971 36571
L51942 36514
L51942 36457
L51971 36400
L52000 36371
L52057 36342
L52200 36342
L52285 36371
" />
<path d="M52571 36942
L52685 36942
L52742 36914
L52771 36885
L52828 36800
L52857 36685
L52857 36457
L52828 36400
L52800 36371
L52742 36342
L52628 36342
L52571 36371
L52542 36400
L52514 36457
L52514 36600
L52542 36657
L52571 36685
L52628 36714
L52742 36714
L52800 36685
L52828 36657
L52857 36600
" />
<path d="M59157 36914
L59242 36942
L59385 36942
L59442 36914
L59471 36885
L59500 36828
L59500 36771
L59471 36714
L59442 36685
L59385 36657
L59271 36628
L59214 36600
L59185 36571
L59157 36514
L59157 36457
L59185 36400
L59214 36371
L59271 36342
L59414 36342
L59500 36371
" />
<path d="M60071 36942
L59728 36942
" />
<path d="M59900 36942
L59900 36342
L59842 36428
L59785 36485
L59728 36514
" />
<path d="M60271 36342
L60642 36342
L60442 36571
L60528 36571
L60585 36600
L60614 36628
L60642 36685
L60642 36828
L60614 36885
L60585 36914
L60528 36942
L60357 36942
L60300 36914
L60271 36885
" />
<path d="M66657 36914
L66742 36942
L66885 36942
L66942 36914
L66971 36885
L67000 36828
L67000 36771
L66971 36714
L66942 36685
L66885 36657
L66771 36628
L66714 36600
L66685 36571
L66657 36514
L66657 36457
L66685 36400
L66714 36371
L66771 36342
L66914 36342
L67000 36371
" />
<path d="M67571 36942
L67228 36942
" />
<path d="M67400 36942
L67400 36342
L67342 36428
L67285 36485
L67228 36514
" />
<path d="M67771 36342
L68171 36342
L67914 36942
" />
<path d="M76032 44414
L76117 44442
L76260 44442
L76317 44414
L76346 44385
L76375 44328
L76375 44271
L76346 44214
L76317 44185
L76260 44157
L76146 44128
L76089 44100
L76060 44071
L76032 44014
L76032 43957
L76060 43900
L76089 43871
L76146 43842
L76289 43842
L76375 43871
" />
<path d="M76603 43900
L76632 43871
L76689 43842
L76832 43842
L76889 43871
L76917 43900
L76946 43957
L76946 44014
L76917 44100
L76575 44442
L76946 44442
" />
<path d="M77517 44442
L77175 44442
" />
<path d="M77346 44442
L77346 43842
L77289 43928
L77232 43985
L77175 44014
" />
<path d="M111657 36914
L111742 36942
L111885 36942
L111942 36914
L111971 36885
L112000 36828
L112000 36771
L111971 36714
L111942 36685
L111885 36657
L111771 36628
L111714 36600
L111685 36571
L111657 36514
L111657 36457
L111685 36400
L111714 36371
L111771 36342
L111914 36342
L112000 36371
" />
<path d="M112200 36342
L112571 36342
L112371 36571
L112457 36571
L112514 36600
L112542 36628
L112571 36685
L112571 36828
L112542 36885
L112514 36914
L112457 36942
L112285 36942
L112228 36914
L112200 36885
" />
<path d="M112914 36600
L112857 36571
L112828 36542
L112800 36485
L112800 36457
L112828 36400
L112857 36371
L112914 36342
L113028 36342
L113085 36371
L113114 36400
L113142 36457
L113142 36485
L113114 36542
L113085 36571
L113028 36600
L112914 36600
L112857 36628
L112828 36657
L112800 36714
L112800 36828
L112828 36885
L112857 36914
L112914 36942
L113028 36942
L113085 36914
L113114 36885
L113142 36828
L113142 36714
L113114 36657
L113085 36628
L113028 36600
" />
<path d="M46317 44414
L46403 44442
L46546 44442
L46603 44414
L46632 44385
L46660 44328
L46660 44271
L46632 44214
L46603 44185
L46546 44157
L46432 44128
L46375 44100
L46346 44071
L46317 44014
L46317 43957
L46346 43900
L46375 43871
L46432 43842
L46575 43842
L46660 43871
" />
<path d="M47175 43842
L47060 43842
L47003 43871
L46975 43900
L46917 43985
L46889 44100
L46889 44328
L46917 44385
L46946 44414
L47003 44442
L47117 44442
L47175 44414
L47203 44385
L47232 44328
L47232 44185
L47203 44128
L47175 44100
L47117 44071
L47003 44071
L46946 44100
L46917 44128
L46889 44185
" />
<path d="M37880 44414
L37966 44442
L38108 44442
L38166 44414
L38194 44385
L38223 44328
L38223 44271
L38194 44214
L38166 44185
L38108 44157
L37994 44128
L37937 44100
L37908 44071
L37880 44014
L37880 43957
L37908 43900
L37937 43871
L37994 43842
L38137 43842
L38223 43871
" />
<path d="M38451 43900
L38480 43871
L38537 43842
L38680 43842
L38737 43871
L38766 43900
L38794 43957
L38794 44014
L38766 44100
L38423 44442
L38794 44442
" />
<path d="M121032 36914
L121117 36942
L121260 36942
L121317 36914
L121346 36885
L121375 36828
L121375 36771
L121346 36714
L121317 36685
L121260 36657
L121146 36628
L121089 36600
L121060 36571
L121032 36514
L121032 36457
L121060 36400
L121089 36371
L121146 36342
L121289 36342
L121375 36371
" />
<path d="M121889 36542
L121889 36942
" />
<path d="M121746 36314
L121603 36742
L121975 36742
" />
<path d="M122175 36400
L122203 36371
L122260 36342
L122403 36342
L122460 36371
L122489 36400
L122517 36457
L122517 36514
L122489 36600
L122146 36942
L122517 36942
" />
<path d="M113532 44414
L113617 44442
L113760 44442
L113817 44414
L113846 44385
L113875 44328
L113875 44271
L113846 44214
L113817 44185
L113760 44157
L113646 44128
L113589 44100
L113560 44071
L113532 44014
L113532 43957
L113560 43900
L113589 43871
L113646 43842
L113789 43842
L113875 43871
" />
<path d="M114075 43842
L114446 43842
L114246 44071
L114332 44071
L114389 44100
L114417 44128
L114446 44185
L114446 44328
L114417 44385
L114389 44414
L114332 44442
L114160 44442
L114103 44414
L114075 44385
" />
<path d="M114732 44442
L114846 44442
L114903 44414
L114932 44385
L114989 44300
L115017 44185
L115017 43957
L114989 43900
L114960 43871
L114903 43842
L114789 43842
L114732 43871
L114703 43900
L114675 43957
L114675 44100
L114703 44157
L114732 44185
L114789 44214
L114903 44214
L114960 44185
L114989 44157
L115017 44100
" />
<path d="M107907 51914
L107992 51942
L108135 51942
L108192 51914
L108221 51885
L108250 51828
L108250 51771
L108221 51714
L108192 51685
L108135 51657
L108021 51628
L107964 51600
L107935 51571
L107907 51514
L107907 51457
L107935 51400
L107964 51371
L108021 51342
L108164 51342
L108250 51371
" />
<path d="M108450 51342
L108821 51342
L108621 51571
L108707 51571
L108764 51600
L108792 51628
L108821 51685
L108821 51828
L108792 51885
L108764 51914
L108707 51942
L108535 51942
L108478 51914
L108450 51885
" />
<path d="M109335 51342
L109221 51342
L109164 51371
L109135 51400
L109078 51485
L109050 51600
L109050 51828
L109078 51885
L109107 51914
L109164 51942
L109278 51942
L109335 51914
L109364 51885
L109392 51828
L109392 51685
L109364 51628
L109335 51600
L109278 51571
L109164 51571
L109107 51600
L109078 51628
L109050 51685
" />
<path d="M53532 44414
L53617 44442
L53760 44442
L53817 44414
L53846 44385
L53875 44328
L53875 44271
L53846 44214
L53817 44185
L53760 44157
L53646 44128
L53589 44100
L53560 44071
L53532 44014
L53532 43957
L53560 43900
L53589 43871
L53646 43842
L53789 43842
L53875 43871
" />
<path d="M54446 44442
L54103 44442
" />
<path d="M54275 44442
L54275 43842
L54217 43928
L54160 43985
L54103 44014
" />
<path d="M54817 43842
L54875 43842
L54932 43871
L54960 43900
L54989 43957
L55017 44071
L55017 44214
L54989 44328
L54960 44385
L54932 44414
L54875 44442
L54817 44442
L54760 44414
L54732 44385
L54703 44328
L54675 44214
L54675 44071
L54703 43957
L54732 43900
L54760 43871
L54817 43842
" />
<path d="M86344 59414
L86430 59442
L86573 59442
L86630 59414
L86658 59385
L86687 59328
L86687 59271
L86658 59214
L86630 59185
L86573 59157
L86458 59128
L86401 59100
L86373 59071
L86344 59014
L86344 58957
L86373 58900
L86401 58871
L86458 58842
L86601 58842
L86687 58871
" />
<path d="M86916 58900
L86944 58871
L87001 58842
L87144 58842
L87201 58871
L87230 58900
L87258 58957
L87258 59014
L87230 59100
L86887 59442
L87258 59442
" />
<path d="M87544 59442
L87658 59442
L87716 59414
L87744 59385
L87801 59300
L87830 59185
L87830 58957
L87801 58900
L87773 58871
L87716 58842
L87601 58842
L87544 58871
L87516 58900
L87487 58957
L87487 59100
L87516 59157
L87544 59185
L87601 59214
L87716 59214
L87773 59185
L87801 59157
L87830 59100
" />
<path d="M121969 44414
L122055 44442
L122198 44442
L122255 44414
L122283 44385
L122312 44328
L122312 44271
L122283 44214
L122255 44185
L122198 44157
L122083 44128
L122026 44100
L121998 44071
L121969 44014
L121969 43957
L121998 43900
L122026 43871
L122083 43842
L122226 43842
L122312 43871
" />
<path d="M122826 44042
L122826 44442
" />
<path d="M122683 43814
L122541 44242
L122912 44242
" />
<path d="M123083 43842
L123455 43842
L123255 44071
L123341 44071
L123398 44100
L123426 44128
L123455 44185
L123455 44328
L123426 44385
L123398 44414
L123341 44442
L123169 44442
L123112 44414
L123083 44385
" />
<path d="M122907 51914
L122992 51942
L123135 51942
L123192 51914
L123221 51885
L123250 51828
L123250 51771
L123221 51714
L123192 51685
L123135 51657
L123021 51628
L122964 51600
L122935 51571
L122907 51514
L122907 51457
L122935 51400
L122964 51371
L123021 51342
L123164 51342
L123250 51371
" />
<path d="M123764 51542
L123764 51942
" />
<path d="M123621 51314
L123478 51742
L123850 51742
" />
<path d="M124335 51542
L124335 51942
" />
<path d="M124192 51314
L124050 51742
L124421 51742
" />
</g>
<g style="fill:#009F9F; fill-opacity:0.0; 
stroke:#009F9F; stroke-width:150; stroke-opacity:1; 
stroke-linecap:round; stroke-linejoin:round;">
<path d="M122550 54000
L128550 54000
" />
<path d="M128550 54000
L128550 60000
" />
<path d="M128550 60000
L122550 60000
" />
<path d="M122550 60000
L122550 54000
" />
<path d="M68175 39000
L74175 39000
" />
<path d="M74175 39000
L74175 45000
" />
<path d="M74175 45000
L68175 45000
" />
<path d="M68175 45000
L68175 39000
" />
<path d="M77550 46500
L83550 46500
" />
<path d="M83550 46500
L83550 52500
" />
<path d="M83550 52500
L77550 52500
" />
<path d="M77550 52500
L77550 46500
" />
<path d="M88800 31500
L94800 31500
" />
<path d="M94800 31500
L94800 37500
" />
<path d="M94800 37500
L88800 37500
" />
<path d="M88800 37500
L88800 31500
" />
<path d="M69112 54000
L75112 54000
" />
<path d="M75112 54000
L75112 60000
" />
<path d="M75112 60000
L69112 60000
" />
<path d="M69112 60000
L69112 54000
" />
<path d="M96300 31500
L102300 31500
" />
<path d="M102300 31500
L102300 37500
" />
<path d="M102300 37500
L96300 37500
" />
<path d="M96300 37500
L96300 31500
" />
<path d="M103800 31500
L109800 31500
" />
<path d="M109800 31500
L109800 37500
" />
<path d="M109800 37500
L103800 37500
" />
<path d="M103800 37500
L103800 31500
" />
<path d="M107550 54000
L113550 54000
" />
<path d="M113550 54000
L113550 60000
" />
<path d="M113550 60000
L107550 60000
" />
<path d="M107550 60000
L107550 54000
" />
<path d="M115050 46500
L121050 46500
" />
<path d="M121050 46500
L121050 52500
" />
<path d="M121050 52500
L115050 52500
" />
<path d="M115050 52500
L115050 46500
" />
<path d="M47550 46500
L53550 46500
" />
<path d="M53550 46500
L53550 52500
" />
<path d="M53550 52500
L47550 52500
" />
<path d="M47550 52500
L47550 46500
" />
<path d="M55050 46500
L61050 46500
" />
<path d="M61050 46500
L61050 52500
" />
<path d="M61050 52500
L55050 52500
" />
<path d="M55050 52500
L55050 46500
" />
<path d="M62550 46500
L68550 46500
" />
<path d="M68550 46500
L68550 52500
" />
<path d="M68550 52500
L62550 52500
" />
<path d="M62550 52500
L62550 46500
" />
<path d="M70050 46500
L76050 46500
" />
<path d="M76050 46500
L76050 52500
" />
<path d="M76050 52500
L70050 52500
" />
<path d="M70050 52500
L70050 46500
" />
<path d="M60675 39000
L66675 39000
" />
<path d="M66675 39000
L66675 45000
" />
<path d="M66675 45000
L60675 45000
" />
<path d="M60675 45000
L60675 39000
" />
<path d="M90675 39000
L96675 39000
" />
<path d="M96675 39000
L96675 45000
" />
<path d="M96675 45000
L90675 45000
" />
<path d="M90675 45000
L90675 39000
" />
<path d="M98175 39000
L104175 39000
" />
<path d="M104175 39000
L104175 45000
" />
<path d="M104175 45000
L98175 45000
" />
<path d="M98175 45000
L98175 39000
" />
<path d="M105675 39000
L111675 39000
" />
<path d="M111675 39000
L111675 45000
" />
<path d="M111675 45000
L105675 45000
" />
<path d="M105675 45000
L105675 39000
" />
<path d="M85050 46500
L91050 46500
" />
<path d="M91050 46500
L91050 52500
" />
<path d="M91050 52500
L85050 52500
" />
<path d="M85050 52500
L85050 46500
" />
<path d="M99112 54000
L105112 54000
" />
<path d="M105112 54000
L105112 60000
" />
<path d="M105112 60000
L99112 60000
" />
<path d="M99112 60000
L99112 54000
" />
<path d="M100050 46500
L106050 46500
" />
<path d="M106050 46500
L106050 52500
" />
<path d="M106050 52500
L100050 52500
" />
<path d="M100050 52500
L100050 46500
" />
<path d="M92550 46500
L98550 46500
" />
<path d="M98550 46500
L98550 52500
" />
<path d="M98550 52500
L92550 52500
" />
<path d="M92550 52500
L92550 46500
" />
<path d="M83175 39000
L89175 39000
" />
<path d="M89175 39000
L89175 45000
" />
<path d="M89175 45000
L83175 45000
" />
<path d="M83175 45000
L83175 39000
" />
<path d="M73800 31500
L79800 31500
" />
<path d="M79800 31500
L79800 37500
" />
<path d="M79800 37500
L73800 37500
" />
<path d="M73800 37500
L73800 31500
" />
<path d="M55987 54000
L61987 54000
" />
<path d="M61987 54000
L61987 60000
" />
<path d="M61987 60000
L55987 60000
" />
<path d="M55987 60000
L55987 54000
" />
<path d="M46612 54000
L52612 54000
" />
<path d="M52612 54000
L52612 60000
" />
<path d="M52612 60000
L46612 60000
" />
<path d="M46612 60000
L46612 54000
" />
<path d="M115050 54000
L121050 54000
" />
<path d="M121050 54000
L121050 60000
" />
<path d="M121050 60000
L115050 60000
" />
<path d="M115050 60000
L115050 54000
" />
<path d="M81300 31500
L87300 31500
" />
<path d="M87300 31500
L87300 37500
" />
<path d="M87300 37500
L81300 37500
" />
<path d="M81300 37500
L81300 31500
" />
<path d="M37237 54000
L43237 54000
" />
<path d="M43237 54000
L43237 60000
" />
<path d="M43237 60000
L37237 60000
" />
<path d="M37237 60000
L37237 54000
" />
<path d="M38175 46500
L44175 46500
" />
<path d="M44175 46500
L44175 52500
" />
<path d="M44175 52500
L38175 52500
" />
<path d="M38175 52500
L38175 46500
" />
<path d="M36300 31500
L42300 31500
" />
<path d="M42300 31500
L42300 37500
" />
<path d="M42300 37500
L36300 37500
" />
<path d="M36300 37500
L36300 31500
" />
<path d="M43800 31500
L49800 31500
" />
<path d="M49800 31500
L49800 37500
" />
<path d="M49800 37500
L43800 37500
" />
<path d="M43800 37500
L43800 31500
" />
<path d="M51300 31500
L57300 31500
" />
<path d="M57300 31500
L57300 37500
" />
<path d="M57300 37500
L51300 37500
" />
<path d="M51300 37500
L51300 31500
" />
<path d="M58800 31500
L64800 31500
" />
<path d="M64800 31500
L64800 37500
" />
<path d="M64800 37500
L58800 37500
" />
<path d="M58800 37500
L58800 31500
" />
<path d="M66300 31500
L72300 31500
" />
<path d="M72300 31500
L72300 37500
" />
<path d="M72300 37500
L66300 37500
" />
<path d="M66300 37500
L66300 31500
" />
<path d="M75675 39000
L81675 39000
" />
<path d="M81675 39000
L81675 45000
" />
<path d="M81675 45000
L75675 45000
" />
<path d="M75675 45000
L75675 39000
" />
<path d="M111300 31500
L117300 31500
" />
<path d="M117300 31500
L117300 37500
" />
<path d="M117300 37500
L111300 37500
" />
<path d="M111300 37500
L111300 31500
" />
<path d="M45675 39000
L51675 39000
" />
<path d="M51675 39000
L51675 45000
" />
<path d="M51675 45000
L45675 45000
" />
<path d="M45675 45000
L45675 39000
" />
<path d="M37237 39000
L43237 39000
" />
<path d="M43237 39000
L43237 45000
" />
<path d="M43237 45000
L37237 45000
" />
<path d="M37237 45000
L37237 39000
" />
<path d="M120675 31500
L126675 31500
" />
<path d="M126675 31500
L126675 37500
" />
<path d="M126675 37500
L120675 37500
" />
<path d="M120675 37500
L120675 31500
" />
<path d="M113175 39000
L119175 39000
" />
<path d="M119175 39000
L119175 45000
" />
<path d="M119175 45000
L113175 45000
" />
<path d="M113175 45000
L113175 39000
" />
<path d="M107550 46500
L113550 46500
" />
<path d="M113550 46500
L113550 52500
" />
<path d="M113550 52500
L107550 52500
" />
<path d="M107550 52500
L107550 46500
" />
<path d="M53175 39000
L59175 39000
" />
<path d="M59175 39000
L59175 45000
" />
<path d="M59175 45000
L53175 45000
" />
<path d="M53175 45000
L53175 39000
" />
<path d="M85987 54000
L91987 54000
" />
<path d="M91987 54000
L91987 60000
" />
<path d="M91987 60000
L85987 60000
" />
<path d="M85987 60000
L85987 54000
" />
<path d="M121612 39000
L127612 39000
" />
<path d="M127612 39000
L127612 45000
" />
<path d="M127612 45000
L121612 45000
" />
<path d="M121612 45000
L121612 39000
" />
<path d="M122550 46500
L128550 46500
" />
<path d="M128550 46500
L128550 52500
" />
<path d="M128550 52500
L122550 52500
" />
<path d="M122550 52500
L122550 46500
" />
</g>
<g style="fill:#7F7F00; fill-opacity:0.0; 
stroke:#7F7F00; stroke-width:39.3701; stroke-opacity:1; 
stroke-linecap:round; stroke-linejoin:round;">
</g>
<g style="fill:#7F7F00; fill-opacity:1.0; 
stroke:#7F7F00; stroke-width:39.3701; stroke-opacity:1; 
stroke-linecap:round; stroke-linejoin:round;">
<circle cx="125550" cy="57000" r="763.815" /> 
<circle cx="126550" cy="55000" r="472.315" /> 
<circle cx="124050" cy="56000" r="472.315" /> 
<circle cx="123550" cy="57000" r="314.815" /> 
<circle cx="127550" cy="57000" r="314.815" /> 
<circle cx="71175" cy="42000" r="763.815" /> 
<circle cx="72175" cy="40000" r="472.315" /> 
<circle cx="69675" cy="41000" r="472.315" /> 
<circle cx="69175" cy="42000" r="314.815" /> 
<circle cx="73175" cy="42000" r="314.815" /> 
<circle cx="80550" cy="49500" r="763.815" /> 
<circle cx="81550" cy="47500" r="472.315" /> 
<circle cx="79050" cy="48500" r="472.315" /> 
<circle cx="78550" cy="49500" r="314.815" /> 
<circle cx="82550" cy="49500" r="314.815" /> 
<circle cx="91800" cy="34500" r="763.815" /> 
<circle cx="92800" cy="32500" r="472.315" /> 
<circle cx="90300" cy="33500" r="472.315" /> 
<circle cx="89800" cy="34500" r="314.815" /> 
<circle cx="93800" cy="34500" r="314.815" /> 
<circle cx="72112.5" cy="57000" r="763.815" /> 
<circle cx="73112.5" cy="55000" r="472.315" /> 
<circle cx="70612.5" cy="56000" r="472.315" /> 
<circle cx="70112.5" cy="57000" r="314.815" /> 
<circle cx="74112.5" cy="57000" r="314.815" /> 
<circle cx="99300" cy="34500" r="763.815" /> 
<circle cx="100300" cy="32500" r="472.315" /> 
<circle cx="97800" cy="33500" r="472.315" /> 
<circle cx="97300" cy="34500" r="314.815" /> 
<circle cx="101300" cy="34500" r="314.815" /> 
<circle cx="106800" cy="34500" r="763.815" /> 
<circle cx="107800" cy="32500" r="472.315" /> 
<circle cx="105300" cy="33500" r="472.315" /> 
<circle cx="104800" cy="34500" r="314.815" /> 
<circle cx="108800" cy="34500" r="314.815" /> 
<circle cx="110550" cy="57000" r="763.815" /> 
<circle cx="111550" cy="55000" r="472.315" /> 
<circle cx="109050" cy="56000" r="472.315" /> 
<circle cx="108550" cy="57000" r="314.815" /> 
<circle cx="112550" cy="57000" r="314.815" /> 
<circle cx="118050" cy="49500" r="763.815" /> 
<circle cx="119050" cy="47500" r="472.315" /> 
<circle cx="116550" cy="48500" r="472.315" /> 
<circle cx="116050" cy="49500" r="314.815" /> 
<circle cx="120050" cy="49500" r="314.815" /> 
<circle cx="50550" cy="49500" r="763.815" /> 
<circle cx="51550" cy="47500" r="472.315" /> 
<circle cx="49050" cy="48500" r="472.315" /> 
<circle cx="48550" cy="49500" r="314.815" /> 
<circle cx="52550" cy="49500" r="314.815" /> 
<circle cx="58050" cy="49500" r="763.815" /> 
<circle cx="59050" cy="47500" r="472.315" /> 
<circle cx="56550" cy="48500" r="472.315" /> 
<circle cx="56050" cy="49500" r="314.815" /> 
<circle cx="60050" cy="49500" r="314.815" /> 
<circle cx="65550" cy="49500" r="763.815" /> 
<circle cx="66550" cy="47500" r="472.315" /> 
<circle cx="64050" cy="48500" r="472.315" /> 
<circle cx="63550" cy="49500" r="314.815" /> 
<circle cx="67550" cy="49500" r="314.815" /> 
<circle cx="73050" cy="49500" r="763.815" /> 
<circle cx="74050" cy="47500" r="472.315" /> 
<circle cx="71550" cy="48500" r="472.315" /> 
<circle cx="71050" cy="49500" r="314.815" /> 
<circle cx="75050" cy="49500" r="314.815" /> 
<circle cx="63675" cy="42000" r="763.815" /> 
<circle cx="64675" cy="40000" r="472.315" /> 
<circle cx="62175" cy="41000" r="472.315" /> 
<circle cx="61675" cy="42000" r="314.815" /> 
<circle cx="65675" cy="42000" r="314.815" /> 
<circle cx="93675" cy="42000" r="763.815" /> 
<circle cx="94675" cy="40000" r="472.315" /> 
<circle cx="92175" cy="41000" r="472.315" /> 
<circle cx="91675" cy="42000" r="314.815" /> 
<circle cx="95675" cy="42000" r="314.815" /> 
<circle cx="101175" cy="42000" r="763.815" /> 
<circle cx="102175" cy="40000" r="472.315" /> 
<circle cx="99675" cy="41000" r="472.315" /> 
<circle cx="99175" cy="42000" r="314.815" /> 
<circle cx="103175" cy="42000" r="314.815" /> 
<circle cx="108675" cy="42000" r="763.815" /> 
<circle cx="109675" cy="40000" r="472.315" /> 
<circle cx="107175" cy="41000" r="472.315" /> 
<circle cx="106675" cy="42000" r="314.815" /> 
<circle cx="110675" cy="42000" r="314.815" /> 
<circle cx="88050" cy="49500" r="763.815" /> 
<circle cx="89050" cy="47500" r="472.315" /> 
<circle cx="86550" cy="48500" r="472.315" /> 
<circle cx="86050" cy="49500" r="314.815" /> 
<circle cx="90050" cy="49500" r="314.815" /> 
<circle cx="102113" cy="57000" r="763.815" /> 
<circle cx="103113" cy="55000" r="472.315" /> 
<circle cx="100613" cy="56000" r="472.315" /> 
<circle cx="100113" cy="57000" r="314.815" /> 
<circle cx="104113" cy="57000" r="314.815" /> 
<circle cx="103050" cy="49500" r="763.815" /> 
<circle cx="104050" cy="47500" r="472.315" /> 
<circle cx="101550" cy="48500" r="472.315" /> 
<circle cx="101050" cy="49500" r="314.815" /> 
<circle cx="105050" cy="49500" r="314.815" /> 
<circle cx="95550" cy="49500" r="763.815" /> 
<circle cx="96550" cy="47500" r="472.315" /> 
<circle cx="94050" cy="48500" r="472.315" /> 
<circle cx="93550" cy="49500" r="314.815" /> 
<circle cx="97550" cy="49500" r="314.815" /> 
<circle cx="86175" cy="42000" r="763.815" /> 
<circle cx="87175" cy="40000" r="472.315" /> 
<circle cx="84675" cy="41000" r="472.315" /> 
<circle cx="84175" cy="42000" r="314.815" /> 
<circle cx="88175" cy="42000" r="314.815" /> 
<circle cx="76800" cy="34500" r="763.815" /> 
<circle cx="77800" cy="32500" r="472.315" /> 
<circle cx="75300" cy="33500" r="472.315" /> 
<circle cx="74800" cy="34500" r="314.815" /> 
<circle cx="78800" cy="34500" r="314.815" /> 
<circle cx="58987.5" cy="57000" r="763.815" /> 
<circle cx="59987.5" cy="55000" r="472.315" /> 
<circle cx="57487.5" cy="56000" r="472.315" /> 
<circle cx="56987.5" cy="57000" r="314.815" /> 
<circle cx="60987.5" cy="57000" r="314.815" /> 
<circle cx="49612.5" cy="57000" r="763.815" /> 
<circle cx="50612.5" cy="55000" r="472.315" /> 
<circle cx="48112.5" cy="56000" r="472.315" /> 
<circle cx="47612.5" cy="57000" r="314.815" /> 
<circle cx="51612.5" cy="57000" r="314.815" /> 
<circle cx="118050" cy="57000" r="763.815" /> 
<circle cx="119050" cy="55000" r="472.315" /> 
<circle cx="116550" cy="56000" r="472.315" /> 
<circle cx="116050" cy="57000" r="314.815" /> 
<circle cx="120050" cy="57000" r="314.815" /> 
<circle cx="84300" cy="34500" r="763.815" /> 
<circle cx="85300" cy="32500" r="472.315" /> 
<circle cx="82800" cy="33500" r="472.315" /> 
<circle cx="82300" cy="34500" r="314.815" /> 
<circle cx="86300" cy="34500" r="314.815" /> 
<circle cx="40237.5" cy="57000" r="763.815" /> 
<circle cx="41237.5" cy="55000" r="472.315" /> 
<circle cx="38737.5" cy="56000" r="472.315" /> 
<circle cx="38237.5" cy="57000" r="314.815" /> 
<circle cx="42237.5" cy="57000" r="314.815" /> 
<circle cx="41175" cy="49500" r="763.815" /> 
<circle cx="42175" cy="47500" r="472.315" /> 
<circle cx="39675" cy="48500" r="472.315" /> 
<circle cx="39175" cy="49500" r="314.815" /> 
<circle cx="43175" cy="49500" r="314.815" /> 
<circle cx="39300" cy="34500" r="763.815" /> 
<circle cx="40300" cy="32500" r="472.315" /> 
<circle cx="37800" cy="33500" r="472.315" /> 
<circle cx="37300" cy="34500" r="314.815" /> 
<circle cx="41300" cy="34500" r="314.815" /> 
<circle cx="46800" cy="34500" r="763.815" /> 
<circle cx="47800" cy="32500" r="472.315" /> 
<circle cx="45300" cy="33500" r="472.315" /> 
<circle cx="44800" cy="34500" r="314.815" /> 
<circle cx="48800" cy="34500" r="314.815" /> 
<circle cx="54300" cy="34500" r="763.815" /> 
<circle cx="55300" cy="32500" r="472.315" /> 
<circle cx="52800" cy="33500" r="472.315" /> 
<circle cx="52300" cy="34500" r="314.815" /> 
<circle cx="56300" cy="34500" r="314.815" /> 
<circle cx="61800" cy="34500" r="763.815" /> 
<circle cx="62800" cy="32500" r="472.315" /> 
<circle cx="60300" cy="33500" r="472.315" /> 
<circle cx="59800" cy="34500" r="314.815" /> 
<circle cx="63800" cy="34500" r="314.815" /> 
<circle cx="69300" cy="34500" r="763.815" /> 
<circle cx="70300" cy="32500" r="472.315" /> 
<circle cx="67800" cy="33500" r="472.315" /> 
<circle cx="67300" cy="34500" r="314.815" /> 
<circle cx="71300" cy="34500" r="314.815" /> 
<circle cx="78675" cy="42000" r="763.815" /> 
<circle cx="79675" cy="40000" r="472.315" /> 
<circle cx="77175" cy="41000" r="472.315" /> 
<circle cx="76675" cy="42000" r="314.815" /> 
<circle cx="80675" cy="42000" r="314.815" /> 
<circle cx="114300" cy="34500" r="763.815" /> 
<circle cx="115300" cy="32500" r="472.315" /> 
<circle cx="112800" cy="33500" r="472.315" /> 
<circle cx="112300" cy="34500" r="314.815" /> 
<circle cx="116300" cy="34500" r="314.815" /> 
<circle cx="48675" cy="42000" r="763.815" /> 
<circle cx="49675" cy="40000" r="472.315" /> 
<circle cx="47175" cy="41000" r="472.315" /> 
<circle cx="46675" cy="42000" r="314.815" /> 
<circle cx="50675" cy="42000" r="314.815" /> 
<circle cx="40237.5" cy="42000" r="763.815" /> 
<circle cx="41237.5" cy="40000" r="472.315" /> 
<circle cx="38737.5" cy="41000" r="472.315" /> 
<circle cx="38237.5" cy="42000" r="314.815" /> 
<circle cx="42237.5" cy="42000" r="314.815" /> 
<circle cx="123675" cy="34500" r="763.815" /> 
<circle cx="124675" cy="32500" r="472.315" /> 
<circle cx="122175" cy="33500" r="472.315" /> 
<circle cx="121675" cy="34500" r="314.815" /> 
<circle cx="125675" cy="34500" r="314.815" /> 
<circle cx="116175" cy="42000" r="763.815" /> 
<circle cx="117175" cy="40000" r="472.315" /> 
<circle cx="114675" cy="41000" r="472.315" /> 
<circle cx="114175" cy="42000" r="314.815" /> 
<circle cx="118175" cy="42000" r="314.815" /> 
<circle cx="110550" cy="49500" r="763.815" /> 
<circle cx="111550" cy="47500" r="472.315" /> 
<circle cx="109050" cy="48500" r="472.315" /> 
<circle cx="108550" cy="49500" r="314.815" /> 
<circle cx="112550" cy="49500" r="314.815" /> 
<circle cx="56175" cy="42000" r="763.815" /> 
<circle cx="57175" cy="40000" r="472.315" /> 
<circle cx="54675" cy="41000" r="472.315" /> 
<circle cx="54175" cy="42000" r="314.815" /> 
<circle cx="58175" cy="42000" r="314.815" /> 
<circle cx="88987.5" cy="57000" r="763.815" /> 
<circle cx="89987.5" cy="55000" r="472.315" /> 
<circle cx="87487.5" cy="56000" r="472.315" /> 
<circle cx="86987.5" cy="57000" r="314.815" /> 
<circle cx="90987.5" cy="57000" r="314.815" /> 
<circle cx="124613" cy="42000" r="763.815" /> 
<circle cx="125613" cy="40000" r="472.315" /> 
<circle cx="123113" cy="41000" r="472.315" /> 
<circle cx="122613" cy="42000" r="314.815" /> 
<circle cx="126613" cy="42000" r="314.815" /> 
<circle cx="125550" cy="49500" r="763.815" /> 
<circle cx="126550" cy="47500" r="472.315" /> 
<circle cx="124050" cy="48500" r="472.315" /> 
<circle cx="123550" cy="49500" r="314.815" /> 
<circle cx="127550" cy="49500" r="314.815" /> 
</g> 
</svg>
