<?xml version="1.0" standalone="no"?>
 <!DOCTYPE svg PUBLIC "-//W3C//DTD SVG 1.1//EN" 
 "http://www.w3.org/Graphics/SVG/1.1/DTD/svg11.dtd"> 
<svg xmlns="http://www.w3.org/2000/svg" version="1.1" 
    width="41.9989cm" height="29.7002cm" viewBox="0 0 165350 116930 ">
<title>SVG Picture created as keyboard-B_Mask.svg date 2014/07/19 17:30:37 </title>
  <desc>Picture generated by PCBNEW </desc>
<g style="fill:#000000; fill-opacity:1;stroke:#000000; stroke-opacity:1;
stroke-linecap:round; stroke-linejoin:round; "
 transform="translate(0 0) scale(1 1)">
</g>
<g style="fill:#000000; fill-opacity:0.0; 
stroke:#000000; stroke-width:39.3701; stroke-opacity:1; 
stroke-linecap:round; stroke-linejoin:round;">
<path d="M4000 4000
L161350 4000
L161350 112930
L4000 112930
L4000 4000
" />
<path d="M4700 4700
L160650 4700
L160650 112230
L4700 112230
L4700 4700
" />
<path d="M26470 4000
L26470 4700
" />
<path d="M15382 4552
L15097 4552
" />
<path d="M15240 4552
L15240 4052
L15192 4123
L15144 4171
L15097 4195
" />
<path d="M26470 112930
L26470 112230
" />
<path d="M15382 112782
L15097 112782
" />
<path d="M15240 112782
L15240 112282
L15192 112353
L15144 112401
L15097 112425
" />
<path d="M48940 4000
L48940 4700
" />
<path d="M37567 4100
L37590 4076
L37638 4052
L37757 4052
L37805 4076
L37829 4100
L37852 4147
L37852 4195
L37829 4266
L37543 4552
L37852 4552
" />
<path d="M48940 112930
L48940 112230
" />
<path d="M37567 112330
L37590 112306
L37638 112282
L37757 112282
L37805 112306
L37829 112330
L37852 112377
L37852 112425
L37829 112496
L37543 112782
L37852 112782
" />
<path d="M71410 4000
L71410 4700
" />
<path d="M60013 4052
L60322 4052
L60156 4242
L60227 4242
L60275 4266
L60299 4290
L60322 4338
L60322 4457
L60299 4504
L60275 4528
L60227 4552
L60084 4552
L60037 4528
L60013 4504
" />
<path d="M71410 112930
L71410 112230
" />
<path d="M60013 112282
L60322 112282
L60156 112472
L60227 112472
L60275 112496
L60299 112520
L60322 112568
L60322 112687
L60299 112734
L60275 112758
L60227 112782
L60084 112782
L60037 112758
L60013 112734
" />
<path d="M93880 4000
L93880 4700
" />
<path d="M82745 4219
L82745 4552
" />
<path d="M82626 4028
L82507 4385
L82816 4385
" />
<path d="M93880 112930
L93880 112230
" />
<path d="M82745 112449
L82745 112782
" />
<path d="M82626 112258
L82507 112615
L82816 112615
" />
<path d="M116350 4000
L116350 4700
" />
<path d="M105239 4052
L105000 4052
L104977 4290
L105000 4266
L105048 4242
L105167 4242
L105215 4266
L105239 4290
L105262 4338
L105262 4457
L105239 4504
L105215 4528
L105167 4552
L105048 4552
L105000 4528
L104977 4504
" />
<path d="M116350 112930
L116350 112230
" />
<path d="M105239 112282
L105000 112282
L104977 112520
L105000 112496
L105048 112472
L105167 112472
L105215 112496
L105239 112520
L105262 112568
L105262 112687
L105239 112734
L105215 112758
L105167 112782
L105048 112782
L105000 112758
L104977 112734
" />
<path d="M138820 4000
L138820 4700
" />
<path d="M127685 4052
L127590 4052
L127542 4076
L127518 4100
L127470 4171
L127447 4266
L127447 4457
L127470 4504
L127494 4528
L127542 4552
L127637 4552
L127685 4528
L127709 4504
L127732 4457
L127732 4338
L127709 4290
L127685 4266
L127637 4242
L127542 4242
L127494 4266
L127470 4290
L127447 4338
" />
<path d="M138820 112930
L138820 112230
" />
<path d="M127685 112282
L127590 112282
L127542 112306
L127518 112330
L127470 112401
L127447 112496
L127447 112687
L127470 112734
L127494 112758
L127542 112782
L127637 112782
L127685 112758
L127709 112734
L127732 112687
L127732 112568
L127709 112520
L127685 112496
L127637 112472
L127542 112472
L127494 112496
L127470 112520
L127447 112568
" />
<path d="M149893 4052
L150226 4052
L150012 4552
" />
<path d="M149893 112282
L150226 112282
L150012 112782
" />
<path d="M4000 25780
L4700 25780
" />
<path d="M4230 14949
L4469 14949
" />
<path d="M4183 15092
L4350 14592
L4516 15092
" />
<path d="M161350 25780
L160650 25780
" />
<path d="M160880 14949
L161119 14949
" />
<path d="M160833 15092
L161000 14592
L161166 15092
" />
<path d="M4000 47560
L4700 47560
" />
<path d="M4385 36610
L4457 36634
L4480 36658
L4504 36705
L4504 36777
L4480 36824
L4457 36848
L4409 36872
L4219 36872
L4219 36372
L4385 36372
L4433 36396
L4457 36420
L4480 36467
L4480 36515
L4457 36562
L4433 36586
L4385 36610
L4219 36610
" />
<path d="M161350 47560
L160650 47560
" />
<path d="M161035 36610
L161107 36634
L161130 36658
L161154 36705
L161154 36777
L161130 36824
L161107 36848
L161059 36872
L160869 36872
L160869 36372
L161035 36372
L161083 36396
L161107 36420
L161130 36467
L161130 36515
L161107 36562
L161083 36586
L161035 36610
L160869 36610
" />
<path d="M4000 69340
L4700 69340
" />
<path d="M4504 58604
L4480 58628
L4409 58652
L4361 58652
L4290 58628
L4242 58580
L4219 58533
L4195 58438
L4195 58366
L4219 58271
L4242 58223
L4290 58176
L4361 58152
L4409 58152
L4480 58176
L4504 58200
" />
<path d="M161350 69340
L160650 69340
" />
<path d="M161154 58604
L161130 58628
L161059 58652
L161011 58652
L160940 58628
L160892 58580
L160869 58533
L160845 58438
L160845 58366
L160869 58271
L160892 58223
L160940 58176
L161011 58152
L161059 58152
L161130 58176
L161154 58200
" />
<path d="M4000 91120
L4700 91120
" />
<path d="M4219 80432
L4219 79932
L4338 79932
L4409 79956
L4457 80003
L4480 80051
L4504 80146
L4504 80218
L4480 80313
L4457 80360
L4409 80408
L4338 80432
L4219 80432
" />
<path d="M161350 91120
L160650 91120
" />
<path d="M160869 80432
L160869 79932
L160988 79932
L161059 79956
L161107 80003
L161130 80051
L161154 80146
L161154 80218
L161130 80313
L161107 80360
L161059 80408
L160988 80432
L160869 80432
" />
<path d="M4242 101950
L4409 101950
" />
<path d="M4480 102212
L4242 102212
L4242 101712
L4480 101712
" />
<path d="M160892 101950
L161059 101950
" />
<path d="M161130 102212
L160892 102212
L160892 101712
L161130 101712
" />
<path d="M127800 110672
L127875 110072
L128017 110072
L128100 110101
L128150 110158
L128171 110215
L128185 110330
L128175 110415
L128132 110530
L128096 110587
L128032 110644
L127942 110672
L127800 110672
" />
<path d="M128657 110672
L128696 110358
L128675 110301
L128621 110272
L128507 110272
L128446 110301
" />
<path d="M128660 110644
L128600 110672
L128457 110672
L128403 110644
L128382 110587
L128389 110530
L128425 110472
L128485 110444
L128628 110444
L128689 110415
" />
<path d="M128907 110272
L129135 110272
" />
<path d="M129017 110072
L128953 110587
L128975 110644
L129028 110672
L129085 110672
" />
<path d="M129517 110644
L129457 110672
L129342 110672
L129289 110644
L129267 110587
L129296 110358
L129332 110301
L129392 110272
L129507 110272
L129560 110301
L129582 110358
L129575 110415
L129282 110472
" />
<path d="M129807 110615
L129832 110644
L129800 110672
L129775 110644
L129807 110615
L129800 110672
" />
<path d="M129846 110301
L129871 110330
L129839 110358
L129814 110330
L129846 110301
L129839 110358
" />
<path d="M119392 111872
L119392 111272
" />
<path d="M119735 111872
L119478 111530
" />
<path d="M119735 111272
L119392 111615
" />
<path d="M119992 111872
L119992 111472
" />
<path d="M119992 111272
L119964 111301
L119992 111330
L120021 111301
L119992 111272
L119992 111330
" />
<path d="M120621 111815
L120592 111844
L120507 111872
L120450 111872
L120364 111844
L120307 111787
L120278 111730
L120250 111615
L120250 111530
L120278 111415
L120307 111358
L120364 111301
L120450 111272
L120507 111272
L120592 111301
L120621 111330
" />
<path d="M121135 111872
L121135 111558
L121107 111501
L121050 111472
L120935 111472
L120878 111501
" />
<path d="M121135 111844
L121078 111872
L120935 111872
L120878 111844
L120850 111787
L120850 111730
L120878 111672
L120935 111644
L121078 111644
L121135 111615
" />
<path d="M121678 111872
L121678 111272
" />
<path d="M121678 111844
L121621 111872
L121507 111872
L121450 111844
L121421 111815
L121392 111758
L121392 111587
L121421 111530
L121450 111501
L121507 111472
L121621 111472
L121678 111501
" />
<path d="M122421 111558
L122621 111558
" />
<path d="M122707 111872
L122421 111872
L122421 111272
L122707 111272
" />
<path d="M122964 111815
L122992 111844
L122964 111872
L122935 111844
L122964 111815
L122964 111872
" />
<path d="M123249 111872
L123249 111272
L123392 111272
L123478 111301
L123535 111358
L123564 111415
L123592 111530
L123592 111615
L123564 111730
L123535 111787
L123478 111844
L123392 111872
L123249 111872
" />
<path d="M123849 111815
L123878 111844
L123849 111872
L123821 111844
L123849 111815
L123849 111872
" />
<path d="M124107 111701
L124392 111701
" />
<path d="M124049 111872
L124249 111272
L124449 111872
" />
<path d="M124649 111815
L124678 111844
L124649 111872
L124621 111844
L124649 111815
L124649 111872
" />
<path d="M152942 110672
L152778 110387
" />
<path d="M152600 110672
L152675 110072
L152903 110072
L152957 110101
L152982 110130
L153003 110187
L152992 110272
L152957 110330
L152925 110358
L152864 110387
L152635 110387
" />
<path d="M153432 110644
L153371 110672
L153257 110672
L153203 110644
L153182 110587
L153210 110358
L153246 110301
L153307 110272
L153421 110272
L153475 110301
L153496 110358
L153489 110415
L153196 110472
" />
<path d="M153707 110272
L153800 110672
L153992 110272
" />
<path d="M154178 110615
L154203 110644
L154171 110672
L154146 110644
L154178 110615
L154171 110672
" />
<path d="M154217 110301
L154242 110330
L154210 110358
L154185 110330
L154217 110301
L154210 110358
" />
<path d="M119364 110644
L119450 110672
L119592 110672
L119650 110644
L119678 110615
L119707 110558
L119707 110501
L119678 110444
L119650 110415
L119592 110387
L119478 110358
L119421 110330
L119392 110301
L119364 110244
L119364 110187
L119392 110130
L119421 110101
L119478 110072
L119621 110072
L119707 110101
" />
<path d="M119964 110672
L119964 110272
" />
<path d="M119964 110072
L119935 110101
L119964 110130
L119992 110101
L119964 110072
L119964 110130
" />
<path d="M120192 110272
L120507 110272
L120192 110672
L120507 110672
" />
<path d="M120964 110644
L120907 110672
L120792 110672
L120735 110644
L120707 110587
L120707 110358
L120735 110301
L120792 110272
L120907 110272
L120964 110301
L120992 110358
L120992 110415
L120707 110472
" />
<path d="M121250 110615
L121278 110644
L121250 110672
L121221 110644
L121250 110615
L121250 110672
" />
<path d="M121250 110301
L121278 110330
L121250 110358
L121221 110330
L121250 110301
L121250 110358
" />
<path d="M121964 110501
L122250 110501
" />
<path d="M121907 110672
L122107 110072
L122307 110672
" />
<path d="M122450 110072
L122821 110072
L122621 110301
L122707 110301
L122764 110330
L122792 110358
L122821 110415
L122821 110558
L122792 110615
L122764 110644
L122707 110672
L122535 110672
L122478 110644
L122450 110615
" />
<path d="M152592 111872
L152592 111272
" />
<path d="M153135 111872
L153135 111272
" />
<path d="M153135 111844
L153078 111872
L152964 111872
L152907 111844
L152878 111815
L152850 111758
L152850 111587
L152878 111530
L152907 111501
L152964 111472
L153078 111472
L153135 111501
" />
<path d="M153421 111815
L153450 111844
L153421 111872
L153392 111844
L153421 111815
L153421 111872
" />
<path d="M153421 111501
L153450 111530
L153421 111558
L153392 111530
L153421 111501
L153421 111558
" />
<path d="M154478 111872
L154135 111872
" />
<path d="M154307 111872
L154307 111272
L154249 111358
L154192 111415
L154135 111444
" />
<path d="M155164 111244
L154650 112015
" />
<path d="M155678 111872
L155335 111872
" />
<path d="M155507 111872
L155507 111272
L155449 111358
L155392 111415
L155335 111444
" />
<path d="M119389 108872
L119732 108872
" />
<path d="M119485 109472
L119560 108872
" />
<path d="M119857 109472
L119907 109072
" />
<path d="M119932 108872
L119900 108901
L119925 108930
L119957 108901
L119932 108872
L119925 108930
" />
<path d="M120107 109072
L120335 109072
" />
<path d="M120217 108872
L120153 109387
L120175 109444
L120228 109472
L120285 109472
" />
<path d="M120571 109472
L120517 109444
L120496 109387
L120560 108872
" />
<path d="M121032 109444
L120971 109472
L120857 109472
L120803 109444
L120782 109387
L120810 109158
L120846 109101
L120907 109072
L121021 109072
L121075 109101
L121096 109158
L121089 109215
L120796 109272
" />
<path d="M121321 109415
L121346 109444
L121314 109472
L121289 109444
L121321 109415
L121314 109472
" />
<path d="M121360 109101
L121385 109130
L121353 109158
L121328 109130
L121360 109101
L121353 109158
" />
<path d="M119592 106758
L119392 106758
" />
<path d="M119392 107072
L119392 106472
L119678 106472
" />
<path d="M119907 107072
L119907 106672
" />
<path d="M119907 106472
L119878 106501
L119907 106530
L119935 106501
L119907 106472
L119907 106530
" />
<path d="M120278 107072
L120221 107044
L120192 106987
L120192 106472
" />
<path d="M120735 107044
L120678 107072
L120564 107072
L120507 107044
L120478 106987
L120478 106758
L120507 106701
L120564 106672
L120678 106672
L120735 106701
L120764 106758
L120764 106815
L120478 106872
" />
<path d="M121021 107015
L121050 107044
L121021 107072
L120992 107044
L121021 107015
L121021 107072
" />
<path d="M121021 106701
L121050 106730
L121021 106758
L120992 106730
L121021 106701
L121021 106758
" />
<path d="M121764 107072
L121764 106472
" />
<path d="M121821 106844
L121992 107072
" />
<path d="M121992 106672
L121764 106901
" />
<path d="M122478 107044
L122421 107072
L122307 107072
L122250 107044
L122221 106987
L122221 106758
L122250 106701
L122307 106672
L122421 106672
L122478 106701
L122507 106758
L122507 106815
L122221 106872
" />
<path d="M122707 106672
L122850 107072
" />
<path d="M122992 106672
L122850 107072
L122792 107215
L122764 107244
L122707 107272
" />
<path d="M123221 107072
L123221 106472
" />
<path d="M123221 106701
L123278 106672
L123392 106672
L123450 106701
L123478 106730
L123507 106787
L123507 106958
L123478 107015
L123450 107044
L123392 107072
L123278 107072
L123221 107044
" />
<path d="M123850 107072
L123792 107044
L123764 107015
L123735 106958
L123735 106787
L123764 106730
L123792 106701
L123850 106672
L123935 106672
L123992 106701
L124021 106730
L124050 106787
L124050 106958
L124021 107015
L123992 107044
L123935 107072
L123850 107072
" />
<path d="M124564 107072
L124564 106758
L124535 106701
L124478 106672
L124364 106672
L124307 106701
" />
<path d="M124564 107044
L124507 107072
L124364 107072
L124307 107044
L124278 106987
L124278 106930
L124307 106872
L124364 106844
L124507 106844
L124564 106815
" />
<path d="M124850 107072
L124850 106672
" />
<path d="M124850 106787
L124878 106730
L124907 106701
L124964 106672
L125021 106672
" />
<path d="M125478 107072
L125478 106472
" />
<path d="M125478 107044
L125421 107072
L125307 107072
L125250 107044
L125221 107015
L125192 106958
L125192 106787
L125221 106730
L125250 106701
L125307 106672
L125421 106672
L125478 106701
" />
<path d="M125764 107015
L125792 107044
L125764 107072
L125735 107044
L125764 107015
L125764 107072
" />
<path d="M126050 107072
L126050 106472
" />
<path d="M126107 106844
L126278 107072
" />
<path d="M126278 106672
L126050 106901
" />
<path d="M126535 107072
L126535 106672
" />
<path d="M126535 106472
L126507 106501
L126535 106530
L126564 106501
L126535 106472
L126535 106530
" />
<path d="M127078 107044
L127021 107072
L126907 107072
L126850 107044
L126821 107015
L126792 106958
L126792 106787
L126821 106730
L126850 106701
L126907 106672
L127021 106672
L127078 106701
" />
<path d="M127592 107072
L127592 106758
L127564 106701
L127507 106672
L127392 106672
L127335 106701
" />
<path d="M127592 107044
L127535 107072
L127392 107072
L127335 107044
L127307 106987
L127307 106930
L127335 106872
L127392 106844
L127535 106844
L127592 106815
" />
<path d="M128135 107072
L128135 106472
" />
<path d="M128135 107044
L128078 107072
L127964 107072
L127907 107044
L127878 107015
L127850 106958
L127850 106787
L127878 106730
L127907 106701
L127964 106672
L128078 106672
L128135 106701
" />
<path d="M128278 107130
L128735 107130
" />
<path d="M128878 106672
L128878 107272
" />
<path d="M128878 106701
L128935 106672
L129050 106672
L129107 106701
L129135 106730
L129164 106787
L129164 106958
L129135 107015
L129107 107044
L129050 107072
L128935 107072
L128878 107044
" />
<path d="M129678 107044
L129621 107072
L129507 107072
L129450 107044
L129421 107015
L129392 106958
L129392 106787
L129421 106730
L129450 106701
L129507 106672
L129621 106672
L129678 106701
" />
<path d="M129935 107072
L129935 106472
" />
<path d="M129935 106701
L129992 106672
L130107 106672
L130164 106701
L130192 106730
L130221 106787
L130221 106958
L130192 107015
L130164 107044
L130107 107072
L129992 107072
L129935 107044
" />
<path d="M119364 108244
L119450 108272
L119592 108272
L119650 108244
L119678 108215
L119707 108158
L119707 108101
L119678 108044
L119650 108015
L119592 107987
L119478 107958
L119421 107930
L119392 107901
L119364 107844
L119364 107787
L119392 107730
L119421 107701
L119478 107672
L119621 107672
L119707 107701
" />
<path d="M119964 108272
L119964 107672
" />
<path d="M120221 108272
L120221 107958
L120192 107901
L120135 107872
L120050 107872
L119992 107901
L119964 107930
" />
<path d="M120735 108244
L120678 108272
L120564 108272
L120507 108244
L120478 108187
L120478 107958
L120507 107901
L120564 107872
L120678 107872
L120735 107901
L120764 107958
L120764 108015
L120478 108072
" />
<path d="M121250 108244
L121192 108272
L121078 108272
L121021 108244
L120992 108187
L120992 107958
L121021 107901
L121078 107872
L121192 107872
L121250 107901
L121278 107958
L121278 108015
L120992 108072
" />
<path d="M121450 107872
L121678 107872
" />
<path d="M121535 107672
L121535 108187
L121564 108244
L121621 108272
L121678 108272
" />
<path d="M121878 108215
L121907 108244
L121878 108272
L121850 108244
L121878 108215
L121878 108272
" />
<path d="M121878 107901
L121907 107930
L121878 107958
L121850 107930
L121878 107901
L121878 107958
" />
<path d="M118650 106230
L118650 112230
" />
<path d="M118650 106230
L160650 106230
" />
<path d="M118650 106230
L160650 106230
" />
<path d="M118650 108630
L160650 108630
" />
<path d="M151850 109830
L151850 112230
" />
<path d="M118650 111030
L160650 111030
" />
<path d="M118650 109830
L160650 109830
" />
<path d="M125250 109830
L125250 111030
" />
</g>
<g style="fill:#FFFF00; fill-opacity:0.0; 
stroke:#FFFF00; stroke-width:39.0157; stroke-opacity:1; 
stroke-linecap:round; stroke-linejoin:round;">
<path d="M123700 60000
L123700 60100
" />
<path d="M28500 60000
L28500 60100
" />
<path d="M123000 60600
L123200 60600
" />
<path d="M123000 31000
L123200 31000
" />
<path d="M123000 60600
L29000 60600
" />
<path d="M123700 31500
L123700 60000
" />
<path d="M29000 31000
L123000 31000
" />
<path d="M28500 60000
L28500 31500
" />
<path d="M123700 31500 A500 500 0.0 0 0 123200 31000 " />
<path d="M123200 60600 A500 500 0.0 0 0 123700 60100 " />
<path d="M28500 60100 A500 500 0.0 0 0 29000 60600 " />
<path d="M29000 31000 A500 500 0.0 0 0 28500 31500 " />
</g>
<g style="fill:#7F7F00; fill-opacity:1.0; 
stroke:#7F7F00; stroke-width:1; stroke-opacity:1; 
stroke-linecap:round; stroke-linejoin:round;">
<polyline style="fill-rule:evenodd;"
points="114905,41294
114905,41348
114905,41392
114904,41427
114904,41455
114903,41476
114902,41491
114901,41502
114899,41508
114897,41510
114890,41513
114873,41517
114848,41523
114816,41529
114778,41537
114735,41545
114690,41554
114640,41563
114595,41572
114556,41580
114524,41587
114500,41592
114486,41596
114482,41598
114478,41605
114470,41620
114460,41643
114448,41670
114435,41700
114422,41733
114409,41765
114397,41795
114387,41822
114379,41844
114374,41859
114373,41865
114376,41870
114385,41884
114399,41905
114417,41931
114438,41962
114461,41996
114476,42017
114577,42165
114577,42231
114577,42297
114423,42451
114269,42605
114204,42605
114140,42605
113994,42505
113849,42405
113802,42430
113756,42456
113688,42454
113620,42452
113471,42094
113322,41736
113322,41679
113322,41654
113323,41633
113324,41619
113325,41614
113331,41607
113344,41596
113362,41582
113379,41570
113425,41536
113463,41504
113494,41472
113520,41438
113543,41399
113558,41370
113581,41318
113594,41271
113597,41228
113595,41201
113577,41136
113549,41075
113513,41018
113467,40966
113414,40921
113355,40884
113347,40880
113305,40861
113264,40848
113225,40840
113202,40838
113160,40843
113113,40856
113064,40877
113016,40905
112971,40938
112930,40975
112904,41003
112880,41038
112856,41080
112836,41125
112820,41168
112816,41182
112811,41211
112809,41238
112811,41264
112819,41294
112831,41331
112834,41339
112863,41400
112901,41456
112949,41508
113006,41555
113045,41582
113061,41593
113074,41602
113080,41607
113081,41615
113083,41632
113083,41654
113084,41675
113084,41736
112939,42084
112915,42144
112892,42200
112870,42253
112850,42301
112832,42343
112817,42379
112805,42409
112796,42430
112790,42442
112789,42444
112786,42449
112780,42452
112770,42454
112754,42455
112730,42455
112718,42455
112652,42455
112605,42430
112558,42405
112467,42468
112434,42490
112400,42514
112367,42536
112339,42555
112321,42568
112266,42605
112201,42605
112137,42605
111982,42451
111828,42297
111828,42232
111828,42204
111829,42185
111831,42171
111834,42161
111840,42151
111847,42141
111855,42129
111868,42109
111886,42083
111906,42053
111929,42020
111949,41990
111972,41957
111992,41927
112009,41901
112022,41880
112031,41866
112034,41860
112032,41853
112026,41837
112018,41814
112006,41785
111993,41752
111983,41726
111966,41683
111952,41650
111941,41625
111932,41608
111926,41598
111921,41594
111912,41592
111895,41588
111869,41583
111836,41576
111797,41569
111754,41560
111712,41553
111667,41544
111624,41536
111587,41528
111555,41522
111530,41516
111514,41512
111508,41510
111506,41507
111505,41500
111504,41488
111503,41471
111502,41448
111501,41417
111501,41379
111501,41332
111500,41274
111500,41230
111500,40956
111513,40949
111521,40946
111539,40941
111565,40936
111598,40929
111637,40921
111681,40913
111727,40904
111728,40904
111774,40895
111817,40887
111856,40879
111888,40872
111913,40867
111930,40862
111938,40860
111938,40860
111942,40853
111949,40838
111959,40816
111972,40789
111985,40759
111998,40728
112012,40698
112024,40670
112034,40645
112041,40627
112045,40616
112045,40615
112042,40609
112033,40595
112020,40574
112002,40547
111981,40516
111957,40481
111937,40451
111828,40293
111828,40229
111828,40165
111982,40010
112136,39856
112202,39856
112268,39856
112408,39952
112444,39976
112478,40000
112509,40021
112535,40039
112555,40053
112568,40062
112570,40063
112593,40079
112698,40036
112739,40020
112770,40007
112794,39997
112811,39989
112822,39983
112829,39978
112834,39974
112836,39969
112836,39968
112838,39960
112842,39942
112847,39917
112853,39884
112861,39845
112869,39802
112877,39755
112878,39750
112887,39704
112896,39660
112903,39621
112910,39588
112916,39562
112920,39544
112923,39536
112923,39536
112926,39534
112933,39533
112943,39531
112959,39530
112981,39530
113010,39529
113046,39529
113091,39528
113146,39528
113202,39528
113256,39528
113307,39529
113353,39529
113394,39530
113429,39530
113455,39531
113473,39532
113482,39533
113482,39533
113485,39540
113489,39556
113495,39583
113503,39617
113511,39660
113521,39710
113528,39748
113537,39795
113545,39840
113553,39880
113559,39914
113565,39941
113569,39960
113571,39970
113571,39970
113576,39976
113588,39983
113606,39992
113633,40004
113668,40020
113694,40030
113732,40046
113761,40057
113782,40066
113798,40071
113808,40073
113816,40074
113821,40072
113826,40070
113827,40069
113835,40064
113851,40053
113873,40037
113902,40018
113934,39996
113970,39972
113990,39958
114138,39856
114204,39856
114269,39856
114423,40010
114577,40164
114577,40230
114577,40296
114468,40454
114359,40612
114411,40735
114427,40770
114441,40802
114454,40828
114464,40848
114471,40860
114473,40862
114481,40864
114498,40868
114523,40874
114556,40880
114595,40888
114638,40896
114684,40905
114689,40906
114743,40916
114790,40925
114829,40933
114861,40940
114884,40946
114897,40950
114900,40952
114901,40958
114902,40975
114903,41001
114904,41035
114904,41075
114905,41120
114905,41170
114905,41224
114905,41231
114905,41294
114905,41294
" /> 
</g>
<g style="fill:#009F00; fill-opacity:1.0; 
stroke:#009F00; stroke-width:240; stroke-opacity:1; 
stroke-linecap:round; stroke-linejoin:round;">
<path d="M74544 57000
L73956 57000
" />
<path d="M74544 56685
L73956 56685
" />
<path d="M74544 56370
L73956 56370
" />
<path d="M74544 56055
L73956 56055
" />
<path d="M74544 55740
L73956 55740
" />
<path d="M74544 55425
L73956 55425
" />
<path d="M74544 57315
L73956 57315
" />
<path d="M74544 57630
L73956 57630
" />
<path d="M74544 57945
L73956 57945
" />
<path d="M74544 58260
L73956 58260
" />
<path d="M74544 58575
L73956 58575
" />
<path d="M79044 57000
L78456 57000
" />
<path d="M79044 56685
L78456 56685
" />
<path d="M79044 56370
L78456 56370
" />
<path d="M79044 56055
L78456 56055
" />
<path d="M79044 55740
L78456 55740
" />
<path d="M79044 55425
L78456 55425
" />
<path d="M79044 57315
L78456 57315
" />
<path d="M79044 57630
L78456 57630
" />
<path d="M79044 57945
L78456 57945
" />
<path d="M79044 58260
L78456 58260
" />
<path d="M79044 58575
L78456 58575
" />
<path d="M76500 54456
L76500 55044
" />
<path d="M76500 58956
L76500 59544
" />
<path d="M76815 54456
L76815 55044
" />
<path d="M76815 58956
L76815 59544
" />
<path d="M77130 58956
L77130 59544
" />
<path d="M77130 54456
L77130 55044
" />
<path d="M77445 54456
L77445 55044
" />
<path d="M77445 58956
L77445 59544
" />
<path d="M77760 58956
L77760 59544
" />
<path d="M77760 54456
L77760 55044
" />
<path d="M78075 54456
L78075 55044
" />
<path d="M78075 58956
L78075 59544
" />
<path d="M76185 58956
L76185 59544
" />
<path d="M76185 54456
L76185 55044
" />
<path d="M75870 54456
L75870 55044
" />
<path d="M75870 58956
L75870 59544
" />
<path d="M75555 58956
L75555 59544
" />
<path d="M75555 54456
L75555 55044
" />
<path d="M75240 54456
L75240 55044
" />
<path d="M75240 58956
L75240 59544
" />
<path d="M74925 58956
L74925 59544
" />
<path d="M74925 54456
L74925 55044
" />
</g>
<g style="fill:#009F00; fill-opacity:1.0; 
stroke:#009F00; stroke-width:39.3701; stroke-opacity:1; 
stroke-linecap:round; stroke-linejoin:round;">
<polyline style="fill-rule:evenodd;"
points="80429,51795
80429,51204
80820,51204
80820,51795
80429,51795
" /> 
<polyline style="fill-rule:evenodd;"
points="81179,51795
81179,51204
81570,51204
81570,51795
81179,51795
" /> 
<polyline style="fill-rule:evenodd;"
points="57929,51795
57929,51204
58320,51204
58320,51795
57929,51795
" /> 
<polyline style="fill-rule:evenodd;"
points="58679,51795
58679,51204
59070,51204
59070,51795
58679,51795
" /> 
<polyline style="fill-rule:evenodd;"
points="65429,59295
65429,58704
65820,58704
65820,59295
65429,59295
" /> 
<polyline style="fill-rule:evenodd;"
points="66179,59295
66179,58704
66570,58704
66570,59295
66179,59295
" /> 
<polyline style="fill-rule:evenodd;"
points="59429,36795
59429,36204
59820,36204
59820,36795
59429,36795
" /> 
<polyline style="fill-rule:evenodd;"
points="60179,36795
60179,36204
60570,36204
60570,36795
60179,36795
" /> 
<polyline style="fill-rule:evenodd;"
points="74429,36795
74429,36204
74820,36204
74820,36795
74429,36795
" /> 
<polyline style="fill-rule:evenodd;"
points="75179,36795
75179,36204
75570,36204
75570,36795
75179,36795
" /> 
<polyline style="fill-rule:evenodd;"
points="33429,36795
33429,36204
33820,36204
33820,36795
33429,36795
" /> 
<polyline style="fill-rule:evenodd;"
points="34179,36795
34179,36204
34570,36204
34570,36795
34179,36795
" /> 
<polyline style="fill-rule:evenodd;"
points="65429,51795
65429,51204
65820,51204
65820,51795
65429,51795
" /> 
<polyline style="fill-rule:evenodd;"
points="66179,51795
66179,51204
66570,51204
66570,51795
66179,51795
" /> 
<polyline style="fill-rule:evenodd;"
points="51929,36795
51929,36204
52320,36204
52320,36795
51929,36795
" /> 
<polyline style="fill-rule:evenodd;"
points="52679,36795
52679,36204
53070,36204
53070,36795
52679,36795
" /> 
<polyline style="fill-rule:evenodd;"
points="76429,44295
76429,43704
76820,43704
76820,44295
76429,44295
" /> 
<polyline style="fill-rule:evenodd;"
points="77179,44295
77179,43704
77570,43704
77570,44295
77179,44295
" /> 
<polyline style="fill-rule:evenodd;"
points="81929,36795
81929,36204
82320,36204
82320,36795
81929,36795
" /> 
<polyline style="fill-rule:evenodd;"
points="82679,36795
82679,36204
83070,36204
83070,36795
82679,36795
" /> 
<polyline style="fill-rule:evenodd;"
points="89429,36795
89429,36204
89820,36204
89820,36795
89429,36795
" /> 
<polyline style="fill-rule:evenodd;"
points="90179,36795
90179,36204
90570,36204
90570,36795
90179,36795
" /> 
<polyline style="fill-rule:evenodd;"
points="83929,44295
83929,43704
84320,43704
84320,44295
83929,44295
" /> 
<polyline style="fill-rule:evenodd;"
points="84679,44295
84679,43704
85070,43704
85070,44295
84679,44295
" /> 
<polyline style="fill-rule:evenodd;"
points="87929,51795
87929,51204
88320,51204
88320,51795
87929,51795
" /> 
<polyline style="fill-rule:evenodd;"
points="88679,51795
88679,51204
89070,51204
89070,51795
88679,51795
" /> 
<polyline style="fill-rule:evenodd;"
points="61429,44295
61429,43704
61820,43704
61820,44295
61429,44295
" /> 
<polyline style="fill-rule:evenodd;"
points="62179,44295
62179,43704
62570,43704
62570,44295
62179,44295
" /> 
<polyline style="fill-rule:evenodd;"
points="95429,51795
95429,51204
95820,51204
95820,51795
95429,51795
" /> 
<polyline style="fill-rule:evenodd;"
points="96179,51795
96179,51204
96570,51204
96570,51795
96179,51795
" /> 
<polyline style="fill-rule:evenodd;"
points="53929,44295
53929,43704
54320,43704
54320,44295
53929,44295
" /> 
<polyline style="fill-rule:evenodd;"
points="54679,44295
54679,43704
55070,43704
55070,44295
54679,44295
" /> 
<polyline style="fill-rule:evenodd;"
points="91429,44295
91429,43704
91820,43704
91820,44295
91429,44295
" /> 
<polyline style="fill-rule:evenodd;"
points="92179,44295
92179,43704
92570,43704
92570,44295
92179,44295
" /> 
<polyline style="fill-rule:evenodd;"
points="96429,59295
96429,58704
96820,58704
96820,59295
96429,59295
" /> 
<polyline style="fill-rule:evenodd;"
points="97179,59295
97179,58704
97570,58704
97570,59295
97179,59295
" /> 
<polyline style="fill-rule:evenodd;"
points="72929,51795
72929,51204
73320,51204
73320,51795
72929,51795
" /> 
<polyline style="fill-rule:evenodd;"
points="73679,51795
73679,51204
74070,51204
74070,51795
73679,51795
" /> 
<polyline style="fill-rule:evenodd;"
points="68929,44295
68929,43704
69320,43704
69320,44295
68929,44295
" /> 
<polyline style="fill-rule:evenodd;"
points="69679,44295
69679,43704
70070,43704
70070,44295
69679,44295
" /> 
<polyline style="fill-rule:evenodd;"
points="66929,36795
66929,36204
67320,36204
67320,36795
66929,36795
" /> 
<polyline style="fill-rule:evenodd;"
points="67679,36795
67679,36204
68070,36204
68070,36795
67679,36795
" /> 
<polyline style="fill-rule:evenodd;"
points="51929,59295
51929,58704
52320,58704
52320,59295
51929,59295
" /> 
<polyline style="fill-rule:evenodd;"
points="52679,59295
52679,58704
53070,58704
53070,59295
52679,59295
" /> 
<polyline style="fill-rule:evenodd;"
points="43929,59295
43929,58704
44320,58704
44320,59295
43929,59295
" /> 
<polyline style="fill-rule:evenodd;"
points="44679,59295
44679,58704
45070,58704
45070,59295
44679,59295
" /> 
<polyline style="fill-rule:evenodd;"
points="50429,51795
50429,51204
50820,51204
50820,51795
50429,51795
" /> 
<polyline style="fill-rule:evenodd;"
points="51179,51795
51179,51204
51570,51204
51570,51795
51179,51795
" /> 
<polyline style="fill-rule:evenodd;"
points="46429,44295
46429,43704
46820,43704
46820,44295
46429,44295
" /> 
<polyline style="fill-rule:evenodd;"
points="47179,44295
47179,43704
47570,43704
47570,44295
47179,44295
" /> 
<polyline style="fill-rule:evenodd;"
points="36929,36795
36929,36204
37320,36204
37320,36795
36929,36795
" /> 
<polyline style="fill-rule:evenodd;"
points="37679,36795
37679,36204
38070,36204
38070,36795
37679,36795
" /> 
<polyline style="fill-rule:evenodd;"
points="44429,36795
44429,36204
44820,36204
44820,36795
44429,36795
" /> 
<polyline style="fill-rule:evenodd;"
points="45179,36795
45179,36204
45570,36204
45570,36795
45179,36795
" /> 
<polyline style="fill-rule:evenodd;"
points="30429,44295
30429,43704
30820,43704
30820,44295
30429,44295
" /> 
<polyline style="fill-rule:evenodd;"
points="31179,44295
31179,43704
31570,43704
31570,44295
31179,44295
" /> 
<polyline style="fill-rule:evenodd;"
points="38929,44295
38929,43704
39320,43704
39320,44295
38929,44295
" /> 
<polyline style="fill-rule:evenodd;"
points="39679,44295
39679,43704
40070,43704
40070,44295
39679,44295
" /> 
<polyline style="fill-rule:evenodd;"
points="42929,51795
42929,51204
43320,51204
43320,51795
42929,51795
" /> 
<polyline style="fill-rule:evenodd;"
points="43679,51795
43679,51204
44070,51204
44070,51795
43679,51795
" /> 
<polyline style="fill-rule:evenodd;"
points="97429,36795
97429,36204
97820,36204
97820,36795
97429,36795
" /> 
<polyline style="fill-rule:evenodd;"
points="98179,36795
98179,36204
98570,36204
98570,36795
98179,36795
" /> 
<polyline style="fill-rule:evenodd;"
points="98929,44295
98929,43704
99320,43704
99320,44295
98929,44295
" /> 
<polyline style="fill-rule:evenodd;"
points="99679,44295
99679,43704
100070,43704
100070,44295
99679,44295
" /> 
<polyline style="fill-rule:evenodd;"
points="104429,36795
104429,36204
104820,36204
104820,36795
104429,36795
" /> 
<polyline style="fill-rule:evenodd;"
points="105179,36795
105179,36204
105570,36204
105570,36795
105179,36795
" /> 
<polyline style="fill-rule:evenodd;"
points="106429,44295
106429,43704
106820,43704
106820,44295
106429,44295
" /> 
<polyline style="fill-rule:evenodd;"
points="107179,44295
107179,43704
107570,43704
107570,44295
107179,44295
" /> 
<polyline style="fill-rule:evenodd;"
points="102929,51795
102929,51204
103320,51204
103320,51795
102929,51795
" /> 
<polyline style="fill-rule:evenodd;"
points="103679,51795
103679,51204
104070,51204
104070,51795
103679,51795
" /> 
<polyline style="fill-rule:evenodd;"
points="117929,51795
117929,51204
118320,51204
118320,51795
117929,51795
" /> 
<polyline style="fill-rule:evenodd;"
points="118679,51795
118679,51204
119070,51204
119070,51795
118679,51795
" /> 
<polyline style="fill-rule:evenodd;"
points="110429,51795
110429,51204
110820,51204
110820,51795
110429,51795
" /> 
<polyline style="fill-rule:evenodd;"
points="111179,51795
111179,51204
111570,51204
111570,51795
111179,51795
" /> 
<polyline style="fill-rule:evenodd;"
points="115929,44295
115929,43704
116320,43704
116320,44295
115929,44295
" /> 
<polyline style="fill-rule:evenodd;"
points="116679,44295
116679,43704
117070,43704
117070,44295
116679,44295
" /> 
<polyline style="fill-rule:evenodd;"
points="114929,36795
114929,36204
115320,36204
115320,36795
114929,36795
" /> 
<polyline style="fill-rule:evenodd;"
points="115679,36795
115679,36204
116070,36204
116070,36795
115679,36795
" /> 
<polyline style="fill-rule:evenodd;"
points="82929,59295
82929,58704
83320,58704
83320,59295
82929,59295
" /> 
<polyline style="fill-rule:evenodd;"
points="83679,59295
83679,58704
84070,58704
84070,59295
83679,59295
" /> 
<polyline style="fill-rule:evenodd;"
points="104929,59295
104929,58704
105320,58704
105320,59295
104929,59295
" /> 
<polyline style="fill-rule:evenodd;"
points="105679,59295
105679,58704
106070,58704
106070,59295
105679,59295
" /> 
<polyline style="fill-rule:evenodd;"
points="112929,59295
112929,58704
113320,58704
113320,59295
112929,59295
" /> 
<polyline style="fill-rule:evenodd;"
points="113679,59295
113679,58704
114070,58704
114070,59295
113679,59295
" /> 
<polyline style="fill-rule:evenodd;"
points="35429,59295
35429,58704
35820,58704
35820,59295
35429,59295
" /> 
<polyline style="fill-rule:evenodd;"
points="36179,59295
36179,58704
36570,58704
36570,59295
36179,59295
" /> 
<polyline style="fill-rule:evenodd;"
points="32429,51795
32429,51204
32820,51204
32820,51795
32429,51795
" /> 
<polyline style="fill-rule:evenodd;"
points="33179,51795
33179,51204
33570,51204
33570,51795
33179,51795
" /> 
<polyline style="fill-rule:evenodd;"
points="72070,57704
72070,58295
71679,58295
71679,57704
72070,57704
" /> 
<polyline style="fill-rule:evenodd;"
points="71320,57704
71320,58295
70929,58295
70929,57704
71320,57704
" /> 
<polyline style="fill-rule:evenodd;"
points="72070,56204
72070,56795
71679,56795
71679,56204
72070,56204
" /> 
<polyline style="fill-rule:evenodd;"
points="71320,56204
71320,56795
70929,56795
70929,56204
71320,56204
" /> 
<polyline style="fill-rule:evenodd;"
points="77370,52704
77370,53295
76979,53295
76979,52704
77370,52704
" /> 
<polyline style="fill-rule:evenodd;"
points="76620,52704
76620,53295
76229,53295
76229,52704
76620,52704
" /> 
<polyline style="fill-rule:evenodd;"
points="72070,59204
72070,59795
71679,59795
71679,59204
72070,59204
" /> 
<polyline style="fill-rule:evenodd;"
points="71320,59204
71320,59795
70929,59795
70929,59204
71320,59204
" /> 
<polyline style="fill-rule:evenodd;"
points="82295,39570
81704,39570
81704,39179
82295,39179
82295,39570
" /> 
<polyline style="fill-rule:evenodd;"
points="82295,38820
81704,38820
81704,38429
82295,38429
82295,38820
" /> 
<polyline style="fill-rule:evenodd;"
points="83695,38970
83104,38970
83104,38579
83695,38579
83695,38970
" /> 
<polyline style="fill-rule:evenodd;"
points="83695,38220
83104,38220
83104,37829
83695,37829
83695,38220
" /> 
<polyline style="fill-rule:evenodd;"
points="72070,54704
72070,55295
71679,55295
71679,54704
72070,54704
" /> 
<polyline style="fill-rule:evenodd;"
points="71320,54704
71320,55295
70929,55295
70929,54704
71320,54704
" /> 
<polyline style="fill-rule:evenodd;"
points="80629,59695
80629,59104
81020,59104
81020,59695
80629,59695
" /> 
<polyline style="fill-rule:evenodd;"
points="81379,59695
81379,59104
81770,59104
81770,59695
81379,59695
" /> 
<polyline style="fill-rule:evenodd;"
points="81770,54104
81770,54695
81379,54695
81379,54104
81770,54104
" /> 
<polyline style="fill-rule:evenodd;"
points="81020,54104
81020,54695
80629,54695
80629,54104
81020,54104
" /> 
<polyline style="fill-rule:evenodd;"
points="72070,53204
72070,53795
71679,53795
71679,53204
72070,53204
" /> 
<polyline style="fill-rule:evenodd;"
points="71320,53204
71320,53795
70929,53795
70929,53204
71320,53204
" /> 
</g>
<g style="fill:#7F7F00; fill-opacity:1.0; 
stroke:#7F7F00; stroke-width:39.3701; stroke-opacity:1; 
stroke-linecap:round; stroke-linejoin:round;">
<circle cx="63600" cy="58100" r="335.276" /> 
<circle cx="63600" cy="55100" r="335.276" /> 
<circle cx="89400" cy="58100" r="335.276" /> 
<circle cx="89400" cy="55100" r="335.276" /> 
<circle cx="37632.1" cy="57000" r="803.815" /> 
<circle cx="38632.1" cy="55000" r="512.315" /> 
<circle cx="36132.1" cy="56000" r="512.315" /> 
<circle cx="35632.1" cy="57000" r="354.815" /> 
<circle cx="39632.1" cy="57000" r="354.815" /> 
<circle cx="67625.2" cy="57000" r="803.815" /> 
<circle cx="68625.2" cy="55000" r="512.315" /> 
<circle cx="66125.2" cy="56000" r="512.315" /> 
<circle cx="65625.2" cy="57000" r="354.815" /> 
<circle cx="69625.2" cy="57000" r="354.815" /> 
<circle cx="98541.8" cy="57000" r="803.815" /> 
<circle cx="99541.8" cy="55000" r="512.315" /> 
<circle cx="97041.8" cy="56000" r="512.315" /> 
<circle cx="96541.8" cy="57000" r="354.815" /> 
<circle cx="100542" cy="57000" r="354.815" /> 
<circle cx="34812.5" cy="49500" r="803.815" /> 
<circle cx="35812.5" cy="47500" r="512.315" /> 
<circle cx="33312.5" cy="48500" r="512.315" /> 
<circle cx="32812.5" cy="49500" r="354.815" /> 
<circle cx="36812.5" cy="49500" r="354.815" /> 
<circle cx="117313" cy="34500" r="803.815" /> 
<circle cx="118313" cy="32500" r="512.315" /> 
<circle cx="115813" cy="33500" r="512.315" /> 
<circle cx="115313" cy="34500" r="354.815" /> 
<circle cx="119313" cy="34500" r="354.815" /> 
<circle cx="101370" cy="42000" r="803.815" /> 
<circle cx="102370" cy="40000" r="512.315" /> 
<circle cx="99870.1" cy="41000" r="512.315" /> 
<circle cx="99370.1" cy="42000" r="354.815" /> 
<circle cx="103370" cy="42000" r="354.815" /> 
<circle cx="93870.1" cy="42000" r="803.815" /> 
<circle cx="94870.1" cy="40000" r="512.315" /> 
<circle cx="92370.1" cy="41000" r="512.315" /> 
<circle cx="91870.1" cy="42000" r="354.815" /> 
<circle cx="95870.1" cy="42000" r="354.815" /> 
<circle cx="86370.1" cy="42000" r="803.815" /> 
<circle cx="87370.1" cy="40000" r="512.315" /> 
<circle cx="84870.1" cy="41000" r="512.315" /> 
<circle cx="84370.1" cy="42000" r="354.815" /> 
<circle cx="88370.1" cy="42000" r="354.815" /> 
<circle cx="78870.1" cy="42000" r="803.815" /> 
<circle cx="79870.1" cy="40000" r="512.315" /> 
<circle cx="77370.1" cy="41000" r="512.315" /> 
<circle cx="76870.1" cy="42000" r="354.815" /> 
<circle cx="80870.1" cy="42000" r="354.815" /> 
<circle cx="71370.1" cy="42000" r="803.815" /> 
<circle cx="72370.1" cy="40000" r="512.315" /> 
<circle cx="69870.1" cy="41000" r="512.315" /> 
<circle cx="69370.1" cy="42000" r="354.815" /> 
<circle cx="73370.1" cy="42000" r="354.815" /> 
<circle cx="63870.1" cy="42000" r="803.815" /> 
<circle cx="64870.1" cy="40000" r="512.315" /> 
<circle cx="62370.1" cy="41000" r="512.315" /> 
<circle cx="61870.1" cy="42000" r="354.815" /> 
<circle cx="65870.1" cy="42000" r="354.815" /> 
<circle cx="56370.1" cy="42000" r="803.815" /> 
<circle cx="57370.1" cy="40000" r="512.315" /> 
<circle cx="54870.1" cy="41000" r="512.315" /> 
<circle cx="54370.1" cy="42000" r="354.815" /> 
<circle cx="58370.1" cy="42000" r="354.815" /> 
<circle cx="48870.1" cy="42000" r="803.815" /> 
<circle cx="49870.1" cy="40000" r="512.315" /> 
<circle cx="47370.1" cy="41000" r="512.315" /> 
<circle cx="46870.1" cy="42000" r="354.815" /> 
<circle cx="50870.1" cy="42000" r="354.815" /> 
<circle cx="41370.1" cy="42000" r="803.815" /> 
<circle cx="42370.1" cy="40000" r="512.315" /> 
<circle cx="39870.1" cy="41000" r="512.315" /> 
<circle cx="39370.1" cy="42000" r="354.815" /> 
<circle cx="43370.1" cy="42000" r="354.815" /> 
<circle cx="32935" cy="42000" r="803.815" /> 
<circle cx="33935" cy="40000" r="512.315" /> 
<circle cx="31435" cy="41000" r="512.315" /> 
<circle cx="30935" cy="42000" r="354.815" /> 
<circle cx="34935" cy="42000" r="354.815" /> 
<circle cx="77000" cy="34500" r="803.815" /> 
<circle cx="78000" cy="32500" r="512.315" /> 
<circle cx="75500" cy="33500" r="512.315" /> 
<circle cx="75000" cy="34500" r="354.815" /> 
<circle cx="79000" cy="34500" r="354.815" /> 
<circle cx="107000" cy="34500" r="803.815" /> 
<circle cx="108000" cy="32500" r="512.315" /> 
<circle cx="105500" cy="33500" r="512.315" /> 
<circle cx="105000" cy="34500" r="354.815" /> 
<circle cx="109000" cy="34500" r="354.815" /> 
<circle cx="99500" cy="34500" r="803.815" /> 
<circle cx="100500" cy="32500" r="512.315" /> 
<circle cx="98000" cy="33500" r="512.315" /> 
<circle cx="97500" cy="34500" r="354.815" /> 
<circle cx="101500" cy="34500" r="354.815" /> 
<circle cx="84500" cy="34500" r="803.815" /> 
<circle cx="85500" cy="32500" r="512.315" /> 
<circle cx="83000" cy="33500" r="512.315" /> 
<circle cx="82500" cy="34500" r="354.815" /> 
<circle cx="86500" cy="34500" r="354.815" /> 
<circle cx="69500" cy="34500" r="803.815" /> 
<circle cx="70500" cy="32500" r="512.315" /> 
<circle cx="68000" cy="33500" r="512.315" /> 
<circle cx="67500" cy="34500" r="354.815" /> 
<circle cx="71500" cy="34500" r="354.815" /> 
<circle cx="62000" cy="34500" r="803.815" /> 
<circle cx="63000" cy="32500" r="512.315" /> 
<circle cx="60500" cy="33500" r="512.315" /> 
<circle cx="60000" cy="34500" r="354.815" /> 
<circle cx="64000" cy="34500" r="354.815" /> 
<circle cx="54500" cy="34500" r="803.815" /> 
<circle cx="55500" cy="32500" r="512.315" /> 
<circle cx="53000" cy="33500" r="512.315" /> 
<circle cx="52500" cy="34500" r="354.815" /> 
<circle cx="56500" cy="34500" r="354.815" /> 
<circle cx="47000" cy="34500" r="803.815" /> 
<circle cx="48000" cy="32500" r="512.315" /> 
<circle cx="45500" cy="33500" r="512.315" /> 
<circle cx="45000" cy="34500" r="354.815" /> 
<circle cx="49000" cy="34500" r="354.815" /> 
<circle cx="39500" cy="34500" r="803.815" /> 
<circle cx="40500" cy="32500" r="512.315" /> 
<circle cx="38000" cy="33500" r="512.315" /> 
<circle cx="37500" cy="34500" r="354.815" /> 
<circle cx="41500" cy="34500" r="354.815" /> 
<circle cx="32000" cy="34500" r="803.815" /> 
<circle cx="33000" cy="32500" r="512.315" /> 
<circle cx="30500" cy="33500" r="512.315" /> 
<circle cx="30000" cy="34500" r="354.815" /> 
<circle cx="34000" cy="34500" r="354.815" /> 
<circle cx="108870" cy="42000" r="803.815" /> 
<circle cx="109870" cy="40000" r="512.315" /> 
<circle cx="107370" cy="41000" r="512.315" /> 
<circle cx="106870" cy="42000" r="354.815" /> 
<circle cx="110870" cy="42000" r="354.815" /> 
<circle cx="92000" cy="34500" r="803.815" /> 
<circle cx="93000" cy="32500" r="512.315" /> 
<circle cx="90500" cy="33500" r="512.315" /> 
<circle cx="90000" cy="34500" r="354.815" /> 
<circle cx="94000" cy="34500" r="354.815" /> 
<circle cx="115412" cy="57000" r="803.815" /> 
<circle cx="116412" cy="55000" r="512.315" /> 
<circle cx="113912" cy="56000" r="512.315" /> 
<circle cx="113412" cy="57000" r="354.815" /> 
<circle cx="117412" cy="57000" r="354.815" /> 
<circle cx="106977" cy="57000" r="803.815" /> 
<circle cx="107977" cy="55000" r="512.315" /> 
<circle cx="105477" cy="56000" r="512.315" /> 
<circle cx="104977" cy="57000" r="354.815" /> 
<circle cx="108977" cy="57000" r="354.815" /> 
<circle cx="85419.3" cy="57000" r="803.815" /> 
<circle cx="86419.3" cy="55000" r="512.315" /> 
<circle cx="83919.3" cy="56000" r="512.315" /> 
<circle cx="83419.3" cy="57000" r="354.815" /> 
<circle cx="87419.3" cy="57000" r="354.815" /> 
<circle cx="54502.7" cy="57000" r="803.815" /> 
<circle cx="55502.7" cy="55000" r="512.315" /> 
<circle cx="53002.7" cy="56000" r="512.315" /> 
<circle cx="52502.7" cy="57000" r="354.815" /> 
<circle cx="56502.7" cy="57000" r="354.815" /> 
<circle cx="46067.7" cy="57000" r="803.815" /> 
<circle cx="47067.7" cy="55000" r="512.315" /> 
<circle cx="44567.7" cy="56000" r="512.315" /> 
<circle cx="44067.7" cy="57000" r="354.815" /> 
<circle cx="48067.7" cy="57000" r="354.815" /> 
<circle cx="120125" cy="49500" r="803.815" /> 
<circle cx="121125" cy="47500" r="512.315" /> 
<circle cx="118625" cy="48500" r="512.315" /> 
<circle cx="118125" cy="49500" r="354.815" /> 
<circle cx="122125" cy="49500" r="354.815" /> 
<circle cx="112625" cy="49500" r="803.815" /> 
<circle cx="113625" cy="47500" r="512.315" /> 
<circle cx="111125" cy="48500" r="512.315" /> 
<circle cx="110625" cy="49500" r="354.815" /> 
<circle cx="114625" cy="49500" r="354.815" /> 
<circle cx="105125" cy="49500" r="803.815" /> 
<circle cx="106125" cy="47500" r="512.315" /> 
<circle cx="103625" cy="48500" r="512.315" /> 
<circle cx="103125" cy="49500" r="354.815" /> 
<circle cx="107125" cy="49500" r="354.815" /> 
<circle cx="97625" cy="49500" r="803.815" /> 
<circle cx="98625" cy="47500" r="512.315" /> 
<circle cx="96125" cy="48500" r="512.315" /> 
<circle cx="95625" cy="49500" r="354.815" /> 
<circle cx="99625" cy="49500" r="354.815" /> 
<circle cx="90125" cy="49500" r="803.815" /> 
<circle cx="91125" cy="47500" r="512.315" /> 
<circle cx="88625" cy="48500" r="512.315" /> 
<circle cx="88125" cy="49500" r="354.815" /> 
<circle cx="92125" cy="49500" r="354.815" /> 
<circle cx="82625" cy="49500" r="803.815" /> 
<circle cx="83625" cy="47500" r="512.315" /> 
<circle cx="81125" cy="48500" r="512.315" /> 
<circle cx="80625" cy="49500" r="354.815" /> 
<circle cx="84625" cy="49500" r="354.815" /> 
<circle cx="75125" cy="49500" r="803.815" /> 
<circle cx="76125" cy="47500" r="512.315" /> 
<circle cx="73625" cy="48500" r="512.315" /> 
<circle cx="73125" cy="49500" r="354.815" /> 
<circle cx="77125" cy="49500" r="354.815" /> 
<circle cx="67625" cy="49500" r="803.815" /> 
<circle cx="68625" cy="47500" r="512.315" /> 
<circle cx="66125" cy="48500" r="512.315" /> 
<circle cx="65625" cy="49500" r="354.815" /> 
<circle cx="69625" cy="49500" r="354.815" /> 
<circle cx="60125" cy="49500" r="803.815" /> 
<circle cx="61125" cy="47500" r="512.315" /> 
<circle cx="58625" cy="48500" r="512.315" /> 
<circle cx="58125" cy="49500" r="354.815" /> 
<circle cx="62125" cy="49500" r="354.815" /> 
<circle cx="52625" cy="49500" r="803.815" /> 
<circle cx="53625" cy="47500" r="512.315" /> 
<circle cx="51125" cy="48500" r="512.315" /> 
<circle cx="50625" cy="49500" r="354.815" /> 
<circle cx="54625" cy="49500" r="354.815" /> 
<circle cx="45125" cy="49500" r="803.815" /> 
<circle cx="46125" cy="47500" r="512.315" /> 
<circle cx="43625" cy="48500" r="512.315" /> 
<circle cx="43125" cy="49500" r="354.815" /> 
<circle cx="47125" cy="49500" r="354.815" /> 
<circle cx="118245" cy="42000" r="803.815" /> 
<circle cx="119245" cy="40000" r="512.315" /> 
<circle cx="116745" cy="41000" r="512.315" /> 
<circle cx="116245" cy="42000" r="354.815" /> 
<circle cx="120245" cy="42000" r="354.815" /> 
</g>
<g style="fill:#009F00; fill-opacity:1.0; 
stroke:#009F00; stroke-width:39.3701; stroke-opacity:1; 
stroke-linecap:round; stroke-linejoin:round;">
<polyline style="fill-rule:evenodd;"
points="80638,56071
81131,56071
81131,56662
80638,56662
80638,56071
" /> 
<polyline style="fill-rule:evenodd;"
points="80638,56937
81131,56937
81131,57528
80638,57528
80638,56937
" /> 
<polyline style="fill-rule:evenodd;"
points="81268,56071
81761,56071
81761,56662
81268,56662
81268,56071
" /> 
<polyline style="fill-rule:evenodd;"
points="81268,56937
81761,56937
81761,57528
81268,57528
81268,56937
" /> 
<polyline style="fill-rule:evenodd;"
points="90886,56883
90886,56292
91833,56292
91833,56883
90886,56883
" /> 
<polyline style="fill-rule:evenodd;"
points="93366,55308
93366,54717
94313,54717
94313,55308
93366,55308
" /> 
<polyline style="fill-rule:evenodd;"
points="93366,56882
93366,56291
94313,56291
94313,56882
93366,56882
" /> 
<polyline style="fill-rule:evenodd;"
points="90886,55308
90886,54717
91833,54717
91833,55308
90886,55308
" /> 
</g>
<g style="fill:#7F7F00; fill-opacity:1.0; 
stroke:#7F7F00; stroke-width:530; stroke-opacity:1; 
stroke-linecap:round; stroke-linejoin:round;">
<path d="M111370 33685
L111370 33885
" />
<path d="M111685 32997
L111685 33197
" />
<path d="M112000 33685
L112000 33885
" />
<path d="M112315 32997
L112315 33197
" />
<path d="M112630 33685
L112630 33885
" />
</g>
<g style="fill:#7F7F00; fill-opacity:1.0; 
stroke:#7F7F00; stroke-width:750; stroke-opacity:1; 
stroke-linecap:round; stroke-linejoin:round;">
<path d="M113436 31474
L113436 31904
" />
<path d="M110564 31474
L110564 31904
" />
</g>
<g style="fill:#7F7F00; fill-opacity:1.0; 
stroke:#7F7F00; stroke-width:39.3701; stroke-opacity:1; 
stroke-linecap:round; stroke-linejoin:round;">
<circle cx="111050" cy="34850" r="345.315" /> 
<circle cx="109750" cy="32550" r="345.315" /> 
<circle cx="112000" cy="34850" r="345.315" /> 
<circle cx="114250" cy="32550" r="345.315" /> 
<circle cx="112950" cy="34850" r="345.315" /> 
</g>
<g style="fill:#7F7F00; fill-opacity:1.0; 
stroke:#7F7F00; stroke-width:530; stroke-opacity:1; 
stroke-linecap:round; stroke-linejoin:round;">
<path d="M31185 38630
L31385 38630
" />
<path d="M30497 38315
L30697 38315
" />
<path d="M31185 38000
L31385 38000
" />
<path d="M30497 37685
L30697 37685
" />
<path d="M31185 37370
L31385 37370
" />
</g>
<g style="fill:#7F7F00; fill-opacity:1.0; 
stroke:#7F7F00; stroke-width:750; stroke-opacity:1; 
stroke-linecap:round; stroke-linejoin:round;">
<path d="M28974 36564
L29404 36564
" />
<path d="M28974 39436
L29404 39436
" />
</g>
<g style="fill:#7F7F00; fill-opacity:1.0; 
stroke:#7F7F00; stroke-width:39.3701; stroke-opacity:1; 
stroke-linecap:round; stroke-linejoin:round;">
<circle cx="32350" cy="38950" r="345.315" /> 
<circle cx="30050" cy="40250" r="345.315" /> 
<circle cx="32350" cy="38000" r="345.315" /> 
<circle cx="30050" cy="35750" r="345.315" /> 
<circle cx="32350" cy="37050" r="345.315" /> 
</g> 
</svg>
