<?xml version="1.0" standalone="no"?>
 <!DOCTYPE svg PUBLIC "-//W3C//DTD SVG 1.1//EN" 
 "http://www.w3.org/Graphics/SVG/1.1/DTD/svg11.dtd"> 
<svg xmlns="http://www.w3.org/2000/svg" version="1.1" 
    width="41.9989cm" height="29.7002cm" viewBox="0 0 165350 116930 ">
<title>SVG Picture created as keyboard-B_Paste.svg date 2014/07/19 17:30:37 </title>
  <desc>Picture generated by PCBNEW </desc>
<g style="fill:#000000; fill-opacity:1;stroke:#000000; stroke-opacity:1;
stroke-linecap:round; stroke-linejoin:round; "
 transform="translate(0 0) scale(1 1)">
</g>
<g style="fill:#000000; fill-opacity:0.0; 
stroke:#000000; stroke-width:39.3701; stroke-opacity:1; 
stroke-linecap:round; stroke-linejoin:round;">
<path d="M4000 4000
L161350 4000
L161350 112930
L4000 112930
L4000 4000
" />
<path d="M4700 4700
L160650 4700
L160650 112230
L4700 112230
L4700 4700
" />
<path d="M26470 4000
L26470 4700
" />
<path d="M15382 4552
L15097 4552
" />
<path d="M15240 4552
L15240 4052
L15192 4123
L15144 4171
L15097 4195
" />
<path d="M26470 112930
L26470 112230
" />
<path d="M15382 112782
L15097 112782
" />
<path d="M15240 112782
L15240 112282
L15192 112353
L15144 112401
L15097 112425
" />
<path d="M48940 4000
L48940 4700
" />
<path d="M37567 4100
L37590 4076
L37638 4052
L37757 4052
L37805 4076
L37829 4100
L37852 4147
L37852 4195
L37829 4266
L37543 4552
L37852 4552
" />
<path d="M48940 112930
L48940 112230
" />
<path d="M37567 112330
L37590 112306
L37638 112282
L37757 112282
L37805 112306
L37829 112330
L37852 112377
L37852 112425
L37829 112496
L37543 112782
L37852 112782
" />
<path d="M71410 4000
L71410 4700
" />
<path d="M60013 4052
L60322 4052
L60156 4242
L60227 4242
L60275 4266
L60299 4290
L60322 4338
L60322 4457
L60299 4504
L60275 4528
L60227 4552
L60084 4552
L60037 4528
L60013 4504
" />
<path d="M71410 112930
L71410 112230
" />
<path d="M60013 112282
L60322 112282
L60156 112472
L60227 112472
L60275 112496
L60299 112520
L60322 112568
L60322 112687
L60299 112734
L60275 112758
L60227 112782
L60084 112782
L60037 112758
L60013 112734
" />
<path d="M93880 4000
L93880 4700
" />
<path d="M82745 4219
L82745 4552
" />
<path d="M82626 4028
L82507 4385
L82816 4385
" />
<path d="M93880 112930
L93880 112230
" />
<path d="M82745 112449
L82745 112782
" />
<path d="M82626 112258
L82507 112615
L82816 112615
" />
<path d="M116350 4000
L116350 4700
" />
<path d="M105239 4052
L105000 4052
L104977 4290
L105000 4266
L105048 4242
L105167 4242
L105215 4266
L105239 4290
L105262 4338
L105262 4457
L105239 4504
L105215 4528
L105167 4552
L105048 4552
L105000 4528
L104977 4504
" />
<path d="M116350 112930
L116350 112230
" />
<path d="M105239 112282
L105000 112282
L104977 112520
L105000 112496
L105048 112472
L105167 112472
L105215 112496
L105239 112520
L105262 112568
L105262 112687
L105239 112734
L105215 112758
L105167 112782
L105048 112782
L105000 112758
L104977 112734
" />
<path d="M138820 4000
L138820 4700
" />
<path d="M127685 4052
L127590 4052
L127542 4076
L127518 4100
L127470 4171
L127447 4266
L127447 4457
L127470 4504
L127494 4528
L127542 4552
L127637 4552
L127685 4528
L127709 4504
L127732 4457
L127732 4338
L127709 4290
L127685 4266
L127637 4242
L127542 4242
L127494 4266
L127470 4290
L127447 4338
" />
<path d="M138820 112930
L138820 112230
" />
<path d="M127685 112282
L127590 112282
L127542 112306
L127518 112330
L127470 112401
L127447 112496
L127447 112687
L127470 112734
L127494 112758
L127542 112782
L127637 112782
L127685 112758
L127709 112734
L127732 112687
L127732 112568
L127709 112520
L127685 112496
L127637 112472
L127542 112472
L127494 112496
L127470 112520
L127447 112568
" />
<path d="M149893 4052
L150226 4052
L150012 4552
" />
<path d="M149893 112282
L150226 112282
L150012 112782
" />
<path d="M4000 25780
L4700 25780
" />
<path d="M4230 14949
L4469 14949
" />
<path d="M4183 15092
L4350 14592
L4516 15092
" />
<path d="M161350 25780
L160650 25780
" />
<path d="M160880 14949
L161119 14949
" />
<path d="M160833 15092
L161000 14592
L161166 15092
" />
<path d="M4000 47560
L4700 47560
" />
<path d="M4385 36610
L4457 36634
L4480 36658
L4504 36705
L4504 36777
L4480 36824
L4457 36848
L4409 36872
L4219 36872
L4219 36372
L4385 36372
L4433 36396
L4457 36420
L4480 36467
L4480 36515
L4457 36562
L4433 36586
L4385 36610
L4219 36610
" />
<path d="M161350 47560
L160650 47560
" />
<path d="M161035 36610
L161107 36634
L161130 36658
L161154 36705
L161154 36777
L161130 36824
L161107 36848
L161059 36872
L160869 36872
L160869 36372
L161035 36372
L161083 36396
L161107 36420
L161130 36467
L161130 36515
L161107 36562
L161083 36586
L161035 36610
L160869 36610
" />
<path d="M4000 69340
L4700 69340
" />
<path d="M4504 58604
L4480 58628
L4409 58652
L4361 58652
L4290 58628
L4242 58580
L4219 58533
L4195 58438
L4195 58366
L4219 58271
L4242 58223
L4290 58176
L4361 58152
L4409 58152
L4480 58176
L4504 58200
" />
<path d="M161350 69340
L160650 69340
" />
<path d="M161154 58604
L161130 58628
L161059 58652
L161011 58652
L160940 58628
L160892 58580
L160869 58533
L160845 58438
L160845 58366
L160869 58271
L160892 58223
L160940 58176
L161011 58152
L161059 58152
L161130 58176
L161154 58200
" />
<path d="M4000 91120
L4700 91120
" />
<path d="M4219 80432
L4219 79932
L4338 79932
L4409 79956
L4457 80003
L4480 80051
L4504 80146
L4504 80218
L4480 80313
L4457 80360
L4409 80408
L4338 80432
L4219 80432
" />
<path d="M161350 91120
L160650 91120
" />
<path d="M160869 80432
L160869 79932
L160988 79932
L161059 79956
L161107 80003
L161130 80051
L161154 80146
L161154 80218
L161130 80313
L161107 80360
L161059 80408
L160988 80432
L160869 80432
" />
<path d="M4242 101950
L4409 101950
" />
<path d="M4480 102212
L4242 102212
L4242 101712
L4480 101712
" />
<path d="M160892 101950
L161059 101950
" />
<path d="M161130 102212
L160892 102212
L160892 101712
L161130 101712
" />
<path d="M127800 110672
L127875 110072
L128017 110072
L128100 110101
L128150 110158
L128171 110215
L128185 110330
L128175 110415
L128132 110530
L128096 110587
L128032 110644
L127942 110672
L127800 110672
" />
<path d="M128657 110672
L128696 110358
L128675 110301
L128621 110272
L128507 110272
L128446 110301
" />
<path d="M128660 110644
L128600 110672
L128457 110672
L128403 110644
L128382 110587
L128389 110530
L128425 110472
L128485 110444
L128628 110444
L128689 110415
" />
<path d="M128907 110272
L129135 110272
" />
<path d="M129017 110072
L128953 110587
L128975 110644
L129028 110672
L129085 110672
" />
<path d="M129517 110644
L129457 110672
L129342 110672
L129289 110644
L129267 110587
L129296 110358
L129332 110301
L129392 110272
L129507 110272
L129560 110301
L129582 110358
L129575 110415
L129282 110472
" />
<path d="M129807 110615
L129832 110644
L129800 110672
L129775 110644
L129807 110615
L129800 110672
" />
<path d="M129846 110301
L129871 110330
L129839 110358
L129814 110330
L129846 110301
L129839 110358
" />
<path d="M119392 111872
L119392 111272
" />
<path d="M119735 111872
L119478 111530
" />
<path d="M119735 111272
L119392 111615
" />
<path d="M119992 111872
L119992 111472
" />
<path d="M119992 111272
L119964 111301
L119992 111330
L120021 111301
L119992 111272
L119992 111330
" />
<path d="M120621 111815
L120592 111844
L120507 111872
L120450 111872
L120364 111844
L120307 111787
L120278 111730
L120250 111615
L120250 111530
L120278 111415
L120307 111358
L120364 111301
L120450 111272
L120507 111272
L120592 111301
L120621 111330
" />
<path d="M121135 111872
L121135 111558
L121107 111501
L121050 111472
L120935 111472
L120878 111501
" />
<path d="M121135 111844
L121078 111872
L120935 111872
L120878 111844
L120850 111787
L120850 111730
L120878 111672
L120935 111644
L121078 111644
L121135 111615
" />
<path d="M121678 111872
L121678 111272
" />
<path d="M121678 111844
L121621 111872
L121507 111872
L121450 111844
L121421 111815
L121392 111758
L121392 111587
L121421 111530
L121450 111501
L121507 111472
L121621 111472
L121678 111501
" />
<path d="M122421 111558
L122621 111558
" />
<path d="M122707 111872
L122421 111872
L122421 111272
L122707 111272
" />
<path d="M122964 111815
L122992 111844
L122964 111872
L122935 111844
L122964 111815
L122964 111872
" />
<path d="M123249 111872
L123249 111272
L123392 111272
L123478 111301
L123535 111358
L123564 111415
L123592 111530
L123592 111615
L123564 111730
L123535 111787
L123478 111844
L123392 111872
L123249 111872
" />
<path d="M123849 111815
L123878 111844
L123849 111872
L123821 111844
L123849 111815
L123849 111872
" />
<path d="M124107 111701
L124392 111701
" />
<path d="M124049 111872
L124249 111272
L124449 111872
" />
<path d="M124649 111815
L124678 111844
L124649 111872
L124621 111844
L124649 111815
L124649 111872
" />
<path d="M152942 110672
L152778 110387
" />
<path d="M152600 110672
L152675 110072
L152903 110072
L152957 110101
L152982 110130
L153003 110187
L152992 110272
L152957 110330
L152925 110358
L152864 110387
L152635 110387
" />
<path d="M153432 110644
L153371 110672
L153257 110672
L153203 110644
L153182 110587
L153210 110358
L153246 110301
L153307 110272
L153421 110272
L153475 110301
L153496 110358
L153489 110415
L153196 110472
" />
<path d="M153707 110272
L153800 110672
L153992 110272
" />
<path d="M154178 110615
L154203 110644
L154171 110672
L154146 110644
L154178 110615
L154171 110672
" />
<path d="M154217 110301
L154242 110330
L154210 110358
L154185 110330
L154217 110301
L154210 110358
" />
<path d="M119364 110644
L119450 110672
L119592 110672
L119650 110644
L119678 110615
L119707 110558
L119707 110501
L119678 110444
L119650 110415
L119592 110387
L119478 110358
L119421 110330
L119392 110301
L119364 110244
L119364 110187
L119392 110130
L119421 110101
L119478 110072
L119621 110072
L119707 110101
" />
<path d="M119964 110672
L119964 110272
" />
<path d="M119964 110072
L119935 110101
L119964 110130
L119992 110101
L119964 110072
L119964 110130
" />
<path d="M120192 110272
L120507 110272
L120192 110672
L120507 110672
" />
<path d="M120964 110644
L120907 110672
L120792 110672
L120735 110644
L120707 110587
L120707 110358
L120735 110301
L120792 110272
L120907 110272
L120964 110301
L120992 110358
L120992 110415
L120707 110472
" />
<path d="M121250 110615
L121278 110644
L121250 110672
L121221 110644
L121250 110615
L121250 110672
" />
<path d="M121250 110301
L121278 110330
L121250 110358
L121221 110330
L121250 110301
L121250 110358
" />
<path d="M121964 110501
L122250 110501
" />
<path d="M121907 110672
L122107 110072
L122307 110672
" />
<path d="M122450 110072
L122821 110072
L122621 110301
L122707 110301
L122764 110330
L122792 110358
L122821 110415
L122821 110558
L122792 110615
L122764 110644
L122707 110672
L122535 110672
L122478 110644
L122450 110615
" />
<path d="M152592 111872
L152592 111272
" />
<path d="M153135 111872
L153135 111272
" />
<path d="M153135 111844
L153078 111872
L152964 111872
L152907 111844
L152878 111815
L152850 111758
L152850 111587
L152878 111530
L152907 111501
L152964 111472
L153078 111472
L153135 111501
" />
<path d="M153421 111815
L153450 111844
L153421 111872
L153392 111844
L153421 111815
L153421 111872
" />
<path d="M153421 111501
L153450 111530
L153421 111558
L153392 111530
L153421 111501
L153421 111558
" />
<path d="M154478 111872
L154135 111872
" />
<path d="M154307 111872
L154307 111272
L154249 111358
L154192 111415
L154135 111444
" />
<path d="M155164 111244
L154650 112015
" />
<path d="M155678 111872
L155335 111872
" />
<path d="M155507 111872
L155507 111272
L155449 111358
L155392 111415
L155335 111444
" />
<path d="M119389 108872
L119732 108872
" />
<path d="M119485 109472
L119560 108872
" />
<path d="M119857 109472
L119907 109072
" />
<path d="M119932 108872
L119900 108901
L119925 108930
L119957 108901
L119932 108872
L119925 108930
" />
<path d="M120107 109072
L120335 109072
" />
<path d="M120217 108872
L120153 109387
L120175 109444
L120228 109472
L120285 109472
" />
<path d="M120571 109472
L120517 109444
L120496 109387
L120560 108872
" />
<path d="M121032 109444
L120971 109472
L120857 109472
L120803 109444
L120782 109387
L120810 109158
L120846 109101
L120907 109072
L121021 109072
L121075 109101
L121096 109158
L121089 109215
L120796 109272
" />
<path d="M121321 109415
L121346 109444
L121314 109472
L121289 109444
L121321 109415
L121314 109472
" />
<path d="M121360 109101
L121385 109130
L121353 109158
L121328 109130
L121360 109101
L121353 109158
" />
<path d="M119592 106758
L119392 106758
" />
<path d="M119392 107072
L119392 106472
L119678 106472
" />
<path d="M119907 107072
L119907 106672
" />
<path d="M119907 106472
L119878 106501
L119907 106530
L119935 106501
L119907 106472
L119907 106530
" />
<path d="M120278 107072
L120221 107044
L120192 106987
L120192 106472
" />
<path d="M120735 107044
L120678 107072
L120564 107072
L120507 107044
L120478 106987
L120478 106758
L120507 106701
L120564 106672
L120678 106672
L120735 106701
L120764 106758
L120764 106815
L120478 106872
" />
<path d="M121021 107015
L121050 107044
L121021 107072
L120992 107044
L121021 107015
L121021 107072
" />
<path d="M121021 106701
L121050 106730
L121021 106758
L120992 106730
L121021 106701
L121021 106758
" />
<path d="M121764 107072
L121764 106472
" />
<path d="M121821 106844
L121992 107072
" />
<path d="M121992 106672
L121764 106901
" />
<path d="M122478 107044
L122421 107072
L122307 107072
L122250 107044
L122221 106987
L122221 106758
L122250 106701
L122307 106672
L122421 106672
L122478 106701
L122507 106758
L122507 106815
L122221 106872
" />
<path d="M122707 106672
L122850 107072
" />
<path d="M122992 106672
L122850 107072
L122792 107215
L122764 107244
L122707 107272
" />
<path d="M123221 107072
L123221 106472
" />
<path d="M123221 106701
L123278 106672
L123392 106672
L123450 106701
L123478 106730
L123507 106787
L123507 106958
L123478 107015
L123450 107044
L123392 107072
L123278 107072
L123221 107044
" />
<path d="M123850 107072
L123792 107044
L123764 107015
L123735 106958
L123735 106787
L123764 106730
L123792 106701
L123850 106672
L123935 106672
L123992 106701
L124021 106730
L124050 106787
L124050 106958
L124021 107015
L123992 107044
L123935 107072
L123850 107072
" />
<path d="M124564 107072
L124564 106758
L124535 106701
L124478 106672
L124364 106672
L124307 106701
" />
<path d="M124564 107044
L124507 107072
L124364 107072
L124307 107044
L124278 106987
L124278 106930
L124307 106872
L124364 106844
L124507 106844
L124564 106815
" />
<path d="M124850 107072
L124850 106672
" />
<path d="M124850 106787
L124878 106730
L124907 106701
L124964 106672
L125021 106672
" />
<path d="M125478 107072
L125478 106472
" />
<path d="M125478 107044
L125421 107072
L125307 107072
L125250 107044
L125221 107015
L125192 106958
L125192 106787
L125221 106730
L125250 106701
L125307 106672
L125421 106672
L125478 106701
" />
<path d="M125764 107015
L125792 107044
L125764 107072
L125735 107044
L125764 107015
L125764 107072
" />
<path d="M126050 107072
L126050 106472
" />
<path d="M126107 106844
L126278 107072
" />
<path d="M126278 106672
L126050 106901
" />
<path d="M126535 107072
L126535 106672
" />
<path d="M126535 106472
L126507 106501
L126535 106530
L126564 106501
L126535 106472
L126535 106530
" />
<path d="M127078 107044
L127021 107072
L126907 107072
L126850 107044
L126821 107015
L126792 106958
L126792 106787
L126821 106730
L126850 106701
L126907 106672
L127021 106672
L127078 106701
" />
<path d="M127592 107072
L127592 106758
L127564 106701
L127507 106672
L127392 106672
L127335 106701
" />
<path d="M127592 107044
L127535 107072
L127392 107072
L127335 107044
L127307 106987
L127307 106930
L127335 106872
L127392 106844
L127535 106844
L127592 106815
" />
<path d="M128135 107072
L128135 106472
" />
<path d="M128135 107044
L128078 107072
L127964 107072
L127907 107044
L127878 107015
L127850 106958
L127850 106787
L127878 106730
L127907 106701
L127964 106672
L128078 106672
L128135 106701
" />
<path d="M128278 107130
L128735 107130
" />
<path d="M128878 106672
L128878 107272
" />
<path d="M128878 106701
L128935 106672
L129050 106672
L129107 106701
L129135 106730
L129164 106787
L129164 106958
L129135 107015
L129107 107044
L129050 107072
L128935 107072
L128878 107044
" />
<path d="M129678 107044
L129621 107072
L129507 107072
L129450 107044
L129421 107015
L129392 106958
L129392 106787
L129421 106730
L129450 106701
L129507 106672
L129621 106672
L129678 106701
" />
<path d="M129935 107072
L129935 106472
" />
<path d="M129935 106701
L129992 106672
L130107 106672
L130164 106701
L130192 106730
L130221 106787
L130221 106958
L130192 107015
L130164 107044
L130107 107072
L129992 107072
L129935 107044
" />
<path d="M119364 108244
L119450 108272
L119592 108272
L119650 108244
L119678 108215
L119707 108158
L119707 108101
L119678 108044
L119650 108015
L119592 107987
L119478 107958
L119421 107930
L119392 107901
L119364 107844
L119364 107787
L119392 107730
L119421 107701
L119478 107672
L119621 107672
L119707 107701
" />
<path d="M119964 108272
L119964 107672
" />
<path d="M120221 108272
L120221 107958
L120192 107901
L120135 107872
L120050 107872
L119992 107901
L119964 107930
" />
<path d="M120735 108244
L120678 108272
L120564 108272
L120507 108244
L120478 108187
L120478 107958
L120507 107901
L120564 107872
L120678 107872
L120735 107901
L120764 107958
L120764 108015
L120478 108072
" />
<path d="M121250 108244
L121192 108272
L121078 108272
L121021 108244
L120992 108187
L120992 107958
L121021 107901
L121078 107872
L121192 107872
L121250 107901
L121278 107958
L121278 108015
L120992 108072
" />
<path d="M121450 107872
L121678 107872
" />
<path d="M121535 107672
L121535 108187
L121564 108244
L121621 108272
L121678 108272
" />
<path d="M121878 108215
L121907 108244
L121878 108272
L121850 108244
L121878 108215
L121878 108272
" />
<path d="M121878 107901
L121907 107930
L121878 107958
L121850 107930
L121878 107901
L121878 107958
" />
<path d="M118650 106230
L118650 112230
" />
<path d="M118650 106230
L160650 106230
" />
<path d="M118650 106230
L160650 106230
" />
<path d="M118650 108630
L160650 108630
" />
<path d="M151850 109830
L151850 112230
" />
<path d="M118650 111030
L160650 111030
" />
<path d="M118650 109830
L160650 109830
" />
<path d="M125250 109830
L125250 111030
" />
</g>
<g style="fill:#FFFF00; fill-opacity:0.0; 
stroke:#FFFF00; stroke-width:39.0157; stroke-opacity:1; 
stroke-linecap:round; stroke-linejoin:round;">
<path d="M123700 60000
L123700 60100
" />
<path d="M28500 60000
L28500 60100
" />
<path d="M123000 60600
L123200 60600
" />
<path d="M123000 31000
L123200 31000
" />
<path d="M123000 60600
L29000 60600
" />
<path d="M123700 31500
L123700 60000
" />
<path d="M29000 31000
L123000 31000
" />
<path d="M28500 60000
L28500 31500
" />
<path d="M123700 31500 A500 500 0.0 0 0 123200 31000 " />
<path d="M123200 60600 A500 500 0.0 0 0 123700 60100 " />
<path d="M28500 60100 A500 500 0.0 0 0 29000 60600 " />
<path d="M29000 31000 A500 500 0.0 0 0 28500 31500 " />
</g>
<g style="fill:#009F00; fill-opacity:0.0; 
stroke:#009F00; stroke-width:160; stroke-opacity:1; 
stroke-linecap:round; stroke-linejoin:round;">
<path d="M74544 57000
L73956 57000
" />
<path d="M74544 56685
L73956 56685
" />
<path d="M74544 56370
L73956 56370
" />
<path d="M74544 56055
L73956 56055
" />
<path d="M74544 55740
L73956 55740
" />
<path d="M74544 55425
L73956 55425
" />
<path d="M74544 57315
L73956 57315
" />
<path d="M74544 57630
L73956 57630
" />
<path d="M74544 57945
L73956 57945
" />
<path d="M74544 58260
L73956 58260
" />
<path d="M74544 58575
L73956 58575
" />
<path d="M79044 57000
L78456 57000
" />
<path d="M79044 56685
L78456 56685
" />
<path d="M79044 56370
L78456 56370
" />
<path d="M79044 56055
L78456 56055
" />
<path d="M79044 55740
L78456 55740
" />
<path d="M79044 55425
L78456 55425
" />
<path d="M79044 57315
L78456 57315
" />
<path d="M79044 57630
L78456 57630
" />
<path d="M79044 57945
L78456 57945
" />
<path d="M79044 58260
L78456 58260
" />
<path d="M79044 58575
L78456 58575
" />
<path d="M76500 54456
L76500 55044
" />
<path d="M76500 58956
L76500 59544
" />
<path d="M76815 54456
L76815 55044
" />
<path d="M76815 58956
L76815 59544
" />
<path d="M77130 58956
L77130 59544
" />
<path d="M77130 54456
L77130 55044
" />
<path d="M77445 54456
L77445 55044
" />
<path d="M77445 58956
L77445 59544
" />
<path d="M77760 58956
L77760 59544
" />
<path d="M77760 54456
L77760 55044
" />
<path d="M78075 54456
L78075 55044
" />
<path d="M78075 58956
L78075 59544
" />
<path d="M76185 58956
L76185 59544
" />
<path d="M76185 54456
L76185 55044
" />
<path d="M75870 54456
L75870 55044
" />
<path d="M75870 58956
L75870 59544
" />
<path d="M75555 58956
L75555 59544
" />
<path d="M75555 54456
L75555 55044
" />
<path d="M75240 54456
L75240 55044
" />
<path d="M75240 58956
L75240 59544
" />
<path d="M74925 58956
L74925 59544
" />
<path d="M74925 54456
L74925 55044
" />
</g>
<g style="fill:#009F00; fill-opacity:0.0; 
stroke:#009F00; stroke-width:39.3701; stroke-opacity:1; 
stroke-linecap:round; stroke-linejoin:round;">
</g>
<g style="fill:#009F00; fill-opacity:1.0; 
stroke:#009F00; stroke-width:39.3701; stroke-opacity:1; 
stroke-linecap:round; stroke-linejoin:round;">
<polyline style="fill-rule:evenodd;"
points="80469,51755
80469,51244
80780,51244
80780,51755
80469,51755
" /> 
<polyline style="fill-rule:evenodd;"
points="81219,51755
81219,51244
81530,51244
81530,51755
81219,51755
" /> 
<polyline style="fill-rule:evenodd;"
points="57969,51755
57969,51244
58280,51244
58280,51755
57969,51755
" /> 
<polyline style="fill-rule:evenodd;"
points="58719,51755
58719,51244
59030,51244
59030,51755
58719,51755
" /> 
<polyline style="fill-rule:evenodd;"
points="65469,59255
65469,58744
65780,58744
65780,59255
65469,59255
" /> 
<polyline style="fill-rule:evenodd;"
points="66219,59255
66219,58744
66530,58744
66530,59255
66219,59255
" /> 
<polyline style="fill-rule:evenodd;"
points="59469,36755
59469,36244
59780,36244
59780,36755
59469,36755
" /> 
<polyline style="fill-rule:evenodd;"
points="60219,36755
60219,36244
60530,36244
60530,36755
60219,36755
" /> 
<polyline style="fill-rule:evenodd;"
points="74469,36755
74469,36244
74780,36244
74780,36755
74469,36755
" /> 
<polyline style="fill-rule:evenodd;"
points="75219,36755
75219,36244
75530,36244
75530,36755
75219,36755
" /> 
<polyline style="fill-rule:evenodd;"
points="33469,36755
33469,36244
33780,36244
33780,36755
33469,36755
" /> 
<polyline style="fill-rule:evenodd;"
points="34219,36755
34219,36244
34530,36244
34530,36755
34219,36755
" /> 
<polyline style="fill-rule:evenodd;"
points="65469,51755
65469,51244
65780,51244
65780,51755
65469,51755
" /> 
<polyline style="fill-rule:evenodd;"
points="66219,51755
66219,51244
66530,51244
66530,51755
66219,51755
" /> 
<polyline style="fill-rule:evenodd;"
points="51969,36755
51969,36244
52280,36244
52280,36755
51969,36755
" /> 
<polyline style="fill-rule:evenodd;"
points="52719,36755
52719,36244
53030,36244
53030,36755
52719,36755
" /> 
<polyline style="fill-rule:evenodd;"
points="76469,44255
76469,43744
76780,43744
76780,44255
76469,44255
" /> 
<polyline style="fill-rule:evenodd;"
points="77219,44255
77219,43744
77530,43744
77530,44255
77219,44255
" /> 
<polyline style="fill-rule:evenodd;"
points="81969,36755
81969,36244
82280,36244
82280,36755
81969,36755
" /> 
<polyline style="fill-rule:evenodd;"
points="82719,36755
82719,36244
83030,36244
83030,36755
82719,36755
" /> 
<polyline style="fill-rule:evenodd;"
points="89469,36755
89469,36244
89780,36244
89780,36755
89469,36755
" /> 
<polyline style="fill-rule:evenodd;"
points="90219,36755
90219,36244
90530,36244
90530,36755
90219,36755
" /> 
<polyline style="fill-rule:evenodd;"
points="83969,44255
83969,43744
84280,43744
84280,44255
83969,44255
" /> 
<polyline style="fill-rule:evenodd;"
points="84719,44255
84719,43744
85030,43744
85030,44255
84719,44255
" /> 
<polyline style="fill-rule:evenodd;"
points="87969,51755
87969,51244
88280,51244
88280,51755
87969,51755
" /> 
<polyline style="fill-rule:evenodd;"
points="88719,51755
88719,51244
89030,51244
89030,51755
88719,51755
" /> 
<polyline style="fill-rule:evenodd;"
points="61469,44255
61469,43744
61780,43744
61780,44255
61469,44255
" /> 
<polyline style="fill-rule:evenodd;"
points="62219,44255
62219,43744
62530,43744
62530,44255
62219,44255
" /> 
<polyline style="fill-rule:evenodd;"
points="95469,51755
95469,51244
95780,51244
95780,51755
95469,51755
" /> 
<polyline style="fill-rule:evenodd;"
points="96219,51755
96219,51244
96530,51244
96530,51755
96219,51755
" /> 
<polyline style="fill-rule:evenodd;"
points="53969,44255
53969,43744
54280,43744
54280,44255
53969,44255
" /> 
<polyline style="fill-rule:evenodd;"
points="54719,44255
54719,43744
55030,43744
55030,44255
54719,44255
" /> 
<polyline style="fill-rule:evenodd;"
points="91469,44255
91469,43744
91780,43744
91780,44255
91469,44255
" /> 
<polyline style="fill-rule:evenodd;"
points="92219,44255
92219,43744
92530,43744
92530,44255
92219,44255
" /> 
<polyline style="fill-rule:evenodd;"
points="96469,59255
96469,58744
96780,58744
96780,59255
96469,59255
" /> 
<polyline style="fill-rule:evenodd;"
points="97219,59255
97219,58744
97530,58744
97530,59255
97219,59255
" /> 
<polyline style="fill-rule:evenodd;"
points="72969,51755
72969,51244
73280,51244
73280,51755
72969,51755
" /> 
<polyline style="fill-rule:evenodd;"
points="73719,51755
73719,51244
74030,51244
74030,51755
73719,51755
" /> 
<polyline style="fill-rule:evenodd;"
points="68969,44255
68969,43744
69280,43744
69280,44255
68969,44255
" /> 
<polyline style="fill-rule:evenodd;"
points="69719,44255
69719,43744
70030,43744
70030,44255
69719,44255
" /> 
<polyline style="fill-rule:evenodd;"
points="66969,36755
66969,36244
67280,36244
67280,36755
66969,36755
" /> 
<polyline style="fill-rule:evenodd;"
points="67719,36755
67719,36244
68030,36244
68030,36755
67719,36755
" /> 
<polyline style="fill-rule:evenodd;"
points="51969,59255
51969,58744
52280,58744
52280,59255
51969,59255
" /> 
<polyline style="fill-rule:evenodd;"
points="52719,59255
52719,58744
53030,58744
53030,59255
52719,59255
" /> 
<polyline style="fill-rule:evenodd;"
points="43969,59255
43969,58744
44280,58744
44280,59255
43969,59255
" /> 
<polyline style="fill-rule:evenodd;"
points="44719,59255
44719,58744
45030,58744
45030,59255
44719,59255
" /> 
<polyline style="fill-rule:evenodd;"
points="50469,51755
50469,51244
50780,51244
50780,51755
50469,51755
" /> 
<polyline style="fill-rule:evenodd;"
points="51219,51755
51219,51244
51530,51244
51530,51755
51219,51755
" /> 
<polyline style="fill-rule:evenodd;"
points="46469,44255
46469,43744
46780,43744
46780,44255
46469,44255
" /> 
<polyline style="fill-rule:evenodd;"
points="47219,44255
47219,43744
47530,43744
47530,44255
47219,44255
" /> 
<polyline style="fill-rule:evenodd;"
points="36969,36755
36969,36244
37280,36244
37280,36755
36969,36755
" /> 
<polyline style="fill-rule:evenodd;"
points="37719,36755
37719,36244
38030,36244
38030,36755
37719,36755
" /> 
<polyline style="fill-rule:evenodd;"
points="44469,36755
44469,36244
44780,36244
44780,36755
44469,36755
" /> 
<polyline style="fill-rule:evenodd;"
points="45219,36755
45219,36244
45530,36244
45530,36755
45219,36755
" /> 
<polyline style="fill-rule:evenodd;"
points="30469,44255
30469,43744
30780,43744
30780,44255
30469,44255
" /> 
<polyline style="fill-rule:evenodd;"
points="31219,44255
31219,43744
31530,43744
31530,44255
31219,44255
" /> 
<polyline style="fill-rule:evenodd;"
points="38969,44255
38969,43744
39280,43744
39280,44255
38969,44255
" /> 
<polyline style="fill-rule:evenodd;"
points="39719,44255
39719,43744
40030,43744
40030,44255
39719,44255
" /> 
<polyline style="fill-rule:evenodd;"
points="42969,51755
42969,51244
43280,51244
43280,51755
42969,51755
" /> 
<polyline style="fill-rule:evenodd;"
points="43719,51755
43719,51244
44030,51244
44030,51755
43719,51755
" /> 
<polyline style="fill-rule:evenodd;"
points="97469,36755
97469,36244
97780,36244
97780,36755
97469,36755
" /> 
<polyline style="fill-rule:evenodd;"
points="98219,36755
98219,36244
98530,36244
98530,36755
98219,36755
" /> 
<polyline style="fill-rule:evenodd;"
points="98969,44255
98969,43744
99280,43744
99280,44255
98969,44255
" /> 
<polyline style="fill-rule:evenodd;"
points="99719,44255
99719,43744
100030,43744
100030,44255
99719,44255
" /> 
<polyline style="fill-rule:evenodd;"
points="104469,36755
104469,36244
104780,36244
104780,36755
104469,36755
" /> 
<polyline style="fill-rule:evenodd;"
points="105219,36755
105219,36244
105530,36244
105530,36755
105219,36755
" /> 
<polyline style="fill-rule:evenodd;"
points="106469,44255
106469,43744
106780,43744
106780,44255
106469,44255
" /> 
<polyline style="fill-rule:evenodd;"
points="107219,44255
107219,43744
107530,43744
107530,44255
107219,44255
" /> 
<polyline style="fill-rule:evenodd;"
points="102969,51755
102969,51244
103280,51244
103280,51755
102969,51755
" /> 
<polyline style="fill-rule:evenodd;"
points="103719,51755
103719,51244
104030,51244
104030,51755
103719,51755
" /> 
<polyline style="fill-rule:evenodd;"
points="117969,51755
117969,51244
118280,51244
118280,51755
117969,51755
" /> 
<polyline style="fill-rule:evenodd;"
points="118719,51755
118719,51244
119030,51244
119030,51755
118719,51755
" /> 
<polyline style="fill-rule:evenodd;"
points="110469,51755
110469,51244
110780,51244
110780,51755
110469,51755
" /> 
<polyline style="fill-rule:evenodd;"
points="111219,51755
111219,51244
111530,51244
111530,51755
111219,51755
" /> 
<polyline style="fill-rule:evenodd;"
points="115969,44255
115969,43744
116280,43744
116280,44255
115969,44255
" /> 
<polyline style="fill-rule:evenodd;"
points="116719,44255
116719,43744
117030,43744
117030,44255
116719,44255
" /> 
<polyline style="fill-rule:evenodd;"
points="114969,36755
114969,36244
115280,36244
115280,36755
114969,36755
" /> 
<polyline style="fill-rule:evenodd;"
points="115719,36755
115719,36244
116030,36244
116030,36755
115719,36755
" /> 
<polyline style="fill-rule:evenodd;"
points="82969,59255
82969,58744
83280,58744
83280,59255
82969,59255
" /> 
<polyline style="fill-rule:evenodd;"
points="83719,59255
83719,58744
84030,58744
84030,59255
83719,59255
" /> 
<polyline style="fill-rule:evenodd;"
points="104969,59255
104969,58744
105280,58744
105280,59255
104969,59255
" /> 
<polyline style="fill-rule:evenodd;"
points="105719,59255
105719,58744
106030,58744
106030,59255
105719,59255
" /> 
<polyline style="fill-rule:evenodd;"
points="112969,59255
112969,58744
113280,58744
113280,59255
112969,59255
" /> 
<polyline style="fill-rule:evenodd;"
points="113719,59255
113719,58744
114030,58744
114030,59255
113719,59255
" /> 
<polyline style="fill-rule:evenodd;"
points="35469,59255
35469,58744
35780,58744
35780,59255
35469,59255
" /> 
<polyline style="fill-rule:evenodd;"
points="36219,59255
36219,58744
36530,58744
36530,59255
36219,59255
" /> 
<polyline style="fill-rule:evenodd;"
points="32469,51755
32469,51244
32780,51244
32780,51755
32469,51755
" /> 
<polyline style="fill-rule:evenodd;"
points="33219,51755
33219,51244
33530,51244
33530,51755
33219,51755
" /> 
<polyline style="fill-rule:evenodd;"
points="72030,57744
72030,58255
71719,58255
71719,57744
72030,57744
" /> 
<polyline style="fill-rule:evenodd;"
points="71280,57744
71280,58255
70969,58255
70969,57744
71280,57744
" /> 
<polyline style="fill-rule:evenodd;"
points="72030,56244
72030,56755
71719,56755
71719,56244
72030,56244
" /> 
<polyline style="fill-rule:evenodd;"
points="71280,56244
71280,56755
70969,56755
70969,56244
71280,56244
" /> 
<polyline style="fill-rule:evenodd;"
points="77330,52744
77330,53255
77019,53255
77019,52744
77330,52744
" /> 
<polyline style="fill-rule:evenodd;"
points="76580,52744
76580,53255
76269,53255
76269,52744
76580,52744
" /> 
<polyline style="fill-rule:evenodd;"
points="72030,59244
72030,59755
71719,59755
71719,59244
72030,59244
" /> 
<polyline style="fill-rule:evenodd;"
points="71280,59244
71280,59755
70969,59755
70969,59244
71280,59244
" /> 
<polyline style="fill-rule:evenodd;"
points="82255,39530
81744,39530
81744,39219
82255,39219
82255,39530
" /> 
<polyline style="fill-rule:evenodd;"
points="82255,38780
81744,38780
81744,38469
82255,38469
82255,38780
" /> 
<polyline style="fill-rule:evenodd;"
points="83655,38930
83144,38930
83144,38619
83655,38619
83655,38930
" /> 
<polyline style="fill-rule:evenodd;"
points="83655,38180
83144,38180
83144,37869
83655,37869
83655,38180
" /> 
<polyline style="fill-rule:evenodd;"
points="72030,54744
72030,55255
71719,55255
71719,54744
72030,54744
" /> 
<polyline style="fill-rule:evenodd;"
points="71280,54744
71280,55255
70969,55255
70969,54744
71280,54744
" /> 
<polyline style="fill-rule:evenodd;"
points="80669,59655
80669,59144
80980,59144
80980,59655
80669,59655
" /> 
<polyline style="fill-rule:evenodd;"
points="81419,59655
81419,59144
81730,59144
81730,59655
81419,59655
" /> 
<polyline style="fill-rule:evenodd;"
points="81730,54144
81730,54655
81419,54655
81419,54144
81730,54144
" /> 
<polyline style="fill-rule:evenodd;"
points="80980,54144
80980,54655
80669,54655
80669,54144
80980,54144
" /> 
<polyline style="fill-rule:evenodd;"
points="72030,53244
72030,53755
71719,53755
71719,53244
72030,53244
" /> 
<polyline style="fill-rule:evenodd;"
points="71280,53244
71280,53755
70969,53755
70969,53244
71280,53244
" /> 
<polyline style="fill-rule:evenodd;"
points="80678,56111
81091,56111
81091,56622
80678,56622
80678,56111
" /> 
<polyline style="fill-rule:evenodd;"
points="80678,56977
81091,56977
81091,57488
80678,57488
80678,56977
" /> 
<polyline style="fill-rule:evenodd;"
points="81308,56111
81721,56111
81721,56622
81308,56622
81308,56111
" /> 
<polyline style="fill-rule:evenodd;"
points="81308,56977
81721,56977
81721,57488
81308,57488
81308,56977
" /> 
<polyline style="fill-rule:evenodd;"
points="90926,56843
90926,56332
91793,56332
91793,56843
90926,56843
" /> 
<polyline style="fill-rule:evenodd;"
points="93406,55268
93406,54757
94273,54757
94273,55268
93406,55268
" /> 
<polyline style="fill-rule:evenodd;"
points="93406,56842
93406,56331
94273,56331
94273,56842
93406,56842
" /> 
<polyline style="fill-rule:evenodd;"
points="90926,55268
90926,54757
91793,54757
91793,55268
90926,55268
" /> 
</g> 
</svg>
