<?xml version="1.0" standalone="no"?>
 <!DOCTYPE svg PUBLIC "-//W3C//DTD SVG 1.1//EN" 
 "http://www.w3.org/Graphics/SVG/1.1/DTD/svg11.dtd"> 
<svg xmlns="http://www.w3.org/2000/svg" version="1.1" 
    width="41.9989cm" height="29.7002cm" viewBox="0 0 165350 116930 ">
<title>SVG Picture created as keyboard-B_Mask.svg date 2014/07/27 15:56:12 </title>
  <desc>Picture generated by PCBNEW </desc>
<g style="fill:#000000; fill-opacity:1;stroke:#000000; stroke-opacity:1;
stroke-linecap:round; stroke-linejoin:round; "
 transform="translate(0 0) scale(1 1)">
</g>
<g style="fill:#000000; fill-opacity:0.0; 
stroke:#000000; stroke-width:39.3701; stroke-opacity:1; 
stroke-linecap:round; stroke-linejoin:round;">
<path d="M4000 4000
L161350 4000
L161350 112930
L4000 112930
L4000 4000
" />
<path d="M4700 4700
L160650 4700
L160650 112230
L4700 112230
L4700 4700
" />
<path d="M26470 4000
L26470 4700
" />
<path d="M15382 4552
L15097 4552
" />
<path d="M15240 4552
L15240 4052
L15192 4123
L15144 4171
L15097 4195
" />
<path d="M26470 112930
L26470 112230
" />
<path d="M15382 112782
L15097 112782
" />
<path d="M15240 112782
L15240 112282
L15192 112353
L15144 112401
L15097 112425
" />
<path d="M48940 4000
L48940 4700
" />
<path d="M37567 4100
L37590 4076
L37638 4052
L37757 4052
L37805 4076
L37829 4100
L37852 4147
L37852 4195
L37829 4266
L37543 4552
L37852 4552
" />
<path d="M48940 112930
L48940 112230
" />
<path d="M37567 112330
L37590 112306
L37638 112282
L37757 112282
L37805 112306
L37829 112330
L37852 112377
L37852 112425
L37829 112496
L37543 112782
L37852 112782
" />
<path d="M71410 4000
L71410 4700
" />
<path d="M60013 4052
L60322 4052
L60156 4242
L60227 4242
L60275 4266
L60299 4290
L60322 4338
L60322 4457
L60299 4504
L60275 4528
L60227 4552
L60084 4552
L60037 4528
L60013 4504
" />
<path d="M71410 112930
L71410 112230
" />
<path d="M60013 112282
L60322 112282
L60156 112472
L60227 112472
L60275 112496
L60299 112520
L60322 112568
L60322 112687
L60299 112734
L60275 112758
L60227 112782
L60084 112782
L60037 112758
L60013 112734
" />
<path d="M93880 4000
L93880 4700
" />
<path d="M82745 4219
L82745 4552
" />
<path d="M82626 4028
L82507 4385
L82816 4385
" />
<path d="M93880 112930
L93880 112230
" />
<path d="M82745 112449
L82745 112782
" />
<path d="M82626 112258
L82507 112615
L82816 112615
" />
<path d="M116350 4000
L116350 4700
" />
<path d="M105239 4052
L105000 4052
L104977 4290
L105000 4266
L105048 4242
L105167 4242
L105215 4266
L105239 4290
L105262 4338
L105262 4457
L105239 4504
L105215 4528
L105167 4552
L105048 4552
L105000 4528
L104977 4504
" />
<path d="M116350 112930
L116350 112230
" />
<path d="M105239 112282
L105000 112282
L104977 112520
L105000 112496
L105048 112472
L105167 112472
L105215 112496
L105239 112520
L105262 112568
L105262 112687
L105239 112734
L105215 112758
L105167 112782
L105048 112782
L105000 112758
L104977 112734
" />
<path d="M138820 4000
L138820 4700
" />
<path d="M127685 4052
L127590 4052
L127542 4076
L127518 4100
L127470 4171
L127447 4266
L127447 4457
L127470 4504
L127494 4528
L127542 4552
L127637 4552
L127685 4528
L127709 4504
L127732 4457
L127732 4338
L127709 4290
L127685 4266
L127637 4242
L127542 4242
L127494 4266
L127470 4290
L127447 4338
" />
<path d="M138820 112930
L138820 112230
" />
<path d="M127685 112282
L127590 112282
L127542 112306
L127518 112330
L127470 112401
L127447 112496
L127447 112687
L127470 112734
L127494 112758
L127542 112782
L127637 112782
L127685 112758
L127709 112734
L127732 112687
L127732 112568
L127709 112520
L127685 112496
L127637 112472
L127542 112472
L127494 112496
L127470 112520
L127447 112568
" />
<path d="M149893 4052
L150226 4052
L150012 4552
" />
<path d="M149893 112282
L150226 112282
L150012 112782
" />
<path d="M4000 25780
L4700 25780
" />
<path d="M4230 14949
L4469 14949
" />
<path d="M4183 15092
L4350 14592
L4516 15092
" />
<path d="M161350 25780
L160650 25780
" />
<path d="M160880 14949
L161119 14949
" />
<path d="M160833 15092
L161000 14592
L161166 15092
" />
<path d="M4000 47560
L4700 47560
" />
<path d="M4385 36610
L4457 36634
L4480 36658
L4504 36705
L4504 36777
L4480 36824
L4457 36848
L4409 36872
L4219 36872
L4219 36372
L4385 36372
L4433 36396
L4457 36420
L4480 36467
L4480 36515
L4457 36562
L4433 36586
L4385 36610
L4219 36610
" />
<path d="M161350 47560
L160650 47560
" />
<path d="M161035 36610
L161107 36634
L161130 36658
L161154 36705
L161154 36777
L161130 36824
L161107 36848
L161059 36872
L160869 36872
L160869 36372
L161035 36372
L161083 36396
L161107 36420
L161130 36467
L161130 36515
L161107 36562
L161083 36586
L161035 36610
L160869 36610
" />
<path d="M4000 69340
L4700 69340
" />
<path d="M4504 58604
L4480 58628
L4409 58652
L4361 58652
L4290 58628
L4242 58580
L4219 58533
L4195 58438
L4195 58366
L4219 58271
L4242 58223
L4290 58176
L4361 58152
L4409 58152
L4480 58176
L4504 58200
" />
<path d="M161350 69340
L160650 69340
" />
<path d="M161154 58604
L161130 58628
L161059 58652
L161011 58652
L160940 58628
L160892 58580
L160869 58533
L160845 58438
L160845 58366
L160869 58271
L160892 58223
L160940 58176
L161011 58152
L161059 58152
L161130 58176
L161154 58200
" />
<path d="M4000 91120
L4700 91120
" />
<path d="M4219 80432
L4219 79932
L4338 79932
L4409 79956
L4457 80003
L4480 80051
L4504 80146
L4504 80218
L4480 80313
L4457 80360
L4409 80408
L4338 80432
L4219 80432
" />
<path d="M161350 91120
L160650 91120
" />
<path d="M160869 80432
L160869 79932
L160988 79932
L161059 79956
L161107 80003
L161130 80051
L161154 80146
L161154 80218
L161130 80313
L161107 80360
L161059 80408
L160988 80432
L160869 80432
" />
<path d="M4242 101950
L4409 101950
" />
<path d="M4480 102212
L4242 102212
L4242 101712
L4480 101712
" />
<path d="M160892 101950
L161059 101950
" />
<path d="M161130 102212
L160892 102212
L160892 101712
L161130 101712
" />
<path d="M127800 110672
L127875 110072
L128017 110072
L128100 110101
L128150 110158
L128171 110215
L128185 110330
L128175 110415
L128132 110530
L128096 110587
L128032 110644
L127942 110672
L127800 110672
" />
<path d="M128657 110672
L128696 110358
L128675 110301
L128621 110272
L128507 110272
L128446 110301
" />
<path d="M128660 110644
L128600 110672
L128457 110672
L128403 110644
L128382 110587
L128389 110530
L128425 110472
L128485 110444
L128628 110444
L128689 110415
" />
<path d="M128907 110272
L129135 110272
" />
<path d="M129017 110072
L128953 110587
L128975 110644
L129028 110672
L129085 110672
" />
<path d="M129517 110644
L129457 110672
L129342 110672
L129289 110644
L129267 110587
L129296 110358
L129332 110301
L129392 110272
L129507 110272
L129560 110301
L129582 110358
L129575 110415
L129282 110472
" />
<path d="M129807 110615
L129832 110644
L129800 110672
L129775 110644
L129807 110615
L129800 110672
" />
<path d="M129846 110301
L129871 110330
L129839 110358
L129814 110330
L129846 110301
L129839 110358
" />
<path d="M119392 111872
L119392 111272
" />
<path d="M119735 111872
L119478 111530
" />
<path d="M119735 111272
L119392 111615
" />
<path d="M119992 111872
L119992 111472
" />
<path d="M119992 111272
L119964 111301
L119992 111330
L120021 111301
L119992 111272
L119992 111330
" />
<path d="M120621 111815
L120592 111844
L120507 111872
L120450 111872
L120364 111844
L120307 111787
L120278 111730
L120250 111615
L120250 111530
L120278 111415
L120307 111358
L120364 111301
L120450 111272
L120507 111272
L120592 111301
L120621 111330
" />
<path d="M121135 111872
L121135 111558
L121107 111501
L121050 111472
L120935 111472
L120878 111501
" />
<path d="M121135 111844
L121078 111872
L120935 111872
L120878 111844
L120850 111787
L120850 111730
L120878 111672
L120935 111644
L121078 111644
L121135 111615
" />
<path d="M121678 111872
L121678 111272
" />
<path d="M121678 111844
L121621 111872
L121507 111872
L121450 111844
L121421 111815
L121392 111758
L121392 111587
L121421 111530
L121450 111501
L121507 111472
L121621 111472
L121678 111501
" />
<path d="M122421 111558
L122621 111558
" />
<path d="M122707 111872
L122421 111872
L122421 111272
L122707 111272
" />
<path d="M122964 111815
L122992 111844
L122964 111872
L122935 111844
L122964 111815
L122964 111872
" />
<path d="M123249 111872
L123249 111272
L123392 111272
L123478 111301
L123535 111358
L123564 111415
L123592 111530
L123592 111615
L123564 111730
L123535 111787
L123478 111844
L123392 111872
L123249 111872
" />
<path d="M123849 111815
L123878 111844
L123849 111872
L123821 111844
L123849 111815
L123849 111872
" />
<path d="M124107 111701
L124392 111701
" />
<path d="M124049 111872
L124249 111272
L124449 111872
" />
<path d="M124649 111815
L124678 111844
L124649 111872
L124621 111844
L124649 111815
L124649 111872
" />
<path d="M152942 110672
L152778 110387
" />
<path d="M152600 110672
L152675 110072
L152903 110072
L152957 110101
L152982 110130
L153003 110187
L152992 110272
L152957 110330
L152925 110358
L152864 110387
L152635 110387
" />
<path d="M153432 110644
L153371 110672
L153257 110672
L153203 110644
L153182 110587
L153210 110358
L153246 110301
L153307 110272
L153421 110272
L153475 110301
L153496 110358
L153489 110415
L153196 110472
" />
<path d="M153707 110272
L153800 110672
L153992 110272
" />
<path d="M154178 110615
L154203 110644
L154171 110672
L154146 110644
L154178 110615
L154171 110672
" />
<path d="M154217 110301
L154242 110330
L154210 110358
L154185 110330
L154217 110301
L154210 110358
" />
<path d="M119364 110644
L119450 110672
L119592 110672
L119650 110644
L119678 110615
L119707 110558
L119707 110501
L119678 110444
L119650 110415
L119592 110387
L119478 110358
L119421 110330
L119392 110301
L119364 110244
L119364 110187
L119392 110130
L119421 110101
L119478 110072
L119621 110072
L119707 110101
" />
<path d="M119964 110672
L119964 110272
" />
<path d="M119964 110072
L119935 110101
L119964 110130
L119992 110101
L119964 110072
L119964 110130
" />
<path d="M120192 110272
L120507 110272
L120192 110672
L120507 110672
" />
<path d="M120964 110644
L120907 110672
L120792 110672
L120735 110644
L120707 110587
L120707 110358
L120735 110301
L120792 110272
L120907 110272
L120964 110301
L120992 110358
L120992 110415
L120707 110472
" />
<path d="M121250 110615
L121278 110644
L121250 110672
L121221 110644
L121250 110615
L121250 110672
" />
<path d="M121250 110301
L121278 110330
L121250 110358
L121221 110330
L121250 110301
L121250 110358
" />
<path d="M121964 110501
L122250 110501
" />
<path d="M121907 110672
L122107 110072
L122307 110672
" />
<path d="M122450 110072
L122821 110072
L122621 110301
L122707 110301
L122764 110330
L122792 110358
L122821 110415
L122821 110558
L122792 110615
L122764 110644
L122707 110672
L122535 110672
L122478 110644
L122450 110615
" />
<path d="M152592 111872
L152592 111272
" />
<path d="M153135 111872
L153135 111272
" />
<path d="M153135 111844
L153078 111872
L152964 111872
L152907 111844
L152878 111815
L152850 111758
L152850 111587
L152878 111530
L152907 111501
L152964 111472
L153078 111472
L153135 111501
" />
<path d="M153421 111815
L153450 111844
L153421 111872
L153392 111844
L153421 111815
L153421 111872
" />
<path d="M153421 111501
L153450 111530
L153421 111558
L153392 111530
L153421 111501
L153421 111558
" />
<path d="M154478 111872
L154135 111872
" />
<path d="M154307 111872
L154307 111272
L154249 111358
L154192 111415
L154135 111444
" />
<path d="M155164 111244
L154650 112015
" />
<path d="M155678 111872
L155335 111872
" />
<path d="M155507 111872
L155507 111272
L155449 111358
L155392 111415
L155335 111444
" />
<path d="M119389 108872
L119732 108872
" />
<path d="M119485 109472
L119560 108872
" />
<path d="M119857 109472
L119907 109072
" />
<path d="M119932 108872
L119900 108901
L119925 108930
L119957 108901
L119932 108872
L119925 108930
" />
<path d="M120107 109072
L120335 109072
" />
<path d="M120217 108872
L120153 109387
L120175 109444
L120228 109472
L120285 109472
" />
<path d="M120571 109472
L120517 109444
L120496 109387
L120560 108872
" />
<path d="M121032 109444
L120971 109472
L120857 109472
L120803 109444
L120782 109387
L120810 109158
L120846 109101
L120907 109072
L121021 109072
L121075 109101
L121096 109158
L121089 109215
L120796 109272
" />
<path d="M121321 109415
L121346 109444
L121314 109472
L121289 109444
L121321 109415
L121314 109472
" />
<path d="M121360 109101
L121385 109130
L121353 109158
L121328 109130
L121360 109101
L121353 109158
" />
<path d="M119592 106758
L119392 106758
" />
<path d="M119392 107072
L119392 106472
L119678 106472
" />
<path d="M119907 107072
L119907 106672
" />
<path d="M119907 106472
L119878 106501
L119907 106530
L119935 106501
L119907 106472
L119907 106530
" />
<path d="M120278 107072
L120221 107044
L120192 106987
L120192 106472
" />
<path d="M120735 107044
L120678 107072
L120564 107072
L120507 107044
L120478 106987
L120478 106758
L120507 106701
L120564 106672
L120678 106672
L120735 106701
L120764 106758
L120764 106815
L120478 106872
" />
<path d="M121021 107015
L121050 107044
L121021 107072
L120992 107044
L121021 107015
L121021 107072
" />
<path d="M121021 106701
L121050 106730
L121021 106758
L120992 106730
L121021 106701
L121021 106758
" />
<path d="M121764 107072
L121764 106472
" />
<path d="M121821 106844
L121992 107072
" />
<path d="M121992 106672
L121764 106901
" />
<path d="M122478 107044
L122421 107072
L122307 107072
L122250 107044
L122221 106987
L122221 106758
L122250 106701
L122307 106672
L122421 106672
L122478 106701
L122507 106758
L122507 106815
L122221 106872
" />
<path d="M122707 106672
L122850 107072
" />
<path d="M122992 106672
L122850 107072
L122792 107215
L122764 107244
L122707 107272
" />
<path d="M123221 107072
L123221 106472
" />
<path d="M123221 106701
L123278 106672
L123392 106672
L123450 106701
L123478 106730
L123507 106787
L123507 106958
L123478 107015
L123450 107044
L123392 107072
L123278 107072
L123221 107044
" />
<path d="M123850 107072
L123792 107044
L123764 107015
L123735 106958
L123735 106787
L123764 106730
L123792 106701
L123850 106672
L123935 106672
L123992 106701
L124021 106730
L124050 106787
L124050 106958
L124021 107015
L123992 107044
L123935 107072
L123850 107072
" />
<path d="M124564 107072
L124564 106758
L124535 106701
L124478 106672
L124364 106672
L124307 106701
" />
<path d="M124564 107044
L124507 107072
L124364 107072
L124307 107044
L124278 106987
L124278 106930
L124307 106872
L124364 106844
L124507 106844
L124564 106815
" />
<path d="M124850 107072
L124850 106672
" />
<path d="M124850 106787
L124878 106730
L124907 106701
L124964 106672
L125021 106672
" />
<path d="M125478 107072
L125478 106472
" />
<path d="M125478 107044
L125421 107072
L125307 107072
L125250 107044
L125221 107015
L125192 106958
L125192 106787
L125221 106730
L125250 106701
L125307 106672
L125421 106672
L125478 106701
" />
<path d="M125764 107015
L125792 107044
L125764 107072
L125735 107044
L125764 107015
L125764 107072
" />
<path d="M126050 107072
L126050 106472
" />
<path d="M126107 106844
L126278 107072
" />
<path d="M126278 106672
L126050 106901
" />
<path d="M126535 107072
L126535 106672
" />
<path d="M126535 106472
L126507 106501
L126535 106530
L126564 106501
L126535 106472
L126535 106530
" />
<path d="M127078 107044
L127021 107072
L126907 107072
L126850 107044
L126821 107015
L126792 106958
L126792 106787
L126821 106730
L126850 106701
L126907 106672
L127021 106672
L127078 106701
" />
<path d="M127592 107072
L127592 106758
L127564 106701
L127507 106672
L127392 106672
L127335 106701
" />
<path d="M127592 107044
L127535 107072
L127392 107072
L127335 107044
L127307 106987
L127307 106930
L127335 106872
L127392 106844
L127535 106844
L127592 106815
" />
<path d="M128135 107072
L128135 106472
" />
<path d="M128135 107044
L128078 107072
L127964 107072
L127907 107044
L127878 107015
L127850 106958
L127850 106787
L127878 106730
L127907 106701
L127964 106672
L128078 106672
L128135 106701
" />
<path d="M128278 107130
L128735 107130
" />
<path d="M128878 106672
L128878 107272
" />
<path d="M128878 106701
L128935 106672
L129050 106672
L129107 106701
L129135 106730
L129164 106787
L129164 106958
L129135 107015
L129107 107044
L129050 107072
L128935 107072
L128878 107044
" />
<path d="M129678 107044
L129621 107072
L129507 107072
L129450 107044
L129421 107015
L129392 106958
L129392 106787
L129421 106730
L129450 106701
L129507 106672
L129621 106672
L129678 106701
" />
<path d="M129935 107072
L129935 106472
" />
<path d="M129935 106701
L129992 106672
L130107 106672
L130164 106701
L130192 106730
L130221 106787
L130221 106958
L130192 107015
L130164 107044
L130107 107072
L129992 107072
L129935 107044
" />
<path d="M119364 108244
L119450 108272
L119592 108272
L119650 108244
L119678 108215
L119707 108158
L119707 108101
L119678 108044
L119650 108015
L119592 107987
L119478 107958
L119421 107930
L119392 107901
L119364 107844
L119364 107787
L119392 107730
L119421 107701
L119478 107672
L119621 107672
L119707 107701
" />
<path d="M119964 108272
L119964 107672
" />
<path d="M120221 108272
L120221 107958
L120192 107901
L120135 107872
L120050 107872
L119992 107901
L119964 107930
" />
<path d="M120735 108244
L120678 108272
L120564 108272
L120507 108244
L120478 108187
L120478 107958
L120507 107901
L120564 107872
L120678 107872
L120735 107901
L120764 107958
L120764 108015
L120478 108072
" />
<path d="M121250 108244
L121192 108272
L121078 108272
L121021 108244
L120992 108187
L120992 107958
L121021 107901
L121078 107872
L121192 107872
L121250 107901
L121278 107958
L121278 108015
L120992 108072
" />
<path d="M121450 107872
L121678 107872
" />
<path d="M121535 107672
L121535 108187
L121564 108244
L121621 108272
L121678 108272
" />
<path d="M121878 108215
L121907 108244
L121878 108272
L121850 108244
L121878 108215
L121878 108272
" />
<path d="M121878 107901
L121907 107930
L121878 107958
L121850 107930
L121878 107901
L121878 107958
" />
<path d="M118650 106230
L118650 112230
" />
<path d="M118650 106230
L160650 106230
" />
<path d="M118650 106230
L160650 106230
" />
<path d="M118650 108630
L160650 108630
" />
<path d="M151850 109830
L151850 112230
" />
<path d="M118650 111030
L160650 111030
" />
<path d="M118650 109830
L160650 109830
" />
<path d="M125250 109830
L125250 111030
" />
</g>
<g style="fill:#FFFF00; fill-opacity:0.0; 
stroke:#FFFF00; stroke-width:39.0157; stroke-opacity:1; 
stroke-linecap:round; stroke-linejoin:round;">
<path d="M129000 31400
L129000 31800
" />
<path d="M128200 31000
L128600 31000
" />
<path d="M129000 31400 A400 400 0.0 0 0 128600 31000 " />
<path d="M35800 59600
L35800 60000
" />
<path d="M36600 60400
L36200 60400
" />
<path d="M35800 60000 A400 400 0.0 0 0 36200 60400 " />
<path d="M35800 31800
L35800 31400
" />
<path d="M36600 31000
L36200 31000
" />
<path d="M36200 31000 A400 400 0.0 0 0 35800 31400 " />
<path d="M129000 59800
L129000 60000
" />
<path d="M128400 60400
L128600 60400
" />
<path d="M128600 60400 A400 400 0.0 0 0 129000 60000 " />
<path d="M128400 60400
L128000 60400
" />
<path d="M35800 31800
L35800 59600
" />
<path d="M128200 31000
L36600 31000
" />
<path d="M129000 59800
L129000 31800
" />
<path d="M36600 60400
L128000 60400
" />
</g>
<g style="fill:#7F7F00; fill-opacity:1.0; 
stroke:#7F7F00; stroke-width:1; stroke-opacity:1; 
stroke-linecap:round; stroke-linejoin:round;">
<polyline style="fill-rule:evenodd;"
points="121105,43994
121105,44048
121105,44092
121104,44127
121104,44155
121103,44176
121102,44191
121101,44202
121099,44208
121097,44210
121090,44213
121073,44217
121048,44223
121016,44229
120978,44237
120935,44245
120890,44254
120840,44263
120795,44272
120756,44280
120724,44287
120700,44292
120686,44296
120682,44298
120678,44305
120670,44320
120660,44343
120648,44370
120635,44400
120622,44433
120609,44465
120597,44495
120587,44522
120579,44544
120574,44559
120573,44565
120576,44570
120585,44584
120599,44605
120617,44631
120638,44662
120661,44696
120676,44717
120777,44865
120777,44931
120777,44997
120623,45151
120469,45305
120404,45305
120340,45305
120194,45205
120049,45105
120002,45130
119956,45156
119888,45154
119820,45152
119671,44794
119522,44436
119522,44379
119522,44354
119523,44333
119524,44319
119525,44314
119531,44307
119544,44296
119562,44282
119579,44270
119625,44236
119663,44204
119694,44172
119720,44138
119743,44099
119758,44070
119781,44018
119794,43971
119797,43928
119795,43901
119777,43836
119749,43775
119713,43718
119667,43666
119614,43621
119555,43584
119547,43580
119505,43561
119464,43548
119425,43540
119402,43538
119360,43543
119313,43556
119264,43577
119216,43605
119171,43638
119130,43675
119104,43703
119080,43738
119056,43780
119036,43825
119020,43868
119016,43882
119011,43911
119009,43938
119011,43964
119019,43994
119031,44031
119034,44039
119063,44100
119101,44156
119149,44208
119206,44255
119245,44282
119261,44293
119274,44302
119280,44307
119281,44315
119283,44332
119283,44354
119284,44375
119284,44436
119139,44784
119115,44844
119092,44900
119070,44953
119050,45001
119032,45043
119017,45079
119005,45109
118996,45130
118990,45142
118989,45144
118986,45149
118980,45152
118970,45154
118954,45155
118930,45155
118918,45155
118852,45155
118805,45130
118758,45105
118667,45168
118634,45190
118600,45214
118567,45236
118539,45255
118521,45268
118466,45305
118401,45305
118337,45305
118182,45151
118028,44997
118028,44932
118028,44904
118029,44885
118031,44871
118034,44861
118040,44851
118047,44841
118055,44829
118068,44809
118086,44783
118106,44753
118129,44720
118149,44690
118172,44657
118192,44627
118209,44601
118222,44580
118231,44566
118234,44560
118232,44553
118226,44537
118218,44514
118206,44485
118193,44452
118183,44426
118166,44383
118152,44350
118141,44325
118132,44308
118126,44298
118121,44294
118112,44292
118095,44288
118069,44283
118036,44276
117997,44269
117954,44260
117912,44253
117867,44244
117824,44236
117787,44228
117755,44222
117730,44216
117714,44212
117708,44210
117706,44207
117705,44200
117704,44188
117703,44171
117702,44148
117701,44117
117701,44079
117701,44032
117700,43974
117700,43930
117700,43656
117713,43649
117721,43646
117739,43641
117765,43636
117798,43629
117837,43621
117881,43613
117927,43604
117928,43604
117974,43595
118017,43587
118056,43579
118088,43572
118113,43567
118130,43562
118138,43560
118138,43560
118142,43553
118149,43538
118159,43516
118172,43489
118185,43459
118198,43428
118212,43398
118224,43370
118234,43345
118241,43327
118245,43316
118245,43315
118242,43309
118233,43295
118220,43274
118202,43247
118181,43216
118157,43181
118137,43151
118028,42993
118028,42929
118028,42865
118182,42710
118336,42556
118402,42556
118468,42556
118608,42652
118644,42676
118678,42700
118709,42721
118735,42739
118755,42753
118768,42762
118770,42763
118793,42779
118898,42736
118939,42720
118970,42707
118994,42697
119011,42689
119022,42683
119029,42678
119034,42674
119036,42669
119036,42668
119038,42660
119042,42642
119047,42617
119053,42584
119061,42545
119069,42502
119077,42455
119078,42450
119087,42404
119096,42360
119103,42321
119110,42288
119116,42262
119120,42244
119123,42236
119123,42236
119126,42234
119133,42233
119143,42231
119159,42230
119181,42230
119210,42229
119246,42229
119291,42228
119346,42228
119402,42228
119456,42228
119507,42229
119553,42229
119594,42230
119629,42230
119655,42231
119673,42232
119682,42233
119682,42233
119685,42240
119689,42256
119695,42283
119703,42317
119711,42360
119721,42410
119728,42448
119737,42495
119745,42540
119753,42580
119759,42614
119765,42641
119769,42660
119771,42670
119771,42670
119776,42676
119788,42683
119806,42692
119833,42704
119868,42720
119894,42730
119932,42746
119961,42757
119982,42766
119998,42771
120008,42773
120016,42774
120021,42772
120026,42770
120027,42769
120035,42764
120051,42753
120073,42737
120102,42718
120134,42696
120170,42672
120190,42658
120338,42556
120404,42556
120469,42556
120623,42710
120777,42864
120777,42930
120777,42996
120668,43154
120559,43312
120611,43435
120627,43470
120641,43502
120654,43528
120664,43548
120671,43560
120673,43562
120681,43564
120698,43568
120723,43574
120756,43580
120795,43588
120838,43596
120884,43605
120889,43606
120943,43616
120990,43625
121029,43633
121061,43640
121084,43646
121097,43650
121100,43652
121101,43658
121102,43675
121103,43701
121104,43735
121104,43775
121105,43820
121105,43870
121105,43924
121105,43931
121105,43994
121105,43994
" /> 
</g>
<g style="fill:#7F7F00; fill-opacity:1.0; 
stroke:#7F7F00; stroke-width:530; stroke-opacity:1; 
stroke-linecap:round; stroke-linejoin:round;">
<path d="M38485 39830
L38685 39830
" />
<path d="M37797 39515
L37997 39515
" />
<path d="M38485 39200
L38685 39200
" />
<path d="M37797 38885
L37997 38885
" />
<path d="M38485 38570
L38685 38570
" />
</g>
<g style="fill:#7F7F00; fill-opacity:1.0; 
stroke:#7F7F00; stroke-width:750; stroke-opacity:1; 
stroke-linecap:round; stroke-linejoin:round;">
<path d="M36274 37764
L36704 37764
" />
<path d="M36274 40636
L36704 40636
" />
</g>
<g style="fill:#7F7F00; fill-opacity:1.0; 
stroke:#7F7F00; stroke-width:530; stroke-opacity:1; 
stroke-linecap:round; stroke-linejoin:round;">
<path d="M118370 33685
L118370 33885
" />
<path d="M118685 32997
L118685 33197
" />
<path d="M119000 33685
L119000 33885
" />
<path d="M119315 32997
L119315 33197
" />
<path d="M119630 33685
L119630 33885
" />
</g>
<g style="fill:#7F7F00; fill-opacity:1.0; 
stroke:#7F7F00; stroke-width:750; stroke-opacity:1; 
stroke-linecap:round; stroke-linejoin:round;">
<path d="M120436 31474
L120436 31904
" />
<path d="M117564 31474
L117564 31904
" />
</g>
<g style="fill:#009F00; fill-opacity:1.0; 
stroke:#009F00; stroke-width:240; stroke-opacity:1; 
stroke-linecap:round; stroke-linejoin:round;">
<path d="M78044 56800
L77456 56800
" />
<path d="M78044 56485
L77456 56485
" />
<path d="M78044 56170
L77456 56170
" />
<path d="M78044 55855
L77456 55855
" />
<path d="M78044 55540
L77456 55540
" />
<path d="M78044 55225
L77456 55225
" />
<path d="M78044 57115
L77456 57115
" />
<path d="M78044 57430
L77456 57430
" />
<path d="M78044 57745
L77456 57745
" />
<path d="M78044 58060
L77456 58060
" />
<path d="M78044 58375
L77456 58375
" />
<path d="M82544 56800
L81956 56800
" />
<path d="M82544 56485
L81956 56485
" />
<path d="M82544 56170
L81956 56170
" />
<path d="M82544 55855
L81956 55855
" />
<path d="M82544 55540
L81956 55540
" />
<path d="M82544 55225
L81956 55225
" />
<path d="M82544 57115
L81956 57115
" />
<path d="M82544 57430
L81956 57430
" />
<path d="M82544 57745
L81956 57745
" />
<path d="M82544 58060
L81956 58060
" />
<path d="M82544 58375
L81956 58375
" />
<path d="M80000 54256
L80000 54844
" />
<path d="M80000 58756
L80000 59344
" />
<path d="M80315 54256
L80315 54844
" />
<path d="M80315 58756
L80315 59344
" />
<path d="M80630 58756
L80630 59344
" />
<path d="M80630 54256
L80630 54844
" />
<path d="M80945 54256
L80945 54844
" />
<path d="M80945 58756
L80945 59344
" />
<path d="M81260 58756
L81260 59344
" />
<path d="M81260 54256
L81260 54844
" />
<path d="M81575 54256
L81575 54844
" />
<path d="M81575 58756
L81575 59344
" />
<path d="M79685 58756
L79685 59344
" />
<path d="M79685 54256
L79685 54844
" />
<path d="M79370 54256
L79370 54844
" />
<path d="M79370 58756
L79370 59344
" />
<path d="M79055 58756
L79055 59344
" />
<path d="M79055 54256
L79055 54844
" />
<path d="M78740 54256
L78740 54844
" />
<path d="M78740 58756
L78740 59344
" />
<path d="M78425 58756
L78425 59344
" />
<path d="M78425 54256
L78425 54844
" />
</g>
<g style="fill:#009F00; fill-opacity:1.0; 
stroke:#009F00; stroke-width:39.3701; stroke-opacity:1; 
stroke-linecap:round; stroke-linejoin:round;">
<polyline style="fill-rule:evenodd;"
points="77949,52095
77949,51504
78340,51504
78340,52095
77949,52095
" /> 
<polyline style="fill-rule:evenodd;"
points="79259,52095
79259,51504
79650,51504
79650,52095
79259,52095
" /> 
<polyline style="fill-rule:evenodd;"
points="70449,52095
70449,51504
70840,51504
70840,52095
70449,52095
" /> 
<polyline style="fill-rule:evenodd;"
points="71759,52095
71759,51504
72150,51504
72150,52095
71759,52095
" /> 
<polyline style="fill-rule:evenodd;"
points="38949,37095
38949,36504
39340,36504
39340,37095
38949,37095
" /> 
<polyline style="fill-rule:evenodd;"
points="40259,37095
40259,36504
40650,36504
40650,37095
40259,37095
" /> 
<polyline style="fill-rule:evenodd;"
points="85449,52095
85449,51504
85840,51504
85840,52095
85449,52095
" /> 
<polyline style="fill-rule:evenodd;"
points="86759,52095
86759,51504
87150,51504
87150,52095
86759,52095
" /> 
<polyline style="fill-rule:evenodd;"
points="66649,37095
66649,36504
67040,36504
67040,37095
66649,37095
" /> 
<polyline style="fill-rule:evenodd;"
points="67959,37095
67959,36504
68350,36504
68350,37095
67959,37095
" /> 
<polyline style="fill-rule:evenodd;"
points="69449,59595
69449,59004
69840,59004
69840,59595
69449,59595
" /> 
<polyline style="fill-rule:evenodd;"
points="70759,59595
70759,59004
71150,59004
71150,59595
70759,59595
" /> 
<polyline style="fill-rule:evenodd;"
points="62949,52095
62949,51504
63340,51504
63340,52095
62949,52095
" /> 
<polyline style="fill-rule:evenodd;"
points="64259,52095
64259,51504
64650,51504
64650,52095
64259,52095
" /> 
<polyline style="fill-rule:evenodd;"
points="61049,44595
61049,44004
61440,44004
61440,44595
61049,44595
" /> 
<polyline style="fill-rule:evenodd;"
points="62359,44595
62359,44004
62750,44004
62750,44595
62359,44595
" /> 
<polyline style="fill-rule:evenodd;"
points="59149,37095
59149,36504
59540,36504
59540,37095
59149,37095
" /> 
<polyline style="fill-rule:evenodd;"
points="60459,37095
60459,36504
60850,36504
60850,37095
60459,37095
" /> 
<polyline style="fill-rule:evenodd;"
points="83549,44595
83549,44004
83940,44004
83940,44595
83549,44595
" /> 
<polyline style="fill-rule:evenodd;"
points="84859,44595
84859,44004
85250,44004
85250,44595
84859,44595
" /> 
<polyline style="fill-rule:evenodd;"
points="81649,37095
81649,36504
82040,36504
82040,37095
81649,37095
" /> 
<polyline style="fill-rule:evenodd;"
points="82959,37095
82959,36504
83350,36504
83350,37095
82959,37095
" /> 
<polyline style="fill-rule:evenodd;"
points="89149,37095
89149,36504
89540,36504
89540,37095
89149,37095
" /> 
<polyline style="fill-rule:evenodd;"
points="90459,37095
90459,36504
90850,36504
90850,37095
90459,37095
" /> 
<polyline style="fill-rule:evenodd;"
points="76049,44595
76049,44004
76440,44004
76440,44595
76049,44595
" /> 
<polyline style="fill-rule:evenodd;"
points="77359,44595
77359,44004
77750,44004
77750,44595
77359,44595
" /> 
<polyline style="fill-rule:evenodd;"
points="56349,59595
56349,59004
56740,59004
56740,59595
56349,59595
" /> 
<polyline style="fill-rule:evenodd;"
points="57659,59595
57659,59004
58050,59004
58050,59595
57659,59595
" /> 
<polyline style="fill-rule:evenodd;"
points="46949,59595
46949,59004
47340,59004
47340,59595
46949,59595
" /> 
<polyline style="fill-rule:evenodd;"
points="48259,59595
48259,59004
48650,59004
48650,59595
48259,59595
" /> 
<polyline style="fill-rule:evenodd;"
points="55449,52095
55449,51504
55840,51504
55840,52095
55449,52095
" /> 
<polyline style="fill-rule:evenodd;"
points="56759,52095
56759,51504
57150,51504
57150,52095
56759,52095
" /> 
<polyline style="fill-rule:evenodd;"
points="53549,44595
53549,44004
53940,44004
53940,44595
53549,44595
" /> 
<polyline style="fill-rule:evenodd;"
points="54859,44595
54859,44004
55250,44004
55250,44595
54859,44595
" /> 
<polyline style="fill-rule:evenodd;"
points="47949,52095
47949,51504
48340,51504
48340,52095
47949,52095
" /> 
<polyline style="fill-rule:evenodd;"
points="49259,52095
49259,51504
49650,51504
49650,52095
49259,52095
" /> 
<polyline style="fill-rule:evenodd;"
points="46049,44595
46049,44004
46440,44004
46440,44595
46049,44595
" /> 
<polyline style="fill-rule:evenodd;"
points="47359,44595
47359,44004
47750,44004
47750,44595
47359,44595
" /> 
<polyline style="fill-rule:evenodd;"
points="37649,44595
37649,44004
38040,44004
38040,44595
37649,44595
" /> 
<polyline style="fill-rule:evenodd;"
points="38959,44595
38959,44004
39350,44004
39350,44595
38959,44595
" /> 
<polyline style="fill-rule:evenodd;"
points="51649,37095
51649,36504
52040,36504
52040,37095
51649,37095
" /> 
<polyline style="fill-rule:evenodd;"
points="52959,37095
52959,36504
53350,36504
53350,37095
52959,37095
" /> 
<polyline style="fill-rule:evenodd;"
points="44249,36995
44249,36404
44640,36404
44640,36995
44249,36995
" /> 
<polyline style="fill-rule:evenodd;"
points="45559,36995
45559,36404
45950,36404
45950,36995
45559,36995
" /> 
<polyline style="fill-rule:evenodd;"
points="113549,44595
113549,44004
113940,44004
113940,44595
113549,44595
" /> 
<polyline style="fill-rule:evenodd;"
points="114859,44595
114859,44004
115250,44004
115250,44595
114859,44595
" /> 
<polyline style="fill-rule:evenodd;"
points="38549,52095
38549,51504
38940,51504
38940,52095
38549,52095
" /> 
<polyline style="fill-rule:evenodd;"
points="39859,52095
39859,51504
40250,51504
40250,52095
39859,52095
" /> 
<polyline style="fill-rule:evenodd;"
points="100449,52095
100449,51504
100840,51504
100840,52095
100449,52095
" /> 
<polyline style="fill-rule:evenodd;"
points="101759,52095
101759,51504
102150,51504
102150,52095
101759,52095
" /> 
<polyline style="fill-rule:evenodd;"
points="92949,52095
92949,51504
93340,51504
93340,52095
92949,52095
" /> 
<polyline style="fill-rule:evenodd;"
points="94259,52095
94259,51504
94650,51504
94650,52095
94259,52095
" /> 
<polyline style="fill-rule:evenodd;"
points="74149,37095
74149,36504
74540,36504
74540,37095
74149,37095
" /> 
<polyline style="fill-rule:evenodd;"
points="75459,37095
75459,36504
75850,36504
75850,37095
75459,37095
" /> 
<polyline style="fill-rule:evenodd;"
points="121049,37095
121049,36504
121440,36504
121440,37095
121049,37095
" /> 
<polyline style="fill-rule:evenodd;"
points="122359,37095
122359,36504
122750,36504
122750,37095
122359,37095
" /> 
<polyline style="fill-rule:evenodd;"
points="121949,44595
121949,44004
122340,44004
122340,44595
121949,44595
" /> 
<polyline style="fill-rule:evenodd;"
points="123259,44595
123259,44004
123650,44004
123650,44595
123259,44595
" /> 
<polyline style="fill-rule:evenodd;"
points="115449,59595
115449,59004
115840,59004
115840,59595
115449,59595
" /> 
<polyline style="fill-rule:evenodd;"
points="116759,59595
116759,59004
117150,59004
117150,59595
116759,59595
" /> 
<polyline style="fill-rule:evenodd;"
points="122949,52095
122949,51504
123340,51504
123340,52095
122949,52095
" /> 
<polyline style="fill-rule:evenodd;"
points="124259,52095
124259,51504
124650,51504
124650,52095
124259,52095
" /> 
<polyline style="fill-rule:evenodd;"
points="111649,37095
111649,36504
112040,36504
112040,37095
111649,37095
" /> 
<polyline style="fill-rule:evenodd;"
points="112959,37095
112959,36504
113350,36504
113350,37095
112959,37095
" /> 
<polyline style="fill-rule:evenodd;"
points="115449,52095
115449,51504
115840,51504
115840,52095
115449,52095
" /> 
<polyline style="fill-rule:evenodd;"
points="116759,52095
116759,51504
117150,51504
117150,52095
116759,52095
" /> 
<polyline style="fill-rule:evenodd;"
points="91049,44595
91049,44004
91440,44004
91440,44595
91049,44595
" /> 
<polyline style="fill-rule:evenodd;"
points="92359,44595
92359,44004
92750,44004
92750,44595
92359,44595
" /> 
<polyline style="fill-rule:evenodd;"
points="107949,59595
107949,59004
108340,59004
108340,59595
107949,59595
" /> 
<polyline style="fill-rule:evenodd;"
points="109259,59595
109259,59004
109650,59004
109650,59595
109259,59595
" /> 
<polyline style="fill-rule:evenodd;"
points="107949,52095
107949,51504
108340,51504
108340,52095
107949,52095
" /> 
<polyline style="fill-rule:evenodd;"
points="109259,52095
109259,51504
109650,51504
109650,52095
109259,52095
" /> 
<polyline style="fill-rule:evenodd;"
points="104149,37095
104149,36504
104540,36504
104540,37095
104149,37095
" /> 
<polyline style="fill-rule:evenodd;"
points="105459,37095
105459,36504
105850,36504
105850,37095
105459,37095
" /> 
<polyline style="fill-rule:evenodd;"
points="106049,44595
106049,44004
106440,44004
106440,44595
106049,44595
" /> 
<polyline style="fill-rule:evenodd;"
points="107359,44595
107359,44004
107750,44004
107750,44595
107359,44595
" /> 
<polyline style="fill-rule:evenodd;"
points="68549,44595
68549,44004
68940,44004
68940,44595
68549,44595
" /> 
<polyline style="fill-rule:evenodd;"
points="69859,44595
69859,44004
70250,44004
70250,44595
69859,44595
" /> 
<polyline style="fill-rule:evenodd;"
points="98549,44595
98549,44004
98940,44004
98940,44595
98549,44595
" /> 
<polyline style="fill-rule:evenodd;"
points="99859,44595
99859,44004
100250,44004
100250,44595
99859,44595
" /> 
<polyline style="fill-rule:evenodd;"
points="96649,37095
96649,36504
97040,36504
97040,37095
96649,37095
" /> 
<polyline style="fill-rule:evenodd;"
points="97959,37095
97959,36504
98350,36504
98350,37095
97959,37095
" /> 
<polyline style="fill-rule:evenodd;"
points="99449,59595
99449,59004
99840,59004
99840,59595
99449,59595
" /> 
<polyline style="fill-rule:evenodd;"
points="100759,59595
100759,59004
101150,59004
101150,59595
100759,59595
" /> 
<polyline style="fill-rule:evenodd;"
points="86249,59595
86249,59004
86640,59004
86640,59595
86249,59595
" /> 
<polyline style="fill-rule:evenodd;"
points="87559,59595
87559,59004
87950,59004
87950,59595
87559,59595
" /> 
<polyline style="fill-rule:evenodd;"
points="37649,59595
37649,59004
38040,59004
38040,59595
37649,59595
" /> 
<polyline style="fill-rule:evenodd;"
points="38959,59595
38959,59004
39350,59004
39350,59595
38959,59595
" /> 
<polyline style="fill-rule:evenodd;"
points="83570,52704
83570,53295
83179,53295
83179,52704
83570,52704
" /> 
<polyline style="fill-rule:evenodd;"
points="82820,52704
82820,53295
82429,53295
82429,52704
82820,52704
" /> 
<polyline style="fill-rule:evenodd;"
points="76170,58504
76170,59095
75779,59095
75779,58504
76170,58504
" /> 
<polyline style="fill-rule:evenodd;"
points="75420,58504
75420,59095
75029,59095
75029,58504
75420,58504
" /> 
<polyline style="fill-rule:evenodd;"
points="80370,52704
80370,53295
79979,53295
79979,52704
80370,52704
" /> 
<polyline style="fill-rule:evenodd;"
points="79620,52704
79620,53295
79229,53295
79229,52704
79620,52704
" /> 
<polyline style="fill-rule:evenodd;"
points="83895,40170
83304,40170
83304,39779
83895,39779
83895,40170
" /> 
<polyline style="fill-rule:evenodd;"
points="83895,39420
83304,39420
83304,39029
83895,39029
83895,39420
" /> 
<polyline style="fill-rule:evenodd;"
points="81495,40170
80904,40170
80904,39779
81495,39779
81495,40170
" /> 
<polyline style="fill-rule:evenodd;"
points="81495,39420
80904,39420
80904,39029
81495,39029
81495,39420
" /> 
<polyline style="fill-rule:evenodd;"
points="85570,54104
85570,54695
85179,54695
85179,54104
85570,54104
" /> 
<polyline style="fill-rule:evenodd;"
points="84820,54104
84820,54695
84429,54695
84429,54104
84820,54104
" /> 
<polyline style="fill-rule:evenodd;"
points="66695,58270
66104,58270
66104,57879
66695,57879
66695,58270
" /> 
<polyline style="fill-rule:evenodd;"
points="66695,57520
66104,57520
66104,57129
66695,57129
66695,57520
" /> 
<polyline style="fill-rule:evenodd;"
points="67795,55870
67204,55870
67204,55479
67795,55479
67795,55870
" /> 
<polyline style="fill-rule:evenodd;"
points="67795,55120
67204,55120
67204,54729
67795,54729
67795,55120
" /> 
<polyline style="fill-rule:evenodd;"
points="65495,55870
64904,55870
64904,55479
65495,55479
65495,55870
" /> 
<polyline style="fill-rule:evenodd;"
points="65495,55120
64904,55120
64904,54729
65495,54729
65495,55120
" /> 
<polyline style="fill-rule:evenodd;"
points="84429,59095
84429,58504
84820,58504
84820,59095
84429,59095
" /> 
<polyline style="fill-rule:evenodd;"
points="85179,59095
85179,58504
85570,58504
85570,59095
85179,59095
" /> 
<polyline style="fill-rule:evenodd;"
points="64395,58270
63804,58270
63804,57879
64395,57879
64395,58270
" /> 
<polyline style="fill-rule:evenodd;"
points="64395,57520
63804,57520
63804,57129
64395,57129
64395,57520
" /> 
<polyline style="fill-rule:evenodd;"
points="63295,55870
62704,55870
62704,55479
63295,55479
63295,55870
" /> 
<polyline style="fill-rule:evenodd;"
points="63295,55120
62704,55120
62704,54729
63295,54729
63295,55120
" /> 
<polyline style="fill-rule:evenodd;"
points="93886,57283
93886,56692
94833,56692
94833,57283
93886,57283
" /> 
<polyline style="fill-rule:evenodd;"
points="96366,55708
96366,55117
97313,55117
97313,55708
96366,55708
" /> 
<polyline style="fill-rule:evenodd;"
points="96366,57282
96366,56691
97313,56691
97313,57282
96366,57282
" /> 
<polyline style="fill-rule:evenodd;"
points="93886,55708
93886,55117
94833,55117
94833,55708
93886,55708
" /> 
<polyline style="fill-rule:evenodd;"
points="85728,55838
85728,56331
85137,56331
85137,55838
85728,55838
" /> 
<polyline style="fill-rule:evenodd;"
points="84862,55838
84862,56331
84271,56331
84271,55838
84862,55838
" /> 
<polyline style="fill-rule:evenodd;"
points="85728,56468
85728,56961
85137,56961
85137,56468
85728,56468
" /> 
<polyline style="fill-rule:evenodd;"
points="84862,56468
84862,56961
84271,56961
84271,56468
84862,56468
" /> 
<polyline style="fill-rule:evenodd;"
points="122949,59595
122949,59004
123340,59004
123340,59595
122949,59595
" /> 
<polyline style="fill-rule:evenodd;"
points="124259,59595
124259,59004
124650,59004
124650,59595
124259,59595
" /> 
</g>
<g style="fill:#7F7F00; fill-opacity:1.0; 
stroke:#7F7F00; stroke-width:39.3701; stroke-opacity:1; 
stroke-linecap:round; stroke-linejoin:round;">
<circle cx="125550" cy="57000" r="803.815" /> 
<circle cx="126550" cy="55000" r="512.315" /> 
<circle cx="124050" cy="56000" r="512.315" /> 
<circle cx="123550" cy="57000" r="354.815" /> 
<circle cx="127550" cy="57000" r="354.815" /> 
<circle cx="71175" cy="42000" r="803.815" /> 
<circle cx="72175" cy="40000" r="512.315" /> 
<circle cx="69675" cy="41000" r="512.315" /> 
<circle cx="69175" cy="42000" r="354.815" /> 
<circle cx="73175" cy="42000" r="354.815" /> 
<circle cx="80550" cy="49500" r="803.815" /> 
<circle cx="81550" cy="47500" r="512.315" /> 
<circle cx="79050" cy="48500" r="512.315" /> 
<circle cx="78550" cy="49500" r="354.815" /> 
<circle cx="82550" cy="49500" r="354.815" /> 
<circle cx="91800" cy="34500" r="803.815" /> 
<circle cx="92800" cy="32500" r="512.315" /> 
<circle cx="90300" cy="33500" r="512.315" /> 
<circle cx="89800" cy="34500" r="354.815" /> 
<circle cx="93800" cy="34500" r="354.815" /> 
<circle cx="72112.5" cy="57000" r="803.815" /> 
<circle cx="73112.5" cy="55000" r="512.315" /> 
<circle cx="70612.5" cy="56000" r="512.315" /> 
<circle cx="70112.5" cy="57000" r="354.815" /> 
<circle cx="74112.5" cy="57000" r="354.815" /> 
<circle cx="99300" cy="34500" r="803.815" /> 
<circle cx="100300" cy="32500" r="512.315" /> 
<circle cx="97800" cy="33500" r="512.315" /> 
<circle cx="97300" cy="34500" r="354.815" /> 
<circle cx="101300" cy="34500" r="354.815" /> 
<circle cx="106800" cy="34500" r="803.815" /> 
<circle cx="107800" cy="32500" r="512.315" /> 
<circle cx="105300" cy="33500" r="512.315" /> 
<circle cx="104800" cy="34500" r="354.815" /> 
<circle cx="108800" cy="34500" r="354.815" /> 
<circle cx="110550" cy="57000" r="803.815" /> 
<circle cx="111550" cy="55000" r="512.315" /> 
<circle cx="109050" cy="56000" r="512.315" /> 
<circle cx="108550" cy="57000" r="354.815" /> 
<circle cx="112550" cy="57000" r="354.815" /> 
<circle cx="118050" cy="49500" r="803.815" /> 
<circle cx="119050" cy="47500" r="512.315" /> 
<circle cx="116550" cy="48500" r="512.315" /> 
<circle cx="116050" cy="49500" r="354.815" /> 
<circle cx="120050" cy="49500" r="354.815" /> 
<circle cx="50550" cy="49500" r="803.815" /> 
<circle cx="51550" cy="47500" r="512.315" /> 
<circle cx="49050" cy="48500" r="512.315" /> 
<circle cx="48550" cy="49500" r="354.815" /> 
<circle cx="52550" cy="49500" r="354.815" /> 
<circle cx="58050" cy="49500" r="803.815" /> 
<circle cx="59050" cy="47500" r="512.315" /> 
<circle cx="56550" cy="48500" r="512.315" /> 
<circle cx="56050" cy="49500" r="354.815" /> 
<circle cx="60050" cy="49500" r="354.815" /> 
<circle cx="65550" cy="49500" r="803.815" /> 
<circle cx="66550" cy="47500" r="512.315" /> 
<circle cx="64050" cy="48500" r="512.315" /> 
<circle cx="63550" cy="49500" r="354.815" /> 
<circle cx="67550" cy="49500" r="354.815" /> 
<circle cx="73050" cy="49500" r="803.815" /> 
<circle cx="74050" cy="47500" r="512.315" /> 
<circle cx="71550" cy="48500" r="512.315" /> 
<circle cx="71050" cy="49500" r="354.815" /> 
<circle cx="75050" cy="49500" r="354.815" /> 
<circle cx="63675" cy="42000" r="803.815" /> 
<circle cx="64675" cy="40000" r="512.315" /> 
<circle cx="62175" cy="41000" r="512.315" /> 
<circle cx="61675" cy="42000" r="354.815" /> 
<circle cx="65675" cy="42000" r="354.815" /> 
<circle cx="93675" cy="42000" r="803.815" /> 
<circle cx="94675" cy="40000" r="512.315" /> 
<circle cx="92175" cy="41000" r="512.315" /> 
<circle cx="91675" cy="42000" r="354.815" /> 
<circle cx="95675" cy="42000" r="354.815" /> 
<circle cx="101175" cy="42000" r="803.815" /> 
<circle cx="102175" cy="40000" r="512.315" /> 
<circle cx="99675" cy="41000" r="512.315" /> 
<circle cx="99175" cy="42000" r="354.815" /> 
<circle cx="103175" cy="42000" r="354.815" /> 
<circle cx="108675" cy="42000" r="803.815" /> 
<circle cx="109675" cy="40000" r="512.315" /> 
<circle cx="107175" cy="41000" r="512.315" /> 
<circle cx="106675" cy="42000" r="354.815" /> 
<circle cx="110675" cy="42000" r="354.815" /> 
<circle cx="88050" cy="49500" r="803.815" /> 
<circle cx="89050" cy="47500" r="512.315" /> 
<circle cx="86550" cy="48500" r="512.315" /> 
<circle cx="86050" cy="49500" r="354.815" /> 
<circle cx="90050" cy="49500" r="354.815" /> 
<circle cx="102113" cy="57000" r="803.815" /> 
<circle cx="103113" cy="55000" r="512.315" /> 
<circle cx="100613" cy="56000" r="512.315" /> 
<circle cx="100113" cy="57000" r="354.815" /> 
<circle cx="104113" cy="57000" r="354.815" /> 
<circle cx="103050" cy="49500" r="803.815" /> 
<circle cx="104050" cy="47500" r="512.315" /> 
<circle cx="101550" cy="48500" r="512.315" /> 
<circle cx="101050" cy="49500" r="354.815" /> 
<circle cx="105050" cy="49500" r="354.815" /> 
<circle cx="95550" cy="49500" r="803.815" /> 
<circle cx="96550" cy="47500" r="512.315" /> 
<circle cx="94050" cy="48500" r="512.315" /> 
<circle cx="93550" cy="49500" r="354.815" /> 
<circle cx="97550" cy="49500" r="354.815" /> 
<circle cx="86175" cy="42000" r="803.815" /> 
<circle cx="87175" cy="40000" r="512.315" /> 
<circle cx="84675" cy="41000" r="512.315" /> 
<circle cx="84175" cy="42000" r="354.815" /> 
<circle cx="88175" cy="42000" r="354.815" /> 
<circle cx="76800" cy="34500" r="803.815" /> 
<circle cx="77800" cy="32500" r="512.315" /> 
<circle cx="75300" cy="33500" r="512.315" /> 
<circle cx="74800" cy="34500" r="354.815" /> 
<circle cx="78800" cy="34500" r="354.815" /> 
<circle cx="58987.5" cy="57000" r="803.815" /> 
<circle cx="59987.5" cy="55000" r="512.315" /> 
<circle cx="57487.5" cy="56000" r="512.315" /> 
<circle cx="56987.5" cy="57000" r="354.815" /> 
<circle cx="60987.5" cy="57000" r="354.815" /> 
<circle cx="49612.5" cy="57000" r="803.815" /> 
<circle cx="50612.5" cy="55000" r="512.315" /> 
<circle cx="48112.5" cy="56000" r="512.315" /> 
<circle cx="47612.5" cy="57000" r="354.815" /> 
<circle cx="51612.5" cy="57000" r="354.815" /> 
<circle cx="118050" cy="57000" r="803.815" /> 
<circle cx="119050" cy="55000" r="512.315" /> 
<circle cx="116550" cy="56000" r="512.315" /> 
<circle cx="116050" cy="57000" r="354.815" /> 
<circle cx="120050" cy="57000" r="354.815" /> 
<circle cx="84300" cy="34500" r="803.815" /> 
<circle cx="85300" cy="32500" r="512.315" /> 
<circle cx="82800" cy="33500" r="512.315" /> 
<circle cx="82300" cy="34500" r="354.815" /> 
<circle cx="86300" cy="34500" r="354.815" /> 
<circle cx="40237.5" cy="57000" r="803.815" /> 
<circle cx="41237.5" cy="55000" r="512.315" /> 
<circle cx="38737.5" cy="56000" r="512.315" /> 
<circle cx="38237.5" cy="57000" r="354.815" /> 
<circle cx="42237.5" cy="57000" r="354.815" /> 
<circle cx="41175" cy="49500" r="803.815" /> 
<circle cx="42175" cy="47500" r="512.315" /> 
<circle cx="39675" cy="48500" r="512.315" /> 
<circle cx="39175" cy="49500" r="354.815" /> 
<circle cx="43175" cy="49500" r="354.815" /> 
<circle cx="39300" cy="34500" r="803.815" /> 
<circle cx="40300" cy="32500" r="512.315" /> 
<circle cx="37800" cy="33500" r="512.315" /> 
<circle cx="37300" cy="34500" r="354.815" /> 
<circle cx="41300" cy="34500" r="354.815" /> 
<circle cx="46800" cy="34500" r="803.815" /> 
<circle cx="47800" cy="32500" r="512.315" /> 
<circle cx="45300" cy="33500" r="512.315" /> 
<circle cx="44800" cy="34500" r="354.815" /> 
<circle cx="48800" cy="34500" r="354.815" /> 
<circle cx="54300" cy="34500" r="803.815" /> 
<circle cx="55300" cy="32500" r="512.315" /> 
<circle cx="52800" cy="33500" r="512.315" /> 
<circle cx="52300" cy="34500" r="354.815" /> 
<circle cx="56300" cy="34500" r="354.815" /> 
<circle cx="61800" cy="34500" r="803.815" /> 
<circle cx="62800" cy="32500" r="512.315" /> 
<circle cx="60300" cy="33500" r="512.315" /> 
<circle cx="59800" cy="34500" r="354.815" /> 
<circle cx="63800" cy="34500" r="354.815" /> 
<circle cx="69300" cy="34500" r="803.815" /> 
<circle cx="70300" cy="32500" r="512.315" /> 
<circle cx="67800" cy="33500" r="512.315" /> 
<circle cx="67300" cy="34500" r="354.815" /> 
<circle cx="71300" cy="34500" r="354.815" /> 
<circle cx="78675" cy="42000" r="803.815" /> 
<circle cx="79675" cy="40000" r="512.315" /> 
<circle cx="77175" cy="41000" r="512.315" /> 
<circle cx="76675" cy="42000" r="354.815" /> 
<circle cx="80675" cy="42000" r="354.815" /> 
<circle cx="114300" cy="34500" r="803.815" /> 
<circle cx="115300" cy="32500" r="512.315" /> 
<circle cx="112800" cy="33500" r="512.315" /> 
<circle cx="112300" cy="34500" r="354.815" /> 
<circle cx="116300" cy="34500" r="354.815" /> 
<circle cx="48675" cy="42000" r="803.815" /> 
<circle cx="49675" cy="40000" r="512.315" /> 
<circle cx="47175" cy="41000" r="512.315" /> 
<circle cx="46675" cy="42000" r="354.815" /> 
<circle cx="50675" cy="42000" r="354.815" /> 
<circle cx="40237.5" cy="42000" r="803.815" /> 
<circle cx="41237.5" cy="40000" r="512.315" /> 
<circle cx="38737.5" cy="41000" r="512.315" /> 
<circle cx="38237.5" cy="42000" r="354.815" /> 
<circle cx="42237.5" cy="42000" r="354.815" /> 
<circle cx="123675" cy="34500" r="803.815" /> 
<circle cx="124675" cy="32500" r="512.315" /> 
<circle cx="122175" cy="33500" r="512.315" /> 
<circle cx="121675" cy="34500" r="354.815" /> 
<circle cx="125675" cy="34500" r="354.815" /> 
<circle cx="116175" cy="42000" r="803.815" /> 
<circle cx="117175" cy="40000" r="512.315" /> 
<circle cx="114675" cy="41000" r="512.315" /> 
<circle cx="114175" cy="42000" r="354.815" /> 
<circle cx="118175" cy="42000" r="354.815" /> 
<circle cx="110550" cy="49500" r="803.815" /> 
<circle cx="111550" cy="47500" r="512.315" /> 
<circle cx="109050" cy="48500" r="512.315" /> 
<circle cx="108550" cy="49500" r="354.815" /> 
<circle cx="112550" cy="49500" r="354.815" /> 
<circle cx="56175" cy="42000" r="803.815" /> 
<circle cx="57175" cy="40000" r="512.315" /> 
<circle cx="54675" cy="41000" r="512.315" /> 
<circle cx="54175" cy="42000" r="354.815" /> 
<circle cx="58175" cy="42000" r="354.815" /> 
<circle cx="88987.5" cy="57000" r="803.815" /> 
<circle cx="89987.5" cy="55000" r="512.315" /> 
<circle cx="87487.5" cy="56000" r="512.315" /> 
<circle cx="86987.5" cy="57000" r="354.815" /> 
<circle cx="90987.5" cy="57000" r="354.815" /> 
<circle cx="124613" cy="42000" r="803.815" /> 
<circle cx="125613" cy="40000" r="512.315" /> 
<circle cx="123113" cy="41000" r="512.315" /> 
<circle cx="122613" cy="42000" r="354.815" /> 
<circle cx="126613" cy="42000" r="354.815" /> 
<circle cx="125550" cy="49500" r="803.815" /> 
<circle cx="126550" cy="47500" r="512.315" /> 
<circle cx="124050" cy="48500" r="512.315" /> 
<circle cx="123550" cy="49500" r="354.815" /> 
<circle cx="127550" cy="49500" r="354.815" /> 
</g> 
</svg>
