<?xml version="1.0" standalone="no"?>
 <!DOCTYPE svg PUBLIC "-//W3C//DTD SVG 1.1//EN" 
 "http://www.w3.org/Graphics/SVG/1.1/DTD/svg11.dtd"> 
<svg xmlns="http://www.w3.org/2000/svg" version="1.1" 
    width="41.9989cm" height="29.7002cm" viewBox="0 0 165350 116930 ">
<title>SVG Picture created as keyboard-F_SilkS.svg date 2014/07/19 17:30:37 </title>
  <desc>Picture generated by PCBNEW </desc>
<g style="fill:#000000; fill-opacity:1;stroke:#000000; stroke-opacity:1;
stroke-linecap:round; stroke-linejoin:round; "
 transform="translate(0 0) scale(1 1)">
</g>
<g style="fill:#000000; fill-opacity:0.0; 
stroke:#000000; stroke-width:39.3701; stroke-opacity:1; 
stroke-linecap:round; stroke-linejoin:round;">
<path d="M4000 4000
L161350 4000
L161350 112930
L4000 112930
L4000 4000
" />
<path d="M4700 4700
L160650 4700
L160650 112230
L4700 112230
L4700 4700
" />
<path d="M26470 4000
L26470 4700
" />
<path d="M15382 4552
L15097 4552
" />
<path d="M15240 4552
L15240 4052
L15192 4123
L15144 4171
L15097 4195
" />
<path d="M26470 112930
L26470 112230
" />
<path d="M15382 112782
L15097 112782
" />
<path d="M15240 112782
L15240 112282
L15192 112353
L15144 112401
L15097 112425
" />
<path d="M48940 4000
L48940 4700
" />
<path d="M37567 4100
L37590 4076
L37638 4052
L37757 4052
L37805 4076
L37829 4100
L37852 4147
L37852 4195
L37829 4266
L37543 4552
L37852 4552
" />
<path d="M48940 112930
L48940 112230
" />
<path d="M37567 112330
L37590 112306
L37638 112282
L37757 112282
L37805 112306
L37829 112330
L37852 112377
L37852 112425
L37829 112496
L37543 112782
L37852 112782
" />
<path d="M71410 4000
L71410 4700
" />
<path d="M60013 4052
L60322 4052
L60156 4242
L60227 4242
L60275 4266
L60299 4290
L60322 4338
L60322 4457
L60299 4504
L60275 4528
L60227 4552
L60084 4552
L60037 4528
L60013 4504
" />
<path d="M71410 112930
L71410 112230
" />
<path d="M60013 112282
L60322 112282
L60156 112472
L60227 112472
L60275 112496
L60299 112520
L60322 112568
L60322 112687
L60299 112734
L60275 112758
L60227 112782
L60084 112782
L60037 112758
L60013 112734
" />
<path d="M93880 4000
L93880 4700
" />
<path d="M82745 4219
L82745 4552
" />
<path d="M82626 4028
L82507 4385
L82816 4385
" />
<path d="M93880 112930
L93880 112230
" />
<path d="M82745 112449
L82745 112782
" />
<path d="M82626 112258
L82507 112615
L82816 112615
" />
<path d="M116350 4000
L116350 4700
" />
<path d="M105239 4052
L105000 4052
L104977 4290
L105000 4266
L105048 4242
L105167 4242
L105215 4266
L105239 4290
L105262 4338
L105262 4457
L105239 4504
L105215 4528
L105167 4552
L105048 4552
L105000 4528
L104977 4504
" />
<path d="M116350 112930
L116350 112230
" />
<path d="M105239 112282
L105000 112282
L104977 112520
L105000 112496
L105048 112472
L105167 112472
L105215 112496
L105239 112520
L105262 112568
L105262 112687
L105239 112734
L105215 112758
L105167 112782
L105048 112782
L105000 112758
L104977 112734
" />
<path d="M138820 4000
L138820 4700
" />
<path d="M127685 4052
L127590 4052
L127542 4076
L127518 4100
L127470 4171
L127447 4266
L127447 4457
L127470 4504
L127494 4528
L127542 4552
L127637 4552
L127685 4528
L127709 4504
L127732 4457
L127732 4338
L127709 4290
L127685 4266
L127637 4242
L127542 4242
L127494 4266
L127470 4290
L127447 4338
" />
<path d="M138820 112930
L138820 112230
" />
<path d="M127685 112282
L127590 112282
L127542 112306
L127518 112330
L127470 112401
L127447 112496
L127447 112687
L127470 112734
L127494 112758
L127542 112782
L127637 112782
L127685 112758
L127709 112734
L127732 112687
L127732 112568
L127709 112520
L127685 112496
L127637 112472
L127542 112472
L127494 112496
L127470 112520
L127447 112568
" />
<path d="M149893 4052
L150226 4052
L150012 4552
" />
<path d="M149893 112282
L150226 112282
L150012 112782
" />
<path d="M4000 25780
L4700 25780
" />
<path d="M4230 14949
L4469 14949
" />
<path d="M4183 15092
L4350 14592
L4516 15092
" />
<path d="M161350 25780
L160650 25780
" />
<path d="M160880 14949
L161119 14949
" />
<path d="M160833 15092
L161000 14592
L161166 15092
" />
<path d="M4000 47560
L4700 47560
" />
<path d="M4385 36610
L4457 36634
L4480 36658
L4504 36705
L4504 36777
L4480 36824
L4457 36848
L4409 36872
L4219 36872
L4219 36372
L4385 36372
L4433 36396
L4457 36420
L4480 36467
L4480 36515
L4457 36562
L4433 36586
L4385 36610
L4219 36610
" />
<path d="M161350 47560
L160650 47560
" />
<path d="M161035 36610
L161107 36634
L161130 36658
L161154 36705
L161154 36777
L161130 36824
L161107 36848
L161059 36872
L160869 36872
L160869 36372
L161035 36372
L161083 36396
L161107 36420
L161130 36467
L161130 36515
L161107 36562
L161083 36586
L161035 36610
L160869 36610
" />
<path d="M4000 69340
L4700 69340
" />
<path d="M4504 58604
L4480 58628
L4409 58652
L4361 58652
L4290 58628
L4242 58580
L4219 58533
L4195 58438
L4195 58366
L4219 58271
L4242 58223
L4290 58176
L4361 58152
L4409 58152
L4480 58176
L4504 58200
" />
<path d="M161350 69340
L160650 69340
" />
<path d="M161154 58604
L161130 58628
L161059 58652
L161011 58652
L160940 58628
L160892 58580
L160869 58533
L160845 58438
L160845 58366
L160869 58271
L160892 58223
L160940 58176
L161011 58152
L161059 58152
L161130 58176
L161154 58200
" />
<path d="M4000 91120
L4700 91120
" />
<path d="M4219 80432
L4219 79932
L4338 79932
L4409 79956
L4457 80003
L4480 80051
L4504 80146
L4504 80218
L4480 80313
L4457 80360
L4409 80408
L4338 80432
L4219 80432
" />
<path d="M161350 91120
L160650 91120
" />
<path d="M160869 80432
L160869 79932
L160988 79932
L161059 79956
L161107 80003
L161130 80051
L161154 80146
L161154 80218
L161130 80313
L161107 80360
L161059 80408
L160988 80432
L160869 80432
" />
<path d="M4242 101950
L4409 101950
" />
<path d="M4480 102212
L4242 102212
L4242 101712
L4480 101712
" />
<path d="M160892 101950
L161059 101950
" />
<path d="M161130 102212
L160892 102212
L160892 101712
L161130 101712
" />
<path d="M127800 110672
L127875 110072
L128017 110072
L128100 110101
L128150 110158
L128171 110215
L128185 110330
L128175 110415
L128132 110530
L128096 110587
L128032 110644
L127942 110672
L127800 110672
" />
<path d="M128657 110672
L128696 110358
L128675 110301
L128621 110272
L128507 110272
L128446 110301
" />
<path d="M128660 110644
L128600 110672
L128457 110672
L128403 110644
L128382 110587
L128389 110530
L128425 110472
L128485 110444
L128628 110444
L128689 110415
" />
<path d="M128907 110272
L129135 110272
" />
<path d="M129017 110072
L128953 110587
L128975 110644
L129028 110672
L129085 110672
" />
<path d="M129517 110644
L129457 110672
L129342 110672
L129289 110644
L129267 110587
L129296 110358
L129332 110301
L129392 110272
L129507 110272
L129560 110301
L129582 110358
L129575 110415
L129282 110472
" />
<path d="M129807 110615
L129832 110644
L129800 110672
L129775 110644
L129807 110615
L129800 110672
" />
<path d="M129846 110301
L129871 110330
L129839 110358
L129814 110330
L129846 110301
L129839 110358
" />
<path d="M119392 111872
L119392 111272
" />
<path d="M119735 111872
L119478 111530
" />
<path d="M119735 111272
L119392 111615
" />
<path d="M119992 111872
L119992 111472
" />
<path d="M119992 111272
L119964 111301
L119992 111330
L120021 111301
L119992 111272
L119992 111330
" />
<path d="M120621 111815
L120592 111844
L120507 111872
L120450 111872
L120364 111844
L120307 111787
L120278 111730
L120250 111615
L120250 111530
L120278 111415
L120307 111358
L120364 111301
L120450 111272
L120507 111272
L120592 111301
L120621 111330
" />
<path d="M121135 111872
L121135 111558
L121107 111501
L121050 111472
L120935 111472
L120878 111501
" />
<path d="M121135 111844
L121078 111872
L120935 111872
L120878 111844
L120850 111787
L120850 111730
L120878 111672
L120935 111644
L121078 111644
L121135 111615
" />
<path d="M121678 111872
L121678 111272
" />
<path d="M121678 111844
L121621 111872
L121507 111872
L121450 111844
L121421 111815
L121392 111758
L121392 111587
L121421 111530
L121450 111501
L121507 111472
L121621 111472
L121678 111501
" />
<path d="M122421 111558
L122621 111558
" />
<path d="M122707 111872
L122421 111872
L122421 111272
L122707 111272
" />
<path d="M122964 111815
L122992 111844
L122964 111872
L122935 111844
L122964 111815
L122964 111872
" />
<path d="M123249 111872
L123249 111272
L123392 111272
L123478 111301
L123535 111358
L123564 111415
L123592 111530
L123592 111615
L123564 111730
L123535 111787
L123478 111844
L123392 111872
L123249 111872
" />
<path d="M123849 111815
L123878 111844
L123849 111872
L123821 111844
L123849 111815
L123849 111872
" />
<path d="M124107 111701
L124392 111701
" />
<path d="M124049 111872
L124249 111272
L124449 111872
" />
<path d="M124649 111815
L124678 111844
L124649 111872
L124621 111844
L124649 111815
L124649 111872
" />
<path d="M152942 110672
L152778 110387
" />
<path d="M152600 110672
L152675 110072
L152903 110072
L152957 110101
L152982 110130
L153003 110187
L152992 110272
L152957 110330
L152925 110358
L152864 110387
L152635 110387
" />
<path d="M153432 110644
L153371 110672
L153257 110672
L153203 110644
L153182 110587
L153210 110358
L153246 110301
L153307 110272
L153421 110272
L153475 110301
L153496 110358
L153489 110415
L153196 110472
" />
<path d="M153707 110272
L153800 110672
L153992 110272
" />
<path d="M154178 110615
L154203 110644
L154171 110672
L154146 110644
L154178 110615
L154171 110672
" />
<path d="M154217 110301
L154242 110330
L154210 110358
L154185 110330
L154217 110301
L154210 110358
" />
<path d="M119364 110644
L119450 110672
L119592 110672
L119650 110644
L119678 110615
L119707 110558
L119707 110501
L119678 110444
L119650 110415
L119592 110387
L119478 110358
L119421 110330
L119392 110301
L119364 110244
L119364 110187
L119392 110130
L119421 110101
L119478 110072
L119621 110072
L119707 110101
" />
<path d="M119964 110672
L119964 110272
" />
<path d="M119964 110072
L119935 110101
L119964 110130
L119992 110101
L119964 110072
L119964 110130
" />
<path d="M120192 110272
L120507 110272
L120192 110672
L120507 110672
" />
<path d="M120964 110644
L120907 110672
L120792 110672
L120735 110644
L120707 110587
L120707 110358
L120735 110301
L120792 110272
L120907 110272
L120964 110301
L120992 110358
L120992 110415
L120707 110472
" />
<path d="M121250 110615
L121278 110644
L121250 110672
L121221 110644
L121250 110615
L121250 110672
" />
<path d="M121250 110301
L121278 110330
L121250 110358
L121221 110330
L121250 110301
L121250 110358
" />
<path d="M121964 110501
L122250 110501
" />
<path d="M121907 110672
L122107 110072
L122307 110672
" />
<path d="M122450 110072
L122821 110072
L122621 110301
L122707 110301
L122764 110330
L122792 110358
L122821 110415
L122821 110558
L122792 110615
L122764 110644
L122707 110672
L122535 110672
L122478 110644
L122450 110615
" />
<path d="M152592 111872
L152592 111272
" />
<path d="M153135 111872
L153135 111272
" />
<path d="M153135 111844
L153078 111872
L152964 111872
L152907 111844
L152878 111815
L152850 111758
L152850 111587
L152878 111530
L152907 111501
L152964 111472
L153078 111472
L153135 111501
" />
<path d="M153421 111815
L153450 111844
L153421 111872
L153392 111844
L153421 111815
L153421 111872
" />
<path d="M153421 111501
L153450 111530
L153421 111558
L153392 111530
L153421 111501
L153421 111558
" />
<path d="M154478 111872
L154135 111872
" />
<path d="M154307 111872
L154307 111272
L154249 111358
L154192 111415
L154135 111444
" />
<path d="M155164 111244
L154650 112015
" />
<path d="M155678 111872
L155335 111872
" />
<path d="M155507 111872
L155507 111272
L155449 111358
L155392 111415
L155335 111444
" />
<path d="M119389 108872
L119732 108872
" />
<path d="M119485 109472
L119560 108872
" />
<path d="M119857 109472
L119907 109072
" />
<path d="M119932 108872
L119900 108901
L119925 108930
L119957 108901
L119932 108872
L119925 108930
" />
<path d="M120107 109072
L120335 109072
" />
<path d="M120217 108872
L120153 109387
L120175 109444
L120228 109472
L120285 109472
" />
<path d="M120571 109472
L120517 109444
L120496 109387
L120560 108872
" />
<path d="M121032 109444
L120971 109472
L120857 109472
L120803 109444
L120782 109387
L120810 109158
L120846 109101
L120907 109072
L121021 109072
L121075 109101
L121096 109158
L121089 109215
L120796 109272
" />
<path d="M121321 109415
L121346 109444
L121314 109472
L121289 109444
L121321 109415
L121314 109472
" />
<path d="M121360 109101
L121385 109130
L121353 109158
L121328 109130
L121360 109101
L121353 109158
" />
<path d="M119592 106758
L119392 106758
" />
<path d="M119392 107072
L119392 106472
L119678 106472
" />
<path d="M119907 107072
L119907 106672
" />
<path d="M119907 106472
L119878 106501
L119907 106530
L119935 106501
L119907 106472
L119907 106530
" />
<path d="M120278 107072
L120221 107044
L120192 106987
L120192 106472
" />
<path d="M120735 107044
L120678 107072
L120564 107072
L120507 107044
L120478 106987
L120478 106758
L120507 106701
L120564 106672
L120678 106672
L120735 106701
L120764 106758
L120764 106815
L120478 106872
" />
<path d="M121021 107015
L121050 107044
L121021 107072
L120992 107044
L121021 107015
L121021 107072
" />
<path d="M121021 106701
L121050 106730
L121021 106758
L120992 106730
L121021 106701
L121021 106758
" />
<path d="M121764 107072
L121764 106472
" />
<path d="M121821 106844
L121992 107072
" />
<path d="M121992 106672
L121764 106901
" />
<path d="M122478 107044
L122421 107072
L122307 107072
L122250 107044
L122221 106987
L122221 106758
L122250 106701
L122307 106672
L122421 106672
L122478 106701
L122507 106758
L122507 106815
L122221 106872
" />
<path d="M122707 106672
L122850 107072
" />
<path d="M122992 106672
L122850 107072
L122792 107215
L122764 107244
L122707 107272
" />
<path d="M123221 107072
L123221 106472
" />
<path d="M123221 106701
L123278 106672
L123392 106672
L123450 106701
L123478 106730
L123507 106787
L123507 106958
L123478 107015
L123450 107044
L123392 107072
L123278 107072
L123221 107044
" />
<path d="M123850 107072
L123792 107044
L123764 107015
L123735 106958
L123735 106787
L123764 106730
L123792 106701
L123850 106672
L123935 106672
L123992 106701
L124021 106730
L124050 106787
L124050 106958
L124021 107015
L123992 107044
L123935 107072
L123850 107072
" />
<path d="M124564 107072
L124564 106758
L124535 106701
L124478 106672
L124364 106672
L124307 106701
" />
<path d="M124564 107044
L124507 107072
L124364 107072
L124307 107044
L124278 106987
L124278 106930
L124307 106872
L124364 106844
L124507 106844
L124564 106815
" />
<path d="M124850 107072
L124850 106672
" />
<path d="M124850 106787
L124878 106730
L124907 106701
L124964 106672
L125021 106672
" />
<path d="M125478 107072
L125478 106472
" />
<path d="M125478 107044
L125421 107072
L125307 107072
L125250 107044
L125221 107015
L125192 106958
L125192 106787
L125221 106730
L125250 106701
L125307 106672
L125421 106672
L125478 106701
" />
<path d="M125764 107015
L125792 107044
L125764 107072
L125735 107044
L125764 107015
L125764 107072
" />
<path d="M126050 107072
L126050 106472
" />
<path d="M126107 106844
L126278 107072
" />
<path d="M126278 106672
L126050 106901
" />
<path d="M126535 107072
L126535 106672
" />
<path d="M126535 106472
L126507 106501
L126535 106530
L126564 106501
L126535 106472
L126535 106530
" />
<path d="M127078 107044
L127021 107072
L126907 107072
L126850 107044
L126821 107015
L126792 106958
L126792 106787
L126821 106730
L126850 106701
L126907 106672
L127021 106672
L127078 106701
" />
<path d="M127592 107072
L127592 106758
L127564 106701
L127507 106672
L127392 106672
L127335 106701
" />
<path d="M127592 107044
L127535 107072
L127392 107072
L127335 107044
L127307 106987
L127307 106930
L127335 106872
L127392 106844
L127535 106844
L127592 106815
" />
<path d="M128135 107072
L128135 106472
" />
<path d="M128135 107044
L128078 107072
L127964 107072
L127907 107044
L127878 107015
L127850 106958
L127850 106787
L127878 106730
L127907 106701
L127964 106672
L128078 106672
L128135 106701
" />
<path d="M128278 107130
L128735 107130
" />
<path d="M128878 106672
L128878 107272
" />
<path d="M128878 106701
L128935 106672
L129050 106672
L129107 106701
L129135 106730
L129164 106787
L129164 106958
L129135 107015
L129107 107044
L129050 107072
L128935 107072
L128878 107044
" />
<path d="M129678 107044
L129621 107072
L129507 107072
L129450 107044
L129421 107015
L129392 106958
L129392 106787
L129421 106730
L129450 106701
L129507 106672
L129621 106672
L129678 106701
" />
<path d="M129935 107072
L129935 106472
" />
<path d="M129935 106701
L129992 106672
L130107 106672
L130164 106701
L130192 106730
L130221 106787
L130221 106958
L130192 107015
L130164 107044
L130107 107072
L129992 107072
L129935 107044
" />
<path d="M119364 108244
L119450 108272
L119592 108272
L119650 108244
L119678 108215
L119707 108158
L119707 108101
L119678 108044
L119650 108015
L119592 107987
L119478 107958
L119421 107930
L119392 107901
L119364 107844
L119364 107787
L119392 107730
L119421 107701
L119478 107672
L119621 107672
L119707 107701
" />
<path d="M119964 108272
L119964 107672
" />
<path d="M120221 108272
L120221 107958
L120192 107901
L120135 107872
L120050 107872
L119992 107901
L119964 107930
" />
<path d="M120735 108244
L120678 108272
L120564 108272
L120507 108244
L120478 108187
L120478 107958
L120507 107901
L120564 107872
L120678 107872
L120735 107901
L120764 107958
L120764 108015
L120478 108072
" />
<path d="M121250 108244
L121192 108272
L121078 108272
L121021 108244
L120992 108187
L120992 107958
L121021 107901
L121078 107872
L121192 107872
L121250 107901
L121278 107958
L121278 108015
L120992 108072
" />
<path d="M121450 107872
L121678 107872
" />
<path d="M121535 107672
L121535 108187
L121564 108244
L121621 108272
L121678 108272
" />
<path d="M121878 108215
L121907 108244
L121878 108272
L121850 108244
L121878 108215
L121878 108272
" />
<path d="M121878 107901
L121907 107930
L121878 107958
L121850 107930
L121878 107901
L121878 107958
" />
<path d="M118650 106230
L118650 112230
" />
<path d="M118650 106230
L160650 106230
" />
<path d="M118650 106230
L160650 106230
" />
<path d="M118650 108630
L160650 108630
" />
<path d="M151850 109830
L151850 112230
" />
<path d="M118650 111030
L160650 111030
" />
<path d="M118650 109830
L160650 109830
" />
<path d="M125250 109830
L125250 111030
" />
</g>
<g style="fill:#FFFF00; fill-opacity:0.0; 
stroke:#FFFF00; stroke-width:39.0157; stroke-opacity:1; 
stroke-linecap:round; stroke-linejoin:round;">
<path d="M123700 60000
L123700 60100
" />
<path d="M28500 60000
L28500 60100
" />
<path d="M123000 60600
L123200 60600
" />
<path d="M123000 31000
L123200 31000
" />
</g>
<g style="fill:#009F9F; fill-opacity:0.0; 
stroke:#009F9F; stroke-width:120; stroke-opacity:1; 
stroke-linecap:round; stroke-linejoin:round;">
<path d="M58528 59304
L58328 59304
" />
<path d="M58328 59723
L58328 58923
L58614 58923
" />
<path d="M58928 59723
L58871 59685
L58842 59647
L58814 59571
L58814 59342
L58842 59266
L58871 59228
L58928 59190
L59014 59190
L59071 59228
L59100 59266
L59128 59342
L59128 59571
L59100 59647
L59071 59685
L59014 59723
L58928 59723
" />
<path d="M59385 59723
L59385 59190
" />
<path d="M59385 59342
L59414 59266
L59442 59228
L59500 59190
L59557 59190
" />
<path d="M60185 59685
L60271 59723
L60414 59723
L60471 59685
L60500 59647
L60528 59571
L60528 59495
L60500 59419
L60471 59380
L60414 59342
L60300 59304
L60242 59266
L60214 59228
L60185 59152
L60185 59076
L60214 59000
L60242 58961
L60300 58923
L60442 58923
L60528 58961
" />
<path d="M61042 59685
L60985 59723
L60871 59723
L60814 59685
L60785 59647
L60757 59571
L60757 59342
L60785 59266
L60814 59228
L60871 59190
L60985 59190
L61042 59228
" />
<path d="M61300 59723
L61300 59190
" />
<path d="M61300 58923
L61271 58961
L61300 59000
L61328 58961
L61300 58923
L61300 59000
" />
<path d="M61814 59685
L61757 59723
L61642 59723
L61585 59685
L61557 59609
L61557 59304
L61585 59228
L61642 59190
L61757 59190
L61814 59228
L61842 59304
L61842 59380
L61557 59457
" />
<path d="M62100 59190
L62100 59723
" />
<path d="M62100 59266
L62128 59228
L62185 59190
L62271 59190
L62328 59228
L62357 59304
L62357 59723
" />
<path d="M62900 59685
L62842 59723
L62728 59723
L62671 59685
L62642 59647
L62614 59571
L62614 59342
L62642 59266
L62671 59228
L62728 59190
L62842 59190
L62900 59228
" />
<path d="M63385 59685
L63328 59723
L63214 59723
L63157 59685
L63128 59609
L63128 59304
L63157 59228
L63214 59190
L63328 59190
L63385 59228
L63414 59304
L63414 59380
L63128 59457
" />
<path d="M63671 59647
L63700 59685
L63671 59723
L63642 59685
L63671 59647
L63671 59723
" />
<path d="M63671 59419
L63642 58961
L63671 58923
L63700 58961
L63671 59419
L63671 58923
" />
<path d="M89614 59723
L89614 58923
L89757 58923
L89842 58961
L89900 59038
L89928 59114
L89957 59266
L89957 59380
L89928 59533
L89900 59609
L89842 59685
L89757 59723
L89614 59723
" />
<path d="M90300 59723
L90242 59685
L90214 59647
L90185 59571
L90185 59342
L90214 59266
L90242 59228
L90300 59190
L90385 59190
L90442 59228
L90471 59266
L90500 59342
L90500 59571
L90471 59647
L90442 59685
L90385 59723
L90300 59723
" />
<path d="M90757 59190
L90757 59723
" />
<path d="M90757 59266
L90785 59228
L90842 59190
L90928 59190
L90985 59228
L91014 59304
L91014 59723
" />
<path d="M91328 58923
L91271 59076
" />
<path d="M91500 59190
L91728 59190
" />
<path d="M91585 58923
L91585 59609
L91614 59685
L91671 59723
L91728 59723
" />
<path d="M92385 59723
L92385 58923
L92614 58923
L92671 58961
L92700 59000
L92728 59076
L92728 59190
L92700 59266
L92671 59304
L92614 59342
L92385 59342
" />
<path d="M93242 59723
L93242 59304
L93214 59228
L93157 59190
L93042 59190
L92985 59228
" />
<path d="M93242 59685
L93185 59723
L93042 59723
L92985 59685
L92957 59609
L92957 59533
L92985 59457
L93042 59419
L93185 59419
L93242 59380
" />
<path d="M93528 59190
L93528 59723
" />
<path d="M93528 59266
L93557 59228
L93614 59190
L93700 59190
L93757 59228
L93785 59304
L93785 59723
" />
<path d="M94071 59723
L94071 59190
" />
<path d="M94071 58923
L94042 58961
L94071 59000
L94100 58961
L94071 58923
L94071 59000
" />
<path d="M94614 59685
L94557 59723
L94442 59723
L94385 59685
L94357 59647
L94328 59571
L94328 59342
L94357 59266
L94385 59228
L94442 59190
L94557 59190
L94614 59228
" />
</g>
<g style="fill:#009F9F; fill-opacity:0.0; 
stroke:#009F9F; stroke-width:78.7402; stroke-opacity:1; 
stroke-linecap:round; stroke-linejoin:round;">
<path d="M121870 44402
L121870 44215
" />
<path d="M122039 44440
L121448 44309
L122039 44177
" />
<path d="M121645 43746
L122235 43746
" />
<path d="M121673 43746
L121645 43709
L121645 43634
L121673 43596
L121701 43577
L121757 43559
L121926 43559
L121982 43577
L122010 43596
L122039 43634
L122039 43709
L122010 43746
" />
<path d="M122039 43390
L121645 43390
" />
<path d="M121757 43390
L121701 43371
L121673 43352
L121645 43315
L121645 43277
" />
<path d="M122039 43090
L122010 43127
L121982 43146
L121926 43165
L121757 43165
L121701 43146
L121673 43127
L121645 43090
L121645 43034
L121673 42996
L121701 42977
L121757 42959
L121926 42959
L121982 42977
L122010 42996
L122039 43034
L122039 43090
" />
<path d="M121645 42621
L122123 42621
L122179 42640
L122207 42659
L122235 42696
L122235 42753
L122207 42790
" />
<path d="M122010 42621
L122039 42659
L122039 42734
L122010 42771
L121982 42790
L121926 42809
L121757 42809
L121701 42790
L121673 42771
L121645 42734
L121645 42659
L121673 42621
" />
<path d="M122039 42434
L121645 42434
" />
<path d="M121757 42434
L121701 42415
L121673 42396
L121645 42359
L121645 42321
" />
<path d="M122039 42021
L121729 42021
L121673 42040
L121645 42078
L121645 42153
L121673 42190
" />
<path d="M122010 42021
L122039 42059
L122039 42153
L122010 42190
L121954 42209
L121898 42209
L121842 42190
L121814 42153
L121814 42059
L121785 42021
" />
<path d="M122039 41834
L121645 41834
" />
<path d="M121701 41834
L121673 41815
L121645 41778
L121645 41721
L121673 41684
L121729 41665
L122039 41665
" />
<path d="M121729 41665
L121673 41646
L121645 41609
L121645 41553
L121673 41515
L121729 41496
L122039 41496
" />
<path d="M122039 41309
L121645 41309
" />
<path d="M121701 41309
L121673 41290
L121645 41253
L121645 41196
L121673 41159
L121729 41140
L122039 41140
" />
<path d="M121729 41140
L121673 41121
L121645 41084
L121645 41028
L121673 40990
L121729 40971
L122039 40971
" />
<path d="M122039 40615
L121729 40615
L121673 40634
L121645 40672
L121645 40747
L121673 40784
" />
<path d="M122010 40615
L122039 40653
L122039 40747
L122010 40784
L121954 40803
L121898 40803
L121842 40784
L121814 40747
L121814 40653
L121785 40615
" />
<path d="M122039 40428
L121448 40428
" />
<path d="M121673 40428
L121645 40390
L121645 40315
L121673 40278
L121701 40259
L121757 40240
L121926 40240
L121982 40259
L122010 40278
L122039 40315
L122039 40390
L122010 40428
" />
<path d="M122039 40015
L122010 40053
L121954 40072
L121448 40072
" />
<path d="M122010 39715
L122039 39753
L122039 39828
L122010 39865
L121954 39884
L121729 39884
L121673 39865
L121645 39828
L121645 39753
L121673 39715
L121729 39697
L121785 39697
L121842 39884
" />
<path d="M122550 45490
L122944 45490
" />
<path d="M122325 45583
L122747 45677
L122747 45433
" />
<path d="M122410 45302
L122382 45283
L122353 45246
L122353 45152
L122382 45115
L122410 45096
L122466 45077
L122522 45077
L122607 45096
L122944 45321
L122944 45077
" />
<path d="M122944 44927
L122353 44627
" />
<path d="M122353 44871
L122382 44834
L122438 44815
L122494 44834
L122522 44871
L122494 44908
L122438 44927
L122382 44908
L122353 44871
" />
<path d="M122916 44646
L122860 44627
L122803 44646
L122775 44684
L122803 44721
L122860 44740
L122916 44721
L122944 44684
L122916 44646
" />
<path d="M122944 44159
L122353 44159
" />
<path d="M122719 44121
L122944 44009
" />
<path d="M122550 44009
L122775 44159
" />
<path d="M122916 43690
L122944 43727
L122944 43802
L122916 43840
L122860 43859
L122635 43859
L122578 43840
L122550 43802
L122550 43727
L122578 43690
L122635 43671
L122691 43671
L122747 43859
" />
<path d="M122550 43540
L122944 43446
" />
<path d="M122550 43352
L122944 43446
L123085 43484
L123113 43502
L123141 43540
" />
<path d="M122944 43202
L122353 43202
" />
<path d="M122578 43202
L122550 43165
L122550 43090
L122578 43052
L122607 43034
L122663 43015
L122832 43015
L122888 43034
L122916 43052
L122944 43090
L122944 43165
L122916 43202
" />
<path d="M122944 42790
L122916 42828
L122888 42846
L122832 42865
L122663 42865
L122607 42846
L122578 42828
L122550 42790
L122550 42734
L122578 42696
L122607 42678
L122663 42659
L122832 42659
L122888 42678
L122916 42696
L122944 42734
L122944 42790
" />
<path d="M122944 42321
L122635 42321
L122578 42340
L122550 42378
L122550 42453
L122578 42490
" />
<path d="M122916 42321
L122944 42359
L122944 42453
L122916 42490
L122860 42509
L122803 42509
L122747 42490
L122719 42453
L122719 42359
L122691 42321
" />
<path d="M122944 42134
L122550 42134
" />
<path d="M122663 42134
L122607 42115
L122578 42096
L122550 42059
L122550 42021
" />
<path d="M122944 41721
L122353 41721
" />
<path d="M122916 41721
L122944 41759
L122944 41834
L122916 41871
L122888 41890
L122832 41909
L122663 41909
L122607 41890
L122578 41871
L122550 41834
L122550 41759
L122578 41721
" />
<path d="M122550 41290
L122550 41140
" />
<path d="M122944 41234
L122438 41234
L122382 41215
L122353 41178
L122353 41140
" />
<path d="M122944 40953
L122916 40990
L122888 41009
L122832 41028
L122663 41028
L122607 41009
L122578 40990
L122550 40953
L122550 40897
L122578 40859
L122607 40840
L122663 40822
L122832 40822
L122888 40840
L122916 40859
L122944 40897
L122944 40953
" />
<path d="M122944 40653
L122550 40653
" />
<path d="M122663 40653
L122607 40634
L122578 40615
L122550 40578
L122550 40540
" />
<path d="M122944 40109
L122353 40109
L122353 40015
L122382 39959
L122438 39922
L122494 39903
L122607 39884
L122691 39884
L122803 39903
L122860 39922
L122916 39959
L122944 40015
L122944 40109
" />
<path d="M122550 39753
L122944 39659
L122550 39565
" />
<path d="M122944 39359
L122916 39397
L122888 39415
L122832 39434
L122663 39434
L122607 39415
L122578 39397
L122550 39359
L122550 39303
L122578 39265
L122607 39247
L122663 39228
L122832 39228
L122888 39247
L122916 39265
L122944 39303
L122944 39359
" />
<path d="M122944 39059
L122550 39059
" />
<path d="M122663 39059
L122607 39040
L122578 39022
L122550 38984
L122550 38947
" />
<path d="M122944 38647
L122635 38647
L122578 38666
L122550 38703
L122550 38778
L122578 38816
" />
<path d="M122916 38647
L122944 38684
L122944 38778
L122916 38816
L122860 38834
L122803 38834
L122747 38816
L122719 38778
L122719 38684
L122691 38647
" />
<path d="M122944 38459
L122353 38459
" />
<path d="M122719 38422
L122944 38309
" />
<path d="M122550 38309
L122775 38459
" />
<path d="M122888 38141
L122916 38122
L122944 38141
L122916 38159
L122888 38141
L122944 38141
" />
</g>
<g style="fill:#009F9F; fill-opacity:0.0; 
stroke:#009F9F; stroke-width:393.701; stroke-opacity:1; 
stroke-linecap:round; stroke-linejoin:round;">
<path d="M122976 37487
L121532 37487
" />
<path d="M121739 37487
L121635 37412
L121532 37262
L121532 37037
L121635 36887
L121842 36812
L122976 36812
" />
<path d="M121842 36812
L121635 36737
L121532 36587
L121532 36362
L121635 36212
L121842 36137
L122976 36137
" />
<path d="M122976 34712
L121842 34712
L121635 34787
L121532 34937
L121532 35237
L121635 35387
" />
<path d="M122873 34712
L122976 34862
L122976 35237
L122873 35387
L122667 35462
L122460 35462
L122254 35387
L122151 35237
L122151 34862
L122048 34712
" />
<path d="M121532 33287
L122976 33287
" />
<path d="M120707 33662
L122254 34037
L122254 33062
" />
<path d="M121017 32537
L120914 32462
L120811 32312
L120811 31937
L120914 31787
L121017 31712
L121223 31637
L121429 31637
L121739 31712
L122976 32612
L122976 31637
" />
</g>
<g style="fill:#009F9F; fill-opacity:0.0; 
stroke:#009F9F; stroke-width:120; stroke-opacity:1; 
stroke-linecap:round; stroke-linejoin:round;">
<path d="M29395 60071
L29395 59785
" />
<path d="M29623 60128
L28823 59928
L29623 59728
" />
<path d="M29623 59271
L28823 59271
" />
<path d="M29585 59271
L29623 59328
L29623 59442
L29585 59499
L29547 59528
L29471 59557
L29242 59557
L29166 59528
L29128 59499
L29090 59442
L29090 59328
L29128 59271
" />
<path d="M29623 58728
L29204 58728
L29128 58757
L29090 58814
L29090 58928
L29128 58985
" />
<path d="M29585 58728
L29623 58785
L29623 58928
L29585 58985
L29509 59014
L29433 59014
L29357 58985
L29319 58928
L29319 58785
L29280 58728
" />
<path d="M29623 58442
L29090 58442
" />
<path d="M29166 58442
L29128 58414
L29090 58357
L29090 58271
L29128 58214
L29204 58185
L29623 58185
" />
<path d="M29204 58185
L29128 58157
L29090 58100
L29090 58014
L29128 57957
L29204 57928
L29623 57928
" />
<path d="M29585 57214
L29623 57128
L29623 56985
L29585 56928
L29547 56900
L29471 56871
L29395 56871
L29319 56900
L29280 56928
L29242 56985
L29204 57100
L29166 57157
L29128 57185
L29052 57214
L28976 57214
L28900 57185
L28861 57157
L28823 57100
L28823 56957
L28861 56871
" />
<path d="M29585 56357
L29623 56414
L29623 56528
L29585 56585
L29547 56614
L29471 56642
L29242 56642
L29166 56614
L29128 56585
L29090 56528
L29090 56414
L29128 56357
" />
<path d="M29623 56099
L28823 56099
" />
<path d="M29623 55842
L29204 55842
L29128 55871
L29090 55928
L29090 56014
L29128 56071
L29166 56099
" />
<path d="M29090 55614
L29623 55499
L29242 55385
L29623 55271
L29090 55157
" />
<path d="M29623 54671
L29204 54671
L29128 54699
L29090 54757
L29090 54871
L29128 54928
" />
<path d="M29585 54671
L29623 54728
L29623 54871
L29585 54928
L29509 54957
L29433 54957
L29357 54928
L29319 54871
L29319 54728
L29280 54671
" />
<path d="M29623 54385
L29090 54385
" />
<path d="M29242 54385
L29166 54357
L29128 54328
L29090 54271
L29090 54214
" />
<path d="M29090 54099
L29090 53871
" />
<path d="M28823 54014
L29509 54014
L29585 53985
L29623 53928
L29623 53871
" />
<path d="M29090 53728
L29090 53414
L29623 53728
L29623 53414
" />
<path d="M29623 52242
L29623 52271
L29585 52328
L29471 52414
L29242 52557
L29128 52614
L29014 52642
L28938 52642
L28861 52614
L28823 52557
L28823 52528
L28861 52471
L28938 52442
L28976 52442
L29052 52471
L29090 52499
L29242 52671
L29280 52699
L29357 52728
L29471 52728
L29547 52699
L29585 52671
L29623 52614
L29623 52528
L29585 52471
L29547 52442
L29395 52357
L29280 52328
L29204 52328
" />
<path d="M29623 51528
L28823 51528
L29395 51328
L28823 51128
L29623 51128
" />
<path d="M29623 50842
L29090 50842
" />
<path d="M28823 50842
L28861 50871
L28900 50842
L28861 50814
L28823 50842
L28900 50842
" />
<path d="M29585 50300
L29623 50357
L29623 50471
L29585 50528
L29547 50557
L29471 50585
L29242 50585
L29166 50557
L29128 50528
L29090 50471
L29090 50357
L29128 50300
" />
<path d="M29623 50042
L28823 50042
" />
<path d="M29623 49785
L29204 49785
L29128 49814
L29090 49871
L29090 49957
L29128 50014
L29166 50042
" />
<path d="M29623 49242
L29204 49242
L29128 49271
L29090 49328
L29090 49442
L29128 49500
" />
<path d="M29585 49242
L29623 49300
L29623 49442
L29585 49500
L29509 49528
L29433 49528
L29357 49500
L29319 49442
L29319 49300
L29280 49242
" />
<path d="M29585 48728
L29623 48785
L29623 48900
L29585 48957
L29509 48985
L29204 48985
L29128 48957
L29090 48900
L29090 48785
L29128 48728
L29204 48700
L29280 48700
L29357 48985
" />
<path d="M29623 48357
L29585 48414
L29509 48442
L28823 48442
" />
<path d="M28861 47357
L28823 47414
L28823 47499
L28861 47585
L28938 47642
L29014 47671
L29166 47699
L29280 47699
L29433 47671
L29509 47642
L29585 47585
L29623 47499
L29623 47442
L29585 47357
L29547 47328
L29280 47328
L29280 47442
" />
<path d="M29623 46985
L29585 47042
L29547 47071
L29471 47099
L29242 47099
L29166 47071
L29128 47042
L29090 46985
L29090 46899
L29128 46842
L29166 46814
L29242 46785
L29471 46785
L29547 46814
L29585 46842
L29623 46899
L29623 46985
" />
<path d="M29623 46528
L28823 46528
" />
<path d="M29128 46528
L29090 46471
L29090 46357
L29128 46299
L29166 46271
L29242 46242
L29471 46242
L29547 46271
L29585 46299
L29623 46357
L29623 46471
L29585 46528
" />
<path d="M29585 45757
L29623 45814
L29623 45928
L29585 45985
L29509 46014
L29204 46014
L29128 45985
L29090 45928
L29090 45814
L29128 45757
L29204 45728
L29280 45728
L29357 46014
" />
<path d="M29623 45385
L29585 45442
L29509 45471
L28823 45471
" />
<path d="M29623 45157
L29090 45157
" />
<path d="M28823 45157
L28861 45185
L28900 45157
L28861 45128
L28823 45157
L28900 45157
" />
<path d="M30863 57228
L30482 57428
" />
<path d="M30863 57571
L30063 57571
L30063 57342
L30101 57285
L30140 57257
L30216 57228
L30330 57228
L30406 57257
L30444 57285
L30482 57342
L30482 57571
" />
<path d="M30825 56742
L30863 56800
L30863 56914
L30825 56971
L30749 57000
L30444 57000
L30368 56971
L30330 56914
L30330 56800
L30368 56742
L30444 56714
L30520 56714
L30597 57000
" />
<path d="M30330 56514
L30863 56371
L30330 56228
" />
<path d="M30863 56000
L30330 56000
" />
<path d="M30063 56000
L30101 56028
L30140 56000
L30101 55971
L30063 56000
L30140 56000
" />
<path d="M30825 55742
L30863 55685
L30863 55571
L30825 55514
L30749 55485
L30711 55485
L30635 55514
L30597 55571
L30597 55657
L30559 55714
L30482 55742
L30444 55742
L30368 55714
L30330 55657
L30330 55571
L30368 55514
" />
<path d="M30863 55228
L30330 55228
" />
<path d="M30063 55228
L30101 55257
L30140 55228
L30101 55200
L30063 55228
L30140 55228
" />
<path d="M30863 54857
L30825 54914
L30787 54942
L30711 54971
L30482 54971
L30406 54942
L30368 54914
L30330 54857
L30330 54771
L30368 54714
L30406 54685
L30482 54657
L30711 54657
L30787 54685
L30825 54714
L30863 54771
L30863 54857
" />
<path d="M30330 54400
L30863 54400
" />
<path d="M30406 54400
L30368 54371
L30330 54314
L30330 54228
L30368 54171
L30444 54142
L30863 54142
" />
<path d="M30140 53428
L30101 53400
L30063 53342
L30063 53200
L30101 53142
L30140 53114
L30216 53085
L30292 53085
L30406 53114
L30863 53457
L30863 53085
" />
<path d="M30063 52714
L30063 52657
L30101 52600
L30140 52571
L30216 52542
L30368 52514
L30559 52514
L30711 52542
L30787 52571
L30825 52600
L30863 52657
L30863 52714
L30825 52771
L30787 52800
L30711 52828
L30559 52857
L30368 52857
L30216 52828
L30140 52800
L30101 52771
L30063 52714
" />
<path d="M30863 51942
L30863 52285
" />
<path d="M30863 52114
L30063 52114
L30178 52171
L30254 52228
L30292 52285
" />
<path d="M30330 51428
L30863 51428
" />
<path d="M30025 51571
L30597 51714
L30597 51342
" />
<path d="M30559 51114
L30559 50657
" />
<path d="M30063 50257
L30063 50200
L30101 50142
L30140 50114
L30216 50085
L30368 50057
L30559 50057
L30711 50085
L30787 50114
L30825 50142
L30863 50200
L30863 50257
L30825 50314
L30787 50342
L30711 50371
L30559 50400
L30368 50400
L30216 50371
L30140 50342
L30101 50314
L30063 50257
" />
<path d="M30063 49857
L30063 49457
L30863 49714
" />
<path d="M30559 49228
L30559 48771
" />
<path d="M30063 48371
L30063 48314
L30101 48257
L30140 48228
L30216 48200
L30368 48171
L30559 48171
L30711 48200
L30787 48228
L30825 48257
L30863 48314
L30863 48371
L30825 48428
L30787 48457
L30711 48485
L30559 48514
L30368 48514
L30216 48485
L30140 48457
L30101 48428
L30063 48371
" />
<path d="M30063 47971
L30063 47571
L30863 47828
" />
<path d="M120223 58857
L119423 58857
" />
<path d="M119690 58571
L120223 58571
" />
<path d="M119766 58571
L119728 58542
L119690 58485
L119690 58400
L119728 58342
L119804 58314
L120223 58314
" />
<path d="M120185 58057
L120223 58000
L120223 57885
L120185 57828
L120109 57800
L120071 57800
L119995 57828
L119957 57885
L119957 57971
L119919 58028
L119842 58057
L119804 58057
L119728 58028
L119690 57971
L119690 57885
L119728 57828
" />
<path d="M119690 57542
L120490 57542
" />
<path d="M119728 57542
L119690 57485
L119690 57371
L119728 57314
L119766 57285
L119842 57257
L120071 57257
L120147 57285
L120185 57314
L120223 57371
L120223 57485
L120185 57542
" />
<path d="M120223 57000
L119690 57000
" />
<path d="M119423 57000
L119461 57028
L119500 57000
L119461 56971
L119423 57000
L119500 57000
" />
<path d="M120223 56714
L119690 56714
" />
<path d="M119842 56714
L119766 56685
L119728 56657
L119690 56600
L119690 56542
" />
<path d="M120185 56114
L120223 56171
L120223 56285
L120185 56342
L120109 56371
L119804 56371
L119728 56342
L119690 56285
L119690 56171
L119728 56114
L119804 56085
L119880 56085
L119957 56371
" />
<path d="M120223 55571
L119423 55571
" />
<path d="M120185 55571
L120223 55628
L120223 55742
L120185 55800
L120147 55828
L120071 55857
L119842 55857
L119766 55828
L119728 55800
L119690 55742
L119690 55628
L119728 55571
" />
<path d="M120223 54828
L119423 54828
" />
<path d="M119728 54828
L119690 54771
L119690 54657
L119728 54600
L119766 54571
L119842 54542
L120071 54542
L120147 54571
L120185 54600
L120223 54657
L120223 54771
L120185 54828
" />
<path d="M119690 54342
L120223 54200
" />
<path d="M119690 54057
L120223 54200
L120414 54257
L120452 54285
L120490 54342
" />
<path d="M120147 53828
L120185 53800
L120223 53828
L120185 53857
L120147 53828
L120223 53828
" />
<path d="M119728 53828
L119766 53800
L119804 53828
L119766 53857
L119728 53828
L119804 53828
" />
<path d="M120663 58685
L121235 58685
L121349 58714
L121425 58771
L121463 58857
L121463 58914
" />
<path d="M121463 58400
L120663 58400
L120663 58257
L120701 58171
L120778 58114
L120854 58085
L121006 58057
L121120 58057
L121273 58085
L121349 58114
L121425 58171
L121463 58257
L121463 58400
" />
<path d="M120930 57542
L121463 57542
" />
<path d="M120625 57685
L121197 57828
L121197 57457
" />
<path d="M120663 57114
L120663 57057
L120701 56999
L120740 56971
L120816 56942
L120968 56914
L121159 56914
L121311 56942
L121387 56971
L121425 56999
L121463 57057
L121463 57114
L121425 57171
L121387 57199
L121311 57228
L121159 57257
L120968 57257
L120816 57228
L120740 57199
L120701 57171
L120663 57114
" />
<path d="M121425 56628
L121463 56628
L121540 56657
L121578 56685
" />
<path d="M120701 55599
L120663 55657
L120663 55742
L120701 55828
L120778 55885
L120854 55914
L121006 55942
L121120 55942
L121273 55914
L121349 55885
L121425 55828
L121463 55742
L121463 55685
L121425 55599
L121387 55571
L121120 55571
L121120 55685
" />
<path d="M121463 55314
L120663 55314
" />
<path d="M121044 55314
L121044 54971
" />
<path d="M121463 54971
L120663 54971
" />
<path d="M120663 54428
L120663 54542
L120701 54600
L120740 54628
L120854 54685
L121006 54714
L121311 54714
L121387 54685
L121425 54657
L121463 54600
L121463 54485
L121425 54428
L121387 54400
L121311 54371
L121120 54371
L121044 54400
L121006 54428
L120968 54485
L120968 54600
L121006 54657
L121044 54685
L121120 54714
" />
<path d="M120663 53999
L120663 53942
L120701 53885
L120740 53857
L120816 53828
L120968 53799
L121159 53799
L121311 53828
L121387 53857
L121425 53885
L121463 53942
L121463 53999
L121425 54057
L121387 54085
L121311 54114
L121159 54142
L120968 54142
L120816 54114
L120740 54085
L120701 54057
L120663 53999
" />
<path d="M122284 58857
L122284 58657
" />
<path d="M122703 58571
L122703 58857
L121903 58857
L121903 58571
" />
<path d="M122703 58314
L122170 58314
" />
<path d="M122322 58314
L122246 58285
L122208 58257
L122170 58200
L122170 58142
" />
<path d="M122170 57685
L122818 57685
L122894 57714
L122932 57742
L122970 57800
L122970 57885
L122932 57942
" />
<path d="M122665 57685
L122703 57742
L122703 57857
L122665 57914
L122627 57942
L122551 57971
L122322 57971
L122246 57942
L122208 57914
L122170 57857
L122170 57742
L122208 57685
" />
<path d="M122703 57314
L122665 57371
L122627 57400
L122551 57428
L122322 57428
L122246 57400
L122208 57371
L122170 57314
L122170 57228
L122208 57171
L122246 57142
L122322 57114
L122551 57114
L122627 57142
L122665 57171
L122703 57228
L122703 57314
" />
<path d="M122703 56857
L121903 56857
L121903 56714
L121941 56628
L122018 56571
L122094 56542
L122246 56514
L122360 56514
L122513 56542
L122589 56571
L122665 56628
L122703 56714
L122703 56857
" />
<path d="M122703 56171
L122665 56228
L122627 56257
L122551 56285
L122322 56285
L122246 56257
L122208 56228
L122170 56171
L122170 56085
L122208 56028
L122246 56000
L122322 55971
L122551 55971
L122627 56000
L122665 56028
L122703 56085
L122703 56171
" />
<path d="M122703 55771
L122170 55457
" />
<path d="M122170 55771
L122703 55457
" />
</g>
<g style="fill:#FFFF00; fill-opacity:0.0; 
stroke:#FFFF00; stroke-width:39.0157; stroke-opacity:1; 
stroke-linecap:round; stroke-linejoin:round;">
<path d="M123000 60600
L29000 60600
" />
<path d="M123700 31500
L123700 60000
" />
<path d="M29000 31000
L123000 31000
" />
<path d="M28500 60000
L28500 31500
" />
<path d="M123700 31500 A500 500 0.0 0 0 123200 31000 " />
<path d="M123200 60600 A500 500 0.0 0 0 123700 60100 " />
<path d="M28500 60100 A500 500 0.0 0 0 29000 60600 " />
<path d="M29000 31000 A500 500 0.0 0 0 28500 31500 " />
</g>
<g style="fill:#009F9F; fill-opacity:0.0; 
stroke:#009F9F; stroke-width:120; stroke-opacity:1; 
stroke-linecap:round; stroke-linejoin:round;">
<path d="M33542 59714
L33628 59742
L33771 59742
L33828 59714
L33857 59685
L33885 59628
L33885 59571
L33857 59514
L33828 59485
L33771 59457
L33657 59428
L33600 59400
L33571 59371
L33542 59314
L33542 59257
L33571 59200
L33600 59171
L33657 59142
L33800 59142
L33885 59171
" />
<path d="M34428 59142
L34142 59142
L34114 59428
L34142 59400
L34200 59371
L34342 59371
L34400 59400
L34428 59428
L34457 59485
L34457 59628
L34428 59685
L34400 59714
L34342 59742
L34200 59742
L34142 59714
L34114 59685
" />
<path d="M62757 59714
L62842 59742
L62985 59742
L63042 59714
L63071 59685
L63100 59628
L63100 59571
L63071 59514
L63042 59485
L62985 59457
L62871 59428
L62814 59400
L62785 59371
L62757 59314
L62757 59257
L62785 59200
L62814 59171
L62871 59142
L63014 59142
L63100 59171
" />
<path d="M63671 59742
L63328 59742
" />
<path d="M63500 59742
L63500 59142
L63442 59228
L63385 59285
L63328 59314
" />
<path d="M63871 59142
L64271 59142
L64014 59742
" />
<path d="M101757 59714
L101842 59742
L101985 59742
L102042 59714
L102071 59685
L102100 59628
L102100 59571
L102071 59514
L102042 59485
L101985 59457
L101871 59428
L101814 59400
L101785 59371
L101757 59314
L101757 59257
L101785 59200
L101814 59171
L101871 59142
L102014 59142
L102100 59171
" />
<path d="M102328 59200
L102357 59171
L102414 59142
L102557 59142
L102614 59171
L102642 59200
L102671 59257
L102671 59314
L102642 59400
L102300 59742
L102671 59742
" />
<path d="M103214 59142
L102928 59142
L102900 59428
L102928 59400
L102985 59371
L103128 59371
L103185 59400
L103214 59428
L103242 59485
L103242 59628
L103214 59685
L103185 59714
L103128 59742
L102985 59742
L102928 59714
L102900 59685
" />
<path d="M32455 53339
L32541 53367
L32683 53367
L32741 53339
L32769 53310
L32798 53253
L32798 53196
L32769 53139
L32741 53110
L32683 53082
L32569 53053
L32512 53025
L32483 52996
L32455 52939
L32455 52882
L32483 52825
L32512 52796
L32569 52767
L32712 52767
L32798 52796
" />
<path d="M33312 52967
L33312 53367
" />
<path d="M33169 52739
L33026 53167
L33398 53167
" />
<path d="M114669 38339
L114755 38367
L114898 38367
L114955 38339
L114983 38310
L115012 38253
L115012 38196
L114983 38139
L114955 38110
L114898 38082
L114783 38053
L114726 38025
L114698 37996
L114669 37939
L114669 37882
L114698 37825
L114726 37796
L114783 37767
L114926 37767
L115012 37796
" />
<path d="M115526 37967
L115526 38367
" />
<path d="M115383 37739
L115241 38167
L115612 38167
" />
<path d="M115783 37767
L116155 37767
L115955 37996
L116041 37996
L116098 38025
L116126 38053
L116155 38110
L116155 38253
L116126 38310
L116098 38339
L116041 38367
L115869 38367
L115812 38339
L115783 38310
" />
<path d="M98727 45839
L98812 45867
L98955 45867
L99012 45839
L99041 45810
L99070 45753
L99070 45696
L99041 45639
L99012 45610
L98955 45582
L98841 45553
L98784 45525
L98755 45496
L98727 45439
L98727 45382
L98755 45325
L98784 45296
L98841 45267
L98984 45267
L99070 45296
" />
<path d="M99270 45267
L99641 45267
L99441 45496
L99527 45496
L99584 45525
L99612 45553
L99641 45610
L99641 45753
L99612 45810
L99584 45839
L99527 45867
L99355 45867
L99298 45839
L99270 45810
" />
<path d="M99984 45525
L99927 45496
L99898 45467
L99870 45410
L99870 45382
L99898 45325
L99927 45296
L99984 45267
L100098 45267
L100155 45296
L100184 45325
L100212 45382
L100212 45410
L100184 45467
L100155 45496
L100098 45525
L99984 45525
L99927 45553
L99898 45582
L99870 45639
L99870 45753
L99898 45810
L99927 45839
L99984 45867
L100098 45867
L100155 45839
L100184 45810
L100212 45753
L100212 45639
L100184 45582
L100155 45553
L100098 45525
" />
<path d="M91227 45839
L91312 45867
L91455 45867
L91512 45839
L91541 45810
L91570 45753
L91570 45696
L91541 45639
L91512 45610
L91455 45582
L91341 45553
L91284 45525
L91255 45496
L91227 45439
L91227 45382
L91255 45325
L91284 45296
L91341 45267
L91484 45267
L91570 45296
" />
<path d="M91770 45267
L92141 45267
L91941 45496
L92027 45496
L92084 45525
L92112 45553
L92141 45610
L92141 45753
L92112 45810
L92084 45839
L92027 45867
L91855 45867
L91798 45839
L91770 45810
" />
<path d="M92684 45267
L92398 45267
L92370 45553
L92398 45525
L92455 45496
L92598 45496
L92655 45525
L92684 45553
L92712 45610
L92712 45753
L92684 45810
L92655 45839
L92598 45867
L92455 45867
L92398 45839
L92370 45810
" />
<path d="M83727 45839
L83812 45867
L83955 45867
L84012 45839
L84041 45810
L84070 45753
L84070 45696
L84041 45639
L84012 45610
L83955 45582
L83841 45553
L83784 45525
L83755 45496
L83727 45439
L83727 45382
L83755 45325
L83784 45296
L83841 45267
L83984 45267
L84070 45296
" />
<path d="M84270 45267
L84641 45267
L84441 45496
L84527 45496
L84584 45525
L84612 45553
L84641 45610
L84641 45753
L84612 45810
L84584 45839
L84527 45867
L84355 45867
L84298 45839
L84270 45810
" />
<path d="M85212 45867
L84870 45867
" />
<path d="M85041 45867
L85041 45267
L84984 45353
L84927 45410
L84870 45439
" />
<path d="M76227 45839
L76312 45867
L76455 45867
L76512 45839
L76541 45810
L76570 45753
L76570 45696
L76541 45639
L76512 45610
L76455 45582
L76341 45553
L76284 45525
L76255 45496
L76227 45439
L76227 45382
L76255 45325
L76284 45296
L76341 45267
L76484 45267
L76570 45296
" />
<path d="M76798 45325
L76827 45296
L76884 45267
L77027 45267
L77084 45296
L77112 45325
L77141 45382
L77141 45439
L77112 45525
L76770 45867
L77141 45867
" />
<path d="M77341 45267
L77741 45267
L77484 45867
" />
<path d="M68727 45839
L68812 45867
L68955 45867
L69012 45839
L69041 45810
L69070 45753
L69070 45696
L69041 45639
L69012 45610
L68955 45582
L68841 45553
L68784 45525
L68755 45496
L68727 45439
L68727 45382
L68755 45325
L68784 45296
L68841 45267
L68984 45267
L69070 45296
" />
<path d="M69298 45325
L69327 45296
L69384 45267
L69527 45267
L69584 45296
L69612 45325
L69641 45382
L69641 45439
L69612 45525
L69270 45867
L69641 45867
" />
<path d="M69841 45267
L70212 45267
L70012 45496
L70098 45496
L70155 45525
L70184 45553
L70212 45610
L70212 45753
L70184 45810
L70155 45839
L70098 45867
L69927 45867
L69870 45839
L69841 45810
" />
<path d="M61227 45839
L61312 45867
L61455 45867
L61512 45839
L61541 45810
L61570 45753
L61570 45696
L61541 45639
L61512 45610
L61455 45582
L61341 45553
L61284 45525
L61255 45496
L61227 45439
L61227 45382
L61255 45325
L61284 45296
L61341 45267
L61484 45267
L61570 45296
" />
<path d="M62141 45867
L61798 45867
" />
<path d="M61970 45867
L61970 45267
L61912 45353
L61855 45410
L61798 45439
" />
<path d="M62427 45867
L62541 45867
L62598 45839
L62627 45810
L62684 45725
L62712 45610
L62712 45382
L62684 45325
L62655 45296
L62598 45267
L62484 45267
L62427 45296
L62398 45325
L62370 45382
L62370 45525
L62398 45582
L62427 45610
L62484 45639
L62598 45639
L62655 45610
L62684 45582
L62712 45525
" />
<path d="M53727 45839
L53812 45867
L53955 45867
L54012 45839
L54041 45810
L54070 45753
L54070 45696
L54041 45639
L54012 45610
L53955 45582
L53841 45553
L53784 45525
L53755 45496
L53727 45439
L53727 45382
L53755 45325
L53784 45296
L53841 45267
L53984 45267
L54070 45296
" />
<path d="M54641 45867
L54298 45867
" />
<path d="M54470 45867
L54470 45267
L54412 45353
L54355 45410
L54298 45439
" />
<path d="M55184 45267
L54898 45267
L54870 45553
L54898 45525
L54955 45496
L55098 45496
L55155 45525
L55184 45553
L55212 45610
L55212 45753
L55184 45810
L55155 45839
L55098 45867
L54955 45867
L54898 45839
L54870 45810
" />
<path d="M46227 45839
L46312 45867
L46455 45867
L46512 45839
L46541 45810
L46570 45753
L46570 45696
L46541 45639
L46512 45610
L46455 45582
L46341 45553
L46284 45525
L46255 45496
L46227 45439
L46227 45382
L46255 45325
L46284 45296
L46341 45267
L46484 45267
L46570 45296
" />
<path d="M47141 45867
L46798 45867
" />
<path d="M46970 45867
L46970 45267
L46912 45353
L46855 45410
L46798 45439
" />
<path d="M47712 45867
L47370 45867
" />
<path d="M47541 45867
L47541 45267
L47484 45353
L47427 45410
L47370 45439
" />
<path d="M39012 45839
L39098 45867
L39241 45867
L39298 45839
L39327 45810
L39355 45753
L39355 45696
L39327 45639
L39298 45610
L39241 45582
L39127 45553
L39070 45525
L39041 45496
L39012 45439
L39012 45382
L39041 45325
L39070 45296
L39127 45267
L39270 45267
L39355 45296
" />
<path d="M39555 45267
L39955 45267
L39698 45867
" />
<path d="M30577 45839
L30663 45867
L30806 45867
L30863 45839
L30892 45810
L30920 45753
L30920 45696
L30892 45639
L30863 45610
L30806 45582
L30692 45553
L30635 45525
L30606 45496
L30577 45439
L30577 45382
L30606 45325
L30635 45296
L30692 45267
L30835 45267
L30920 45296
" />
<path d="M31120 45267
L31492 45267
L31292 45496
L31377 45496
L31435 45525
L31463 45553
L31492 45610
L31492 45753
L31463 45810
L31435 45839
L31377 45867
L31206 45867
L31149 45839
L31120 45810
" />
<path d="M74357 38339
L74442 38367
L74585 38367
L74642 38339
L74671 38310
L74700 38253
L74700 38196
L74671 38139
L74642 38110
L74585 38082
L74471 38053
L74414 38025
L74385 37996
L74357 37939
L74357 37882
L74385 37825
L74414 37796
L74471 37767
L74614 37767
L74700 37796
" />
<path d="M74928 37825
L74957 37796
L75014 37767
L75157 37767
L75214 37796
L75242 37825
L75271 37882
L75271 37939
L75242 38025
L74900 38367
L75271 38367
" />
<path d="M75785 37767
L75671 37767
L75614 37796
L75585 37825
L75528 37910
L75500 38025
L75500 38253
L75528 38310
L75557 38339
L75614 38367
L75728 38367
L75785 38339
L75814 38310
L75842 38253
L75842 38110
L75814 38053
L75785 38025
L75728 37996
L75614 37996
L75557 38025
L75528 38053
L75500 38110
" />
<path d="M104357 38339
L104442 38367
L104585 38367
L104642 38339
L104671 38310
L104700 38253
L104700 38196
L104671 38139
L104642 38110
L104585 38082
L104471 38053
L104414 38025
L104385 37996
L104357 37939
L104357 37882
L104385 37825
L104414 37796
L104471 37767
L104614 37767
L104700 37796
" />
<path d="M105214 37967
L105214 38367
" />
<path d="M105071 37739
L104928 38167
L105300 38167
" />
<path d="M105642 37767
L105700 37767
L105757 37796
L105785 37825
L105814 37882
L105842 37996
L105842 38139
L105814 38253
L105785 38310
L105757 38339
L105700 38367
L105642 38367
L105585 38339
L105557 38310
L105528 38253
L105500 38139
L105500 37996
L105528 37882
L105557 37825
L105585 37796
L105642 37767
" />
<path d="M96857 38339
L96942 38367
L97085 38367
L97142 38339
L97171 38310
L97200 38253
L97200 38196
L97171 38139
L97142 38110
L97085 38082
L96971 38053
L96914 38025
L96885 37996
L96857 37939
L96857 37882
L96885 37825
L96914 37796
L96971 37767
L97114 37767
L97200 37796
" />
<path d="M97400 37767
L97771 37767
L97571 37996
L97657 37996
L97714 38025
L97742 38053
L97771 38110
L97771 38253
L97742 38310
L97714 38339
L97657 38367
L97485 38367
L97428 38339
L97400 38310
" />
<path d="M97971 37767
L98371 37767
L98114 38367
" />
<path d="M81857 38339
L81942 38367
L82085 38367
L82142 38339
L82171 38310
L82200 38253
L82200 38196
L82171 38139
L82142 38110
L82085 38082
L81971 38053
L81914 38025
L81885 37996
L81857 37939
L81857 37882
L81885 37825
L81914 37796
L81971 37767
L82114 37767
L82200 37796
" />
<path d="M82400 37767
L82771 37767
L82571 37996
L82657 37996
L82714 38025
L82742 38053
L82771 38110
L82771 38253
L82742 38310
L82714 38339
L82657 38367
L82485 38367
L82428 38339
L82400 38310
" />
<path d="M83142 37767
L83200 37767
L83257 37796
L83285 37825
L83314 37882
L83342 37996
L83342 38139
L83314 38253
L83285 38310
L83257 38339
L83200 38367
L83142 38367
L83085 38339
L83057 38310
L83028 38253
L83000 38139
L83000 37996
L83028 37882
L83057 37825
L83085 37796
L83142 37767
" />
<path d="M66857 38339
L66942 38367
L67085 38367
L67142 38339
L67171 38310
L67200 38253
L67200 38196
L67171 38139
L67142 38110
L67085 38082
L66971 38053
L66914 38025
L66885 37996
L66857 37939
L66857 37882
L66885 37825
L66914 37796
L66971 37767
L67114 37767
L67200 37796
" />
<path d="M67428 37825
L67457 37796
L67514 37767
L67657 37767
L67714 37796
L67742 37825
L67771 37882
L67771 37939
L67742 38025
L67400 38367
L67771 38367
" />
<path d="M68000 37825
L68028 37796
L68085 37767
L68228 37767
L68285 37796
L68314 37825
L68342 37882
L68342 37939
L68314 38025
L67971 38367
L68342 38367
" />
<path d="M59357 38339
L59442 38367
L59585 38367
L59642 38339
L59671 38310
L59700 38253
L59700 38196
L59671 38139
L59642 38110
L59585 38082
L59471 38053
L59414 38025
L59385 37996
L59357 37939
L59357 37882
L59385 37825
L59414 37796
L59471 37767
L59614 37767
L59700 37796
" />
<path d="M60271 38367
L59928 38367
" />
<path d="M60100 38367
L60100 37767
L60042 37853
L59985 37910
L59928 37939
" />
<path d="M60614 38025
L60557 37996
L60528 37967
L60500 37910
L60500 37882
L60528 37825
L60557 37796
L60614 37767
L60728 37767
L60785 37796
L60814 37825
L60842 37882
L60842 37910
L60814 37967
L60785 37996
L60728 38025
L60614 38025
L60557 38053
L60528 38082
L60500 38139
L60500 38253
L60528 38310
L60557 38339
L60614 38367
L60728 38367
L60785 38339
L60814 38310
L60842 38253
L60842 38139
L60814 38082
L60785 38053
L60728 38025
" />
<path d="M51857 38339
L51942 38367
L52085 38367
L52142 38339
L52171 38310
L52200 38253
L52200 38196
L52171 38139
L52142 38110
L52085 38082
L51971 38053
L51914 38025
L51885 37996
L51857 37939
L51857 37882
L51885 37825
L51914 37796
L51971 37767
L52114 37767
L52200 37796
" />
<path d="M52771 38367
L52428 38367
" />
<path d="M52600 38367
L52600 37767
L52542 37853
L52485 37910
L52428 37939
" />
<path d="M53285 37967
L53285 38367
" />
<path d="M53142 37739
L53000 38167
L53371 38167
" />
<path d="M44357 38339
L44442 38367
L44585 38367
L44642 38339
L44671 38310
L44700 38253
L44700 38196
L44671 38139
L44642 38110
L44585 38082
L44471 38053
L44414 38025
L44385 37996
L44357 37939
L44357 37882
L44385 37825
L44414 37796
L44471 37767
L44614 37767
L44700 37796
" />
<path d="M45271 38367
L44928 38367
" />
<path d="M45100 38367
L45100 37767
L45042 37853
L44985 37910
L44928 37939
" />
<path d="M45642 37767
L45700 37767
L45757 37796
L45785 37825
L45814 37882
L45842 37996
L45842 38139
L45814 38253
L45785 38310
L45757 38339
L45700 38367
L45642 38367
L45585 38339
L45557 38310
L45528 38253
L45500 38139
L45500 37996
L45528 37882
L45557 37825
L45585 37796
L45642 37767
" />
<path d="M37142 38339
L37228 38367
L37371 38367
L37428 38339
L37457 38310
L37485 38253
L37485 38196
L37457 38139
L37428 38110
L37371 38082
L37257 38053
L37200 38025
L37171 37996
L37142 37939
L37142 37882
L37171 37825
L37200 37796
L37257 37767
L37400 37767
L37485 37796
" />
<path d="M38000 37767
L37885 37767
L37828 37796
L37800 37825
L37742 37910
L37714 38025
L37714 38253
L37742 38310
L37771 38339
L37828 38367
L37942 38367
L38000 38339
L38028 38310
L38057 38253
L38057 38110
L38028 38053
L38000 38025
L37942 37996
L37828 37996
L37771 38025
L37742 38053
L37714 38110
" />
<path d="M29642 38339
L29728 38367
L29871 38367
L29928 38339
L29957 38310
L29985 38253
L29985 38196
L29957 38139
L29928 38110
L29871 38082
L29757 38053
L29700 38025
L29671 37996
L29642 37939
L29642 37882
L29671 37825
L29700 37796
L29757 37767
L29900 37767
L29985 37796
" />
<path d="M30214 37825
L30242 37796
L30300 37767
L30442 37767
L30500 37796
L30528 37825
L30557 37882
L30557 37939
L30528 38025
L30185 38367
L30557 38367
" />
<path d="M106227 45839
L106312 45867
L106455 45867
L106512 45839
L106541 45810
L106570 45753
L106570 45696
L106541 45639
L106512 45610
L106455 45582
L106341 45553
L106284 45525
L106255 45496
L106227 45439
L106227 45382
L106255 45325
L106284 45296
L106341 45267
L106484 45267
L106570 45296
" />
<path d="M107084 45467
L107084 45867
" />
<path d="M106941 45239
L106798 45667
L107170 45667
" />
<path d="M107712 45867
L107370 45867
" />
<path d="M107541 45867
L107541 45267
L107484 45353
L107427 45410
L107370 45439
" />
<path d="M89357 38339
L89442 38367
L89585 38367
L89642 38339
L89671 38310
L89700 38253
L89700 38196
L89671 38139
L89642 38110
L89585 38082
L89471 38053
L89414 38025
L89385 37996
L89357 37939
L89357 37882
L89385 37825
L89414 37796
L89471 37767
L89614 37767
L89700 37796
" />
<path d="M89900 37767
L90271 37767
L90071 37996
L90157 37996
L90214 38025
L90242 38053
L90271 38110
L90271 38253
L90242 38310
L90214 38339
L90157 38367
L89985 38367
L89928 38339
L89900 38310
" />
<path d="M90785 37967
L90785 38367
" />
<path d="M90642 37739
L90500 38167
L90871 38167
" />
<path d="M118757 59714
L118842 59742
L118985 59742
L119042 59714
L119071 59685
L119100 59628
L119100 59571
L119071 59514
L119042 59485
L118985 59457
L118871 59428
L118814 59400
L118785 59371
L118757 59314
L118757 59257
L118785 59200
L118814 59171
L118871 59142
L119014 59142
L119100 59171
" />
<path d="M119300 59142
L119671 59142
L119471 59371
L119557 59371
L119614 59400
L119642 59428
L119671 59485
L119671 59628
L119642 59685
L119614 59714
L119557 59742
L119385 59742
L119328 59714
L119300 59685
" />
<path d="M119871 59142
L120242 59142
L120042 59371
L120128 59371
L120185 59400
L120214 59428
L120242 59485
L120242 59628
L120214 59685
L120185 59714
L120128 59742
L119957 59742
L119900 59714
L119871 59685
" />
<path d="M110257 59714
L110342 59742
L110485 59742
L110542 59714
L110571 59685
L110600 59628
L110600 59571
L110571 59514
L110542 59485
L110485 59457
L110371 59428
L110314 59400
L110285 59371
L110257 59314
L110257 59257
L110285 59200
L110314 59171
L110371 59142
L110514 59142
L110600 59171
" />
<path d="M110828 59200
L110857 59171
L110914 59142
L111057 59142
L111114 59171
L111142 59200
L111171 59257
L111171 59314
L111142 59400
L110800 59742
L111171 59742
" />
<path d="M111457 59742
L111571 59742
L111628 59714
L111657 59685
L111714 59600
L111742 59485
L111742 59257
L111714 59200
L111685 59171
L111628 59142
L111514 59142
L111457 59171
L111428 59200
L111400 59257
L111400 59400
L111428 59457
L111457 59485
L111514 59514
L111628 59514
L111685 59485
L111714 59457
L111742 59400
" />
<path d="M88757 59714
L88842 59742
L88985 59742
L89042 59714
L89071 59685
L89100 59628
L89100 59571
L89071 59514
L89042 59485
L88985 59457
L88871 59428
L88814 59400
L88785 59371
L88757 59314
L88757 59257
L88785 59200
L88814 59171
L88871 59142
L89014 59142
L89100 59171
" />
<path d="M89328 59200
L89357 59171
L89414 59142
L89557 59142
L89614 59171
L89642 59200
L89671 59257
L89671 59314
L89642 59400
L89300 59742
L89671 59742
" />
<path d="M90242 59742
L89900 59742
" />
<path d="M90071 59742
L90071 59142
L90014 59228
L89957 59285
L89900 59314
" />
<path d="M49757 59714
L49842 59742
L49985 59742
L50042 59714
L50071 59685
L50100 59628
L50100 59571
L50071 59514
L50042 59485
L49985 59457
L49871 59428
L49814 59400
L49785 59371
L49757 59314
L49757 59257
L49785 59200
L49814 59171
L49871 59142
L50014 59142
L50100 59171
" />
<path d="M50671 59742
L50328 59742
" />
<path d="M50500 59742
L50500 59142
L50442 59228
L50385 59285
L50328 59314
" />
<path d="M50871 59142
L51242 59142
L51042 59371
L51128 59371
L51185 59400
L51214 59428
L51242 59485
L51242 59628
L51214 59685
L51185 59714
L51128 59742
L50957 59742
L50900 59714
L50871 59685
" />
<path d="M42042 59714
L42128 59742
L42271 59742
L42328 59714
L42357 59685
L42385 59628
L42385 59571
L42357 59514
L42328 59485
L42271 59457
L42157 59428
L42100 59400
L42071 59371
L42042 59314
L42042 59257
L42071 59200
L42100 59171
L42157 59142
L42300 59142
L42385 59171
" />
<path d="M42671 59742
L42785 59742
L42842 59714
L42871 59685
L42928 59600
L42957 59485
L42957 59257
L42928 59200
L42900 59171
L42842 59142
L42728 59142
L42671 59171
L42642 59200
L42614 59257
L42614 59400
L42642 59457
L42671 59485
L42728 59514
L42842 59514
L42900 59485
L42928 59457
L42957 59400
" />
<path d="M117482 53339
L117567 53367
L117710 53367
L117767 53339
L117796 53310
L117825 53253
L117825 53196
L117796 53139
L117767 53110
L117710 53082
L117596 53053
L117539 53025
L117510 52996
L117482 52939
L117482 52882
L117510 52825
L117539 52796
L117596 52767
L117739 52767
L117825 52796
" />
<path d="M118339 52967
L118339 53367
" />
<path d="M118196 52739
L118053 53167
L118425 53167
" />
<path d="M118939 52767
L118653 52767
L118625 53053
L118653 53025
L118710 52996
L118853 52996
L118910 53025
L118939 53053
L118967 53110
L118967 53253
L118939 53310
L118910 53339
L118853 53367
L118710 53367
L118653 53339
L118625 53310
" />
<path d="M109982 53339
L110067 53367
L110210 53367
L110267 53339
L110296 53310
L110325 53253
L110325 53196
L110296 53139
L110267 53110
L110210 53082
L110096 53053
L110039 53025
L110010 52996
L109982 52939
L109982 52882
L110010 52825
L110039 52796
L110096 52767
L110239 52767
L110325 52796
" />
<path d="M110839 52967
L110839 53367
" />
<path d="M110696 52739
L110553 53167
L110925 53167
" />
<path d="M111125 52825
L111153 52796
L111210 52767
L111353 52767
L111410 52796
L111439 52825
L111467 52882
L111467 52939
L111439 53025
L111096 53367
L111467 53367
" />
<path d="M102482 53339
L102567 53367
L102710 53367
L102767 53339
L102796 53310
L102825 53253
L102825 53196
L102796 53139
L102767 53110
L102710 53082
L102596 53053
L102539 53025
L102510 52996
L102482 52939
L102482 52882
L102510 52825
L102539 52796
L102596 52767
L102739 52767
L102825 52796
" />
<path d="M103025 52767
L103396 52767
L103196 52996
L103282 52996
L103339 53025
L103367 53053
L103396 53110
L103396 53253
L103367 53310
L103339 53339
L103282 53367
L103110 53367
L103053 53339
L103025 53310
" />
<path d="M103682 53367
L103796 53367
L103853 53339
L103882 53310
L103939 53225
L103967 53110
L103967 52882
L103939 52825
L103910 52796
L103853 52767
L103739 52767
L103682 52796
L103653 52825
L103625 52882
L103625 53025
L103653 53082
L103682 53110
L103739 53139
L103853 53139
L103910 53110
L103939 53082
L103967 53025
" />
<path d="M94982 53339
L95067 53367
L95210 53367
L95267 53339
L95296 53310
L95325 53253
L95325 53196
L95296 53139
L95267 53110
L95210 53082
L95096 53053
L95039 53025
L95010 52996
L94982 52939
L94982 52882
L95010 52825
L95039 52796
L95096 52767
L95239 52767
L95325 52796
" />
<path d="M95525 52767
L95896 52767
L95696 52996
L95782 52996
L95839 53025
L95867 53053
L95896 53110
L95896 53253
L95867 53310
L95839 53339
L95782 53367
L95610 53367
L95553 53339
L95525 53310
" />
<path d="M96410 52767
L96296 52767
L96239 52796
L96210 52825
L96153 52910
L96125 53025
L96125 53253
L96153 53310
L96182 53339
L96239 53367
L96353 53367
L96410 53339
L96439 53310
L96467 53253
L96467 53110
L96439 53053
L96410 53025
L96353 52996
L96239 52996
L96182 53025
L96153 53053
L96125 53110
" />
<path d="M87482 53339
L87567 53367
L87710 53367
L87767 53339
L87796 53310
L87825 53253
L87825 53196
L87796 53139
L87767 53110
L87710 53082
L87596 53053
L87539 53025
L87510 52996
L87482 52939
L87482 52882
L87510 52825
L87539 52796
L87596 52767
L87739 52767
L87825 52796
" />
<path d="M88025 52767
L88396 52767
L88196 52996
L88282 52996
L88339 53025
L88367 53053
L88396 53110
L88396 53253
L88367 53310
L88339 53339
L88282 53367
L88110 53367
L88053 53339
L88025 53310
" />
<path d="M88625 52825
L88653 52796
L88710 52767
L88853 52767
L88910 52796
L88939 52825
L88967 52882
L88967 52939
L88939 53025
L88596 53367
L88967 53367
" />
<path d="M79982 53339
L80067 53367
L80210 53367
L80267 53339
L80296 53310
L80325 53253
L80325 53196
L80296 53139
L80267 53110
L80210 53082
L80096 53053
L80039 53025
L80010 52996
L79982 52939
L79982 52882
L80010 52825
L80039 52796
L80096 52767
L80239 52767
L80325 52796
" />
<path d="M80553 52825
L80582 52796
L80639 52767
L80782 52767
L80839 52796
L80867 52825
L80896 52882
L80896 52939
L80867 53025
L80525 53367
L80896 53367
" />
<path d="M81239 53025
L81182 52996
L81153 52967
L81125 52910
L81125 52882
L81153 52825
L81182 52796
L81239 52767
L81353 52767
L81410 52796
L81439 52825
L81467 52882
L81467 52910
L81439 52967
L81410 52996
L81353 53025
L81239 53025
L81182 53053
L81153 53082
L81125 53139
L81125 53253
L81153 53310
L81182 53339
L81239 53367
L81353 53367
L81410 53339
L81439 53310
L81467 53253
L81467 53139
L81439 53082
L81410 53053
L81353 53025
" />
<path d="M72482 53339
L72567 53367
L72710 53367
L72767 53339
L72796 53310
L72825 53253
L72825 53196
L72796 53139
L72767 53110
L72710 53082
L72596 53053
L72539 53025
L72510 52996
L72482 52939
L72482 52882
L72510 52825
L72539 52796
L72596 52767
L72739 52767
L72825 52796
" />
<path d="M73053 52825
L73082 52796
L73139 52767
L73282 52767
L73339 52796
L73367 52825
L73396 52882
L73396 52939
L73367 53025
L73025 53367
L73396 53367
" />
<path d="M73910 52967
L73910 53367
" />
<path d="M73767 52739
L73625 53167
L73996 53167
" />
<path d="M64982 53339
L65067 53367
L65210 53367
L65267 53339
L65296 53310
L65325 53253
L65325 53196
L65296 53139
L65267 53110
L65210 53082
L65096 53053
L65039 53025
L65010 52996
L64982 52939
L64982 52882
L65010 52825
L65039 52796
L65096 52767
L65239 52767
L65325 52796
" />
<path d="M65553 52825
L65582 52796
L65639 52767
L65782 52767
L65839 52796
L65867 52825
L65896 52882
L65896 52939
L65867 53025
L65525 53367
L65896 53367
" />
<path d="M66267 52767
L66325 52767
L66382 52796
L66410 52825
L66439 52882
L66467 52996
L66467 53139
L66439 53253
L66410 53310
L66382 53339
L66325 53367
L66267 53367
L66210 53339
L66182 53310
L66153 53253
L66125 53139
L66125 52996
L66153 52882
L66182 52825
L66210 52796
L66267 52767
" />
<path d="M57482 53339
L57567 53367
L57710 53367
L57767 53339
L57796 53310
L57825 53253
L57825 53196
L57796 53139
L57767 53110
L57710 53082
L57596 53053
L57539 53025
L57510 52996
L57482 52939
L57482 52882
L57510 52825
L57539 52796
L57596 52767
L57739 52767
L57825 52796
" />
<path d="M58396 53367
L58053 53367
" />
<path d="M58225 53367
L58225 52767
L58167 52853
L58110 52910
L58053 52939
" />
<path d="M58910 52767
L58796 52767
L58739 52796
L58710 52825
L58653 52910
L58625 53025
L58625 53253
L58653 53310
L58682 53339
L58739 53367
L58853 53367
L58910 53339
L58939 53310
L58967 53253
L58967 53110
L58939 53053
L58910 53025
L58853 52996
L58739 52996
L58682 53025
L58653 53053
L58625 53110
" />
<path d="M49982 53339
L50067 53367
L50210 53367
L50267 53339
L50296 53310
L50325 53253
L50325 53196
L50296 53139
L50267 53110
L50210 53082
L50096 53053
L50039 53025
L50010 52996
L49982 52939
L49982 52882
L50010 52825
L50039 52796
L50096 52767
L50239 52767
L50325 52796
" />
<path d="M50896 53367
L50553 53367
" />
<path d="M50725 53367
L50725 52767
L50667 52853
L50610 52910
L50553 52939
" />
<path d="M51125 52825
L51153 52796
L51210 52767
L51353 52767
L51410 52796
L51439 52825
L51467 52882
L51467 52939
L51439 53025
L51096 53367
L51467 53367
" />
<path d="M42767 53339
L42853 53367
L42996 53367
L43053 53339
L43082 53310
L43110 53253
L43110 53196
L43082 53139
L43053 53110
L42996 53082
L42882 53053
L42825 53025
L42796 52996
L42767 52939
L42767 52882
L42796 52825
L42825 52796
L42882 52767
L43025 52767
L43110 52796
" />
<path d="M43453 53025
L43396 52996
L43367 52967
L43339 52910
L43339 52882
L43367 52825
L43396 52796
L43453 52767
L43567 52767
L43625 52796
L43653 52825
L43682 52882
L43682 52910
L43653 52967
L43625 52996
L43567 53025
L43453 53025
L43396 53053
L43367 53082
L43339 53139
L43339 53253
L43367 53310
L43396 53339
L43453 53367
L43567 53367
L43625 53339
L43653 53310
L43682 53253
L43682 53139
L43653 53082
L43625 53053
L43567 53025
" />
<path d="M115602 45839
L115687 45867
L115830 45867
L115887 45839
L115916 45810
L115945 45753
L115945 45696
L115916 45639
L115887 45610
L115830 45582
L115716 45553
L115659 45525
L115630 45496
L115602 45439
L115602 45382
L115630 45325
L115659 45296
L115716 45267
L115859 45267
L115945 45296
" />
<path d="M116459 45467
L116459 45867
" />
<path d="M116316 45239
L116173 45667
L116545 45667
" />
<path d="M117030 45467
L117030 45867
" />
<path d="M116887 45239
L116745 45667
L117116 45667
" />
</g>
<g style="fill:#009F9F; fill-opacity:0.0; 
stroke:#009F9F; stroke-width:150; stroke-opacity:1; 
stroke-linecap:round; stroke-linejoin:round;">
<path d="M34632 54000
L40632 54000
" />
<path d="M40632 54000
L40632 60000
" />
<path d="M40632 60000
L34632 60000
" />
<path d="M34632 60000
L34632 54000
" />
<path d="M64625 54000
L70625 54000
" />
<path d="M70625 54000
L70625 60000
" />
<path d="M70625 60000
L64625 60000
" />
<path d="M64625 60000
L64625 54000
" />
<path d="M95541 54000
L101541 54000
" />
<path d="M101541 54000
L101541 60000
" />
<path d="M101541 60000
L95541 60000
" />
<path d="M95541 60000
L95541 54000
" />
<path d="M31812 46500
L37812 46500
" />
<path d="M37812 46500
L37812 52500
" />
<path d="M37812 52500
L31812 52500
" />
<path d="M31812 52500
L31812 46500
" />
<path d="M114312 31500
L120312 31500
" />
<path d="M120312 31500
L120312 37500
" />
<path d="M120312 37500
L114312 37500
" />
<path d="M114312 37500
L114312 31500
" />
<path d="M98370 39000
L104370 39000
" />
<path d="M104370 39000
L104370 45000
" />
<path d="M104370 45000
L98370 45000
" />
<path d="M98370 45000
L98370 39000
" />
<path d="M90870 39000
L96870 39000
" />
<path d="M96870 39000
L96870 45000
" />
<path d="M96870 45000
L90870 45000
" />
<path d="M90870 45000
L90870 39000
" />
<path d="M83370 39000
L89370 39000
" />
<path d="M89370 39000
L89370 45000
" />
<path d="M89370 45000
L83370 45000
" />
<path d="M83370 45000
L83370 39000
" />
<path d="M75870 39000
L81870 39000
" />
<path d="M81870 39000
L81870 45000
" />
<path d="M81870 45000
L75870 45000
" />
<path d="M75870 45000
L75870 39000
" />
<path d="M68370 39000
L74370 39000
" />
<path d="M74370 39000
L74370 45000
" />
<path d="M74370 45000
L68370 45000
" />
<path d="M68370 45000
L68370 39000
" />
<path d="M60870 39000
L66870 39000
" />
<path d="M66870 39000
L66870 45000
" />
<path d="M66870 45000
L60870 45000
" />
<path d="M60870 45000
L60870 39000
" />
<path d="M53370 39000
L59370 39000
" />
<path d="M59370 39000
L59370 45000
" />
<path d="M59370 45000
L53370 45000
" />
<path d="M53370 45000
L53370 39000
" />
<path d="M45870 39000
L51870 39000
" />
<path d="M51870 39000
L51870 45000
" />
<path d="M51870 45000
L45870 45000
" />
<path d="M45870 45000
L45870 39000
" />
<path d="M38370 39000
L44370 39000
" />
<path d="M44370 39000
L44370 45000
" />
<path d="M44370 45000
L38370 45000
" />
<path d="M38370 45000
L38370 39000
" />
<path d="M29935 39000
L35935 39000
" />
<path d="M35935 39000
L35935 45000
" />
<path d="M35935 45000
L29935 45000
" />
<path d="M29935 45000
L29935 39000
" />
<path d="M74000 31500
L80000 31500
" />
<path d="M80000 31500
L80000 37500
" />
<path d="M80000 37500
L74000 37500
" />
<path d="M74000 37500
L74000 31500
" />
<path d="M104000 31500
L110000 31500
" />
<path d="M110000 31500
L110000 37500
" />
<path d="M110000 37500
L104000 37500
" />
<path d="M104000 37500
L104000 31500
" />
<path d="M96500 31500
L102500 31500
" />
<path d="M102500 31500
L102500 37500
" />
<path d="M102500 37500
L96500 37500
" />
<path d="M96500 37500
L96500 31500
" />
<path d="M81500 31500
L87500 31500
" />
<path d="M87500 31500
L87500 37500
" />
<path d="M87500 37500
L81500 37500
" />
<path d="M81500 37500
L81500 31500
" />
<path d="M66500 31500
L72500 31500
" />
<path d="M72500 31500
L72500 37500
" />
<path d="M72500 37500
L66500 37500
" />
<path d="M66500 37500
L66500 31500
" />
<path d="M59000 31500
L65000 31500
" />
<path d="M65000 31500
L65000 37500
" />
<path d="M65000 37500
L59000 37500
" />
<path d="M59000 37500
L59000 31500
" />
<path d="M51500 31500
L57500 31500
" />
<path d="M57500 31500
L57500 37500
" />
<path d="M57500 37500
L51500 37500
" />
<path d="M51500 37500
L51500 31500
" />
<path d="M44000 31500
L50000 31500
" />
<path d="M50000 31500
L50000 37500
" />
<path d="M50000 37500
L44000 37500
" />
<path d="M44000 37500
L44000 31500
" />
<path d="M36500 31500
L42500 31500
" />
<path d="M42500 31500
L42500 37500
" />
<path d="M42500 37500
L36500 37500
" />
<path d="M36500 37500
L36500 31500
" />
<path d="M29000 31500
L35000 31500
" />
<path d="M35000 31500
L35000 37500
" />
<path d="M35000 37500
L29000 37500
" />
<path d="M29000 37500
L29000 31500
" />
<path d="M105870 39000
L111870 39000
" />
<path d="M111870 39000
L111870 45000
" />
<path d="M111870 45000
L105870 45000
" />
<path d="M105870 45000
L105870 39000
" />
<path d="M89000 31500
L95000 31500
" />
<path d="M95000 31500
L95000 37500
" />
<path d="M95000 37500
L89000 37500
" />
<path d="M89000 37500
L89000 31500
" />
<path d="M112411 54000
L118411 54000
" />
<path d="M118411 54000
L118411 60000
" />
<path d="M118411 60000
L112411 60000
" />
<path d="M112411 60000
L112411 54000
" />
<path d="M103976 54000
L109976 54000
" />
<path d="M109976 54000
L109976 60000
" />
<path d="M109976 60000
L103976 60000
" />
<path d="M103976 60000
L103976 54000
" />
<path d="M82419 54000
L88419 54000
" />
<path d="M88419 54000
L88419 60000
" />
<path d="M88419 60000
L82419 60000
" />
<path d="M82419 60000
L82419 54000
" />
<path d="M51502 54000
L57502 54000
" />
<path d="M57502 54000
L57502 60000
" />
<path d="M57502 60000
L51502 60000
" />
<path d="M51502 60000
L51502 54000
" />
<path d="M43067 54000
L49067 54000
" />
<path d="M49067 54000
L49067 60000
" />
<path d="M49067 60000
L43067 60000
" />
<path d="M43067 60000
L43067 54000
" />
<path d="M117125 46500
L123125 46500
" />
<path d="M123125 46500
L123125 52500
" />
<path d="M123125 52500
L117125 52500
" />
<path d="M117125 52500
L117125 46500
" />
<path d="M109625 46500
L115625 46500
" />
<path d="M115625 46500
L115625 52500
" />
<path d="M115625 52500
L109625 52500
" />
<path d="M109625 52500
L109625 46500
" />
<path d="M102125 46500
L108125 46500
" />
<path d="M108125 46500
L108125 52500
" />
<path d="M108125 52500
L102125 52500
" />
<path d="M102125 52500
L102125 46500
" />
<path d="M94625 46500
L100625 46500
" />
<path d="M100625 46500
L100625 52500
" />
<path d="M100625 52500
L94625 52500
" />
<path d="M94625 52500
L94625 46500
" />
<path d="M87125 46500
L93125 46500
" />
<path d="M93125 46500
L93125 52500
" />
<path d="M93125 52500
L87125 52500
" />
<path d="M87125 52500
L87125 46500
" />
<path d="M79625 46500
L85625 46500
" />
<path d="M85625 46500
L85625 52500
" />
<path d="M85625 52500
L79625 52500
" />
<path d="M79625 52500
L79625 46500
" />
<path d="M72125 46500
L78125 46500
" />
<path d="M78125 46500
L78125 52500
" />
<path d="M78125 52500
L72125 52500
" />
<path d="M72125 52500
L72125 46500
" />
<path d="M64625 46500
L70625 46500
" />
<path d="M70625 46500
L70625 52500
" />
<path d="M70625 52500
L64625 52500
" />
<path d="M64625 52500
L64625 46500
" />
<path d="M57125 46500
L63125 46500
" />
<path d="M63125 46500
L63125 52500
" />
<path d="M63125 52500
L57125 52500
" />
<path d="M57125 52500
L57125 46500
" />
<path d="M49625 46500
L55625 46500
" />
<path d="M55625 46500
L55625 52500
" />
<path d="M55625 52500
L49625 52500
" />
<path d="M49625 52500
L49625 46500
" />
<path d="M42125 46500
L48125 46500
" />
<path d="M48125 46500
L48125 52500
" />
<path d="M48125 52500
L42125 52500
" />
<path d="M42125 52500
L42125 46500
" />
<path d="M115245 39000
L121245 39000
" />
<path d="M121245 39000
L121245 45000
" />
<path d="M121245 45000
L115245 45000
" />
<path d="M115245 45000
L115245 39000
" />
</g>
<g style="fill:#7F7F00; fill-opacity:0.0; 
stroke:#7F7F00; stroke-width:39.3701; stroke-opacity:1; 
stroke-linecap:round; stroke-linejoin:round;">
</g>
<g style="fill:#7F7F00; fill-opacity:1.0; 
stroke:#7F7F00; stroke-width:39.3701; stroke-opacity:1; 
stroke-linecap:round; stroke-linejoin:round;">
<circle cx="37632.1" cy="57000" r="763.815" /> 
<circle cx="38632.1" cy="55000" r="472.315" /> 
<circle cx="36132.1" cy="56000" r="472.315" /> 
<circle cx="35632.1" cy="57000" r="314.815" /> 
<circle cx="39632.1" cy="57000" r="314.815" /> 
<circle cx="67625.2" cy="57000" r="763.815" /> 
<circle cx="68625.2" cy="55000" r="472.315" /> 
<circle cx="66125.2" cy="56000" r="472.315" /> 
<circle cx="65625.2" cy="57000" r="314.815" /> 
<circle cx="69625.2" cy="57000" r="314.815" /> 
<circle cx="98541.8" cy="57000" r="763.815" /> 
<circle cx="99541.8" cy="55000" r="472.315" /> 
<circle cx="97041.8" cy="56000" r="472.315" /> 
<circle cx="96541.8" cy="57000" r="314.815" /> 
<circle cx="100542" cy="57000" r="314.815" /> 
<circle cx="34812.5" cy="49500" r="763.815" /> 
<circle cx="35812.5" cy="47500" r="472.315" /> 
<circle cx="33312.5" cy="48500" r="472.315" /> 
<circle cx="32812.5" cy="49500" r="314.815" /> 
<circle cx="36812.5" cy="49500" r="314.815" /> 
<circle cx="117313" cy="34500" r="763.815" /> 
<circle cx="118313" cy="32500" r="472.315" /> 
<circle cx="115813" cy="33500" r="472.315" /> 
<circle cx="115313" cy="34500" r="314.815" /> 
<circle cx="119313" cy="34500" r="314.815" /> 
<circle cx="101370" cy="42000" r="763.815" /> 
<circle cx="102370" cy="40000" r="472.315" /> 
<circle cx="99870.1" cy="41000" r="472.315" /> 
<circle cx="99370.1" cy="42000" r="314.815" /> 
<circle cx="103370" cy="42000" r="314.815" /> 
<circle cx="93870.1" cy="42000" r="763.815" /> 
<circle cx="94870.1" cy="40000" r="472.315" /> 
<circle cx="92370.1" cy="41000" r="472.315" /> 
<circle cx="91870.1" cy="42000" r="314.815" /> 
<circle cx="95870.1" cy="42000" r="314.815" /> 
<circle cx="86370.1" cy="42000" r="763.815" /> 
<circle cx="87370.1" cy="40000" r="472.315" /> 
<circle cx="84870.1" cy="41000" r="472.315" /> 
<circle cx="84370.1" cy="42000" r="314.815" /> 
<circle cx="88370.1" cy="42000" r="314.815" /> 
<circle cx="78870.1" cy="42000" r="763.815" /> 
<circle cx="79870.1" cy="40000" r="472.315" /> 
<circle cx="77370.1" cy="41000" r="472.315" /> 
<circle cx="76870.1" cy="42000" r="314.815" /> 
<circle cx="80870.1" cy="42000" r="314.815" /> 
<circle cx="71370.1" cy="42000" r="763.815" /> 
<circle cx="72370.1" cy="40000" r="472.315" /> 
<circle cx="69870.1" cy="41000" r="472.315" /> 
<circle cx="69370.1" cy="42000" r="314.815" /> 
<circle cx="73370.1" cy="42000" r="314.815" /> 
<circle cx="63870.1" cy="42000" r="763.815" /> 
<circle cx="64870.1" cy="40000" r="472.315" /> 
<circle cx="62370.1" cy="41000" r="472.315" /> 
<circle cx="61870.1" cy="42000" r="314.815" /> 
<circle cx="65870.1" cy="42000" r="314.815" /> 
<circle cx="56370.1" cy="42000" r="763.815" /> 
<circle cx="57370.1" cy="40000" r="472.315" /> 
<circle cx="54870.1" cy="41000" r="472.315" /> 
<circle cx="54370.1" cy="42000" r="314.815" /> 
<circle cx="58370.1" cy="42000" r="314.815" /> 
<circle cx="48870.1" cy="42000" r="763.815" /> 
<circle cx="49870.1" cy="40000" r="472.315" /> 
<circle cx="47370.1" cy="41000" r="472.315" /> 
<circle cx="46870.1" cy="42000" r="314.815" /> 
<circle cx="50870.1" cy="42000" r="314.815" /> 
<circle cx="41370.1" cy="42000" r="763.815" /> 
<circle cx="42370.1" cy="40000" r="472.315" /> 
<circle cx="39870.1" cy="41000" r="472.315" /> 
<circle cx="39370.1" cy="42000" r="314.815" /> 
<circle cx="43370.1" cy="42000" r="314.815" /> 
<circle cx="32935" cy="42000" r="763.815" /> 
<circle cx="33935" cy="40000" r="472.315" /> 
<circle cx="31435" cy="41000" r="472.315" /> 
<circle cx="30935" cy="42000" r="314.815" /> 
<circle cx="34935" cy="42000" r="314.815" /> 
<circle cx="77000" cy="34500" r="763.815" /> 
<circle cx="78000" cy="32500" r="472.315" /> 
<circle cx="75500" cy="33500" r="472.315" /> 
<circle cx="75000" cy="34500" r="314.815" /> 
<circle cx="79000" cy="34500" r="314.815" /> 
<circle cx="107000" cy="34500" r="763.815" /> 
<circle cx="108000" cy="32500" r="472.315" /> 
<circle cx="105500" cy="33500" r="472.315" /> 
<circle cx="105000" cy="34500" r="314.815" /> 
<circle cx="109000" cy="34500" r="314.815" /> 
<circle cx="99500" cy="34500" r="763.815" /> 
<circle cx="100500" cy="32500" r="472.315" /> 
<circle cx="98000" cy="33500" r="472.315" /> 
<circle cx="97500" cy="34500" r="314.815" /> 
<circle cx="101500" cy="34500" r="314.815" /> 
<circle cx="84500" cy="34500" r="763.815" /> 
<circle cx="85500" cy="32500" r="472.315" /> 
<circle cx="83000" cy="33500" r="472.315" /> 
<circle cx="82500" cy="34500" r="314.815" /> 
<circle cx="86500" cy="34500" r="314.815" /> 
<circle cx="69500" cy="34500" r="763.815" /> 
<circle cx="70500" cy="32500" r="472.315" /> 
<circle cx="68000" cy="33500" r="472.315" /> 
<circle cx="67500" cy="34500" r="314.815" /> 
<circle cx="71500" cy="34500" r="314.815" /> 
<circle cx="62000" cy="34500" r="763.815" /> 
<circle cx="63000" cy="32500" r="472.315" /> 
<circle cx="60500" cy="33500" r="472.315" /> 
<circle cx="60000" cy="34500" r="314.815" /> 
<circle cx="64000" cy="34500" r="314.815" /> 
<circle cx="54500" cy="34500" r="763.815" /> 
<circle cx="55500" cy="32500" r="472.315" /> 
<circle cx="53000" cy="33500" r="472.315" /> 
<circle cx="52500" cy="34500" r="314.815" /> 
<circle cx="56500" cy="34500" r="314.815" /> 
<circle cx="47000" cy="34500" r="763.815" /> 
<circle cx="48000" cy="32500" r="472.315" /> 
<circle cx="45500" cy="33500" r="472.315" /> 
<circle cx="45000" cy="34500" r="314.815" /> 
<circle cx="49000" cy="34500" r="314.815" /> 
<circle cx="39500" cy="34500" r="763.815" /> 
<circle cx="40500" cy="32500" r="472.315" /> 
<circle cx="38000" cy="33500" r="472.315" /> 
<circle cx="37500" cy="34500" r="314.815" /> 
<circle cx="41500" cy="34500" r="314.815" /> 
<circle cx="32000" cy="34500" r="763.815" /> 
<circle cx="33000" cy="32500" r="472.315" /> 
<circle cx="30500" cy="33500" r="472.315" /> 
<circle cx="30000" cy="34500" r="314.815" /> 
<circle cx="34000" cy="34500" r="314.815" /> 
<circle cx="108870" cy="42000" r="763.815" /> 
<circle cx="109870" cy="40000" r="472.315" /> 
<circle cx="107370" cy="41000" r="472.315" /> 
<circle cx="106870" cy="42000" r="314.815" /> 
<circle cx="110870" cy="42000" r="314.815" /> 
<circle cx="92000" cy="34500" r="763.815" /> 
<circle cx="93000" cy="32500" r="472.315" /> 
<circle cx="90500" cy="33500" r="472.315" /> 
<circle cx="90000" cy="34500" r="314.815" /> 
<circle cx="94000" cy="34500" r="314.815" /> 
<circle cx="115412" cy="57000" r="763.815" /> 
<circle cx="116412" cy="55000" r="472.315" /> 
<circle cx="113912" cy="56000" r="472.315" /> 
<circle cx="113412" cy="57000" r="314.815" /> 
<circle cx="117412" cy="57000" r="314.815" /> 
<circle cx="106977" cy="57000" r="763.815" /> 
<circle cx="107977" cy="55000" r="472.315" /> 
<circle cx="105477" cy="56000" r="472.315" /> 
<circle cx="104977" cy="57000" r="314.815" /> 
<circle cx="108977" cy="57000" r="314.815" /> 
<circle cx="85419.3" cy="57000" r="763.815" /> 
<circle cx="86419.3" cy="55000" r="472.315" /> 
<circle cx="83919.3" cy="56000" r="472.315" /> 
<circle cx="83419.3" cy="57000" r="314.815" /> 
<circle cx="87419.3" cy="57000" r="314.815" /> 
<circle cx="54502.7" cy="57000" r="763.815" /> 
<circle cx="55502.7" cy="55000" r="472.315" /> 
<circle cx="53002.7" cy="56000" r="472.315" /> 
<circle cx="52502.7" cy="57000" r="314.815" /> 
<circle cx="56502.7" cy="57000" r="314.815" /> 
<circle cx="46067.7" cy="57000" r="763.815" /> 
<circle cx="47067.7" cy="55000" r="472.315" /> 
<circle cx="44567.7" cy="56000" r="472.315" /> 
<circle cx="44067.7" cy="57000" r="314.815" /> 
<circle cx="48067.7" cy="57000" r="314.815" /> 
<circle cx="120125" cy="49500" r="763.815" /> 
<circle cx="121125" cy="47500" r="472.315" /> 
<circle cx="118625" cy="48500" r="472.315" /> 
<circle cx="118125" cy="49500" r="314.815" /> 
<circle cx="122125" cy="49500" r="314.815" /> 
<circle cx="112625" cy="49500" r="763.815" /> 
<circle cx="113625" cy="47500" r="472.315" /> 
<circle cx="111125" cy="48500" r="472.315" /> 
<circle cx="110625" cy="49500" r="314.815" /> 
<circle cx="114625" cy="49500" r="314.815" /> 
<circle cx="105125" cy="49500" r="763.815" /> 
<circle cx="106125" cy="47500" r="472.315" /> 
<circle cx="103625" cy="48500" r="472.315" /> 
<circle cx="103125" cy="49500" r="314.815" /> 
<circle cx="107125" cy="49500" r="314.815" /> 
<circle cx="97625" cy="49500" r="763.815" /> 
<circle cx="98625" cy="47500" r="472.315" /> 
<circle cx="96125" cy="48500" r="472.315" /> 
<circle cx="95625" cy="49500" r="314.815" /> 
<circle cx="99625" cy="49500" r="314.815" /> 
<circle cx="90125" cy="49500" r="763.815" /> 
<circle cx="91125" cy="47500" r="472.315" /> 
<circle cx="88625" cy="48500" r="472.315" /> 
<circle cx="88125" cy="49500" r="314.815" /> 
<circle cx="92125" cy="49500" r="314.815" /> 
<circle cx="82625" cy="49500" r="763.815" /> 
<circle cx="83625" cy="47500" r="472.315" /> 
<circle cx="81125" cy="48500" r="472.315" /> 
<circle cx="80625" cy="49500" r="314.815" /> 
<circle cx="84625" cy="49500" r="314.815" /> 
<circle cx="75125" cy="49500" r="763.815" /> 
<circle cx="76125" cy="47500" r="472.315" /> 
<circle cx="73625" cy="48500" r="472.315" /> 
<circle cx="73125" cy="49500" r="314.815" /> 
<circle cx="77125" cy="49500" r="314.815" /> 
<circle cx="67625" cy="49500" r="763.815" /> 
<circle cx="68625" cy="47500" r="472.315" /> 
<circle cx="66125" cy="48500" r="472.315" /> 
<circle cx="65625" cy="49500" r="314.815" /> 
<circle cx="69625" cy="49500" r="314.815" /> 
<circle cx="60125" cy="49500" r="763.815" /> 
<circle cx="61125" cy="47500" r="472.315" /> 
<circle cx="58625" cy="48500" r="472.315" /> 
<circle cx="58125" cy="49500" r="314.815" /> 
<circle cx="62125" cy="49500" r="314.815" /> 
<circle cx="52625" cy="49500" r="763.815" /> 
<circle cx="53625" cy="47500" r="472.315" /> 
<circle cx="51125" cy="48500" r="472.315" /> 
<circle cx="50625" cy="49500" r="314.815" /> 
<circle cx="54625" cy="49500" r="314.815" /> 
<circle cx="45125" cy="49500" r="763.815" /> 
<circle cx="46125" cy="47500" r="472.315" /> 
<circle cx="43625" cy="48500" r="472.315" /> 
<circle cx="43125" cy="49500" r="314.815" /> 
<circle cx="47125" cy="49500" r="314.815" /> 
<circle cx="118245" cy="42000" r="763.815" /> 
<circle cx="119245" cy="40000" r="472.315" /> 
<circle cx="116745" cy="41000" r="472.315" /> 
<circle cx="116245" cy="42000" r="314.815" /> 
<circle cx="120245" cy="42000" r="314.815" /> 
</g> 
</svg>
