<?xml version="1.0" standalone="no"?>
 <!DOCTYPE svg PUBLIC "-//W3C//DTD SVG 1.1//EN" 
 "http://www.w3.org/Graphics/SVG/1.1/DTD/svg11.dtd"> 
<svg xmlns="http://www.w3.org/2000/svg" version="1.1" 
    width="41.9989cm" height="29.7002cm" viewBox="0 0 165350 116930 ">
<title>SVG Picture created as keyboard-F_SilkS.svg date 2014/07/06 15:03:50 </title>
  <desc>Picture generated by PCBNEW </desc>
<g style="fill:#000000; fill-opacity:1;stroke:#000000; stroke-opacity:1;
stroke-linecap:round; stroke-linejoin:round; "
 transform="translate(0 0) scale(1 1)">
</g>
<g style="fill:#000000; fill-opacity:0.0; 
stroke:#000000; stroke-width:39.3701; stroke-opacity:1; 
stroke-linecap:round; stroke-linejoin:round;">
<path d="M4000 4000
L161350 4000
L161350 112930
L4000 112930
L4000 4000
" />
<path d="M4700 4700
L160650 4700
L160650 112230
L4700 112230
L4700 4700
" />
<path d="M26470 4000
L26470 4700
" />
<path d="M15382 4552
L15097 4552
" />
<path d="M15240 4552
L15240 4052
L15192 4123
L15144 4171
L15097 4195
" />
<path d="M26470 112930
L26470 112230
" />
<path d="M15382 112782
L15097 112782
" />
<path d="M15240 112782
L15240 112282
L15192 112353
L15144 112401
L15097 112425
" />
<path d="M48940 4000
L48940 4700
" />
<path d="M37567 4100
L37590 4076
L37638 4052
L37757 4052
L37805 4076
L37829 4100
L37852 4147
L37852 4195
L37829 4266
L37543 4552
L37852 4552
" />
<path d="M48940 112930
L48940 112230
" />
<path d="M37567 112330
L37590 112306
L37638 112282
L37757 112282
L37805 112306
L37829 112330
L37852 112377
L37852 112425
L37829 112496
L37543 112782
L37852 112782
" />
<path d="M71410 4000
L71410 4700
" />
<path d="M60013 4052
L60322 4052
L60156 4242
L60227 4242
L60275 4266
L60299 4290
L60322 4338
L60322 4457
L60299 4504
L60275 4528
L60227 4552
L60084 4552
L60037 4528
L60013 4504
" />
<path d="M71410 112930
L71410 112230
" />
<path d="M60013 112282
L60322 112282
L60156 112472
L60227 112472
L60275 112496
L60299 112520
L60322 112568
L60322 112687
L60299 112734
L60275 112758
L60227 112782
L60084 112782
L60037 112758
L60013 112734
" />
<path d="M93880 4000
L93880 4700
" />
<path d="M82745 4219
L82745 4552
" />
<path d="M82626 4028
L82507 4385
L82816 4385
" />
<path d="M93880 112930
L93880 112230
" />
<path d="M82745 112449
L82745 112782
" />
<path d="M82626 112258
L82507 112615
L82816 112615
" />
<path d="M116350 4000
L116350 4700
" />
<path d="M105239 4052
L105000 4052
L104977 4290
L105000 4266
L105048 4242
L105167 4242
L105215 4266
L105239 4290
L105262 4338
L105262 4457
L105239 4504
L105215 4528
L105167 4552
L105048 4552
L105000 4528
L104977 4504
" />
<path d="M116350 112930
L116350 112230
" />
<path d="M105239 112282
L105000 112282
L104977 112520
L105000 112496
L105048 112472
L105167 112472
L105215 112496
L105239 112520
L105262 112568
L105262 112687
L105239 112734
L105215 112758
L105167 112782
L105048 112782
L105000 112758
L104977 112734
" />
<path d="M138820 4000
L138820 4700
" />
<path d="M127685 4052
L127590 4052
L127542 4076
L127518 4100
L127470 4171
L127447 4266
L127447 4457
L127470 4504
L127494 4528
L127542 4552
L127637 4552
L127685 4528
L127709 4504
L127732 4457
L127732 4338
L127709 4290
L127685 4266
L127637 4242
L127542 4242
L127494 4266
L127470 4290
L127447 4338
" />
<path d="M138820 112930
L138820 112230
" />
<path d="M127685 112282
L127590 112282
L127542 112306
L127518 112330
L127470 112401
L127447 112496
L127447 112687
L127470 112734
L127494 112758
L127542 112782
L127637 112782
L127685 112758
L127709 112734
L127732 112687
L127732 112568
L127709 112520
L127685 112496
L127637 112472
L127542 112472
L127494 112496
L127470 112520
L127447 112568
" />
<path d="M149893 4052
L150226 4052
L150012 4552
" />
<path d="M149893 112282
L150226 112282
L150012 112782
" />
<path d="M4000 25780
L4700 25780
" />
<path d="M4230 14949
L4469 14949
" />
<path d="M4183 15092
L4350 14592
L4516 15092
" />
<path d="M161350 25780
L160650 25780
" />
<path d="M160880 14949
L161119 14949
" />
<path d="M160833 15092
L161000 14592
L161166 15092
" />
<path d="M4000 47560
L4700 47560
" />
<path d="M4385 36610
L4457 36634
L4480 36658
L4504 36705
L4504 36777
L4480 36824
L4457 36848
L4409 36872
L4219 36872
L4219 36372
L4385 36372
L4433 36396
L4457 36420
L4480 36467
L4480 36515
L4457 36562
L4433 36586
L4385 36610
L4219 36610
" />
<path d="M161350 47560
L160650 47560
" />
<path d="M161035 36610
L161107 36634
L161130 36658
L161154 36705
L161154 36777
L161130 36824
L161107 36848
L161059 36872
L160869 36872
L160869 36372
L161035 36372
L161083 36396
L161107 36420
L161130 36467
L161130 36515
L161107 36562
L161083 36586
L161035 36610
L160869 36610
" />
<path d="M4000 69340
L4700 69340
" />
<path d="M4504 58604
L4480 58628
L4409 58652
L4361 58652
L4290 58628
L4242 58580
L4219 58533
L4195 58438
L4195 58366
L4219 58271
L4242 58223
L4290 58176
L4361 58152
L4409 58152
L4480 58176
L4504 58200
" />
<path d="M161350 69340
L160650 69340
" />
<path d="M161154 58604
L161130 58628
L161059 58652
L161011 58652
L160940 58628
L160892 58580
L160869 58533
L160845 58438
L160845 58366
L160869 58271
L160892 58223
L160940 58176
L161011 58152
L161059 58152
L161130 58176
L161154 58200
" />
<path d="M4000 91120
L4700 91120
" />
<path d="M4219 80432
L4219 79932
L4338 79932
L4409 79956
L4457 80003
L4480 80051
L4504 80146
L4504 80218
L4480 80313
L4457 80360
L4409 80408
L4338 80432
L4219 80432
" />
<path d="M161350 91120
L160650 91120
" />
<path d="M160869 80432
L160869 79932
L160988 79932
L161059 79956
L161107 80003
L161130 80051
L161154 80146
L161154 80218
L161130 80313
L161107 80360
L161059 80408
L160988 80432
L160869 80432
" />
<path d="M4242 101950
L4409 101950
" />
<path d="M4480 102212
L4242 102212
L4242 101712
L4480 101712
" />
<path d="M160892 101950
L161059 101950
" />
<path d="M161130 102212
L160892 102212
L160892 101712
L161130 101712
" />
<path d="M127800 110672
L127875 110072
L128017 110072
L128100 110101
L128150 110158
L128171 110215
L128185 110330
L128175 110415
L128132 110530
L128096 110587
L128032 110644
L127942 110672
L127800 110672
" />
<path d="M128657 110672
L128696 110358
L128675 110301
L128621 110272
L128507 110272
L128446 110301
" />
<path d="M128660 110644
L128600 110672
L128457 110672
L128403 110644
L128382 110587
L128389 110530
L128425 110472
L128485 110444
L128628 110444
L128689 110415
" />
<path d="M128907 110272
L129135 110272
" />
<path d="M129017 110072
L128953 110587
L128975 110644
L129028 110672
L129085 110672
" />
<path d="M129517 110644
L129457 110672
L129342 110672
L129289 110644
L129267 110587
L129296 110358
L129332 110301
L129392 110272
L129507 110272
L129560 110301
L129582 110358
L129575 110415
L129282 110472
" />
<path d="M129807 110615
L129832 110644
L129800 110672
L129775 110644
L129807 110615
L129800 110672
" />
<path d="M129846 110301
L129871 110330
L129839 110358
L129814 110330
L129846 110301
L129839 110358
" />
<path d="M130875 110072
L130760 110072
L130699 110101
L130667 110130
L130600 110215
L130557 110330
L130528 110558
L130550 110615
L130575 110644
L130628 110672
L130742 110672
L130803 110644
L130835 110615
L130871 110558
L130889 110415
L130867 110358
L130842 110330
L130789 110301
L130674 110301
L130614 110330
L130582 110358
L130546 110415
" />
<path d="M131621 110272
L131557 110787
L131521 110844
L131460 110872
L131432 110872
" />
<path d="M131646 110072
L131614 110101
L131639 110130
L131671 110101
L131646 110072
L131639 110130
" />
<path d="M132164 110272
L132114 110672
" />
<path d="M131907 110272
L131867 110587
L131889 110644
L131942 110672
L132028 110672
L132089 110644
L132121 110615
" />
<path d="M132485 110672
L132432 110644
L132410 110587
L132475 110072
" />
<path d="M133210 110130
L133242 110101
L133303 110072
L133446 110072
L133500 110101
L133525 110130
L133546 110187
L133539 110244
L133500 110330
L133114 110672
L133485 110672
" />
<path d="M133932 110072
L133989 110072
L134042 110101
L134067 110130
L134089 110187
L134103 110301
L134085 110444
L134042 110558
L134007 110615
L133975 110644
L133914 110672
L133857 110672
L133803 110644
L133778 110615
L133757 110558
L133742 110444
L133760 110301
L133803 110187
L133839 110130
L133871 110101
L133932 110072
" />
<path d="M134628 110672
L134285 110672
" />
<path d="M134457 110672
L134532 110072
L134464 110158
L134400 110215
L134339 110244
" />
<path d="M135192 110272
L135142 110672
" />
<path d="M135078 110044
L134882 110472
L135253 110472
" />
<path d="M119392 111872
L119392 111272
" />
<path d="M119735 111872
L119478 111530
" />
<path d="M119735 111272
L119392 111615
" />
<path d="M119992 111872
L119992 111472
" />
<path d="M119992 111272
L119964 111301
L119992 111330
L120021 111301
L119992 111272
L119992 111330
" />
<path d="M120621 111815
L120592 111844
L120507 111872
L120450 111872
L120364 111844
L120307 111787
L120278 111730
L120250 111615
L120250 111530
L120278 111415
L120307 111358
L120364 111301
L120450 111272
L120507 111272
L120592 111301
L120621 111330
" />
<path d="M121135 111872
L121135 111558
L121107 111501
L121050 111472
L120935 111472
L120878 111501
" />
<path d="M121135 111844
L121078 111872
L120935 111872
L120878 111844
L120850 111787
L120850 111730
L120878 111672
L120935 111644
L121078 111644
L121135 111615
" />
<path d="M121678 111872
L121678 111272
" />
<path d="M121678 111844
L121621 111872
L121507 111872
L121450 111844
L121421 111815
L121392 111758
L121392 111587
L121421 111530
L121450 111501
L121507 111472
L121621 111472
L121678 111501
" />
<path d="M122421 111558
L122621 111558
" />
<path d="M122707 111872
L122421 111872
L122421 111272
L122707 111272
" />
<path d="M122964 111815
L122992 111844
L122964 111872
L122935 111844
L122964 111815
L122964 111872
" />
<path d="M123249 111872
L123249 111272
L123392 111272
L123478 111301
L123535 111358
L123564 111415
L123592 111530
L123592 111615
L123564 111730
L123535 111787
L123478 111844
L123392 111872
L123249 111872
" />
<path d="M123849 111815
L123878 111844
L123849 111872
L123821 111844
L123849 111815
L123849 111872
" />
<path d="M124107 111701
L124392 111701
" />
<path d="M124049 111872
L124249 111272
L124449 111872
" />
<path d="M124649 111815
L124678 111844
L124649 111872
L124621 111844
L124649 111815
L124649 111872
" />
<path d="M152942 110672
L152778 110387
" />
<path d="M152600 110672
L152675 110072
L152903 110072
L152957 110101
L152982 110130
L153003 110187
L152992 110272
L152957 110330
L152925 110358
L152864 110387
L152635 110387
" />
<path d="M153432 110644
L153371 110672
L153257 110672
L153203 110644
L153182 110587
L153210 110358
L153246 110301
L153307 110272
L153421 110272
L153475 110301
L153496 110358
L153489 110415
L153196 110472
" />
<path d="M153707 110272
L153800 110672
L153992 110272
" />
<path d="M154178 110615
L154203 110644
L154171 110672
L154146 110644
L154178 110615
L154171 110672
" />
<path d="M154217 110301
L154242 110330
L154210 110358
L154185 110330
L154217 110301
L154210 110358
" />
<path d="M119364 110644
L119450 110672
L119592 110672
L119650 110644
L119678 110615
L119707 110558
L119707 110501
L119678 110444
L119650 110415
L119592 110387
L119478 110358
L119421 110330
L119392 110301
L119364 110244
L119364 110187
L119392 110130
L119421 110101
L119478 110072
L119621 110072
L119707 110101
" />
<path d="M119964 110672
L119964 110272
" />
<path d="M119964 110072
L119935 110101
L119964 110130
L119992 110101
L119964 110072
L119964 110130
" />
<path d="M120192 110272
L120507 110272
L120192 110672
L120507 110672
" />
<path d="M120964 110644
L120907 110672
L120792 110672
L120735 110644
L120707 110587
L120707 110358
L120735 110301
L120792 110272
L120907 110272
L120964 110301
L120992 110358
L120992 110415
L120707 110472
" />
<path d="M121250 110615
L121278 110644
L121250 110672
L121221 110644
L121250 110615
L121250 110672
" />
<path d="M121250 110301
L121278 110330
L121250 110358
L121221 110330
L121250 110301
L121250 110358
" />
<path d="M121964 110501
L122250 110501
" />
<path d="M121907 110672
L122107 110072
L122307 110672
" />
<path d="M122450 110072
L122821 110072
L122621 110301
L122707 110301
L122764 110330
L122792 110358
L122821 110415
L122821 110558
L122792 110615
L122764 110644
L122707 110672
L122535 110672
L122478 110644
L122450 110615
" />
<path d="M152592 111872
L152592 111272
" />
<path d="M153135 111872
L153135 111272
" />
<path d="M153135 111844
L153078 111872
L152964 111872
L152907 111844
L152878 111815
L152850 111758
L152850 111587
L152878 111530
L152907 111501
L152964 111472
L153078 111472
L153135 111501
" />
<path d="M153421 111815
L153450 111844
L153421 111872
L153392 111844
L153421 111815
L153421 111872
" />
<path d="M153421 111501
L153450 111530
L153421 111558
L153392 111530
L153421 111501
L153421 111558
" />
<path d="M154478 111872
L154135 111872
" />
<path d="M154307 111872
L154307 111272
L154249 111358
L154192 111415
L154135 111444
" />
<path d="M155164 111244
L154650 112015
" />
<path d="M155678 111872
L155335 111872
" />
<path d="M155507 111872
L155507 111272
L155449 111358
L155392 111415
L155335 111444
" />
<path d="M119389 108872
L119732 108872
" />
<path d="M119485 109472
L119560 108872
" />
<path d="M119857 109472
L119907 109072
" />
<path d="M119932 108872
L119900 108901
L119925 108930
L119957 108901
L119932 108872
L119925 108930
" />
<path d="M120107 109072
L120335 109072
" />
<path d="M120217 108872
L120153 109387
L120175 109444
L120228 109472
L120285 109472
" />
<path d="M120571 109472
L120517 109444
L120496 109387
L120560 108872
" />
<path d="M121032 109444
L120971 109472
L120857 109472
L120803 109444
L120782 109387
L120810 109158
L120846 109101
L120907 109072
L121021 109072
L121075 109101
L121096 109158
L121089 109215
L120796 109272
" />
<path d="M121321 109415
L121346 109444
L121314 109472
L121289 109444
L121321 109415
L121314 109472
" />
<path d="M121360 109101
L121385 109130
L121353 109158
L121328 109130
L121360 109101
L121353 109158
" />
<path d="M119592 106758
L119392 106758
" />
<path d="M119392 107072
L119392 106472
L119678 106472
" />
<path d="M119907 107072
L119907 106672
" />
<path d="M119907 106472
L119878 106501
L119907 106530
L119935 106501
L119907 106472
L119907 106530
" />
<path d="M120278 107072
L120221 107044
L120192 106987
L120192 106472
" />
<path d="M120735 107044
L120678 107072
L120564 107072
L120507 107044
L120478 106987
L120478 106758
L120507 106701
L120564 106672
L120678 106672
L120735 106701
L120764 106758
L120764 106815
L120478 106872
" />
<path d="M121021 107015
L121050 107044
L121021 107072
L120992 107044
L121021 107015
L121021 107072
" />
<path d="M121021 106701
L121050 106730
L121021 106758
L120992 106730
L121021 106701
L121021 106758
" />
<path d="M121764 107072
L121764 106472
" />
<path d="M121821 106844
L121992 107072
" />
<path d="M121992 106672
L121764 106901
" />
<path d="M122478 107044
L122421 107072
L122307 107072
L122250 107044
L122221 106987
L122221 106758
L122250 106701
L122307 106672
L122421 106672
L122478 106701
L122507 106758
L122507 106815
L122221 106872
" />
<path d="M122707 106672
L122850 107072
" />
<path d="M122992 106672
L122850 107072
L122792 107215
L122764 107244
L122707 107272
" />
<path d="M123221 107072
L123221 106472
" />
<path d="M123221 106701
L123278 106672
L123392 106672
L123450 106701
L123478 106730
L123507 106787
L123507 106958
L123478 107015
L123450 107044
L123392 107072
L123278 107072
L123221 107044
" />
<path d="M123850 107072
L123792 107044
L123764 107015
L123735 106958
L123735 106787
L123764 106730
L123792 106701
L123850 106672
L123935 106672
L123992 106701
L124021 106730
L124050 106787
L124050 106958
L124021 107015
L123992 107044
L123935 107072
L123850 107072
" />
<path d="M124564 107072
L124564 106758
L124535 106701
L124478 106672
L124364 106672
L124307 106701
" />
<path d="M124564 107044
L124507 107072
L124364 107072
L124307 107044
L124278 106987
L124278 106930
L124307 106872
L124364 106844
L124507 106844
L124564 106815
" />
<path d="M124850 107072
L124850 106672
" />
<path d="M124850 106787
L124878 106730
L124907 106701
L124964 106672
L125021 106672
" />
<path d="M125478 107072
L125478 106472
" />
<path d="M125478 107044
L125421 107072
L125307 107072
L125250 107044
L125221 107015
L125192 106958
L125192 106787
L125221 106730
L125250 106701
L125307 106672
L125421 106672
L125478 106701
" />
<path d="M125764 107015
L125792 107044
L125764 107072
L125735 107044
L125764 107015
L125764 107072
" />
<path d="M126050 107072
L126050 106472
" />
<path d="M126107 106844
L126278 107072
" />
<path d="M126278 106672
L126050 106901
" />
<path d="M126535 107072
L126535 106672
" />
<path d="M126535 106472
L126507 106501
L126535 106530
L126564 106501
L126535 106472
L126535 106530
" />
<path d="M127078 107044
L127021 107072
L126907 107072
L126850 107044
L126821 107015
L126792 106958
L126792 106787
L126821 106730
L126850 106701
L126907 106672
L127021 106672
L127078 106701
" />
<path d="M127592 107072
L127592 106758
L127564 106701
L127507 106672
L127392 106672
L127335 106701
" />
<path d="M127592 107044
L127535 107072
L127392 107072
L127335 107044
L127307 106987
L127307 106930
L127335 106872
L127392 106844
L127535 106844
L127592 106815
" />
<path d="M128135 107072
L128135 106472
" />
<path d="M128135 107044
L128078 107072
L127964 107072
L127907 107044
L127878 107015
L127850 106958
L127850 106787
L127878 106730
L127907 106701
L127964 106672
L128078 106672
L128135 106701
" />
<path d="M128278 107130
L128735 107130
" />
<path d="M128878 106672
L128878 107272
" />
<path d="M128878 106701
L128935 106672
L129050 106672
L129107 106701
L129135 106730
L129164 106787
L129164 106958
L129135 107015
L129107 107044
L129050 107072
L128935 107072
L128878 107044
" />
<path d="M129678 107044
L129621 107072
L129507 107072
L129450 107044
L129421 107015
L129392 106958
L129392 106787
L129421 106730
L129450 106701
L129507 106672
L129621 106672
L129678 106701
" />
<path d="M129935 107072
L129935 106472
" />
<path d="M129935 106701
L129992 106672
L130107 106672
L130164 106701
L130192 106730
L130221 106787
L130221 106958
L130192 107015
L130164 107044
L130107 107072
L129992 107072
L129935 107044
" />
<path d="M119364 108244
L119450 108272
L119592 108272
L119650 108244
L119678 108215
L119707 108158
L119707 108101
L119678 108044
L119650 108015
L119592 107987
L119478 107958
L119421 107930
L119392 107901
L119364 107844
L119364 107787
L119392 107730
L119421 107701
L119478 107672
L119621 107672
L119707 107701
" />
<path d="M119964 108272
L119964 107672
" />
<path d="M120221 108272
L120221 107958
L120192 107901
L120135 107872
L120050 107872
L119992 107901
L119964 107930
" />
<path d="M120735 108244
L120678 108272
L120564 108272
L120507 108244
L120478 108187
L120478 107958
L120507 107901
L120564 107872
L120678 107872
L120735 107901
L120764 107958
L120764 108015
L120478 108072
" />
<path d="M121250 108244
L121192 108272
L121078 108272
L121021 108244
L120992 108187
L120992 107958
L121021 107901
L121078 107872
L121192 107872
L121250 107901
L121278 107958
L121278 108015
L120992 108072
" />
<path d="M121450 107872
L121678 107872
" />
<path d="M121535 107672
L121535 108187
L121564 108244
L121621 108272
L121678 108272
" />
<path d="M121878 108215
L121907 108244
L121878 108272
L121850 108244
L121878 108215
L121878 108272
" />
<path d="M121878 107901
L121907 107930
L121878 107958
L121850 107930
L121878 107901
L121878 107958
" />
<path d="M118650 106230
L118650 112230
" />
<path d="M118650 106230
L160650 106230
" />
<path d="M118650 106230
L160650 106230
" />
<path d="M118650 108630
L160650 108630
" />
<path d="M151850 109830
L151850 112230
" />
<path d="M118650 111030
L160650 111030
" />
<path d="M118650 109830
L160650 109830
" />
<path d="M125250 109830
L125250 111030
" />
</g>
<g style="fill:#009F9F; fill-opacity:0.0; 
stroke:#009F9F; stroke-width:120; stroke-opacity:1; 
stroke-linecap:round; stroke-linejoin:round;">
<path d="M58528 59304
L58328 59304
" />
<path d="M58328 59723
L58328 58923
L58614 58923
" />
<path d="M58928 59723
L58871 59685
L58842 59647
L58814 59571
L58814 59342
L58842 59266
L58871 59228
L58928 59190
L59014 59190
L59071 59228
L59100 59266
L59128 59342
L59128 59571
L59100 59647
L59071 59685
L59014 59723
L58928 59723
" />
<path d="M59385 59723
L59385 59190
" />
<path d="M59385 59342
L59414 59266
L59442 59228
L59500 59190
L59557 59190
" />
<path d="M60185 59685
L60271 59723
L60414 59723
L60471 59685
L60500 59647
L60528 59571
L60528 59495
L60500 59419
L60471 59380
L60414 59342
L60300 59304
L60242 59266
L60214 59228
L60185 59152
L60185 59076
L60214 59000
L60242 58961
L60300 58923
L60442 58923
L60528 58961
" />
<path d="M61042 59685
L60985 59723
L60871 59723
L60814 59685
L60785 59647
L60757 59571
L60757 59342
L60785 59266
L60814 59228
L60871 59190
L60985 59190
L61042 59228
" />
<path d="M61300 59723
L61300 59190
" />
<path d="M61300 58923
L61271 58961
L61300 59000
L61328 58961
L61300 58923
L61300 59000
" />
<path d="M61814 59685
L61757 59723
L61642 59723
L61585 59685
L61557 59609
L61557 59304
L61585 59228
L61642 59190
L61757 59190
L61814 59228
L61842 59304
L61842 59380
L61557 59457
" />
<path d="M62100 59190
L62100 59723
" />
<path d="M62100 59266
L62128 59228
L62185 59190
L62271 59190
L62328 59228
L62357 59304
L62357 59723
" />
<path d="M62900 59685
L62842 59723
L62728 59723
L62671 59685
L62642 59647
L62614 59571
L62614 59342
L62642 59266
L62671 59228
L62728 59190
L62842 59190
L62900 59228
" />
<path d="M63385 59685
L63328 59723
L63214 59723
L63157 59685
L63128 59609
L63128 59304
L63157 59228
L63214 59190
L63328 59190
L63385 59228
L63414 59304
L63414 59380
L63128 59457
" />
<path d="M63671 59647
L63700 59685
L63671 59723
L63642 59685
L63671 59647
L63671 59723
" />
<path d="M63671 59419
L63642 58961
L63671 58923
L63700 58961
L63671 59419
L63671 58923
" />
<path d="M89614 59723
L89614 58923
L89757 58923
L89842 58961
L89900 59038
L89928 59114
L89957 59266
L89957 59380
L89928 59533
L89900 59609
L89842 59685
L89757 59723
L89614 59723
" />
<path d="M90300 59723
L90242 59685
L90214 59647
L90185 59571
L90185 59342
L90214 59266
L90242 59228
L90300 59190
L90385 59190
L90442 59228
L90471 59266
L90500 59342
L90500 59571
L90471 59647
L90442 59685
L90385 59723
L90300 59723
" />
<path d="M90757 59190
L90757 59723
" />
<path d="M90757 59266
L90785 59228
L90842 59190
L90928 59190
L90985 59228
L91014 59304
L91014 59723
" />
<path d="M91328 58923
L91271 59076
" />
<path d="M91500 59190
L91728 59190
" />
<path d="M91585 58923
L91585 59609
L91614 59685
L91671 59723
L91728 59723
" />
<path d="M92385 59723
L92385 58923
L92614 58923
L92671 58961
L92700 59000
L92728 59076
L92728 59190
L92700 59266
L92671 59304
L92614 59342
L92385 59342
" />
<path d="M93242 59723
L93242 59304
L93214 59228
L93157 59190
L93042 59190
L92985 59228
" />
<path d="M93242 59685
L93185 59723
L93042 59723
L92985 59685
L92957 59609
L92957 59533
L92985 59457
L93042 59419
L93185 59419
L93242 59380
" />
<path d="M93528 59190
L93528 59723
" />
<path d="M93528 59266
L93557 59228
L93614 59190
L93700 59190
L93757 59228
L93785 59304
L93785 59723
" />
<path d="M94071 59723
L94071 59190
" />
<path d="M94071 58923
L94042 58961
L94071 59000
L94100 58961
L94071 58923
L94071 59000
" />
<path d="M94614 59685
L94557 59723
L94442 59723
L94385 59685
L94357 59647
L94328 59571
L94328 59342
L94357 59266
L94385 59228
L94442 59190
L94557 59190
L94614 59228
" />
</g>
<g style="fill:#009F9F; fill-opacity:0.0; 
stroke:#009F9F; stroke-width:78.7402; stroke-opacity:1; 
stroke-linecap:round; stroke-linejoin:round;">
<path d="M121870 44402
L121870 44215
" />
<path d="M122039 44440
L121448 44309
L122039 44177
" />
<path d="M121645 43746
L122235 43746
" />
<path d="M121673 43746
L121645 43709
L121645 43634
L121673 43596
L121701 43577
L121757 43559
L121926 43559
L121982 43577
L122010 43596
L122039 43634
L122039 43709
L122010 43746
" />
<path d="M122039 43390
L121645 43390
" />
<path d="M121757 43390
L121701 43371
L121673 43352
L121645 43315
L121645 43277
" />
<path d="M122039 43090
L122010 43127
L121982 43146
L121926 43165
L121757 43165
L121701 43146
L121673 43127
L121645 43090
L121645 43034
L121673 42996
L121701 42977
L121757 42959
L121926 42959
L121982 42977
L122010 42996
L122039 43034
L122039 43090
" />
<path d="M121645 42621
L122123 42621
L122179 42640
L122207 42659
L122235 42696
L122235 42753
L122207 42790
" />
<path d="M122010 42621
L122039 42659
L122039 42734
L122010 42771
L121982 42790
L121926 42809
L121757 42809
L121701 42790
L121673 42771
L121645 42734
L121645 42659
L121673 42621
" />
<path d="M122039 42434
L121645 42434
" />
<path d="M121757 42434
L121701 42415
L121673 42396
L121645 42359
L121645 42321
" />
<path d="M122039 42021
L121729 42021
L121673 42040
L121645 42078
L121645 42153
L121673 42190
" />
<path d="M122010 42021
L122039 42059
L122039 42153
L122010 42190
L121954 42209
L121898 42209
L121842 42190
L121814 42153
L121814 42059
L121785 42021
" />
<path d="M122039 41834
L121645 41834
" />
<path d="M121701 41834
L121673 41815
L121645 41778
L121645 41721
L121673 41684
L121729 41665
L122039 41665
" />
<path d="M121729 41665
L121673 41646
L121645 41609
L121645 41553
L121673 41515
L121729 41496
L122039 41496
" />
<path d="M122039 41309
L121645 41309
" />
<path d="M121701 41309
L121673 41290
L121645 41253
L121645 41196
L121673 41159
L121729 41140
L122039 41140
" />
<path d="M121729 41140
L121673 41121
L121645 41084
L121645 41028
L121673 40990
L121729 40971
L122039 40971
" />
<path d="M122039 40615
L121729 40615
L121673 40634
L121645 40672
L121645 40747
L121673 40784
" />
<path d="M122010 40615
L122039 40653
L122039 40747
L122010 40784
L121954 40803
L121898 40803
L121842 40784
L121814 40747
L121814 40653
L121785 40615
" />
<path d="M122039 40428
L121448 40428
" />
<path d="M121673 40428
L121645 40390
L121645 40315
L121673 40278
L121701 40259
L121757 40240
L121926 40240
L121982 40259
L122010 40278
L122039 40315
L122039 40390
L122010 40428
" />
<path d="M122039 40015
L122010 40053
L121954 40072
L121448 40072
" />
<path d="M122010 39715
L122039 39753
L122039 39828
L122010 39865
L121954 39884
L121729 39884
L121673 39865
L121645 39828
L121645 39753
L121673 39715
L121729 39697
L121785 39697
L121842 39884
" />
<path d="M122550 45490
L122944 45490
" />
<path d="M122325 45583
L122747 45677
L122747 45433
" />
<path d="M122410 45302
L122382 45283
L122353 45246
L122353 45152
L122382 45115
L122410 45096
L122466 45077
L122522 45077
L122607 45096
L122944 45321
L122944 45077
" />
<path d="M122944 44927
L122353 44627
" />
<path d="M122353 44871
L122382 44834
L122438 44815
L122494 44834
L122522 44871
L122494 44908
L122438 44927
L122382 44908
L122353 44871
" />
<path d="M122916 44646
L122860 44627
L122803 44646
L122775 44684
L122803 44721
L122860 44740
L122916 44721
L122944 44684
L122916 44646
" />
<path d="M122944 44159
L122353 44159
" />
<path d="M122719 44121
L122944 44009
" />
<path d="M122550 44009
L122775 44159
" />
<path d="M122916 43690
L122944 43727
L122944 43802
L122916 43840
L122860 43859
L122635 43859
L122578 43840
L122550 43802
L122550 43727
L122578 43690
L122635 43671
L122691 43671
L122747 43859
" />
<path d="M122550 43540
L122944 43446
" />
<path d="M122550 43352
L122944 43446
L123085 43484
L123113 43502
L123141 43540
" />
<path d="M122944 43202
L122353 43202
" />
<path d="M122578 43202
L122550 43165
L122550 43090
L122578 43052
L122607 43034
L122663 43015
L122832 43015
L122888 43034
L122916 43052
L122944 43090
L122944 43165
L122916 43202
" />
<path d="M122944 42790
L122916 42828
L122888 42846
L122832 42865
L122663 42865
L122607 42846
L122578 42828
L122550 42790
L122550 42734
L122578 42696
L122607 42678
L122663 42659
L122832 42659
L122888 42678
L122916 42696
L122944 42734
L122944 42790
" />
<path d="M122944 42321
L122635 42321
L122578 42340
L122550 42378
L122550 42453
L122578 42490
" />
<path d="M122916 42321
L122944 42359
L122944 42453
L122916 42490
L122860 42509
L122803 42509
L122747 42490
L122719 42453
L122719 42359
L122691 42321
" />
<path d="M122944 42134
L122550 42134
" />
<path d="M122663 42134
L122607 42115
L122578 42096
L122550 42059
L122550 42021
" />
<path d="M122944 41721
L122353 41721
" />
<path d="M122916 41721
L122944 41759
L122944 41834
L122916 41871
L122888 41890
L122832 41909
L122663 41909
L122607 41890
L122578 41871
L122550 41834
L122550 41759
L122578 41721
" />
<path d="M122550 41290
L122550 41140
" />
<path d="M122944 41234
L122438 41234
L122382 41215
L122353 41178
L122353 41140
" />
<path d="M122944 40953
L122916 40990
L122888 41009
L122832 41028
L122663 41028
L122607 41009
L122578 40990
L122550 40953
L122550 40897
L122578 40859
L122607 40840
L122663 40822
L122832 40822
L122888 40840
L122916 40859
L122944 40897
L122944 40953
" />
<path d="M122944 40653
L122550 40653
" />
<path d="M122663 40653
L122607 40634
L122578 40615
L122550 40578
L122550 40540
" />
<path d="M122944 40109
L122353 40109
L122353 40015
L122382 39959
L122438 39922
L122494 39903
L122607 39884
L122691 39884
L122803 39903
L122860 39922
L122916 39959
L122944 40015
L122944 40109
" />
<path d="M122550 39753
L122944 39659
L122550 39565
" />
<path d="M122944 39359
L122916 39397
L122888 39415
L122832 39434
L122663 39434
L122607 39415
L122578 39397
L122550 39359
L122550 39303
L122578 39265
L122607 39247
L122663 39228
L122832 39228
L122888 39247
L122916 39265
L122944 39303
L122944 39359
" />
<path d="M122944 39059
L122550 39059
" />
<path d="M122663 39059
L122607 39040
L122578 39022
L122550 38984
L122550 38947
" />
<path d="M122944 38647
L122635 38647
L122578 38666
L122550 38703
L122550 38778
L122578 38816
" />
<path d="M122916 38647
L122944 38684
L122944 38778
L122916 38816
L122860 38834
L122803 38834
L122747 38816
L122719 38778
L122719 38684
L122691 38647
" />
<path d="M122944 38459
L122353 38459
" />
<path d="M122719 38422
L122944 38309
" />
<path d="M122550 38309
L122775 38459
" />
<path d="M122888 38141
L122916 38122
L122944 38141
L122916 38159
L122888 38141
L122944 38141
" />
</g>
<g style="fill:#009F9F; fill-opacity:0.0; 
stroke:#009F9F; stroke-width:393.701; stroke-opacity:1; 
stroke-linecap:round; stroke-linejoin:round;">
<path d="M122976 37487
L121532 37487
" />
<path d="M121739 37487
L121635 37412
L121532 37262
L121532 37037
L121635 36887
L121842 36812
L122976 36812
" />
<path d="M121842 36812
L121635 36737
L121532 36587
L121532 36362
L121635 36212
L121842 36137
L122976 36137
" />
<path d="M122976 34712
L121842 34712
L121635 34787
L121532 34937
L121532 35237
L121635 35387
" />
<path d="M122873 34712
L122976 34862
L122976 35237
L122873 35387
L122667 35462
L122460 35462
L122254 35387
L122151 35237
L122151 34862
L122048 34712
" />
<path d="M121532 33287
L122976 33287
" />
<path d="M120707 33662
L122254 34037
L122254 33062
" />
<path d="M121017 32537
L120914 32462
L120811 32312
L120811 31937
L120914 31787
L121017 31712
L121223 31637
L121429 31637
L121739 31712
L122976 32612
L122976 31637
" />
</g>
<g style="fill:#009F9F; fill-opacity:0.0; 
stroke:#009F9F; stroke-width:120; stroke-opacity:1; 
stroke-linecap:round; stroke-linejoin:round;">
<path d="M29395 45128
L29395 45414
" />
<path d="M29623 45071
L28823 45271
L29623 45471
" />
<path d="M29623 45928
L28823 45928
" />
<path d="M29585 45928
L29623 45871
L29623 45757
L29585 45700
L29547 45671
L29471 45642
L29242 45642
L29166 45671
L29128 45700
L29090 45757
L29090 45871
L29128 45928
" />
<path d="M29623 46471
L29204 46471
L29128 46442
L29090 46385
L29090 46271
L29128 46214
" />
<path d="M29585 46471
L29623 46414
L29623 46271
L29585 46214
L29509 46185
L29433 46185
L29357 46214
L29319 46271
L29319 46414
L29280 46471
" />
<path d="M29623 46757
L29090 46757
" />
<path d="M29166 46757
L29128 46785
L29090 46842
L29090 46928
L29128 46985
L29204 47014
L29623 47014
" />
<path d="M29204 47014
L29128 47042
L29090 47100
L29090 47185
L29128 47242
L29204 47271
L29623 47271
" />
<path d="M29585 47985
L29623 48071
L29623 48214
L29585 48271
L29547 48300
L29471 48328
L29395 48328
L29319 48300
L29280 48271
L29242 48214
L29204 48100
L29166 48042
L29128 48014
L29052 47985
L28976 47985
L28900 48014
L28861 48042
L28823 48100
L28823 48242
L28861 48328
" />
<path d="M29585 48842
L29623 48785
L29623 48671
L29585 48614
L29547 48585
L29471 48557
L29242 48557
L29166 48585
L29128 48614
L29090 48671
L29090 48785
L29128 48842
" />
<path d="M29623 49100
L28823 49100
" />
<path d="M29623 49357
L29204 49357
L29128 49328
L29090 49271
L29090 49185
L29128 49128
L29166 49100
" />
<path d="M29090 49585
L29623 49700
L29242 49814
L29623 49928
L29090 50042
" />
<path d="M29623 50528
L29204 50528
L29128 50500
L29090 50442
L29090 50328
L29128 50271
" />
<path d="M29585 50528
L29623 50471
L29623 50328
L29585 50271
L29509 50242
L29433 50242
L29357 50271
L29319 50328
L29319 50471
L29280 50528
" />
<path d="M29623 50814
L29090 50814
" />
<path d="M29242 50814
L29166 50842
L29128 50871
L29090 50928
L29090 50985
" />
<path d="M29090 51100
L29090 51328
" />
<path d="M28823 51185
L29509 51185
L29585 51214
L29623 51271
L29623 51328
" />
<path d="M29090 51471
L29090 51785
L29623 51471
L29623 51785
" />
<path d="M29623 52957
L29623 52928
L29585 52871
L29471 52785
L29242 52642
L29128 52585
L29014 52557
L28938 52557
L28861 52585
L28823 52642
L28823 52671
L28861 52728
L28938 52757
L28976 52757
L29052 52728
L29090 52700
L29242 52528
L29280 52500
L29357 52471
L29471 52471
L29547 52500
L29585 52528
L29623 52585
L29623 52671
L29585 52728
L29547 52757
L29395 52842
L29280 52871
L29204 52871
" />
<path d="M29623 53671
L28823 53671
L29395 53871
L28823 54071
L29623 54071
" />
<path d="M29623 54357
L29090 54357
" />
<path d="M28823 54357
L28861 54328
L28900 54357
L28861 54385
L28823 54357
L28900 54357
" />
<path d="M29585 54900
L29623 54842
L29623 54728
L29585 54671
L29547 54642
L29471 54614
L29242 54614
L29166 54642
L29128 54671
L29090 54728
L29090 54842
L29128 54900
" />
<path d="M29623 55157
L28823 55157
" />
<path d="M29623 55414
L29204 55414
L29128 55385
L29090 55328
L29090 55242
L29128 55185
L29166 55157
" />
<path d="M29623 55957
L29204 55957
L29128 55928
L29090 55871
L29090 55757
L29128 55700
" />
<path d="M29585 55957
L29623 55900
L29623 55757
L29585 55700
L29509 55671
L29433 55671
L29357 55700
L29319 55757
L29319 55900
L29280 55957
" />
<path d="M29585 56471
L29623 56414
L29623 56300
L29585 56242
L29509 56214
L29204 56214
L29128 56242
L29090 56300
L29090 56414
L29128 56471
L29204 56500
L29280 56500
L29357 56214
" />
<path d="M29623 56842
L29585 56785
L29509 56757
L28823 56757
" />
<path d="M28861 57842
L28823 57785
L28823 57700
L28861 57614
L28938 57557
L29014 57528
L29166 57500
L29280 57500
L29433 57528
L29509 57557
L29585 57614
L29623 57700
L29623 57757
L29585 57842
L29547 57871
L29280 57871
L29280 57757
" />
<path d="M29623 58214
L29585 58157
L29547 58128
L29471 58100
L29242 58100
L29166 58128
L29128 58157
L29090 58214
L29090 58300
L29128 58357
L29166 58385
L29242 58414
L29471 58414
L29547 58385
L29585 58357
L29623 58300
L29623 58214
" />
<path d="M29623 58671
L28823 58671
" />
<path d="M29128 58671
L29090 58728
L29090 58842
L29128 58900
L29166 58928
L29242 58957
L29471 58957
L29547 58928
L29585 58900
L29623 58842
L29623 58728
L29585 58671
" />
<path d="M29585 59442
L29623 59385
L29623 59271
L29585 59214
L29509 59185
L29204 59185
L29128 59214
L29090 59271
L29090 59385
L29128 59442
L29204 59471
L29280 59471
L29357 59185
" />
<path d="M29623 59814
L29585 59757
L29509 59728
L28823 59728
" />
<path d="M29623 60042
L29090 60042
" />
<path d="M28823 60042
L28861 60014
L28900 60042
L28861 60071
L28823 60042
L28900 60042
" />
<path d="M30140 47585
L30101 47614
L30063 47671
L30063 47814
L30101 47871
L30140 47899
L30216 47928
L30292 47928
L30406 47899
L30863 47557
L30863 47928
" />
<path d="M30063 48299
L30063 48357
L30101 48414
L30140 48442
L30216 48471
L30368 48499
L30559 48499
L30711 48471
L30787 48442
L30825 48414
L30863 48357
L30863 48299
L30825 48242
L30787 48214
L30711 48185
L30559 48157
L30368 48157
L30216 48185
L30140 48214
L30101 48242
L30063 48299
" />
<path d="M30863 49071
L30863 48728
" />
<path d="M30863 48899
L30063 48899
L30178 48842
L30254 48785
L30292 48728
" />
<path d="M30330 49585
L30863 49585
" />
<path d="M30025 49442
L30597 49300
L30597 49671
" />
<path d="M30559 49900
L30559 50357
" />
<path d="M30063 50757
L30063 50814
L30101 50871
L30140 50900
L30216 50928
L30368 50957
L30559 50957
L30711 50928
L30787 50900
L30825 50871
L30863 50814
L30863 50757
L30825 50700
L30787 50671
L30711 50642
L30559 50614
L30368 50614
L30216 50642
L30140 50671
L30101 50700
L30063 50757
" />
<path d="M30063 51471
L30063 51357
L30101 51300
L30140 51271
L30254 51214
L30406 51185
L30711 51185
L30787 51214
L30825 51242
L30863 51300
L30863 51414
L30825 51471
L30787 51500
L30711 51528
L30520 51528
L30444 51500
L30406 51471
L30368 51414
L30368 51300
L30406 51242
L30444 51214
L30520 51185
" />
<path d="M30559 51785
L30559 52242
" />
<path d="M30063 52642
L30063 52700
L30101 52757
L30140 52785
L30216 52814
L30368 52842
L30559 52842
L30711 52814
L30787 52785
L30825 52757
L30863 52700
L30863 52642
L30825 52585
L30787 52557
L30711 52528
L30559 52500
L30368 52500
L30216 52528
L30140 52557
L30101 52585
L30063 52642
" />
<path d="M30406 53185
L30368 53128
L30330 53100
L30254 53071
L30216 53071
L30140 53100
L30101 53128
L30063 53185
L30063 53300
L30101 53357
L30140 53385
L30216 53414
L30254 53414
L30330 53385
L30368 53357
L30406 53300
L30406 53185
L30444 53128
L30482 53100
L30559 53071
L30711 53071
L30787 53100
L30825 53128
L30863 53185
L30863 53300
L30825 53357
L30787 53385
L30711 53414
L30559 53414
L30482 53385
L30444 53357
L30406 53300
" />
<path d="M30063 54414
L30063 54128
L30444 54100
L30406 54128
L30368 54185
L30368 54328
L30406 54385
L30444 54414
L30520 54442
L30711 54442
L30787 54414
L30825 54385
L30863 54328
L30863 54185
L30825 54128
L30787 54100
" />
<path d="M30787 54700
L30825 54728
L30863 54700
L30825 54671
L30787 54700
L30863 54700
" />
<path d="M30368 54700
L30406 54728
L30444 54700
L30406 54671
L30368 54700
L30444 54700
" />
<path d="M30063 55271
L30063 54985
L30444 54957
L30406 54985
L30368 55042
L30368 55185
L30406 55242
L30444 55271
L30520 55300
L30711 55300
L30787 55271
L30825 55242
L30863 55185
L30863 55042
L30825 54985
L30787 54957
" />
<path d="M30063 55842
L30063 55557
L30444 55528
L30406 55557
L30368 55614
L30368 55757
L30406 55814
L30444 55842
L30520 55871
L30711 55871
L30787 55842
L30825 55814
L30863 55757
L30863 55614
L30825 55557
L30787 55528
" />
<path d="M30863 56585
L30063 56585
L30063 56814
L30101 56871
L30140 56900
L30216 56928
L30330 56928
L30406 56900
L30444 56871
L30482 56814
L30482 56585
" />
<path d="M30863 57185
L30063 57185
L30635 57385
L30063 57585
L30863 57585
" />
</g>
<g style="fill:#FFFF00; fill-opacity:0.0; 
stroke:#FFFF00; stroke-width:39.0157; stroke-opacity:1; 
stroke-linecap:round; stroke-linejoin:round;">
<path d="M123000 60500
L29000 60500
" />
<path d="M123500 31500
L123500 60000
" />
<path d="M29000 31000
L123000 31000
" />
<path d="M28500 60000
L28500 31500
" />
<path d="M123500 31500 A500 500 0.0 0 0 123000 31000 " />
<path d="M123000 60500 A500 500 0.0 0 0 123500 60000 " />
<path d="M28500 60000 A500 500 0.0 0 0 29000 60500 " />
<path d="M29000 31000 A500 500 0.0 0 0 28500 31500 " />
</g>
<g style="fill:#009F9F; fill-opacity:0.0; 
stroke:#009F9F; stroke-width:120; stroke-opacity:1; 
stroke-linecap:round; stroke-linejoin:round;">
<path d="M36603 53992
L36603 53392
L36803 53821
L37003 53392
L37003 53992
" />
<path d="M37232 53392
L37632 53992
" />
<path d="M37632 53392
L37232 53992
" />
<path d="M38174 53992
L37832 53992
" />
<path d="M38003 53992
L38003 53392
L37946 53478
L37889 53535
L37832 53564
" />
<path d="M38403 53821
L38689 53821
" />
<path d="M38346 53992
L38546 53392
L38746 53992
" />
<path d="M66596 53992
L66596 53392
L66796 53821
L66996 53392
L66996 53992
" />
<path d="M67225 53392
L67625 53992
" />
<path d="M67625 53392
L67225 53992
" />
<path d="M68168 53992
L67825 53992
" />
<path d="M67996 53992
L67996 53392
L67939 53478
L67882 53535
L67825 53564
" />
<path d="M68396 53821
L68682 53821
" />
<path d="M68339 53992
L68539 53392
L68739 53992
" />
<path d="M97513 53992
L97513 53392
L97713 53821
L97913 53392
L97913 53992
" />
<path d="M98141 53392
L98541 53992
" />
<path d="M98541 53392
L98141 53992
" />
<path d="M99084 53992
L98741 53992
" />
<path d="M98913 53992
L98913 53392
L98856 53478
L98798 53535
L98741 53564
" />
<path d="M99313 53821
L99598 53821
" />
<path d="M99256 53992
L99456 53392
L99656 53992
" />
<path d="M33783 46492
L33783 45892
L33983 46321
L34183 45892
L34183 46492
" />
<path d="M34412 45892
L34812 46492
" />
<path d="M34812 45892
L34412 46492
" />
<path d="M35355 46492
L35012 46492
" />
<path d="M35183 46492
L35183 45892
L35126 45978
L35069 46035
L35012 46064
" />
<path d="M35583 46321
L35869 46321
" />
<path d="M35526 46492
L35726 45892
L35926 46492
" />
<path d="M116283 31492
L116283 30892
L116483 31321
L116683 30892
L116683 31492
" />
<path d="M116912 30892
L117312 31492
" />
<path d="M117312 30892
L116912 31492
" />
<path d="M117855 31492
L117512 31492
" />
<path d="M117683 31492
L117683 30892
L117626 30978
L117569 31035
L117512 31064
" />
<path d="M118083 31321
L118369 31321
" />
<path d="M118026 31492
L118226 30892
L118426 31492
" />
<path d="M100341 38992
L100341 38392
L100541 38821
L100741 38392
L100741 38992
" />
<path d="M100970 38392
L101370 38992
" />
<path d="M101370 38392
L100970 38992
" />
<path d="M101912 38992
L101570 38992
" />
<path d="M101741 38992
L101741 38392
L101684 38478
L101627 38535
L101570 38564
" />
<path d="M102141 38821
L102427 38821
" />
<path d="M102084 38992
L102284 38392
L102484 38992
" />
<path d="M92841 38992
L92841 38392
L93041 38821
L93241 38392
L93241 38992
" />
<path d="M93470 38392
L93870 38992
" />
<path d="M93870 38392
L93470 38992
" />
<path d="M94412 38992
L94070 38992
" />
<path d="M94241 38992
L94241 38392
L94184 38478
L94127 38535
L94070 38564
" />
<path d="M94641 38821
L94927 38821
" />
<path d="M94584 38992
L94784 38392
L94984 38992
" />
<path d="M85341 38992
L85341 38392
L85541 38821
L85741 38392
L85741 38992
" />
<path d="M85970 38392
L86370 38992
" />
<path d="M86370 38392
L85970 38992
" />
<path d="M86912 38992
L86570 38992
" />
<path d="M86741 38992
L86741 38392
L86684 38478
L86627 38535
L86570 38564
" />
<path d="M87141 38821
L87427 38821
" />
<path d="M87084 38992
L87284 38392
L87484 38992
" />
<path d="M77841 38992
L77841 38392
L78041 38821
L78241 38392
L78241 38992
" />
<path d="M78470 38392
L78870 38992
" />
<path d="M78870 38392
L78470 38992
" />
<path d="M79412 38992
L79070 38992
" />
<path d="M79241 38992
L79241 38392
L79184 38478
L79127 38535
L79070 38564
" />
<path d="M79641 38821
L79927 38821
" />
<path d="M79584 38992
L79784 38392
L79984 38992
" />
<path d="M70341 38992
L70341 38392
L70541 38821
L70741 38392
L70741 38992
" />
<path d="M70970 38392
L71370 38992
" />
<path d="M71370 38392
L70970 38992
" />
<path d="M71912 38992
L71570 38992
" />
<path d="M71741 38992
L71741 38392
L71684 38478
L71627 38535
L71570 38564
" />
<path d="M72141 38821
L72427 38821
" />
<path d="M72084 38992
L72284 38392
L72484 38992
" />
<path d="M62841 38992
L62841 38392
L63041 38821
L63241 38392
L63241 38992
" />
<path d="M63470 38392
L63870 38992
" />
<path d="M63870 38392
L63470 38992
" />
<path d="M64412 38992
L64070 38992
" />
<path d="M64241 38992
L64241 38392
L64184 38478
L64127 38535
L64070 38564
" />
<path d="M64641 38821
L64927 38821
" />
<path d="M64584 38992
L64784 38392
L64984 38992
" />
<path d="M55341 38992
L55341 38392
L55541 38821
L55741 38392
L55741 38992
" />
<path d="M55970 38392
L56370 38992
" />
<path d="M56370 38392
L55970 38992
" />
<path d="M56912 38992
L56570 38992
" />
<path d="M56741 38992
L56741 38392
L56684 38478
L56627 38535
L56570 38564
" />
<path d="M57141 38821
L57427 38821
" />
<path d="M57084 38992
L57284 38392
L57484 38992
" />
<path d="M47841 38992
L47841 38392
L48041 38821
L48241 38392
L48241 38992
" />
<path d="M48470 38392
L48870 38992
" />
<path d="M48870 38392
L48470 38992
" />
<path d="M49412 38992
L49070 38992
" />
<path d="M49241 38992
L49241 38392
L49184 38478
L49127 38535
L49070 38564
" />
<path d="M49641 38821
L49927 38821
" />
<path d="M49584 38992
L49784 38392
L49984 38992
" />
<path d="M40341 38992
L40341 38392
L40541 38821
L40741 38392
L40741 38992
" />
<path d="M40970 38392
L41370 38992
" />
<path d="M41370 38392
L40970 38992
" />
<path d="M41912 38992
L41570 38992
" />
<path d="M41741 38992
L41741 38392
L41684 38478
L41627 38535
L41570 38564
" />
<path d="M42141 38821
L42427 38821
" />
<path d="M42084 38992
L42284 38392
L42484 38992
" />
<path d="M31906 38992
L31906 38392
L32106 38821
L32306 38392
L32306 38992
" />
<path d="M32535 38392
L32935 38992
" />
<path d="M32935 38392
L32535 38992
" />
<path d="M33477 38992
L33135 38992
" />
<path d="M33306 38992
L33306 38392
L33249 38478
L33192 38535
L33135 38564
" />
<path d="M33706 38821
L33992 38821
" />
<path d="M33649 38992
L33849 38392
L34049 38992
" />
<path d="M75971 31492
L75971 30892
L76171 31321
L76371 30892
L76371 31492
" />
<path d="M76599 30892
L76999 31492
" />
<path d="M76999 30892
L76599 31492
" />
<path d="M77542 31492
L77200 31492
" />
<path d="M77371 31492
L77371 30892
L77314 30978
L77257 31035
L77200 31064
" />
<path d="M77771 31321
L78057 31321
" />
<path d="M77714 31492
L77914 30892
L78114 31492
" />
<path d="M105971 31492
L105971 30892
L106171 31321
L106371 30892
L106371 31492
" />
<path d="M106599 30892
L106999 31492
" />
<path d="M106999 30892
L106599 31492
" />
<path d="M107542 31492
L107200 31492
" />
<path d="M107371 31492
L107371 30892
L107314 30978
L107257 31035
L107200 31064
" />
<path d="M107771 31321
L108057 31321
" />
<path d="M107714 31492
L107914 30892
L108114 31492
" />
<path d="M98471 31492
L98471 30892
L98671 31321
L98871 30892
L98871 31492
" />
<path d="M99099 30892
L99499 31492
" />
<path d="M99499 30892
L99099 31492
" />
<path d="M100042 31492
L99700 31492
" />
<path d="M99871 31492
L99871 30892
L99814 30978
L99757 31035
L99700 31064
" />
<path d="M100271 31321
L100557 31321
" />
<path d="M100214 31492
L100414 30892
L100614 31492
" />
<path d="M83471 31492
L83471 30892
L83671 31321
L83871 30892
L83871 31492
" />
<path d="M84099 30892
L84499 31492
" />
<path d="M84499 30892
L84099 31492
" />
<path d="M85042 31492
L84700 31492
" />
<path d="M84871 31492
L84871 30892
L84814 30978
L84757 31035
L84700 31064
" />
<path d="M85271 31321
L85557 31321
" />
<path d="M85214 31492
L85414 30892
L85614 31492
" />
<path d="M68471 31492
L68471 30892
L68671 31321
L68871 30892
L68871 31492
" />
<path d="M69099 30892
L69499 31492
" />
<path d="M69499 30892
L69099 31492
" />
<path d="M70042 31492
L69700 31492
" />
<path d="M69871 31492
L69871 30892
L69814 30978
L69757 31035
L69700 31064
" />
<path d="M70271 31321
L70557 31321
" />
<path d="M70214 31492
L70414 30892
L70614 31492
" />
<path d="M60971 31492
L60971 30892
L61171 31321
L61371 30892
L61371 31492
" />
<path d="M61599 30892
L61999 31492
" />
<path d="M61999 30892
L61599 31492
" />
<path d="M62542 31492
L62200 31492
" />
<path d="M62371 31492
L62371 30892
L62314 30978
L62257 31035
L62200 31064
" />
<path d="M62771 31321
L63057 31321
" />
<path d="M62714 31492
L62914 30892
L63114 31492
" />
<path d="M53471 31492
L53471 30892
L53671 31321
L53871 30892
L53871 31492
" />
<path d="M54099 30892
L54499 31492
" />
<path d="M54499 30892
L54099 31492
" />
<path d="M55042 31492
L54700 31492
" />
<path d="M54871 31492
L54871 30892
L54814 30978
L54757 31035
L54700 31064
" />
<path d="M55271 31321
L55557 31321
" />
<path d="M55214 31492
L55414 30892
L55614 31492
" />
<path d="M45971 31492
L45971 30892
L46171 31321
L46371 30892
L46371 31492
" />
<path d="M46599 30892
L46999 31492
" />
<path d="M46999 30892
L46599 31492
" />
<path d="M47542 31492
L47200 31492
" />
<path d="M47371 31492
L47371 30892
L47314 30978
L47257 31035
L47200 31064
" />
<path d="M47771 31321
L48057 31321
" />
<path d="M47714 31492
L47914 30892
L48114 31492
" />
<path d="M38471 31492
L38471 30892
L38671 31321
L38871 30892
L38871 31492
" />
<path d="M39099 30892
L39499 31492
" />
<path d="M39499 30892
L39099 31492
" />
<path d="M40042 31492
L39700 31492
" />
<path d="M39871 31492
L39871 30892
L39814 30978
L39757 31035
L39700 31064
" />
<path d="M40271 31321
L40557 31321
" />
<path d="M40214 31492
L40414 30892
L40614 31492
" />
<path d="M30971 31492
L30971 30892
L31171 31321
L31371 30892
L31371 31492
" />
<path d="M31599 30892
L31999 31492
" />
<path d="M31999 30892
L31599 31492
" />
<path d="M32542 31492
L32200 31492
" />
<path d="M32371 31492
L32371 30892
L32314 30978
L32257 31035
L32200 31064
" />
<path d="M32771 31321
L33057 31321
" />
<path d="M32714 31492
L32914 30892
L33114 31492
" />
<path d="M107841 38992
L107841 38392
L108041 38821
L108241 38392
L108241 38992
" />
<path d="M108470 38392
L108870 38992
" />
<path d="M108870 38392
L108470 38992
" />
<path d="M109412 38992
L109070 38992
" />
<path d="M109241 38992
L109241 38392
L109184 38478
L109127 38535
L109070 38564
" />
<path d="M109641 38821
L109927 38821
" />
<path d="M109584 38992
L109784 38392
L109984 38992
" />
<path d="M90971 31492
L90971 30892
L91171 31321
L91371 30892
L91371 31492
" />
<path d="M91599 30892
L91999 31492
" />
<path d="M91999 30892
L91599 31492
" />
<path d="M92542 31492
L92200 31492
" />
<path d="M92371 31492
L92371 30892
L92314 30978
L92257 31035
L92200 31064
" />
<path d="M92771 31321
L93057 31321
" />
<path d="M92714 31492
L92914 30892
L93114 31492
" />
<path d="M114383 53992
L114383 53392
L114583 53821
L114783 53392
L114783 53992
" />
<path d="M115011 53392
L115411 53992
" />
<path d="M115411 53392
L115011 53992
" />
<path d="M115954 53992
L115611 53992
" />
<path d="M115783 53992
L115783 53392
L115726 53478
L115669 53535
L115611 53564
" />
<path d="M116183 53821
L116469 53821
" />
<path d="M116126 53992
L116326 53392
L116526 53992
" />
<path d="M105948 53992
L105948 53392
L106148 53821
L106348 53392
L106348 53992
" />
<path d="M106576 53392
L106976 53992
" />
<path d="M106976 53392
L106576 53992
" />
<path d="M107519 53992
L107176 53992
" />
<path d="M107348 53992
L107348 53392
L107291 53478
L107234 53535
L107176 53564
" />
<path d="M107748 53821
L108034 53821
" />
<path d="M107691 53992
L107891 53392
L108091 53992
" />
<path d="M84390 53992
L84390 53392
L84590 53821
L84790 53392
L84790 53992
" />
<path d="M85019 53392
L85419 53992
" />
<path d="M85419 53392
L85019 53992
" />
<path d="M85962 53992
L85619 53992
" />
<path d="M85790 53992
L85790 53392
L85733 53478
L85676 53535
L85619 53564
" />
<path d="M86190 53821
L86476 53821
" />
<path d="M86133 53992
L86333 53392
L86533 53992
" />
<path d="M53474 53992
L53474 53392
L53674 53821
L53874 53392
L53874 53992
" />
<path d="M54102 53392
L54502 53992
" />
<path d="M54502 53392
L54102 53992
" />
<path d="M55045 53992
L54702 53992
" />
<path d="M54874 53992
L54874 53392
L54816 53478
L54759 53535
L54702 53564
" />
<path d="M55274 53821
L55559 53821
" />
<path d="M55216 53992
L55416 53392
L55616 53992
" />
<path d="M45039 53992
L45039 53392
L45239 53821
L45439 53392
L45439 53992
" />
<path d="M45667 53392
L46067 53992
" />
<path d="M46067 53392
L45667 53992
" />
<path d="M46610 53992
L46267 53992
" />
<path d="M46439 53992
L46439 53392
L46381 53478
L46324 53535
L46267 53564
" />
<path d="M46839 53821
L47124 53821
" />
<path d="M46781 53992
L46981 53392
L47181 53992
" />
<path d="M119096 46492
L119096 45892
L119296 46321
L119496 45892
L119496 46492
" />
<path d="M119724 45892
L120124 46492
" />
<path d="M120124 45892
L119724 46492
" />
<path d="M120667 46492
L120325 46492
" />
<path d="M120496 46492
L120496 45892
L120439 45978
L120382 46035
L120325 46064
" />
<path d="M120896 46321
L121182 46321
" />
<path d="M120839 46492
L121039 45892
L121239 46492
" />
<path d="M111596 46492
L111596 45892
L111796 46321
L111996 45892
L111996 46492
" />
<path d="M112224 45892
L112624 46492
" />
<path d="M112624 45892
L112224 46492
" />
<path d="M113167 46492
L112825 46492
" />
<path d="M112996 46492
L112996 45892
L112939 45978
L112882 46035
L112825 46064
" />
<path d="M113396 46321
L113682 46321
" />
<path d="M113339 46492
L113539 45892
L113739 46492
" />
<path d="M104096 46492
L104096 45892
L104296 46321
L104496 45892
L104496 46492
" />
<path d="M104724 45892
L105124 46492
" />
<path d="M105124 45892
L104724 46492
" />
<path d="M105667 46492
L105325 46492
" />
<path d="M105496 46492
L105496 45892
L105439 45978
L105382 46035
L105325 46064
" />
<path d="M105896 46321
L106182 46321
" />
<path d="M105839 46492
L106039 45892
L106239 46492
" />
<path d="M96596 46492
L96596 45892
L96796 46321
L96996 45892
L96996 46492
" />
<path d="M97224 45892
L97624 46492
" />
<path d="M97624 45892
L97224 46492
" />
<path d="M98167 46492
L97825 46492
" />
<path d="M97996 46492
L97996 45892
L97939 45978
L97882 46035
L97825 46064
" />
<path d="M98396 46321
L98682 46321
" />
<path d="M98339 46492
L98539 45892
L98739 46492
" />
<path d="M89096 46492
L89096 45892
L89296 46321
L89496 45892
L89496 46492
" />
<path d="M89724 45892
L90124 46492
" />
<path d="M90124 45892
L89724 46492
" />
<path d="M90667 46492
L90325 46492
" />
<path d="M90496 46492
L90496 45892
L90439 45978
L90382 46035
L90325 46064
" />
<path d="M90896 46321
L91182 46321
" />
<path d="M90839 46492
L91039 45892
L91239 46492
" />
<path d="M81596 46492
L81596 45892
L81796 46321
L81996 45892
L81996 46492
" />
<path d="M82224 45892
L82624 46492
" />
<path d="M82624 45892
L82224 46492
" />
<path d="M83167 46492
L82825 46492
" />
<path d="M82996 46492
L82996 45892
L82939 45978
L82882 46035
L82825 46064
" />
<path d="M83396 46321
L83682 46321
" />
<path d="M83339 46492
L83539 45892
L83739 46492
" />
<path d="M74096 46492
L74096 45892
L74296 46321
L74496 45892
L74496 46492
" />
<path d="M74724 45892
L75124 46492
" />
<path d="M75124 45892
L74724 46492
" />
<path d="M75667 46492
L75325 46492
" />
<path d="M75496 46492
L75496 45892
L75439 45978
L75382 46035
L75325 46064
" />
<path d="M75896 46321
L76182 46321
" />
<path d="M75839 46492
L76039 45892
L76239 46492
" />
<path d="M66596 46492
L66596 45892
L66796 46321
L66996 45892
L66996 46492
" />
<path d="M67224 45892
L67624 46492
" />
<path d="M67624 45892
L67224 46492
" />
<path d="M68167 46492
L67825 46492
" />
<path d="M67996 46492
L67996 45892
L67939 45978
L67882 46035
L67825 46064
" />
<path d="M68396 46321
L68682 46321
" />
<path d="M68339 46492
L68539 45892
L68739 46492
" />
<path d="M59096 46492
L59096 45892
L59296 46321
L59496 45892
L59496 46492
" />
<path d="M59724 45892
L60124 46492
" />
<path d="M60124 45892
L59724 46492
" />
<path d="M60667 46492
L60325 46492
" />
<path d="M60496 46492
L60496 45892
L60439 45978
L60382 46035
L60325 46064
" />
<path d="M60896 46321
L61182 46321
" />
<path d="M60839 46492
L61039 45892
L61239 46492
" />
<path d="M51596 46492
L51596 45892
L51796 46321
L51996 45892
L51996 46492
" />
<path d="M52224 45892
L52624 46492
" />
<path d="M52624 45892
L52224 46492
" />
<path d="M53167 46492
L52825 46492
" />
<path d="M52996 46492
L52996 45892
L52939 45978
L52882 46035
L52825 46064
" />
<path d="M53396 46321
L53682 46321
" />
<path d="M53339 46492
L53539 45892
L53739 46492
" />
<path d="M44096 46492
L44096 45892
L44296 46321
L44496 45892
L44496 46492
" />
<path d="M44724 45892
L45124 46492
" />
<path d="M45124 45892
L44724 46492
" />
<path d="M45667 46492
L45325 46492
" />
<path d="M45496 46492
L45496 45892
L45439 45978
L45382 46035
L45325 46064
" />
<path d="M45896 46321
L46182 46321
" />
<path d="M45839 46492
L46039 45892
L46239 46492
" />
<path d="M117216 38992
L117216 38392
L117416 38821
L117616 38392
L117616 38992
" />
<path d="M117845 38392
L118245 38992
" />
<path d="M118245 38392
L117845 38992
" />
<path d="M118787 38992
L118445 38992
" />
<path d="M118616 38992
L118616 38392
L118559 38478
L118502 38535
L118445 38564
" />
<path d="M119016 38821
L119302 38821
" />
<path d="M118959 38992
L119159 38392
L119359 38992
" />
</g>
<g style="fill:#009F9F; fill-opacity:0.0; 
stroke:#009F9F; stroke-width:150; stroke-opacity:1; 
stroke-linecap:round; stroke-linejoin:round;">
<path d="M34632 54000
L40632 54000
" />
<path d="M40632 54000
L40632 60000
" />
<path d="M40632 60000
L34632 60000
" />
<path d="M34632 60000
L34632 54000
" />
<path d="M64625 54000
L70625 54000
" />
<path d="M70625 54000
L70625 60000
" />
<path d="M70625 60000
L64625 60000
" />
<path d="M64625 60000
L64625 54000
" />
<path d="M95541 54000
L101541 54000
" />
<path d="M101541 54000
L101541 60000
" />
<path d="M101541 60000
L95541 60000
" />
<path d="M95541 60000
L95541 54000
" />
<path d="M31812 46500
L37812 46500
" />
<path d="M37812 46500
L37812 52500
" />
<path d="M37812 52500
L31812 52500
" />
<path d="M31812 52500
L31812 46500
" />
<path d="M114312 31500
L120312 31500
" />
<path d="M120312 31500
L120312 37500
" />
<path d="M120312 37500
L114312 37500
" />
<path d="M114312 37500
L114312 31500
" />
<path d="M98370 39000
L104370 39000
" />
<path d="M104370 39000
L104370 45000
" />
<path d="M104370 45000
L98370 45000
" />
<path d="M98370 45000
L98370 39000
" />
<path d="M90870 39000
L96870 39000
" />
<path d="M96870 39000
L96870 45000
" />
<path d="M96870 45000
L90870 45000
" />
<path d="M90870 45000
L90870 39000
" />
<path d="M83370 39000
L89370 39000
" />
<path d="M89370 39000
L89370 45000
" />
<path d="M89370 45000
L83370 45000
" />
<path d="M83370 45000
L83370 39000
" />
<path d="M75870 39000
L81870 39000
" />
<path d="M81870 39000
L81870 45000
" />
<path d="M81870 45000
L75870 45000
" />
<path d="M75870 45000
L75870 39000
" />
<path d="M68370 39000
L74370 39000
" />
<path d="M74370 39000
L74370 45000
" />
<path d="M74370 45000
L68370 45000
" />
<path d="M68370 45000
L68370 39000
" />
<path d="M60870 39000
L66870 39000
" />
<path d="M66870 39000
L66870 45000
" />
<path d="M66870 45000
L60870 45000
" />
<path d="M60870 45000
L60870 39000
" />
<path d="M53370 39000
L59370 39000
" />
<path d="M59370 39000
L59370 45000
" />
<path d="M59370 45000
L53370 45000
" />
<path d="M53370 45000
L53370 39000
" />
<path d="M45870 39000
L51870 39000
" />
<path d="M51870 39000
L51870 45000
" />
<path d="M51870 45000
L45870 45000
" />
<path d="M45870 45000
L45870 39000
" />
<path d="M38370 39000
L44370 39000
" />
<path d="M44370 39000
L44370 45000
" />
<path d="M44370 45000
L38370 45000
" />
<path d="M38370 45000
L38370 39000
" />
<path d="M29935 39000
L35935 39000
" />
<path d="M35935 39000
L35935 45000
" />
<path d="M35935 45000
L29935 45000
" />
<path d="M29935 45000
L29935 39000
" />
<path d="M74000 31500
L80000 31500
" />
<path d="M80000 31500
L80000 37500
" />
<path d="M80000 37500
L74000 37500
" />
<path d="M74000 37500
L74000 31500
" />
<path d="M104000 31500
L110000 31500
" />
<path d="M110000 31500
L110000 37500
" />
<path d="M110000 37500
L104000 37500
" />
<path d="M104000 37500
L104000 31500
" />
<path d="M96500 31500
L102500 31500
" />
<path d="M102500 31500
L102500 37500
" />
<path d="M102500 37500
L96500 37500
" />
<path d="M96500 37500
L96500 31500
" />
<path d="M81500 31500
L87500 31500
" />
<path d="M87500 31500
L87500 37500
" />
<path d="M87500 37500
L81500 37500
" />
<path d="M81500 37500
L81500 31500
" />
<path d="M66500 31500
L72500 31500
" />
<path d="M72500 31500
L72500 37500
" />
<path d="M72500 37500
L66500 37500
" />
<path d="M66500 37500
L66500 31500
" />
<path d="M59000 31500
L65000 31500
" />
<path d="M65000 31500
L65000 37500
" />
<path d="M65000 37500
L59000 37500
" />
<path d="M59000 37500
L59000 31500
" />
<path d="M51500 31500
L57500 31500
" />
<path d="M57500 31500
L57500 37500
" />
<path d="M57500 37500
L51500 37500
" />
<path d="M51500 37500
L51500 31500
" />
<path d="M44000 31500
L50000 31500
" />
<path d="M50000 31500
L50000 37500
" />
<path d="M50000 37500
L44000 37500
" />
<path d="M44000 37500
L44000 31500
" />
<path d="M36500 31500
L42500 31500
" />
<path d="M42500 31500
L42500 37500
" />
<path d="M42500 37500
L36500 37500
" />
<path d="M36500 37500
L36500 31500
" />
<path d="M29000 31500
L35000 31500
" />
<path d="M35000 31500
L35000 37500
" />
<path d="M35000 37500
L29000 37500
" />
<path d="M29000 37500
L29000 31500
" />
<path d="M105870 39000
L111870 39000
" />
<path d="M111870 39000
L111870 45000
" />
<path d="M111870 45000
L105870 45000
" />
<path d="M105870 45000
L105870 39000
" />
<path d="M89000 31500
L95000 31500
" />
<path d="M95000 31500
L95000 37500
" />
<path d="M95000 37500
L89000 37500
" />
<path d="M89000 37500
L89000 31500
" />
<path d="M112411 54000
L118411 54000
" />
<path d="M118411 54000
L118411 60000
" />
<path d="M118411 60000
L112411 60000
" />
<path d="M112411 60000
L112411 54000
" />
<path d="M103976 54000
L109976 54000
" />
<path d="M109976 54000
L109976 60000
" />
<path d="M109976 60000
L103976 60000
" />
<path d="M103976 60000
L103976 54000
" />
<path d="M82419 54000
L88419 54000
" />
<path d="M88419 54000
L88419 60000
" />
<path d="M88419 60000
L82419 60000
" />
<path d="M82419 60000
L82419 54000
" />
<path d="M51502 54000
L57502 54000
" />
<path d="M57502 54000
L57502 60000
" />
<path d="M57502 60000
L51502 60000
" />
<path d="M51502 60000
L51502 54000
" />
<path d="M43067 54000
L49067 54000
" />
<path d="M49067 54000
L49067 60000
" />
<path d="M49067 60000
L43067 60000
" />
<path d="M43067 60000
L43067 54000
" />
<path d="M117125 46500
L123125 46500
" />
<path d="M123125 46500
L123125 52500
" />
<path d="M123125 52500
L117125 52500
" />
<path d="M117125 52500
L117125 46500
" />
<path d="M109625 46500
L115625 46500
" />
<path d="M115625 46500
L115625 52500
" />
<path d="M115625 52500
L109625 52500
" />
<path d="M109625 52500
L109625 46500
" />
<path d="M102125 46500
L108125 46500
" />
<path d="M108125 46500
L108125 52500
" />
<path d="M108125 52500
L102125 52500
" />
<path d="M102125 52500
L102125 46500
" />
<path d="M94625 46500
L100625 46500
" />
<path d="M100625 46500
L100625 52500
" />
<path d="M100625 52500
L94625 52500
" />
<path d="M94625 52500
L94625 46500
" />
<path d="M87125 46500
L93125 46500
" />
<path d="M93125 46500
L93125 52500
" />
<path d="M93125 52500
L87125 52500
" />
<path d="M87125 52500
L87125 46500
" />
<path d="M79625 46500
L85625 46500
" />
<path d="M85625 46500
L85625 52500
" />
<path d="M85625 52500
L79625 52500
" />
<path d="M79625 52500
L79625 46500
" />
<path d="M72125 46500
L78125 46500
" />
<path d="M78125 46500
L78125 52500
" />
<path d="M78125 52500
L72125 52500
" />
<path d="M72125 52500
L72125 46500
" />
<path d="M64625 46500
L70625 46500
" />
<path d="M70625 46500
L70625 52500
" />
<path d="M70625 52500
L64625 52500
" />
<path d="M64625 52500
L64625 46500
" />
<path d="M57125 46500
L63125 46500
" />
<path d="M63125 46500
L63125 52500
" />
<path d="M63125 52500
L57125 52500
" />
<path d="M57125 52500
L57125 46500
" />
<path d="M49625 46500
L55625 46500
" />
<path d="M55625 46500
L55625 52500
" />
<path d="M55625 52500
L49625 52500
" />
<path d="M49625 52500
L49625 46500
" />
<path d="M42125 46500
L48125 46500
" />
<path d="M48125 46500
L48125 52500
" />
<path d="M48125 52500
L42125 52500
" />
<path d="M42125 52500
L42125 46500
" />
<path d="M115245 39000
L121245 39000
" />
<path d="M121245 39000
L121245 45000
" />
<path d="M121245 45000
L115245 45000
" />
<path d="M115245 45000
L115245 39000
" />
</g>
<g style="fill:#7F7F00; fill-opacity:0.0; 
stroke:#7F7F00; stroke-width:39.3701; stroke-opacity:1; 
stroke-linecap:round; stroke-linejoin:round;">
</g>
<g style="fill:#7F7F00; fill-opacity:1.0; 
stroke:#7F7F00; stroke-width:39.3701; stroke-opacity:1; 
stroke-linecap:round; stroke-linejoin:round;">
<circle cx="37632.1" cy="57000" r="763.815" /> 
<circle cx="38632.1" cy="55000" r="472.315" /> 
<circle cx="36132.1" cy="56000" r="472.315" /> 
<circle cx="35632.1" cy="57000" r="314.815" /> 
<circle cx="39632.1" cy="57000" r="314.815" /> 
<circle cx="67625.2" cy="57000" r="763.815" /> 
<circle cx="68625.2" cy="55000" r="472.315" /> 
<circle cx="66125.2" cy="56000" r="472.315" /> 
<circle cx="65625.2" cy="57000" r="314.815" /> 
<circle cx="69625.2" cy="57000" r="314.815" /> 
<circle cx="98541.8" cy="57000" r="763.815" /> 
<circle cx="99541.8" cy="55000" r="472.315" /> 
<circle cx="97041.8" cy="56000" r="472.315" /> 
<circle cx="96541.8" cy="57000" r="314.815" /> 
<circle cx="100542" cy="57000" r="314.815" /> 
<circle cx="34812.5" cy="49500" r="763.815" /> 
<circle cx="35812.5" cy="47500" r="472.315" /> 
<circle cx="33312.5" cy="48500" r="472.315" /> 
<circle cx="32812.5" cy="49500" r="314.815" /> 
<circle cx="36812.5" cy="49500" r="314.815" /> 
<circle cx="117313" cy="34500" r="763.815" /> 
<circle cx="118313" cy="32500" r="472.315" /> 
<circle cx="115813" cy="33500" r="472.315" /> 
<circle cx="115313" cy="34500" r="314.815" /> 
<circle cx="119313" cy="34500" r="314.815" /> 
<circle cx="101370" cy="42000" r="763.815" /> 
<circle cx="102370" cy="40000" r="472.315" /> 
<circle cx="99870.1" cy="41000" r="472.315" /> 
<circle cx="99370.1" cy="42000" r="314.815" /> 
<circle cx="103370" cy="42000" r="314.815" /> 
<circle cx="93870.1" cy="42000" r="763.815" /> 
<circle cx="94870.1" cy="40000" r="472.315" /> 
<circle cx="92370.1" cy="41000" r="472.315" /> 
<circle cx="91870.1" cy="42000" r="314.815" /> 
<circle cx="95870.1" cy="42000" r="314.815" /> 
<circle cx="86370.1" cy="42000" r="763.815" /> 
<circle cx="87370.1" cy="40000" r="472.315" /> 
<circle cx="84870.1" cy="41000" r="472.315" /> 
<circle cx="84370.1" cy="42000" r="314.815" /> 
<circle cx="88370.1" cy="42000" r="314.815" /> 
<circle cx="78870.1" cy="42000" r="763.815" /> 
<circle cx="79870.1" cy="40000" r="472.315" /> 
<circle cx="77370.1" cy="41000" r="472.315" /> 
<circle cx="76870.1" cy="42000" r="314.815" /> 
<circle cx="80870.1" cy="42000" r="314.815" /> 
<circle cx="71370.1" cy="42000" r="763.815" /> 
<circle cx="72370.1" cy="40000" r="472.315" /> 
<circle cx="69870.1" cy="41000" r="472.315" /> 
<circle cx="69370.1" cy="42000" r="314.815" /> 
<circle cx="73370.1" cy="42000" r="314.815" /> 
<circle cx="63870.1" cy="42000" r="763.815" /> 
<circle cx="64870.1" cy="40000" r="472.315" /> 
<circle cx="62370.1" cy="41000" r="472.315" /> 
<circle cx="61870.1" cy="42000" r="314.815" /> 
<circle cx="65870.1" cy="42000" r="314.815" /> 
<circle cx="56370.1" cy="42000" r="763.815" /> 
<circle cx="57370.1" cy="40000" r="472.315" /> 
<circle cx="54870.1" cy="41000" r="472.315" /> 
<circle cx="54370.1" cy="42000" r="314.815" /> 
<circle cx="58370.1" cy="42000" r="314.815" /> 
<circle cx="48870.1" cy="42000" r="763.815" /> 
<circle cx="49870.1" cy="40000" r="472.315" /> 
<circle cx="47370.1" cy="41000" r="472.315" /> 
<circle cx="46870.1" cy="42000" r="314.815" /> 
<circle cx="50870.1" cy="42000" r="314.815" /> 
<circle cx="41370.1" cy="42000" r="763.815" /> 
<circle cx="42370.1" cy="40000" r="472.315" /> 
<circle cx="39870.1" cy="41000" r="472.315" /> 
<circle cx="39370.1" cy="42000" r="314.815" /> 
<circle cx="43370.1" cy="42000" r="314.815" /> 
<circle cx="32935" cy="42000" r="763.815" /> 
<circle cx="33935" cy="40000" r="472.315" /> 
<circle cx="31435" cy="41000" r="472.315" /> 
<circle cx="30935" cy="42000" r="314.815" /> 
<circle cx="34935" cy="42000" r="314.815" /> 
<circle cx="77000" cy="34500" r="763.815" /> 
<circle cx="78000" cy="32500" r="472.315" /> 
<circle cx="75500" cy="33500" r="472.315" /> 
<circle cx="75000" cy="34500" r="314.815" /> 
<circle cx="79000" cy="34500" r="314.815" /> 
<circle cx="107000" cy="34500" r="763.815" /> 
<circle cx="108000" cy="32500" r="472.315" /> 
<circle cx="105500" cy="33500" r="472.315" /> 
<circle cx="105000" cy="34500" r="314.815" /> 
<circle cx="109000" cy="34500" r="314.815" /> 
<circle cx="99500" cy="34500" r="763.815" /> 
<circle cx="100500" cy="32500" r="472.315" /> 
<circle cx="98000" cy="33500" r="472.315" /> 
<circle cx="97500" cy="34500" r="314.815" /> 
<circle cx="101500" cy="34500" r="314.815" /> 
<circle cx="84500" cy="34500" r="763.815" /> 
<circle cx="85500" cy="32500" r="472.315" /> 
<circle cx="83000" cy="33500" r="472.315" /> 
<circle cx="82500" cy="34500" r="314.815" /> 
<circle cx="86500" cy="34500" r="314.815" /> 
<circle cx="69500" cy="34500" r="763.815" /> 
<circle cx="70500" cy="32500" r="472.315" /> 
<circle cx="68000" cy="33500" r="472.315" /> 
<circle cx="67500" cy="34500" r="314.815" /> 
<circle cx="71500" cy="34500" r="314.815" /> 
<circle cx="62000" cy="34500" r="763.815" /> 
<circle cx="63000" cy="32500" r="472.315" /> 
<circle cx="60500" cy="33500" r="472.315" /> 
<circle cx="60000" cy="34500" r="314.815" /> 
<circle cx="64000" cy="34500" r="314.815" /> 
<circle cx="54500" cy="34500" r="763.815" /> 
<circle cx="55500" cy="32500" r="472.315" /> 
<circle cx="53000" cy="33500" r="472.315" /> 
<circle cx="52500" cy="34500" r="314.815" /> 
<circle cx="56500" cy="34500" r="314.815" /> 
<circle cx="47000" cy="34500" r="763.815" /> 
<circle cx="48000" cy="32500" r="472.315" /> 
<circle cx="45500" cy="33500" r="472.315" /> 
<circle cx="45000" cy="34500" r="314.815" /> 
<circle cx="49000" cy="34500" r="314.815" /> 
<circle cx="39500" cy="34500" r="763.815" /> 
<circle cx="40500" cy="32500" r="472.315" /> 
<circle cx="38000" cy="33500" r="472.315" /> 
<circle cx="37500" cy="34500" r="314.815" /> 
<circle cx="41500" cy="34500" r="314.815" /> 
<circle cx="32000" cy="34500" r="763.815" /> 
<circle cx="33000" cy="32500" r="472.315" /> 
<circle cx="30500" cy="33500" r="472.315" /> 
<circle cx="30000" cy="34500" r="314.815" /> 
<circle cx="34000" cy="34500" r="314.815" /> 
<circle cx="108870" cy="42000" r="763.815" /> 
<circle cx="109870" cy="40000" r="472.315" /> 
<circle cx="107370" cy="41000" r="472.315" /> 
<circle cx="106870" cy="42000" r="314.815" /> 
<circle cx="110870" cy="42000" r="314.815" /> 
<circle cx="92000" cy="34500" r="763.815" /> 
<circle cx="93000" cy="32500" r="472.315" /> 
<circle cx="90500" cy="33500" r="472.315" /> 
<circle cx="90000" cy="34500" r="314.815" /> 
<circle cx="94000" cy="34500" r="314.815" /> 
<circle cx="115412" cy="57000" r="763.815" /> 
<circle cx="116412" cy="55000" r="472.315" /> 
<circle cx="113912" cy="56000" r="472.315" /> 
<circle cx="113412" cy="57000" r="314.815" /> 
<circle cx="117412" cy="57000" r="314.815" /> 
<circle cx="106977" cy="57000" r="763.815" /> 
<circle cx="107977" cy="55000" r="472.315" /> 
<circle cx="105477" cy="56000" r="472.315" /> 
<circle cx="104977" cy="57000" r="314.815" /> 
<circle cx="108977" cy="57000" r="314.815" /> 
<circle cx="85419.3" cy="57000" r="763.815" /> 
<circle cx="86419.3" cy="55000" r="472.315" /> 
<circle cx="83919.3" cy="56000" r="472.315" /> 
<circle cx="83419.3" cy="57000" r="314.815" /> 
<circle cx="87419.3" cy="57000" r="314.815" /> 
<circle cx="54502.7" cy="57000" r="763.815" /> 
<circle cx="55502.7" cy="55000" r="472.315" /> 
<circle cx="53002.7" cy="56000" r="472.315" /> 
<circle cx="52502.7" cy="57000" r="314.815" /> 
<circle cx="56502.7" cy="57000" r="314.815" /> 
<circle cx="46067.7" cy="57000" r="763.815" /> 
<circle cx="47067.7" cy="55000" r="472.315" /> 
<circle cx="44567.7" cy="56000" r="472.315" /> 
<circle cx="44067.7" cy="57000" r="314.815" /> 
<circle cx="48067.7" cy="57000" r="314.815" /> 
<circle cx="120125" cy="49500" r="763.815" /> 
<circle cx="121125" cy="47500" r="472.315" /> 
<circle cx="118625" cy="48500" r="472.315" /> 
<circle cx="118125" cy="49500" r="314.815" /> 
<circle cx="122125" cy="49500" r="314.815" /> 
<circle cx="112625" cy="49500" r="763.815" /> 
<circle cx="113625" cy="47500" r="472.315" /> 
<circle cx="111125" cy="48500" r="472.315" /> 
<circle cx="110625" cy="49500" r="314.815" /> 
<circle cx="114625" cy="49500" r="314.815" /> 
<circle cx="105125" cy="49500" r="763.815" /> 
<circle cx="106125" cy="47500" r="472.315" /> 
<circle cx="103625" cy="48500" r="472.315" /> 
<circle cx="103125" cy="49500" r="314.815" /> 
<circle cx="107125" cy="49500" r="314.815" /> 
<circle cx="97625" cy="49500" r="763.815" /> 
<circle cx="98625" cy="47500" r="472.315" /> 
<circle cx="96125" cy="48500" r="472.315" /> 
<circle cx="95625" cy="49500" r="314.815" /> 
<circle cx="99625" cy="49500" r="314.815" /> 
<circle cx="90125" cy="49500" r="763.815" /> 
<circle cx="91125" cy="47500" r="472.315" /> 
<circle cx="88625" cy="48500" r="472.315" /> 
<circle cx="88125" cy="49500" r="314.815" /> 
<circle cx="92125" cy="49500" r="314.815" /> 
<circle cx="82625" cy="49500" r="763.815" /> 
<circle cx="83625" cy="47500" r="472.315" /> 
<circle cx="81125" cy="48500" r="472.315" /> 
<circle cx="80625" cy="49500" r="314.815" /> 
<circle cx="84625" cy="49500" r="314.815" /> 
<circle cx="75125" cy="49500" r="763.815" /> 
<circle cx="76125" cy="47500" r="472.315" /> 
<circle cx="73625" cy="48500" r="472.315" /> 
<circle cx="73125" cy="49500" r="314.815" /> 
<circle cx="77125" cy="49500" r="314.815" /> 
<circle cx="67625" cy="49500" r="763.815" /> 
<circle cx="68625" cy="47500" r="472.315" /> 
<circle cx="66125" cy="48500" r="472.315" /> 
<circle cx="65625" cy="49500" r="314.815" /> 
<circle cx="69625" cy="49500" r="314.815" /> 
<circle cx="60125" cy="49500" r="763.815" /> 
<circle cx="61125" cy="47500" r="472.315" /> 
<circle cx="58625" cy="48500" r="472.315" /> 
<circle cx="58125" cy="49500" r="314.815" /> 
<circle cx="62125" cy="49500" r="314.815" /> 
<circle cx="52625" cy="49500" r="763.815" /> 
<circle cx="53625" cy="47500" r="472.315" /> 
<circle cx="51125" cy="48500" r="472.315" /> 
<circle cx="50625" cy="49500" r="314.815" /> 
<circle cx="54625" cy="49500" r="314.815" /> 
<circle cx="45125" cy="49500" r="763.815" /> 
<circle cx="46125" cy="47500" r="472.315" /> 
<circle cx="43625" cy="48500" r="472.315" /> 
<circle cx="43125" cy="49500" r="314.815" /> 
<circle cx="47125" cy="49500" r="314.815" /> 
<circle cx="118245" cy="42000" r="763.815" /> 
<circle cx="119245" cy="40000" r="472.315" /> 
<circle cx="116745" cy="41000" r="472.315" /> 
<circle cx="116245" cy="42000" r="314.815" /> 
<circle cx="120245" cy="42000" r="314.815" /> 
</g> 
</svg>
