<?xml version="1.0" standalone="no"?>
 <!DOCTYPE svg PUBLIC "-//W3C//DTD SVG 1.1//EN" 
 "http://www.w3.org/Graphics/SVG/1.1/DTD/svg11.dtd"> 
<svg xmlns="http://www.w3.org/2000/svg" version="1.1" 
    width="41.9989cm" height="29.7002cm" viewBox="0 0 165350 116930 ">
<title>SVG Picture created as keyboard-Eco1_User.svg date 2014/07/06 15:03:50 </title>
  <desc>Picture generated by PCBNEW </desc>
<g style="fill:#000000; fill-opacity:1;stroke:#000000; stroke-opacity:1;
stroke-linecap:round; stroke-linejoin:round; "
 transform="translate(0 0) scale(1 1)">
</g>
<g style="fill:#000000; fill-opacity:0.0; 
stroke:#000000; stroke-width:39.3701; stroke-opacity:1; 
stroke-linecap:round; stroke-linejoin:round;">
<path d="M4000 4000
L161350 4000
L161350 112930
L4000 112930
L4000 4000
" />
<path d="M4700 4700
L160650 4700
L160650 112230
L4700 112230
L4700 4700
" />
<path d="M26470 4000
L26470 4700
" />
<path d="M15382 4552
L15097 4552
" />
<path d="M15240 4552
L15240 4052
L15192 4123
L15144 4171
L15097 4195
" />
<path d="M26470 112930
L26470 112230
" />
<path d="M15382 112782
L15097 112782
" />
<path d="M15240 112782
L15240 112282
L15192 112353
L15144 112401
L15097 112425
" />
<path d="M48940 4000
L48940 4700
" />
<path d="M37567 4100
L37590 4076
L37638 4052
L37757 4052
L37805 4076
L37829 4100
L37852 4147
L37852 4195
L37829 4266
L37543 4552
L37852 4552
" />
<path d="M48940 112930
L48940 112230
" />
<path d="M37567 112330
L37590 112306
L37638 112282
L37757 112282
L37805 112306
L37829 112330
L37852 112377
L37852 112425
L37829 112496
L37543 112782
L37852 112782
" />
<path d="M71410 4000
L71410 4700
" />
<path d="M60013 4052
L60322 4052
L60156 4242
L60227 4242
L60275 4266
L60299 4290
L60322 4338
L60322 4457
L60299 4504
L60275 4528
L60227 4552
L60084 4552
L60037 4528
L60013 4504
" />
<path d="M71410 112930
L71410 112230
" />
<path d="M60013 112282
L60322 112282
L60156 112472
L60227 112472
L60275 112496
L60299 112520
L60322 112568
L60322 112687
L60299 112734
L60275 112758
L60227 112782
L60084 112782
L60037 112758
L60013 112734
" />
<path d="M93880 4000
L93880 4700
" />
<path d="M82745 4219
L82745 4552
" />
<path d="M82626 4028
L82507 4385
L82816 4385
" />
<path d="M93880 112930
L93880 112230
" />
<path d="M82745 112449
L82745 112782
" />
<path d="M82626 112258
L82507 112615
L82816 112615
" />
<path d="M116350 4000
L116350 4700
" />
<path d="M105239 4052
L105000 4052
L104977 4290
L105000 4266
L105048 4242
L105167 4242
L105215 4266
L105239 4290
L105262 4338
L105262 4457
L105239 4504
L105215 4528
L105167 4552
L105048 4552
L105000 4528
L104977 4504
" />
<path d="M116350 112930
L116350 112230
" />
<path d="M105239 112282
L105000 112282
L104977 112520
L105000 112496
L105048 112472
L105167 112472
L105215 112496
L105239 112520
L105262 112568
L105262 112687
L105239 112734
L105215 112758
L105167 112782
L105048 112782
L105000 112758
L104977 112734
" />
<path d="M138820 4000
L138820 4700
" />
<path d="M127685 4052
L127590 4052
L127542 4076
L127518 4100
L127470 4171
L127447 4266
L127447 4457
L127470 4504
L127494 4528
L127542 4552
L127637 4552
L127685 4528
L127709 4504
L127732 4457
L127732 4338
L127709 4290
L127685 4266
L127637 4242
L127542 4242
L127494 4266
L127470 4290
L127447 4338
" />
<path d="M138820 112930
L138820 112230
" />
<path d="M127685 112282
L127590 112282
L127542 112306
L127518 112330
L127470 112401
L127447 112496
L127447 112687
L127470 112734
L127494 112758
L127542 112782
L127637 112782
L127685 112758
L127709 112734
L127732 112687
L127732 112568
L127709 112520
L127685 112496
L127637 112472
L127542 112472
L127494 112496
L127470 112520
L127447 112568
" />
<path d="M149893 4052
L150226 4052
L150012 4552
" />
<path d="M149893 112282
L150226 112282
L150012 112782
" />
<path d="M4000 25780
L4700 25780
" />
<path d="M4230 14949
L4469 14949
" />
<path d="M4183 15092
L4350 14592
L4516 15092
" />
<path d="M161350 25780
L160650 25780
" />
<path d="M160880 14949
L161119 14949
" />
<path d="M160833 15092
L161000 14592
L161166 15092
" />
<path d="M4000 47560
L4700 47560
" />
<path d="M4385 36610
L4457 36634
L4480 36658
L4504 36705
L4504 36777
L4480 36824
L4457 36848
L4409 36872
L4219 36872
L4219 36372
L4385 36372
L4433 36396
L4457 36420
L4480 36467
L4480 36515
L4457 36562
L4433 36586
L4385 36610
L4219 36610
" />
<path d="M161350 47560
L160650 47560
" />
<path d="M161035 36610
L161107 36634
L161130 36658
L161154 36705
L161154 36777
L161130 36824
L161107 36848
L161059 36872
L160869 36872
L160869 36372
L161035 36372
L161083 36396
L161107 36420
L161130 36467
L161130 36515
L161107 36562
L161083 36586
L161035 36610
L160869 36610
" />
<path d="M4000 69340
L4700 69340
" />
<path d="M4504 58604
L4480 58628
L4409 58652
L4361 58652
L4290 58628
L4242 58580
L4219 58533
L4195 58438
L4195 58366
L4219 58271
L4242 58223
L4290 58176
L4361 58152
L4409 58152
L4480 58176
L4504 58200
" />
<path d="M161350 69340
L160650 69340
" />
<path d="M161154 58604
L161130 58628
L161059 58652
L161011 58652
L160940 58628
L160892 58580
L160869 58533
L160845 58438
L160845 58366
L160869 58271
L160892 58223
L160940 58176
L161011 58152
L161059 58152
L161130 58176
L161154 58200
" />
<path d="M4000 91120
L4700 91120
" />
<path d="M4219 80432
L4219 79932
L4338 79932
L4409 79956
L4457 80003
L4480 80051
L4504 80146
L4504 80218
L4480 80313
L4457 80360
L4409 80408
L4338 80432
L4219 80432
" />
<path d="M161350 91120
L160650 91120
" />
<path d="M160869 80432
L160869 79932
L160988 79932
L161059 79956
L161107 80003
L161130 80051
L161154 80146
L161154 80218
L161130 80313
L161107 80360
L161059 80408
L160988 80432
L160869 80432
" />
<path d="M4242 101950
L4409 101950
" />
<path d="M4480 102212
L4242 102212
L4242 101712
L4480 101712
" />
<path d="M160892 101950
L161059 101950
" />
<path d="M161130 102212
L160892 102212
L160892 101712
L161130 101712
" />
<path d="M127800 110672
L127875 110072
L128017 110072
L128100 110101
L128150 110158
L128171 110215
L128185 110330
L128175 110415
L128132 110530
L128096 110587
L128032 110644
L127942 110672
L127800 110672
" />
<path d="M128657 110672
L128696 110358
L128675 110301
L128621 110272
L128507 110272
L128446 110301
" />
<path d="M128660 110644
L128600 110672
L128457 110672
L128403 110644
L128382 110587
L128389 110530
L128425 110472
L128485 110444
L128628 110444
L128689 110415
" />
<path d="M128907 110272
L129135 110272
" />
<path d="M129017 110072
L128953 110587
L128975 110644
L129028 110672
L129085 110672
" />
<path d="M129517 110644
L129457 110672
L129342 110672
L129289 110644
L129267 110587
L129296 110358
L129332 110301
L129392 110272
L129507 110272
L129560 110301
L129582 110358
L129575 110415
L129282 110472
" />
<path d="M129807 110615
L129832 110644
L129800 110672
L129775 110644
L129807 110615
L129800 110672
" />
<path d="M129846 110301
L129871 110330
L129839 110358
L129814 110330
L129846 110301
L129839 110358
" />
<path d="M130875 110072
L130760 110072
L130699 110101
L130667 110130
L130600 110215
L130557 110330
L130528 110558
L130550 110615
L130575 110644
L130628 110672
L130742 110672
L130803 110644
L130835 110615
L130871 110558
L130889 110415
L130867 110358
L130842 110330
L130789 110301
L130674 110301
L130614 110330
L130582 110358
L130546 110415
" />
<path d="M131621 110272
L131557 110787
L131521 110844
L131460 110872
L131432 110872
" />
<path d="M131646 110072
L131614 110101
L131639 110130
L131671 110101
L131646 110072
L131639 110130
" />
<path d="M132164 110272
L132114 110672
" />
<path d="M131907 110272
L131867 110587
L131889 110644
L131942 110672
L132028 110672
L132089 110644
L132121 110615
" />
<path d="M132485 110672
L132432 110644
L132410 110587
L132475 110072
" />
<path d="M133210 110130
L133242 110101
L133303 110072
L133446 110072
L133500 110101
L133525 110130
L133546 110187
L133539 110244
L133500 110330
L133114 110672
L133485 110672
" />
<path d="M133932 110072
L133989 110072
L134042 110101
L134067 110130
L134089 110187
L134103 110301
L134085 110444
L134042 110558
L134007 110615
L133975 110644
L133914 110672
L133857 110672
L133803 110644
L133778 110615
L133757 110558
L133742 110444
L133760 110301
L133803 110187
L133839 110130
L133871 110101
L133932 110072
" />
<path d="M134628 110672
L134285 110672
" />
<path d="M134457 110672
L134532 110072
L134464 110158
L134400 110215
L134339 110244
" />
<path d="M135192 110272
L135142 110672
" />
<path d="M135078 110044
L134882 110472
L135253 110472
" />
<path d="M119392 111872
L119392 111272
" />
<path d="M119735 111872
L119478 111530
" />
<path d="M119735 111272
L119392 111615
" />
<path d="M119992 111872
L119992 111472
" />
<path d="M119992 111272
L119964 111301
L119992 111330
L120021 111301
L119992 111272
L119992 111330
" />
<path d="M120621 111815
L120592 111844
L120507 111872
L120450 111872
L120364 111844
L120307 111787
L120278 111730
L120250 111615
L120250 111530
L120278 111415
L120307 111358
L120364 111301
L120450 111272
L120507 111272
L120592 111301
L120621 111330
" />
<path d="M121135 111872
L121135 111558
L121107 111501
L121050 111472
L120935 111472
L120878 111501
" />
<path d="M121135 111844
L121078 111872
L120935 111872
L120878 111844
L120850 111787
L120850 111730
L120878 111672
L120935 111644
L121078 111644
L121135 111615
" />
<path d="M121678 111872
L121678 111272
" />
<path d="M121678 111844
L121621 111872
L121507 111872
L121450 111844
L121421 111815
L121392 111758
L121392 111587
L121421 111530
L121450 111501
L121507 111472
L121621 111472
L121678 111501
" />
<path d="M122421 111558
L122621 111558
" />
<path d="M122707 111872
L122421 111872
L122421 111272
L122707 111272
" />
<path d="M122964 111815
L122992 111844
L122964 111872
L122935 111844
L122964 111815
L122964 111872
" />
<path d="M123249 111872
L123249 111272
L123392 111272
L123478 111301
L123535 111358
L123564 111415
L123592 111530
L123592 111615
L123564 111730
L123535 111787
L123478 111844
L123392 111872
L123249 111872
" />
<path d="M123849 111815
L123878 111844
L123849 111872
L123821 111844
L123849 111815
L123849 111872
" />
<path d="M124107 111701
L124392 111701
" />
<path d="M124049 111872
L124249 111272
L124449 111872
" />
<path d="M124649 111815
L124678 111844
L124649 111872
L124621 111844
L124649 111815
L124649 111872
" />
<path d="M152942 110672
L152778 110387
" />
<path d="M152600 110672
L152675 110072
L152903 110072
L152957 110101
L152982 110130
L153003 110187
L152992 110272
L152957 110330
L152925 110358
L152864 110387
L152635 110387
" />
<path d="M153432 110644
L153371 110672
L153257 110672
L153203 110644
L153182 110587
L153210 110358
L153246 110301
L153307 110272
L153421 110272
L153475 110301
L153496 110358
L153489 110415
L153196 110472
" />
<path d="M153707 110272
L153800 110672
L153992 110272
" />
<path d="M154178 110615
L154203 110644
L154171 110672
L154146 110644
L154178 110615
L154171 110672
" />
<path d="M154217 110301
L154242 110330
L154210 110358
L154185 110330
L154217 110301
L154210 110358
" />
<path d="M119364 110644
L119450 110672
L119592 110672
L119650 110644
L119678 110615
L119707 110558
L119707 110501
L119678 110444
L119650 110415
L119592 110387
L119478 110358
L119421 110330
L119392 110301
L119364 110244
L119364 110187
L119392 110130
L119421 110101
L119478 110072
L119621 110072
L119707 110101
" />
<path d="M119964 110672
L119964 110272
" />
<path d="M119964 110072
L119935 110101
L119964 110130
L119992 110101
L119964 110072
L119964 110130
" />
<path d="M120192 110272
L120507 110272
L120192 110672
L120507 110672
" />
<path d="M120964 110644
L120907 110672
L120792 110672
L120735 110644
L120707 110587
L120707 110358
L120735 110301
L120792 110272
L120907 110272
L120964 110301
L120992 110358
L120992 110415
L120707 110472
" />
<path d="M121250 110615
L121278 110644
L121250 110672
L121221 110644
L121250 110615
L121250 110672
" />
<path d="M121250 110301
L121278 110330
L121250 110358
L121221 110330
L121250 110301
L121250 110358
" />
<path d="M121964 110501
L122250 110501
" />
<path d="M121907 110672
L122107 110072
L122307 110672
" />
<path d="M122450 110072
L122821 110072
L122621 110301
L122707 110301
L122764 110330
L122792 110358
L122821 110415
L122821 110558
L122792 110615
L122764 110644
L122707 110672
L122535 110672
L122478 110644
L122450 110615
" />
<path d="M152592 111872
L152592 111272
" />
<path d="M153135 111872
L153135 111272
" />
<path d="M153135 111844
L153078 111872
L152964 111872
L152907 111844
L152878 111815
L152850 111758
L152850 111587
L152878 111530
L152907 111501
L152964 111472
L153078 111472
L153135 111501
" />
<path d="M153421 111815
L153450 111844
L153421 111872
L153392 111844
L153421 111815
L153421 111872
" />
<path d="M153421 111501
L153450 111530
L153421 111558
L153392 111530
L153421 111501
L153421 111558
" />
<path d="M154478 111872
L154135 111872
" />
<path d="M154307 111872
L154307 111272
L154249 111358
L154192 111415
L154135 111444
" />
<path d="M155164 111244
L154650 112015
" />
<path d="M155678 111872
L155335 111872
" />
<path d="M155507 111872
L155507 111272
L155449 111358
L155392 111415
L155335 111444
" />
<path d="M119389 108872
L119732 108872
" />
<path d="M119485 109472
L119560 108872
" />
<path d="M119857 109472
L119907 109072
" />
<path d="M119932 108872
L119900 108901
L119925 108930
L119957 108901
L119932 108872
L119925 108930
" />
<path d="M120107 109072
L120335 109072
" />
<path d="M120217 108872
L120153 109387
L120175 109444
L120228 109472
L120285 109472
" />
<path d="M120571 109472
L120517 109444
L120496 109387
L120560 108872
" />
<path d="M121032 109444
L120971 109472
L120857 109472
L120803 109444
L120782 109387
L120810 109158
L120846 109101
L120907 109072
L121021 109072
L121075 109101
L121096 109158
L121089 109215
L120796 109272
" />
<path d="M121321 109415
L121346 109444
L121314 109472
L121289 109444
L121321 109415
L121314 109472
" />
<path d="M121360 109101
L121385 109130
L121353 109158
L121328 109130
L121360 109101
L121353 109158
" />
<path d="M119592 106758
L119392 106758
" />
<path d="M119392 107072
L119392 106472
L119678 106472
" />
<path d="M119907 107072
L119907 106672
" />
<path d="M119907 106472
L119878 106501
L119907 106530
L119935 106501
L119907 106472
L119907 106530
" />
<path d="M120278 107072
L120221 107044
L120192 106987
L120192 106472
" />
<path d="M120735 107044
L120678 107072
L120564 107072
L120507 107044
L120478 106987
L120478 106758
L120507 106701
L120564 106672
L120678 106672
L120735 106701
L120764 106758
L120764 106815
L120478 106872
" />
<path d="M121021 107015
L121050 107044
L121021 107072
L120992 107044
L121021 107015
L121021 107072
" />
<path d="M121021 106701
L121050 106730
L121021 106758
L120992 106730
L121021 106701
L121021 106758
" />
<path d="M121764 107072
L121764 106472
" />
<path d="M121821 106844
L121992 107072
" />
<path d="M121992 106672
L121764 106901
" />
<path d="M122478 107044
L122421 107072
L122307 107072
L122250 107044
L122221 106987
L122221 106758
L122250 106701
L122307 106672
L122421 106672
L122478 106701
L122507 106758
L122507 106815
L122221 106872
" />
<path d="M122707 106672
L122850 107072
" />
<path d="M122992 106672
L122850 107072
L122792 107215
L122764 107244
L122707 107272
" />
<path d="M123221 107072
L123221 106472
" />
<path d="M123221 106701
L123278 106672
L123392 106672
L123450 106701
L123478 106730
L123507 106787
L123507 106958
L123478 107015
L123450 107044
L123392 107072
L123278 107072
L123221 107044
" />
<path d="M123850 107072
L123792 107044
L123764 107015
L123735 106958
L123735 106787
L123764 106730
L123792 106701
L123850 106672
L123935 106672
L123992 106701
L124021 106730
L124050 106787
L124050 106958
L124021 107015
L123992 107044
L123935 107072
L123850 107072
" />
<path d="M124564 107072
L124564 106758
L124535 106701
L124478 106672
L124364 106672
L124307 106701
" />
<path d="M124564 107044
L124507 107072
L124364 107072
L124307 107044
L124278 106987
L124278 106930
L124307 106872
L124364 106844
L124507 106844
L124564 106815
" />
<path d="M124850 107072
L124850 106672
" />
<path d="M124850 106787
L124878 106730
L124907 106701
L124964 106672
L125021 106672
" />
<path d="M125478 107072
L125478 106472
" />
<path d="M125478 107044
L125421 107072
L125307 107072
L125250 107044
L125221 107015
L125192 106958
L125192 106787
L125221 106730
L125250 106701
L125307 106672
L125421 106672
L125478 106701
" />
<path d="M125764 107015
L125792 107044
L125764 107072
L125735 107044
L125764 107015
L125764 107072
" />
<path d="M126050 107072
L126050 106472
" />
<path d="M126107 106844
L126278 107072
" />
<path d="M126278 106672
L126050 106901
" />
<path d="M126535 107072
L126535 106672
" />
<path d="M126535 106472
L126507 106501
L126535 106530
L126564 106501
L126535 106472
L126535 106530
" />
<path d="M127078 107044
L127021 107072
L126907 107072
L126850 107044
L126821 107015
L126792 106958
L126792 106787
L126821 106730
L126850 106701
L126907 106672
L127021 106672
L127078 106701
" />
<path d="M127592 107072
L127592 106758
L127564 106701
L127507 106672
L127392 106672
L127335 106701
" />
<path d="M127592 107044
L127535 107072
L127392 107072
L127335 107044
L127307 106987
L127307 106930
L127335 106872
L127392 106844
L127535 106844
L127592 106815
" />
<path d="M128135 107072
L128135 106472
" />
<path d="M128135 107044
L128078 107072
L127964 107072
L127907 107044
L127878 107015
L127850 106958
L127850 106787
L127878 106730
L127907 106701
L127964 106672
L128078 106672
L128135 106701
" />
<path d="M128278 107130
L128735 107130
" />
<path d="M128878 106672
L128878 107272
" />
<path d="M128878 106701
L128935 106672
L129050 106672
L129107 106701
L129135 106730
L129164 106787
L129164 106958
L129135 107015
L129107 107044
L129050 107072
L128935 107072
L128878 107044
" />
<path d="M129678 107044
L129621 107072
L129507 107072
L129450 107044
L129421 107015
L129392 106958
L129392 106787
L129421 106730
L129450 106701
L129507 106672
L129621 106672
L129678 106701
" />
<path d="M129935 107072
L129935 106472
" />
<path d="M129935 106701
L129992 106672
L130107 106672
L130164 106701
L130192 106730
L130221 106787
L130221 106958
L130192 107015
L130164 107044
L130107 107072
L129992 107072
L129935 107044
" />
<path d="M119364 108244
L119450 108272
L119592 108272
L119650 108244
L119678 108215
L119707 108158
L119707 108101
L119678 108044
L119650 108015
L119592 107987
L119478 107958
L119421 107930
L119392 107901
L119364 107844
L119364 107787
L119392 107730
L119421 107701
L119478 107672
L119621 107672
L119707 107701
" />
<path d="M119964 108272
L119964 107672
" />
<path d="M120221 108272
L120221 107958
L120192 107901
L120135 107872
L120050 107872
L119992 107901
L119964 107930
" />
<path d="M120735 108244
L120678 108272
L120564 108272
L120507 108244
L120478 108187
L120478 107958
L120507 107901
L120564 107872
L120678 107872
L120735 107901
L120764 107958
L120764 108015
L120478 108072
" />
<path d="M121250 108244
L121192 108272
L121078 108272
L121021 108244
L120992 108187
L120992 107958
L121021 107901
L121078 107872
L121192 107872
L121250 107901
L121278 107958
L121278 108015
L120992 108072
" />
<path d="M121450 107872
L121678 107872
" />
<path d="M121535 107672
L121535 108187
L121564 108244
L121621 108272
L121678 108272
" />
<path d="M121878 108215
L121907 108244
L121878 108272
L121850 108244
L121878 108215
L121878 108272
" />
<path d="M121878 107901
L121907 107930
L121878 107958
L121850 107930
L121878 107901
L121878 107958
" />
<path d="M118650 106230
L118650 112230
" />
<path d="M118650 106230
L160650 106230
" />
<path d="M118650 106230
L160650 106230
" />
<path d="M118650 108630
L160650 108630
" />
<path d="M151850 109830
L151850 112230
" />
<path d="M118650 111030
L160650 111030
" />
<path d="M118650 109830
L160650 109830
" />
<path d="M125250 109830
L125250 111030
" />
</g>
<g style="fill:#FFFF00; fill-opacity:0.0; 
stroke:#FFFF00; stroke-width:39.0157; stroke-opacity:1; 
stroke-linecap:round; stroke-linejoin:round;">
<path d="M123000 60500
L29000 60500
" />
<path d="M123500 31500
L123500 60000
" />
<path d="M29000 31000
L123000 31000
" />
<path d="M28500 60000
L28500 31500
" />
<path d="M123500 31500 A500 500 0.0 0 0 123000 31000 " />
<path d="M123000 60500 A500 500 0.0 0 0 123500 60000 " />
<path d="M28500 60000 A500 500 0.0 0 0 29000 60500 " />
<path d="M29000 31000 A500 500 0.0 0 0 28500 31500 " />
</g>
<g style="fill:#009F00; fill-opacity:0.0; 
stroke:#009F00; stroke-width:120; stroke-opacity:1; 
stroke-linecap:round; stroke-linejoin:round;">
<path d="M28085 69523
L27742 69523
" />
<path d="M27914 69523
L27914 68723
L27857 68838
L27800 68914
L27742 68952
" />
<path d="M28600 68990
L28600 69523
" />
<path d="M28342 68990
L28342 69409
L28371 69485
L28428 69523
L28514 69523
L28571 69485
L28600 69447
" />
<path d="M29342 69104
L29800 69104
" />
<path d="M29800 69333
L29342 69333
" />
<path d="M30857 69523
L30514 69523
" />
<path d="M30685 69523
L30685 68723
L30628 68838
L30571 68914
L30514 68952
" />
<path d="M31142 69523
L31257 69523
L31314 69485
L31342 69447
L31400 69333
L31428 69180
L31428 68876
L31400 68800
L31371 68761
L31314 68723
L31200 68723
L31142 68761
L31114 68800
L31085 68876
L31085 69066
L31114 69142
L31142 69180
L31200 69219
L31314 69219
L31371 69180
L31400 69142
L31428 69066
" />
<path d="M31685 69447
L31714 69485
L31685 69523
L31657 69485
L31685 69447
L31685 69523
" />
<path d="M32085 68723
L32142 68723
L32200 68761
L32228 68800
L32257 68876
L32285 69028
L32285 69219
L32257 69371
L32228 69447
L32200 69485
L32142 69523
L32085 69523
L32028 69485
L32000 69447
L31971 69371
L31942 69219
L31942 69028
L31971 68876
L32000 68800
L32028 68761
L32085 68723
" />
<path d="M32828 68723
L32542 68723
L32514 69104
L32542 69066
L32600 69028
L32742 69028
L32800 69066
L32828 69104
L32857 69180
L32857 69371
L32828 69447
L32800 69485
L32742 69523
L32600 69523
L32542 69485
L32514 69447
" />
<path d="M33114 69523
L33114 68990
" />
<path d="M33114 69066
L33142 69028
L33200 68990
L33285 68990
L33342 69028
L33371 69104
L33371 69523
" />
<path d="M33371 69104
L33400 69028
L33457 68990
L33542 68990
L33600 69028
L33628 69104
L33628 69523
" />
<path d="M33914 69523
L33914 68990
" />
<path d="M33914 69066
L33942 69028
L34000 68990
L34085 68990
L34142 69028
L34171 69104
L34171 69523
" />
<path d="M34171 69104
L34200 69028
L34257 68990
L34342 68990
L34400 69028
L34428 69104
L34428 69523
" />
<path d="M27657 70763
L27314 70763
" />
<path d="M27485 70763
L27485 69963
L27428 70078
L27371 70154
L27314 70192
" />
<path d="M27914 70687
L27942 70725
L27914 70763
L27885 70725
L27914 70687
L27914 70763
" />
<path d="M28171 70040
L28199 70001
L28257 69963
L28399 69963
L28457 70001
L28485 70040
L28514 70116
L28514 70192
L28485 70306
L28142 70763
L28514 70763
" />
<path d="M29057 69963
L28771 69963
L28742 70344
L28771 70306
L28828 70268
L28971 70268
L29028 70306
L29057 70344
L29085 70420
L29085 70611
L29057 70687
L29028 70725
L28971 70763
L28828 70763
L28771 70725
L28742 70687
" />
<path d="M29600 70230
L29600 70763
" />
<path d="M29342 70230
L29342 70649
L29371 70725
L29428 70763
L29514 70763
L29571 70725
L29600 70687
" />
<path d="M30342 70344
L30800 70344
" />
<path d="M30800 70573
L30342 70573
" />
<path d="M31514 70040
L31542 70001
L31600 69963
L31742 69963
L31800 70001
L31828 70040
L31857 70116
L31857 70192
L31828 70306
L31485 70763
L31857 70763
" />
<path d="M32057 69963
L32428 69963
L32228 70268
L32314 70268
L32371 70306
L32400 70344
L32428 70420
L32428 70611
L32400 70687
L32371 70725
L32314 70763
L32142 70763
L32085 70725
L32057 70687
" />
<path d="M32685 70687
L32714 70725
L32685 70763
L32657 70725
L32685 70687
L32685 70763
" />
<path d="M33057 70306
L33000 70268
L32971 70230
L32942 70154
L32942 70116
L32971 70040
L33000 70001
L33057 69963
L33171 69963
L33228 70001
L33257 70040
L33285 70116
L33285 70154
L33257 70230
L33228 70268
L33171 70306
L33057 70306
L33000 70344
L32971 70382
L32942 70459
L32942 70611
L32971 70687
L33000 70725
L33057 70763
L33171 70763
L33228 70725
L33257 70687
L33285 70611
L33285 70459
L33257 70382
L33228 70344
L33171 70306
" />
<path d="M33542 70763
L33542 70230
" />
<path d="M33542 70306
L33571 70268
L33628 70230
L33714 70230
L33771 70268
L33800 70344
L33800 70763
" />
<path d="M33800 70344
L33828 70268
L33885 70230
L33971 70230
L34028 70268
L34057 70344
L34057 70763
" />
<path d="M34342 70763
L34342 70230
" />
<path d="M34342 70306
L34371 70268
L34428 70230
L34514 70230
L34571 70268
L34600 70344
L34600 70763
" />
<path d="M34600 70344
L34628 70268
L34685 70230
L34771 70230
L34828 70268
L34857 70344
L34857 70763
" />
<path d="M27371 72003
L27028 72003
" />
<path d="M27199 72003
L27199 71203
L27142 71318
L27085 71394
L27028 71432
" />
<path d="M27628 71927
L27657 71965
L27628 72003
L27600 71965
L27628 71927
L27628 72003
" />
<path d="M28199 71203
L27914 71203
L27885 71584
L27914 71546
L27971 71508
L28114 71508
L28171 71546
L28199 71584
L28228 71660
L28228 71851
L28199 71927
L28171 71965
L28114 72003
L27971 72003
L27914 71965
L27885 71927
" />
<path d="M28742 71470
L28742 72003
" />
<path d="M28485 71470
L28485 71889
L28514 71965
L28571 72003
L28657 72003
L28714 71965
L28742 71927
" />
<path d="M29485 71584
L29942 71584
" />
<path d="M29942 71813
L29485 71813
" />
<path d="M30657 71280
L30685 71241
L30742 71203
L30885 71203
L30942 71241
L30971 71280
L31000 71356
L31000 71432
L30971 71546
L30628 72003
L31000 72003
" />
<path d="M31342 71546
L31285 71508
L31257 71470
L31228 71394
L31228 71356
L31257 71280
L31285 71241
L31342 71203
L31457 71203
L31514 71241
L31542 71280
L31571 71356
L31571 71394
L31542 71470
L31514 71508
L31457 71546
L31342 71546
L31285 71584
L31257 71622
L31228 71699
L31228 71851
L31257 71927
L31285 71965
L31342 72003
L31457 72003
L31514 71965
L31542 71927
L31571 71851
L31571 71699
L31542 71622
L31514 71584
L31457 71546
" />
<path d="M31828 71927
L31857 71965
L31828 72003
L31800 71965
L31828 71927
L31828 72003
" />
<path d="M32400 71203
L32114 71203
L32085 71584
L32114 71546
L32171 71508
L32314 71508
L32371 71546
L32400 71584
L32428 71660
L32428 71851
L32400 71927
L32371 71965
L32314 72003
L32171 72003
L32114 71965
L32085 71927
" />
<path d="M32628 71203
L33028 71203
L32771 72003
" />
<path d="M33542 71203
L33257 71203
L33228 71584
L33257 71546
L33314 71508
L33457 71508
L33514 71546
L33542 71584
L33571 71660
L33571 71851
L33542 71927
L33514 71965
L33457 72003
L33314 72003
L33257 71965
L33228 71927
" />
<path d="M33828 72003
L33828 71470
" />
<path d="M33828 71546
L33857 71508
L33914 71470
L34000 71470
L34057 71508
L34085 71584
L34085 72003
" />
<path d="M34085 71584
L34114 71508
L34171 71470
L34257 71470
L34314 71508
L34342 71584
L34342 72003
" />
<path d="M34628 72003
L34628 71470
" />
<path d="M34628 71546
L34657 71508
L34714 71470
L34800 71470
L34857 71508
L34885 71584
L34885 72003
" />
<path d="M34885 71584
L34914 71508
L34971 71470
L35057 71470
L35114 71508
L35142 71584
L35142 72003
" />
<path d="M26799 73243
L26457 73243
" />
<path d="M26628 73243
L26628 72443
L26571 72558
L26514 72634
L26457 72672
" />
<path d="M27057 73167
L27085 73205
L27057 73243
L27028 73205
L27057 73167
L27057 73243
" />
<path d="M27285 72443
L27685 72443
L27428 73243
" />
<path d="M28199 72443
L27914 72443
L27885 72824
L27914 72786
L27971 72748
L28114 72748
L28171 72786
L28199 72824
L28228 72900
L28228 73091
L28199 73167
L28171 73205
L28114 73243
L27971 73243
L27914 73205
L27885 73167
" />
<path d="M28742 72710
L28742 73243
" />
<path d="M28485 72710
L28485 73129
L28514 73205
L28571 73243
L28657 73243
L28714 73205
L28742 73167
" />
<path d="M29485 72824
L29942 72824
" />
<path d="M29942 73053
L29485 73053
" />
<path d="M30628 72443
L31000 72443
L30800 72748
L30885 72748
L30942 72786
L30971 72824
L31000 72900
L31000 73091
L30971 73167
L30942 73205
L30885 73243
L30714 73243
L30657 73205
L30628 73167
" />
<path d="M31200 72443
L31571 72443
L31371 72748
L31457 72748
L31514 72786
L31542 72824
L31571 72900
L31571 73091
L31542 73167
L31514 73205
L31457 73243
L31285 73243
L31228 73205
L31200 73167
" />
<path d="M31828 73167
L31857 73205
L31828 73243
L31800 73205
L31828 73167
L31828 73243
" />
<path d="M32057 72443
L32428 72443
L32228 72748
L32314 72748
L32371 72786
L32400 72824
L32428 72900
L32428 73091
L32400 73167
L32371 73205
L32314 73243
L32142 73243
L32085 73205
L32057 73167
" />
<path d="M32628 72443
L33000 72443
L32800 72748
L32885 72748
L32942 72786
L32971 72824
L33000 72900
L33000 73091
L32971 73167
L32942 73205
L32885 73243
L32714 73243
L32657 73205
L32628 73167
" />
<path d="M33200 72443
L33600 72443
L33342 73243
" />
<path d="M34114 72443
L33828 72443
L33800 72824
L33828 72786
L33885 72748
L34028 72748
L34085 72786
L34114 72824
L34142 72900
L34142 73091
L34114 73167
L34085 73205
L34028 73243
L33885 73243
L33828 73205
L33800 73167
" />
<path d="M34400 73243
L34400 72710
" />
<path d="M34400 72786
L34428 72748
L34485 72710
L34571 72710
L34628 72748
L34657 72824
L34657 73243
" />
<path d="M34657 72824
L34685 72748
L34742 72710
L34828 72710
L34885 72748
L34914 72824
L34914 73243
" />
<path d="M35200 73243
L35200 72710
" />
<path d="M35200 72786
L35228 72748
L35285 72710
L35371 72710
L35428 72748
L35457 72824
L35457 73243
" />
<path d="M35457 72824
L35485 72748
L35542 72710
L35628 72710
L35685 72748
L35714 72824
L35714 73243
" />
<path d="M26457 73760
L26485 73721
L26542 73683
L26685 73683
L26742 73721
L26771 73760
L26799 73836
L26799 73912
L26771 74026
L26428 74483
L26799 74483
" />
<path d="M27057 74407
L27085 74445
L27057 74483
L27028 74445
L27057 74407
L27057 74483
" />
<path d="M27314 73760
L27342 73721
L27399 73683
L27542 73683
L27599 73721
L27628 73760
L27657 73836
L27657 73912
L27628 74026
L27285 74483
L27657 74483
" />
<path d="M28199 73683
L27914 73683
L27885 74064
L27914 74026
L27971 73988
L28114 73988
L28171 74026
L28199 74064
L28228 74140
L28228 74331
L28199 74407
L28171 74445
L28114 74483
L27971 74483
L27914 74445
L27885 74407
" />
<path d="M28742 73950
L28742 74483
" />
<path d="M28485 73950
L28485 74369
L28514 74445
L28571 74483
L28657 74483
L28714 74445
L28742 74407
" />
<path d="M29485 74064
L29942 74064
" />
<path d="M29942 74293
L29485 74293
" />
<path d="M30942 73950
L30942 74483
" />
<path d="M30800 73645
L30657 74217
L31028 74217
" />
<path d="M31228 73760
L31257 73721
L31314 73683
L31457 73683
L31514 73721
L31542 73760
L31571 73836
L31571 73912
L31542 74026
L31200 74483
L31571 74483
" />
<path d="M31828 74407
L31857 74445
L31828 74483
L31800 74445
L31828 74407
L31828 74483
" />
<path d="M32200 74026
L32142 73988
L32114 73950
L32085 73874
L32085 73836
L32114 73760
L32142 73721
L32200 73683
L32314 73683
L32371 73721
L32400 73760
L32428 73836
L32428 73874
L32400 73950
L32371 73988
L32314 74026
L32200 74026
L32142 74064
L32114 74102
L32085 74179
L32085 74331
L32114 74407
L32142 74445
L32200 74483
L32314 74483
L32371 74445
L32400 74407
L32428 74331
L32428 74179
L32400 74102
L32371 74064
L32314 74026
" />
<path d="M32942 73683
L32828 73683
L32771 73721
L32742 73760
L32685 73874
L32657 74026
L32657 74331
L32685 74407
L32714 74445
L32771 74483
L32885 74483
L32942 74445
L32971 74407
L33000 74331
L33000 74140
L32971 74064
L32942 74026
L32885 73988
L32771 73988
L32714 74026
L32685 74064
L32657 74140
" />
<path d="M33228 73760
L33257 73721
L33314 73683
L33457 73683
L33514 73721
L33542 73760
L33571 73836
L33571 73912
L33542 74026
L33200 74483
L33571 74483
" />
<path d="M34114 73683
L33828 73683
L33800 74064
L33828 74026
L33885 73988
L34028 73988
L34085 74026
L34114 74064
L34142 74140
L34142 74331
L34114 74407
L34085 74445
L34028 74483
L33885 74483
L33828 74445
L33800 74407
" />
<path d="M34400 74483
L34400 73950
" />
<path d="M34400 74026
L34428 73988
L34485 73950
L34571 73950
L34628 73988
L34657 74064
L34657 74483
" />
<path d="M34657 74064
L34685 73988
L34742 73950
L34828 73950
L34885 73988
L34914 74064
L34914 74483
" />
<path d="M35200 74483
L35200 73950
" />
<path d="M35200 74026
L35228 73988
L35285 73950
L35371 73950
L35428 73988
L35457 74064
L35457 74483
" />
<path d="M35457 74064
L35485 73988
L35542 73950
L35628 73950
L35685 73988
L35714 74064
L35714 74483
" />
</g> 
</svg>
